<?xml version="1.0" encoding="utf-8" standalone="no"?>
<!DOCTYPE svg PUBLIC "-//W3C//DTD SVG 1.1//EN"
  "http://www.w3.org/Graphics/SVG/1.1/DTD/svg11.dtd">
<svg xmlns:xlink="http://www.w3.org/1999/xlink" width="504pt" height="432pt" viewBox="0 0 504 432" xmlns="http://www.w3.org/2000/svg" version="1.1">
 <metadata>
  <rdf:RDF xmlns:dc="http://purl.org/dc/elements/1.1/" xmlns:cc="http://creativecommons.org/ns#" xmlns:rdf="http://www.w3.org/1999/02/22-rdf-syntax-ns#">
   <cc:Work>
    <dc:type rdf:resource="http://purl.org/dc/dcmitype/StillImage"/>
    <dc:date>2022-04-01T13:04:07.509367</dc:date>
    <dc:format>image/svg+xml</dc:format>
    <dc:creator>
     <cc:Agent>
      <dc:title>Matplotlib v3.5.1, https://matplotlib.org/</dc:title>
     </cc:Agent>
    </dc:creator>
   </cc:Work>
  </rdf:RDF>
 </metadata>
 <defs>
  <style type="text/css">*{stroke-linejoin: round; stroke-linecap: butt}</style>
 </defs>
 <g id="figure_1">
  <g id="patch_1">
   <path d="M 0 432 
L 504 432 
L 504 0 
L 0 0 
z
" style="fill: #ffffff"/>
  </g>
  <g id="axes_1">
   <g id="patch_2">
    <path d="M 36.025209 179.44 
L 493.2 179.44 
L 493.2 27.6 
L 36.025209 27.6 
z
" style="fill: #ffffff"/>
   </g>
   <g id="PolyCollection_1">
    <path d="M 36.025209 34.501818 
L 36.025209 34.508836 
L 46.910323 77.977818 
L 57.795437 78.885153 
L 68.680551 79.226565 
L 79.565665 79.424655 
L 90.45078 79.559367 
L 101.335894 79.724368 
L 112.221008 82.151722 
L 123.106122 88.217062 
L 133.991236 93.685352 
L 144.87635 103.721322 
L 155.761464 110.448525 
L 166.646578 113.995256 
L 177.531692 117.50425 
L 188.416806 120.128608 
L 199.30192 122.581506 
L 210.187034 124.895839 
L 221.072148 127.008905 
L 231.957262 128.835608 
L 242.842376 130.508984 
L 253.727491 132.11158 
L 264.612605 133.625545 
L 275.497719 135.08793 
L 286.382833 136.500315 
L 297.267947 137.854883 
L 308.153061 139.149163 
L 319.038175 140.377917 
L 329.923289 141.549853 
L 340.808403 142.676193 
L 351.693517 143.768078 
L 362.578631 144.828711 
L 373.463745 145.851605 
L 384.348859 146.837782 
L 395.233973 147.79828 
L 406.119087 148.743193 
L 417.004202 149.680933 
L 427.889316 150.617391 
L 438.77443 151.55983 
L 449.659544 152.514588 
L 460.544658 153.467396 
L 471.429772 154.396553 
L 482.314886 155.301749 
L 493.2 156.206328 
L 504.085114 157.124615 
L 514.970228 158.053021 
L 525.855342 158.990428 
L 536.740456 159.934272 
L 547.62557 160.871707 
L 558.510684 161.798772 
L 569.395798 162.714841 
L 580.280913 163.613337 
L 591.166027 164.493352 
L 602.051141 165.36476 
L 612.936255 166.236941 
L 623.821369 167.113854 
L 634.706483 167.996261 
L 645.591597 168.886801 
L 656.476711 169.786264 
L 667.361825 170.700307 
L 678.246939 171.623093 
L 689.132053 172.538182 
L 689.132053 168.463157 
L 689.132053 168.463157 
L 678.246939 167.651296 
L 667.361825 166.829282 
L 656.476711 166.008031 
L 645.591597 165.19593 
L 634.706483 164.387897 
L 623.821369 163.585954 
L 612.936255 162.789327 
L 602.051141 161.999033 
L 591.166027 161.212858 
L 580.280913 160.422382 
L 569.395798 159.616443 
L 558.510684 158.79646 
L 547.62557 157.969042 
L 536.740456 157.128926 
L 525.855342 156.27561 
L 514.970228 155.424392 
L 504.085114 154.57857 
L 493.2 153.736655 
L 482.314886 152.90865 
L 471.429772 152.09495 
L 460.544658 151.267832 
L 449.659544 150.416768 
L 438.77443 149.559844 
L 427.889316 148.712809 
L 417.004202 147.867774 
L 406.119087 147.016023 
L 395.233973 146.151892 
L 384.348859 145.266229 
L 373.463745 144.351118 
L 362.578631 143.392219 
L 351.693517 142.382507 
L 340.808403 141.333551 
L 329.923289 140.254532 
L 319.038175 139.140708 
L 308.153061 137.982816 
L 297.267947 136.766249 
L 286.382833 135.478264 
L 275.497719 134.100657 
L 264.612605 132.632671 
L 253.727491 131.073754 
L 242.842376 129.350365 
L 231.957262 127.530112 
L 221.072148 125.617047 
L 210.187034 123.456106 
L 199.30192 121.186023 
L 188.416806 118.782357 
L 177.531692 115.154624 
L 166.646578 110.491285 
L 155.761464 106.914326 
L 144.87635 100.587872 
L 133.991236 91.818337 
L 123.106122 87.389612 
L 112.221008 81.364148 
L 101.335894 79.668744 
L 90.45078 79.508166 
L 79.565665 79.373938 
L 68.680551 79.17721 
L 57.795437 78.837712 
L 46.910323 77.912765 
L 36.025209 34.501818 
z
" clip-path="url(#pb34481de95)" style="fill: #d4cc20; fill-opacity: 0.3; stroke: #d4cc20; stroke-opacity: 0.3"/>
   </g>
   <g id="PolyCollection_2">
    <path d="M 36.025209 34.505934 
L 36.025209 34.513028 
L 46.910323 80.805424 
L 57.795437 82.07377 
L 68.680551 82.558267 
L 79.565665 82.81581 
L 90.45078 82.976822 
L 101.335894 83.088438 
L 112.221008 83.172942 
L 123.106122 83.24619 
L 133.991236 83.339636 
L 144.87635 83.654878 
L 155.761464 89.94618 
L 166.646578 101.872836 
L 177.531692 104.39202 
L 188.416806 105.315384 
L 199.30192 106.256725 
L 210.187034 108.365758 
L 221.072148 110.87373 
L 231.957262 113.170751 
L 242.842376 115.577277 
L 253.727491 117.982828 
L 264.612605 120.373514 
L 275.497719 122.773318 
L 286.382833 125.221997 
L 297.267947 127.784813 
L 308.153061 130.503059 
L 319.038175 133.309164 
L 329.923289 136.060426 
L 340.808403 138.652057 
L 351.693517 141.07633 
L 362.578631 143.324587 
L 373.463745 145.391474 
L 384.348859 147.276672 
L 395.233973 148.979593 
L 406.119087 150.510756 
L 417.004202 151.891767 
L 427.889316 153.154612 
L 438.77443 154.339618 
L 449.659544 155.48887 
L 460.544658 156.64026 
L 471.429772 157.824162 
L 482.314886 159.054604 
L 493.2 160.331493 
L 504.085114 161.656585 
L 514.970228 163.025368 
L 525.855342 164.431659 
L 536.740456 165.871145 
L 547.62557 167.334688 
L 558.510684 168.788253 
L 569.395798 170.208305 
L 580.280913 171.582811 
L 591.166027 172.904653 
L 602.051141 174.176984 
L 612.936255 175.408266 
L 623.821369 176.595841 
L 634.706483 177.732884 
L 645.591597 178.819891 
L 656.476711 179.862639 
L 667.361825 180.867879 
L 678.246939 181.839485 
L 689.132053 182.772861 
L 689.132053 180.832384 
L 689.132053 180.832384 
L 678.246939 179.909605 
L 667.361825 178.947855 
L 656.476711 177.960121 
L 645.591597 176.942835 
L 634.706483 175.886703 
L 623.821369 174.781953 
L 612.936255 173.625606 
L 602.051141 172.428667 
L 591.166027 171.201284 
L 580.280913 169.937215 
L 569.395798 168.635405 
L 558.510684 167.303514 
L 547.62557 165.953215 
L 536.740456 164.600797 
L 525.855342 163.274559 
L 514.970228 161.986209 
L 504.085114 160.739729 
L 493.2 159.533491 
L 482.314886 158.364608 
L 471.429772 157.222584 
L 460.544658 156.099804 
L 449.659544 154.978579 
L 438.77443 153.829338 
L 427.889316 152.618878 
L 417.004202 151.313487 
L 406.119087 149.880831 
L 395.233973 148.295097 
L 384.348859 146.540275 
L 373.463745 144.610084 
L 362.578631 142.506439 
L 351.693517 140.229296 
L 340.808403 137.782805 
L 329.923289 135.186973 
L 319.038175 132.462151 
L 308.153061 129.721076 
L 297.267947 127.089116 
L 286.382833 124.602764 
L 275.497719 122.212332 
L 264.612605 119.863065 
L 253.727491 117.517529 
L 242.842376 115.155867 
L 231.957262 112.814226 
L 221.072148 110.510036 
L 210.187034 108.018017 
L 199.30192 106.059035 
L 188.416806 104.101672 
L 177.531692 102.421327 
L 166.646578 98.857983 
L 155.761464 87.75944 
L 144.87635 83.589841 
L 133.991236 83.33363 
L 123.106122 83.24491 
L 112.221008 83.172553 
L 101.335894 83.088262 
L 90.45078 82.976654 
L 79.565665 82.815562 
L 68.680551 82.557852 
L 57.795437 82.072936 
L 46.910323 80.802695 
L 36.025209 34.505934 
z
" clip-path="url(#pb34481de95)" style="fill: #34ad6f; fill-opacity: 0.3; stroke: #34ad6f; stroke-opacity: 0.3"/>
   </g>
   <g id="matplotlib.axis_1">
    <g id="xtick_1">
     <g id="line2d_1">
      <defs>
       <path id="m1d36849ff3" d="M 0 0 
L 0 3.5 
" style="stroke: #000000; stroke-width: 0.8"/>
      </defs>
      <g>
       <use xlink:href="#m1d36849ff3" x="36.025209" y="179.44" style="stroke: #000000; stroke-width: 0.8"/>
      </g>
     </g>
     <g id="text_1">
      <text style="font: 10px 'sans-serif'; text-anchor: middle" x="36.025209" y="194.038437" transform="rotate(-0, 36.025209, 194.038437)">0</text>
     </g>
    </g>
    <g id="xtick_2">
     <g id="line2d_2">
      <g>
       <use xlink:href="#m1d36849ff3" x="90.45078" y="179.44" style="stroke: #000000; stroke-width: 0.8"/>
      </g>
     </g>
     <g id="text_2">
      <text style="font: 10px 'sans-serif'; text-anchor: middle" x="90.45078" y="194.038437" transform="rotate(-0, 90.45078, 194.038437)">250</text>
     </g>
    </g>
    <g id="xtick_3">
     <g id="line2d_3">
      <g>
       <use xlink:href="#m1d36849ff3" x="144.87635" y="179.44" style="stroke: #000000; stroke-width: 0.8"/>
      </g>
     </g>
     <g id="text_3">
      <text style="font: 10px 'sans-serif'; text-anchor: middle" x="144.87635" y="194.038437" transform="rotate(-0, 144.87635, 194.038437)">500</text>
     </g>
    </g>
    <g id="xtick_4">
     <g id="line2d_4">
      <g>
       <use xlink:href="#m1d36849ff3" x="199.30192" y="179.44" style="stroke: #000000; stroke-width: 0.8"/>
      </g>
     </g>
     <g id="text_4">
      <text style="font: 10px 'sans-serif'; text-anchor: middle" x="199.30192" y="194.038437" transform="rotate(-0, 199.30192, 194.038437)">750</text>
     </g>
    </g>
    <g id="xtick_5">
     <g id="line2d_5">
      <g>
       <use xlink:href="#m1d36849ff3" x="253.727491" y="179.44" style="stroke: #000000; stroke-width: 0.8"/>
      </g>
     </g>
     <g id="text_5">
      <text style="font: 10px 'sans-serif'; text-anchor: middle" x="253.727491" y="194.038437" transform="rotate(-0, 253.727491, 194.038437)">1000</text>
     </g>
    </g>
    <g id="xtick_6">
     <g id="line2d_6">
      <g>
       <use xlink:href="#m1d36849ff3" x="308.153061" y="179.44" style="stroke: #000000; stroke-width: 0.8"/>
      </g>
     </g>
     <g id="text_6">
      <text style="font: 10px 'sans-serif'; text-anchor: middle" x="308.153061" y="194.038437" transform="rotate(-0, 308.153061, 194.038437)">1250</text>
     </g>
    </g>
    <g id="xtick_7">
     <g id="line2d_7">
      <g>
       <use xlink:href="#m1d36849ff3" x="362.578631" y="179.44" style="stroke: #000000; stroke-width: 0.8"/>
      </g>
     </g>
     <g id="text_7">
      <text style="font: 10px 'sans-serif'; text-anchor: middle" x="362.578631" y="194.038437" transform="rotate(-0, 362.578631, 194.038437)">1500</text>
     </g>
    </g>
    <g id="xtick_8">
     <g id="line2d_8">
      <g>
       <use xlink:href="#m1d36849ff3" x="417.004202" y="179.44" style="stroke: #000000; stroke-width: 0.8"/>
      </g>
     </g>
     <g id="text_8">
      <text style="font: 10px 'sans-serif'; text-anchor: middle" x="417.004202" y="194.038437" transform="rotate(-0, 417.004202, 194.038437)">1750</text>
     </g>
    </g>
    <g id="xtick_9">
     <g id="line2d_9">
      <g>
       <use xlink:href="#m1d36849ff3" x="471.429772" y="179.44" style="stroke: #000000; stroke-width: 0.8"/>
      </g>
     </g>
     <g id="text_9">
      <text style="font: 10px 'sans-serif'; text-anchor: middle" x="471.429772" y="194.038437" transform="rotate(-0, 471.429772, 194.038437)">2000</text>
     </g>
    </g>
    <g id="text_10">
     <text style="font: 10px 'sans-serif'; text-anchor: middle" x="264.612605" y="207.716562" transform="rotate(-0, 264.612605, 207.716562)">Epoch</text>
    </g>
   </g>
   <g id="matplotlib.axis_2">
    <g id="ytick_1">
     <g id="line2d_10">
      <defs>
       <path id="mce0058bf2d" d="M 0 0 
L -3.5 0 
" style="stroke: #000000; stroke-width: 0.8"/>
      </defs>
      <g>
       <use xlink:href="#mce0058bf2d" x="36.025209" y="161.159483" style="stroke: #000000; stroke-width: 0.8"/>
      </g>
     </g>
     <g id="text_11">
      <!-- $\mathdefault{10^{0}}$ -->
      <g transform="translate(11.425209 164.958702)">
       <text>
        <tspan style="font: 10px 'DejaVu Sans'" x="0 6.362305" y="-0.9765625">10</tspan>
        <tspan style="font: 7px 'DejaVu Sans'" x="12.820312" y="-4.8046875">0</tspan>
       </text>
      </g>
     </g>
    </g>
    <g id="ytick_2">
     <g id="line2d_11">
      <g>
       <use xlink:href="#mce0058bf2d" x="36.025209" y="115.004192" style="stroke: #000000; stroke-width: 0.8"/>
      </g>
     </g>
     <g id="text_12">
      <!-- $\mathdefault{10^{1}}$ -->
      <g transform="translate(11.425209 118.803411)">
       <text>
        <tspan style="font: 10px 'DejaVu Sans'" x="0 6.362305" y="-0.06406250000000036">10</tspan>
        <tspan style="font: 7px 'DejaVu Sans'" x="12.820312" y="-3.8921875000000004">1</tspan>
       </text>
      </g>
     </g>
    </g>
    <g id="ytick_3">
     <g id="line2d_12">
      <g>
       <use xlink:href="#mce0058bf2d" x="36.025209" y="68.848901" style="stroke: #000000; stroke-width: 0.8"/>
      </g>
     </g>
     <g id="text_13">
      <!-- $\mathdefault{10^{2}}$ -->
      <g transform="translate(11.425209 72.648119)">
       <text>
        <tspan style="font: 10px 'DejaVu Sans'" x="0 6.362305" y="-0.9765625">10</tspan>
        <tspan style="font: 7px 'DejaVu Sans'" x="12.820312" y="-4.8046875">2</tspan>
       </text>
      </g>
     </g>
    </g>
    <g id="ytick_4">
     <g id="line2d_13">
      <defs>
       <path id="m81a2aa2b17" d="M 0 0 
L -2 0 
" style="stroke: #000000; stroke-width: 0.6"/>
      </defs>
      <g>
       <use xlink:href="#m81a2aa2b17" x="36.025209" y="175.05361" style="stroke: #000000; stroke-width: 0.6"/>
      </g>
     </g>
    </g>
    <g id="ytick_5">
     <g id="line2d_14">
      <g>
       <use xlink:href="#m81a2aa2b17" x="36.025209" y="171.398976" style="stroke: #000000; stroke-width: 0.6"/>
      </g>
     </g>
    </g>
    <g id="ytick_6">
     <g id="line2d_15">
      <g>
       <use xlink:href="#m81a2aa2b17" x="36.025209" y="168.309028" style="stroke: #000000; stroke-width: 0.6"/>
      </g>
     </g>
    </g>
    <g id="ytick_7">
     <g id="line2d_16">
      <g>
       <use xlink:href="#m81a2aa2b17" x="36.025209" y="165.632393" style="stroke: #000000; stroke-width: 0.6"/>
      </g>
     </g>
    </g>
    <g id="ytick_8">
     <g id="line2d_17">
      <g>
       <use xlink:href="#m81a2aa2b17" x="36.025209" y="163.271433" style="stroke: #000000; stroke-width: 0.6"/>
      </g>
     </g>
    </g>
    <g id="ytick_9">
     <g id="line2d_18">
      <g>
       <use xlink:href="#m81a2aa2b17" x="36.025209" y="147.265356" style="stroke: #000000; stroke-width: 0.6"/>
      </g>
     </g>
    </g>
    <g id="ytick_10">
     <g id="line2d_19">
      <g>
       <use xlink:href="#m81a2aa2b17" x="36.025209" y="139.137812" style="stroke: #000000; stroke-width: 0.6"/>
      </g>
     </g>
    </g>
    <g id="ytick_11">
     <g id="line2d_20">
      <g>
       <use xlink:href="#m81a2aa2b17" x="36.025209" y="133.371229" style="stroke: #000000; stroke-width: 0.6"/>
      </g>
     </g>
    </g>
    <g id="ytick_12">
     <g id="line2d_21">
      <g>
       <use xlink:href="#m81a2aa2b17" x="36.025209" y="128.898319" style="stroke: #000000; stroke-width: 0.6"/>
      </g>
     </g>
    </g>
    <g id="ytick_13">
     <g id="line2d_22">
      <g>
       <use xlink:href="#m81a2aa2b17" x="36.025209" y="125.243685" style="stroke: #000000; stroke-width: 0.6"/>
      </g>
     </g>
    </g>
    <g id="ytick_14">
     <g id="line2d_23">
      <g>
       <use xlink:href="#m81a2aa2b17" x="36.025209" y="122.153737" style="stroke: #000000; stroke-width: 0.6"/>
      </g>
     </g>
    </g>
    <g id="ytick_15">
     <g id="line2d_24">
      <g>
       <use xlink:href="#m81a2aa2b17" x="36.025209" y="119.477102" style="stroke: #000000; stroke-width: 0.6"/>
      </g>
     </g>
    </g>
    <g id="ytick_16">
     <g id="line2d_25">
      <g>
       <use xlink:href="#m81a2aa2b17" x="36.025209" y="117.116142" style="stroke: #000000; stroke-width: 0.6"/>
      </g>
     </g>
    </g>
    <g id="ytick_17">
     <g id="line2d_26">
      <g>
       <use xlink:href="#m81a2aa2b17" x="36.025209" y="101.110065" style="stroke: #000000; stroke-width: 0.6"/>
      </g>
     </g>
    </g>
    <g id="ytick_18">
     <g id="line2d_27">
      <g>
       <use xlink:href="#m81a2aa2b17" x="36.025209" y="92.982521" style="stroke: #000000; stroke-width: 0.6"/>
      </g>
     </g>
    </g>
    <g id="ytick_19">
     <g id="line2d_28">
      <g>
       <use xlink:href="#m81a2aa2b17" x="36.025209" y="87.215938" style="stroke: #000000; stroke-width: 0.6"/>
      </g>
     </g>
    </g>
    <g id="ytick_20">
     <g id="line2d_29">
      <g>
       <use xlink:href="#m81a2aa2b17" x="36.025209" y="82.743028" style="stroke: #000000; stroke-width: 0.6"/>
      </g>
     </g>
    </g>
    <g id="ytick_21">
     <g id="line2d_30">
      <g>
       <use xlink:href="#m81a2aa2b17" x="36.025209" y="79.088394" style="stroke: #000000; stroke-width: 0.6"/>
      </g>
     </g>
    </g>
    <g id="ytick_22">
     <g id="line2d_31">
      <g>
       <use xlink:href="#m81a2aa2b17" x="36.025209" y="75.998446" style="stroke: #000000; stroke-width: 0.6"/>
      </g>
     </g>
    </g>
    <g id="ytick_23">
     <g id="line2d_32">
      <g>
       <use xlink:href="#m81a2aa2b17" x="36.025209" y="73.321811" style="stroke: #000000; stroke-width: 0.6"/>
      </g>
     </g>
    </g>
    <g id="ytick_24">
     <g id="line2d_33">
      <g>
       <use xlink:href="#m81a2aa2b17" x="36.025209" y="70.960851" style="stroke: #000000; stroke-width: 0.6"/>
      </g>
     </g>
    </g>
    <g id="ytick_25">
     <g id="line2d_34">
      <g>
       <use xlink:href="#m81a2aa2b17" x="36.025209" y="54.954774" style="stroke: #000000; stroke-width: 0.6"/>
      </g>
     </g>
    </g>
    <g id="ytick_26">
     <g id="line2d_35">
      <g>
       <use xlink:href="#m81a2aa2b17" x="36.025209" y="46.82723" style="stroke: #000000; stroke-width: 0.6"/>
      </g>
     </g>
    </g>
    <g id="ytick_27">
     <g id="line2d_36">
      <g>
       <use xlink:href="#m81a2aa2b17" x="36.025209" y="41.060647" style="stroke: #000000; stroke-width: 0.6"/>
      </g>
     </g>
    </g>
    <g id="ytick_28">
     <g id="line2d_37">
      <g>
       <use xlink:href="#m81a2aa2b17" x="36.025209" y="36.587737" style="stroke: #000000; stroke-width: 0.6"/>
      </g>
     </g>
    </g>
    <g id="ytick_29">
     <g id="line2d_38">
      <g>
       <use xlink:href="#m81a2aa2b17" x="36.025209" y="32.933103" style="stroke: #000000; stroke-width: 0.6"/>
      </g>
     </g>
    </g>
    <g id="ytick_30">
     <g id="line2d_39">
      <g>
       <use xlink:href="#m81a2aa2b17" x="36.025209" y="29.843155" style="stroke: #000000; stroke-width: 0.6"/>
      </g>
     </g>
    </g>
   </g>
   <g id="line2d_40">
    <path d="M 36.025209 34.505327 
L 46.910323 77.945265 
L 57.795437 78.861419 
L 68.680551 79.201872 
L 79.565665 79.399281 
L 90.45078 79.53375 
L 101.335894 79.696537 
L 112.221008 81.754067 
L 123.106122 87.799068 
L 133.991236 92.730116 
L 144.87635 102.093432 
L 155.761464 108.603635 
L 166.646578 112.166804 
L 177.531692 116.295029 
L 188.416806 119.444182 
L 199.30192 121.871623 
L 210.187034 124.163049 
L 221.072148 126.300898 
L 231.957262 128.172233 
L 242.842376 129.921305 
L 253.727491 131.585951 
L 264.612605 133.122961 
L 275.497719 134.588216 
L 286.382833 135.982776 
L 297.267947 137.303177 
L 308.153061 138.557507 
L 319.038175 139.749769 
L 329.923289 140.891731 
L 340.808403 141.993633 
L 351.693517 143.063323 
L 362.578631 144.0976 
L 373.463745 145.087325 
L 384.348859 146.036608 
L 395.233973 146.958188 
L 406.119087 147.861011 
L 417.004202 148.75386 
L 427.889316 149.642488 
L 438.77443 150.534903 
L 449.659544 151.438247 
L 460.544658 152.337459 
L 471.429772 153.212735 
L 482.314886 154.069507 
L 493.2 154.933481 
L 504.085114 155.811196 
L 505 155.885533 
" clip-path="url(#pb34481de95)" style="fill: none; stroke: #d4cc20; stroke-width: 1.5; stroke-linecap: square"/>
   </g>
   <g id="line2d_41">
    <path d="M 101.335894 179.44 
L 101.335894 27.6 
" clip-path="url(#pb34481de95)" style="fill: none; stroke-dasharray: 1.85,0.8; stroke-dashoffset: 0; stroke: #000000; stroke-width: 0.5"/>
   </g>
   <g id="line2d_42">
    <path d="M 144.87635 179.44 
L 144.87635 27.6 
" clip-path="url(#pb34481de95)" style="fill: none; stroke-dasharray: 1.85,0.8; stroke-dashoffset: 0; stroke: #000000; stroke-width: 0.5"/>
   </g>
   <g id="line2d_43">
    <path d="M 384.348859 179.44 
L 384.348859 27.6 
" clip-path="url(#pb34481de95)" style="fill: none; stroke-dasharray: 1.85,0.8; stroke-dashoffset: 0; stroke: #000000; stroke-width: 0.5"/>
   </g>
   <g id="line2d_44">
    <path d="M 36.025209 34.50948 
L 46.910323 80.804059 
L 57.795437 82.073353 
L 68.680551 82.55806 
L 79.565665 82.815686 
L 90.45078 82.976738 
L 101.335894 83.08835 
L 112.221008 83.172748 
L 123.106122 83.24555 
L 133.991236 83.336633 
L 144.87635 83.622333 
L 155.761464 88.823006 
L 166.646578 100.308782 
L 177.531692 103.382465 
L 188.416806 104.699343 
L 199.30192 106.157636 
L 210.187034 108.191133 
L 221.072148 110.691058 
L 231.957262 112.991696 
L 242.842376 115.365465 
L 253.727491 117.748829 
L 264.612605 120.116664 
L 275.497719 122.490863 
L 286.382833 124.909989 
L 297.267947 127.433947 
L 308.153061 130.108254 
L 319.038175 132.881184 
L 329.923289 135.618942 
L 340.808403 138.21272 
L 351.693517 140.648339 
L 362.578631 142.911339 
L 373.463745 144.996972 
L 384.348859 146.905092 
L 395.233973 148.634423 
L 406.119087 150.193319 
L 417.004202 151.600542 
L 427.889316 152.884955 
L 438.77443 154.082855 
L 449.659544 155.232101 
L 460.544658 156.36821 
L 471.429772 157.521116 
L 482.314886 158.706637 
L 493.2 159.928521 
L 504.085114 161.192915 
L 505 161.302695 
" clip-path="url(#pb34481de95)" style="fill: none; stroke: #34ad6f; stroke-width: 1.5; stroke-linecap: square"/>
   </g>
   <g id="line2d_45">
    <path d="M 101.335894 179.44 
L 101.335894 27.6 
" clip-path="url(#pb34481de95)" style="fill: none; stroke-dasharray: 1.85,0.8; stroke-dashoffset: 0; stroke: #000000; stroke-width: 0.5"/>
   </g>
   <g id="line2d_46">
    <path d="M 144.87635 179.44 
L 144.87635 27.6 
" clip-path="url(#pb34481de95)" style="fill: none; stroke-dasharray: 1.85,0.8; stroke-dashoffset: 0; stroke: #000000; stroke-width: 0.5"/>
   </g>
   <g id="line2d_47">
    <path d="M 384.348859 179.44 
L 384.348859 27.6 
" clip-path="url(#pb34481de95)" style="fill: none; stroke-dasharray: 1.85,0.8; stroke-dashoffset: 0; stroke: #000000; stroke-width: 0.5"/>
   </g>
   <g id="patch_3">
    <path d="M 36.025209 179.44 
L 36.025209 27.6 
" style="fill: none; stroke: #000000; stroke-width: 0.8; stroke-linejoin: miter; stroke-linecap: square"/>
   </g>
   <g id="patch_4">
    <path d="M 493.2 179.44 
L 493.2 27.6 
" style="fill: none; stroke: #000000; stroke-width: 0.8; stroke-linejoin: miter; stroke-linecap: square"/>
   </g>
   <g id="patch_5">
    <path d="M 36.025209 179.44 
L 493.2 179.44 
" style="fill: none; stroke: #000000; stroke-width: 0.8; stroke-linejoin: miter; stroke-linecap: square"/>
   </g>
   <g id="patch_6">
    <path d="M 36.025209 27.6 
L 493.2 27.6 
" style="fill: none; stroke: #000000; stroke-width: 0.8; stroke-linejoin: miter; stroke-linecap: square"/>
   </g>
   <g id="text_14">
    <text style="font: 14.4px 'sans-serif'; text-anchor: middle" x="264.612605" y="21.6" transform="rotate(-0, 264.612605, 21.6)">Loss</text>
   </g>
   <g id="legend_1">
    <g id="patch_7">
     <path d="M 405.86875 64.95625 
L 486.2 64.95625 
Q 488.2 64.95625 488.2 62.95625 
L 488.2 34.6 
Q 488.2 32.6 486.2 32.6 
L 405.86875 32.6 
Q 403.86875 32.6 403.86875 34.6 
L 403.86875 62.95625 
Q 403.86875 64.95625 405.86875 64.95625 
z
" style="fill: #ffffff; opacity: 0.8; stroke: #cccccc; stroke-linejoin: miter"/>
    </g>
    <g id="line2d_48">
     <path d="M 407.86875 40.698438 
L 417.86875 40.698438 
L 427.86875 40.698438 
" style="fill: none; stroke: #d4cc20; stroke-width: 1.5; stroke-linecap: square"/>
    </g>
    <g id="text_15">
     <text style="font: 10px 'sans-serif'; text-anchor: start" x="435.86875" y="44.198438" transform="rotate(-0, 435.86875, 44.198438)">Hierarchy</text>
    </g>
    <g id="line2d_49">
     <path d="M 407.86875 55.376563 
L 417.86875 55.376563 
L 427.86875 55.376563 
" style="fill: none; stroke: #34ad6f; stroke-width: 1.5; stroke-linecap: square"/>
    </g>
    <g id="text_16">
     <text style="font: 10px 'sans-serif'; text-anchor: start" x="435.86875" y="58.876563" transform="rotate(-0, 435.86875, 58.876563)">Ordering</text>
    </g>
   </g>
  </g>
  <g id="axes_2">
   <g id="patch_8">
    <path d="M 36.025209 390.04 
L 493.2 390.04 
L 493.2 238.2 
L 36.025209 238.2 
z
" style="fill: #ffffff"/>
   </g>
   <g id="PolyCollection_3">
    <path d="M 36.025209 380.414223 
L 36.025209 383.138182 
L 46.910323 368.702598 
L 57.795437 370.057192 
L 68.680551 370.057192 
L 79.565665 370.057192 
L 90.45078 370.057192 
L 101.335894 370.281417 
L 112.221008 357.178295 
L 123.106122 328.641584 
L 133.991236 311.871011 
L 144.87635 280.541399 
L 155.761464 270.817507 
L 166.646578 266.035957 
L 177.531692 259.428954 
L 188.416806 255.694862 
L 199.30192 254.451605 
L 210.187034 253.381779 
L 221.072148 252.55079 
L 231.957262 251.644076 
L 242.842376 250.676027 
L 253.727491 250.01227 
L 264.612605 249.496733 
L 275.497719 248.958244 
L 286.382833 248.619253 
L 297.267947 248.353605 
L 308.153061 248.121634 
L 319.038175 247.977136 
L 329.923289 247.821201 
L 340.808403 247.720442 
L 351.693517 247.550027 
L 362.578631 247.400058 
L 373.463745 247.30896 
L 384.348859 247.226286 
L 395.233973 247.159081 
L 406.119087 247.078914 
L 417.004202 246.965355 
L 427.889316 246.868757 
L 438.77443 246.767481 
L 449.659544 246.664196 
L 460.544658 246.549241 
L 471.429772 246.476482 
L 482.314886 246.418543 
L 493.2 246.307316 
L 504.085114 246.236948 
L 514.970228 246.145914 
L 525.855342 246.06256 
L 536.740456 245.989861 
L 547.62557 245.919956 
L 558.510684 245.867523 
L 569.395798 245.813368 
L 580.280913 245.776929 
L 591.166027 245.709205 
L 602.051141 245.674733 
L 612.936255 245.62921 
L 623.821369 245.570353 
L 634.706483 245.50437 
L 645.591597 245.474597 
L 656.476711 245.439763 
L 667.361825 245.373602 
L 678.246939 245.347626 
L 689.132053 245.313427 
L 689.132053 245.101818 
L 689.132053 245.101818 
L 678.246939 245.13227 
L 667.361825 245.155551 
L 656.476711 245.208134 
L 645.591597 245.236411 
L 634.706483 245.263372 
L 623.821369 245.32229 
L 612.936255 245.37514 
L 602.051141 245.412959 
L 591.166027 245.449293 
L 580.280913 245.505593 
L 569.395798 245.53952 
L 558.510684 245.584759 
L 547.62557 245.644915 
L 536.740456 245.70651 
L 525.855342 245.771687 
L 514.970228 245.849297 
L 504.085114 245.932863 
L 493.2 245.997071 
L 482.314886 246.100685 
L 471.429772 246.148517 
L 460.544658 246.224408 
L 449.659544 246.33221 
L 438.77443 246.43167 
L 427.889316 246.525664 
L 417.004202 246.623897 
L 406.119087 246.733093 
L 395.233973 246.820928 
L 384.348859 246.888521 
L 373.463745 246.975169 
L 362.578631 247.067246 
L 351.693517 247.204465 
L 340.808403 247.36016 
L 329.923289 247.445215 
L 319.038175 247.597574 
L 308.153061 247.72773 
L 297.267947 247.929617 
L 286.382833 248.143787 
L 275.497719 248.475047 
L 264.612605 248.981952 
L 253.727491 249.465631 
L 242.842376 250.155344 
L 231.957262 250.953956 
L 221.072148 251.77014 
L 210.187034 252.607518 
L 199.30192 253.582083 
L 188.416806 254.729115 
L 177.531692 255.890391 
L 166.646578 260.167012 
L 155.761464 264.528155 
L 144.87635 272.163221 
L 133.991236 302.326511 
L 123.106122 320.918594 
L 112.221008 349.604147 
L 101.335894 368.574667 
L 90.45078 368.335787 
L 79.565665 368.335787 
L 68.680551 368.335787 
L 57.795437 368.335787 
L 46.910323 366.840502 
L 36.025209 380.414223 
z
" clip-path="url(#p7828e3b621)" style="fill: #d4cc20; fill-opacity: 0.3; stroke: #d4cc20; stroke-opacity: 0.3"/>
   </g>
   <g id="PolyCollection_4">
    <path d="M 36.025209 378.882458 
L 36.025209 382.547713 
L 46.910323 334.937803 
L 57.795437 338.590049 
L 68.680551 338.590049 
L 79.565665 338.590049 
L 90.45078 338.590049 
L 101.335894 338.590049 
L 112.221008 338.590049 
L 123.106122 338.590049 
L 133.991236 338.590049 
L 144.87635 337.884885 
L 155.761464 315.27841 
L 166.646578 283.379948 
L 177.531692 277.227181 
L 188.416806 275.130813 
L 199.30192 272.518317 
L 210.187034 269.455433 
L 221.072148 267.863244 
L 231.957262 265.659298 
L 242.842376 264.934009 
L 253.727491 262.962752 
L 264.612605 259.352047 
L 275.497719 257.633039 
L 286.382833 256.538897 
L 297.267947 255.192264 
L 308.153061 253.707467 
L 319.038175 251.95673 
L 329.923289 250.580368 
L 340.808403 249.569673 
L 351.693517 248.741247 
L 362.578631 248.146455 
L 373.463745 247.764706 
L 384.348859 247.65036 
L 395.233973 247.52577 
L 406.119087 247.418444 
L 417.004202 247.37357 
L 427.889316 247.237778 
L 438.77443 247.082454 
L 449.659544 246.88638 
L 460.544658 246.634537 
L 471.429772 246.444672 
L 482.314886 246.18807 
L 493.2 246.008285 
L 504.085114 245.817861 
L 514.970228 245.646132 
L 525.855342 245.494533 
L 536.740456 245.382516 
L 547.62557 245.305069 
L 558.510684 245.232965 
L 569.395798 245.179795 
L 580.280913 245.105658 
L 591.166027 245.083708 
L 602.051141 245.052247 
L 612.936255 244.99905 
L 623.821369 244.98339 
L 634.706483 244.963313 
L 645.591597 244.935812 
L 656.476711 244.924374 
L 667.361825 244.924374 
L 678.246939 244.905361 
L 689.132053 244.860549 
L 689.132053 244.78135 
L 689.132053 244.78135 
L 678.246939 244.791073 
L 667.361825 244.799327 
L 656.476711 244.799327 
L 645.591597 244.80834 
L 634.706483 244.828556 
L 623.821369 244.842563 
L 612.936255 244.847793 
L 602.051141 244.876398 
L 591.166027 244.900352 
L 580.280913 244.920183 
L 569.395798 244.968749 
L 558.510684 245.011014 
L 547.62557 245.062492 
L 536.740456 245.135895 
L 525.855342 245.228823 
L 514.970228 245.36397 
L 504.085114 245.512633 
L 493.2 245.696694 
L 482.314886 245.870944 
L 471.429772 246.131982 
L 460.544658 246.337053 
L 449.659544 246.64243 
L 438.77443 246.8701 
L 427.889316 247.047261 
L 417.004202 247.224163 
L 406.119087 247.281542 
L 395.233973 247.405548 
L 384.348859 247.492279 
L 373.463745 247.582656 
L 362.578631 247.862357 
L 351.693517 248.344625 
L 340.808403 249.104957 
L 329.923289 250.180653 
L 319.038175 251.347847 
L 308.153061 253.057646 
L 297.267947 254.56654 
L 286.382833 255.97105 
L 275.497719 256.939984 
L 264.612605 258.473044 
L 253.727491 261.955582 
L 242.842376 264.52301 
L 231.957262 265.248166 
L 221.072148 267.327397 
L 210.187034 269.170011 
L 199.30192 272.023928 
L 188.416806 273.326718 
L 177.531692 273.623059 
L 166.646578 276.653004 
L 155.761464 305.304965 
L 144.87635 334.607573 
L 133.991236 335.283148 
L 123.106122 335.283148 
L 112.221008 335.283148 
L 101.335894 335.283148 
L 90.45078 335.283148 
L 79.565665 335.283148 
L 68.680551 335.283148 
L 57.795437 335.283148 
L 46.910323 331.620712 
L 36.025209 378.882458 
z
" clip-path="url(#p7828e3b621)" style="fill: #34ad6f; fill-opacity: 0.3; stroke: #34ad6f; stroke-opacity: 0.3"/>
   </g>
   <g id="matplotlib.axis_3">
    <g id="xtick_10">
     <g id="line2d_50">
      <g>
       <use xlink:href="#m1d36849ff3" x="36.025209" y="390.04" style="stroke: #000000; stroke-width: 0.8"/>
      </g>
     </g>
     <g id="text_17">
      <text style="font: 10px 'sans-serif'; text-anchor: middle" x="36.025209" y="404.638438" transform="rotate(-0, 36.025209, 404.638438)">0</text>
     </g>
    </g>
    <g id="xtick_11">
     <g id="line2d_51">
      <g>
       <use xlink:href="#m1d36849ff3" x="90.45078" y="390.04" style="stroke: #000000; stroke-width: 0.8"/>
      </g>
     </g>
     <g id="text_18">
      <text style="font: 10px 'sans-serif'; text-anchor: middle" x="90.45078" y="404.638438" transform="rotate(-0, 90.45078, 404.638438)">250</text>
     </g>
    </g>
    <g id="xtick_12">
     <g id="line2d_52">
      <g>
       <use xlink:href="#m1d36849ff3" x="144.87635" y="390.04" style="stroke: #000000; stroke-width: 0.8"/>
      </g>
     </g>
     <g id="text_19">
      <text style="font: 10px 'sans-serif'; text-anchor: middle" x="144.87635" y="404.638438" transform="rotate(-0, 144.87635, 404.638438)">500</text>
     </g>
    </g>
    <g id="xtick_13">
     <g id="line2d_53">
      <g>
       <use xlink:href="#m1d36849ff3" x="199.30192" y="390.04" style="stroke: #000000; stroke-width: 0.8"/>
      </g>
     </g>
     <g id="text_20">
      <text style="font: 10px 'sans-serif'; text-anchor: middle" x="199.30192" y="404.638438" transform="rotate(-0, 199.30192, 404.638438)">750</text>
     </g>
    </g>
    <g id="xtick_14">
     <g id="line2d_54">
      <g>
       <use xlink:href="#m1d36849ff3" x="253.727491" y="390.04" style="stroke: #000000; stroke-width: 0.8"/>
      </g>
     </g>
     <g id="text_21">
      <text style="font: 10px 'sans-serif'; text-anchor: middle" x="253.727491" y="404.638438" transform="rotate(-0, 253.727491, 404.638438)">1000</text>
     </g>
    </g>
    <g id="xtick_15">
     <g id="line2d_55">
      <g>
       <use xlink:href="#m1d36849ff3" x="308.153061" y="390.04" style="stroke: #000000; stroke-width: 0.8"/>
      </g>
     </g>
     <g id="text_22">
      <text style="font: 10px 'sans-serif'; text-anchor: middle" x="308.153061" y="404.638438" transform="rotate(-0, 308.153061, 404.638438)">1250</text>
     </g>
    </g>
    <g id="xtick_16">
     <g id="line2d_56">
      <g>
       <use xlink:href="#m1d36849ff3" x="362.578631" y="390.04" style="stroke: #000000; stroke-width: 0.8"/>
      </g>
     </g>
     <g id="text_23">
      <text style="font: 10px 'sans-serif'; text-anchor: middle" x="362.578631" y="404.638438" transform="rotate(-0, 362.578631, 404.638438)">1500</text>
     </g>
    </g>
    <g id="xtick_17">
     <g id="line2d_57">
      <g>
       <use xlink:href="#m1d36849ff3" x="417.004202" y="390.04" style="stroke: #000000; stroke-width: 0.8"/>
      </g>
     </g>
     <g id="text_24">
      <text style="font: 10px 'sans-serif'; text-anchor: middle" x="417.004202" y="404.638438" transform="rotate(-0, 417.004202, 404.638438)">1750</text>
     </g>
    </g>
    <g id="xtick_18">
     <g id="line2d_58">
      <g>
       <use xlink:href="#m1d36849ff3" x="471.429772" y="390.04" style="stroke: #000000; stroke-width: 0.8"/>
      </g>
     </g>
     <g id="text_25">
      <text style="font: 10px 'sans-serif'; text-anchor: middle" x="471.429772" y="404.638438" transform="rotate(-0, 471.429772, 404.638438)">2000</text>
     </g>
    </g>
    <g id="text_26">
     <text style="font: 10px 'sans-serif'; text-anchor: middle" x="264.612605" y="418.316562" transform="rotate(-0, 264.612605, 418.316562)">Epoch</text>
    </g>
   </g>
   <g id="matplotlib.axis_4">
    <g id="ytick_31">
     <g id="line2d_59">
      <g>
       <use xlink:href="#mce0058bf2d" x="36.025209" y="381.109687" style="stroke: #000000; stroke-width: 0.8"/>
      </g>
     </g>
     <g id="text_27">
      <text style="font: 10px 'sans-serif'; text-anchor: end" x="29.025209" y="384.908906" transform="rotate(-0, 29.025209, 384.908906)">0.5</text>
     </g>
    </g>
    <g id="ytick_32">
     <g id="line2d_60">
      <g>
       <use xlink:href="#mce0058bf2d" x="36.025209" y="353.842345" style="stroke: #000000; stroke-width: 0.8"/>
      </g>
     </g>
     <g id="text_28">
      <text style="font: 10px 'sans-serif'; text-anchor: end" x="29.025209" y="357.641564" transform="rotate(-0, 29.025209, 357.641564)">0.6</text>
     </g>
    </g>
    <g id="ytick_33">
     <g id="line2d_61">
      <g>
       <use xlink:href="#mce0058bf2d" x="36.025209" y="326.575004" style="stroke: #000000; stroke-width: 0.8"/>
      </g>
     </g>
     <g id="text_29">
      <text style="font: 10px 'sans-serif'; text-anchor: end" x="29.025209" y="330.374223" transform="rotate(-0, 29.025209, 330.374223)">0.7</text>
     </g>
    </g>
    <g id="ytick_34">
     <g id="line2d_62">
      <g>
       <use xlink:href="#mce0058bf2d" x="36.025209" y="299.307662" style="stroke: #000000; stroke-width: 0.8"/>
      </g>
     </g>
     <g id="text_30">
      <text style="font: 10px 'sans-serif'; text-anchor: end" x="29.025209" y="303.106881" transform="rotate(-0, 29.025209, 303.106881)">0.8</text>
     </g>
    </g>
    <g id="ytick_35">
     <g id="line2d_63">
      <g>
       <use xlink:href="#mce0058bf2d" x="36.025209" y="272.040321" style="stroke: #000000; stroke-width: 0.8"/>
      </g>
     </g>
     <g id="text_31">
      <text style="font: 10px 'sans-serif'; text-anchor: end" x="29.025209" y="275.83954" transform="rotate(-0, 29.025209, 275.83954)">0.9</text>
     </g>
    </g>
    <g id="ytick_36">
     <g id="line2d_64">
      <g>
       <use xlink:href="#mce0058bf2d" x="36.025209" y="244.772979" style="stroke: #000000; stroke-width: 0.8"/>
      </g>
     </g>
     <g id="text_32">
      <text style="font: 10px 'sans-serif'; text-anchor: end" x="29.025209" y="248.572198" transform="rotate(-0, 29.025209, 248.572198)">1.0</text>
     </g>
    </g>
   </g>
   <g id="line2d_65">
    <path d="M 36.025209 381.776202 
L 46.910323 367.77155 
L 57.795437 369.19649 
L 68.680551 369.19649 
L 79.565665 369.19649 
L 90.45078 369.19649 
L 101.335894 369.428042 
L 112.221008 353.391221 
L 123.106122 324.780089 
L 133.991236 307.098761 
L 144.87635 276.35231 
L 155.761464 267.672831 
L 166.646578 263.101484 
L 177.531692 257.659672 
L 188.416806 255.211988 
L 199.30192 254.016844 
L 210.187034 252.994649 
L 221.072148 252.160465 
L 231.957262 251.299016 
L 242.842376 250.415686 
L 253.727491 249.73895 
L 264.612605 249.239343 
L 275.497719 248.716645 
L 286.382833 248.38152 
L 297.267947 248.141611 
L 308.153061 247.924682 
L 319.038175 247.787355 
L 329.923289 247.633208 
L 340.808403 247.540301 
L 351.693517 247.377246 
L 362.578631 247.233652 
L 373.463745 247.142064 
L 384.348859 247.057404 
L 395.233973 246.990004 
L 406.119087 246.906003 
L 417.004202 246.794626 
L 427.889316 246.697211 
L 438.77443 246.599576 
L 449.659544 246.498203 
L 460.544658 246.386825 
L 471.429772 246.312499 
L 482.314886 246.259614 
L 493.2 246.152193 
L 504.085114 246.084905 
L 505 246.077568 
" clip-path="url(#p7828e3b621)" style="fill: none; stroke: #d4cc20; stroke-width: 1.5; stroke-linecap: square"/>
   </g>
   <g id="line2d_66">
    <path d="M 101.335894 390.04 
L 101.335894 238.2 
" clip-path="url(#p7828e3b621)" style="fill: none; stroke-dasharray: 1.85,0.8; stroke-dashoffset: 0; stroke: #000000; stroke-width: 0.5"/>
   </g>
   <g id="line2d_67">
    <path d="M 144.87635 390.04 
L 144.87635 238.2 
" clip-path="url(#p7828e3b621)" style="fill: none; stroke-dasharray: 1.85,0.8; stroke-dashoffset: 0; stroke: #000000; stroke-width: 0.5"/>
   </g>
   <g id="line2d_68">
    <path d="M 384.348859 390.04 
L 384.348859 238.2 
" clip-path="url(#p7828e3b621)" style="fill: none; stroke-dasharray: 1.85,0.8; stroke-dashoffset: 0; stroke: #000000; stroke-width: 0.5"/>
   </g>
   <g id="line2d_69">
    <path d="M 36.025209 380.715085 
L 46.910323 333.279258 
L 57.795437 336.936599 
L 68.680551 336.936599 
L 79.565665 336.936599 
L 90.45078 336.936599 
L 101.335894 336.936599 
L 112.221008 336.936599 
L 123.106122 336.936599 
L 133.991236 336.936599 
L 144.87635 336.246229 
L 155.761464 310.291688 
L 166.646578 280.016476 
L 177.531692 275.42512 
L 188.416806 274.228765 
L 199.30192 272.271123 
L 210.187034 269.312722 
L 221.072148 267.595321 
L 231.957262 265.453732 
L 242.842376 264.728509 
L 253.727491 262.459167 
L 264.612605 258.912546 
L 275.497719 257.286512 
L 286.382833 256.254974 
L 297.267947 254.879402 
L 308.153061 253.382556 
L 319.038175 251.652289 
L 329.923289 250.380511 
L 340.808403 249.337315 
L 351.693517 248.542936 
L 362.578631 248.004406 
L 373.463745 247.673681 
L 384.348859 247.571319 
L 395.233973 247.465659 
L 406.119087 247.349993 
L 417.004202 247.298867 
L 427.889316 247.14252 
L 438.77443 246.976277 
L 449.659544 246.764405 
L 460.544658 246.485795 
L 471.429772 246.288327 
L 482.314886 246.029507 
L 493.2 245.85249 
L 504.085114 245.665247 
L 505 245.651782 
" clip-path="url(#p7828e3b621)" style="fill: none; stroke: #34ad6f; stroke-width: 1.5; stroke-linecap: square"/>
   </g>
   <g id="line2d_70">
    <path d="M 101.335894 390.04 
L 101.335894 238.2 
" clip-path="url(#p7828e3b621)" style="fill: none; stroke-dasharray: 1.85,0.8; stroke-dashoffset: 0; stroke: #000000; stroke-width: 0.5"/>
   </g>
   <g id="line2d_71">
    <path d="M 144.87635 390.04 
L 144.87635 238.2 
" clip-path="url(#p7828e3b621)" style="fill: none; stroke-dasharray: 1.85,0.8; stroke-dashoffset: 0; stroke: #000000; stroke-width: 0.5"/>
   </g>
   <g id="line2d_72">
    <path d="M 384.348859 390.04 
L 384.348859 238.2 
" clip-path="url(#p7828e3b621)" style="fill: none; stroke-dasharray: 1.85,0.8; stroke-dashoffset: 0; stroke: #000000; stroke-width: 0.5"/>
   </g>
   <g id="patch_9">
    <path d="M 36.025209 390.04 
L 36.025209 238.2 
" style="fill: none; stroke: #000000; stroke-width: 0.8; stroke-linejoin: miter; stroke-linecap: square"/>
   </g>
   <g id="patch_10">
    <path d="M 493.2 390.04 
L 493.2 238.2 
" style="fill: none; stroke: #000000; stroke-width: 0.8; stroke-linejoin: miter; stroke-linecap: square"/>
   </g>
   <g id="patch_11">
    <path d="M 36.025209 390.04 
L 493.2 390.04 
" style="fill: none; stroke: #000000; stroke-width: 0.8; stroke-linejoin: miter; stroke-linecap: square"/>
   </g>
   <g id="patch_12">
    <path d="M 36.025209 238.2 
L 493.2 238.2 
" style="fill: none; stroke: #000000; stroke-width: 0.8; stroke-linejoin: miter; stroke-linecap: square"/>
   </g>
   <g id="text_33">
    <text style="font: 14.4px 'sans-serif'; text-anchor: middle" x="264.612605" y="232.2" transform="rotate(-0, 264.612605, 232.2)">Fraction of correct output units, class-rebalanced</text>
   </g>
   <g id="legend_2">
    <g id="patch_13">
     <path d="M 405.86875 385.04 
L 486.2 385.04 
Q 488.2 385.04 488.2 383.04 
L 488.2 354.68375 
Q 488.2 352.68375 486.2 352.68375 
L 405.86875 352.68375 
Q 403.86875 352.68375 403.86875 354.68375 
L 403.86875 383.04 
Q 403.86875 385.04 405.86875 385.04 
z
" style="fill: #ffffff; opacity: 0.8; stroke: #cccccc; stroke-linejoin: miter"/>
    </g>
    <g id="line2d_73">
     <path d="M 407.86875 360.782187 
L 417.86875 360.782187 
L 427.86875 360.782187 
" style="fill: none; stroke: #d4cc20; stroke-width: 1.5; stroke-linecap: square"/>
    </g>
    <g id="text_34">
     <text style="font: 10px 'sans-serif'; text-anchor: start" x="435.86875" y="364.282187" transform="rotate(-0, 435.86875, 364.282187)">Hierarchy</text>
    </g>
    <g id="line2d_74">
     <path d="M 407.86875 375.460312 
L 417.86875 375.460312 
L 427.86875 375.460312 
" style="fill: none; stroke: #34ad6f; stroke-width: 1.5; stroke-linecap: square"/>
    </g>
    <g id="text_35">
     <text style="font: 10px 'sans-serif'; text-anchor: start" x="435.86875" y="378.960312" transform="rotate(-0, 435.86875, 378.960312)">Ordering</text>
    </g>
   </g>
  </g>
 </g>
 <defs>
  <clipPath id="pb34481de95">
   <rect x="36.025209" y="27.6" width="457.174791" height="151.84"/>
  </clipPath>
  <clipPath id="p7828e3b621">
   <rect x="36.025209" y="238.2" width="457.174791" height="151.84"/>
  </clipPath>
 </defs>
</svg>
