<?xml version="1.0" encoding="utf-8" standalone="no"?>
<!DOCTYPE svg PUBLIC "-//W3C//DTD SVG 1.1//EN"
  "http://www.w3.org/Graphics/SVG/1.1/DTD/svg11.dtd">
<svg xmlns:xlink="http://www.w3.org/1999/xlink" width="288pt" height="576pt" viewBox="0 0 288 576" xmlns="http://www.w3.org/2000/svg" version="1.1">
 <metadata>
  <rdf:RDF xmlns:dc="http://purl.org/dc/elements/1.1/" xmlns:cc="http://creativecommons.org/ns#" xmlns:rdf="http://www.w3.org/1999/02/22-rdf-syntax-ns#">
   <cc:Work>
    <dc:type rdf:resource="http://purl.org/dc/dcmitype/StillImage"/>
    <dc:date>2022-02-23T12:02:16.328509</dc:date>
    <dc:format>image/svg+xml</dc:format>
    <dc:creator>
     <cc:Agent>
      <dc:title>Matplotlib v3.5.0, https://matplotlib.org/</dc:title>
     </cc:Agent>
    </dc:creator>
   </cc:Work>
  </rdf:RDF>
 </metadata>
 <defs>
  <style type="text/css">*{stroke-linejoin: round; stroke-linecap: butt}</style>
 </defs>
 <g id="figure_1">
  <g id="patch_1">
   <path d="M 0 576 
L 288 576 
L 288 0 
L 0 0 
z
" style="fill: #ffffff"/>
  </g>
  <g id="axes_1">
   <g id="patch_2">
    <path d="M 36.97 245.176 
L 274.565455 245.176 
L 274.565455 25.44 
L 36.97 25.44 
z
" style="fill: #ffffff"/>
   </g>
   <g id="PolyCollection_1">
    <path d="M 47.769793 35.428 
L 47.769793 35.497972 
L 53.16969 212.463809 
L 58.569587 213.474909 
L 63.969483 213.84367 
L 69.36938 214.054767 
L 74.769277 214.197138 
L 80.169174 214.37022 
L 85.56907 216.758476 
L 90.968967 221.602337 
L 96.368864 224.875252 
L 101.76876 228.985478 
L 107.168657 230.788724 
L 112.568554 231.522024 
L 117.96845 232.130424 
L 123.368347 232.520674 
L 128.768244 232.842009 
L 134.16814 233.111182 
L 139.568037 233.33123 
L 144.967934 233.503632 
L 150.367831 233.648351 
L 155.767727 233.77607 
L 161.167624 233.887699 
L 166.567521 233.987808 
L 171.967417 234.077802 
L 177.367314 234.158355 
L 182.767211 234.2304 
L 188.167107 234.294625 
L 193.567004 234.352318 
L 198.966901 234.404678 
L 204.366798 234.452702 
L 209.766694 234.496914 
L 215.166591 234.537392 
L 220.566488 234.57451 
L 225.966384 234.608948 
L 231.366281 234.641254 
L 236.766178 234.671844 
L 242.166074 234.700997 
L 247.565971 234.728993 
L 252.965868 234.756044 
L 258.365764 234.781785 
L 263.765661 234.805736 
L 269.165558 234.828026 
L 274.565455 234.849317 
L 279.965351 234.86997 
L 285.365248 234.889911 
L 290.765145 234.90913 
L 296.165041 234.927593 
L 301.564938 234.945091 
L 306.964835 234.961609 
L 312.364731 234.977197 
L 317.764628 234.991809 
L 323.164525 235.0055 
L 328.564421 235.018478 
L 333.964318 235.030914 
L 339.364215 235.042884 
L 344.764112 235.054411 
L 350.164008 235.065542 
L 355.563905 235.076293 
L 360.963802 235.086736 
L 366.363698 235.096806 
L 371.763595 235.106345 
L 371.763595 235.060309 
L 371.763595 235.060309 
L 366.363698 235.049965 
L 360.963802 235.039057 
L 355.563905 235.027702 
L 350.164008 235.016007 
L 344.764112 235.003891 
L 339.364215 234.991374 
L 333.964318 234.978433 
L 328.564421 234.965077 
L 323.164525 234.951258 
L 317.764628 234.936806 
L 312.364731 234.921473 
L 306.964835 234.905227 
L 301.564938 234.888145 
L 296.165041 234.870065 
L 290.765145 234.850909 
L 285.365248 234.830969 
L 279.965351 234.810299 
L 274.565455 234.78884 
L 269.165558 234.766838 
L 263.765661 234.744313 
L 258.365764 234.720459 
L 252.965868 234.694865 
L 247.565971 234.667974 
L 242.166074 234.640238 
L 236.766178 234.611376 
L 231.366281 234.581026 
L 225.966384 234.548888 
L 220.566488 234.514481 
L 215.166591 234.477295 
L 209.766694 234.436465 
L 204.366798 234.391308 
L 198.966901 234.341922 
L 193.567004 234.288352 
L 188.167107 234.229944 
L 182.767211 234.165685 
L 177.367314 234.094049 
L 171.967417 234.013316 
L 166.567521 233.921027 
L 161.167624 233.815447 
L 155.767727 233.69453 
L 150.367831 233.549443 
L 144.967934 233.382033 
L 139.568037 233.188908 
L 134.16814 232.947401 
L 128.768244 232.664032 
L 123.368347 232.326866 
L 117.96845 231.73493 
L 112.568554 230.79836 
L 107.168657 229.916862 
L 101.76876 227.915266 
L 96.368864 223.856591 
L 90.968967 221.024625 
L 85.56907 216.015049 
L 80.169174 214.312031 
L 74.769277 214.143138 
L 69.36938 214.000919 
L 63.969483 213.790749 
L 58.569587 213.423169 
L 53.16969 212.389543 
L 47.769793 35.428 
z
" clip-path="url(#pb62e73a048)" style="fill: #1f77b4; fill-opacity: 0.3"/>
   </g>
   <g id="PolyCollection_2">
    <path d="M 47.769793 35.469035 
L 47.769793 35.539746 
L 53.16969 215.46965 
L 58.569587 216.686189 
L 63.969483 217.130952 
L 69.36938 217.363034 
L 74.769277 217.506621 
L 80.169174 217.605482 
L 85.56907 217.679965 
L 90.968967 217.744272 
L 96.368864 217.825973 
L 101.76876 218.098797 
L 107.168657 222.735267 
L 112.568554 228.374459 
L 117.96845 229.193611 
L 123.368347 229.468994 
L 128.768244 229.736981 
L 134.16814 230.293608 
L 139.568037 230.883634 
L 144.967934 231.362942 
L 150.367831 231.809534 
L 155.767727 232.205451 
L 161.167624 232.554553 
L 166.567521 232.865518 
L 171.967417 233.146679 
L 177.367314 233.406383 
L 182.767211 233.647859 
L 188.167107 233.865063 
L 193.567004 234.05045 
L 198.966901 234.203278 
L 204.366798 234.329412 
L 209.766694 234.433511 
L 215.166591 234.519439 
L 220.566488 234.590451 
L 225.966384 234.649101 
L 231.366281 234.697745 
L 236.766178 234.738544 
L 242.166074 234.773469 
L 247.565971 234.8043 
L 252.965868 234.832509 
L 258.365764 234.859195 
L 263.765661 234.885081 
L 269.165558 234.910413 
L 274.565455 234.935108 
L 279.965351 234.959125 
L 285.365248 234.982321 
L 290.765145 235.00456 
L 296.165041 235.025764 
L 301.564938 235.045817 
L 306.964835 235.064335 
L 312.364731 235.081174 
L 317.764628 235.096376 
L 323.164525 235.110044 
L 328.564421 235.122376 
L 333.964318 235.133587 
L 339.364215 235.143767 
L 344.764112 235.152965 
L 350.164008 235.161283 
L 355.563905 235.16885 
L 360.963802 235.175781 
L 366.363698 235.182158 
L 371.763595 235.188 
L 371.763595 235.175543 
L 371.763595 235.175543 
L 366.363698 235.169182 
L 360.963802 235.162233 
L 355.563905 235.154742 
L 350.164008 235.14663 
L 344.764112 235.137761 
L 339.364215 235.127971 
L 333.964318 235.117128 
L 328.564421 235.105226 
L 323.164525 235.09226 
L 317.764628 235.078051 
L 312.364731 235.06245 
L 306.964835 235.045404 
L 301.564938 235.026928 
L 296.165041 235.007131 
L 290.765145 234.986376 
L 285.365248 234.964856 
L 279.965351 234.942677 
L 274.565455 234.919859 
L 269.165558 234.896399 
L 263.765661 234.872118 
L 258.365764 234.846859 
L 252.965868 234.820183 
L 247.565971 234.791247 
L 242.166074 234.758921 
L 236.766178 234.721801 
L 231.366281 234.678182 
L 225.966384 234.626123 
L 220.566488 234.563504 
L 215.166591 234.487991 
L 209.766694 234.396973 
L 204.366798 234.287064 
L 198.966901 234.154204 
L 193.567004 233.994327 
L 188.167107 233.802674 
L 182.767211 233.581713 
L 177.367314 233.339135 
L 171.967417 233.078789 
L 166.567521 232.796124 
L 161.167624 232.48347 
L 155.767727 232.13253 
L 150.367831 231.735152 
L 144.967934 231.292101 
L 139.568037 230.802579 
L 134.16814 230.205815 
L 128.768244 229.68174 
L 123.368347 229.104364 
L 117.96845 228.561678 
L 112.568554 227.248702 
L 107.168657 221.285783 
L 101.76876 218.042862 
L 96.368864 217.820733 
L 90.968967 217.74315 
L 85.56907 217.679622 
L 80.169174 217.605326 
L 74.769277 217.506471 
L 69.36938 217.362812 
L 63.969483 217.130576 
L 58.569587 216.685414 
L 53.16969 215.466949 
L 47.769793 35.469035 
z
" clip-path="url(#pb62e73a048)" style="fill: #ff7f0e; fill-opacity: 0.3"/>
   </g>
   <g id="matplotlib.axis_1">
    <g id="xtick_1">
     <g id="line2d_1">
      <defs>
       <path id="m46470cd605" d="M 0 0 
L 0 3.5 
" style="stroke: #000000; stroke-width: 0.8"/>
      </defs>
      <g>
       <use xlink:href="#m46470cd605" x="47.769793" y="245.176" style="stroke: #000000; stroke-width: 0.8"/>
      </g>
     </g>
     <g id="text_1">
      <text style="font: 10px 'sans-serif'; text-anchor: middle" x="47.769793" y="259.774437" transform="rotate(-0, 47.769793, 259.774437)">0</text>
     </g>
    </g>
    <g id="xtick_2">
     <g id="line2d_2">
      <g>
       <use xlink:href="#m46470cd605" x="101.76876" y="245.176" style="stroke: #000000; stroke-width: 0.8"/>
      </g>
     </g>
     <g id="text_2">
      <text style="font: 10px 'sans-serif'; text-anchor: middle" x="101.76876" y="259.774437" transform="rotate(-0, 101.76876, 259.774437)">500</text>
     </g>
    </g>
    <g id="xtick_3">
     <g id="line2d_3">
      <g>
       <use xlink:href="#m46470cd605" x="155.767727" y="245.176" style="stroke: #000000; stroke-width: 0.8"/>
      </g>
     </g>
     <g id="text_3">
      <text style="font: 10px 'sans-serif'; text-anchor: middle" x="155.767727" y="259.774437" transform="rotate(-0, 155.767727, 259.774437)">1000</text>
     </g>
    </g>
    <g id="xtick_4">
     <g id="line2d_4">
      <g>
       <use xlink:href="#m46470cd605" x="209.766694" y="245.176" style="stroke: #000000; stroke-width: 0.8"/>
      </g>
     </g>
     <g id="text_4">
      <text style="font: 10px 'sans-serif'; text-anchor: middle" x="209.766694" y="259.774437" transform="rotate(-0, 209.766694, 259.774437)">1500</text>
     </g>
    </g>
    <g id="xtick_5">
     <g id="line2d_5">
      <g>
       <use xlink:href="#m46470cd605" x="263.765661" y="245.176" style="stroke: #000000; stroke-width: 0.8"/>
      </g>
     </g>
     <g id="text_5">
      <text style="font: 10px 'sans-serif'; text-anchor: middle" x="263.765661" y="259.774437" transform="rotate(-0, 263.765661, 259.774437)">2000</text>
     </g>
    </g>
    <g id="text_6">
     <text style="font: 10px 'sans-serif'; text-anchor: middle" x="155.767727" y="273.452562" transform="rotate(-0, 155.767727, 273.452562)">Epoch</text>
    </g>
   </g>
   <g id="matplotlib.axis_2">
    <g id="ytick_1">
     <g id="line2d_6">
      <defs>
       <path id="mfa2d60594b" d="M 0 0 
L -3.5 0 
" style="stroke: #000000; stroke-width: 0.8"/>
      </defs>
      <g>
       <use xlink:href="#mfa2d60594b" x="36.97" y="235.310556" style="stroke: #000000; stroke-width: 0.8"/>
      </g>
     </g>
     <g id="text_7">
      <text style="font: 10px 'sans-serif'; text-anchor: end" x="29.97" y="239.109775" transform="rotate(-0, 29.97, 239.109775)">0</text>
     </g>
    </g>
    <g id="ytick_2">
     <g id="line2d_7">
      <g>
       <use xlink:href="#mfa2d60594b" x="36.97" y="199.284941" style="stroke: #000000; stroke-width: 0.8"/>
      </g>
     </g>
     <g id="text_8">
      <text style="font: 10px 'sans-serif'; text-anchor: end" x="29.97" y="203.08416" transform="rotate(-0, 29.97, 203.08416)">100</text>
     </g>
    </g>
    <g id="ytick_3">
     <g id="line2d_8">
      <g>
       <use xlink:href="#mfa2d60594b" x="36.97" y="163.259326" style="stroke: #000000; stroke-width: 0.8"/>
      </g>
     </g>
     <g id="text_9">
      <text style="font: 10px 'sans-serif'; text-anchor: end" x="29.97" y="167.058545" transform="rotate(-0, 29.97, 167.058545)">200</text>
     </g>
    </g>
    <g id="ytick_4">
     <g id="line2d_9">
      <g>
       <use xlink:href="#mfa2d60594b" x="36.97" y="127.233711" style="stroke: #000000; stroke-width: 0.8"/>
      </g>
     </g>
     <g id="text_10">
      <text style="font: 10px 'sans-serif'; text-anchor: end" x="29.97" y="131.03293" transform="rotate(-0, 29.97, 131.03293)">300</text>
     </g>
    </g>
    <g id="ytick_5">
     <g id="line2d_10">
      <g>
       <use xlink:href="#mfa2d60594b" x="36.97" y="91.208096" style="stroke: #000000; stroke-width: 0.8"/>
      </g>
     </g>
     <g id="text_11">
      <text style="font: 10px 'sans-serif'; text-anchor: end" x="29.97" y="95.007315" transform="rotate(-0, 29.97, 95.007315)">400</text>
     </g>
    </g>
    <g id="ytick_6">
     <g id="line2d_11">
      <g>
       <use xlink:href="#mfa2d60594b" x="36.97" y="55.182481" style="stroke: #000000; stroke-width: 0.8"/>
      </g>
     </g>
     <g id="text_12">
      <text style="font: 10px 'sans-serif'; text-anchor: end" x="29.97" y="58.9817" transform="rotate(-0, 29.97, 58.9817)">500</text>
     </g>
    </g>
   </g>
   <g id="line2d_12">
    <path d="M 47.769793 35.462986 
L 53.16969 212.426676 
L 58.569587 213.449039 
L 63.969483 213.81721 
L 69.36938 214.027843 
L 74.769277 214.170138 
L 80.169174 214.341125 
L 85.56907 216.386762 
L 90.968967 221.313481 
L 96.368864 224.365921 
L 101.76876 228.450372 
L 107.168657 230.352793 
L 112.568554 231.160192 
L 117.96845 231.932677 
L 123.368347 232.42377 
L 128.768244 232.753021 
L 134.16814 233.029292 
L 139.568037 233.260069 
L 144.967934 233.442832 
L 150.367831 233.598897 
L 155.767727 233.7353 
L 161.167624 233.851573 
L 166.567521 233.954418 
L 171.967417 234.045559 
L 177.367314 234.126202 
L 182.767211 234.198042 
L 188.167107 234.262284 
L 193.567004 234.320335 
L 198.966901 234.3733 
L 204.366798 234.422005 
L 209.766694 234.46669 
L 215.166591 234.507344 
L 220.566488 234.544495 
L 225.966384 234.578918 
L 231.366281 234.61114 
L 236.766178 234.64161 
L 242.166074 234.670618 
L 247.565971 234.698483 
L 252.965868 234.725454 
L 258.365764 234.751122 
L 263.765661 234.775024 
L 269.165558 234.797432 
L 274.565455 234.819079 
L 279.965351 234.840135 
L 285.365248 234.86044 
L 289 234.873619 
" clip-path="url(#pb62e73a048)" style="fill: none; stroke: #1f77b4; stroke-width: 1.5; stroke-linecap: square"/>
   </g>
   <g id="line2d_13">
    <path d="M 47.769793 35.504391 
L 53.16969 215.468299 
L 58.569587 216.685801 
L 63.969483 217.130764 
L 69.36938 217.362923 
L 74.769277 217.506546 
L 80.169174 217.605404 
L 85.56907 217.679794 
L 90.968967 217.743711 
L 96.368864 217.823353 
L 101.76876 218.070829 
L 107.168657 222.010525 
L 112.568554 227.81158 
L 117.96845 228.877645 
L 123.368347 229.286679 
L 128.768244 229.70936 
L 134.16814 230.249711 
L 139.568037 230.843106 
L 144.967934 231.327521 
L 150.367831 231.772343 
L 155.767727 232.168991 
L 161.167624 232.519011 
L 166.567521 232.830821 
L 171.967417 233.112734 
L 177.367314 233.372759 
L 182.767211 233.614786 
L 188.167107 233.833869 
L 193.567004 234.022389 
L 198.966901 234.178741 
L 204.366798 234.308238 
L 209.766694 234.415242 
L 215.166591 234.503715 
L 220.566488 234.576977 
L 225.966384 234.637612 
L 231.366281 234.687964 
L 236.766178 234.730173 
L 242.166074 234.766195 
L 247.565971 234.797774 
L 252.965868 234.826346 
L 258.365764 234.853027 
L 263.765661 234.8786 
L 269.165558 234.903406 
L 274.565455 234.927484 
L 279.965351 234.950901 
L 285.365248 234.973589 
L 289 234.988316 
" clip-path="url(#pb62e73a048)" style="fill: none; stroke: #ff7f0e; stroke-width: 1.5; stroke-linecap: square"/>
   </g>
   <g id="patch_3">
    <path d="M 36.97 245.176 
L 36.97 25.44 
" style="fill: none; stroke: #000000; stroke-width: 0.8; stroke-linejoin: miter; stroke-linecap: square"/>
   </g>
   <g id="patch_4">
    <path d="M 274.565455 245.176 
L 274.565455 25.44 
" style="fill: none; stroke: #000000; stroke-width: 0.8; stroke-linejoin: miter; stroke-linecap: square"/>
   </g>
   <g id="patch_5">
    <path d="M 36.97 245.176 
L 274.565455 245.176 
" style="fill: none; stroke: #000000; stroke-width: 0.8; stroke-linejoin: miter; stroke-linecap: square"/>
   </g>
   <g id="patch_6">
    <path d="M 36.97 25.44 
L 274.565455 25.44 
" style="fill: none; stroke: #000000; stroke-width: 0.8; stroke-linejoin: miter; stroke-linecap: square"/>
   </g>
   <g id="text_13">
    <text style="font: 12px 'sans-serif'; text-anchor: middle" x="155.767727" y="19.44" transform="rotate(-0, 155.767727, 19.44)">Loss</text>
   </g>
   <g id="legend_1">
    <g id="patch_7">
     <path d="M 187.234205 62.79625 
L 267.565455 62.79625 
Q 269.565455 62.79625 269.565455 60.79625 
L 269.565455 32.44 
Q 269.565455 30.44 267.565455 30.44 
L 187.234205 30.44 
Q 185.234205 30.44 185.234205 32.44 
L 185.234205 60.79625 
Q 185.234205 62.79625 187.234205 62.79625 
z
" style="fill: #ffffff; opacity: 0.8; stroke: #cccccc; stroke-linejoin: miter"/>
    </g>
    <g id="line2d_14">
     <path d="M 189.234205 38.538437 
L 199.234205 38.538437 
L 209.234205 38.538437 
" style="fill: none; stroke: #1f77b4; stroke-width: 1.5; stroke-linecap: square"/>
    </g>
    <g id="text_14">
     <text style="font: 10px 'sans-serif'; text-anchor: start" x="217.234205" y="42.038437" transform="rotate(-0, 217.234205, 42.038437)">Hierarchy</text>
    </g>
    <g id="line2d_15">
     <path d="M 189.234205 53.216562 
L 199.234205 53.216562 
L 209.234205 53.216562 
" style="fill: none; stroke: #ff7f0e; stroke-width: 1.5; stroke-linecap: square"/>
    </g>
    <g id="text_15">
     <text style="font: 10px 'sans-serif'; text-anchor: start" x="217.234205" y="56.716562" transform="rotate(-0, 217.234205, 56.716562)">Ordering</text>
    </g>
   </g>
  </g>
  <g id="axes_2">
   <g id="patch_8">
    <path d="M 36.97 534.04 
L 274.565455 534.04 
L 274.565455 314.304 
L 36.97 314.304 
z
" style="fill: #ffffff"/>
   </g>
   <g id="PolyCollection_3">
    <path d="M 47.769793 520.11914 
L 47.769793 524.052 
L 53.16969 503.209862 
L 58.569587 505.165629 
L 63.969483 505.165629 
L 69.36938 505.165629 
L 74.769277 505.165629 
L 80.169174 505.489366 
L 85.56907 486.57104 
L 90.968967 445.369652 
L 96.368864 421.156249 
L 101.76876 375.922463 
L 107.168657 361.883079 
L 112.568554 354.979463 
L 117.96845 345.440253 
L 123.368347 340.04896 
L 128.768244 338.253942 
L 134.16814 336.709325 
L 139.568037 335.509541 
L 144.967934 334.200424 
L 150.367831 332.802752 
L 155.767727 331.844418 
L 161.167624 331.100084 
L 166.567521 330.322611 
L 171.967417 329.833176 
L 177.367314 329.449632 
L 182.767211 329.114711 
L 188.167107 328.906085 
L 193.567004 328.680945 
L 198.966901 328.53547 
L 204.366798 328.289423 
L 209.766694 328.072898 
L 215.166591 327.941371 
L 220.566488 327.822006 
L 225.966384 327.724975 
L 231.366281 327.609229 
L 236.766178 327.445273 
L 242.166074 327.305805 
L 247.565971 327.159582 
L 252.965868 327.010458 
L 258.365764 326.844486 
L 263.765661 326.739436 
L 269.165558 326.655784 
L 274.565455 326.495194 
L 279.965351 326.393596 
L 285.365248 326.262162 
L 290.765145 326.141815 
L 296.165041 326.036851 
L 301.564938 325.935923 
L 306.964835 325.86022 
L 312.364731 325.78203 
L 317.764628 325.729419 
L 323.164525 325.63164 
L 328.564421 325.581869 
L 333.964318 325.516142 
L 339.364215 325.431164 
L 344.764112 325.335898 
L 350.164008 325.292912 
L 355.563905 325.242619 
L 360.963802 325.147095 
L 366.363698 325.10959 
L 371.763595 325.060214 
L 371.763595 324.754693 
L 371.763595 324.754693 
L 366.363698 324.798659 
L 360.963802 324.832272 
L 355.563905 324.908192 
L 350.164008 324.949019 
L 344.764112 324.987945 
L 339.364215 325.07301 
L 333.964318 325.149316 
L 328.564421 325.203918 
L 323.164525 325.256379 
L 317.764628 325.337664 
L 312.364731 325.386648 
L 306.964835 325.451965 
L 301.564938 325.538817 
L 296.165041 325.627748 
L 290.765145 325.721852 
L 285.365248 325.833905 
L 279.965351 325.954558 
L 274.565455 326.047261 
L 269.165558 326.19686 
L 263.765661 326.265919 
L 258.365764 326.375492 
L 252.965868 326.531136 
L 247.565971 326.674737 
L 242.166074 326.810446 
L 236.766178 326.952274 
L 231.366281 327.109932 
L 225.966384 327.236748 
L 220.566488 327.33434 
L 215.166591 327.459442 
L 209.766694 327.592383 
L 204.366798 327.790501 
L 198.966901 328.015293 
L 193.567004 328.138096 
L 188.167107 328.358072 
L 182.767211 328.545992 
L 177.367314 328.837477 
L 171.967417 329.146696 
L 166.567521 329.62497 
L 161.167624 330.356841 
L 155.767727 331.055178 
L 150.367831 332.050988 
L 144.967934 333.204026 
L 139.568037 334.382436 
L 134.16814 335.591444 
L 128.768244 336.998524 
L 123.368347 338.654612 
L 117.96845 340.331266 
L 112.568554 346.505864 
L 107.168657 352.802495 
L 101.76876 363.826026 
L 96.368864 407.375872 
L 90.968967 434.219176 
L 85.56907 475.635462 
L 80.169174 503.025155 
L 74.769277 502.680259 
L 69.36938 502.680259 
L 63.969483 502.680259 
L 58.569587 502.680259 
L 53.16969 500.521362 
L 47.769793 520.11914 
z
" clip-path="url(#p73ff693e82)" style="fill: #1f77b4; fill-opacity: 0.3"/>
   </g>
   <g id="PolyCollection_4">
    <path d="M 47.769793 517.907573 
L 47.769793 523.199479 
L 53.16969 454.460152 
L 58.569587 459.733275 
L 63.969483 459.733275 
L 69.36938 459.733275 
L 74.769277 459.733275 
L 80.169174 459.733275 
L 85.56907 459.733275 
L 90.968967 459.733275 
L 96.368864 459.733275 
L 101.76876 458.715157 
L 107.168657 426.075862 
L 112.568554 380.02077 
L 117.96845 371.137386 
L 123.368347 368.110644 
L 128.768244 364.338715 
L 134.16814 359.916513 
L 139.568037 357.617706 
L 144.967934 354.435643 
L 150.367831 353.388468 
L 155.767727 350.542361 
L 161.167624 345.329215 
L 166.567521 342.847306 
L 171.967417 341.267581 
L 177.367314 339.323308 
L 182.767211 337.179554 
L 188.167107 334.651835 
L 193.567004 332.664639 
L 198.966901 331.205394 
L 204.366798 330.009311 
L 209.766694 329.150549 
L 215.166591 328.599379 
L 220.566488 328.434284 
L 225.966384 328.254401 
L 231.366281 328.099444 
L 236.766178 328.034655 
L 242.166074 327.838598 
L 247.565971 327.614341 
L 252.965868 327.331249 
L 258.365764 326.967637 
L 263.765661 326.693508 
L 269.165558 326.323027 
L 274.565455 326.063452 
L 279.965351 325.788517 
L 285.365248 325.540575 
L 290.765145 325.321695 
L 296.165041 325.159966 
L 301.564938 325.048147 
L 306.964835 324.944042 
L 312.364731 324.867275 
L 317.764628 324.760236 
L 323.164525 324.728545 
L 328.564421 324.683122 
L 333.964318 324.606316 
L 339.364215 324.583706 
L 344.764112 324.554718 
L 350.164008 324.515012 
L 355.563905 324.498499 
L 360.963802 324.498499 
L 366.363698 324.471047 
L 371.763595 324.406347 
L 371.763595 324.292 
L 371.763595 324.292 
L 366.363698 324.306037 
L 360.963802 324.317955 
L 355.563905 324.317955 
L 350.164008 324.330968 
L 344.764112 324.360157 
L 339.364215 324.38038 
L 333.964318 324.387931 
L 328.564421 324.429231 
L 323.164525 324.463815 
L 317.764628 324.492447 
L 312.364731 324.562567 
L 306.964835 324.62359 
L 301.564938 324.697913 
L 296.165041 324.803893 
L 290.765145 324.938063 
L 285.365248 325.133188 
L 279.965351 325.347828 
L 274.565455 325.613576 
L 269.165558 325.865159 
L 263.765661 326.242046 
L 258.365764 326.538128 
L 252.965868 326.979033 
L 247.565971 327.307743 
L 242.166074 327.563529 
L 236.766178 327.81894 
L 231.366281 327.901784 
L 225.966384 328.080824 
L 220.566488 328.206047 
L 215.166591 328.336534 
L 209.766694 328.740367 
L 204.366798 329.436666 
L 198.966901 330.534437 
L 193.567004 332.087529 
L 188.167107 333.772728 
L 182.767211 336.24134 
L 177.367314 338.419887 
L 171.967417 340.447722 
L 166.567521 341.846672 
L 161.167624 344.060108 
L 155.767727 349.088206 
L 150.367831 352.795066 
L 144.967934 353.842049 
L 139.568037 356.844049 
L 134.16814 359.50442 
L 128.768244 363.624914 
L 123.368347 365.505885 
L 117.96845 365.933744 
L 112.568554 370.308388 
L 107.168657 411.676173 
L 101.76876 453.983365 
L 96.368864 454.958761 
L 90.968967 454.958761 
L 85.56907 454.958761 
L 80.169174 454.958761 
L 74.769277 454.958761 
L 69.36938 454.958761 
L 63.969483 454.958761 
L 58.569587 454.958761 
L 53.16969 449.670926 
L 47.769793 517.907573 
z
" clip-path="url(#p73ff693e82)" style="fill: #ff7f0e; fill-opacity: 0.3"/>
   </g>
   <g id="matplotlib.axis_3">
    <g id="xtick_6">
     <g id="line2d_16">
      <g>
       <use xlink:href="#m46470cd605" x="47.769793" y="534.04" style="stroke: #000000; stroke-width: 0.8"/>
      </g>
     </g>
     <g id="text_16">
      <text style="font: 10px 'sans-serif'; text-anchor: middle" x="47.769793" y="548.638438" transform="rotate(-0, 47.769793, 548.638438)">0</text>
     </g>
    </g>
    <g id="xtick_7">
     <g id="line2d_17">
      <g>
       <use xlink:href="#m46470cd605" x="101.76876" y="534.04" style="stroke: #000000; stroke-width: 0.8"/>
      </g>
     </g>
     <g id="text_17">
      <text style="font: 10px 'sans-serif'; text-anchor: middle" x="101.76876" y="548.638438" transform="rotate(-0, 101.76876, 548.638438)">500</text>
     </g>
    </g>
    <g id="xtick_8">
     <g id="line2d_18">
      <g>
       <use xlink:href="#m46470cd605" x="155.767727" y="534.04" style="stroke: #000000; stroke-width: 0.8"/>
      </g>
     </g>
     <g id="text_18">
      <text style="font: 10px 'sans-serif'; text-anchor: middle" x="155.767727" y="548.638438" transform="rotate(-0, 155.767727, 548.638438)">1000</text>
     </g>
    </g>
    <g id="xtick_9">
     <g id="line2d_19">
      <g>
       <use xlink:href="#m46470cd605" x="209.766694" y="534.04" style="stroke: #000000; stroke-width: 0.8"/>
      </g>
     </g>
     <g id="text_19">
      <text style="font: 10px 'sans-serif'; text-anchor: middle" x="209.766694" y="548.638438" transform="rotate(-0, 209.766694, 548.638438)">1500</text>
     </g>
    </g>
    <g id="xtick_10">
     <g id="line2d_20">
      <g>
       <use xlink:href="#m46470cd605" x="263.765661" y="534.04" style="stroke: #000000; stroke-width: 0.8"/>
      </g>
     </g>
     <g id="text_20">
      <text style="font: 10px 'sans-serif'; text-anchor: middle" x="263.765661" y="548.638438" transform="rotate(-0, 263.765661, 548.638438)">2000</text>
     </g>
    </g>
    <g id="text_21">
     <text style="font: 10px 'sans-serif'; text-anchor: middle" x="155.767727" y="562.316563" transform="rotate(-0, 155.767727, 562.316563)">Epoch</text>
    </g>
   </g>
   <g id="matplotlib.axis_4">
    <g id="ytick_7">
     <g id="line2d_21">
      <g>
       <use xlink:href="#mfa2d60594b" x="36.97" y="521.123253" style="stroke: #000000; stroke-width: 0.8"/>
      </g>
     </g>
     <g id="text_22">
      <text style="font: 10px 'sans-serif'; text-anchor: end" x="29.97" y="524.922472" transform="rotate(-0, 29.97, 524.922472)">0.5</text>
     </g>
    </g>
    <g id="ytick_8">
     <g id="line2d_22">
      <g>
       <use xlink:href="#mfa2d60594b" x="36.97" y="481.754585" style="stroke: #000000; stroke-width: 0.8"/>
      </g>
     </g>
     <g id="text_23">
      <text style="font: 10px 'sans-serif'; text-anchor: end" x="29.97" y="485.553804" transform="rotate(-0, 29.97, 485.553804)">0.6</text>
     </g>
    </g>
    <g id="ytick_9">
     <g id="line2d_23">
      <g>
       <use xlink:href="#mfa2d60594b" x="36.97" y="442.385918" style="stroke: #000000; stroke-width: 0.8"/>
      </g>
     </g>
     <g id="text_24">
      <text style="font: 10px 'sans-serif'; text-anchor: end" x="29.97" y="446.185136" transform="rotate(-0, 29.97, 446.185136)">0.7</text>
     </g>
    </g>
    <g id="ytick_10">
     <g id="line2d_24">
      <g>
       <use xlink:href="#mfa2d60594b" x="36.97" y="403.01725" style="stroke: #000000; stroke-width: 0.8"/>
      </g>
     </g>
     <g id="text_25">
      <text style="font: 10px 'sans-serif'; text-anchor: end" x="29.97" y="406.816468" transform="rotate(-0, 29.97, 406.816468)">0.8</text>
     </g>
    </g>
    <g id="ytick_11">
     <g id="line2d_25">
      <g>
       <use xlink:href="#mfa2d60594b" x="36.97" y="363.648582" style="stroke: #000000; stroke-width: 0.8"/>
      </g>
     </g>
     <g id="text_26">
      <text style="font: 10px 'sans-serif'; text-anchor: end" x="29.97" y="367.447801" transform="rotate(-0, 29.97, 367.447801)">0.9</text>
     </g>
    </g>
    <g id="ytick_12">
     <g id="line2d_26">
      <g>
       <use xlink:href="#mfa2d60594b" x="36.97" y="324.279914" style="stroke: #000000; stroke-width: 0.8"/>
      </g>
     </g>
     <g id="text_27">
      <text style="font: 10px 'sans-serif'; text-anchor: end" x="29.97" y="328.079133" transform="rotate(-0, 29.97, 328.079133)">1.0</text>
     </g>
    </g>
   </g>
   <g id="line2d_27">
    <path d="M 47.769793 522.08557 
L 53.16969 501.865612 
L 58.569587 503.922944 
L 63.969483 503.922944 
L 69.36938 503.922944 
L 74.769277 503.922944 
L 80.169174 504.25726 
L 85.56907 481.103251 
L 90.968967 439.794414 
L 96.368864 414.266061 
L 101.76876 369.874244 
L 107.168657 357.342787 
L 112.568554 350.742663 
L 117.96845 342.88576 
L 123.368347 339.351786 
L 128.768244 337.626233 
L 134.16814 336.150384 
L 139.568037 334.945988 
L 144.967934 333.702225 
L 150.367831 332.42687 
L 155.767727 331.449798 
L 161.167624 330.728463 
L 166.567521 329.973791 
L 171.967417 329.489936 
L 177.367314 329.143555 
L 182.767211 328.830352 
L 188.167107 328.632079 
L 193.567004 328.40952 
L 198.966901 328.275381 
L 204.366798 328.039962 
L 209.766694 327.832641 
L 215.166591 327.700406 
L 220.566488 327.578173 
L 225.966384 327.480861 
L 231.366281 327.359581 
L 236.766178 327.198773 
L 242.166074 327.058126 
L 247.565971 326.917159 
L 252.965868 326.770797 
L 258.365764 326.609989 
L 263.765661 326.502678 
L 269.165558 326.426322 
L 274.565455 326.271228 
L 279.965351 326.174077 
L 285.365248 326.048034 
L 289 325.969817 
" clip-path="url(#p73ff693e82)" style="fill: none; stroke: #1f77b4; stroke-width: 1.5; stroke-linecap: square"/>
   </g>
   <g id="line2d_28">
    <path d="M 47.769793 520.553526 
L 53.16969 452.065539 
L 58.569587 457.346018 
L 63.969483 457.346018 
L 69.36938 457.346018 
L 74.769277 457.346018 
L 80.169174 457.346018 
L 85.56907 457.346018 
L 90.968967 457.346018 
L 96.368864 457.346018 
L 101.76876 456.349261 
L 107.168657 418.876018 
L 112.568554 375.164579 
L 117.96845 368.535565 
L 123.368347 366.808265 
L 128.768244 363.981814 
L 134.16814 359.710466 
L 139.568037 357.230878 
L 144.967934 354.138846 
L 150.367831 353.091767 
L 155.767727 349.815284 
L 161.167624 344.694662 
L 166.567521 342.346989 
L 171.967417 340.857652 
L 177.367314 338.871597 
L 182.767211 336.710447 
L 188.167107 334.212281 
L 193.567004 332.376084 
L 198.966901 330.869915 
L 204.366798 329.722989 
L 209.766694 328.945458 
L 215.166591 328.467956 
L 220.566488 328.320166 
L 225.966384 328.167613 
L 231.366281 328.000614 
L 236.766178 327.926798 
L 242.166074 327.701064 
L 247.565971 327.461042 
L 252.965868 327.155141 
L 258.365764 326.752883 
L 263.765661 326.467777 
L 269.165558 326.094093 
L 274.565455 325.838514 
L 279.965351 325.568172 
L 285.365248 325.336882 
L 289 325.197545 
" clip-path="url(#p73ff693e82)" style="fill: none; stroke: #ff7f0e; stroke-width: 1.5; stroke-linecap: square"/>
   </g>
   <g id="patch_9">
    <path d="M 36.97 534.04 
L 36.97 314.304 
" style="fill: none; stroke: #000000; stroke-width: 0.8; stroke-linejoin: miter; stroke-linecap: square"/>
   </g>
   <g id="patch_10">
    <path d="M 274.565455 534.04 
L 274.565455 314.304 
" style="fill: none; stroke: #000000; stroke-width: 0.8; stroke-linejoin: miter; stroke-linecap: square"/>
   </g>
   <g id="patch_11">
    <path d="M 36.97 534.04 
L 274.565455 534.04 
" style="fill: none; stroke: #000000; stroke-width: 0.8; stroke-linejoin: miter; stroke-linecap: square"/>
   </g>
   <g id="patch_12">
    <path d="M 36.97 314.304 
L 274.565455 314.304 
" style="fill: none; stroke: #000000; stroke-width: 0.8; stroke-linejoin: miter; stroke-linecap: square"/>
   </g>
   <g id="text_28">
    <text style="font: 12px 'sans-serif'" transform="translate(39.517727 294.866625)">Fraction of correctly classified outputs,</text>
    <text style="font: 12px 'sans-serif'" transform="translate(40.848977 308.304)">inversely weighted by class frequency</text>
   </g>
   <g id="legend_2">
    <g id="patch_13">
     <path d="M 187.234205 529.04 
L 267.565455 529.04 
Q 269.565455 529.04 269.565455 527.04 
L 269.565455 498.68375 
Q 269.565455 496.68375 267.565455 496.68375 
L 187.234205 496.68375 
Q 185.234205 496.68375 185.234205 498.68375 
L 185.234205 527.04 
Q 185.234205 529.04 187.234205 529.04 
z
" style="fill: #ffffff; opacity: 0.8; stroke: #cccccc; stroke-linejoin: miter"/>
    </g>
    <g id="line2d_29">
     <path d="M 189.234205 504.782188 
L 199.234205 504.782188 
L 209.234205 504.782188 
" style="fill: none; stroke: #1f77b4; stroke-width: 1.5; stroke-linecap: square"/>
    </g>
    <g id="text_29">
     <text style="font: 10px 'sans-serif'; text-anchor: start" x="217.234205" y="508.282188" transform="rotate(-0, 217.234205, 508.282188)">Hierarchy</text>
    </g>
    <g id="line2d_30">
     <path d="M 189.234205 519.460312 
L 199.234205 519.460312 
L 209.234205 519.460312 
" style="fill: none; stroke: #ff7f0e; stroke-width: 1.5; stroke-linecap: square"/>
    </g>
    <g id="text_30">
     <text style="font: 10px 'sans-serif'; text-anchor: start" x="217.234205" y="522.960312" transform="rotate(-0, 217.234205, 522.960312)">Ordering</text>
    </g>
   </g>
  </g>
 </g>
 <defs>
  <clipPath id="pb62e73a048">
   <rect x="36.97" y="25.44" width="237.595455" height="219.736"/>
  </clipPath>
  <clipPath id="p73ff693e82">
   <rect x="36.97" y="314.304" width="237.595455" height="219.736"/>
  </clipPath>
 </defs>
</svg>
