<?xml version="1.0" encoding="utf-8"?>
<!-- Generator: Adobe Illustrator 26.0.3, SVG Export Plug-In . SVG Version: 6.00 Build 0)  -->
<svg version="1.1" id="Layer_1" xmlns="http://www.w3.org/2000/svg" xmlns:xlink="http://www.w3.org/1999/xlink" x="0px" y="0px"
	 viewBox="0 0 288 576" style="enable-background:new 0 0 288 576;" xml:space="preserve">
<style type="text/css">
	.st0{fill:#FFFFFF;}
	.st1{clip-path:url(#SVGID_00000065043085813370044260000011345766530377720965_);fill:#1F77B4;fill-opacity:0.3;}
	.st2{clip-path:url(#SVGID_00000145767145816374347550000013488238376767874964_);fill:#FF7F0E;fill-opacity:0.3;}
	.st3{stroke:#000000;stroke-width:0.8;stroke-linejoin:round;}
	.st4{font-family:'ArialMT';}
	.st5{font-size:10px;}
	
		.st6{clip-path:url(#SVGID_00000018957964668567093320000014944094397000483234_);fill:none;stroke:#1F77B4;stroke-width:1.5;stroke-linecap:square;stroke-linejoin:round;}
	
		.st7{clip-path:url(#SVGID_00000020372374730777687380000011796865720573502119_);fill:none;stroke:#000000;stroke-width:0.5;stroke-linejoin:round;stroke-dasharray:1.85,0.8;}
	
		.st8{clip-path:url(#SVGID_00000106856804974553351680000000075765969161156750_);fill:none;stroke:#000000;stroke-width:0.5;stroke-linejoin:round;stroke-dasharray:1.85,0.8;}
	
		.st9{clip-path:url(#SVGID_00000013152773446455348230000002530827195428232371_);fill:none;stroke:#000000;stroke-width:0.5;stroke-linejoin:round;stroke-dasharray:1.85,0.8;}
	
		.st10{clip-path:url(#SVGID_00000150103702870463520540000017536412690898887298_);fill:none;stroke:#000000;stroke-width:0.5;stroke-linejoin:round;stroke-dasharray:1.85,0.8;}
	
		.st11{clip-path:url(#SVGID_00000181806352387674709800000010950660672882604727_);fill:none;stroke:#FF7F0E;stroke-width:1.5;stroke-linecap:square;stroke-linejoin:round;}
	
		.st12{clip-path:url(#SVGID_00000058555131784843744480000007424353284819532954_);fill:none;stroke:#000000;stroke-width:0.5;stroke-linejoin:round;stroke-dasharray:1.85,0.8;}
	
		.st13{clip-path:url(#SVGID_00000016772086926804623980000010378266991546952860_);fill:none;stroke:#000000;stroke-width:0.5;stroke-linejoin:round;stroke-dasharray:1.85,0.8;}
	
		.st14{clip-path:url(#SVGID_00000152958777545518875750000015199998447663783841_);fill:none;stroke:#000000;stroke-width:0.5;stroke-linejoin:round;stroke-dasharray:1.85,0.8;}
	
		.st15{clip-path:url(#SVGID_00000008859705989378200290000010133454593834520233_);fill:none;stroke:#000000;stroke-width:0.5;stroke-linejoin:round;stroke-dasharray:1.85,0.8;}
	.st16{fill:none;stroke:#000000;stroke-width:0.8;stroke-linecap:square;}
	.st17{font-size:12px;}
	.st18{opacity:0.8;fill:#FFFFFF;stroke:#CCCCCC;enable-background:new    ;}
	.st19{fill:none;stroke:#1F77B4;stroke-width:1.5;stroke-linecap:square;stroke-linejoin:round;}
	.st20{fill:none;stroke:#FF7F0E;stroke-width:1.5;stroke-linecap:square;stroke-linejoin:round;}
	.st21{clip-path:url(#SVGID_00000018925166469811856150000013451879004418613911_);fill:#1F77B4;fill-opacity:0.3;}
	.st22{clip-path:url(#SVGID_00000080183838048387604430000001680473207352066461_);fill:#FF7F0E;fill-opacity:0.3;}
	
		.st23{clip-path:url(#SVGID_00000031204877008234785950000006148877591658258831_);fill:none;stroke:#1F77B4;stroke-width:1.5;stroke-linecap:square;stroke-linejoin:round;}
	
		.st24{clip-path:url(#SVGID_00000136387134002074206250000013697734752021756321_);fill:none;stroke:#000000;stroke-width:0.5;stroke-linejoin:round;stroke-dasharray:1.85,0.8;}
	
		.st25{clip-path:url(#SVGID_00000067238413541259384120000005144393217664315274_);fill:none;stroke:#000000;stroke-width:0.5;stroke-linejoin:round;stroke-dasharray:1.85,0.8;}
	
		.st26{clip-path:url(#SVGID_00000007408522185769401110000012318989614191534231_);fill:none;stroke:#000000;stroke-width:0.5;stroke-linejoin:round;stroke-dasharray:1.85,0.8;}
	
		.st27{clip-path:url(#SVGID_00000147184979052388919140000008052379101082989965_);fill:none;stroke:#000000;stroke-width:0.5;stroke-linejoin:round;stroke-dasharray:1.85,0.8;}
	
		.st28{clip-path:url(#SVGID_00000066505299736919016300000008947562821877727121_);fill:none;stroke:#FF7F0E;stroke-width:1.5;stroke-linecap:square;stroke-linejoin:round;}
	
		.st29{clip-path:url(#SVGID_00000099625558219479032150000009572432194250538148_);fill:none;stroke:#000000;stroke-width:0.5;stroke-linejoin:round;stroke-dasharray:1.85,0.8;}
	
		.st30{clip-path:url(#SVGID_00000106133313619169410320000005359891937528602258_);fill:none;stroke:#000000;stroke-width:0.5;stroke-linejoin:round;stroke-dasharray:1.85,0.8;}
	
		.st31{clip-path:url(#SVGID_00000176014742232210589120000001424118061142105515_);fill:none;stroke:#000000;stroke-width:0.5;stroke-linejoin:round;stroke-dasharray:1.85,0.8;}
	
		.st32{clip-path:url(#SVGID_00000004514686509774896290000002188585937605881519_);fill:none;stroke:#000000;stroke-width:0.5;stroke-linejoin:round;stroke-dasharray:1.85,0.8;}
</style>
<g id="figure_1">
	<g id="patch_1">
		<path class="st0" d="M0,576h288V0H0V576z"/>
	</g>
	<g id="axes_1">
		<g id="patch_2">
			<path class="st0" d="M37,245.2h237.6V25.4H37V245.2z"/>
		</g>
		<g id="PolyCollection_1">
			<g>
				<defs>
					<rect id="SVGID_1_" x="37" y="25.4" width="237.6" height="219.7"/>
				</defs>
				<clipPath id="SVGID_00000173125063528023744870000018231149300711204499_">
					<use xlink:href="#SVGID_1_"  style="overflow:visible;"/>
				</clipPath>
				<path style="clip-path:url(#SVGID_00000173125063528023744870000018231149300711204499_);fill:#1F77B4;fill-opacity:0.3;" d="
					M47.8,35.4L47.8,35.4l5.4,177.3l5.4,1l5.4,0.4l5.4,0.2l5.4,0.1l5.4,0.2l5.4,2.3l5.4,4.9l5.4,3l5.4,4.1l5.4,2l5.4,0.8l5.4,0.5
					l5.4,0.4l5.4,0.3l5.4,0.3l5.4,0.2l5.4,0.2l5.4,0.2l5.4,0.1l5.4,0.1l5.4,0.1l5.4,0.1l5.4,0.1l5.4,0.1l5.4,0.1l5.4,0.1l5.4,0.1
					l5.4,0l5.4,0l5.4,0l5.4,0l5.4,0l5.4,0l5.4,0l5.4,0l5.4,0l5.4,0l5.4,0l5.4,0v-0.1l0,0l-5.4,0l-5.4,0l-5.4,0l-5.4,0l-5.4,0l-5.4,0
					l-5.4,0l-5.4,0l-5.4,0l-5.4,0l-5.4,0l-5.4-0.1l-5.4-0.1l-5.4-0.1l-5.4-0.1l-5.4-0.1l-5.4-0.1l-5.4-0.1l-5.4-0.1l-5.4-0.1
					l-5.4-0.1l-5.4-0.2l-5.4-0.2l-5.4-0.2l-5.4-0.3l-5.4-0.3l-5.4-0.4l-5.4-0.9l-5.4-1.1l-5.4-2.3l-5.4-4.1l-5.4-2.6l-5.4-5
					l-5.4-1.7l-5.4-0.2l-5.4-0.1l-5.4-0.2l-5.4-0.4l-5.4-1L47.8,35.4z"/>
			</g>
		</g>
		<g id="PolyCollection_2">
			<g>
				<defs>
					<rect id="SVGID_00000145737506728965169510000014286850905999172491_" x="37" y="25.4" width="237.6" height="219.7"/>
				</defs>
				<clipPath id="SVGID_00000036240579733386080830000015004771856129769405_">
					<use xlink:href="#SVGID_00000145737506728965169510000014286850905999172491_"  style="overflow:visible;"/>
				</clipPath>
				<path style="clip-path:url(#SVGID_00000036240579733386080830000015004771856129769405_);fill:#FF7F0E;fill-opacity:0.3;" d="
					M47.8,35.3v0.2l5.4,177.8l5.4,1.1l5.4,0.4l5.4,0.2l5.4,0.1l5.4,0.1l5.4,0.1l5.4,0l5.4,0l5.4,0l5.4,0l5.4,0l5.4,0l5.4,0.1
					l5.4,2.2l5.4,1.3l5.4,0.3l5.4,1.1l5.4,2.1l5.4,1.8l5.4,1.6l5.4,0.8l5.4,0.6l5.4,1l5.4,0.3l5.4,0.8l5.4,0.4l5.4,0.6l5.4,1.4
					l5.4,1.7l5.4,0.9l5.4,0.4l5.4,0.2l5.4,0.1l5.4,0.1l5.4,0.1l5.4,0l5.4,0l5.4,0l5.4,0v-0.1l0,0l-5.4,0l-5.4,0l-5.4-0.1l-5.4-0.1
					l-5.4-0.1l-5.4-0.1l-5.4-0.2l-5.4-0.6l-5.4-1.1l-5.4-1.6l-5.4-2.1l-5.4-1.6l-5.4-0.7l-5.4-0.3l-5.4-0.6l-5.4-3.1l-5.4-1
					l-5.4-0.4l-5.4-1.7l-5.4-2.2l-5.4-1.2l-5.4-1.3l-5.4-0.4l-5.4-0.1l-5.4-0.2l-5.4,0.8l-5.4,0l-5.4,0l-5.4,0l-5.4,0l-5.4,0l-5.4,0
					l-5.4,0l-5.4-0.1l-5.4-0.1l-5.4-0.1l-5.4-0.2l-5.4-0.4l-5.4-1.1L47.8,35.3z"/>
			</g>
		</g>
		<g id="matplotlib.axis_1">
			<g id="xtick_1">
				<g id="line2d_1">
					<g>
						<g>
							<path id="m0865a07b47" class="st3" d="M47.8,245.2v3.5"/>
						</g>
					</g>
				</g>
				<g id="text_1">
					<text transform="matrix(1 0 0 1 44.989 259.7744)" class="st4 st5">0</text>
				</g>
			</g>
			<g id="xtick_2">
				<g id="line2d_2">
					<g>
						<g>
							<path id="m0865a07b47_00000173881630589601445240000008459891402761483923_" class="st3" d="M101.8,245.2v3.5"/>
						</g>
					</g>
				</g>
				<g id="text_2">
					<text transform="matrix(1 0 0 1 93.4265 259.7744)" class="st4 st5">500</text>
				</g>
			</g>
			<g id="xtick_3">
				<g id="line2d_3">
					<g>
						<g>
							<path id="m0865a07b47_00000108304391865308889180000018151924492926374293_" class="st3" d="M155.8,245.2v3.5"/>
						</g>
					</g>
				</g>
				<g id="text_3">
					<text transform="matrix(1 0 0 1 144.6447 259.7744)" class="st4 st5">1000</text>
				</g>
			</g>
			<g id="xtick_4">
				<g id="line2d_4">
					<g>
						<g>
							<path id="m0865a07b47_00000095311704172736148090000009140472501156605328_" class="st3" d="M209.8,245.2v3.5"/>
						</g>
					</g>
				</g>
				<g id="text_4">
					<text transform="matrix(1 0 0 1 198.6437 259.7744)" class="st4 st5">1500</text>
				</g>
			</g>
			<g id="xtick_5">
				<g id="line2d_5">
					<g>
						<g>
							<path id="m0865a07b47_00000144316479228761819750000002553084253149250976_" class="st3" d="M263.8,245.2v3.5"/>
						</g>
					</g>
				</g>
				<g id="text_5">
					<text transform="matrix(1 0 0 1 252.6426 259.7744)" class="st4 st5">2000</text>
				</g>
			</g>
			<g id="text_6">
				<text transform="matrix(1 0 0 1 141.5905 273.4526)" class="st4 st5">Epoch</text>
			</g>
		</g>
		<g id="matplotlib.axis_2">
			<g id="ytick_1">
				<g id="line2d_6">
					<g>
						<g>
							<path id="mb135fe2e6b" class="st3" d="M37,235.7h-3.5"/>
						</g>
					</g>
				</g>
				<g id="text_7">
					<text transform="matrix(1 0 0 1 24.4084 239.4769)" class="st4 st5">0</text>
				</g>
			</g>
			<g id="ytick_2">
				<g id="line2d_7">
					<g>
						<g>
							<path id="mb135fe2e6b_00000067232975420239856320000015385174061082136219_" class="st3" d="M37,199.6h-3.5"/>
						</g>
					</g>
				</g>
				<g id="text_8">
					<text transform="matrix(1 0 0 1 13.2854 203.3726)" class="st4 st5">100</text>
				</g>
			</g>
			<g id="ytick_3">
				<g id="line2d_8">
					<g>
						<g>
							<path id="mb135fe2e6b_00000058553318995832990860000015955323380876439202_" class="st3" d="M37,163.5h-3.5"/>
						</g>
					</g>
				</g>
				<g id="text_9">
					<text transform="matrix(1 0 0 1 13.2854 167.2683)" class="st4 st5">200</text>
				</g>
			</g>
			<g id="ytick_4">
				<g id="line2d_9">
					<g>
						<g>
							<path id="mb135fe2e6b_00000067930711233580539400000018329167997309416851_" class="st3" d="M37,127.4h-3.5"/>
						</g>
					</g>
				</g>
				<g id="text_10">
					<text transform="matrix(1 0 0 1 13.2854 131.1641)" class="st4 st5">300</text>
				</g>
			</g>
			<g id="ytick_5">
				<g id="line2d_10">
					<g>
						<g>
							<path id="mb135fe2e6b_00000176040537810486586540000002884623195755494807_" class="st3" d="M37,91.3h-3.5"/>
						</g>
					</g>
				</g>
				<g id="text_11">
					<text transform="matrix(1 0 0 1 13.2854 95.0598)" class="st4 st5">400</text>
				</g>
			</g>
			<g id="ytick_6">
				<g id="line2d_11">
					<g>
						<g>
							<path id="mb135fe2e6b_00000111888724969873396340000011127144929577127078_" class="st3" d="M37,55.2h-3.5"/>
						</g>
					</g>
				</g>
				<g id="text_12">
					<text transform="matrix(1 0 0 1 13.2854 58.9555)" class="st4 st5">500</text>
				</g>
			</g>
		</g>
		<g id="line2d_12">
			<g>
				<defs>
					<rect id="SVGID_00000146488636021668771830000014305317759578196398_" x="37" y="25.4" width="237.6" height="219.7"/>
				</defs>
				<clipPath id="SVGID_00000065753546056750651160000008026754808080205190_">
					<use xlink:href="#SVGID_00000146488636021668771830000014305317759578196398_"  style="overflow:visible;"/>
				</clipPath>
				
					<path style="clip-path:url(#SVGID_00000065753546056750651160000008026754808080205190_);fill:none;stroke:#1F77B4;stroke-width:1.5;stroke-linecap:square;stroke-linejoin:round;" d="
					M47.8,35.5l5.4,177.2l5.4,1l5.4,0.4l5.4,0.2l5.4,0.1l5.4,0.2l5.4,2l5.4,5l5.4,2.8l5.4,4.1l5.4,2.2l5.4,1l5.4,0.7l5.4,0.4
					l5.4,0.3l5.4,0.3l5.4,0.2l5.4,0.2l5.4,0.2l5.4,0.1l5.4,0.1l5.4,0.1l5.4,0.1l5.4,0.1l5.4,0.1l5.4,0.1l5.4,0.1l5.4,0.1l5.4,0
					l5.4,0l5.4,0l5.4,0l5.4,0l5.4,0l5.4,0l5.4,0l5.4,0l5.4,0l5.4,0l5.4,0"/>
			</g>
		</g>
		<g id="line2d_13">
			<g>
				<defs>
					<rect id="SVGID_00000099643227131511140780000012238393817799601065_" x="37" y="25.4" width="237.6" height="219.7"/>
				</defs>
				<clipPath id="SVGID_00000124138766668506572700000001526695199813089168_">
					<use xlink:href="#SVGID_00000099643227131511140780000012238393817799601065_"  style="overflow:visible;"/>
				</clipPath>
				
					<path style="clip-path:url(#SVGID_00000124138766668506572700000001526695199813089168_);fill:none;stroke:#000000;stroke-width:0.5;stroke-linejoin:round;stroke-dasharray:1.85,0.8;" d="
					M80.2,245.2V25.4"/>
			</g>
		</g>
		<g id="line2d_14">
			<g>
				<defs>
					<rect id="SVGID_00000056407854680387230500000013056797511157020327_" x="37" y="25.4" width="237.6" height="219.7"/>
				</defs>
				<clipPath id="SVGID_00000139266363124744867390000005410849960059745420_">
					<use xlink:href="#SVGID_00000056407854680387230500000013056797511157020327_"  style="overflow:visible;"/>
				</clipPath>
				
					<path style="clip-path:url(#SVGID_00000139266363124744867390000005410849960059745420_);fill:none;stroke:#000000;stroke-width:0.5;stroke-linejoin:round;stroke-dasharray:1.85,0.8;" d="
					M91,245.2V25.4"/>
			</g>
		</g>
		<g id="line2d_15">
			<g>
				<defs>
					<rect id="SVGID_00000099650345215574122490000006774084650587465138_" x="37" y="25.4" width="237.6" height="219.7"/>
				</defs>
				<clipPath id="SVGID_00000033357140098357865320000018125030966272318341_">
					<use xlink:href="#SVGID_00000099650345215574122490000006774084650587465138_"  style="overflow:visible;"/>
				</clipPath>
				
					<path style="clip-path:url(#SVGID_00000033357140098357865320000018125030966272318341_);fill:none;stroke:#000000;stroke-width:0.5;stroke-linejoin:round;stroke-dasharray:1.85,0.8;" d="
					M155.8,245.2V25.4"/>
			</g>
		</g>
		<g id="line2d_16">
			<g>
				<defs>
					<rect id="SVGID_00000173881204946704348470000007699934094304487061_" x="37" y="25.4" width="237.6" height="219.7"/>
				</defs>
				<clipPath id="SVGID_00000159466614508338903500000004621651016743596468_">
					<use xlink:href="#SVGID_00000173881204946704348470000007699934094304487061_"  style="overflow:visible;"/>
				</clipPath>
				
					<path style="clip-path:url(#SVGID_00000159466614508338903500000004621651016743596468_);fill:none;stroke:#000000;stroke-width:0.5;stroke-linejoin:round;stroke-dasharray:1.85,0.8;" d="
					M220.6,245.2V25.4"/>
			</g>
		</g>
		<g id="line2d_17">
			<g>
				<defs>
					<rect id="SVGID_00000164485215662804562230000001157248506460122278_" x="37" y="25.4" width="237.6" height="219.7"/>
				</defs>
				<clipPath id="SVGID_00000083786485919913899970000015992671447318323896_">
					<use xlink:href="#SVGID_00000164485215662804562230000001157248506460122278_"  style="overflow:visible;"/>
				</clipPath>
				
					<path style="clip-path:url(#SVGID_00000083786485919913899970000015992671447318323896_);fill:none;stroke:#FF7F0E;stroke-width:1.5;stroke-linecap:square;stroke-linejoin:round;" d="
					M47.8,35.4l5.4,177.9l5.4,1.1l5.4,0.4l5.4,0.2l5.4,0.1l5.4,0.1l5.4,0.1l5.4,0l5.4,0l5.4,0l5.4,0l5.4,0l5.4,0l5.4,0.1l5.4,0.7
					l5.4,0.8l5.4,0.2l5.4,0.8l5.4,1.7l5.4,1.5l5.4,1.9l5.4,1.2l5.4,0.5l5.4,1l5.4,1.7l5.4,0.7l5.4,0.3l5.4,0.7l5.4,1.5l5.4,1.9
					l5.4,1.3l5.4,0.7l5.4,0.4l5.4,0.2l5.4,0.1l5.4,0.1l5.4,0.1l5.4,0l5.4,0l5.4,0"/>
			</g>
		</g>
		<g id="line2d_18">
			<g>
				<defs>
					<rect id="SVGID_00000171705971290003685860000002863012201012023207_" x="37" y="25.4" width="237.6" height="219.7"/>
				</defs>
				<clipPath id="SVGID_00000017491504051203762200000010693083016884125856_">
					<use xlink:href="#SVGID_00000171705971290003685860000002863012201012023207_"  style="overflow:visible;"/>
				</clipPath>
				
					<path style="clip-path:url(#SVGID_00000017491504051203762200000010693083016884125856_);fill:none;stroke:#000000;stroke-width:0.5;stroke-linejoin:round;stroke-dasharray:1.85,0.8;" d="
					M80.2,245.2V25.4"/>
			</g>
		</g>
		<g id="line2d_19">
			<g>
				<defs>
					<rect id="SVGID_00000091708316523753524290000017647487823187514287_" x="37" y="25.4" width="237.6" height="219.7"/>
				</defs>
				<clipPath id="SVGID_00000162316191696356349310000007291333175735914686_">
					<use xlink:href="#SVGID_00000091708316523753524290000017647487823187514287_"  style="overflow:visible;"/>
				</clipPath>
				
					<path style="clip-path:url(#SVGID_00000162316191696356349310000007291333175735914686_);fill:none;stroke:#000000;stroke-width:0.5;stroke-linejoin:round;stroke-dasharray:1.85,0.8;" d="
					M91,245.2V25.4"/>
			</g>
		</g>
		<g id="line2d_20">
			<g>
				<defs>
					<rect id="SVGID_00000144319508610879247280000014402129987100392358_" x="37" y="25.4" width="237.6" height="219.7"/>
				</defs>
				<clipPath id="SVGID_00000019640954131573609360000012157415712521282951_">
					<use xlink:href="#SVGID_00000144319508610879247280000014402129987100392358_"  style="overflow:visible;"/>
				</clipPath>
				
					<path style="clip-path:url(#SVGID_00000019640954131573609360000012157415712521282951_);fill:none;stroke:#000000;stroke-width:0.5;stroke-linejoin:round;stroke-dasharray:1.85,0.8;" d="
					M155.8,245.2V25.4"/>
			</g>
		</g>
		<g id="line2d_21">
			<g>
				<defs>
					<rect id="SVGID_00000159455636379744802200000010549849999360816051_" x="37" y="25.4" width="237.6" height="219.7"/>
				</defs>
				<clipPath id="SVGID_00000101066236754760738300000007221078428377470630_">
					<use xlink:href="#SVGID_00000159455636379744802200000010549849999360816051_"  style="overflow:visible;"/>
				</clipPath>
				
					<path style="clip-path:url(#SVGID_00000101066236754760738300000007221078428377470630_);fill:none;stroke:#000000;stroke-width:0.5;stroke-linejoin:round;stroke-dasharray:1.85,0.8;" d="
					M220.6,245.2V25.4"/>
			</g>
		</g>
		<g id="patch_3">
			<path class="st16" d="M37,245.2V25.4"/>
		</g>
		<g id="patch_4">
			<path class="st16" d="M274.6,245.2V25.4"/>
		</g>
		<g id="patch_5">
			<path class="st16" d="M37,245.2h237.6"/>
		</g>
		<g id="patch_6">
			<path class="st16" d="M37,25.4h237.6"/>
		</g>
		<g id="text_13">
			<text transform="matrix(1 0 0 1 143.0939 19.44)" class="st4 st17">Loss</text>
		</g>
		<g id="legend_1">
			<g id="patch_7">
				<path class="st18" d="M213.2,62.8h54.4c1.3,0,2-0.7,2-2V32.4c0-1.3-0.7-2-2-2h-54.4c-1.3,0-2,0.7-2,2v28.4
					C211.2,62.1,211.8,62.8,213.2,62.8z"/>
			</g>
			<g id="line2d_22">
				<path class="st19" d="M215.2,38.5h10h10"/>
			</g>
			<g id="text_14">
				<text transform="matrix(1 0 0 1 243.153 42.0385)" class="st4 st5">Tree</text>
			</g>
			<g id="line2d_23">
				<path class="st20" d="M215.2,53.2h10h10"/>
			</g>
			<g id="text_15">
				<text transform="matrix(1 0 0 1 243.153 56.7166)" class="st4 st5">Ring</text>
			</g>
		</g>
	</g>
	<g id="axes_2">
		<g id="patch_8">
			<path class="st0" d="M37,534h237.6V314.3H37V534z"/>
		</g>
		<g id="PolyCollection_3">
			<g>
				<defs>
					<rect id="SVGID_00000092432275904709094430000015127033331425573040_" x="37" y="314.3" width="237.6" height="219.7"/>
				</defs>
				<clipPath id="SVGID_00000078734622142809182450000017292664963683456393_">
					<use xlink:href="#SVGID_00000092432275904709094430000015127033331425573040_"  style="overflow:visible;"/>
				</clipPath>
				<path style="clip-path:url(#SVGID_00000078734622142809182450000017292664963683456393_);fill:#1F77B4;fill-opacity:0.3;" d="
					M47.8,520.2v3.8l5.4-21.5l5.4,3.5l5.4,0.1h5.4h5.4l5.4,0.2l5.4-16.7l5.4-46.3l5.4-23.5l5.4-39.6l5.4-18.9l5.4-11.3l5.4-9
					l5.4-2.4l5.4-1.8l5.4-1.5l5.4-1.3l5.4-1.4l5.4-1.4l5.4-0.7l5.4-1.1l5.4-0.8l5.4-0.6l5.4-0.5l5.4-0.5l5.4-0.4l5.4-0.2l5.4-0.2
					l5.4-0.2l5.4-0.1l5.4-0.1l5.4-0.2l5.4-0.2l5.4-0.1l5.4-0.1l5.4-0.1l5.4-0.1l5.4-0.1l5.4-0.1l5.4-0.1v-0.5l0,0l-5.4,0.1l-5.4,0.1
					l-5.4,0.1l-5.4,0.1l-5.4,0.1l-5.4,0.1L226,325l-5.4,0.2l-5.4,0.2l-5.4,0.2l-5.4,0.1l-5.4,0.1l-5.4,0.2l-5.4,0.2l-5.4,0.4
					l-5.4,0.4l-5.4,0.4l-5.4,0.6l-5.4,0.7l-5.4,1l-5.4,0.7l-5.4,1.3l-5.4,1.3l-5.4,1.3l-5.4,1.5l-5.4,1.7l-5.4,2.2l-5.4,4.7
					l-5.4,7.7l-5.4,15.1L96.4,406L91,433.4l-5.4,45.2L80.2,504l-5.4-0.2h-5.4H64l-5.4-0.1l-5.4-3.8L47.8,520.2z"/>
			</g>
		</g>
		<g id="PolyCollection_4">
			<g>
				<defs>
					<rect id="SVGID_00000182496806658358335990000003272711136046514591_" x="37" y="314.3" width="237.6" height="219.7"/>
				</defs>
				<clipPath id="SVGID_00000093175457654274532400000010548681192122643900_">
					<use xlink:href="#SVGID_00000182496806658358335990000003272711136046514591_"  style="overflow:visible;"/>
				</clipPath>
				<path style="clip-path:url(#SVGID_00000093175457654274532400000010548681192122643900_);fill:#FF7F0E;fill-opacity:0.3;" d="
					M47.8,514.4v15l5.4-9.8h5.4H64h5.4h5.4h5.4h5.4H91h5.4h5.4h5.4h5.4h5.4h5.4l5.4,9.6l5.4-2.8h5.4l5.4-5.7l5.4-13.2l5.4-15.3
					l5.4-25.3l5.4-16.9l5.4-16.8l5.4-6.2l5.4-32.9l5.4-7.2l5.4,5.5l5.4-15.8l5.4-13.9l5.4-18.2l5.4-13.2l5.4-6.9l5.4-2h5.4h5.4h5.4
					h5.4h5.4h5.4h5.4l0,0l0,0h-5.4H253h-5.4h-5.4h-5.4h-5.4H226l-5.4-0.7l-5.4-1.3l-5.4,4.1l-5.4,15.7l-5.4,14.5l-5.4,1.9l-5.4,4.1
					l-5.4,2.1l-5.4,0.1l-5.4,6.8l-5.4,19.2l-5.4,7.7l-5.4,12.3l-5.4,29.7l-5.4,18.8l-5.4,13.7h-5.4l-5.4,16.6l-5.4,29H118h-5.4h-5.4
					h-5.4h-5.4H91h-5.4h-5.4h-5.4h-5.4H64h-5.4h-5.4L47.8,514.4z"/>
			</g>
		</g>
		<g id="matplotlib.axis_3">
			<g id="xtick_6">
				<g id="line2d_24">
					<g>
						<g>
							<path id="m0865a07b47_00000172403443564297998810000009594655243370178490_" class="st3" d="M47.8,534v3.5"/>
						</g>
					</g>
				</g>
				<g id="text_16">
					<text transform="matrix(1 0 0 1 44.989 548.6384)" class="st4 st5">0</text>
				</g>
			</g>
			<g id="xtick_7">
				<g id="line2d_25">
					<g>
						<g>
							<path id="m0865a07b47_00000150074613802147230580000003445532089249917073_" class="st3" d="M101.8,534v3.5"/>
						</g>
					</g>
				</g>
				<g id="text_17">
					<text transform="matrix(1 0 0 1 93.4265 548.6384)" class="st4 st5">500</text>
				</g>
			</g>
			<g id="xtick_8">
				<g id="line2d_26">
					<g>
						<g>
							<path id="m0865a07b47_00000073711649759095945020000005178343057358270354_" class="st3" d="M155.8,534v3.5"/>
						</g>
					</g>
				</g>
				<g id="text_18">
					<text transform="matrix(1 0 0 1 144.6447 548.6384)" class="st4 st5">1000</text>
				</g>
			</g>
			<g id="xtick_9">
				<g id="line2d_27">
					<g>
						<g>
							<path id="m0865a07b47_00000155108727295446778550000014765743148867667328_" class="st3" d="M209.8,534v3.5"/>
						</g>
					</g>
				</g>
				<g id="text_19">
					<text transform="matrix(1 0 0 1 198.6437 548.6384)" class="st4 st5">1500</text>
				</g>
			</g>
			<g id="xtick_10">
				<g id="line2d_28">
					<g>
						<g>
							<path id="m0865a07b47_00000021835115072704686340000016923780411158086281_" class="st3" d="M263.8,534v3.5"/>
						</g>
					</g>
				</g>
				<g id="text_20">
					<text transform="matrix(1 0 0 1 252.6426 548.6384)" class="st4 st5">2000</text>
				</g>
			</g>
			<g id="text_21">
				<text transform="matrix(1 0 0 1 141.5905 562.3166)" class="st4 st5">Epoch</text>
			</g>
		</g>
		<g id="matplotlib.axis_4">
			<g id="ytick_7">
				<g id="line2d_29">
					<g>
						<g>
							<path id="mb135fe2e6b_00000124129470740705372800000013745435509947791531_" class="st3" d="M37,522.4h-3.5"/>
						</g>
					</g>
				</g>
				<g id="text_22">
					<text transform="matrix(1 0 0 1 16.0686 526.1661)" class="st4 st5">0.5</text>
				</g>
			</g>
			<g id="ytick_8">
				<g id="line2d_30">
					<g>
						<g>
							<path id="mb135fe2e6b_00000055667994807117445420000002932843478280898990_" class="st3" d="M37,482.4h-3.5"/>
						</g>
					</g>
				</g>
				<g id="text_23">
					<text transform="matrix(1 0 0 1 16.0686 486.1646)" class="st4 st5">0.6</text>
				</g>
			</g>
			<g id="ytick_9">
				<g id="line2d_31">
					<g>
						<g>
							<path id="mb135fe2e6b_00000054266818804432324250000003208362448612245939_" class="st3" d="M37,442.4h-3.5"/>
						</g>
					</g>
				</g>
				<g id="text_24">
					<text transform="matrix(1 0 0 1 16.0686 446.163)" class="st4 st5">0.7</text>
				</g>
			</g>
			<g id="ytick_10">
				<g id="line2d_32">
					<g>
						<g>
							<path id="mb135fe2e6b_00000103255037732048659530000013687690270082627723_" class="st3" d="M37,402.4h-3.5"/>
						</g>
					</g>
				</g>
				<g id="text_25">
					<text transform="matrix(1 0 0 1 16.0686 406.1614)" class="st4 st5">0.8</text>
				</g>
			</g>
			<g id="ytick_11">
				<g id="line2d_33">
					<g>
						<g>
							<path id="mb135fe2e6b_00000116209495549816528260000008480892655402707602_" class="st3" d="M37,362.4h-3.5"/>
						</g>
					</g>
				</g>
				<g id="text_26">
					<text transform="matrix(1 0 0 1 16.0686 366.1599)" class="st4 st5">0.9</text>
				</g>
			</g>
			<g id="ytick_12">
				<g id="line2d_34">
					<g>
						<g>
							<path id="mb135fe2e6b_00000005251301061557699010000005604473959840805785_" class="st3" d="M37,322.4h-3.5"/>
						</g>
					</g>
				</g>
				<g id="text_27">
					<text transform="matrix(1 0 0 1 16.0686 326.1583)" class="st4 st5">1.0</text>
				</g>
			</g>
		</g>
		<g id="line2d_35">
			<g>
				<defs>
					<rect id="SVGID_00000095339679307732124250000007825584988823578016_" x="37" y="314.3" width="237.6" height="219.7"/>
				</defs>
				<clipPath id="SVGID_00000065777858636500222790000003190119755012137865_">
					<use xlink:href="#SVGID_00000095339679307732124250000007825584988823578016_"  style="overflow:visible;"/>
				</clipPath>
				
					<path style="clip-path:url(#SVGID_00000065777858636500222790000003190119755012137865_);fill:none;stroke:#1F77B4;stroke-width:1.5;stroke-linecap:square;stroke-linejoin:round;" d="
					M47.8,522.1l5.4-20.9l5.4,3.7L64,505h5.4h5.4l5.4,0.2l5.4-21.1l5.4-45.8l5.4-25.4l5.4-39.3l5.4-17l5.4-9.5l5.4-6.8l5.4-2.3
					l5.4-1.7l5.4-1.5l5.4-1.3l5.4-1.4l5.4-1.4l5.4-0.7l5.4-1.1l5.4-0.7l5.4-0.6l5.4-0.4l5.4-0.5l5.4-0.4l5.4-0.2l5.4-0.2l5.4-0.1
					l5.4-0.1l5.4-0.2l5.4-0.2l5.4-0.2l5.4-0.1l5.4-0.1l5.4-0.1l5.4-0.1l5.4-0.1l5.4-0.1l5.4-0.1"/>
			</g>
		</g>
		<g id="line2d_36">
			<g>
				<defs>
					<rect id="SVGID_00000052818183838702561260000007127660937707312302_" x="37" y="314.3" width="237.6" height="219.7"/>
				</defs>
				<clipPath id="SVGID_00000097496852910332688370000012732837303166039450_">
					<use xlink:href="#SVGID_00000052818183838702561260000007127660937707312302_"  style="overflow:visible;"/>
				</clipPath>
				
					<path style="clip-path:url(#SVGID_00000097496852910332688370000012732837303166039450_);fill:none;stroke:#000000;stroke-width:0.5;stroke-linejoin:round;stroke-dasharray:1.85,0.8;" d="
					M80.2,534V314.3"/>
			</g>
		</g>
		<g id="line2d_37">
			<g>
				<defs>
					<rect id="SVGID_00000062870381668343782060000012066442360033791133_" x="37" y="314.3" width="237.6" height="219.7"/>
				</defs>
				<clipPath id="SVGID_00000085224060442068697260000017672069998901383082_">
					<use xlink:href="#SVGID_00000062870381668343782060000012066442360033791133_"  style="overflow:visible;"/>
				</clipPath>
				
					<path style="clip-path:url(#SVGID_00000085224060442068697260000017672069998901383082_);fill:none;stroke:#000000;stroke-width:0.5;stroke-linejoin:round;stroke-dasharray:1.85,0.8;" d="
					M91,534V314.3"/>
			</g>
		</g>
		<g id="line2d_38">
			<g>
				<defs>
					<rect id="SVGID_00000122699019216348341760000012099464941496546471_" x="37" y="314.3" width="237.6" height="219.7"/>
				</defs>
				<clipPath id="SVGID_00000034798439518231328290000009661889540509893513_">
					<use xlink:href="#SVGID_00000122699019216348341760000012099464941496546471_"  style="overflow:visible;"/>
				</clipPath>
				
					<path style="clip-path:url(#SVGID_00000034798439518231328290000009661889540509893513_);fill:none;stroke:#000000;stroke-width:0.5;stroke-linejoin:round;stroke-dasharray:1.85,0.8;" d="
					M155.8,534V314.3"/>
			</g>
		</g>
		<g id="line2d_39">
			<g>
				<defs>
					<rect id="SVGID_00000066510358091807671340000003763115325512611726_" x="37" y="314.3" width="237.6" height="219.7"/>
				</defs>
				<clipPath id="SVGID_00000141433157386387352220000010477427595146488237_">
					<use xlink:href="#SVGID_00000066510358091807671340000003763115325512611726_"  style="overflow:visible;"/>
				</clipPath>
				
					<path style="clip-path:url(#SVGID_00000141433157386387352220000010477427595146488237_);fill:none;stroke:#000000;stroke-width:0.5;stroke-linejoin:round;stroke-dasharray:1.85,0.8;" d="
					M220.6,534V314.3"/>
			</g>
		</g>
		<g id="line2d_40">
			<g>
				<defs>
					<rect id="SVGID_00000096756871822858353630000012364699217967829158_" x="37" y="314.3" width="237.6" height="219.7"/>
				</defs>
				<clipPath id="SVGID_00000101084932112707300280000018320045856397273774_">
					<use xlink:href="#SVGID_00000096756871822858353630000012364699217967829158_"  style="overflow:visible;"/>
				</clipPath>
				
					<path style="clip-path:url(#SVGID_00000101084932112707300280000018320045856397273774_);fill:none;stroke:#FF7F0E;stroke-width:1.5;stroke-linecap:square;stroke-linejoin:round;" d="
					M47.8,521.9l5.4-3.8h5.4H64h5.4h5.4h5.4h5.4H91h5.4h5.4h5.4h5.4h5.4h5.4l5.4-9.7l5.4-9.7h5.4l5.4-9.7l5.4-16l5.4-22.5l5.4-18.8
					l5.4-12.3l5.4-18l5.4-6.5l5.4-16.5l5.4-4.6l5.4,0.7l5.4-8.8l5.4-14.2l5.4-17l5.4-8.7l5.4-2.8l5.4-0.6h5.4h5.4h5.4h5.4h5.4h5.4
					h5.4"/>
			</g>
		</g>
		<g id="line2d_41">
			<g>
				<defs>
					<rect id="SVGID_00000046308753582431314700000003349659605938293632_" x="37" y="314.3" width="237.6" height="219.7"/>
				</defs>
				<clipPath id="SVGID_00000160170611010550592560000002483790255996692114_">
					<use xlink:href="#SVGID_00000046308753582431314700000003349659605938293632_"  style="overflow:visible;"/>
				</clipPath>
				
					<path style="clip-path:url(#SVGID_00000160170611010550592560000002483790255996692114_);fill:none;stroke:#000000;stroke-width:0.5;stroke-linejoin:round;stroke-dasharray:1.85,0.8;" d="
					M80.2,534V314.3"/>
			</g>
		</g>
		<g id="line2d_42">
			<g>
				<defs>
					<rect id="SVGID_00000091693319615985059140000014624241089571635101_" x="37" y="314.3" width="237.6" height="219.7"/>
				</defs>
				<clipPath id="SVGID_00000180324561296863666650000010797950722651401102_">
					<use xlink:href="#SVGID_00000091693319615985059140000014624241089571635101_"  style="overflow:visible;"/>
				</clipPath>
				
					<path style="clip-path:url(#SVGID_00000180324561296863666650000010797950722651401102_);fill:none;stroke:#000000;stroke-width:0.5;stroke-linejoin:round;stroke-dasharray:1.85,0.8;" d="
					M91,534V314.3"/>
			</g>
		</g>
		<g id="line2d_43">
			<g>
				<defs>
					<rect id="SVGID_00000006707064357568383390000016764725271726119099_" x="37" y="314.3" width="237.6" height="219.7"/>
				</defs>
				<clipPath id="SVGID_00000078725765919567492080000013778130398194632631_">
					<use xlink:href="#SVGID_00000006707064357568383390000016764725271726119099_"  style="overflow:visible;"/>
				</clipPath>
				
					<path style="clip-path:url(#SVGID_00000078725765919567492080000013778130398194632631_);fill:none;stroke:#000000;stroke-width:0.5;stroke-linejoin:round;stroke-dasharray:1.85,0.8;" d="
					M155.8,534V314.3"/>
			</g>
		</g>
		<g id="line2d_44">
			<g>
				<defs>
					<rect id="SVGID_00000120516343108441813230000000026652983890368953_" x="37" y="314.3" width="237.6" height="219.7"/>
				</defs>
				<clipPath id="SVGID_00000129901638115706326890000003900909343944866446_">
					<use xlink:href="#SVGID_00000120516343108441813230000000026652983890368953_"  style="overflow:visible;"/>
				</clipPath>
				
					<path style="clip-path:url(#SVGID_00000129901638115706326890000003900909343944866446_);fill:none;stroke:#000000;stroke-width:0.5;stroke-linejoin:round;stroke-dasharray:1.85,0.8;" d="
					M220.6,534V314.3"/>
			</g>
		</g>
		<g id="patch_9">
			<path class="st16" d="M37,534V314.3"/>
		</g>
		<g id="patch_10">
			<path class="st16" d="M274.6,534V314.3"/>
		</g>
		<g id="patch_11">
			<path class="st16" d="M37,534h237.6"/>
		</g>
		<g id="patch_12">
			<path class="st16" d="M37,314.3h237.6"/>
		</g>
		<g id="text_28">
			<text transform="matrix(1 0 0 1 39.5177 294.8666)" class="st4 st17">Fraction of correctly classified outputs,</text>
			<text transform="matrix(1 0 0 1 40.849 308.304)" class="st4 st17">inversely weighted by class frequency</text>
		</g>
		<g id="legend_2">
			<g id="patch_13">
				<path class="st18" d="M199.5,529h67.6c1.7,0,2.5-0.7,2.5-2v-28.4c0-1.3-0.8-2-2.5-2h-67.6c-1.7,0-2.5,0.7-2.5,2V527
					C197,528.4,197.8,529,199.5,529z"/>
			</g>
			<g id="line2d_45">
				<path class="st19" d="M202.7,504.8h10h10"/>
			</g>
			<g id="text_29">
				<text transform="matrix(1 0 0 1 227.4052 508.2822)" class="st4 st5">Hierarchy</text>
			</g>
			<g id="line2d_46">
				<path class="st20" d="M202.7,519.5h10h10"/>
			</g>
			<g id="text_30">
				<text transform="matrix(1 0 0 1 228.2148 522.9603)" class="st4 st5">Ring</text>
			</g>
		</g>
	</g>
</g>
</svg>
