<?xml version="1.0" encoding="utf-8"?>
<!-- Generator: Adobe Illustrator 26.0.3, SVG Export Plug-In . SVG Version: 6.00 Build 0)  -->
<svg version="1.1" id="Layer_1" xmlns="http://www.w3.org/2000/svg" xmlns:xlink="http://www.w3.org/1999/xlink" x="0px" y="0px"
	 viewBox="0 0 576 288" style="enable-background:new 0 0 576 288;" xml:space="preserve">
<style type="text/css">
	.st0{fill:#FFFFFF;}
	.st1{clip-path:url(#SVGID_00000160884305727533496740000008503315231281914280_);fill:#1F77B4;fill-opacity:0.3;}
	.st2{clip-path:url(#SVGID_00000143595123969263337470000001908583486394916244_);fill:#FF7F0E;fill-opacity:0.3;}
	.st3{clip-path:url(#SVGID_00000132046732452871898080000009706526061065084811_);fill:#FF7F0E;fill-opacity:0.3;}
	.st4{clip-path:url(#SVGID_00000029043408154922401690000008906908271028423838_);fill:#1F77B4;fill-opacity:0.3;}
	.st5{stroke:#000000;stroke-width:0.8;stroke-linejoin:round;}
	.st6{font-family:'ArialMT';}
	.st7{font-size:10px;}
	.st8{font-size:14px;}
	
		.st9{clip-path:url(#SVGID_00000124840985332295673000000015473627488644661399_);fill:none;stroke:#1F77B4;stroke-width:2;stroke-linecap:square;stroke-linejoin:round;}
	
		.st10{clip-path:url(#SVGID_00000132794128497336986760000004235356336955331763_);fill:none;stroke:#1F77B4;stroke-width:2;stroke-linejoin:round;stroke-dasharray:7.4,3.2;}
	
		.st11{clip-path:url(#SVGID_00000173841195761940591060000004103124653338704784_);fill:none;stroke:#FF7F0E;stroke-width:2;stroke-linecap:square;stroke-linejoin:round;}
	
		.st12{clip-path:url(#SVGID_00000155835386115409652380000011490887546201823142_);fill:none;stroke:#1F77B4;stroke-width:2;stroke-linejoin:round;stroke-dasharray:7.4,3.2;}
	
		.st13{clip-path:url(#SVGID_00000064344961718106613610000012598482029430834081_);fill:none;stroke:#FF7F0E;stroke-width:2;stroke-linecap:square;stroke-linejoin:round;}
	
		.st14{clip-path:url(#SVGID_00000142159468792247011200000009918091443034035117_);fill:none;stroke:#FF7F0E;stroke-width:2;stroke-linejoin:round;stroke-dasharray:7.4,3.2;}
	
		.st15{clip-path:url(#SVGID_00000023984774089897011080000012740265909728197551_);fill:none;stroke:#1F77B4;stroke-width:2;stroke-linecap:square;stroke-linejoin:round;}
	
		.st16{clip-path:url(#SVGID_00000076578836480057139860000006502723592236853653_);fill:none;stroke:#FF7F0E;stroke-width:2;stroke-linejoin:round;stroke-dasharray:7.4,3.2;}
	
		.st17{clip-path:url(#SVGID_00000132786024114338273960000017731543124852032697_);fill:none;stroke:#000000;stroke-width:0.5;stroke-linejoin:round;stroke-dasharray:1.85,0.8;}
	
		.st18{clip-path:url(#SVGID_00000173135050355456564020000006832393491807049141_);fill:none;stroke:#000000;stroke-width:0.5;stroke-linejoin:round;stroke-dasharray:1.85,0.8;}
	
		.st19{clip-path:url(#SVGID_00000165948829268289445760000018326457443521512606_);fill:none;stroke:#000000;stroke-width:0.5;stroke-linejoin:round;stroke-dasharray:1.85,0.8;}
	
		.st20{clip-path:url(#SVGID_00000178909866972708440460000014041271620803813276_);fill:none;stroke:#000000;stroke-width:0.5;stroke-linejoin:round;stroke-dasharray:1.85,0.8;}
	.st21{fill:none;stroke:#000000;stroke-width:0.8;stroke-linecap:square;}
	.st22{font-size:18px;}
	.st23{opacity:0.8;fill:#FFFFFF;stroke:#CCCCCC;enable-background:new    ;}
	.st24{fill:none;stroke:#1F77B4;stroke-width:2;stroke-linecap:square;stroke-linejoin:round;}
	.st25{fill:none;stroke:#1F77B4;stroke-width:2;stroke-linejoin:round;stroke-dasharray:7.4,3.2;}
	.st26{fill:none;stroke:#FF7F0E;stroke-width:2;stroke-linecap:square;stroke-linejoin:round;}
	.st27{fill:none;stroke:#FF7F0E;stroke-width:2;stroke-linejoin:round;stroke-dasharray:7.4,3.2;}
</style>
<g id="figure_1">
	<g id="patch_1">
		<path class="st0" d="M0,288h576V0H0V288z"/>
	</g>
	<g id="axes_1">
		<g id="patch_2">
			<path class="st0" d="M57.4,246h507.8V25.4H57.4V246z"/>
		</g>
		<g id="PolyCollection_1">
			<g>
				<defs>
					<rect id="SVGID_1_" x="57.4" y="25.4" width="507.8" height="220.6"/>
				</defs>
				<clipPath id="SVGID_00000142873262363860546480000010080412538260878997_">
					<use xlink:href="#SVGID_1_"  style="overflow:visible;"/>
				</clipPath>
				<path style="clip-path:url(#SVGID_00000142873262363860546480000010080412538260878997_);fill:#1F77B4;fill-opacity:0.3;" d="
					M80.5,195.8v2.2l23.1,6.4l23.1,8l23.1,6.1l23.1,5.9l23.1,3.4L219,229l23.1,0.7l23.1,0.6l23.1,0l23.1,0.6l23.1,0.1l23.1,0.4
					l23.1,0l23.1-0.1l23.1,0.2l23.1,0.5l23.1-0.3l23.1-0.1l23.1,0.2l23.1-0.1v-2.2l0,0l-23.1,0.4l-23.1-0.5l-23.1,0.1l-23.1,0.5
					l-23.1-0.7l-23.1-0.1l-23.1-0.1l-23.1,0.1l-23.1-0.6l-23.1-0.1l-23.1-0.6l-23.1,0l-23.1-0.6l-23.1-0.7l-23.1-1.1l-23.1-3.3
					l-23.1-6.6l-23.1-5.8l-23.1-8.1L80.5,195.8z"/>
			</g>
		</g>
		<g id="PolyCollection_2">
		</g>
		<g id="PolyCollection_3">
			<g>
				<defs>
					<rect id="SVGID_00000114784245352395330270000004405589280653970852_" x="57.4" y="25.4" width="507.8" height="220.6"/>
				</defs>
				<clipPath id="SVGID_00000055674449932051472160000003550780178054754467_">
					<use xlink:href="#SVGID_00000114784245352395330270000004405589280653970852_"  style="overflow:visible;"/>
				</clipPath>
				<path style="clip-path:url(#SVGID_00000055674449932051472160000003550780178054754467_);fill:#FF7F0E;fill-opacity:0.3;" d="
					M80.5,163.1v4.1l23.1,1.2l23.1,10.1l23.1,12.5l23.1,11.4l23.1,7.3L219,212l23.1,0.6l23.1,0.8l23.1,0.8l23.1,0.7l23.1,0.1
					l23.1,0.3l23.1,0.6l23.1,0l23.1,0.2l23.1,0.1l23.1-0.1l23.1,0.3l23.1,0.1l23.1,0v-1.3l0,0l-23.1,0l-23.1,0l-23.1-0.2l-23.1,0.1
					l-23.1-0.2l-23.1-0.3l-23.1,0.3l-23.1-0.7l-23.1-0.3l-23.1-0.4l-23.1-0.6l-23.1-1.3l-23.1-0.8l-23.1-0.8l-23.1-2.4l-23.1-8.3
					l-23.1-12.6l-23.1-14.1l-23.1-9.7L80.5,163.1z"/>
			</g>
		</g>
		<g id="PolyCollection_4">
		</g>
		<g id="PolyCollection_5">
			<g>
				<defs>
					<rect id="SVGID_00000128447522596680983000000003339434865995350926_" x="57.4" y="25.4" width="507.8" height="220.6"/>
				</defs>
				<clipPath id="SVGID_00000166634355230514543900000001447980446425882755_">
					<use xlink:href="#SVGID_00000128447522596680983000000003339434865995350926_"  style="overflow:visible;"/>
				</clipPath>
				<path style="clip-path:url(#SVGID_00000166634355230514543900000001447980446425882755_);fill:#FF7F0E;fill-opacity:0.3;" d="
					M80.5,35.5v56.8l23.1,76.5l23.1-4.1l23.1,2.7l23.1-0.3l23.1-0.4L219,172l23.1,8.6l23.1,6.3l23.1,10.1l23.1,8.6l23.1,5.3
					l23.1,2.7l23.1,1.8l23.1,1.2l23.1,0.6l23.1,0.8l23.1,0.4l23.1-0.4l23.1,1.3l23.1-0.6v-6.1l0,0l-23.1,1.7l-23.1-0.2l-23.1-0.6
					l-23.1,0.4l-23.1-1.7l-23.1-0.6l-23.1,0.5l-23.1-3.3l-23.1-9.9l-23.1-13.4l-23.1-5.6l-23.1-10.1l-23.1-9.6l-23.1,2.9l-23.1-5.1
					l-23.1-1.6l-23.1,4.6l-23.1-6.7l-23.1-3.2L80.5,35.5z"/>
			</g>
		</g>
		<g id="PolyCollection_6">
		</g>
		<g id="PolyCollection_7">
			<g>
				<defs>
					<rect id="SVGID_00000016784072523042674910000018148414556053805243_" x="57.4" y="25.4" width="507.8" height="220.6"/>
				</defs>
				<clipPath id="SVGID_00000086659544675443454300000004893290339112082866_">
					<use xlink:href="#SVGID_00000016784072523042674910000018148414556053805243_"  style="overflow:visible;"/>
				</clipPath>
				<path style="clip-path:url(#SVGID_00000086659544675443454300000004893290339112082866_);fill:#1F77B4;fill-opacity:0.3;" d="
					M80.5,189.6v9.3l23.1,20.1l23.1-0.1l23.1-0.1l23.1,0l23.1-0.3l23.1,1.4l23.1,1l23.1,3.3l23.1,1.1l23.1,3.8l23.1,3.5l23.1,1
					l23.1,1l23.1,0.3l23.1-0.3l23.1-0.1l23.1,0.9l23.1-1l23.1,1.5l23.1,0.3v-7.6l0,0l-23.1,0.2l-23.1-0.4l-23.1-0.6l-23.1-1.4
					l-23.1,0.7l-23.1-1.9l-23.1-1.7l-23.1,1.5l-23.1-2l-23.1-4.1l-23.1-2.1l-23.1-6.2l-23.1-0.6l-23.1-1.6l-23.1-1.5l-23.1-0.4
					l-23.1,2l-23.1-2.3l-23.1,1.5L80.5,189.6z"/>
			</g>
		</g>
		<g id="PolyCollection_8">
		</g>
		<g id="matplotlib.axis_1">
			<g id="xtick_1">
				<g id="line2d_1">
					<g>
						<g>
							<path id="mab9aac59c1" class="st5" d="M80.5,246v3.5"/>
						</g>
					</g>
				</g>
				<g id="text_1">
					<text transform="matrix(1 0 0 1 77.7392 260.6384)" class="st6 st7">0</text>
				</g>
			</g>
			<g id="xtick_2">
				<g id="line2d_2">
					<g>
						<g>
							<path id="mab9aac59c1_00000183953569347341070570000003876602036900497829_" class="st5" d="M138.2,246v3.5"/>
						</g>
					</g>
				</g>
				<g id="text_2">
					<text transform="matrix(1 0 0 1 129.8777 260.6384)" class="st6 st7">250</text>
				</g>
			</g>
			<g id="xtick_3">
				<g id="line2d_3">
					<g>
						<g>
							<path id="mab9aac59c1_00000111153492658566913510000011880464265953494958_" class="st5" d="M195.9,246v3.5"/>
						</g>
					</g>
				</g>
				<g id="text_3">
					<text transform="matrix(1 0 0 1 187.5777 260.6384)" class="st6 st7">500</text>
				</g>
			</g>
			<g id="xtick_4">
				<g id="line2d_4">
					<g>
						<g>
							<path id="mab9aac59c1_00000080904260118907740970000011661273255074459030_" class="st5" d="M253.6,246v3.5"/>
						</g>
					</g>
				</g>
				<g id="text_4">
					<text transform="matrix(1 0 0 1 245.2777 260.6384)" class="st6 st7">750</text>
				</g>
			</g>
			<g id="xtick_5">
				<g id="line2d_5">
					<g>
						<g>
							<path id="mab9aac59c1_00000180344727625887710690000005656299569110542722_" class="st5" d="M311.3,246v3.5"/>
						</g>
					</g>
				</g>
				<g id="text_5">
					<text transform="matrix(1 0 0 1 300.197 260.6384)" class="st6 st7">1000</text>
				</g>
			</g>
			<g id="xtick_6">
				<g id="line2d_6">
					<g>
						<g>
							<path id="mab9aac59c1_00000070803581103264978790000005761426540532001446_" class="st5" d="M369,246v3.5"/>
						</g>
					</g>
				</g>
				<g id="text_6">
					<text transform="matrix(1 0 0 1 357.897 260.6384)" class="st6 st7">1250</text>
				</g>
			</g>
			<g id="xtick_7">
				<g id="line2d_7">
					<g>
						<g>
							<path id="mab9aac59c1_00000177469266483000633290000007266109285223859119_" class="st5" d="M426.7,246v3.5"/>
						</g>
					</g>
				</g>
				<g id="text_7">
					<text transform="matrix(1 0 0 1 415.5969 260.6384)" class="st6 st7">1500</text>
				</g>
			</g>
			<g id="xtick_8">
				<g id="line2d_8">
					<g>
						<g>
							<path id="mab9aac59c1_00000080892633971231473400000005504361324688794035_" class="st5" d="M484.4,246v3.5"/>
						</g>
					</g>
				</g>
				<g id="text_8">
					<text transform="matrix(1 0 0 1 473.297 260.6384)" class="st6 st7">1750</text>
				</g>
			</g>
			<g id="xtick_9">
				<g id="line2d_9">
					<g>
						<g>
							<path id="mab9aac59c1_00000178911323831970563690000016539959140888933248_" class="st5" d="M542.1,246v3.5"/>
						</g>
					</g>
				</g>
				<g id="text_9">
					<text transform="matrix(1 0 0 1 530.9969 260.6384)" class="st6 st7">2000</text>
				</g>
			</g>
			<g id="text_10">
				<text transform="matrix(1 0 0 1 206.3361 277.2562)" class="st6 st8">Epochs training first 2 domains</text>
			</g>
		</g>
		<g id="matplotlib.axis_2">
			<g id="ytick_1">
				<g id="line2d_10">
					<g>
						<g>
							<path id="m05023682f1" class="st5" d="M57.4,244.8h-3.5"/>
						</g>
					</g>
				</g>
				<g id="text_11">
					<text transform="matrix(1 0 0 1 44.8785 248.613)" class="st6 st7">0</text>
				</g>
			</g>
			<g id="ytick_2">
				<g id="line2d_11">
					<g>
						<g>
							<path id="m05023682f1_00000007413652575206181200000004212671530856127879_" class="st5" d="M57.4,207.6h-3.5"/>
						</g>
					</g>
				</g>
				<g id="text_12">
					<text transform="matrix(1 0 0 1 33.7554 211.3827)" class="st6 st7">500</text>
				</g>
			</g>
			<g id="ytick_3">
				<g id="line2d_12">
					<g>
						<g>
							<path id="m05023682f1_00000160179061313901905180000008690292895012624274_" class="st5" d="M57.4,170.4h-3.5"/>
						</g>
					</g>
				</g>
				<g id="text_13">
					<text transform="matrix(1 0 0 1 28.1939 174.1524)" class="st6 st7">1000</text>
				</g>
			</g>
			<g id="ytick_4">
				<g id="line2d_13">
					<g>
						<g>
							<path id="m05023682f1_00000096029844687845304630000002191305357187350665_" class="st5" d="M57.4,133.1h-3.5"/>
						</g>
					</g>
				</g>
				<g id="text_14">
					<text transform="matrix(1 0 0 1 28.1939 136.9221)" class="st6 st7">1500</text>
				</g>
			</g>
			<g id="ytick_5">
				<g id="line2d_14">
					<g>
						<g>
							<path id="m05023682f1_00000079449030717047231860000012445732277689161398_" class="st5" d="M57.4,95.9h-3.5"/>
						</g>
					</g>
				</g>
				<g id="text_15">
					<text transform="matrix(1 0 0 1 28.1939 99.6917)" class="st6 st7">2000</text>
				</g>
			</g>
			<g id="ytick_6">
				<g id="line2d_15">
					<g>
						<g>
							<path id="m05023682f1_00000162343699389301917300000014878321246817774486_" class="st5" d="M57.4,58.7h-3.5"/>
						</g>
					</g>
				</g>
				<g id="text_16">
					<text transform="matrix(1 0 0 1 28.1939 62.4614)" class="st6 st7">2500</text>
				</g>
			</g>
			<g id="text_17">
				<text transform="matrix(6.123234e-17 -1 1 6.123234e-17 18.9103 247.79)" class="st6 st8">Epochs to 85% on held-out domain</text>
			</g>
		</g>
		<g id="line2d_16">
			<g>
				<defs>
					<rect id="SVGID_00000036948881820438954590000008321197508346645392_" x="57.4" y="25.4" width="507.8" height="220.6"/>
				</defs>
				<clipPath id="SVGID_00000117636342006007136940000002383760357602238375_">
					<use xlink:href="#SVGID_00000036948881820438954590000008321197508346645392_"  style="overflow:visible;"/>
				</clipPath>
				
					<path style="clip-path:url(#SVGID_00000117636342006007136940000002383760357602238375_);fill:none;stroke:#1F77B4;stroke-width:2;stroke-linecap:square;stroke-linejoin:round;" d="
					M80.5,197l23.1,6.1l23.1,8.1l23.1,6l23.1,6.2l23.1,3.3l23.1,1.1l23.1,0.7l23.1,0.6l23.1,0l23.1,0.6l23.1,0.1l23.1,0.5l23.1,0
					l23.1,0l23.1,0.1l23.1,0.6l23.1-0.4l23.1-0.1l23.1,0.4l23.1-0.2"/>
			</g>
		</g>
		<g id="line2d_17">
			<g>
				<defs>
					<rect id="SVGID_00000155826716575632837650000016932986251308706210_" x="57.4" y="25.4" width="507.8" height="220.6"/>
				</defs>
				<clipPath id="SVGID_00000011027350303881811620000013739281992312531078_">
					<use xlink:href="#SVGID_00000155826716575632837650000016932986251308706210_"  style="overflow:visible;"/>
				</clipPath>
				
					<path style="clip-path:url(#SVGID_00000011027350303881811620000013739281992312531078_);fill:none;stroke:#1F77B4;stroke-width:2;stroke-linejoin:round;stroke-dasharray:7.4,3.2;" d="
					M80.5,197l23.1,6.1l23.1,8.1l23.1,6l23.1,6.2l23.1,3.3l23.1,1.1l23.1,0.7l23.1,0.6l23.1,0l23.1,0.6l23.1,0.1l23.1,0.5l23.1,0
					l23.1,0l23.1,0.1l23.1,0.6l23.1-0.4l23.1-0.1l23.1,0.4l23.1-0.2"/>
			</g>
		</g>
		<g id="line2d_18">
			<g>
				<defs>
					<rect id="SVGID_00000034079487489684371480000003761141266675649687_" x="57.4" y="25.4" width="507.8" height="220.6"/>
				</defs>
				<clipPath id="SVGID_00000060025866075393104590000010856828534137622158_">
					<use xlink:href="#SVGID_00000034079487489684371480000003761141266675649687_"  style="overflow:visible;"/>
				</clipPath>
				
					<path style="clip-path:url(#SVGID_00000060025866075393104590000010856828534137622158_);fill:none;stroke:#FF7F0E;stroke-width:2;stroke-linecap:square;stroke-linejoin:round;" d="
					M80.5,165.2l23.1,0.5l23.1,9.9l23.1,13.3l23.1,12l23.1,7.8l23.1,2.4l23.1,0.7l23.1,0.8l23.1,1.1l23.1,0.6l23.1,0.3l23.1,0.3
					l23.1,0.6l23.1-0.1l23.1,0.2l23.1,0.2l23.1-0.1l23.1,0.2l23.1,0h23.1"/>
			</g>
		</g>
		<g id="line2d_19">
			<g>
				<defs>
					<rect id="SVGID_00000044883317164086704870000018194514600272685462_" x="57.4" y="25.4" width="507.8" height="220.6"/>
				</defs>
				<clipPath id="SVGID_00000090254498112357461590000017986294376139426478_">
					<use xlink:href="#SVGID_00000044883317164086704870000018194514600272685462_"  style="overflow:visible;"/>
				</clipPath>
				
					<path style="clip-path:url(#SVGID_00000090254498112357461590000017986294376139426478_);fill:none;stroke:#1F77B4;stroke-width:2;stroke-linejoin:round;stroke-dasharray:7.4,3.2;" d="
					M80.5,165.2l23.1,0.5l23.1,9.9l23.1,13.3l23.1,12l23.1,7.8l23.1,2.4l23.1,0.7l23.1,0.8l23.1,1.1l23.1,0.6l23.1,0.3l23.1,0.3
					l23.1,0.6l23.1-0.1l23.1,0.2l23.1,0.2l23.1-0.1l23.1,0.2l23.1,0h23.1"/>
			</g>
		</g>
		<g id="line2d_20">
			<g>
				<defs>
					<rect id="SVGID_00000056401853891078338880000010787189598725930892_" x="57.4" y="25.4" width="507.8" height="220.6"/>
				</defs>
				<clipPath id="SVGID_00000001628959220293647620000011690870534547485075_">
					<use xlink:href="#SVGID_00000056401853891078338880000010787189598725930892_"  style="overflow:visible;"/>
				</clipPath>
				
					<path style="clip-path:url(#SVGID_00000001628959220293647620000011690870534547485075_);fill:none;stroke:#FF7F0E;stroke-width:2;stroke-linecap:square;stroke-linejoin:round;" d="
					M80.5,63.8l23.1,96.1l23.1-0.4l23.1,4.7l23.1-2.5l23.1,0.6l23.1,5.3l23.1,2.9l23.1,8l23.1,10.1l23.1,7.1l23.1,9.3l23.1,6.3
					l23.1,2.6l23.1,0.3l23.1,0.6l23.1,1.3l23.1,0l23.1,0.1l23.1,0.7l23.1-1.2"/>
			</g>
		</g>
		<g id="line2d_21">
			<g>
				<defs>
					<rect id="SVGID_00000052087816066971872330000014427233901443930524_" x="57.4" y="25.4" width="507.8" height="220.6"/>
				</defs>
				<clipPath id="SVGID_00000021098308006015568050000002832498388556908948_">
					<use xlink:href="#SVGID_00000052087816066971872330000014427233901443930524_"  style="overflow:visible;"/>
				</clipPath>
				
					<path style="clip-path:url(#SVGID_00000021098308006015568050000002832498388556908948_);fill:none;stroke:#FF7F0E;stroke-width:2;stroke-linejoin:round;stroke-dasharray:7.4,3.2;" d="
					M80.5,63.8l23.1,96.1l23.1-0.4l23.1,4.7l23.1-2.5l23.1,0.6l23.1,5.3l23.1,2.9l23.1,8l23.1,10.1l23.1,7.1l23.1,9.3l23.1,6.3
					l23.1,2.6l23.1,0.3l23.1,0.6l23.1,1.3l23.1,0l23.1,0.1l23.1,0.7l23.1-1.2"/>
			</g>
		</g>
		<g id="line2d_22">
			<g>
				<defs>
					<rect id="SVGID_00000056417058176520424690000008230649842916714898_" x="57.4" y="25.4" width="507.8" height="220.6"/>
				</defs>
				<clipPath id="SVGID_00000156548866827236948540000018185315442005995197_">
					<use xlink:href="#SVGID_00000056417058176520424690000008230649842916714898_"  style="overflow:visible;"/>
				</clipPath>
				
					<path style="clip-path:url(#SVGID_00000156548866827236948540000018185315442005995197_);fill:none;stroke:#1F77B4;stroke-width:2;stroke-linecap:square;stroke-linejoin:round;" d="
					M80.5,194.2l23.1,19.1l23.1-0.8l23.1,1.1l23.1-1l23.1,0.1l23.1,1.4l23.1,1.3l23.1,2l23.1,3.6l23.1,2.9l23.1,3.8l23.1,1.5
					l23.1-0.3l23.1,1l23.1,0.8l23.1-0.4l23.1,1.1l23.1-0.2l23.1,1l23.1,0.1"/>
			</g>
		</g>
		<g id="line2d_23">
			<g>
				<defs>
					<rect id="SVGID_00000139260983380397097800000014531908434121612190_" x="57.4" y="25.4" width="507.8" height="220.6"/>
				</defs>
				<clipPath id="SVGID_00000165209091833735187800000018079199095063538847_">
					<use xlink:href="#SVGID_00000139260983380397097800000014531908434121612190_"  style="overflow:visible;"/>
				</clipPath>
				
					<path style="clip-path:url(#SVGID_00000165209091833735187800000018079199095063538847_);fill:none;stroke:#FF7F0E;stroke-width:2;stroke-linejoin:round;stroke-dasharray:7.4,3.2;" d="
					M80.5,194.2l23.1,19.1l23.1-0.8l23.1,1.1l23.1-1l23.1,0.1l23.1,1.4l23.1,1.3l23.1,2l23.1,3.6l23.1,2.9l23.1,3.8l23.1,1.5
					l23.1-0.3l23.1,1l23.1,0.8l23.1-0.4l23.1,1.1l23.1-0.2l23.1,1l23.1,0.1"/>
			</g>
		</g>
		<g id="line2d_24">
			<g>
				<defs>
					<rect id="SVGID_00000011003830779309563770000008003396494914304934_" x="57.4" y="25.4" width="507.8" height="220.6"/>
				</defs>
				<clipPath id="SVGID_00000041277714780591645590000018221253391796242367_">
					<use xlink:href="#SVGID_00000011003830779309563770000008003396494914304934_"  style="overflow:visible;"/>
				</clipPath>
				
					<path style="clip-path:url(#SVGID_00000041277714780591645590000018221253391796242367_);fill:none;stroke:#000000;stroke-width:0.5;stroke-linejoin:round;stroke-dasharray:1.85,0.8;" d="
					M149.8,246V25.4"/>
			</g>
		</g>
		<g id="line2d_25">
			<g>
				<defs>
					<rect id="SVGID_00000164503000429815444060000015618063253970688951_" x="57.4" y="25.4" width="507.8" height="220.6"/>
				</defs>
				<clipPath id="SVGID_00000171696073874986995400000015714740416032387002_">
					<use xlink:href="#SVGID_00000164503000429815444060000015618063253970688951_"  style="overflow:visible;"/>
				</clipPath>
				
					<path style="clip-path:url(#SVGID_00000171696073874986995400000015714740416032387002_);fill:none;stroke:#000000;stroke-width:0.5;stroke-linejoin:round;stroke-dasharray:1.85,0.8;" d="
					M172.8,246V25.4"/>
			</g>
		</g>
		<g id="line2d_26">
			<g>
				<defs>
					<rect id="SVGID_00000183217415983584988970000011037674701484438200_" x="57.4" y="25.4" width="507.8" height="220.6"/>
				</defs>
				<clipPath id="SVGID_00000013893014081713841670000002084602729397174431_">
					<use xlink:href="#SVGID_00000183217415983584988970000011037674701484438200_"  style="overflow:visible;"/>
				</clipPath>
				
					<path style="clip-path:url(#SVGID_00000013893014081713841670000002084602729397174431_);fill:none;stroke:#000000;stroke-width:0.5;stroke-linejoin:round;stroke-dasharray:1.85,0.8;" d="
					M311.3,246V25.4"/>
			</g>
		</g>
		<g id="line2d_27">
			<g>
				<defs>
					<rect id="SVGID_00000150095267638555560920000004173026192648765617_" x="57.4" y="25.4" width="507.8" height="220.6"/>
				</defs>
				<clipPath id="SVGID_00000055674314337180039650000014542458958341925538_">
					<use xlink:href="#SVGID_00000150095267638555560920000004173026192648765617_"  style="overflow:visible;"/>
				</clipPath>
				
					<path style="clip-path:url(#SVGID_00000055674314337180039650000014542458958341925538_);fill:none;stroke:#000000;stroke-width:0.5;stroke-linejoin:round;stroke-dasharray:1.85,0.8;" d="
					M449.8,246V25.4"/>
			</g>
		</g>
		<g id="patch_3">
			<path class="st21" d="M57.4,246V25.4"/>
		</g>
		<g id="patch_4">
			<path class="st21" d="M565.2,246V25.4"/>
		</g>
		<g id="patch_5">
			<path class="st21" d="M57.4,246h507.8"/>
		</g>
		<g id="patch_6">
			<path class="st21" d="M57.4,25.4h507.8"/>
		</g>
		<g id="text_18">
			<text transform="matrix(1 0 0 1 109.2578 19.44)" class="st6 st22">Shapes network generalization tests (no contexts)</text>
		</g>
		<g id="legend_1">
			<g id="patch_7">
				<path class="st23" d="M413.1,92.2h145.1c1.3,0,2-0.7,2-2V32.4c0-1.3-0.7-2-2-2H413.1c-1.3,0-2,0.7-2,2v57.7
					C411.1,91.5,411.8,92.2,413.1,92.2z"/>
			</g>
			<g id="line2d_28">
				<path class="st24" d="M415.1,38.5h10h10"/>
			</g>
			<g id="line2d_29">
				<path class="st25" d="M415.1,38.5h10h10"/>
			</g>
			<g id="text_19">
				<text transform="matrix(1 0 0 1 443.1422 42.0385)" class="st6 st7">Hierarchy to Hierarchy</text>
			</g>
			<g id="line2d_30">
				<path class="st26" d="M415.1,53.2h10h10"/>
			</g>
			<g id="line2d_31">
				<path class="st25" d="M415.1,53.2h10h10"/>
			</g>
			<g id="text_20">
				<text transform="matrix(1 0 0 1 443.1422 56.7166)" class="st6 st7">Hierarchy to Ring</text>
			</g>
			<g id="line2d_32">
				<path class="st26" d="M415.1,67.9h10h10"/>
			</g>
			<g id="line2d_33">
				<path class="st27" d="M415.1,67.9h10h10"/>
			</g>
			<g id="text_21">
				<text transform="matrix(1 0 0 1 443.1422 71.3947)" class="st6 st7">Ring to Ring</text>
			</g>
			<g id="line2d_34">
				<path class="st24" d="M415.1,82.6h10h10"/>
			</g>
			<g id="line2d_35">
				<path class="st27" d="M415.1,82.6h10h10"/>
			</g>
			<g id="text_22">
				<text transform="matrix(1 0 0 1 443.1422 86.0728)" class="st6 st7">Ring to Hierarchy</text>
			</g>
		</g>
	</g>
</g>
</svg>
