<?xml version="1.0" encoding="utf-8"?>
<!-- Generator: Adobe Illustrator 26.0.3, SVG Export Plug-In . SVG Version: 6.00 Build 0)  -->
<svg version="1.1" id="Layer_1" xmlns="http://www.w3.org/2000/svg" xmlns:xlink="http://www.w3.org/1999/xlink" x="0px" y="0px"
	 viewBox="0 0 576 288" style="enable-background:new 0 0 576 288;" xml:space="preserve">
<style type="text/css">
	.st0{fill:#FFFFFF;}
	.st1{clip-path:url(#SVGID_00000034811647697188001660000017720638317924594613_);fill:#1F77B4;fill-opacity:0.3;}
	.st2{clip-path:url(#SVGID_00000017518678819477094500000001014721071182663579_);fill:#FF7F0E;fill-opacity:0.3;}
	.st3{clip-path:url(#SVGID_00000000907107970066300050000001578529477731322274_);fill:#FF7F0E;fill-opacity:0.3;}
	.st4{clip-path:url(#SVGID_00000104700735615044033010000000405007195348968861_);fill:#1F77B4;fill-opacity:0.3;}
	.st5{stroke:#000000;stroke-width:0.8;stroke-linejoin:round;}
	.st6{font-family:'ArialMT';}
	.st7{font-size:10px;}
	.st8{font-size:12px;}
	
		.st9{clip-path:url(#SVGID_00000038385024902332194200000011633158981453889666_);fill:none;stroke:#1F77B4;stroke-width:2;stroke-linecap:square;stroke-linejoin:round;}
	
		.st10{clip-path:url(#SVGID_00000052818292749649416510000005333953388342319003_);fill:none;stroke:#1F77B4;stroke-width:2;stroke-linejoin:round;stroke-dasharray:7.4,3.2;}
	
		.st11{clip-path:url(#SVGID_00000103232317315703835980000006446232997884214144_);fill:none;stroke:#FF7F0E;stroke-width:2;stroke-linecap:square;stroke-linejoin:round;}
	
		.st12{clip-path:url(#SVGID_00000011005718165779192030000016273543346054085554_);fill:none;stroke:#1F77B4;stroke-width:2;stroke-linejoin:round;stroke-dasharray:7.4,3.2;}
	
		.st13{clip-path:url(#SVGID_00000058559672865835336340000011792214351238583997_);fill:none;stroke:#FF7F0E;stroke-width:2;stroke-linecap:square;stroke-linejoin:round;}
	
		.st14{clip-path:url(#SVGID_00000178168561144171330490000005297647190905858454_);fill:none;stroke:#FF7F0E;stroke-width:2;stroke-linejoin:round;stroke-dasharray:7.4,3.2;}
	
		.st15{clip-path:url(#SVGID_00000152947869249189983170000010542257115608885137_);fill:none;stroke:#1F77B4;stroke-width:2;stroke-linecap:square;stroke-linejoin:round;}
	
		.st16{clip-path:url(#SVGID_00000132780352038443477100000010465943014617830784_);fill:none;stroke:#FF7F0E;stroke-width:2;stroke-linejoin:round;stroke-dasharray:7.4,3.2;}
	.st17{fill:none;stroke:#000000;stroke-width:0.8;stroke-linecap:square;}
	.st18{font-size:15px;}
	.st19{opacity:0.8;fill:#FFFFFF;stroke:#CCCCCC;enable-background:new    ;}
	.st20{fill:none;stroke:#1F77B4;stroke-width:2;stroke-linecap:square;stroke-linejoin:round;}
	.st21{fill:none;stroke:#1F77B4;stroke-width:2;stroke-linejoin:round;stroke-dasharray:7.4,3.2;}
	.st22{fill:none;stroke:#FF7F0E;stroke-width:2;stroke-linecap:square;stroke-linejoin:round;}
	.st23{fill:none;stroke:#FF7F0E;stroke-width:2;stroke-linejoin:round;stroke-dasharray:7.4,3.2;}
</style>
<g id="figure_1">
	<g id="patch_1">
		<path class="st0" d="M0,288h576V0H0V288z"/>
	</g>
	<g id="axes_1">
		<g id="patch_2">
			<path class="st0" d="M57.4,246h507.8V25.4H57.4V246z"/>
		</g>
		<g id="PolyCollection_1">
			<g>
				<defs>
					<rect id="SVGID_1_" x="57.4" y="25.4" width="507.8" height="220.6"/>
				</defs>
				<clipPath id="SVGID_00000118394931565066209490000016289498965018443955_">
					<use xlink:href="#SVGID_1_"  style="overflow:visible;"/>
				</clipPath>
				<path style="clip-path:url(#SVGID_00000118394931565066209490000016289498965018443955_);fill:#1F77B4;fill-opacity:0.3;" d="
					M80.5,193.9v6.8l15.4,14.5l15.4,12.4l15.4,3.9l15.4,0.3l15.4,0.7l15.4,1.1l15.4,0.5l15.4-1.1l15.4,0.6l15.4,0.6l15.4,0l15.4-0.5
					l15.4,0l15.4-0.3l15.4,0.9l15.4,0.2l15.4-0.6l15.4,0l15.4,1.2l15.4,0.1l15.4-0.1l15.4-1l15.4,1l15.4-0.3l15.4-1l15.4,1.1
					L496,235l15.4-0.8l15.4,1.2l15.4-0.9v-8.8l0,0l-15.4,0.7l-15.4-0.1l-15.4,1.3l-15.4-0.8l-15.4,1.1l-15.4-1.4l-15.4,0.8
					l-15.4-1.1l-15.4,2.6l-15.4-3.7l-15.4-0.1l-15.4-0.8l-15.4-2.2l-15.4,4.5l-15.4-1.6l-15.4,2.1l-15.4-0.3l-15.4,0.4l-15.4-3.3
					l-15.4,0.2l-15.4,1.9l-15.4,0.8l-15.4-2.4l-15.4,1.6l-15.4,0.4l-15.4-0.4l-15.4-1.7l-15.4-3.6l-15.4-14.6L80.5,193.9z"/>
			</g>
		</g>
		<g id="PolyCollection_2">
		</g>
		<g id="PolyCollection_3">
			<g>
				<defs>
					<rect id="SVGID_00000007402300411997388780000015342998906762290560_" x="57.4" y="25.4" width="507.8" height="220.6"/>
				</defs>
				<clipPath id="SVGID_00000160187532834267421610000006276196493254311355_">
					<use xlink:href="#SVGID_00000007402300411997388780000015342998906762290560_"  style="overflow:visible;"/>
				</clipPath>
				<path style="clip-path:url(#SVGID_00000160187532834267421610000006276196493254311355_);fill:#FF7F0E;fill-opacity:0.3;" d="
					M80.5,157.2v18.2l15.4,11.6l15.4,17l15.4,8.9l15.4,1.7l15.4,1.5l15.4,0.6l15.4-0.3l15.4,0.3l15.4,0.3l15.4,0.7l15.4,0.5
					l15.4-0.1l15.4,1.4l15.4-1.9l15.4,0.5l15.4,0.5l15.4-0.1l15.4,0.2l15.4,0.8l15.4-0.6l15.4,0.5l15.4,0l15.4,1.9l15.4-2.2l15.4,0
					l15.4,0.8l15.4,0.3l15.4,0.3l15.4,0l15.4,0.1v-8.5l0,0l-15.4-0.6l-15.4-0.8l-15.4-1l-15.4,1.1l-15.4-0.8l-15.4-0.4l-15.4,2.7
					L419,210l-15.4,0.4l-15.4-0.7l-15.4,0.2l-15.4-2.7l-15.4,2.5l-15.4-1.8l-15.4,1.9l-15.4-0.9l-15.4-0.7l-15.4,1.4l-15.4-0.9
					l-15.4,1L219,210l-15.4-0.9l-15.4,0.7l-15.4,1.7l-15.4-2.9l-15.4-3.4l-15.4,3.3l-15.4-14.2l-15.4-22.6L80.5,157.2z"/>
			</g>
		</g>
		<g id="PolyCollection_4">
		</g>
		<g id="PolyCollection_5">
			<g>
				<defs>
					<rect id="SVGID_00000133497569106255164820000006041504415704481695_" x="57.4" y="25.4" width="507.8" height="220.6"/>
				</defs>
				<clipPath id="SVGID_00000164504190794053873790000018332019283757965735_">
					<use xlink:href="#SVGID_00000133497569106255164820000006041504415704481695_"  style="overflow:visible;"/>
				</clipPath>
				<path style="clip-path:url(#SVGID_00000164504190794053873790000018332019283757965735_);fill:#FF7F0E;fill-opacity:0.3;" d="
					M80.5,35.5v50.7l15.4,78.7l15.4,8.3l15.4,1.3l15.4,21l15.4,12.6l15.4,4.2l15.4,3.1l15.4,2.3l15.4,1.4l15.4-0.9l15.4,0.6
					l15.4,1.3l15.4-0.3l15.4-0.3l15.4,0l15.4,0.1l15.4,1.5l15.4-0.7l15.4,0.7l15.4,0.1l15.4-0.5l15.4,0.4l15.4-0.2l15.4-0.2l15.4,1
					l15.4-0.6l15.4,0.5l15.4-0.6l15.4,0l15.4,0.1v-3.4l0,0l-15.4-0.7l-15.4,2.1l-15.4-2l-15.4,1.3l-15.4-1.4l-15.4,1.1l-15.4-1
					l-15.4,0.9l-15.4,0.2l-15.4-0.2l-15.4-1.7l-15.4,1.5l-15.4,0.4l-15.4-1.2l-15.4,0.3l-15.4-1l-15.4,0.1l-15.4,0.2l-15.4,0
					l-15.4-3l-15.4,3l-15.4-4.2l-15.4-2.5l-15.4-6.5l-15.4-19.4l-15.4-15.7l-15.4-17.2l-15.4-5.3l-15.4,11.4L80.5,35.5z"/>
			</g>
		</g>
		<g id="PolyCollection_6">
		</g>
		<g id="PolyCollection_7">
			<g>
				<defs>
					<rect id="SVGID_00000120540180094210430480000004046320185394625441_" x="57.4" y="25.4" width="507.8" height="220.6"/>
				</defs>
				<clipPath id="SVGID_00000130626215235298829850000011013726127937953204_">
					<use xlink:href="#SVGID_00000120540180094210430480000004046320185394625441_"  style="overflow:visible;"/>
				</clipPath>
				<path style="clip-path:url(#SVGID_00000130626215235298829850000011013726127937953204_);fill:#1F77B4;fill-opacity:0.3;" d="
					M80.5,177.9v18.8l15.4,19.5l15.4,0.2l15.4,3.3l15.4,6.1l15.4,2.9l15.4,2.8l15.4,0.6l15.4,1.4l15.4-0.2l15.4-0.1l15.4,0.2
					l15.4,0.4l15.4-0.1l15.4,1.1l15.4-1.2l15.4-0.1l15.4,0.6l15.4-0.5l15.4,1.1l15.4-0.8l15.4,0.7L419,233l15.4,0.9l15.4-1.8
					l15.4,2.8l15.4,0.1l15.4-1l15.4,0.5l15.4-0.8l15.4,2.2v-6.8l0,0l-15.4-0.9l-15.4,2.2l-15.4-2.7l-15.4,1.6l-15.4,1.8l-15.4-5.4
					l-15.4,0.2L419,229l-15.4,1.8l-15.4-3.7l-15.4,1.8l-15.4-1.7l-15.4,0.7l-15.4,1.8l-15.4-1.5l-15.4,0.9l-15.4-2.2l-15.4,2.3
					l-15.4-0.9l-15.4-0.2l-15.4-0.5l-15.4-1l-15.4-4l-15.4-3.9l-15.4-3.8l-15.4-3.9l-15.4-2.4l-15.4-2l-15.4-0.9L80.5,177.9z"/>
			</g>
		</g>
		<g id="PolyCollection_8">
		</g>
		<g id="matplotlib.axis_1">
			<g id="xtick_1">
				<g id="line2d_1">
					<g>
						<g>
							<path id="madd05dec45" class="st5" d="M80.5,246v3.5"/>
						</g>
					</g>
				</g>
				<g id="text_1">
					<text transform="matrix(1 0 0 1 77.7392 260.6384)" class="st6 st7">0</text>
				</g>
			</g>
			<g id="xtick_2">
				<g id="line2d_2">
					<g>
						<g>
							<path id="madd05dec45_00000011750229419832265750000014926012712350156707_" class="st5" d="M157.5,246v3.5"/>
						</g>
					</g>
				</g>
				<g id="text_2">
					<text transform="matrix(1 0 0 1 146.3303 260.6384)" class="st6 st7">1000</text>
				</g>
			</g>
			<g id="xtick_3">
				<g id="line2d_3">
					<g>
						<g>
							<path id="madd05dec45_00000171702150935464324600000017496250635368436899_" class="st5" d="M234.4,246v3.5"/>
						</g>
					</g>
				</g>
				<g id="text_3">
					<text transform="matrix(1 0 0 1 223.2636 260.6384)" class="st6 st7">2000</text>
				</g>
			</g>
			<g id="xtick_4">
				<g id="line2d_4">
					<g>
						<g>
							<path id="madd05dec45_00000060730108517829938330000008159155138464071083_" class="st5" d="M311.3,246v3.5"/>
						</g>
					</g>
				</g>
				<g id="text_4">
					<text transform="matrix(1 0 0 1 300.197 260.6384)" class="st6 st7">3000</text>
				</g>
			</g>
			<g id="xtick_5">
				<g id="line2d_5">
					<g>
						<g>
							<path id="madd05dec45_00000084496441687812222920000008715183038946452617_" class="st5" d="M388.3,246v3.5"/>
						</g>
					</g>
				</g>
				<g id="text_5">
					<text transform="matrix(1 0 0 1 377.1302 260.6384)" class="st6 st7">4000</text>
				</g>
			</g>
			<g id="xtick_6">
				<g id="line2d_6">
					<g>
						<g>
							<path id="madd05dec45_00000154403584011706453450000015833981514488411570_" class="st5" d="M465.2,246v3.5"/>
						</g>
					</g>
				</g>
				<g id="text_6">
					<text transform="matrix(1 0 0 1 454.0636 260.6384)" class="st6 st7">5000</text>
				</g>
			</g>
			<g id="xtick_7">
				<g id="line2d_7">
					<g>
						<g>
							<path id="madd05dec45_00000163070873508109144030000005032120066686217146_" class="st5" d="M542.1,246v3.5"/>
						</g>
					</g>
				</g>
				<g id="text_7">
					<text transform="matrix(1 0 0 1 530.9969 260.6384)" class="st6 st7">6000</text>
				</g>
			</g>
			<g id="text_8">
				<text transform="matrix(1 0 0 1 229.28 278.3166)" class="st6 st8">Epochs training first 2 domains</text>
			</g>
		</g>
		<g id="matplotlib.axis_2">
			<g id="ytick_1">
				<g id="line2d_8">
					<g>
						<g>
							<path id="mb4de638254" class="st5" d="M57.4,242.9h-3.5"/>
						</g>
					</g>
				</g>
				<g id="text_9">
					<text transform="matrix(1 0 0 1 44.8785 246.6722)" class="st6 st7">0</text>
				</g>
			</g>
			<g id="ytick_2">
				<g id="line2d_9">
					<g>
						<g>
							<path id="mb4de638254_00000088814412560150993260000014981891735468466874_" class="st5" d="M57.4,206.8h-3.5"/>
						</g>
					</g>
				</g>
				<g id="text_10">
					<text transform="matrix(1 0 0 1 33.7554 210.5892)" class="st6 st7">500</text>
				</g>
			</g>
			<g id="ytick_3">
				<g id="line2d_10">
					<g>
						<g>
							<path id="mb4de638254_00000163072931399491996840000007475556366567581105_" class="st5" d="M57.4,170.7h-3.5"/>
						</g>
					</g>
				</g>
				<g id="text_11">
					<text transform="matrix(1 0 0 1 28.1939 174.5062)" class="st6 st7">1000</text>
				</g>
			</g>
			<g id="ytick_4">
				<g id="line2d_11">
					<g>
						<g>
							<path id="mb4de638254_00000081644965447047097640000000719730771632262812_" class="st5" d="M57.4,134.6h-3.5"/>
						</g>
					</g>
				</g>
				<g id="text_12">
					<text transform="matrix(1 0 0 1 28.1939 138.4232)" class="st6 st7">1500</text>
				</g>
			</g>
			<g id="ytick_5">
				<g id="line2d_12">
					<g>
						<g>
							<path id="mb4de638254_00000181077125984161082200000001254536596480978840_" class="st5" d="M57.4,98.5h-3.5"/>
						</g>
					</g>
				</g>
				<g id="text_13">
					<text transform="matrix(1 0 0 1 28.1939 102.3402)" class="st6 st7">2000</text>
				</g>
			</g>
			<g id="ytick_6">
				<g id="line2d_13">
					<g>
						<g>
							<path id="mb4de638254_00000134214653499091690200000003574743346388775573_" class="st5" d="M57.4,62.5h-3.5"/>
						</g>
					</g>
				</g>
				<g id="text_14">
					<text transform="matrix(1 0 0 1 28.1939 66.2572)" class="st6 st7">2500</text>
				</g>
			</g>
			<g id="ytick_7">
				<g id="line2d_14">
					<g>
						<g>
							<path id="mb4de638254_00000154419309079048914530000012763933673086743187_" class="st5" d="M57.4,26.4h-3.5"/>
						</g>
					</g>
				</g>
				<g id="text_15">
					<text transform="matrix(1 0 0 1 28.1939 30.1742)" class="st6 st7">3000</text>
				</g>
			</g>
			<g id="text_16">
				<text transform="matrix(6.123234e-17 -1 1 6.123234e-17 15.9103 229.1514)" class="st6 st8">Epochs to 85% on held-out domain</text>
			</g>
		</g>
		<g id="line2d_15">
			<g>
				<defs>
					<rect id="SVGID_00000128484002398276315500000008072968093304226740_" x="57.4" y="25.4" width="507.8" height="220.6"/>
				</defs>
				<clipPath id="SVGID_00000155849379868120549660000015357772814621387155_">
					<use xlink:href="#SVGID_00000128484002398276315500000008072968093304226740_"  style="overflow:visible;"/>
				</clipPath>
				
					<path style="clip-path:url(#SVGID_00000155849379868120549660000015357772814621387155_);fill:none;stroke:#1F77B4;stroke-width:2;stroke-linecap:square;stroke-linejoin:round;" d="
					M80.5,197.3l15.4,13.1l15.4,13.5l15.4,3.8l15.4,1l15.4,0.6l15.4,0.3l15.4-0.5l15.4,0.6l15.4-0.1l15.4-0.7l15.4-0.1l15.4,1.4
					l15.4-0.2l15.4,0l15.4-0.6l15.4,0.9l15.4-2.6l15.4,1.1l15.4,1l15.4,0.1l15.4,1.8l15.4-1.8l15.4,1.1l15.4-0.6l15.4,0.2l15.4,0
					l15.4,0.6l15.4-1l15.4,0.7l15.4-0.8"/>
			</g>
		</g>
		<g id="line2d_16">
			<g>
				<defs>
					<rect id="SVGID_00000119115188441944491390000011979622490930925725_" x="57.4" y="25.4" width="507.8" height="220.6"/>
				</defs>
				<clipPath id="SVGID_00000103986666280073556110000013119321279816199850_">
					<use xlink:href="#SVGID_00000119115188441944491390000011979622490930925725_"  style="overflow:visible;"/>
				</clipPath>
				
					<path style="clip-path:url(#SVGID_00000103986666280073556110000013119321279816199850_);fill:none;stroke:#1F77B4;stroke-width:2;stroke-linejoin:round;stroke-dasharray:7.4,3.2;" d="
					M80.5,197.3l15.4,13.1l15.4,13.5l15.4,3.8l15.4,1l15.4,0.6l15.4,0.3l15.4-0.5l15.4,0.6l15.4-0.1l15.4-0.7l15.4-0.1l15.4,1.4
					l15.4-0.2l15.4,0l15.4-0.6l15.4,0.9l15.4-2.6l15.4,1.1l15.4,1l15.4,0.1l15.4,1.8l15.4-1.8l15.4,1.1l15.4-0.6l15.4,0.2l15.4,0
					l15.4,0.6l15.4-1l15.4,0.7l15.4-0.8"/>
			</g>
		</g>
		<g id="line2d_17">
			<g>
				<defs>
					<rect id="SVGID_00000070088875387054441530000001998038532794827956_" x="57.4" y="25.4" width="507.8" height="220.6"/>
				</defs>
				<clipPath id="SVGID_00000075160720121154132740000000122784700143847309_">
					<use xlink:href="#SVGID_00000070088875387054441530000001998038532794827956_"  style="overflow:visible;"/>
				</clipPath>
				
					<path style="clip-path:url(#SVGID_00000075160720121154132740000000122784700143847309_);fill:none;stroke:#FF7F0E;stroke-width:2;stroke-linecap:square;stroke-linejoin:round;" d="
					M80.5,166.3l15.4,13l15.4,19.8l15.4,11.6l15.4-0.8l15.4,2.4l15.4,1.7l15.4-1l15.4-0.2l15.4,0.6l15.4,0.3l15.4-0.3l15.4,0.4
					l15.4,0l15.4-0.6l15.4,0.7l15.4-0.7l15.4,0.8l15.4-1.1l15.4,1.7l15.4-0.4l15.4,0.6l15.4-0.2l15.4,2l15.4-2.5l15.4,0.2l15.4,0.8
					l15.4-0.4l15.4,0.6l15.4,0.4l15.4,0.3"/>
			</g>
		</g>
		<g id="line2d_18">
			<g>
				<defs>
					<rect id="SVGID_00000098202071718659462520000005352059059238255775_" x="57.4" y="25.4" width="507.8" height="220.6"/>
				</defs>
				<clipPath id="SVGID_00000165921597201654009860000008469907889644041088_">
					<use xlink:href="#SVGID_00000098202071718659462520000005352059059238255775_"  style="overflow:visible;"/>
				</clipPath>
				
					<path style="clip-path:url(#SVGID_00000165921597201654009860000008469907889644041088_);fill:none;stroke:#1F77B4;stroke-width:2;stroke-linejoin:round;stroke-dasharray:7.4,3.2;" d="
					M80.5,166.3l15.4,13l15.4,19.8l15.4,11.6l15.4-0.8l15.4,2.4l15.4,1.7l15.4-1l15.4-0.2l15.4,0.6l15.4,0.3l15.4-0.3l15.4,0.4
					l15.4,0l15.4-0.6l15.4,0.7l15.4-0.7l15.4,0.8l15.4-1.1l15.4,1.7l15.4-0.4l15.4,0.6l15.4-0.2l15.4,2l15.4-2.5l15.4,0.2l15.4,0.8
					l15.4-0.4l15.4,0.6l15.4,0.4l15.4,0.3"/>
			</g>
		</g>
		<g id="line2d_19">
			<g>
				<defs>
					<rect id="SVGID_00000085964372589969381990000008910842915994926469_" x="57.4" y="25.4" width="507.8" height="220.6"/>
				</defs>
				<clipPath id="SVGID_00000003806707747684398070000015279143549721209750_">
					<use xlink:href="#SVGID_00000085964372589969381990000008910842915994926469_"  style="overflow:visible;"/>
				</clipPath>
				
					<path style="clip-path:url(#SVGID_00000003806707747684398070000015279143549721209750_);fill:none;stroke:#FF7F0E;stroke-width:2;stroke-linecap:square;stroke-linejoin:round;" d="
					M80.5,60.8l15.4,100.1l15.4-1.6l15.4,3.3l15.4,19.1l15.4,14.2l15.4,11.8l15.4,4.8l15.4,2.4l15.4,2.8l15.4-2l15.4,1.8l15.4,0.6
					l15.4-0.2l15.4-0.2l15.4,0.5l15.4-0.1l15.4,1.3l15.4-0.5l15.4-0.4l15.4,0.9l15.4-0.2l15.4,0.1l15.4-0.5l15.4,0.4l15.4,0
					l15.4,0.4l15.4-0.4l15.4,0.7l15.4-1.1l15.4,0.4"/>
			</g>
		</g>
		<g id="line2d_20">
			<g>
				<defs>
					<rect id="SVGID_00000081607142857247551730000005459261730607708054_" x="57.4" y="25.4" width="507.8" height="220.6"/>
				</defs>
				<clipPath id="SVGID_00000029745128547280976970000010418137073493083800_">
					<use xlink:href="#SVGID_00000081607142857247551730000005459261730607708054_"  style="overflow:visible;"/>
				</clipPath>
				
					<path style="clip-path:url(#SVGID_00000029745128547280976970000010418137073493083800_);fill:none;stroke:#FF7F0E;stroke-width:2;stroke-linejoin:round;stroke-dasharray:7.4,3.2;" d="
					M80.5,60.8l15.4,100.1l15.4-1.6l15.4,3.3l15.4,19.1l15.4,14.2l15.4,11.8l15.4,4.8l15.4,2.4l15.4,2.8l15.4-2l15.4,1.8l15.4,0.6
					l15.4-0.2l15.4-0.2l15.4,0.5l15.4-0.1l15.4,1.3l15.4-0.5l15.4-0.4l15.4,0.9l15.4-0.2l15.4,0.1l15.4-0.5l15.4,0.4l15.4,0
					l15.4,0.4l15.4-0.4l15.4,0.7l15.4-1.1l15.4,0.4"/>
			</g>
		</g>
		<g id="line2d_21">
			<g>
				<defs>
					<rect id="SVGID_00000067923236171318299820000004180390945479804586_" x="57.4" y="25.4" width="507.8" height="220.6"/>
				</defs>
				<clipPath id="SVGID_00000075120918744169862300000018363220535108392624_">
					<use xlink:href="#SVGID_00000067923236171318299820000004180390945479804586_"  style="overflow:visible;"/>
				</clipPath>
				
					<path style="clip-path:url(#SVGID_00000075120918744169862300000018363220535108392624_);fill:none;stroke:#1F77B4;stroke-width:2;stroke-linecap:square;stroke-linejoin:round;" d="
					M80.5,187.3l15.4,23.5l15.4,0.5l15.4,2.7l15.4,4.2l15.4,3.4l15.4,3.3l15.4,2.3l15.4,2.7l15.4,0.4l15.4,0.2l15.4,0.2l15.4,0.6
					l15.4-1.2l15.4,1.6l15.4-1l15.4,0.7l15.4-0.6l15.4-0.6l15.4,1.4l15.4-1.3l15.4,2.2L419,231l15.4-1l15.4-1l15.4,4.1l15.4-0.8
					L496,231l15.4,1.6l15.4-1.5l15.4,1.5"/>
			</g>
		</g>
		<g id="line2d_22">
			<g>
				<defs>
					<rect id="SVGID_00000005252757398769492750000006738849821945052043_" x="57.4" y="25.4" width="507.8" height="220.6"/>
				</defs>
				<clipPath id="SVGID_00000088852215755548146590000000459106656547073188_">
					<use xlink:href="#SVGID_00000005252757398769492750000006738849821945052043_"  style="overflow:visible;"/>
				</clipPath>
				
					<path style="clip-path:url(#SVGID_00000088852215755548146590000000459106656547073188_);fill:none;stroke:#FF7F0E;stroke-width:2;stroke-linejoin:round;stroke-dasharray:7.4,3.2;" d="
					M80.5,187.3l15.4,23.5l15.4,0.5l15.4,2.7l15.4,4.2l15.4,3.4l15.4,3.3l15.4,2.3l15.4,2.7l15.4,0.4l15.4,0.2l15.4,0.2l15.4,0.6
					l15.4-1.2l15.4,1.6l15.4-1l15.4,0.7l15.4-0.6l15.4-0.6l15.4,1.4l15.4-1.3l15.4,2.2L419,231l15.4-1l15.4-1l15.4,4.1l15.4-0.8
					L496,231l15.4,1.6l15.4-1.5l15.4,1.5"/>
			</g>
		</g>
		<g id="patch_3">
			<path class="st17" d="M57.4,246V25.4"/>
		</g>
		<g id="patch_4">
			<path class="st17" d="M565.2,246V25.4"/>
		</g>
		<g id="patch_5">
			<path class="st17" d="M57.4,246h507.8"/>
		</g>
		<g id="patch_6">
			<path class="st17" d="M57.4,25.4h507.8"/>
		</g>
		<g id="text_17">
			<text transform="matrix(1 0 0 1 190.8326 19.44)" class="st6 st18">Shapes network generalization tests</text>
		</g>
		<g id="legend_1">
			<g id="patch_7">
				<path class="st19" d="M423.7,92.2h133.8c1.8,0,2.7-0.7,2.7-2V32.4c0-1.3-0.9-2-2.7-2H423.7c-1.8,0-2.7,0.7-2.7,2v57.7
					C421,91.5,421.9,92.2,423.7,92.2z"/>
			</g>
			<g id="line2d_23">
				<path class="st20" d="M428.8,38.5h10h10"/>
			</g>
			<g id="line2d_24">
				<path class="st21" d="M428.8,38.5h10h10"/>
			</g>
			<g id="text_18">
				<text transform="matrix(1 0 0 1 456.7039 42.0385)" class="st6 st7">Hierarchy to Hierarchy</text>
			</g>
			<g id="line2d_25">
				<path class="st22" d="M428.8,53.2h10h10"/>
			</g>
			<g id="line2d_26">
				<path class="st21" d="M428.8,53.2h10h10"/>
			</g>
			<g id="text_19">
				<text transform="matrix(1 0 0 1 456.7039 56.7166)" class="st6 st7">Hierarchy to Ring</text>
			</g>
			<g id="line2d_27">
				<path class="st22" d="M428.8,67.9h10h10"/>
			</g>
			<g id="line2d_28">
				<path class="st23" d="M428.8,67.9h10h10"/>
			</g>
			<g id="text_20">
				<text transform="matrix(1 0 0 1 456.7039 71.3947)" class="st6 st7">        Ring to Ring</text>
			</g>
			<g id="line2d_29">
				<path class="st20" d="M428.8,82.6h10h10"/>
			</g>
			<g id="line2d_30">
				<path class="st23" d="M428.8,82.6h10h10"/>
			</g>
			<g id="text_21">
				<text transform="matrix(1 0 0 1 456.7039 86.0728)" class="st6 st7">        Ring to Hierarchy</text>
			</g>
		</g>
	</g>
</g>
</svg>
