<?xml version="1.0" encoding="utf-8" standalone="no"?>
<!DOCTYPE svg PUBLIC "-//W3C//DTD SVG 1.1//EN"
  "http://www.w3.org/Graphics/SVG/1.1/DTD/svg11.dtd">
<svg xmlns:xlink="http://www.w3.org/1999/xlink" width="504pt" height="432pt" viewBox="0 0 504 432" xmlns="http://www.w3.org/2000/svg" version="1.1">
 <metadata>
  <rdf:RDF xmlns:dc="http://purl.org/dc/elements/1.1/" xmlns:cc="http://creativecommons.org/ns#" xmlns:rdf="http://www.w3.org/1999/02/22-rdf-syntax-ns#">
   <cc:Work>
    <dc:type rdf:resource="http://purl.org/dc/dcmitype/StillImage"/>
    <dc:date>2022-05-17T15:19:23.144214</dc:date>
    <dc:format>image/svg+xml</dc:format>
    <dc:creator>
     <cc:Agent>
      <dc:title>Matplotlib v3.5.1, https://matplotlib.org/</dc:title>
     </cc:Agent>
    </dc:creator>
   </cc:Work>
  </rdf:RDF>
 </metadata>
 <defs>
  <style type="text/css">*{stroke-linejoin: round; stroke-linecap: butt}</style>
 </defs>
 <g id="figure_1">
  <g id="patch_1">
   <path d="M 0 432 
L 504 432 
L 504 0 
L 0 0 
z
" style="fill: #ffffff"/>
  </g>
  <g id="axes_1">
   <g id="patch_2">
    <path d="M 36.025209 179.44 
L 493.2 179.44 
L 493.2 27.6 
L 36.025209 27.6 
z
" style="fill: #ffffff"/>
   </g>
   <g id="PolyCollection_1">
    <path d="M 36.025209 34.501818 
L 36.025209 34.508645 
L 46.910323 78.390451 
L 57.795437 79.313167 
L 68.680551 79.660309 
L 79.565665 79.858888 
L 90.45078 79.993551 
L 101.335894 80.153669 
L 112.221008 82.213694 
L 123.106122 88.438574 
L 133.991236 93.575997 
L 144.87635 102.548679 
L 155.761464 110.130294 
L 166.646578 114.2278 
L 177.531692 117.605258 
L 188.416806 120.545633 
L 199.30192 123.121629 
L 210.187034 125.611992 
L 221.072148 127.821185 
L 231.957262 129.769026 
L 242.842376 131.523647 
L 253.727491 133.149381 
L 264.612605 134.657667 
L 275.497719 136.092346 
L 286.382833 137.455993 
L 297.267947 138.765345 
L 308.153061 140.030018 
L 319.038175 141.260373 
L 329.923289 142.464192 
L 340.808403 143.651709 
L 351.693517 144.830194 
L 362.578631 145.990597 
L 373.463745 147.112353 
L 384.348859 148.193858 
L 395.233973 149.236897 
L 406.119087 150.249984 
L 417.004202 151.241197 
L 427.889316 152.214493 
L 438.77443 153.17592 
L 449.659544 154.12248 
L 460.544658 155.04725 
L 471.429772 155.943618 
L 482.314886 156.81378 
L 493.2 157.658902 
L 504.085114 158.479918 
L 514.970228 159.28891 
L 525.855342 160.102982 
L 536.740456 160.927816 
L 547.62557 161.755982 
L 558.510684 162.57533 
L 569.395798 163.391404 
L 580.280913 164.217157 
L 591.166027 165.061071 
L 602.051141 165.909916 
L 612.936255 166.749744 
L 623.821369 167.578336 
L 634.706483 168.397902 
L 645.591597 169.214156 
L 656.476711 170.036756 
L 667.361825 170.869271 
L 678.246939 171.705972 
L 689.132053 172.538182 
L 689.132053 168.350188 
L 689.132053 168.350188 
L 678.246939 167.621548 
L 667.361825 166.890706 
L 656.476711 166.170815 
L 645.591597 165.463889 
L 634.706483 164.76382 
L 623.821369 164.057974 
L 612.936255 163.336947 
L 602.051141 162.595725 
L 591.166027 161.836036 
L 580.280913 161.077806 
L 569.395798 160.340945 
L 558.510684 159.620508 
L 547.62557 158.903619 
L 536.740456 158.179977 
L 525.855342 157.458356 
L 514.970228 156.745244 
L 504.085114 156.033928 
L 493.2 155.306681 
L 482.314886 154.551041 
L 471.429772 153.767376 
L 460.544658 152.956207 
L 449.659544 152.115302 
L 438.77443 151.251252 
L 427.889316 150.370392 
L 417.004202 149.471356 
L 406.119087 148.545046 
L 395.233973 147.588418 
L 384.348859 146.594523 
L 373.463745 145.557715 
L 362.578631 144.480224 
L 351.693517 143.352659 
L 340.808403 142.200311 
L 329.923289 141.047498 
L 319.038175 139.889142 
L 308.153061 138.71032 
L 297.267947 137.499385 
L 286.382833 136.237338 
L 275.497719 134.905982 
L 264.612605 133.477868 
L 253.727491 131.988451 
L 242.842376 130.359673 
L 231.957262 128.543853 
L 221.072148 126.525609 
L 210.187034 124.274211 
L 199.30192 121.797381 
L 188.416806 118.555459 
L 177.531692 114.978495 
L 166.646578 110.693909 
L 155.761464 106.54606 
L 144.87635 99.392801 
L 133.991236 91.781178 
L 123.106122 87.628673 
L 112.221008 81.553646 
L 101.335894 80.089101 
L 90.45078 79.931214 
L 79.565665 79.797274 
L 68.680551 79.600736 
L 57.795437 79.255188 
L 46.910323 78.316378 
L 36.025209 34.501818 
z
" clip-path="url(#p61d2ad8e5b)" style="fill: #d4cc20; fill-opacity: 0.3; stroke: #d4cc20; stroke-opacity: 0.3"/>
   </g>
   <g id="PolyCollection_2">
    <path d="M 36.025209 34.498696 
L 36.025209 34.50604 
L 46.910323 83.591567 
L 57.795437 85.109305 
L 68.680551 85.718155 
L 79.565665 86.085729 
L 90.45078 86.407745 
L 101.335894 87.124302 
L 112.221008 88.237772 
L 123.106122 96.877509 
L 133.991236 122.140515 
L 144.87635 134.672508 
L 155.761464 139.776935 
L 166.646578 143.308872 
L 177.531692 146.14506 
L 188.416806 148.602913 
L 199.30192 150.811274 
L 210.187034 152.825209 
L 221.072148 154.677996 
L 231.957262 156.396284 
L 242.842376 158.001459 
L 253.727491 159.510214 
L 264.612605 160.935558 
L 275.497719 162.287745 
L 286.382833 163.575011 
L 297.267947 164.804051 
L 308.153061 165.980411 
L 319.038175 167.108753 
L 329.923289 168.193042 
L 340.808403 169.2367 
L 351.693517 170.24271 
L 362.578631 171.213701 
L 373.463745 172.152003 
L 384.348859 173.059695 
L 395.233973 173.938656 
L 406.119087 174.790567 
L 417.004202 175.616983 
L 427.889316 176.41932 
L 438.77443 177.19884 
L 449.659544 177.956765 
L 460.544658 178.694163 
L 471.429772 179.412081 
L 482.314886 180.111421 
L 493.2 180.793086 
L 504.085114 181.457866 
L 514.970228 182.106535 
L 525.855342 182.739831 
L 536.740456 183.358392 
L 547.62557 183.96284 
L 558.510684 184.553756 
L 569.395798 185.13173 
L 580.280913 185.697248 
L 591.166027 186.250805 
L 602.051141 186.792849 
L 612.936255 187.323866 
L 623.821369 187.844243 
L 634.706483 188.354349 
L 645.591597 188.854576 
L 656.476711 189.345261 
L 667.361825 189.826789 
L 678.246939 190.299441 
L 689.132053 190.763517 
L 689.132053 190.545072 
L 689.132053 190.545072 
L 678.246939 190.080117 
L 667.361825 189.606578 
L 656.476711 189.124159 
L 645.591597 188.632575 
L 634.706483 188.131439 
L 623.821369 187.620417 
L 612.936255 187.099123 
L 602.051141 186.567188 
L 591.166027 186.024222 
L 580.280913 185.469744 
L 569.395798 184.903299 
L 558.510684 184.324401 
L 547.62557 183.732568 
L 536.740456 183.127204 
L 525.855342 182.507723 
L 514.970228 181.87351 
L 504.085114 181.223929 
L 493.2 180.558246 
L 482.314886 179.875679 
L 471.429772 179.175451 
L 460.544658 178.456645 
L 449.659544 177.718373 
L 438.77443 176.959578 
L 427.889316 176.179199 
L 417.004202 175.376006 
L 406.119087 174.54874 
L 395.233973 173.695977 
L 384.348859 172.81616 
L 373.463745 171.907598 
L 362.578631 170.968395 
L 351.693517 169.996468 
L 340.808403 168.98945 
L 329.923289 167.944693 
L 319.038175 166.859158 
L 308.153061 165.729372 
L 297.267947 164.551278 
L 286.382833 163.320103 
L 275.497719 162.030143 
L 264.612605 160.674493 
L 253.727491 159.244635 
L 242.842376 157.72994 
L 231.957262 156.116905 
L 221.072148 154.388171 
L 210.187034 152.521558 
L 199.30192 150.489631 
L 188.416806 148.256938 
L 177.531692 145.759136 
L 166.646578 142.842199 
L 155.761464 139.125541 
L 144.87635 133.371882 
L 133.991236 115.807128 
L 123.106122 93.729437 
L 112.221008 88.16857 
L 101.335894 87.080272 
L 90.45078 86.401988 
L 79.565665 86.084916 
L 68.680551 85.717599 
L 57.795437 85.108197 
L 46.910323 83.586729 
L 36.025209 34.498696 
z
" clip-path="url(#p61d2ad8e5b)" style="fill: #34ad6f; fill-opacity: 0.3; stroke: #34ad6f; stroke-opacity: 0.3"/>
   </g>
   <g id="matplotlib.axis_1">
    <g id="xtick_1">
     <g id="line2d_1">
      <defs>
       <path id="m8aa29624d8" d="M 0 0 
L 0 3.5 
" style="stroke: #000000; stroke-width: 0.8"/>
      </defs>
      <g>
       <use xlink:href="#m8aa29624d8" x="36.025209" y="179.44" style="stroke: #000000; stroke-width: 0.8"/>
      </g>
     </g>
     <g id="text_1">
      <text style="font: 10px 'sans-serif'; text-anchor: middle" x="36.025209" y="194.038437" transform="rotate(-0, 36.025209, 194.038437)">0</text>
     </g>
    </g>
    <g id="xtick_2">
     <g id="line2d_2">
      <g>
       <use xlink:href="#m8aa29624d8" x="90.45078" y="179.44" style="stroke: #000000; stroke-width: 0.8"/>
      </g>
     </g>
     <g id="text_2">
      <text style="font: 10px 'sans-serif'; text-anchor: middle" x="90.45078" y="194.038437" transform="rotate(-0, 90.45078, 194.038437)">250</text>
     </g>
    </g>
    <g id="xtick_3">
     <g id="line2d_3">
      <g>
       <use xlink:href="#m8aa29624d8" x="144.87635" y="179.44" style="stroke: #000000; stroke-width: 0.8"/>
      </g>
     </g>
     <g id="text_3">
      <text style="font: 10px 'sans-serif'; text-anchor: middle" x="144.87635" y="194.038437" transform="rotate(-0, 144.87635, 194.038437)">500</text>
     </g>
    </g>
    <g id="xtick_4">
     <g id="line2d_4">
      <g>
       <use xlink:href="#m8aa29624d8" x="199.30192" y="179.44" style="stroke: #000000; stroke-width: 0.8"/>
      </g>
     </g>
     <g id="text_4">
      <text style="font: 10px 'sans-serif'; text-anchor: middle" x="199.30192" y="194.038437" transform="rotate(-0, 199.30192, 194.038437)">750</text>
     </g>
    </g>
    <g id="xtick_5">
     <g id="line2d_5">
      <g>
       <use xlink:href="#m8aa29624d8" x="253.727491" y="179.44" style="stroke: #000000; stroke-width: 0.8"/>
      </g>
     </g>
     <g id="text_5">
      <text style="font: 10px 'sans-serif'; text-anchor: middle" x="253.727491" y="194.038437" transform="rotate(-0, 253.727491, 194.038437)">1000</text>
     </g>
    </g>
    <g id="xtick_6">
     <g id="line2d_6">
      <g>
       <use xlink:href="#m8aa29624d8" x="308.153061" y="179.44" style="stroke: #000000; stroke-width: 0.8"/>
      </g>
     </g>
     <g id="text_6">
      <text style="font: 10px 'sans-serif'; text-anchor: middle" x="308.153061" y="194.038437" transform="rotate(-0, 308.153061, 194.038437)">1250</text>
     </g>
    </g>
    <g id="xtick_7">
     <g id="line2d_7">
      <g>
       <use xlink:href="#m8aa29624d8" x="362.578631" y="179.44" style="stroke: #000000; stroke-width: 0.8"/>
      </g>
     </g>
     <g id="text_7">
      <text style="font: 10px 'sans-serif'; text-anchor: middle" x="362.578631" y="194.038437" transform="rotate(-0, 362.578631, 194.038437)">1500</text>
     </g>
    </g>
    <g id="xtick_8">
     <g id="line2d_8">
      <g>
       <use xlink:href="#m8aa29624d8" x="417.004202" y="179.44" style="stroke: #000000; stroke-width: 0.8"/>
      </g>
     </g>
     <g id="text_8">
      <text style="font: 10px 'sans-serif'; text-anchor: middle" x="417.004202" y="194.038437" transform="rotate(-0, 417.004202, 194.038437)">1750</text>
     </g>
    </g>
    <g id="xtick_9">
     <g id="line2d_9">
      <g>
       <use xlink:href="#m8aa29624d8" x="471.429772" y="179.44" style="stroke: #000000; stroke-width: 0.8"/>
      </g>
     </g>
     <g id="text_9">
      <text style="font: 10px 'sans-serif'; text-anchor: middle" x="471.429772" y="194.038437" transform="rotate(-0, 471.429772, 194.038437)">2000</text>
     </g>
    </g>
    <g id="text_10">
     <text style="font: 10px 'sans-serif'; text-anchor: middle" x="264.612605" y="207.716562" transform="rotate(-0, 264.612605, 207.716562)">Epoch</text>
    </g>
   </g>
   <g id="matplotlib.axis_2">
    <g id="ytick_1">
     <g id="line2d_10">
      <defs>
       <path id="mdd9b9e8892" d="M 0 0 
L -3.5 0 
" style="stroke: #000000; stroke-width: 0.8"/>
      </defs>
      <g>
       <use xlink:href="#mdd9b9e8892" x="36.025209" y="162.375564" style="stroke: #000000; stroke-width: 0.8"/>
      </g>
     </g>
     <g id="text_11">
      <!-- $\mathdefault{10^{0}}$ -->
      <g transform="translate(11.425209 166.174782)">
       <text>
        <tspan style="font: 10px 'DejaVu Sans'" x="0 6.362305" y="-0.9765625">10</tspan>
        <tspan style="font: 7px 'DejaVu Sans'" x="12.820312" y="-4.8046875">0</tspan>
       </text>
      </g>
     </g>
    </g>
    <g id="ytick_2">
     <g id="line2d_11">
      <g>
       <use xlink:href="#mdd9b9e8892" x="36.025209" y="115.775494" style="stroke: #000000; stroke-width: 0.8"/>
      </g>
     </g>
     <g id="text_12">
      <!-- $\mathdefault{10^{1}}$ -->
      <g transform="translate(11.425209 119.574712)">
       <text>
        <tspan style="font: 10px 'DejaVu Sans'" x="0 6.362305" y="-0.06406250000000036">10</tspan>
        <tspan style="font: 7px 'DejaVu Sans'" x="12.820312" y="-3.8921875000000004">1</tspan>
       </text>
      </g>
     </g>
    </g>
    <g id="ytick_3">
     <g id="line2d_12">
      <g>
       <use xlink:href="#mdd9b9e8892" x="36.025209" y="69.175424" style="stroke: #000000; stroke-width: 0.8"/>
      </g>
     </g>
     <g id="text_13">
      <!-- $\mathdefault{10^{2}}$ -->
      <g transform="translate(11.425209 72.974642)">
       <text>
        <tspan style="font: 10px 'DejaVu Sans'" x="0 6.362305" y="-0.9765625">10</tspan>
        <tspan style="font: 7px 'DejaVu Sans'" x="12.820312" y="-4.8046875">2</tspan>
       </text>
      </g>
     </g>
    </g>
    <g id="ytick_4">
     <g id="line2d_13">
      <defs>
       <path id="me8ede2f6bc" d="M 0 0 
L -2 0 
" style="stroke: #000000; stroke-width: 0.6"/>
      </defs>
      <g>
       <use xlink:href="#me8ede2f6bc" x="36.025209" y="176.403582" style="stroke: #000000; stroke-width: 0.6"/>
      </g>
     </g>
    </g>
    <g id="ytick_5">
     <g id="line2d_14">
      <g>
       <use xlink:href="#me8ede2f6bc" x="36.025209" y="172.713731" style="stroke: #000000; stroke-width: 0.6"/>
      </g>
     </g>
    </g>
    <g id="ytick_6">
     <g id="line2d_15">
      <g>
       <use xlink:href="#me8ede2f6bc" x="36.025209" y="169.594006" style="stroke: #000000; stroke-width: 0.6"/>
      </g>
     </g>
    </g>
    <g id="ytick_7">
     <g id="line2d_16">
      <g>
       <use xlink:href="#me8ede2f6bc" x="36.025209" y="166.891577" style="stroke: #000000; stroke-width: 0.6"/>
      </g>
     </g>
    </g>
    <g id="ytick_8">
     <g id="line2d_17">
      <g>
       <use xlink:href="#me8ede2f6bc" x="36.025209" y="164.507866" style="stroke: #000000; stroke-width: 0.6"/>
      </g>
     </g>
    </g>
    <g id="ytick_9">
     <g id="line2d_18">
      <g>
       <use xlink:href="#me8ede2f6bc" x="36.025209" y="148.347545" style="stroke: #000000; stroke-width: 0.6"/>
      </g>
     </g>
    </g>
    <g id="ytick_10">
     <g id="line2d_19">
      <g>
       <use xlink:href="#me8ede2f6bc" x="36.025209" y="140.14168" style="stroke: #000000; stroke-width: 0.6"/>
      </g>
     </g>
    </g>
    <g id="ytick_11">
     <g id="line2d_20">
      <g>
       <use xlink:href="#me8ede2f6bc" x="36.025209" y="134.319526" style="stroke: #000000; stroke-width: 0.6"/>
      </g>
     </g>
    </g>
    <g id="ytick_12">
     <g id="line2d_21">
      <g>
       <use xlink:href="#me8ede2f6bc" x="36.025209" y="129.803513" style="stroke: #000000; stroke-width: 0.6"/>
      </g>
     </g>
    </g>
    <g id="ytick_13">
     <g id="line2d_22">
      <g>
       <use xlink:href="#me8ede2f6bc" x="36.025209" y="126.113661" style="stroke: #000000; stroke-width: 0.6"/>
      </g>
     </g>
    </g>
    <g id="ytick_14">
     <g id="line2d_23">
      <g>
       <use xlink:href="#me8ede2f6bc" x="36.025209" y="122.993936" style="stroke: #000000; stroke-width: 0.6"/>
      </g>
     </g>
    </g>
    <g id="ytick_15">
     <g id="line2d_24">
      <g>
       <use xlink:href="#me8ede2f6bc" x="36.025209" y="120.291507" style="stroke: #000000; stroke-width: 0.6"/>
      </g>
     </g>
    </g>
    <g id="ytick_16">
     <g id="line2d_25">
      <g>
       <use xlink:href="#me8ede2f6bc" x="36.025209" y="117.907796" style="stroke: #000000; stroke-width: 0.6"/>
      </g>
     </g>
    </g>
    <g id="ytick_17">
     <g id="line2d_26">
      <g>
       <use xlink:href="#me8ede2f6bc" x="36.025209" y="101.747475" style="stroke: #000000; stroke-width: 0.6"/>
      </g>
     </g>
    </g>
    <g id="ytick_18">
     <g id="line2d_27">
      <g>
       <use xlink:href="#me8ede2f6bc" x="36.025209" y="93.54161" style="stroke: #000000; stroke-width: 0.6"/>
      </g>
     </g>
    </g>
    <g id="ytick_19">
     <g id="line2d_28">
      <g>
       <use xlink:href="#me8ede2f6bc" x="36.025209" y="87.719456" style="stroke: #000000; stroke-width: 0.6"/>
      </g>
     </g>
    </g>
    <g id="ytick_20">
     <g id="line2d_29">
      <g>
       <use xlink:href="#me8ede2f6bc" x="36.025209" y="83.203443" style="stroke: #000000; stroke-width: 0.6"/>
      </g>
     </g>
    </g>
    <g id="ytick_21">
     <g id="line2d_30">
      <g>
       <use xlink:href="#me8ede2f6bc" x="36.025209" y="79.513591" style="stroke: #000000; stroke-width: 0.6"/>
      </g>
     </g>
    </g>
    <g id="ytick_22">
     <g id="line2d_31">
      <g>
       <use xlink:href="#me8ede2f6bc" x="36.025209" y="76.393866" style="stroke: #000000; stroke-width: 0.6"/>
      </g>
     </g>
    </g>
    <g id="ytick_23">
     <g id="line2d_32">
      <g>
       <use xlink:href="#me8ede2f6bc" x="36.025209" y="73.691437" style="stroke: #000000; stroke-width: 0.6"/>
      </g>
     </g>
    </g>
    <g id="ytick_24">
     <g id="line2d_33">
      <g>
       <use xlink:href="#me8ede2f6bc" x="36.025209" y="71.307726" style="stroke: #000000; stroke-width: 0.6"/>
      </g>
     </g>
    </g>
    <g id="ytick_25">
     <g id="line2d_34">
      <g>
       <use xlink:href="#me8ede2f6bc" x="36.025209" y="55.147405" style="stroke: #000000; stroke-width: 0.6"/>
      </g>
     </g>
    </g>
    <g id="ytick_26">
     <g id="line2d_35">
      <g>
       <use xlink:href="#me8ede2f6bc" x="36.025209" y="46.94154" style="stroke: #000000; stroke-width: 0.6"/>
      </g>
     </g>
    </g>
    <g id="ytick_27">
     <g id="line2d_36">
      <g>
       <use xlink:href="#me8ede2f6bc" x="36.025209" y="41.119386" style="stroke: #000000; stroke-width: 0.6"/>
      </g>
     </g>
    </g>
    <g id="ytick_28">
     <g id="line2d_37">
      <g>
       <use xlink:href="#me8ede2f6bc" x="36.025209" y="36.603373" style="stroke: #000000; stroke-width: 0.6"/>
      </g>
     </g>
    </g>
    <g id="ytick_29">
     <g id="line2d_38">
      <g>
       <use xlink:href="#me8ede2f6bc" x="36.025209" y="32.913521" style="stroke: #000000; stroke-width: 0.6"/>
      </g>
     </g>
    </g>
    <g id="ytick_30">
     <g id="line2d_39">
      <g>
       <use xlink:href="#me8ede2f6bc" x="36.025209" y="29.793796" style="stroke: #000000; stroke-width: 0.6"/>
      </g>
     </g>
    </g>
   </g>
   <g id="line2d_40">
    <path d="M 36.025209 34.505231 
L 46.910323 78.353381 
L 57.795437 79.284157 
L 68.680551 79.6305 
L 79.565665 79.828058 
L 90.45078 79.962359 
L 101.335894 80.121359 
L 112.221008 81.880979 
L 123.106122 88.029572 
L 133.991236 92.658697 
L 144.87635 100.909288 
L 155.761464 108.258934 
L 166.646578 112.383819 
L 177.531692 116.24929 
L 188.416806 119.526092 
L 199.30192 122.448676 
L 210.187034 124.93205 
L 221.072148 127.163031 
L 231.957262 129.14717 
L 242.842376 130.933293 
L 253.727491 132.560592 
L 264.612605 134.059171 
L 275.497719 135.490472 
L 286.382833 136.837494 
L 297.267947 138.122468 
L 308.153061 139.359414 
L 319.038175 140.563146 
L 329.923289 141.743451 
L 340.808403 142.913001 
L 351.693517 144.077946 
L 362.578631 145.221324 
L 373.463745 146.32011 
L 384.348859 147.378396 
L 395.233973 148.395878 
L 406.119087 149.379566 
L 417.004202 150.336936 
L 427.889316 151.271445 
L 438.77443 152.190715 
L 449.659544 153.094018 
L 460.544658 153.974734 
L 471.429772 154.826259 
L 482.314886 155.650803 
L 493.2 156.448637 
L 504.085114 157.219993 
L 505 157.28363 
" clip-path="url(#p61d2ad8e5b)" style="fill: none; stroke: #d4cc20; stroke-width: 1.5; stroke-linecap: square"/>
   </g>
   <g id="line2d_41">
    <path d="M 79.565665 179.44 
L 79.565665 27.6 
" clip-path="url(#p61d2ad8e5b)" style="fill: none; stroke-dasharray: 1.85,0.8; stroke-dashoffset: 0; stroke: #000000; stroke-width: 0.5"/>
   </g>
   <g id="line2d_42">
    <path d="M 144.87635 179.44 
L 144.87635 27.6 
" clip-path="url(#p61d2ad8e5b)" style="fill: none; stroke-dasharray: 1.85,0.8; stroke-dashoffset: 0; stroke: #000000; stroke-width: 0.5"/>
   </g>
   <g id="line2d_43">
    <path d="M 384.348859 179.44 
L 384.348859 27.6 
" clip-path="url(#p61d2ad8e5b)" style="fill: none; stroke-dasharray: 1.85,0.8; stroke-dashoffset: 0; stroke: #000000; stroke-width: 0.5"/>
   </g>
   <g id="line2d_44">
    <path d="M 36.025209 34.502368 
L 46.910323 83.589148 
L 57.795437 85.108751 
L 68.680551 85.717877 
L 79.565665 86.085323 
L 90.45078 86.404866 
L 101.335894 87.102275 
L 112.221008 88.203141 
L 123.106122 95.242324 
L 133.991236 118.727078 
L 144.87635 134.011749 
L 155.761464 139.448617 
L 166.646578 143.074191 
L 177.531692 145.951178 
L 188.416806 148.429186 
L 199.30192 150.649813 
L 210.187034 152.672814 
L 221.072148 154.532565 
L 231.957262 156.256112 
L 242.842376 157.865244 
L 253.727491 159.376989 
L 264.612605 160.804605 
L 275.497719 162.158534 
L 286.382833 163.447156 
L 297.267947 164.67727 
L 308.153061 165.854502 
L 319.038175 166.983571 
L 329.923289 168.068487 
L 340.808403 169.112697 
L 351.693517 170.119214 
L 362.578631 171.090677 
L 373.463745 172.029432 
L 384.348859 172.937562 
L 395.233973 173.816953 
L 406.119087 174.669292 
L 417.004202 175.496136 
L 427.889316 176.298903 
L 438.77443 177.078855 
L 449.659544 177.837218 
L 460.544658 178.575056 
L 471.429772 179.29342 
L 482.314886 179.993207 
L 493.2 180.675325 
L 504.085114 181.34056 
L 505 181.395118 
" clip-path="url(#p61d2ad8e5b)" style="fill: none; stroke: #34ad6f; stroke-width: 1.5; stroke-linecap: square"/>
   </g>
   <g id="line2d_45">
    <path d="M 79.565665 179.44 
L 79.565665 27.6 
" clip-path="url(#p61d2ad8e5b)" style="fill: none; stroke-dasharray: 1.85,0.8; stroke-dashoffset: 0; stroke: #000000; stroke-width: 0.5"/>
   </g>
   <g id="line2d_46">
    <path d="M 144.87635 179.44 
L 144.87635 27.6 
" clip-path="url(#p61d2ad8e5b)" style="fill: none; stroke-dasharray: 1.85,0.8; stroke-dashoffset: 0; stroke: #000000; stroke-width: 0.5"/>
   </g>
   <g id="line2d_47">
    <path d="M 384.348859 179.44 
L 384.348859 27.6 
" clip-path="url(#p61d2ad8e5b)" style="fill: none; stroke-dasharray: 1.85,0.8; stroke-dashoffset: 0; stroke: #000000; stroke-width: 0.5"/>
   </g>
   <g id="patch_3">
    <path d="M 36.025209 179.44 
L 36.025209 27.6 
" style="fill: none; stroke: #000000; stroke-width: 0.8; stroke-linejoin: miter; stroke-linecap: square"/>
   </g>
   <g id="patch_4">
    <path d="M 493.2 179.44 
L 493.2 27.6 
" style="fill: none; stroke: #000000; stroke-width: 0.8; stroke-linejoin: miter; stroke-linecap: square"/>
   </g>
   <g id="patch_5">
    <path d="M 36.025209 179.44 
L 493.2 179.44 
" style="fill: none; stroke: #000000; stroke-width: 0.8; stroke-linejoin: miter; stroke-linecap: square"/>
   </g>
   <g id="patch_6">
    <path d="M 36.025209 27.6 
L 493.2 27.6 
" style="fill: none; stroke: #000000; stroke-width: 0.8; stroke-linejoin: miter; stroke-linecap: square"/>
   </g>
   <g id="text_14">
    <text style="font: 14.4px 'sans-serif'; text-anchor: middle" x="264.612605" y="21.6" transform="rotate(-0, 264.612605, 21.6)">Loss</text>
   </g>
   <g id="legend_1">
    <g id="patch_7">
     <path d="M 405.86875 64.95625 
L 486.2 64.95625 
Q 488.2 64.95625 488.2 62.95625 
L 488.2 34.6 
Q 488.2 32.6 486.2 32.6 
L 405.86875 32.6 
Q 403.86875 32.6 403.86875 34.6 
L 403.86875 62.95625 
Q 403.86875 64.95625 405.86875 64.95625 
z
" style="fill: #ffffff; opacity: 0.8; stroke: #cccccc; stroke-linejoin: miter"/>
    </g>
    <g id="line2d_48">
     <path d="M 407.86875 40.698438 
L 417.86875 40.698438 
L 427.86875 40.698438 
" style="fill: none; stroke: #d4cc20; stroke-width: 1.5; stroke-linecap: square"/>
    </g>
    <g id="text_15">
     <text style="font: 10px 'sans-serif'; text-anchor: start" x="435.86875" y="44.198438" transform="rotate(-0, 435.86875, 44.198438)">Hierarchy</text>
    </g>
    <g id="line2d_49">
     <path d="M 407.86875 55.376563 
L 417.86875 55.376563 
L 427.86875 55.376563 
" style="fill: none; stroke: #34ad6f; stroke-width: 1.5; stroke-linecap: square"/>
    </g>
    <g id="text_16">
     <text style="font: 10px 'sans-serif'; text-anchor: start" x="435.86875" y="58.876563" transform="rotate(-0, 435.86875, 58.876563)">Ordering</text>
    </g>
   </g>
  </g>
  <g id="axes_2">
   <g id="patch_8">
    <path d="M 36.025209 390.04 
L 493.2 390.04 
L 493.2 238.2 
L 36.025209 238.2 
z
" style="fill: #ffffff"/>
   </g>
   <g id="PolyCollection_3">
    <path d="M 36.025209 335.369474 
L 36.025209 338.331757 
L 46.910323 380.351535 
L 57.795437 382.855118 
L 68.680551 382.938685 
L 79.565665 382.938685 
L 90.45078 382.938685 
L 101.335894 383.138182 
L 112.221008 371.672016 
L 123.106122 335.053611 
L 133.991236 317.41146 
L 144.87635 290.124729 
L 155.761464 274.30764 
L 166.646578 267.327376 
L 177.531692 260.479695 
L 188.416806 257.699639 
L 199.30192 255.38224 
L 210.187034 254.169219 
L 221.072148 253.131193 
L 231.957262 252.178301 
L 242.842376 251.39797 
L 253.727491 250.584952 
L 264.612605 249.935756 
L 275.497719 249.46046 
L 286.382833 249.052547 
L 297.267947 248.811629 
L 308.153061 248.468666 
L 319.038175 248.189796 
L 329.923289 247.996166 
L 340.808403 247.759711 
L 351.693517 247.625139 
L 362.578631 247.509706 
L 373.463745 247.325625 
L 384.348859 247.217911 
L 395.233973 247.090461 
L 406.119087 247.029725 
L 417.004202 246.912064 
L 427.889316 246.797705 
L 438.77443 246.697678 
L 449.659544 246.622774 
L 460.544658 246.577838 
L 471.429772 246.493921 
L 482.314886 246.425312 
L 493.2 246.389636 
L 504.085114 246.345242 
L 514.970228 246.281219 
L 525.855342 246.193043 
L 536.740456 246.090064 
L 547.62557 246.016091 
L 558.510684 245.975556 
L 569.395798 245.898076 
L 580.280913 245.832864 
L 591.166027 245.764896 
L 602.051141 245.70887 
L 612.936255 245.65091 
L 623.821369 245.622857 
L 634.706483 245.587729 
L 645.591597 245.545701 
L 656.476711 245.505713 
L 667.361825 245.437931 
L 678.246939 245.40686 
L 689.132053 245.378404 
L 689.132053 245.101818 
L 689.132053 245.101818 
L 678.246939 245.127028 
L 667.361825 245.166041 
L 656.476711 245.228385 
L 645.591597 245.266814 
L 634.706483 245.300998 
L 623.821369 245.336447 
L 612.936255 245.363777 
L 602.051141 245.41511 
L 591.166027 245.468623 
L 580.280913 245.526615 
L 569.395798 245.57903 
L 558.510684 245.649074 
L 547.62557 245.696268 
L 536.740456 245.761486 
L 525.855342 245.873909 
L 514.970228 245.957026 
L 504.085114 246.019453 
L 493.2 246.068914 
L 482.314886 246.10357 
L 471.429772 246.16092 
L 460.544658 246.247316 
L 449.659544 246.296236 
L 438.77443 246.363957 
L 427.889316 246.472959 
L 417.004202 246.584295 
L 406.119087 246.686449 
L 395.233973 246.752163 
L 384.348859 246.849673 
L 373.463745 246.961528 
L 362.578631 247.111457 
L 351.693517 247.201626 
L 340.808403 247.311619 
L 329.923289 247.488326 
L 319.038175 247.661301 
L 308.153061 247.924736 
L 297.267947 248.243911 
L 286.382833 248.488449 
L 275.497719 248.815701 
L 264.612605 249.266715 
L 253.727491 249.858477 
L 242.842376 250.64959 
L 231.957262 251.382472 
L 221.072148 252.365764 
L 210.187034 253.328856 
L 199.30192 254.470811 
L 188.416806 255.780963 
L 177.531692 257.636857 
L 166.646578 261.900455 
L 155.761464 267.873065 
L 144.87635 279.909172 
L 133.991236 307.100863 
L 123.106122 327.404992 
L 112.221008 364.163652 
L 101.335894 381.223107 
L 90.45078 381.032476 
L 79.565665 381.032476 
L 68.680551 381.032476 
L 57.795437 381.004297 
L 46.910323 378.106864 
L 36.025209 335.369474 
z
" clip-path="url(#pc08377e695)" style="fill: #d4cc20; fill-opacity: 0.3; stroke: #d4cc20; stroke-opacity: 0.3"/>
   </g>
   <g id="PolyCollection_4">
    <path d="M 36.025209 335.988488 
L 36.025209 340.3811 
L 46.910323 337.818362 
L 57.795437 350.17609 
L 68.680551 350.17609 
L 79.565665 350.17609 
L 90.45078 350.17609 
L 101.335894 350.17609 
L 112.221008 344.974616 
L 123.106122 305.505414 
L 133.991236 256.290572 
L 144.87635 246.530062 
L 155.761464 245.593747 
L 166.646578 245.203937 
L 177.531692 244.717933 
L 188.416806 244.642037 
L 199.30192 244.642037 
L 210.187034 244.642037 
L 221.072148 244.642037 
L 231.957262 244.642037 
L 242.842376 244.642037 
L 253.727491 244.642037 
L 264.612605 244.642037 
L 275.497719 244.642037 
L 286.382833 244.642037 
L 297.267947 244.642037 
L 308.153061 244.642037 
L 319.038175 244.642037 
L 329.923289 244.642037 
L 340.808403 244.642037 
L 351.693517 244.642037 
L 362.578631 244.642037 
L 373.463745 244.642037 
L 384.348859 244.642037 
L 395.233973 244.642037 
L 406.119087 244.642037 
L 417.004202 244.642037 
L 427.889316 244.642037 
L 438.77443 244.642037 
L 449.659544 244.642037 
L 460.544658 244.642037 
L 471.429772 244.642037 
L 482.314886 244.642037 
L 493.2 244.642037 
L 504.085114 244.642037 
L 514.970228 244.642037 
L 525.855342 244.642037 
L 536.740456 244.642037 
L 547.62557 244.642037 
L 558.510684 244.642037 
L 569.395798 244.642037 
L 580.280913 244.642037 
L 591.166027 244.642037 
L 602.051141 244.642037 
L 612.936255 244.642037 
L 623.821369 244.642037 
L 634.706483 244.642037 
L 645.591597 244.642037 
L 656.476711 244.642037 
L 667.361825 244.642037 
L 678.246939 244.642037 
L 689.132053 244.642037 
L 689.132053 244.642037 
L 689.132053 244.642037 
L 678.246939 244.642037 
L 667.361825 244.642037 
L 656.476711 244.642037 
L 645.591597 244.642037 
L 634.706483 244.642037 
L 623.821369 244.642037 
L 612.936255 244.642037 
L 602.051141 244.642037 
L 591.166027 244.642037 
L 580.280913 244.642037 
L 569.395798 244.642037 
L 558.510684 244.642037 
L 547.62557 244.642037 
L 536.740456 244.642037 
L 525.855342 244.642037 
L 514.970228 244.642037 
L 504.085114 244.642037 
L 493.2 244.642037 
L 482.314886 244.642037 
L 471.429772 244.642037 
L 460.544658 244.642037 
L 449.659544 244.642037 
L 438.77443 244.642037 
L 427.889316 244.642037 
L 417.004202 244.642037 
L 406.119087 244.642037 
L 395.233973 244.642037 
L 384.348859 244.642037 
L 373.463745 244.642037 
L 362.578631 244.642037 
L 351.693517 244.642037 
L 340.808403 244.642037 
L 329.923289 244.642037 
L 319.038175 244.642037 
L 308.153061 244.642037 
L 297.267947 244.642037 
L 286.382833 244.642037 
L 275.497719 244.642037 
L 264.612605 244.642037 
L 253.727491 244.642037 
L 242.842376 244.642037 
L 231.957262 244.642037 
L 221.072148 244.642037 
L 210.187034 244.642037 
L 199.30192 244.642037 
L 188.416806 244.642037 
L 177.531692 244.647535 
L 166.646578 245.046006 
L 155.761464 245.486408 
L 144.87635 246.308513 
L 133.991236 250.562117 
L 123.106122 292.801721 
L 112.221008 341.749296 
L 101.335894 346.225933 
L 90.45078 346.225933 
L 79.565665 346.225933 
L 68.680551 346.225933 
L 57.795437 346.225933 
L 46.910323 333.815756 
L 36.025209 335.988488 
z
" clip-path="url(#pc08377e695)" style="fill: #34ad6f; fill-opacity: 0.3; stroke: #34ad6f; stroke-opacity: 0.3"/>
   </g>
   <g id="matplotlib.axis_3">
    <g id="xtick_10">
     <g id="line2d_50">
      <g>
       <use xlink:href="#m8aa29624d8" x="36.025209" y="390.04" style="stroke: #000000; stroke-width: 0.8"/>
      </g>
     </g>
     <g id="text_17">
      <text style="font: 10px 'sans-serif'; text-anchor: middle" x="36.025209" y="404.638438" transform="rotate(-0, 36.025209, 404.638438)">0</text>
     </g>
    </g>
    <g id="xtick_11">
     <g id="line2d_51">
      <g>
       <use xlink:href="#m8aa29624d8" x="90.45078" y="390.04" style="stroke: #000000; stroke-width: 0.8"/>
      </g>
     </g>
     <g id="text_18">
      <text style="font: 10px 'sans-serif'; text-anchor: middle" x="90.45078" y="404.638438" transform="rotate(-0, 90.45078, 404.638438)">250</text>
     </g>
    </g>
    <g id="xtick_12">
     <g id="line2d_52">
      <g>
       <use xlink:href="#m8aa29624d8" x="144.87635" y="390.04" style="stroke: #000000; stroke-width: 0.8"/>
      </g>
     </g>
     <g id="text_19">
      <text style="font: 10px 'sans-serif'; text-anchor: middle" x="144.87635" y="404.638438" transform="rotate(-0, 144.87635, 404.638438)">500</text>
     </g>
    </g>
    <g id="xtick_13">
     <g id="line2d_53">
      <g>
       <use xlink:href="#m8aa29624d8" x="199.30192" y="390.04" style="stroke: #000000; stroke-width: 0.8"/>
      </g>
     </g>
     <g id="text_20">
      <text style="font: 10px 'sans-serif'; text-anchor: middle" x="199.30192" y="404.638438" transform="rotate(-0, 199.30192, 404.638438)">750</text>
     </g>
    </g>
    <g id="xtick_14">
     <g id="line2d_54">
      <g>
       <use xlink:href="#m8aa29624d8" x="253.727491" y="390.04" style="stroke: #000000; stroke-width: 0.8"/>
      </g>
     </g>
     <g id="text_21">
      <text style="font: 10px 'sans-serif'; text-anchor: middle" x="253.727491" y="404.638438" transform="rotate(-0, 253.727491, 404.638438)">1000</text>
     </g>
    </g>
    <g id="xtick_15">
     <g id="line2d_55">
      <g>
       <use xlink:href="#m8aa29624d8" x="308.153061" y="390.04" style="stroke: #000000; stroke-width: 0.8"/>
      </g>
     </g>
     <g id="text_22">
      <text style="font: 10px 'sans-serif'; text-anchor: middle" x="308.153061" y="404.638438" transform="rotate(-0, 308.153061, 404.638438)">1250</text>
     </g>
    </g>
    <g id="xtick_16">
     <g id="line2d_56">
      <g>
       <use xlink:href="#m8aa29624d8" x="362.578631" y="390.04" style="stroke: #000000; stroke-width: 0.8"/>
      </g>
     </g>
     <g id="text_23">
      <text style="font: 10px 'sans-serif'; text-anchor: middle" x="362.578631" y="404.638438" transform="rotate(-0, 362.578631, 404.638438)">1500</text>
     </g>
    </g>
    <g id="xtick_17">
     <g id="line2d_57">
      <g>
       <use xlink:href="#m8aa29624d8" x="417.004202" y="390.04" style="stroke: #000000; stroke-width: 0.8"/>
      </g>
     </g>
     <g id="text_24">
      <text style="font: 10px 'sans-serif'; text-anchor: middle" x="417.004202" y="404.638438" transform="rotate(-0, 417.004202, 404.638438)">1750</text>
     </g>
    </g>
    <g id="xtick_18">
     <g id="line2d_58">
      <g>
       <use xlink:href="#m8aa29624d8" x="471.429772" y="390.04" style="stroke: #000000; stroke-width: 0.8"/>
      </g>
     </g>
     <g id="text_25">
      <text style="font: 10px 'sans-serif'; text-anchor: middle" x="471.429772" y="404.638438" transform="rotate(-0, 471.429772, 404.638438)">2000</text>
     </g>
    </g>
    <g id="text_26">
     <text style="font: 10px 'sans-serif'; text-anchor: middle" x="264.612605" y="418.316562" transform="rotate(-0, 264.612605, 418.316562)">Epoch</text>
    </g>
   </g>
   <g id="matplotlib.axis_4">
    <g id="ytick_31">
     <g id="line2d_59">
      <g>
       <use xlink:href="#mdd9b9e8892" x="36.025209" y="366.189341" style="stroke: #000000; stroke-width: 0.8"/>
      </g>
     </g>
     <g id="text_27">
      <text style="font: 10px 'sans-serif'; text-anchor: end" x="29.025209" y="369.98856" transform="rotate(-0, 29.025209, 369.98856)">0.6</text>
     </g>
    </g>
    <g id="ytick_32">
     <g id="line2d_60">
      <g>
       <use xlink:href="#mdd9b9e8892" x="36.025209" y="335.802515" style="stroke: #000000; stroke-width: 0.8"/>
      </g>
     </g>
     <g id="text_28">
      <text style="font: 10px 'sans-serif'; text-anchor: end" x="29.025209" y="339.601734" transform="rotate(-0, 29.025209, 339.601734)">0.7</text>
     </g>
    </g>
    <g id="ytick_33">
     <g id="line2d_61">
      <g>
       <use xlink:href="#mdd9b9e8892" x="36.025209" y="305.415689" style="stroke: #000000; stroke-width: 0.8"/>
      </g>
     </g>
     <g id="text_29">
      <text style="font: 10px 'sans-serif'; text-anchor: end" x="29.025209" y="309.214908" transform="rotate(-0, 29.025209, 309.214908)">0.8</text>
     </g>
    </g>
    <g id="ytick_34">
     <g id="line2d_62">
      <g>
       <use xlink:href="#mdd9b9e8892" x="36.025209" y="275.028863" style="stroke: #000000; stroke-width: 0.8"/>
      </g>
     </g>
     <g id="text_30">
      <text style="font: 10px 'sans-serif'; text-anchor: end" x="29.025209" y="278.828082" transform="rotate(-0, 29.025209, 278.828082)">0.9</text>
     </g>
    </g>
    <g id="ytick_35">
     <g id="line2d_63">
      <g>
       <use xlink:href="#mdd9b9e8892" x="36.025209" y="244.642037" style="stroke: #000000; stroke-width: 0.8"/>
      </g>
     </g>
     <g id="text_31">
      <text style="font: 10px 'sans-serif'; text-anchor: end" x="29.025209" y="248.441256" transform="rotate(-0, 29.025209, 248.441256)">1.0</text>
     </g>
    </g>
   </g>
   <g id="line2d_64">
    <path d="M 36.025209 336.850616 
L 46.910323 379.2292 
L 57.795437 381.929708 
L 68.680551 381.985581 
L 79.565665 381.985581 
L 90.45078 381.985581 
L 101.335894 382.180645 
L 112.221008 367.917834 
L 123.106122 331.229301 
L 133.991236 312.256161 
L 144.87635 285.016951 
L 155.761464 271.090352 
L 166.646578 264.613915 
L 177.531692 259.058276 
L 188.416806 256.740301 
L 199.30192 254.926526 
L 210.187034 253.749037 
L 221.072148 252.748479 
L 231.957262 251.780387 
L 242.842376 251.02378 
L 253.727491 250.221714 
L 264.612605 249.601236 
L 275.497719 249.13808 
L 286.382833 248.770498 
L 297.267947 248.52777 
L 308.153061 248.196701 
L 319.038175 247.925548 
L 329.923289 247.742246 
L 340.808403 247.535665 
L 351.693517 247.413382 
L 362.578631 247.310581 
L 373.463745 247.143577 
L 384.348859 247.033792 
L 395.233973 246.921312 
L 406.119087 246.858087 
L 417.004202 246.748179 
L 427.889316 246.635332 
L 438.77443 246.530817 
L 449.659544 246.459505 
L 460.544658 246.412577 
L 471.429772 246.327421 
L 482.314886 246.264441 
L 493.2 246.229275 
L 504.085114 246.182347 
L 505 246.177033 
" clip-path="url(#pc08377e695)" style="fill: none; stroke: #d4cc20; stroke-width: 1.5; stroke-linecap: square"/>
   </g>
   <g id="line2d_65">
    <path d="M 79.565665 390.04 
L 79.565665 238.2 
" clip-path="url(#pc08377e695)" style="fill: none; stroke-dasharray: 1.85,0.8; stroke-dashoffset: 0; stroke: #000000; stroke-width: 0.5"/>
   </g>
   <g id="line2d_66">
    <path d="M 144.87635 390.04 
L 144.87635 238.2 
" clip-path="url(#pc08377e695)" style="fill: none; stroke-dasharray: 1.85,0.8; stroke-dashoffset: 0; stroke: #000000; stroke-width: 0.5"/>
   </g>
   <g id="line2d_67">
    <path d="M 384.348859 390.04 
L 384.348859 238.2 
" clip-path="url(#pc08377e695)" style="fill: none; stroke-dasharray: 1.85,0.8; stroke-dashoffset: 0; stroke: #000000; stroke-width: 0.5"/>
   </g>
   <g id="line2d_68">
    <path d="M 36.025209 338.184794 
L 46.910323 335.817059 
L 57.795437 348.201011 
L 68.680551 348.201011 
L 79.565665 348.201011 
L 90.45078 348.201011 
L 101.335894 348.201011 
L 112.221008 343.361956 
L 123.106122 299.153568 
L 133.991236 253.426344 
L 144.87635 246.419287 
L 155.761464 245.540077 
L 166.646578 245.124971 
L 177.531692 244.682734 
L 188.416806 244.642037 
L 199.30192 244.642037 
L 210.187034 244.642037 
L 221.072148 244.642037 
L 231.957262 244.642037 
L 242.842376 244.642037 
L 253.727491 244.642037 
L 264.612605 244.642037 
L 275.497719 244.642037 
L 286.382833 244.642037 
L 297.267947 244.642037 
L 308.153061 244.642037 
L 319.038175 244.642037 
L 329.923289 244.642037 
L 340.808403 244.642037 
L 351.693517 244.642037 
L 362.578631 244.642037 
L 373.463745 244.642037 
L 384.348859 244.642037 
L 395.233973 244.642037 
L 406.119087 244.642037 
L 417.004202 244.642037 
L 427.889316 244.642037 
L 438.77443 244.642037 
L 449.659544 244.642037 
L 460.544658 244.642037 
L 471.429772 244.642037 
L 482.314886 244.642037 
L 493.2 244.642037 
L 504.085114 244.642037 
L 505 244.642037 
" clip-path="url(#pc08377e695)" style="fill: none; stroke: #34ad6f; stroke-width: 1.5; stroke-linecap: square"/>
   </g>
   <g id="line2d_69">
    <path d="M 79.565665 390.04 
L 79.565665 238.2 
" clip-path="url(#pc08377e695)" style="fill: none; stroke-dasharray: 1.85,0.8; stroke-dashoffset: 0; stroke: #000000; stroke-width: 0.5"/>
   </g>
   <g id="line2d_70">
    <path d="M 144.87635 390.04 
L 144.87635 238.2 
" clip-path="url(#pc08377e695)" style="fill: none; stroke-dasharray: 1.85,0.8; stroke-dashoffset: 0; stroke: #000000; stroke-width: 0.5"/>
   </g>
   <g id="line2d_71">
    <path d="M 384.348859 390.04 
L 384.348859 238.2 
" clip-path="url(#pc08377e695)" style="fill: none; stroke-dasharray: 1.85,0.8; stroke-dashoffset: 0; stroke: #000000; stroke-width: 0.5"/>
   </g>
   <g id="patch_9">
    <path d="M 36.025209 390.04 
L 36.025209 238.2 
" style="fill: none; stroke: #000000; stroke-width: 0.8; stroke-linejoin: miter; stroke-linecap: square"/>
   </g>
   <g id="patch_10">
    <path d="M 493.2 390.04 
L 493.2 238.2 
" style="fill: none; stroke: #000000; stroke-width: 0.8; stroke-linejoin: miter; stroke-linecap: square"/>
   </g>
   <g id="patch_11">
    <path d="M 36.025209 390.04 
L 493.2 390.04 
" style="fill: none; stroke: #000000; stroke-width: 0.8; stroke-linejoin: miter; stroke-linecap: square"/>
   </g>
   <g id="patch_12">
    <path d="M 36.025209 238.2 
L 493.2 238.2 
" style="fill: none; stroke: #000000; stroke-width: 0.8; stroke-linejoin: miter; stroke-linecap: square"/>
   </g>
   <g id="text_32">
    <text style="font: 14.4px 'sans-serif'; text-anchor: middle" x="264.612605" y="232.2" transform="rotate(-0, 264.612605, 232.2)">Mean weighted sign accuracy (within domain)</text>
   </g>
   <g id="legend_2">
    <g id="patch_13">
     <path d="M 405.86875 385.04 
L 486.2 385.04 
Q 488.2 385.04 488.2 383.04 
L 488.2 354.68375 
Q 488.2 352.68375 486.2 352.68375 
L 405.86875 352.68375 
Q 403.86875 352.68375 403.86875 354.68375 
L 403.86875 383.04 
Q 403.86875 385.04 405.86875 385.04 
z
" style="fill: #ffffff; opacity: 0.8; stroke: #cccccc; stroke-linejoin: miter"/>
    </g>
    <g id="line2d_72">
     <path d="M 407.86875 360.782187 
L 417.86875 360.782187 
L 427.86875 360.782187 
" style="fill: none; stroke: #d4cc20; stroke-width: 1.5; stroke-linecap: square"/>
    </g>
    <g id="text_33">
     <text style="font: 10px 'sans-serif'; text-anchor: start" x="435.86875" y="364.282187" transform="rotate(-0, 435.86875, 364.282187)">Hierarchy</text>
    </g>
    <g id="line2d_73">
     <path d="M 407.86875 375.460312 
L 417.86875 375.460312 
L 427.86875 375.460312 
" style="fill: none; stroke: #34ad6f; stroke-width: 1.5; stroke-linecap: square"/>
    </g>
    <g id="text_34">
     <text style="font: 10px 'sans-serif'; text-anchor: start" x="435.86875" y="378.960312" transform="rotate(-0, 435.86875, 378.960312)">Ordering</text>
    </g>
   </g>
  </g>
 </g>
 <defs>
  <clipPath id="p61d2ad8e5b">
   <rect x="36.025209" y="27.6" width="457.174791" height="151.84"/>
  </clipPath>
  <clipPath id="pc08377e695">
   <rect x="36.025209" y="238.2" width="457.174791" height="151.84"/>
  </clipPath>
 </defs>
</svg>
