<?xml version="1.0" encoding="utf-8" standalone="no"?>
<!DOCTYPE svg PUBLIC "-//W3C//DTD SVG 1.1//EN"
  "http://www.w3.org/Graphics/SVG/1.1/DTD/svg11.dtd">
<svg xmlns:xlink="http://www.w3.org/1999/xlink" width="504pt" height="432pt" viewBox="0 0 504 432" xmlns="http://www.w3.org/2000/svg" version="1.1">
 <metadata>
  <rdf:RDF xmlns:dc="http://purl.org/dc/elements/1.1/" xmlns:cc="http://creativecommons.org/ns#" xmlns:rdf="http://www.w3.org/1999/02/22-rdf-syntax-ns#">
   <cc:Work>
    <dc:type rdf:resource="http://purl.org/dc/dcmitype/StillImage"/>
    <dc:date>2022-04-21T00:12:18.941973</dc:date>
    <dc:format>image/svg+xml</dc:format>
    <dc:creator>
     <cc:Agent>
      <dc:title>Matplotlib v3.5.1, https://matplotlib.org/</dc:title>
     </cc:Agent>
    </dc:creator>
   </cc:Work>
  </rdf:RDF>
 </metadata>
 <defs>
  <style type="text/css">*{stroke-linejoin: round; stroke-linecap: butt}</style>
 </defs>
 <g id="figure_1">
  <g id="patch_1">
   <path d="M 0 432 
L 504 432 
L 504 0 
L 0 0 
z
" style="fill: #ffffff"/>
  </g>
  <g id="axes_1">
   <g id="patch_2">
    <path d="M 36.025209 179.44 
L 493.2 179.44 
L 493.2 27.6 
L 36.025209 27.6 
z
" style="fill: #ffffff"/>
   </g>
   <g id="PolyCollection_1">
    <path d="M 36.025209 34.501818 
L 36.025209 34.508654 
L 46.910323 78.02787 
L 57.795437 78.936589 
L 68.680551 79.279384 
L 79.565665 79.476378 
L 90.45078 79.610135 
L 101.335894 79.770205 
L 112.221008 81.854595 
L 123.106122 88.224509 
L 133.991236 93.566411 
L 144.87635 103.644566 
L 155.761464 110.852633 
L 166.646578 115.06689 
L 177.531692 117.887019 
L 188.416806 120.471692 
L 199.30192 123.072313 
L 210.187034 125.485609 
L 221.072148 127.521666 
L 231.957262 129.250181 
L 242.842376 130.831895 
L 253.727491 132.294569 
L 264.612605 133.712448 
L 275.497719 135.118569 
L 286.382833 136.518991 
L 297.267947 137.889528 
L 308.153061 139.242224 
L 319.038175 140.56111 
L 329.923289 141.821726 
L 340.808403 143.025876 
L 351.693517 144.16948 
L 362.578631 145.256202 
L 373.463745 146.307787 
L 384.348859 147.350491 
L 395.233973 148.395459 
L 406.119087 149.432175 
L 417.004202 150.449381 
L 427.889316 151.434581 
L 438.77443 152.388138 
L 449.659544 153.331615 
L 460.544658 154.275778 
L 471.429772 155.212728 
L 482.314886 156.13997 
L 493.2 157.060532 
L 504.085114 157.967154 
L 514.970228 158.866329 
L 525.855342 159.760731 
L 536.740456 160.637768 
L 547.62557 161.48801 
L 558.510684 162.315915 
L 569.395798 163.138601 
L 580.280913 163.969219 
L 591.166027 164.814627 
L 602.051141 165.687708 
L 612.936255 166.590412 
L 623.821369 167.488306 
L 634.706483 168.3651 
L 645.591597 169.225494 
L 656.476711 170.069842 
L 667.361825 170.899755 
L 678.246939 171.719556 
L 689.132053 172.538182 
L 689.132053 168.339103 
L 689.132053 168.339103 
L 678.246939 167.607671 
L 667.361825 166.871888 
L 656.476711 166.120733 
L 645.591597 165.348989 
L 634.706483 164.554977 
L 623.821369 163.740075 
L 612.936255 162.907314 
L 602.051141 162.080941 
L 591.166027 161.29806 
L 580.280913 160.551986 
L 569.395798 159.82547 
L 558.510684 159.112596 
L 547.62557 158.396472 
L 536.740456 157.653449 
L 525.855342 156.875238 
L 514.970228 156.07666 
L 504.085114 155.280749 
L 493.2 154.484722 
L 482.314886 153.673671 
L 471.429772 152.850267 
L 460.544658 152.011428 
L 449.659544 151.160409 
L 438.77443 150.308376 
L 427.889316 149.447808 
L 417.004202 148.555418 
L 406.119087 147.626289 
L 395.233973 146.669208 
L 384.348859 145.692135 
L 373.463745 144.705258 
L 362.578631 143.703812 
L 351.693517 142.663466 
L 340.808403 141.563518 
L 329.923289 140.403578 
L 319.038175 139.187034 
L 308.153061 137.899972 
L 297.267947 136.537454 
L 286.382833 135.216423 
L 275.497719 133.864299 
L 264.612605 132.485973 
L 253.727491 131.103417 
L 242.842376 129.650176 
L 231.957262 128.046839 
L 221.072148 126.305416 
L 210.187034 124.2857 
L 199.30192 121.915516 
L 188.416806 119.391073 
L 177.531692 116.416029 
L 166.646578 112.590678 
L 155.761464 107.376246 
L 144.87635 100.406707 
L 133.991236 91.659707 
L 123.106122 87.400991 
L 112.221008 81.188995 
L 101.335894 79.712246 
L 90.45078 79.556637 
L 79.565665 79.423571 
L 68.680551 79.228238 
L 57.795437 78.886309 
L 46.910323 77.96103 
L 36.025209 34.501818 
z
" clip-path="url(#p26f5c6486d)" style="fill: #d4cc20; fill-opacity: 0.3; stroke: #d4cc20; stroke-opacity: 0.3"/>
   </g>
   <g id="PolyCollection_2">
    <path d="M 36.025209 34.502065 
L 36.025209 34.508886 
L 46.910323 89.665313 
L 57.795437 91.807024 
L 68.680551 92.727257 
L 79.565665 93.303727 
L 90.45078 93.846069 
L 101.335894 95.082579 
L 112.221008 96.756738 
L 123.106122 97.896275 
L 133.991236 104.94662 
L 144.87635 121.181187 
L 155.761464 135.085241 
L 166.646578 141.530466 
L 177.531692 144.929791 
L 188.416806 147.671049 
L 199.30192 150.031738 
L 210.187034 152.143623 
L 221.072148 154.066938 
L 231.957262 155.839605 
L 242.842376 157.489257 
L 253.727491 159.036445 
L 264.612605 160.496549 
L 275.497719 161.881302 
L 286.382833 163.199838 
L 297.267947 164.459476 
L 308.153061 165.666244 
L 319.038175 166.825194 
L 329.923289 167.940566 
L 340.808403 169.015945 
L 351.693517 170.054428 
L 362.578631 171.058704 
L 373.463745 172.031111 
L 384.348859 172.973677 
L 395.233973 173.888126 
L 406.119087 174.775972 
L 417.004202 175.638511 
L 427.889316 176.476931 
L 438.77443 177.292312 
L 449.659544 178.085653 
L 460.544658 178.857932 
L 471.429772 179.61007 
L 482.314886 180.342985 
L 493.2 181.057503 
L 504.085114 181.754409 
L 514.970228 182.434461 
L 525.855342 183.098305 
L 536.740456 183.746575 
L 547.62557 184.37988 
L 558.510684 184.998769 
L 569.395798 185.603781 
L 580.280913 186.195421 
L 591.166027 186.774209 
L 602.051141 187.340586 
L 612.936255 187.895025 
L 623.821369 188.437955 
L 634.706483 188.969819 
L 645.591597 189.490999 
L 656.476711 190.001889 
L 667.361825 190.502854 
L 678.246939 190.994236 
L 689.132053 191.476349 
L 689.132053 190.857925 
L 689.132053 190.857925 
L 678.246939 190.38087 
L 667.361825 189.894803 
L 656.476711 189.399421 
L 645.591597 188.894394 
L 634.706483 188.379371 
L 623.821369 187.853981 
L 612.936255 187.317857 
L 602.051141 186.770563 
L 591.166027 186.211695 
L 580.280913 185.640794 
L 569.395798 185.057436 
L 558.510684 184.461106 
L 547.62557 183.851316 
L 536.740456 183.227523 
L 525.855342 182.58919 
L 514.970228 181.935712 
L 504.085114 181.266478 
L 493.2 180.580845 
L 482.314886 179.878069 
L 471.429772 179.157391 
L 460.544658 178.418005 
L 449.659544 177.658981 
L 438.77443 176.879376 
L 427.889316 176.078124 
L 417.004202 175.25411 
L 406.119087 174.406123 
L 395.233973 173.532832 
L 384.348859 172.632794 
L 373.463745 171.704349 
L 362.578631 170.745644 
L 351.693517 169.754531 
L 340.808403 168.728558 
L 329.923289 167.664912 
L 319.038175 166.560355 
L 308.153061 165.411138 
L 297.267947 164.212826 
L 286.382833 162.960089 
L 275.497719 161.646488 
L 264.612605 160.264112 
L 253.727491 158.803006 
L 242.842376 157.250215 
L 231.957262 155.58849 
L 221.072148 153.794559 
L 210.187034 151.836634 
L 199.30192 149.66825 
L 188.416806 147.204135 
L 177.531692 144.216279 
L 166.646578 138.464789 
L 155.761464 128.493568 
L 144.87635 115.546516 
L 133.991236 102.50034 
L 123.106122 97.678675 
L 112.221008 96.708796 
L 101.335894 95.03285 
L 90.45078 93.832287 
L 79.565665 93.299812 
L 68.680551 92.720149 
L 57.795437 91.792402 
L 46.910323 89.623849 
L 36.025209 34.502065 
z
" clip-path="url(#p26f5c6486d)" style="fill: #34ad6f; fill-opacity: 0.3; stroke: #34ad6f; stroke-opacity: 0.3"/>
   </g>
   <g id="matplotlib.axis_1">
    <g id="xtick_1">
     <g id="line2d_1">
      <defs>
       <path id="mf75d0c6ace" d="M 0 0 
L 0 3.5 
" style="stroke: #000000; stroke-width: 0.8"/>
      </defs>
      <g>
       <use xlink:href="#mf75d0c6ace" x="36.025209" y="179.44" style="stroke: #000000; stroke-width: 0.8"/>
      </g>
     </g>
     <g id="text_1">
      <text style="font: 10px 'sans-serif'; text-anchor: middle" x="36.025209" y="194.038437" transform="rotate(-0, 36.025209, 194.038437)">0</text>
     </g>
    </g>
    <g id="xtick_2">
     <g id="line2d_2">
      <g>
       <use xlink:href="#mf75d0c6ace" x="90.45078" y="179.44" style="stroke: #000000; stroke-width: 0.8"/>
      </g>
     </g>
     <g id="text_2">
      <text style="font: 10px 'sans-serif'; text-anchor: middle" x="90.45078" y="194.038437" transform="rotate(-0, 90.45078, 194.038437)">250</text>
     </g>
    </g>
    <g id="xtick_3">
     <g id="line2d_3">
      <g>
       <use xlink:href="#mf75d0c6ace" x="144.87635" y="179.44" style="stroke: #000000; stroke-width: 0.8"/>
      </g>
     </g>
     <g id="text_3">
      <text style="font: 10px 'sans-serif'; text-anchor: middle" x="144.87635" y="194.038437" transform="rotate(-0, 144.87635, 194.038437)">500</text>
     </g>
    </g>
    <g id="xtick_4">
     <g id="line2d_4">
      <g>
       <use xlink:href="#mf75d0c6ace" x="199.30192" y="179.44" style="stroke: #000000; stroke-width: 0.8"/>
      </g>
     </g>
     <g id="text_4">
      <text style="font: 10px 'sans-serif'; text-anchor: middle" x="199.30192" y="194.038437" transform="rotate(-0, 199.30192, 194.038437)">750</text>
     </g>
    </g>
    <g id="xtick_5">
     <g id="line2d_5">
      <g>
       <use xlink:href="#mf75d0c6ace" x="253.727491" y="179.44" style="stroke: #000000; stroke-width: 0.8"/>
      </g>
     </g>
     <g id="text_5">
      <text style="font: 10px 'sans-serif'; text-anchor: middle" x="253.727491" y="194.038437" transform="rotate(-0, 253.727491, 194.038437)">1000</text>
     </g>
    </g>
    <g id="xtick_6">
     <g id="line2d_6">
      <g>
       <use xlink:href="#mf75d0c6ace" x="308.153061" y="179.44" style="stroke: #000000; stroke-width: 0.8"/>
      </g>
     </g>
     <g id="text_6">
      <text style="font: 10px 'sans-serif'; text-anchor: middle" x="308.153061" y="194.038437" transform="rotate(-0, 308.153061, 194.038437)">1250</text>
     </g>
    </g>
    <g id="xtick_7">
     <g id="line2d_7">
      <g>
       <use xlink:href="#mf75d0c6ace" x="362.578631" y="179.44" style="stroke: #000000; stroke-width: 0.8"/>
      </g>
     </g>
     <g id="text_7">
      <text style="font: 10px 'sans-serif'; text-anchor: middle" x="362.578631" y="194.038437" transform="rotate(-0, 362.578631, 194.038437)">1500</text>
     </g>
    </g>
    <g id="xtick_8">
     <g id="line2d_8">
      <g>
       <use xlink:href="#mf75d0c6ace" x="417.004202" y="179.44" style="stroke: #000000; stroke-width: 0.8"/>
      </g>
     </g>
     <g id="text_8">
      <text style="font: 10px 'sans-serif'; text-anchor: middle" x="417.004202" y="194.038437" transform="rotate(-0, 417.004202, 194.038437)">1750</text>
     </g>
    </g>
    <g id="xtick_9">
     <g id="line2d_9">
      <g>
       <use xlink:href="#mf75d0c6ace" x="471.429772" y="179.44" style="stroke: #000000; stroke-width: 0.8"/>
      </g>
     </g>
     <g id="text_9">
      <text style="font: 10px 'sans-serif'; text-anchor: middle" x="471.429772" y="194.038437" transform="rotate(-0, 471.429772, 194.038437)">2000</text>
     </g>
    </g>
    <g id="text_10">
     <text style="font: 10px 'sans-serif'; text-anchor: middle" x="264.612605" y="207.716562" transform="rotate(-0, 264.612605, 207.716562)">Epoch</text>
    </g>
   </g>
   <g id="matplotlib.axis_2">
    <g id="ytick_1">
     <g id="line2d_10">
      <defs>
       <path id="m8a4225ace3" d="M 0 0 
L -3.5 0 
" style="stroke: #000000; stroke-width: 0.8"/>
      </defs>
      <g>
       <use xlink:href="#m8a4225ace3" x="36.025209" y="161.33325" style="stroke: #000000; stroke-width: 0.8"/>
      </g>
     </g>
     <g id="text_11">
      <!-- $\mathdefault{10^{0}}$ -->
      <g transform="translate(11.425209 165.132469)">
       <text>
        <tspan style="font: 10px 'DejaVu Sans'" x="0 6.362305" y="-0.9765625">10</tspan>
        <tspan style="font: 7px 'DejaVu Sans'" x="12.820312" y="-4.8046875">0</tspan>
       </text>
      </g>
     </g>
    </g>
    <g id="ytick_2">
     <g id="line2d_11">
      <g>
       <use xlink:href="#m8a4225ace3" x="36.025209" y="115.112565" style="stroke: #000000; stroke-width: 0.8"/>
      </g>
     </g>
     <g id="text_12">
      <!-- $\mathdefault{10^{1}}$ -->
      <g transform="translate(11.425209 118.911783)">
       <text>
        <tspan style="font: 10px 'DejaVu Sans'" x="0 6.362305" y="-0.06406250000000036">10</tspan>
        <tspan style="font: 7px 'DejaVu Sans'" x="12.820312" y="-3.8921875000000004">1</tspan>
       </text>
      </g>
     </g>
    </g>
    <g id="ytick_3">
     <g id="line2d_12">
      <g>
       <use xlink:href="#m8a4225ace3" x="36.025209" y="68.89188" style="stroke: #000000; stroke-width: 0.8"/>
      </g>
     </g>
     <g id="text_13">
      <!-- $\mathdefault{10^{2}}$ -->
      <g transform="translate(11.425209 72.691098)">
       <text>
        <tspan style="font: 10px 'DejaVu Sans'" x="0 6.362305" y="-0.9765625">10</tspan>
        <tspan style="font: 7px 'DejaVu Sans'" x="12.820312" y="-4.8046875">2</tspan>
       </text>
      </g>
     </g>
    </g>
    <g id="ytick_4">
     <g id="line2d_13">
      <defs>
       <path id="me36a895cdd" d="M 0 0 
L -2 0 
" style="stroke: #000000; stroke-width: 0.6"/>
      </defs>
      <g>
       <use xlink:href="#me36a895cdd" x="36.025209" y="175.247063" style="stroke: #000000; stroke-width: 0.6"/>
      </g>
     </g>
    </g>
    <g id="ytick_5">
     <g id="line2d_14">
      <g>
       <use xlink:href="#me36a895cdd" x="36.025209" y="171.587251" style="stroke: #000000; stroke-width: 0.6"/>
      </g>
     </g>
    </g>
    <g id="ytick_6">
     <g id="line2d_15">
      <g>
       <use xlink:href="#me36a895cdd" x="36.025209" y="168.492925" style="stroke: #000000; stroke-width: 0.6"/>
      </g>
     </g>
    </g>
    <g id="ytick_7">
     <g id="line2d_16">
      <g>
       <use xlink:href="#me36a895cdd" x="36.025209" y="165.812497" style="stroke: #000000; stroke-width: 0.6"/>
      </g>
     </g>
    </g>
    <g id="ytick_8">
     <g id="line2d_17">
      <g>
       <use xlink:href="#me36a895cdd" x="36.025209" y="163.448193" style="stroke: #000000; stroke-width: 0.6"/>
      </g>
     </g>
    </g>
    <g id="ytick_9">
     <g id="line2d_18">
      <g>
       <use xlink:href="#me36a895cdd" x="36.025209" y="147.419437" style="stroke: #000000; stroke-width: 0.6"/>
      </g>
     </g>
    </g>
    <g id="ytick_10">
     <g id="line2d_19">
      <g>
       <use xlink:href="#me36a895cdd" x="36.025209" y="139.280379" style="stroke: #000000; stroke-width: 0.6"/>
      </g>
     </g>
    </g>
    <g id="ytick_11">
     <g id="line2d_20">
      <g>
       <use xlink:href="#me36a895cdd" x="36.025209" y="133.505625" style="stroke: #000000; stroke-width: 0.6"/>
      </g>
     </g>
    </g>
    <g id="ytick_12">
     <g id="line2d_21">
      <g>
       <use xlink:href="#me36a895cdd" x="36.025209" y="129.026377" style="stroke: #000000; stroke-width: 0.6"/>
      </g>
     </g>
    </g>
    <g id="ytick_13">
     <g id="line2d_22">
      <g>
       <use xlink:href="#me36a895cdd" x="36.025209" y="125.366566" style="stroke: #000000; stroke-width: 0.6"/>
      </g>
     </g>
    </g>
    <g id="ytick_14">
     <g id="line2d_23">
      <g>
       <use xlink:href="#me36a895cdd" x="36.025209" y="122.272239" style="stroke: #000000; stroke-width: 0.6"/>
      </g>
     </g>
    </g>
    <g id="ytick_15">
     <g id="line2d_24">
      <g>
       <use xlink:href="#me36a895cdd" x="36.025209" y="119.591812" style="stroke: #000000; stroke-width: 0.6"/>
      </g>
     </g>
    </g>
    <g id="ytick_16">
     <g id="line2d_25">
      <g>
       <use xlink:href="#me36a895cdd" x="36.025209" y="117.227507" style="stroke: #000000; stroke-width: 0.6"/>
      </g>
     </g>
    </g>
    <g id="ytick_17">
     <g id="line2d_26">
      <g>
       <use xlink:href="#me36a895cdd" x="36.025209" y="101.198752" style="stroke: #000000; stroke-width: 0.6"/>
      </g>
     </g>
    </g>
    <g id="ytick_18">
     <g id="line2d_27">
      <g>
       <use xlink:href="#me36a895cdd" x="36.025209" y="93.059693" style="stroke: #000000; stroke-width: 0.6"/>
      </g>
     </g>
    </g>
    <g id="ytick_19">
     <g id="line2d_28">
      <g>
       <use xlink:href="#me36a895cdd" x="36.025209" y="87.284939" style="stroke: #000000; stroke-width: 0.6"/>
      </g>
     </g>
    </g>
    <g id="ytick_20">
     <g id="line2d_29">
      <g>
       <use xlink:href="#me36a895cdd" x="36.025209" y="82.805692" style="stroke: #000000; stroke-width: 0.6"/>
      </g>
     </g>
    </g>
    <g id="ytick_21">
     <g id="line2d_30">
      <g>
       <use xlink:href="#me36a895cdd" x="36.025209" y="79.145881" style="stroke: #000000; stroke-width: 0.6"/>
      </g>
     </g>
    </g>
    <g id="ytick_22">
     <g id="line2d_31">
      <g>
       <use xlink:href="#me36a895cdd" x="36.025209" y="76.051554" style="stroke: #000000; stroke-width: 0.6"/>
      </g>
     </g>
    </g>
    <g id="ytick_23">
     <g id="line2d_32">
      <g>
       <use xlink:href="#me36a895cdd" x="36.025209" y="73.371127" style="stroke: #000000; stroke-width: 0.6"/>
      </g>
     </g>
    </g>
    <g id="ytick_24">
     <g id="line2d_33">
      <g>
       <use xlink:href="#me36a895cdd" x="36.025209" y="71.006822" style="stroke: #000000; stroke-width: 0.6"/>
      </g>
     </g>
    </g>
    <g id="ytick_25">
     <g id="line2d_34">
      <g>
       <use xlink:href="#me36a895cdd" x="36.025209" y="54.978067" style="stroke: #000000; stroke-width: 0.6"/>
      </g>
     </g>
    </g>
    <g id="ytick_26">
     <g id="line2d_35">
      <g>
       <use xlink:href="#me36a895cdd" x="36.025209" y="46.839008" style="stroke: #000000; stroke-width: 0.6"/>
      </g>
     </g>
    </g>
    <g id="ytick_27">
     <g id="line2d_36">
      <g>
       <use xlink:href="#me36a895cdd" x="36.025209" y="41.064254" style="stroke: #000000; stroke-width: 0.6"/>
      </g>
     </g>
    </g>
    <g id="ytick_28">
     <g id="line2d_37">
      <g>
       <use xlink:href="#me36a895cdd" x="36.025209" y="36.585007" style="stroke: #000000; stroke-width: 0.6"/>
      </g>
     </g>
    </g>
    <g id="ytick_29">
     <g id="line2d_38">
      <g>
       <use xlink:href="#me36a895cdd" x="36.025209" y="32.925196" style="stroke: #000000; stroke-width: 0.6"/>
      </g>
     </g>
    </g>
    <g id="ytick_30">
     <g id="line2d_39">
      <g>
       <use xlink:href="#me36a895cdd" x="36.025209" y="29.830869" style="stroke: #000000; stroke-width: 0.6"/>
      </g>
     </g>
    </g>
   </g>
   <g id="line2d_40">
    <path d="M 36.025209 34.505236 
L 46.910323 77.994423 
L 57.795437 78.911433 
L 68.680551 79.253795 
L 79.565665 79.449957 
L 90.45078 79.583368 
L 101.335894 79.741205 
L 112.221008 81.519036 
L 123.106122 87.808527 
L 133.991236 92.590429 
L 144.87635 101.960423 
L 155.761464 109.039277 
L 166.646578 113.790626 
L 177.531692 117.138053 
L 188.416806 119.924112 
L 199.30192 122.485583 
L 210.187034 124.87669 
L 221.072148 126.904331 
L 231.957262 128.639494 
L 242.842376 130.232341 
L 253.727491 131.690159 
L 264.612605 133.089845 
L 275.497719 134.481639 
L 286.382833 135.857144 
L 297.267947 137.202109 
L 308.153061 138.559881 
L 319.038175 139.862317 
L 329.923289 141.100131 
L 340.808403 142.281383 
L 351.693517 143.402353 
L 362.578631 144.465004 
L 373.463745 145.490535 
L 384.348859 146.504192 
L 395.233973 147.513783 
L 406.119087 148.508931 
L 417.004202 149.48007 
L 427.889316 150.416625 
L 438.77443 151.321334 
L 449.659544 152.216671 
L 460.544658 153.111692 
L 471.429772 153.996762 
L 482.314886 154.868967 
L 493.2 155.73134 
L 504.085114 156.579045 
L 505 156.649985 
" clip-path="url(#p26f5c6486d)" style="fill: none; stroke: #d4cc20; stroke-width: 1.5; stroke-linecap: square"/>
   </g>
   <g id="line2d_41">
    <path d="M 79.565665 179.44 
L 79.565665 27.6 
" clip-path="url(#p26f5c6486d)" style="fill: none; stroke-dasharray: 1.85,0.8; stroke-dashoffset: 0; stroke: #000000; stroke-width: 0.5"/>
   </g>
   <g id="line2d_42">
    <path d="M 144.87635 179.44 
L 144.87635 27.6 
" clip-path="url(#p26f5c6486d)" style="fill: none; stroke-dasharray: 1.85,0.8; stroke-dashoffset: 0; stroke: #000000; stroke-width: 0.5"/>
   </g>
   <g id="line2d_43">
    <path d="M 384.348859 179.44 
L 384.348859 27.6 
" clip-path="url(#p26f5c6486d)" style="fill: none; stroke-dasharray: 1.85,0.8; stroke-dashoffset: 0; stroke: #000000; stroke-width: 0.5"/>
   </g>
   <g id="line2d_44">
    <path d="M 36.025209 34.505475 
L 46.910323 89.64457 
L 57.795437 91.799712 
L 68.680551 92.723703 
L 79.565665 93.301769 
L 90.45078 93.839177 
L 101.335894 95.057699 
L 112.221008 96.732753 
L 123.106122 97.78718 
L 133.991236 103.686238 
L 144.87635 118.166788 
L 155.761464 131.520041 
L 166.646578 139.939159 
L 177.531692 144.569865 
L 188.416806 147.436235 
L 199.30192 149.849171 
L 210.187034 151.989542 
L 221.072148 153.930287 
L 231.957262 155.713655 
L 242.842376 157.36938 
L 253.727491 158.919386 
L 264.612605 160.379994 
L 275.497719 161.763552 
L 286.382833 163.079605 
L 297.267947 164.335772 
L 308.153061 165.538286 
L 319.038175 166.692338 
L 329.923289 167.802266 
L 340.808403 168.871738 
L 351.693517 169.903919 
L 362.578631 170.901564 
L 373.463745 171.867065 
L 384.348859 172.802512 
L 395.233973 173.709693 
L 406.119087 174.590196 
L 417.004202 175.44539 
L 427.889316 176.276537 
L 438.77443 177.084782 
L 449.659544 177.871183 
L 460.544658 178.636764 
L 471.429772 179.382455 
L 482.314886 180.109181 
L 493.2 180.817759 
L 504.085114 181.508961 
L 505 181.565659 
" clip-path="url(#p26f5c6486d)" style="fill: none; stroke: #34ad6f; stroke-width: 1.5; stroke-linecap: square"/>
   </g>
   <g id="line2d_45">
    <path d="M 79.565665 179.44 
L 79.565665 27.6 
" clip-path="url(#p26f5c6486d)" style="fill: none; stroke-dasharray: 1.85,0.8; stroke-dashoffset: 0; stroke: #000000; stroke-width: 0.5"/>
   </g>
   <g id="line2d_46">
    <path d="M 144.87635 179.44 
L 144.87635 27.6 
" clip-path="url(#p26f5c6486d)" style="fill: none; stroke-dasharray: 1.85,0.8; stroke-dashoffset: 0; stroke: #000000; stroke-width: 0.5"/>
   </g>
   <g id="line2d_47">
    <path d="M 384.348859 179.44 
L 384.348859 27.6 
" clip-path="url(#p26f5c6486d)" style="fill: none; stroke-dasharray: 1.85,0.8; stroke-dashoffset: 0; stroke: #000000; stroke-width: 0.5"/>
   </g>
   <g id="patch_3">
    <path d="M 36.025209 179.44 
L 36.025209 27.6 
" style="fill: none; stroke: #000000; stroke-width: 0.8; stroke-linejoin: miter; stroke-linecap: square"/>
   </g>
   <g id="patch_4">
    <path d="M 493.2 179.44 
L 493.2 27.6 
" style="fill: none; stroke: #000000; stroke-width: 0.8; stroke-linejoin: miter; stroke-linecap: square"/>
   </g>
   <g id="patch_5">
    <path d="M 36.025209 179.44 
L 493.2 179.44 
" style="fill: none; stroke: #000000; stroke-width: 0.8; stroke-linejoin: miter; stroke-linecap: square"/>
   </g>
   <g id="patch_6">
    <path d="M 36.025209 27.6 
L 493.2 27.6 
" style="fill: none; stroke: #000000; stroke-width: 0.8; stroke-linejoin: miter; stroke-linecap: square"/>
   </g>
   <g id="text_14">
    <text style="font: 14.4px 'sans-serif'; text-anchor: middle" x="264.612605" y="21.6" transform="rotate(-0, 264.612605, 21.6)">Loss</text>
   </g>
   <g id="legend_1">
    <g id="patch_7">
     <path d="M 405.86875 64.95625 
L 486.2 64.95625 
Q 488.2 64.95625 488.2 62.95625 
L 488.2 34.6 
Q 488.2 32.6 486.2 32.6 
L 405.86875 32.6 
Q 403.86875 32.6 403.86875 34.6 
L 403.86875 62.95625 
Q 403.86875 64.95625 405.86875 64.95625 
z
" style="fill: #ffffff; opacity: 0.8; stroke: #cccccc; stroke-linejoin: miter"/>
    </g>
    <g id="line2d_48">
     <path d="M 407.86875 40.698438 
L 417.86875 40.698438 
L 427.86875 40.698438 
" style="fill: none; stroke: #d4cc20; stroke-width: 1.5; stroke-linecap: square"/>
    </g>
    <g id="text_15">
     <text style="font: 10px 'sans-serif'; text-anchor: start" x="435.86875" y="44.198438" transform="rotate(-0, 435.86875, 44.198438)">Hierarchy</text>
    </g>
    <g id="line2d_49">
     <path d="M 407.86875 55.376563 
L 417.86875 55.376563 
L 427.86875 55.376563 
" style="fill: none; stroke: #34ad6f; stroke-width: 1.5; stroke-linecap: square"/>
    </g>
    <g id="text_16">
     <text style="font: 10px 'sans-serif'; text-anchor: start" x="435.86875" y="58.876563" transform="rotate(-0, 435.86875, 58.876563)">Ordering</text>
    </g>
   </g>
  </g>
  <g id="axes_2">
   <g id="patch_8">
    <path d="M 36.025209 390.04 
L 493.2 390.04 
L 493.2 238.2 
L 36.025209 238.2 
z
" style="fill: #ffffff"/>
   </g>
   <g id="PolyCollection_3">
    <path d="M 36.025209 380.248346 
L 36.025209 383.138182 
L 46.910323 369.338343 
L 57.795437 371.45638 
L 68.680551 371.45638 
L 79.565665 371.45638 
L 90.45078 371.45638 
L 101.335894 371.647562 
L 112.221008 358.04272 
L 123.106122 323.260182 
L 133.991236 309.866575 
L 144.87635 281.579528 
L 155.761464 271.049698 
L 166.646578 261.975235 
L 177.531692 257.767894 
L 188.416806 255.537368 
L 199.30192 254.325055 
L 210.187034 253.402075 
L 221.072148 252.606802 
L 231.957262 251.608581 
L 242.842376 250.989133 
L 253.727491 250.391611 
L 264.612605 249.753945 
L 275.497719 249.176123 
L 286.382833 248.724608 
L 297.267947 248.424329 
L 308.153061 248.14879 
L 319.038175 247.917577 
L 329.923289 247.774714 
L 340.808403 247.634485 
L 351.693517 247.529182 
L 362.578631 247.390863 
L 373.463745 247.26882 
L 384.348859 247.172893 
L 395.233973 247.01082 
L 406.119087 246.875773 
L 417.004202 246.762922 
L 427.889316 246.688159 
L 438.77443 246.592765 
L 449.659544 246.507704 
L 460.544658 246.4174 
L 471.429772 246.335533 
L 482.314886 246.260331 
L 493.2 246.191973 
L 504.085114 246.149881 
L 514.970228 246.092902 
L 525.855342 246.009918 
L 536.740456 245.96525 
L 547.62557 245.906931 
L 558.510684 245.859149 
L 569.395798 245.810372 
L 580.280913 245.743955 
L 591.166027 245.689853 
L 602.051141 245.650611 
L 612.936255 245.59913 
L 623.821369 245.52468 
L 634.706483 245.479693 
L 645.591597 245.454918 
L 656.476711 245.439602 
L 667.361825 245.387677 
L 678.246939 245.359291 
L 689.132053 245.31372 
L 689.132053 245.101818 
L 689.132053 245.101818 
L 678.246939 245.140285 
L 667.361825 245.162589 
L 656.476711 245.20893 
L 645.591597 245.222516 
L 634.706483 245.241761 
L 623.821369 245.273919 
L 612.936255 245.318412 
L 602.051141 245.366975 
L 591.166027 245.405991 
L 580.280913 245.458381 
L 569.395798 245.525357 
L 558.510684 245.575291 
L 547.62557 245.620441 
L 536.740456 245.67484 
L 525.855342 245.714877 
L 514.970228 245.770398 
L 504.085114 245.827248 
L 493.2 245.872307 
L 482.314886 245.940011 
L 471.429772 246.035107 
L 460.544658 246.121983 
L 449.659544 246.213094 
L 438.77443 246.296332 
L 427.889316 246.364342 
L 417.004202 246.445651 
L 406.119087 246.550675 
L 395.233973 246.671297 
L 384.348859 246.812029 
L 373.463745 246.899962 
L 362.578631 247.010025 
L 351.693517 247.146274 
L 340.808403 247.24862 
L 329.923289 247.363172 
L 319.038175 247.492206 
L 308.153061 247.671845 
L 297.267947 247.918541 
L 286.382833 248.199191 
L 275.497719 248.600061 
L 264.612605 249.104725 
L 253.727491 249.748526 
L 242.842376 250.321752 
L 231.957262 250.903514 
L 221.072148 251.852165 
L 210.187034 252.636271 
L 199.30192 253.566568 
L 188.416806 254.677747 
L 177.531692 255.922559 
L 166.646578 258.483593 
L 155.761464 264.981464 
L 144.87635 273.271652 
L 133.991236 300.942433 
L 123.106122 316.65569 
L 112.221008 351.013129 
L 101.335894 370.046739 
L 90.45078 369.866642 
L 79.565665 369.866642 
L 68.680551 369.866642 
L 57.795437 369.866642 
L 46.910323 367.534674 
L 36.025209 380.248346 
z
" clip-path="url(#pb907f6f1c5)" style="fill: #d4cc20; fill-opacity: 0.3; stroke: #d4cc20; stroke-opacity: 0.3"/>
   </g>
   <g id="PolyCollection_4">
    <path d="M 36.025209 381.837497 
L 36.025209 386.467769 
L 46.910323 346.045282 
L 57.795437 346.045282 
L 68.680551 346.045282 
L 79.565665 359.061257 
L 90.45078 359.061257 
L 101.335894 359.061257 
L 112.221008 352.014318 
L 123.106122 341.152747 
L 133.991236 311.434243 
L 144.87635 270.348744 
L 155.761464 253.415494 
L 166.646578 247.621396 
L 177.531692 245.069474 
L 188.416806 244.771595 
L 199.30192 244.722202 
L 210.187034 244.722202 
L 221.072148 244.722202 
L 231.957262 244.722202 
L 242.842376 244.722202 
L 253.727491 244.722202 
L 264.612605 244.722202 
L 275.497719 244.722202 
L 286.382833 244.722202 
L 297.267947 244.722202 
L 308.153061 244.722202 
L 319.038175 244.722202 
L 329.923289 244.722202 
L 340.808403 244.722202 
L 351.693517 244.722202 
L 362.578631 244.722202 
L 373.463745 244.722202 
L 384.348859 244.722202 
L 395.233973 244.722202 
L 406.119087 244.722202 
L 417.004202 244.722202 
L 427.889316 244.722202 
L 438.77443 244.722202 
L 449.659544 244.722202 
L 460.544658 244.722202 
L 471.429772 244.722202 
L 482.314886 244.722202 
L 493.2 244.722202 
L 504.085114 244.722202 
L 514.970228 244.722202 
L 525.855342 244.722202 
L 536.740456 244.722202 
L 547.62557 244.722202 
L 558.510684 244.722202 
L 569.395798 244.722202 
L 580.280913 244.722202 
L 591.166027 244.722202 
L 602.051141 244.722202 
L 612.936255 244.722202 
L 623.821369 244.722202 
L 634.706483 244.722202 
L 645.591597 244.722202 
L 656.476711 244.722202 
L 667.361825 244.722202 
L 678.246939 244.722202 
L 689.132053 244.722202 
L 689.132053 244.722202 
L 689.132053 244.722202 
L 678.246939 244.722202 
L 667.361825 244.722202 
L 656.476711 244.722202 
L 645.591597 244.722202 
L 634.706483 244.722202 
L 623.821369 244.722202 
L 612.936255 244.722202 
L 602.051141 244.722202 
L 591.166027 244.722202 
L 580.280913 244.722202 
L 569.395798 244.722202 
L 558.510684 244.722202 
L 547.62557 244.722202 
L 536.740456 244.722202 
L 525.855342 244.722202 
L 514.970228 244.722202 
L 504.085114 244.722202 
L 493.2 244.722202 
L 482.314886 244.722202 
L 471.429772 244.722202 
L 460.544658 244.722202 
L 449.659544 244.722202 
L 438.77443 244.722202 
L 427.889316 244.722202 
L 417.004202 244.722202 
L 406.119087 244.722202 
L 395.233973 244.722202 
L 384.348859 244.722202 
L 373.463745 244.722202 
L 362.578631 244.722202 
L 351.693517 244.722202 
L 340.808403 244.722202 
L 329.923289 244.722202 
L 319.038175 244.722202 
L 308.153061 244.722202 
L 297.267947 244.722202 
L 286.382833 244.722202 
L 275.497719 244.722202 
L 264.612605 244.722202 
L 253.727491 244.722202 
L 242.842376 244.722202 
L 231.957262 244.722202 
L 221.072148 244.722202 
L 210.187034 244.722202 
L 199.30192 244.722202 
L 188.416806 244.71416 
L 177.531692 244.891828 
L 166.646578 245.580912 
L 155.761464 247.091213 
L 144.87635 259.140518 
L 133.991236 299.088306 
L 123.106122 335.974354 
L 112.221008 348.256587 
L 101.335894 355.373831 
L 90.45078 355.373831 
L 79.565665 355.373831 
L 68.680551 341.424566 
L 57.795437 341.424566 
L 46.910323 341.424566 
L 36.025209 381.837497 
z
" clip-path="url(#pb907f6f1c5)" style="fill: #34ad6f; fill-opacity: 0.3; stroke: #34ad6f; stroke-opacity: 0.3"/>
   </g>
   <g id="matplotlib.axis_3">
    <g id="xtick_10">
     <g id="line2d_50">
      <g>
       <use xlink:href="#mf75d0c6ace" x="36.025209" y="390.04" style="stroke: #000000; stroke-width: 0.8"/>
      </g>
     </g>
     <g id="text_17">
      <text style="font: 10px 'sans-serif'; text-anchor: middle" x="36.025209" y="404.638438" transform="rotate(-0, 36.025209, 404.638438)">0</text>
     </g>
    </g>
    <g id="xtick_11">
     <g id="line2d_51">
      <g>
       <use xlink:href="#mf75d0c6ace" x="90.45078" y="390.04" style="stroke: #000000; stroke-width: 0.8"/>
      </g>
     </g>
     <g id="text_18">
      <text style="font: 10px 'sans-serif'; text-anchor: middle" x="90.45078" y="404.638438" transform="rotate(-0, 90.45078, 404.638438)">250</text>
     </g>
    </g>
    <g id="xtick_12">
     <g id="line2d_52">
      <g>
       <use xlink:href="#mf75d0c6ace" x="144.87635" y="390.04" style="stroke: #000000; stroke-width: 0.8"/>
      </g>
     </g>
     <g id="text_19">
      <text style="font: 10px 'sans-serif'; text-anchor: middle" x="144.87635" y="404.638438" transform="rotate(-0, 144.87635, 404.638438)">500</text>
     </g>
    </g>
    <g id="xtick_13">
     <g id="line2d_53">
      <g>
       <use xlink:href="#mf75d0c6ace" x="199.30192" y="390.04" style="stroke: #000000; stroke-width: 0.8"/>
      </g>
     </g>
     <g id="text_20">
      <text style="font: 10px 'sans-serif'; text-anchor: middle" x="199.30192" y="404.638438" transform="rotate(-0, 199.30192, 404.638438)">750</text>
     </g>
    </g>
    <g id="xtick_14">
     <g id="line2d_54">
      <g>
       <use xlink:href="#mf75d0c6ace" x="253.727491" y="390.04" style="stroke: #000000; stroke-width: 0.8"/>
      </g>
     </g>
     <g id="text_21">
      <text style="font: 10px 'sans-serif'; text-anchor: middle" x="253.727491" y="404.638438" transform="rotate(-0, 253.727491, 404.638438)">1000</text>
     </g>
    </g>
    <g id="xtick_15">
     <g id="line2d_55">
      <g>
       <use xlink:href="#mf75d0c6ace" x="308.153061" y="390.04" style="stroke: #000000; stroke-width: 0.8"/>
      </g>
     </g>
     <g id="text_22">
      <text style="font: 10px 'sans-serif'; text-anchor: middle" x="308.153061" y="404.638438" transform="rotate(-0, 308.153061, 404.638438)">1250</text>
     </g>
    </g>
    <g id="xtick_16">
     <g id="line2d_56">
      <g>
       <use xlink:href="#mf75d0c6ace" x="362.578631" y="390.04" style="stroke: #000000; stroke-width: 0.8"/>
      </g>
     </g>
     <g id="text_23">
      <text style="font: 10px 'sans-serif'; text-anchor: middle" x="362.578631" y="404.638438" transform="rotate(-0, 362.578631, 404.638438)">1500</text>
     </g>
    </g>
    <g id="xtick_17">
     <g id="line2d_57">
      <g>
       <use xlink:href="#mf75d0c6ace" x="417.004202" y="390.04" style="stroke: #000000; stroke-width: 0.8"/>
      </g>
     </g>
     <g id="text_24">
      <text style="font: 10px 'sans-serif'; text-anchor: middle" x="417.004202" y="404.638438" transform="rotate(-0, 417.004202, 404.638438)">1750</text>
     </g>
    </g>
    <g id="xtick_18">
     <g id="line2d_58">
      <g>
       <use xlink:href="#mf75d0c6ace" x="471.429772" y="390.04" style="stroke: #000000; stroke-width: 0.8"/>
      </g>
     </g>
     <g id="text_25">
      <text style="font: 10px 'sans-serif'; text-anchor: middle" x="471.429772" y="404.638438" transform="rotate(-0, 471.429772, 404.638438)">2000</text>
     </g>
    </g>
    <g id="text_26">
     <text style="font: 10px 'sans-serif'; text-anchor: middle" x="264.612605" y="418.316562" transform="rotate(-0, 264.612605, 418.316562)">Epoch</text>
    </g>
   </g>
   <g id="matplotlib.axis_4">
    <g id="ytick_31">
     <g id="line2d_59">
      <g>
       <use xlink:href="#m8a4225ace3" x="36.025209" y="382.561983" style="stroke: #000000; stroke-width: 0.8"/>
      </g>
     </g>
     <g id="text_27">
      <text style="font: 10px 'sans-serif'; text-anchor: end" x="29.025209" y="386.361202" transform="rotate(-0, 29.025209, 386.361202)">0.5</text>
     </g>
    </g>
    <g id="ytick_32">
     <g id="line2d_60">
      <g>
       <use xlink:href="#m8a4225ace3" x="36.025209" y="354.994027" style="stroke: #000000; stroke-width: 0.8"/>
      </g>
     </g>
     <g id="text_28">
      <text style="font: 10px 'sans-serif'; text-anchor: end" x="29.025209" y="358.793245" transform="rotate(-0, 29.025209, 358.793245)">0.6</text>
     </g>
    </g>
    <g id="ytick_33">
     <g id="line2d_61">
      <g>
       <use xlink:href="#m8a4225ace3" x="36.025209" y="327.42607" style="stroke: #000000; stroke-width: 0.8"/>
      </g>
     </g>
     <g id="text_29">
      <text style="font: 10px 'sans-serif'; text-anchor: end" x="29.025209" y="331.225289" transform="rotate(-0, 29.025209, 331.225289)">0.7</text>
     </g>
    </g>
    <g id="ytick_34">
     <g id="line2d_62">
      <g>
       <use xlink:href="#m8a4225ace3" x="36.025209" y="299.858114" style="stroke: #000000; stroke-width: 0.8"/>
      </g>
     </g>
     <g id="text_30">
      <text style="font: 10px 'sans-serif'; text-anchor: end" x="29.025209" y="303.657333" transform="rotate(-0, 29.025209, 303.657333)">0.8</text>
     </g>
    </g>
    <g id="ytick_35">
     <g id="line2d_63">
      <g>
       <use xlink:href="#m8a4225ace3" x="36.025209" y="272.290158" style="stroke: #000000; stroke-width: 0.8"/>
      </g>
     </g>
     <g id="text_31">
      <text style="font: 10px 'sans-serif'; text-anchor: end" x="29.025209" y="276.089377" transform="rotate(-0, 29.025209, 276.089377)">0.9</text>
     </g>
    </g>
    <g id="ytick_36">
     <g id="line2d_64">
      <g>
       <use xlink:href="#m8a4225ace3" x="36.025209" y="244.722202" style="stroke: #000000; stroke-width: 0.8"/>
      </g>
     </g>
     <g id="text_32">
      <text style="font: 10px 'sans-serif'; text-anchor: end" x="29.025209" y="248.52142" transform="rotate(-0, 29.025209, 248.52142)">1.0</text>
     </g>
    </g>
   </g>
   <g id="line2d_65">
    <path d="M 36.025209 381.693264 
L 46.910323 368.436508 
L 57.795437 370.661511 
L 68.680551 370.661511 
L 79.565665 370.661511 
L 90.45078 370.661511 
L 101.335894 370.84715 
L 112.221008 354.527924 
L 123.106122 319.957936 
L 133.991236 305.404504 
L 144.87635 277.42559 
L 155.761464 268.015581 
L 166.646578 260.229414 
L 177.531692 256.845226 
L 188.416806 255.107557 
L 199.30192 253.945812 
L 210.187034 253.019173 
L 221.072148 252.229484 
L 231.957262 251.256047 
L 242.842376 250.655443 
L 253.727491 250.070069 
L 264.612605 249.429335 
L 275.497719 248.888092 
L 286.382833 248.461899 
L 297.267947 248.171435 
L 308.153061 247.910318 
L 319.038175 247.704892 
L 329.923289 247.568943 
L 340.808403 247.441552 
L 351.693517 247.337728 
L 362.578631 247.200444 
L 373.463745 247.084391 
L 384.348859 246.992461 
L 395.233973 246.841059 
L 406.119087 246.713224 
L 417.004202 246.604286 
L 427.889316 246.526251 
L 438.77443 246.444548 
L 449.659544 246.360399 
L 460.544658 246.269691 
L 471.429772 246.18532 
L 482.314886 246.100171 
L 493.2 246.03214 
L 504.085114 245.988565 
L 505 245.983781 
" clip-path="url(#pb907f6f1c5)" style="fill: none; stroke: #d4cc20; stroke-width: 1.5; stroke-linecap: square"/>
   </g>
   <g id="line2d_66">
    <path d="M 79.565665 390.04 
L 79.565665 238.2 
" clip-path="url(#pb907f6f1c5)" style="fill: none; stroke-dasharray: 1.85,0.8; stroke-dashoffset: 0; stroke: #000000; stroke-width: 0.5"/>
   </g>
   <g id="line2d_67">
    <path d="M 144.87635 390.04 
L 144.87635 238.2 
" clip-path="url(#pb907f6f1c5)" style="fill: none; stroke-dasharray: 1.85,0.8; stroke-dashoffset: 0; stroke: #000000; stroke-width: 0.5"/>
   </g>
   <g id="line2d_68">
    <path d="M 384.348859 390.04 
L 384.348859 238.2 
" clip-path="url(#pb907f6f1c5)" style="fill: none; stroke-dasharray: 1.85,0.8; stroke-dashoffset: 0; stroke: #000000; stroke-width: 0.5"/>
   </g>
   <g id="line2d_69">
    <path d="M 36.025209 384.152633 
L 46.910323 343.734924 
L 57.795437 343.734924 
L 68.680551 343.734924 
L 79.565665 357.217544 
L 90.45078 357.217544 
L 101.335894 357.217544 
L 112.221008 350.135453 
L 123.106122 338.563551 
L 133.991236 305.261274 
L 144.87635 264.744631 
L 155.761464 250.253354 
L 166.646578 246.601154 
L 177.531692 244.980651 
L 188.416806 244.742877 
L 199.30192 244.722202 
L 210.187034 244.722202 
L 221.072148 244.722202 
L 231.957262 244.722202 
L 242.842376 244.722202 
L 253.727491 244.722202 
L 264.612605 244.722202 
L 275.497719 244.722202 
L 286.382833 244.722202 
L 297.267947 244.722202 
L 308.153061 244.722202 
L 319.038175 244.722202 
L 329.923289 244.722202 
L 340.808403 244.722202 
L 351.693517 244.722202 
L 362.578631 244.722202 
L 373.463745 244.722202 
L 384.348859 244.722202 
L 395.233973 244.722202 
L 406.119087 244.722202 
L 417.004202 244.722202 
L 427.889316 244.722202 
L 438.77443 244.722202 
L 449.659544 244.722202 
L 460.544658 244.722202 
L 471.429772 244.722202 
L 482.314886 244.722202 
L 493.2 244.722202 
L 504.085114 244.722202 
L 505 244.722202 
" clip-path="url(#pb907f6f1c5)" style="fill: none; stroke: #34ad6f; stroke-width: 1.5; stroke-linecap: square"/>
   </g>
   <g id="line2d_70">
    <path d="M 79.565665 390.04 
L 79.565665 238.2 
" clip-path="url(#pb907f6f1c5)" style="fill: none; stroke-dasharray: 1.85,0.8; stroke-dashoffset: 0; stroke: #000000; stroke-width: 0.5"/>
   </g>
   <g id="line2d_71">
    <path d="M 144.87635 390.04 
L 144.87635 238.2 
" clip-path="url(#pb907f6f1c5)" style="fill: none; stroke-dasharray: 1.85,0.8; stroke-dashoffset: 0; stroke: #000000; stroke-width: 0.5"/>
   </g>
   <g id="line2d_72">
    <path d="M 384.348859 390.04 
L 384.348859 238.2 
" clip-path="url(#pb907f6f1c5)" style="fill: none; stroke-dasharray: 1.85,0.8; stroke-dashoffset: 0; stroke: #000000; stroke-width: 0.5"/>
   </g>
   <g id="patch_9">
    <path d="M 36.025209 390.04 
L 36.025209 238.2 
" style="fill: none; stroke: #000000; stroke-width: 0.8; stroke-linejoin: miter; stroke-linecap: square"/>
   </g>
   <g id="patch_10">
    <path d="M 493.2 390.04 
L 493.2 238.2 
" style="fill: none; stroke: #000000; stroke-width: 0.8; stroke-linejoin: miter; stroke-linecap: square"/>
   </g>
   <g id="patch_11">
    <path d="M 36.025209 390.04 
L 493.2 390.04 
" style="fill: none; stroke: #000000; stroke-width: 0.8; stroke-linejoin: miter; stroke-linecap: square"/>
   </g>
   <g id="patch_12">
    <path d="M 36.025209 238.2 
L 493.2 238.2 
" style="fill: none; stroke: #000000; stroke-width: 0.8; stroke-linejoin: miter; stroke-linecap: square"/>
   </g>
   <g id="text_33">
    <text style="font: 14.4px 'sans-serif'; text-anchor: middle" x="264.612605" y="232.2" transform="rotate(-0, 264.612605, 232.2)">Fraction of correct output units, class-rebalanced</text>
   </g>
   <g id="legend_2">
    <g id="patch_13">
     <path d="M 405.86875 385.04 
L 486.2 385.04 
Q 488.2 385.04 488.2 383.04 
L 488.2 354.68375 
Q 488.2 352.68375 486.2 352.68375 
L 405.86875 352.68375 
Q 403.86875 352.68375 403.86875 354.68375 
L 403.86875 383.04 
Q 403.86875 385.04 405.86875 385.04 
z
" style="fill: #ffffff; opacity: 0.8; stroke: #cccccc; stroke-linejoin: miter"/>
    </g>
    <g id="line2d_73">
     <path d="M 407.86875 360.782187 
L 417.86875 360.782187 
L 427.86875 360.782187 
" style="fill: none; stroke: #d4cc20; stroke-width: 1.5; stroke-linecap: square"/>
    </g>
    <g id="text_34">
     <text style="font: 10px 'sans-serif'; text-anchor: start" x="435.86875" y="364.282187" transform="rotate(-0, 435.86875, 364.282187)">Hierarchy</text>
    </g>
    <g id="line2d_74">
     <path d="M 407.86875 375.460312 
L 417.86875 375.460312 
L 427.86875 375.460312 
" style="fill: none; stroke: #34ad6f; stroke-width: 1.5; stroke-linecap: square"/>
    </g>
    <g id="text_35">
     <text style="font: 10px 'sans-serif'; text-anchor: start" x="435.86875" y="378.960312" transform="rotate(-0, 435.86875, 378.960312)">Ordering</text>
    </g>
   </g>
  </g>
 </g>
 <defs>
  <clipPath id="p26f5c6486d">
   <rect x="36.025209" y="27.6" width="457.174791" height="151.84"/>
  </clipPath>
  <clipPath id="pb907f6f1c5">
   <rect x="36.025209" y="238.2" width="457.174791" height="151.84"/>
  </clipPath>
 </defs>
</svg>
