<?xml version="1.0" encoding="utf-8" standalone="no"?>
<!DOCTYPE svg PUBLIC "-//W3C//DTD SVG 1.1//EN"
  "http://www.w3.org/Graphics/SVG/1.1/DTD/svg11.dtd">
<svg xmlns:xlink="http://www.w3.org/1999/xlink" width="576pt" height="288pt" viewBox="0 0 576 288" xmlns="http://www.w3.org/2000/svg" version="1.1">
 <metadata>
  <rdf:RDF xmlns:dc="http://purl.org/dc/elements/1.1/" xmlns:cc="http://creativecommons.org/ns#" xmlns:rdf="http://www.w3.org/1999/02/22-rdf-syntax-ns#">
   <cc:Work>
    <dc:type rdf:resource="http://purl.org/dc/dcmitype/StillImage"/>
    <dc:date>2022-05-17T15:25:18.389783</dc:date>
    <dc:format>image/svg+xml</dc:format>
    <dc:creator>
     <cc:Agent>
      <dc:title>Matplotlib v3.5.1, https://matplotlib.org/</dc:title>
     </cc:Agent>
    </dc:creator>
   </cc:Work>
  </rdf:RDF>
 </metadata>
 <defs>
  <style type="text/css">*{stroke-linejoin: round; stroke-linecap: butt}</style>
 </defs>
 <g id="figure_1">
  <g id="patch_1">
   <path d="M 0 288 
L 576 288 
L 576 0 
L 0 0 
z
" style="fill: #ffffff"/>
  </g>
  <g id="axes_1">
   <g id="patch_2">
    <path d="M 51.05 246.04 
L 565.2 246.04 
L 565.2 25.44 
L 51.05 25.44 
z
" style="fill: #ffffff"/>
   </g>
   <g id="PolyCollection_1">
    <path d="M 51.05 35.467273 
L 51.05 47.940707 
L 75.533333 75.88421 
L 100.016667 108.968995 
L 124.5 140.413133 
L 148.983333 166.208725 
L 173.466667 179.697804 
L 197.95 187.546894 
L 222.433333 190.53871 
L 246.916667 192.004452 
L 271.4 193.574405 
L 295.883333 194.202806 
L 320.366667 194.587133 
L 344.85 195.720692 
L 369.333333 195.79089 
L 393.816667 196.901068 
L 418.3 197.140152 
L 442.783333 197.387921 
L 467.266667 199.337042 
L 491.75 199.883059 
L 516.233333 199.023061 
L 540.716667 198.649759 
L 565.2 199.35091 
L 589.683333 200.324245 
L 614.166667 198.691758 
L 638.65 198.366998 
L 663.133333 199.377542 
L 687.616667 200.822344 
L 712.1 198.099998 
L 736.583333 198.825611 
L 761.066667 201.419523 
L 785.55 200.145709 
L 785.55 188.846627 
L 785.55 188.846627 
L 761.066667 191.399627 
L 736.583333 188.022388 
L 712.1 187.527379 
L 687.616667 190.809174 
L 663.133333 189.139741 
L 638.65 188.606362 
L 614.166667 188.519129 
L 589.683333 190.403353 
L 565.2 189.740395 
L 540.716667 187.802363 
L 516.233333 189.217107 
L 491.75 189.465566 
L 467.266667 190.051171 
L 442.783333 187.06502 
L 418.3 186.705778 
L 393.816667 186.417025 
L 369.333333 184.88802 
L 344.85 184.91863 
L 320.366667 183.736307 
L 295.883333 183.896303 
L 271.4 182.512327 
L 246.916667 180.163095 
L 222.433333 180.203678 
L 197.95 176.676712 
L 173.466667 168.446582 
L 148.983333 153.960326 
L 124.5 126.945874 
L 100.016667 95.696229 
L 75.533333 62.682686 
L 51.05 35.467273 
z
" clip-path="url(#pb04ceff9df)" style="fill: #d4cc20; fill-opacity: 0.3; stroke: #d4cc20; stroke-opacity: 0.3"/>
   </g>
   <g id="PolyCollection_2">
    <path d="M 51.05 183.535773 
L 51.05 185.590116 
L 75.533333 193.543437 
L 100.016667 198.56994 
L 124.5 217.237899 
L 148.983333 182.769343 
L 173.466667 194.578217 
L 197.95 195.368865 
L 222.433333 195.152908 
L 246.916667 198.030508 
L 271.4 197.123108 
L 295.883333 198.294248 
L 320.366667 198.881713 
L 344.85 199.255468 
L 369.333333 199.29742 
L 393.816667 200.48381 
L 418.3 198.755093 
L 442.783333 200.313211 
L 467.266667 200.352799 
L 491.75 199.742711 
L 516.233333 199.770279 
L 540.716667 199.546684 
L 565.2 199.020578 
L 589.683333 200.523721 
L 614.166667 200.525237 
L 638.65 199.271342 
L 663.133333 199.590948 
L 687.616667 198.9252 
L 712.1 199.216747 
L 736.583333 201.060915 
L 761.066667 201.440606 
L 785.55 199.946097 
L 785.55 196.416156 
L 785.55 196.416156 
L 761.066667 197.158354 
L 736.583333 196.548352 
L 712.1 195.080346 
L 687.616667 195.05519 
L 663.133333 196.071922 
L 638.65 195.553587 
L 614.166667 196.226295 
L 589.683333 196.306987 
L 565.2 195.098369 
L 540.716667 195.383813 
L 516.233333 195.655064 
L 491.75 195.26696 
L 467.266667 196.068835 
L 442.783333 195.217699 
L 418.3 195.093339 
L 393.816667 195.654112 
L 369.333333 194.42565 
L 344.85 194.104715 
L 320.366667 192.974135 
L 295.883333 192.354175 
L 271.4 192.179331 
L 246.916667 192.195646 
L 222.433333 190.481068 
L 197.95 190.885318 
L 173.466667 190.270602 
L 148.983333 178.887659 
L 124.5 215.281155 
L 100.016667 196.485918 
L 75.533333 190.698369 
L 51.05 183.535773 
z
" clip-path="url(#pb04ceff9df)" style="fill: #34ad6f; fill-opacity: 0.3; stroke: #34ad6f; stroke-opacity: 0.3"/>
   </g>
   <g id="PolyCollection_3">
    <path d="M 51.05 124.03371 
L 51.05 132.478256 
L 75.533333 136.02944 
L 100.016667 152.51419 
L 124.5 157.515242 
L 148.983333 183.118957 
L 173.466667 195.47989 
L 197.95 196.19257 
L 222.433333 196.028641 
L 246.916667 197.61152 
L 271.4 197.19391 
L 295.883333 197.770323 
L 320.366667 198.940507 
L 344.85 198.942144 
L 369.333333 199.728127 
L 393.816667 199.147721 
L 418.3 201.06192 
L 442.783333 200.033958 
L 467.266667 200.32515 
L 491.75 201.18177 
L 516.233333 200.160473 
L 540.716667 201.359136 
L 565.2 200.863135 
L 589.683333 200.892296 
L 614.166667 201.775607 
L 638.65 199.91313 
L 663.133333 200.714624 
L 687.616667 201.068352 
L 712.1 200.361825 
L 736.583333 200.979811 
L 761.066667 200.733498 
L 785.55 201.832181 
L 785.55 192.497901 
L 785.55 192.497901 
L 761.066667 191.386268 
L 736.583333 191.364287 
L 712.1 189.527832 
L 687.616667 191.744201 
L 663.133333 190.989472 
L 638.65 189.785187 
L 614.166667 192.613857 
L 589.683333 191.412214 
L 565.2 191.296219 
L 540.716667 192.001047 
L 516.233333 189.953515 
L 491.75 191.808927 
L 467.266667 190.336468 
L 442.783333 189.651163 
L 418.3 191.2096 
L 393.816667 188.30729 
L 369.333333 189.270806 
L 344.85 187.641938 
L 320.366667 188.455122 
L 295.883333 187.025712 
L 271.4 186.473874 
L 246.916667 186.762246 
L 222.433333 184.914187 
L 197.95 184.895414 
L 173.466667 183.912418 
L 148.983333 170.956993 
L 124.5 144.2785 
L 100.016667 142.391285 
L 75.533333 125.391406 
L 51.05 124.03371 
z
" clip-path="url(#pb04ceff9df)" style="fill: #d4cc20; fill-opacity: 0.3; stroke: #d4cc20; stroke-opacity: 0.3"/>
   </g>
   <g id="PolyCollection_4">
    <path d="M 51.05 115.931454 
L 51.05 123.795311 
L 75.533333 170.130093 
L 100.016667 205.371263 
L 124.5 236.012727 
L 148.983333 218.703487 
L 173.466667 212.157956 
L 197.95 208.919203 
L 222.433333 207.629108 
L 246.916667 207.216118 
L 271.4 208.704596 
L 295.883333 211.259846 
L 320.366667 209.561745 
L 344.85 212.227716 
L 369.333333 212.367464 
L 393.816667 212.404365 
L 418.3 210.717548 
L 442.783333 220.285957 
L 467.266667 217.42837 
L 491.75 221.715241 
L 516.233333 222.538958 
L 540.716667 219.275838 
L 565.2 219.501027 
L 589.683333 220.642811 
L 614.166667 219.865458 
L 638.65 220.657809 
L 663.133333 223.956531 
L 687.616667 219.809829 
L 712.1 221.822572 
L 736.583333 223.947829 
L 761.066667 228.01245 
L 785.55 223.337389 
L 785.55 214.196113 
L 785.55 214.196113 
L 761.066667 218.454685 
L 736.583333 215.657431 
L 712.1 213.566593 
L 687.616667 211.376438 
L 663.133333 215.503574 
L 638.65 212.540835 
L 614.166667 212.297306 
L 589.683333 212.615215 
L 565.2 211.573075 
L 540.716667 211.791666 
L 516.233333 214.024644 
L 491.75 213.825677 
L 467.266667 210.274177 
L 442.783333 212.536603 
L 418.3 206.177546 
L 393.816667 206.912178 
L 369.333333 207.001863 
L 344.85 207.088828 
L 320.366667 205.716849 
L 295.883333 206.123497 
L 271.4 205.452345 
L 246.916667 205.007622 
L 222.433333 205.115871 
L 197.95 205.725987 
L 173.466667 208.999417 
L 148.983333 211.479891 
L 124.5 233.65942 
L 100.016667 202.392258 
L 75.533333 165.544156 
L 51.05 115.931454 
z
" clip-path="url(#pb04ceff9df)" style="fill: #34ad6f; fill-opacity: 0.3; stroke: #34ad6f; stroke-opacity: 0.3"/>
   </g>
   <g id="matplotlib.axis_1">
    <g id="xtick_1">
     <g id="line2d_1">
      <defs>
       <path id="m10c2e4622c" d="M 0 0 
L 0 3.5 
" style="stroke: #000000; stroke-width: 0.8"/>
      </defs>
      <g>
       <use xlink:href="#m10c2e4622c" x="51.05" y="246.04" style="stroke: #000000; stroke-width: 0.8"/>
      </g>
     </g>
     <g id="text_1">
      <text style="font: 10px 'sans-serif'; text-anchor: middle" x="51.05" y="260.638438" transform="rotate(-0, 51.05, 260.638438)">0</text>
     </g>
    </g>
    <g id="xtick_2">
     <g id="line2d_2">
      <g>
       <use xlink:href="#m10c2e4622c" x="112.258333" y="246.04" style="stroke: #000000; stroke-width: 0.8"/>
      </g>
     </g>
     <g id="text_2">
      <text style="font: 10px 'sans-serif'; text-anchor: middle" x="112.258333" y="260.638438" transform="rotate(-0, 112.258333, 260.638438)">250</text>
     </g>
    </g>
    <g id="xtick_3">
     <g id="line2d_3">
      <g>
       <use xlink:href="#m10c2e4622c" x="173.466667" y="246.04" style="stroke: #000000; stroke-width: 0.8"/>
      </g>
     </g>
     <g id="text_3">
      <text style="font: 10px 'sans-serif'; text-anchor: middle" x="173.466667" y="260.638438" transform="rotate(-0, 173.466667, 260.638438)">500</text>
     </g>
    </g>
    <g id="xtick_4">
     <g id="line2d_4">
      <g>
       <use xlink:href="#m10c2e4622c" x="234.675" y="246.04" style="stroke: #000000; stroke-width: 0.8"/>
      </g>
     </g>
     <g id="text_4">
      <text style="font: 10px 'sans-serif'; text-anchor: middle" x="234.675" y="260.638438" transform="rotate(-0, 234.675, 260.638438)">750</text>
     </g>
    </g>
    <g id="xtick_5">
     <g id="line2d_5">
      <g>
       <use xlink:href="#m10c2e4622c" x="295.883333" y="246.04" style="stroke: #000000; stroke-width: 0.8"/>
      </g>
     </g>
     <g id="text_5">
      <text style="font: 10px 'sans-serif'; text-anchor: middle" x="295.883333" y="260.638438" transform="rotate(-0, 295.883333, 260.638438)">1000</text>
     </g>
    </g>
    <g id="xtick_6">
     <g id="line2d_6">
      <g>
       <use xlink:href="#m10c2e4622c" x="357.091667" y="246.04" style="stroke: #000000; stroke-width: 0.8"/>
      </g>
     </g>
     <g id="text_6">
      <text style="font: 10px 'sans-serif'; text-anchor: middle" x="357.091667" y="260.638438" transform="rotate(-0, 357.091667, 260.638438)">1250</text>
     </g>
    </g>
    <g id="xtick_7">
     <g id="line2d_7">
      <g>
       <use xlink:href="#m10c2e4622c" x="418.3" y="246.04" style="stroke: #000000; stroke-width: 0.8"/>
      </g>
     </g>
     <g id="text_7">
      <text style="font: 10px 'sans-serif'; text-anchor: middle" x="418.3" y="260.638438" transform="rotate(-0, 418.3, 260.638438)">1500</text>
     </g>
    </g>
    <g id="xtick_8">
     <g id="line2d_8">
      <g>
       <use xlink:href="#m10c2e4622c" x="479.508333" y="246.04" style="stroke: #000000; stroke-width: 0.8"/>
      </g>
     </g>
     <g id="text_8">
      <text style="font: 10px 'sans-serif'; text-anchor: middle" x="479.508333" y="260.638438" transform="rotate(-0, 479.508333, 260.638438)">1750</text>
     </g>
    </g>
    <g id="xtick_9">
     <g id="line2d_9">
      <g>
       <use xlink:href="#m10c2e4622c" x="540.716667" y="246.04" style="stroke: #000000; stroke-width: 0.8"/>
      </g>
     </g>
     <g id="text_9">
      <text style="font: 10px 'sans-serif'; text-anchor: middle" x="540.716667" y="260.638438" transform="rotate(-0, 540.716667, 260.638438)">2000</text>
     </g>
    </g>
    <g id="text_10">
     <text style="font: 10px 'sans-serif'; text-anchor: middle" x="308.125" y="274.316562" transform="rotate(-0, 308.125, 274.316562)">Epochs training first 2 domains</text>
    </g>
   </g>
   <g id="matplotlib.axis_2">
    <g id="ytick_1">
     <g id="line2d_10">
      <defs>
       <path id="me9ef6952da" d="M 0 0 
L -3.5 0 
" style="stroke: #000000; stroke-width: 0.8"/>
      </defs>
      <g>
       <use xlink:href="#me9ef6952da" x="51.05" y="225.852956" style="stroke: #000000; stroke-width: 0.8"/>
      </g>
     </g>
     <g id="text_11">
      <text style="font: 10px 'sans-serif'; text-anchor: end" x="44.05" y="229.652175" transform="rotate(-0, 44.05, 229.652175)">100</text>
     </g>
    </g>
    <g id="ytick_2">
     <g id="line2d_11">
      <g>
       <use xlink:href="#me9ef6952da" x="51.05" y="192.863173" style="stroke: #000000; stroke-width: 0.8"/>
      </g>
     </g>
     <g id="text_12">
      <text style="font: 10px 'sans-serif'; text-anchor: end" x="44.05" y="196.662392" transform="rotate(-0, 44.05, 196.662392)">200</text>
     </g>
    </g>
    <g id="ytick_3">
     <g id="line2d_12">
      <g>
       <use xlink:href="#me9ef6952da" x="51.05" y="159.873391" style="stroke: #000000; stroke-width: 0.8"/>
      </g>
     </g>
     <g id="text_13">
      <text style="font: 10px 'sans-serif'; text-anchor: end" x="44.05" y="163.67261" transform="rotate(-0, 44.05, 163.67261)">300</text>
     </g>
    </g>
    <g id="ytick_4">
     <g id="line2d_13">
      <g>
       <use xlink:href="#me9ef6952da" x="51.05" y="126.883608" style="stroke: #000000; stroke-width: 0.8"/>
      </g>
     </g>
     <g id="text_14">
      <text style="font: 10px 'sans-serif'; text-anchor: end" x="44.05" y="130.682827" transform="rotate(-0, 44.05, 130.682827)">400</text>
     </g>
    </g>
    <g id="ytick_5">
     <g id="line2d_14">
      <g>
       <use xlink:href="#me9ef6952da" x="51.05" y="93.893826" style="stroke: #000000; stroke-width: 0.8"/>
      </g>
     </g>
     <g id="text_15">
      <text style="font: 10px 'sans-serif'; text-anchor: end" x="44.05" y="97.693045" transform="rotate(-0, 44.05, 97.693045)">500</text>
     </g>
    </g>
    <g id="ytick_6">
     <g id="line2d_15">
      <g>
       <use xlink:href="#me9ef6952da" x="51.05" y="60.904043" style="stroke: #000000; stroke-width: 0.8"/>
      </g>
     </g>
     <g id="text_16">
      <text style="font: 10px 'sans-serif'; text-anchor: end" x="44.05" y="64.703262" transform="rotate(-0, 44.05, 64.703262)">600</text>
     </g>
    </g>
    <g id="ytick_7">
     <g id="line2d_16">
      <g>
       <use xlink:href="#me9ef6952da" x="51.05" y="27.914261" style="stroke: #000000; stroke-width: 0.8"/>
      </g>
     </g>
     <g id="text_17">
      <text style="font: 10px 'sans-serif'; text-anchor: end" x="44.05" y="31.713479" transform="rotate(-0, 44.05, 31.713479)">700</text>
     </g>
    </g>
    <g id="text_18">
     <text style="font: 10px 'sans-serif'; text-anchor: middle" x="18.882813" y="135.74" transform="rotate(-90, 18.882813, 135.74)">Epochs to 85% on held-out domain</text>
    </g>
   </g>
   <g id="line2d_17">
    <path d="M 51.05 41.70399 
L 75.533333 69.283448 
L 100.016667 102.332612 
L 124.5 133.679504 
L 148.983333 160.084526 
L 173.466667 174.072193 
L 197.95 182.111803 
L 222.433333 185.371194 
L 246.916667 186.083773 
L 271.4 188.043366 
L 295.883333 189.049555 
L 320.366667 189.16172 
L 344.85 190.319661 
L 369.333333 190.339455 
L 393.816667 191.659046 
L 418.3 191.922965 
L 442.783333 192.226471 
L 467.266667 194.694106 
L 491.75 194.674313 
L 516.233333 194.120084 
L 540.716667 193.226061 
L 565.2 194.545652 
L 577 194.939967 
" clip-path="url(#pb04ceff9df)" style="fill: none; stroke: #d4cc20; stroke-width: 2; stroke-linecap: square"/>
   </g>
   <g id="line2d_18">
    <path d="M 51.05 41.70399 
L 75.533333 69.283448 
L 100.016667 102.332612 
L 124.5 133.679504 
L 148.983333 160.084526 
L 173.466667 174.072193 
L 197.95 182.111803 
L 222.433333 185.371194 
L 246.916667 186.083773 
L 271.4 188.043366 
L 295.883333 189.049555 
L 320.366667 189.16172 
L 344.85 190.319661 
L 369.333333 190.339455 
L 393.816667 191.659046 
L 418.3 191.922965 
L 442.783333 192.226471 
L 467.266667 194.694106 
L 491.75 194.674313 
L 516.233333 194.120084 
L 540.716667 193.226061 
L 565.2 194.545652 
L 577 194.939967 
" clip-path="url(#pb04ceff9df)" style="fill: none; stroke-dasharray: 7.4,3.2; stroke-dashoffset: 0; stroke: #d4cc20; stroke-width: 2"/>
   </g>
   <g id="line2d_19">
    <path d="M 51.05 184.562944 
L 75.533333 192.120903 
L 100.016667 197.527929 
L 124.5 216.259527 
L 148.983333 180.828501 
L 173.466667 192.424409 
L 197.95 193.127092 
L 222.433333 192.816988 
L 246.916667 195.113077 
L 271.4 194.65122 
L 295.883333 195.324211 
L 320.366667 195.927924 
L 344.85 196.680091 
L 369.333333 196.861535 
L 393.816667 198.068961 
L 418.3 196.924216 
L 442.783333 197.765455 
L 467.266667 198.210817 
L 491.75 197.504836 
L 516.233333 197.712671 
L 540.716667 197.465248 
L 565.2 197.059474 
L 577 197.712954 
" clip-path="url(#pb04ceff9df)" style="fill: none; stroke: #34ad6f; stroke-width: 2; stroke-linecap: square"/>
   </g>
   <g id="line2d_20">
    <path d="M 51.05 184.562944 
L 75.533333 192.120903 
L 100.016667 197.527929 
L 124.5 216.259527 
L 148.983333 180.828501 
L 173.466667 192.424409 
L 197.95 193.127092 
L 222.433333 192.816988 
L 246.916667 195.113077 
L 271.4 194.65122 
L 295.883333 195.324211 
L 320.366667 195.927924 
L 344.85 196.680091 
L 369.333333 196.861535 
L 393.816667 198.068961 
L 418.3 196.924216 
L 442.783333 197.765455 
L 467.266667 198.210817 
L 491.75 197.504836 
L 516.233333 197.712671 
L 540.716667 197.465248 
L 565.2 197.059474 
L 577 197.712954 
" clip-path="url(#pb04ceff9df)" style="fill: none; stroke-dasharray: 7.4,3.2; stroke-dashoffset: 0; stroke: #d4cc20; stroke-width: 2"/>
   </g>
   <g id="line2d_21">
    <path d="M 51.05 128.255983 
L 75.533333 130.710423 
L 100.016667 147.452738 
L 124.5 150.896871 
L 148.983333 177.037975 
L 173.466667 189.696154 
L 197.95 190.543992 
L 222.433333 190.471414 
L 246.916667 192.186883 
L 271.4 191.833892 
L 295.883333 192.398018 
L 320.366667 193.697815 
L 344.85 193.292041 
L 369.333333 194.499467 
L 393.816667 193.727506 
L 418.3 196.13576 
L 442.783333 194.84256 
L 467.266667 195.330809 
L 491.75 196.495349 
L 516.233333 195.056994 
L 540.716667 196.680091 
L 565.2 196.079677 
L 577 196.114657 
" clip-path="url(#pb04ceff9df)" style="fill: none; stroke: #d4cc20; stroke-width: 2; stroke-linecap: square"/>
   </g>
   <g id="line2d_22">
    <path d="M 51.05 128.255983 
L 75.533333 130.710423 
L 100.016667 147.452738 
L 124.5 150.896871 
L 148.983333 177.037975 
L 173.466667 189.696154 
L 197.95 190.543992 
L 222.433333 190.471414 
L 246.916667 192.186883 
L 271.4 191.833892 
L 295.883333 192.398018 
L 320.366667 193.697815 
L 344.85 193.292041 
L 369.333333 194.499467 
L 393.816667 193.727506 
L 418.3 196.13576 
L 442.783333 194.84256 
L 467.266667 195.330809 
L 491.75 196.495349 
L 516.233333 195.056994 
L 540.716667 196.680091 
L 565.2 196.079677 
L 577 196.114657 
" clip-path="url(#pb04ceff9df)" style="fill: none; stroke-dasharray: 7.4,3.2; stroke-dashoffset: 0; stroke: #34ad6f; stroke-width: 2"/>
   </g>
   <g id="line2d_23">
    <path d="M 51.05 119.863383 
L 75.533333 167.837124 
L 100.016667 203.881761 
L 124.5 234.836074 
L 148.983333 215.091689 
L 173.466667 210.578687 
L 197.95 207.322595 
L 222.433333 206.372489 
L 246.916667 206.11187 
L 271.4 207.078471 
L 295.883333 208.691671 
L 320.366667 207.639297 
L 344.85 209.658272 
L 369.333333 209.684664 
L 393.816667 209.658272 
L 418.3 208.447547 
L 442.783333 216.41128 
L 467.266667 213.851273 
L 491.75 217.770459 
L 516.233333 218.281801 
L 540.716667 215.533752 
L 565.2 215.537051 
L 577 216.063333 
" clip-path="url(#pb04ceff9df)" style="fill: none; stroke: #34ad6f; stroke-width: 2; stroke-linecap: square"/>
   </g>
   <g id="line2d_24">
    <path d="M 51.05 119.863383 
L 75.533333 167.837124 
L 100.016667 203.881761 
L 124.5 234.836074 
L 148.983333 215.091689 
L 173.466667 210.578687 
L 197.95 207.322595 
L 222.433333 206.372489 
L 246.916667 206.11187 
L 271.4 207.078471 
L 295.883333 208.691671 
L 320.366667 207.639297 
L 344.85 209.658272 
L 369.333333 209.684664 
L 393.816667 209.658272 
L 418.3 208.447547 
L 442.783333 216.41128 
L 467.266667 213.851273 
L 491.75 217.770459 
L 516.233333 218.281801 
L 540.716667 215.533752 
L 565.2 215.537051 
L 577 216.063333 
" clip-path="url(#pb04ceff9df)" style="fill: none; stroke-dasharray: 7.4,3.2; stroke-dashoffset: 0; stroke: #34ad6f; stroke-width: 2"/>
   </g>
   <g id="line2d_25">
    <path d="M 100.016667 246.04 
L 100.016667 25.44 
" clip-path="url(#pb04ceff9df)" style="fill: none; stroke-dasharray: 1.85,0.8; stroke-dashoffset: 0; stroke: #000000; stroke-width: 0.5"/>
   </g>
   <g id="line2d_26">
    <path d="M 173.466667 246.04 
L 173.466667 25.44 
" clip-path="url(#pb04ceff9df)" style="fill: none; stroke-dasharray: 1.85,0.8; stroke-dashoffset: 0; stroke: #000000; stroke-width: 0.5"/>
   </g>
   <g id="line2d_27">
    <path d="M 442.783333 246.04 
L 442.783333 25.44 
" clip-path="url(#pb04ceff9df)" style="fill: none; stroke-dasharray: 1.85,0.8; stroke-dashoffset: 0; stroke: #000000; stroke-width: 0.5"/>
   </g>
   <g id="patch_3">
    <path d="M 51.05 246.04 
L 51.05 25.44 
" style="fill: none; stroke: #000000; stroke-width: 0.8; stroke-linejoin: miter; stroke-linecap: square"/>
   </g>
   <g id="patch_4">
    <path d="M 565.2 246.04 
L 565.2 25.44 
" style="fill: none; stroke: #000000; stroke-width: 0.8; stroke-linejoin: miter; stroke-linecap: square"/>
   </g>
   <g id="patch_5">
    <path d="M 51.05 246.04 
L 565.2 246.04 
" style="fill: none; stroke: #000000; stroke-width: 0.8; stroke-linejoin: miter; stroke-linecap: square"/>
   </g>
   <g id="patch_6">
    <path d="M 51.05 25.44 
L 565.2 25.44 
" style="fill: none; stroke: #000000; stroke-width: 0.8; stroke-linejoin: miter; stroke-linecap: square"/>
   </g>
   <g id="text_19">
    <text style="font: 12px 'sans-serif'; text-anchor: middle" x="308.125" y="19.44" transform="rotate(-0, 308.125, 19.44)">Hierarchy and ordering: epochs to learn held-out domain</text>
   </g>
   <g id="legend_1">
    <g id="patch_7">
     <path d="M 235.596094 92.1525 
L 380.653906 92.1525 
Q 382.653906 92.1525 382.653906 90.1525 
L 382.653906 32.44 
Q 382.653906 30.44 380.653906 30.44 
L 235.596094 30.44 
Q 233.596094 30.44 233.596094 32.44 
L 233.596094 90.1525 
Q 233.596094 92.1525 235.596094 92.1525 
z
" style="fill: #ffffff; opacity: 0.8; stroke: #cccccc; stroke-linejoin: miter"/>
    </g>
    <g id="line2d_28">
     <path d="M 237.596094 38.538437 
L 247.596094 38.538437 
L 257.596094 38.538437 
" style="fill: none; stroke: #d4cc20; stroke-width: 2; stroke-linecap: square"/>
    </g>
    <g id="line2d_29">
     <path d="M 237.596094 38.538437 
L 247.596094 38.538437 
L 257.596094 38.538437 
" style="fill: none; stroke-dasharray: 7.4,3.2; stroke-dashoffset: 0; stroke: #d4cc20; stroke-width: 2"/>
    </g>
    <g id="text_20">
     <text style="font: 10px 'sans-serif'; text-anchor: start" x="265.596094" y="42.038437" transform="rotate(-0, 265.596094, 42.038437)">Hierarchy to Hierarchy</text>
    </g>
    <g id="line2d_30">
     <path d="M 237.596094 53.216562 
L 247.596094 53.216562 
L 257.596094 53.216562 
" style="fill: none; stroke: #34ad6f; stroke-width: 2; stroke-linecap: square"/>
    </g>
    <g id="line2d_31">
     <path d="M 237.596094 53.216562 
L 247.596094 53.216562 
L 257.596094 53.216562 
" style="fill: none; stroke-dasharray: 7.4,3.2; stroke-dashoffset: 0; stroke: #d4cc20; stroke-width: 2"/>
    </g>
    <g id="text_21">
     <text style="font: 10px 'sans-serif'; text-anchor: start" x="265.596094" y="56.716562" transform="rotate(-0, 265.596094, 56.716562)">Hierarchy to Ordering</text>
    </g>
    <g id="line2d_32">
     <path d="M 237.596094 67.894687 
L 247.596094 67.894687 
L 257.596094 67.894687 
" style="fill: none; stroke: #d4cc20; stroke-width: 2; stroke-linecap: square"/>
    </g>
    <g id="line2d_33">
     <path d="M 237.596094 67.894687 
L 247.596094 67.894687 
L 257.596094 67.894687 
" style="fill: none; stroke-dasharray: 7.4,3.2; stroke-dashoffset: 0; stroke: #34ad6f; stroke-width: 2"/>
    </g>
    <g id="text_22">
     <text style="font: 10px 'sans-serif'; text-anchor: start" x="265.596094" y="71.394687" transform="rotate(-0, 265.596094, 71.394687)">Ordering to Hierarchy</text>
    </g>
    <g id="line2d_34">
     <path d="M 237.596094 82.572812 
L 247.596094 82.572812 
L 257.596094 82.572812 
" style="fill: none; stroke: #34ad6f; stroke-width: 2; stroke-linecap: square"/>
    </g>
    <g id="line2d_35">
     <path d="M 237.596094 82.572812 
L 247.596094 82.572812 
L 257.596094 82.572812 
" style="fill: none; stroke-dasharray: 7.4,3.2; stroke-dashoffset: 0; stroke: #34ad6f; stroke-width: 2"/>
    </g>
    <g id="text_23">
     <text style="font: 10px 'sans-serif'; text-anchor: start" x="265.596094" y="86.072812" transform="rotate(-0, 265.596094, 86.072812)">Ordering to Ordering</text>
    </g>
   </g>
  </g>
 </g>
 <defs>
  <clipPath id="pb04ceff9df">
   <rect x="51.05" y="25.44" width="514.15" height="220.6"/>
  </clipPath>
 </defs>
</svg>
