<?xml version="1.0" encoding="utf-8" standalone="no"?>
<!DOCTYPE svg PUBLIC "-//W3C//DTD SVG 1.1//EN"
  "http://www.w3.org/Graphics/SVG/1.1/DTD/svg11.dtd">
<svg xmlns:xlink="http://www.w3.org/1999/xlink" width="576pt" height="288pt" viewBox="0 0 576 288" xmlns="http://www.w3.org/2000/svg" version="1.1">
 <metadata>
  <rdf:RDF xmlns:dc="http://purl.org/dc/elements/1.1/" xmlns:cc="http://creativecommons.org/ns#" xmlns:rdf="http://www.w3.org/1999/02/22-rdf-syntax-ns#">
   <cc:Work>
    <dc:type rdf:resource="http://purl.org/dc/dcmitype/StillImage"/>
    <dc:date>2022-05-04T23:21:37.653963</dc:date>
    <dc:format>image/svg+xml</dc:format>
    <dc:creator>
     <cc:Agent>
      <dc:title>Matplotlib v3.5.1, https://matplotlib.org/</dc:title>
     </cc:Agent>
    </dc:creator>
   </cc:Work>
  </rdf:RDF>
 </metadata>
 <defs>
  <style type="text/css">*{stroke-linejoin: round; stroke-linecap: butt}</style>
 </defs>
 <g id="figure_1">
  <g id="patch_1">
   <path d="M 0 288 
L 576 288 
L 576 0 
L 0 0 
z
" style="fill: #ffffff"/>
  </g>
  <g id="axes_1">
   <g id="patch_2">
    <path d="M 57.44 246.04 
L 565.2 246.04 
L 565.2 25.44 
L 57.44 25.44 
z
" style="fill: #ffffff"/>
   </g>
   <g id="PolyCollection_1">
    <defs>
     <path id="m138562c914" d="M 80.52 -188.754989 
L 80.52 -178.401605 
L 99.753333 -174.496311 
L 118.986667 -171.591891 
L 138.22 -188.167748 
L 157.453333 -201.787788 
L 176.686667 -194.713149 
L 195.92 -185.249407 
L 215.153333 -173.414325 
L 234.386667 -158.718677 
L 253.62 -146.745289 
L 272.853333 -129.446446 
L 292.086667 -117.641107 
L 311.32 -105.828481 
L 330.553333 -95.292814 
L 349.786667 -87.975279 
L 369.02 -81.833328 
L 388.253333 -78.982204 
L 407.486667 -72.471236 
L 426.72 -69.911388 
L 445.953333 -66.792943 
L 465.186667 -63.243858 
L 484.42 -61.631388 
L 503.653333 -59.922032 
L 522.886667 -58.092869 
L 542.12 -57.486303 
L 542.12 -63.941361 
L 542.12 -63.941361 
L 522.886667 -64.5561 
L 503.653333 -67.358587 
L 484.42 -69.344408 
L 465.186667 -70.568451 
L 445.953333 -75.918635 
L 426.72 -79.929333 
L 407.486667 -81.896233 
L 388.253333 -89.947833 
L 369.02 -94.826779 
L 349.786667 -102.110846 
L 330.553333 -117.934192 
L 311.32 -120.67935 
L 292.086667 -132.730801 
L 272.853333 -143.979504 
L 253.62 -160.688934 
L 234.386667 -170.091858 
L 215.153333 -186.493637 
L 195.92 -196.12379 
L 176.686667 -204.990738 
L 157.453333 -216.353775 
L 138.22 -205.223284 
L 118.986667 -186.482029 
L 99.753333 -188.439904 
L 80.52 -188.754989 
z
" style="stroke: #33ccff; stroke-opacity: 0.3"/>
    </defs>
    <g clip-path="url(#pff72aee3f6)">
     <use xlink:href="#m138562c914" x="0" y="288" style="fill: #33ccff; fill-opacity: 0.3; stroke: #33ccff; stroke-opacity: 0.3"/>
    </g>
   </g>
   <g id="PolyCollection_2">
    <defs>
     <path id="m45f876eba1" d="M 80.52 -167.345345 
L 80.52 -161.163684 
L 99.753333 -156.149434 
L 118.986667 -143.961314 
L 138.22 -142.107936 
L 157.453333 -136.820317 
L 176.686667 -134.51386 
L 195.92 -124.694204 
L 215.153333 -112.981699 
L 234.386667 -100.239791 
L 253.62 -88.048974 
L 272.853333 -80.184433 
L 292.086667 -74.403202 
L 311.32 -70.253935 
L 330.553333 -66.037677 
L 349.786667 -63.911519 
L 369.02 -61.353557 
L 388.253333 -60.169106 
L 407.486667 -59.287191 
L 426.72 -55.624878 
L 445.953333 -56.256021 
L 465.186667 -55.919713 
L 484.42 -55.494375 
L 503.653333 -53.130313 
L 522.886667 -54.433328 
L 542.12 -52.032365 
L 542.12 -73.52884 
L 542.12 -73.52884 
L 522.886667 -63.993177 
L 503.653333 -74.853355 
L 484.42 -66.216037 
L 465.186667 -65.249518 
L 445.953333 -66.905646 
L 426.72 -77.275272 
L 407.486667 -74.28822 
L 388.253333 -70.777512 
L 369.02 -76.470022 
L 349.786667 -75.444597 
L 330.553333 -77.643026 
L 311.32 -80.481576 
L 292.086667 -86.866933 
L 272.853333 -92.763823 
L 253.62 -99.376401 
L 234.386667 -112.456455 
L 215.153333 -125.249409 
L 195.92 -136.714606 
L 176.686667 -144.913714 
L 157.453333 -146.22671 
L 138.22 -149.747355 
L 118.986667 -150.373406 
L 99.753333 -162.908028 
L 80.52 -167.345345 
z
" style="stroke: #33ccff; stroke-opacity: 0.3"/>
    </defs>
    <g clip-path="url(#pff72aee3f6)">
     <use xlink:href="#m45f876eba1" x="0" y="288" style="fill: #33ccff; fill-opacity: 0.3; stroke: #33ccff; stroke-opacity: 0.3"/>
    </g>
   </g>
   <g id="PolyCollection_3">
    <defs>
     <path id="mcfb67b162b" d="M 80.52 -163.378098 
L 80.52 -157.353623 
L 99.753333 -151.196208 
L 118.986667 -137.963883 
L 138.22 -128.532646 
L 157.453333 -124.974367 
L 176.686667 -121.919925 
L 195.92 -114.657289 
L 215.153333 -109.109367 
L 234.386667 -100.852182 
L 253.62 -94.622907 
L 272.853333 -87.432578 
L 292.086667 -81.209833 
L 311.32 -76.004845 
L 330.553333 -73.981149 
L 349.786667 -69.774549 
L 369.02 -66.803372 
L 388.253333 -63.959146 
L 407.486667 -60.849628 
L 426.72 -58.545318 
L 445.953333 -56.917573 
L 465.186667 -55.79745 
L 484.42 -54.690233 
L 503.653333 -53.437503 
L 522.886667 -52.402401 
L 542.12 -51.766979 
L 542.12 -55.692791 
L 542.12 -55.692791 
L 522.886667 -56.425258 
L 503.653333 -57.518061 
L 484.42 -59.129632 
L 465.186667 -60.421953 
L 445.953333 -62.009126 
L 426.72 -64.144639 
L 407.486667 -66.651215 
L 388.253333 -70.254011 
L 369.02 -74.114458 
L 349.786667 -76.784349 
L 330.553333 -81.531902 
L 311.32 -83.401375 
L 292.086667 -90.519202 
L 272.853333 -96.085732 
L 253.62 -103.059902 
L 234.386667 -107.69663 
L 215.153333 -116.814904 
L 195.92 -121.257647 
L 176.686667 -128.048354 
L 157.453333 -130.467554 
L 138.22 -135.333362 
L 118.986667 -145.625715 
L 99.753333 -157.95743 
L 80.52 -163.378098 
z
" style="stroke: #f99a5a; stroke-opacity: 0.3"/>
    </defs>
    <g clip-path="url(#pff72aee3f6)">
     <use xlink:href="#mcfb67b162b" x="0" y="288" style="fill: #f99a5a; fill-opacity: 0.3; stroke: #f99a5a; stroke-opacity: 0.3"/>
    </g>
   </g>
   <g id="PolyCollection_4">
    <defs>
     <path id="m0fd322d727" d="M 80.52 -148.265314 
L 80.52 -143.707382 
L 99.753333 -135.643418 
L 118.986667 -123.566999 
L 138.22 -117.902672 
L 157.453333 -109.280351 
L 176.686667 -102.996193 
L 195.92 -96.393733 
L 215.153333 -86.749366 
L 234.386667 -78.920822 
L 253.62 -71.096857 
L 272.853333 -66.769636 
L 292.086667 -63.006967 
L 311.32 -59.948189 
L 330.553333 -58.071996 
L 349.786667 -56.029362 
L 369.02 -55.00635 
L 388.253333 -53.875504 
L 407.486667 -53.469034 
L 426.72 -53.066915 
L 445.953333 -51.811154 
L 465.186667 -51.247149 
L 484.42 -50.545247 
L 503.653333 -50.62262 
L 522.886667 -50.264465 
L 542.12 -50.504949 
L 542.12 -57.946176 
L 542.12 -57.946176 
L 522.886667 -59.155783 
L 503.653333 -60.068953 
L 484.42 -59.012555 
L 465.186667 -59.787613 
L 445.953333 -59.72658 
L 426.72 -60.75156 
L 407.486667 -61.657585 
L 388.253333 -61.958333 
L 369.02 -62.674033 
L 349.786667 -64.502123 
L 330.553333 -65.678787 
L 311.32 -67.358135 
L 292.086667 -70.812288 
L 272.853333 -75.376446 
L 253.62 -79.874161 
L 234.386667 -87.777798 
L 215.153333 -94.659102 
L 195.92 -104.445851 
L 176.686667 -110.959567 
L 157.453333 -115.190581 
L 138.22 -124.38 
L 118.986667 -128.27631 
L 99.753333 -140.308508 
L 80.52 -148.265314 
z
" style="stroke: #f99a5a; stroke-opacity: 0.3"/>
    </defs>
    <g clip-path="url(#pff72aee3f6)">
     <use xlink:href="#m0fd322d727" x="0" y="288" style="fill: #f99a5a; fill-opacity: 0.3; stroke: #f99a5a; stroke-opacity: 0.3"/>
    </g>
   </g>
   <g id="matplotlib.axis_1">
    <g id="xtick_1">
     <g id="line2d_1">
      <defs>
       <path id="md050f951ae" d="M 0 0 
L 0 3.5 
" style="stroke: #000000; stroke-width: 0.8"/>
      </defs>
      <g>
       <use xlink:href="#md050f951ae" x="80.52" y="246.04" style="stroke: #000000; stroke-width: 0.8"/>
      </g>
     </g>
     <g id="text_1">
      <text style="font: 10px 'sans-serif'; text-anchor: middle" x="80.52" y="260.638438" transform="rotate(-0, 80.52, 260.638438)">0</text>
     </g>
    </g>
    <g id="xtick_2">
     <g id="line2d_2">
      <g>
       <use xlink:href="#md050f951ae" x="157.453333" y="246.04" style="stroke: #000000; stroke-width: 0.8"/>
      </g>
     </g>
     <g id="text_2">
      <text style="font: 10px 'sans-serif'; text-anchor: middle" x="157.453333" y="260.638438" transform="rotate(-0, 157.453333, 260.638438)">2000</text>
     </g>
    </g>
    <g id="xtick_3">
     <g id="line2d_3">
      <g>
       <use xlink:href="#md050f951ae" x="234.386667" y="246.04" style="stroke: #000000; stroke-width: 0.8"/>
      </g>
     </g>
     <g id="text_3">
      <text style="font: 10px 'sans-serif'; text-anchor: middle" x="234.386667" y="260.638438" transform="rotate(-0, 234.386667, 260.638438)">4000</text>
     </g>
    </g>
    <g id="xtick_4">
     <g id="line2d_4">
      <g>
       <use xlink:href="#md050f951ae" x="311.32" y="246.04" style="stroke: #000000; stroke-width: 0.8"/>
      </g>
     </g>
     <g id="text_4">
      <text style="font: 10px 'sans-serif'; text-anchor: middle" x="311.32" y="260.638438" transform="rotate(-0, 311.32, 260.638438)">6000</text>
     </g>
    </g>
    <g id="xtick_5">
     <g id="line2d_5">
      <g>
       <use xlink:href="#md050f951ae" x="388.253333" y="246.04" style="stroke: #000000; stroke-width: 0.8"/>
      </g>
     </g>
     <g id="text_5">
      <text style="font: 10px 'sans-serif'; text-anchor: middle" x="388.253333" y="260.638438" transform="rotate(-0, 388.253333, 260.638438)">8000</text>
     </g>
    </g>
    <g id="xtick_6">
     <g id="line2d_6">
      <g>
       <use xlink:href="#md050f951ae" x="465.186667" y="246.04" style="stroke: #000000; stroke-width: 0.8"/>
      </g>
     </g>
     <g id="text_6">
      <text style="font: 10px 'sans-serif'; text-anchor: middle" x="465.186667" y="260.638438" transform="rotate(-0, 465.186667, 260.638438)">10000</text>
     </g>
    </g>
    <g id="xtick_7">
     <g id="line2d_7">
      <g>
       <use xlink:href="#md050f951ae" x="542.12" y="246.04" style="stroke: #000000; stroke-width: 0.8"/>
      </g>
     </g>
     <g id="text_7">
      <text style="font: 10px 'sans-serif'; text-anchor: middle" x="542.12" y="260.638438" transform="rotate(-0, 542.12, 260.638438)">12000</text>
     </g>
    </g>
    <g id="text_8">
     <text style="font: 10px 'sans-serif'; text-anchor: middle" x="311.32" y="274.316562" transform="rotate(-0, 311.32, 274.316562)">Epochs training first 2 trees</text>
    </g>
   </g>
   <g id="matplotlib.axis_2">
    <g id="ytick_1">
     <g id="line2d_8">
      <defs>
       <path id="m3f009436bb" d="M 0 0 
L -3.5 0 
" style="stroke: #000000; stroke-width: 0.8"/>
      </defs>
      <g>
       <use xlink:href="#m3f009436bb" x="57.44" y="218.114918" style="stroke: #000000; stroke-width: 0.8"/>
      </g>
     </g>
     <g id="text_9">
      <text style="font: 10px 'sans-serif'; text-anchor: end" x="50.44" y="221.914136" transform="rotate(-0, 50.44, 221.914136)">1000</text>
     </g>
    </g>
    <g id="ytick_2">
     <g id="line2d_9">
      <g>
       <use xlink:href="#m3f009436bb" x="57.44" y="183.37928" style="stroke: #000000; stroke-width: 0.8"/>
      </g>
     </g>
     <g id="text_10">
      <text style="font: 10px 'sans-serif'; text-anchor: end" x="50.44" y="187.178499" transform="rotate(-0, 50.44, 187.178499)">2000</text>
     </g>
    </g>
    <g id="ytick_3">
     <g id="line2d_10">
      <g>
       <use xlink:href="#m3f009436bb" x="57.44" y="148.643643" style="stroke: #000000; stroke-width: 0.8"/>
      </g>
     </g>
     <g id="text_11">
      <text style="font: 10px 'sans-serif'; text-anchor: end" x="50.44" y="152.442862" transform="rotate(-0, 50.44, 152.442862)">3000</text>
     </g>
    </g>
    <g id="ytick_4">
     <g id="line2d_11">
      <g>
       <use xlink:href="#m3f009436bb" x="57.44" y="113.908005" style="stroke: #000000; stroke-width: 0.8"/>
      </g>
     </g>
     <g id="text_12">
      <text style="font: 10px 'sans-serif'; text-anchor: end" x="50.44" y="117.707224" transform="rotate(-0, 50.44, 117.707224)">4000</text>
     </g>
    </g>
    <g id="ytick_5">
     <g id="line2d_12">
      <g>
       <use xlink:href="#m3f009436bb" x="57.44" y="79.172368" style="stroke: #000000; stroke-width: 0.8"/>
      </g>
     </g>
     <g id="text_13">
      <text style="font: 10px 'sans-serif'; text-anchor: end" x="50.44" y="82.971587" transform="rotate(-0, 50.44, 82.971587)">5000</text>
     </g>
    </g>
    <g id="ytick_6">
     <g id="line2d_13">
      <g>
       <use xlink:href="#m3f009436bb" x="57.44" y="44.43673" style="stroke: #000000; stroke-width: 0.8"/>
      </g>
     </g>
     <g id="text_14">
      <text style="font: 10px 'sans-serif'; text-anchor: end" x="50.44" y="48.235949" transform="rotate(-0, 50.44, 48.235949)">6000</text>
     </g>
    </g>
    <g id="text_15">
     <text style="font: 10px 'sans-serif'; text-anchor: middle" x="18.910313" y="135.74" transform="rotate(-90, 18.910313, 135.74)">Epochs to 85% on held-out tree</text>
    </g>
   </g>
   <g id="line2d_14">
    <path d="M 80.52 104.421703 
L 99.753333 106.531893 
L 118.986667 108.96304 
L 138.22 91.304484 
L 157.453333 78.929218 
L 176.686667 88.148057 
L 195.92 97.313402 
L 215.153333 108.046019 
L 234.386667 123.594733 
L 253.62 134.282888 
L 272.853333 151.287025 
L 292.086667 162.814046 
L 311.32 174.746085 
L 330.553333 181.386497 
L 349.786667 192.956937 
L 369.02 199.669947 
L 388.253333 203.534981 
L 407.486667 210.816265 
L 426.72 213.07964 
L 445.953333 216.644211 
L 465.186667 221.093846 
L 484.42 222.512102 
L 503.653333 224.359691 
L 522.886667 226.675515 
L 542.12 227.286168 
" clip-path="url(#pff72aee3f6)" style="fill: none; stroke: #33ccff; stroke-width: 2; stroke-linecap: square"/>
   </g>
   <g id="line2d_15">
    <path d="M 80.52 104.421703 
L 99.753333 106.531893 
L 118.986667 108.96304 
L 138.22 91.304484 
L 157.453333 78.929218 
L 176.686667 88.148057 
L 195.92 97.313402 
L 215.153333 108.046019 
L 234.386667 123.594733 
L 253.62 134.282888 
L 272.853333 151.287025 
L 292.086667 162.814046 
L 311.32 174.746085 
L 330.553333 181.386497 
L 349.786667 192.956937 
L 369.02 199.669947 
L 388.253333 203.534981 
L 407.486667 210.816265 
L 426.72 213.07964 
L 445.953333 216.644211 
L 465.186667 221.093846 
L 484.42 222.512102 
L 503.653333 224.359691 
L 522.886667 226.675515 
L 542.12 227.286168 
" clip-path="url(#pff72aee3f6)" style="fill: none; stroke-dasharray: 7.4,3.2; stroke-dashoffset: 0; stroke: #33ccff; stroke-width: 2"/>
   </g>
   <g id="line2d_16">
    <path d="M 80.52 123.745485 
L 99.753333 128.471269 
L 118.986667 140.83264 
L 138.22 142.072355 
L 157.453333 146.476486 
L 176.686667 148.286213 
L 195.92 157.295595 
L 215.153333 168.884446 
L 234.386667 181.651877 
L 253.62 194.287312 
L 272.853333 201.525872 
L 292.086667 207.364933 
L 311.32 212.632245 
L 330.553333 216.159649 
L 349.786667 218.321942 
L 369.02 219.08821 
L 388.253333 222.526691 
L 407.486667 221.212294 
L 426.72 221.549925 
L 445.953333 226.419166 
L 465.186667 227.415385 
L 484.42 227.144794 
L 503.653333 224.008166 
L 522.886667 228.786748 
L 542.12 225.219398 
" clip-path="url(#pff72aee3f6)" style="fill: none; stroke: #33ccff; stroke-width: 2; stroke-linecap: square"/>
   </g>
   <g id="line2d_17">
    <path d="M 80.52 123.745485 
L 99.753333 128.471269 
L 118.986667 140.83264 
L 138.22 142.072355 
L 157.453333 146.476486 
L 176.686667 148.286213 
L 195.92 157.295595 
L 215.153333 168.884446 
L 234.386667 181.651877 
L 253.62 194.287312 
L 272.853333 201.525872 
L 292.086667 207.364933 
L 311.32 212.632245 
L 330.553333 216.159649 
L 349.786667 218.321942 
L 369.02 219.08821 
L 388.253333 222.526691 
L 407.486667 221.212294 
L 426.72 221.549925 
L 445.953333 226.419166 
L 465.186667 227.415385 
L 484.42 227.144794 
L 503.653333 224.008166 
L 522.886667 228.786748 
L 542.12 225.219398 
" clip-path="url(#pff72aee3f6)" style="fill: none; stroke-dasharray: 7.4,3.2; stroke-dashoffset: 0; stroke: #f99a5a; stroke-width: 2"/>
   </g>
   <g id="line2d_18">
    <path d="M 80.52 127.63414 
L 99.753333 133.423181 
L 118.986667 146.205201 
L 138.22 156.066996 
L 157.453333 160.279039 
L 176.686667 163.01586 
L 195.92 170.042532 
L 215.153333 175.037864 
L 234.386667 183.725594 
L 253.62 189.158596 
L 272.853333 196.240845 
L 292.086667 202.135482 
L 311.32 208.29689 
L 330.553333 210.243475 
L 349.786667 214.720551 
L 369.02 217.541085 
L 388.253333 220.893421 
L 407.486667 224.249579 
L 426.72 226.655021 
L 445.953333 228.536651 
L 465.186667 229.890299 
L 484.42 231.090068 
L 503.653333 232.522218 
L 522.886667 233.586171 
L 542.12 234.270115 
" clip-path="url(#pff72aee3f6)" style="fill: none; stroke: #f99a5a; stroke-width: 2; stroke-linecap: square"/>
   </g>
   <g id="line2d_19">
    <path d="M 80.52 127.63414 
L 99.753333 133.423181 
L 118.986667 146.205201 
L 138.22 156.066996 
L 157.453333 160.279039 
L 176.686667 163.01586 
L 195.92 170.042532 
L 215.153333 175.037864 
L 234.386667 183.725594 
L 253.62 189.158596 
L 272.853333 196.240845 
L 292.086667 202.135482 
L 311.32 208.29689 
L 330.553333 210.243475 
L 349.786667 214.720551 
L 369.02 217.541085 
L 388.253333 220.893421 
L 407.486667 224.249579 
L 426.72 226.655021 
L 445.953333 228.536651 
L 465.186667 229.890299 
L 484.42 231.090068 
L 503.653333 232.522218 
L 522.886667 233.586171 
L 542.12 234.270115 
" clip-path="url(#pff72aee3f6)" style="fill: none; stroke-dasharray: 7.4,3.2; stroke-dashoffset: 0; stroke: #33ccff; stroke-width: 2"/>
   </g>
   <g id="line2d_20">
    <path d="M 80.52 142.013652 
L 99.753333 150.024037 
L 118.986667 162.078345 
L 138.22 166.858664 
L 157.453333 175.764534 
L 176.686667 181.02212 
L 195.92 187.580208 
L 215.153333 197.295766 
L 234.386667 204.65069 
L 253.62 212.514491 
L 272.853333 216.926959 
L 292.086667 221.090372 
L 311.32 224.346838 
L 330.553333 226.124608 
L 349.786667 227.734258 
L 369.02 229.159808 
L 388.253333 230.083081 
L 407.486667 230.43669 
L 426.72 231.090762 
L 445.953333 232.231133 
L 465.186667 232.482619 
L 484.42 233.221099 
L 503.653333 232.654213 
L 522.886667 233.289876 
L 542.12 233.774438 
" clip-path="url(#pff72aee3f6)" style="fill: none; stroke: #f99a5a; stroke-width: 2; stroke-linecap: square"/>
   </g>
   <g id="line2d_21">
    <path d="M 80.52 142.013652 
L 99.753333 150.024037 
L 118.986667 162.078345 
L 138.22 166.858664 
L 157.453333 175.764534 
L 176.686667 181.02212 
L 195.92 187.580208 
L 215.153333 197.295766 
L 234.386667 204.65069 
L 253.62 212.514491 
L 272.853333 216.926959 
L 292.086667 221.090372 
L 311.32 224.346838 
L 330.553333 226.124608 
L 349.786667 227.734258 
L 369.02 229.159808 
L 388.253333 230.083081 
L 407.486667 230.43669 
L 426.72 231.090762 
L 445.953333 232.231133 
L 465.186667 232.482619 
L 484.42 233.221099 
L 503.653333 232.654213 
L 522.886667 233.289876 
L 542.12 233.774438 
" clip-path="url(#pff72aee3f6)" style="fill: none; stroke-dasharray: 7.4,3.2; stroke-dashoffset: 0; stroke: #f99a5a; stroke-width: 2"/>
   </g>
   <g id="line2d_22">
    <path d="M 88.213333 246.04 
L 88.213333 25.44 
" clip-path="url(#pff72aee3f6)" style="fill: none; stroke-dasharray: 1.85,0.8; stroke-dashoffset: 0; stroke: #000000; stroke-width: 0.5"/>
   </g>
   <g id="line2d_23">
    <path d="M 142.066667 246.04 
L 142.066667 25.44 
" clip-path="url(#pff72aee3f6)" style="fill: none; stroke-dasharray: 1.85,0.8; stroke-dashoffset: 0; stroke: #000000; stroke-width: 0.5"/>
   </g>
   <g id="line2d_24">
    <path d="M 326.706667 246.04 
L 326.706667 25.44 
" clip-path="url(#pff72aee3f6)" style="fill: none; stroke-dasharray: 1.85,0.8; stroke-dashoffset: 0; stroke: #000000; stroke-width: 0.5"/>
   </g>
   <g id="patch_3">
    <path d="M 57.44 246.04 
L 57.44 25.44 
" style="fill: none; stroke: #000000; stroke-width: 0.8; stroke-linejoin: miter; stroke-linecap: square"/>
   </g>
   <g id="patch_4">
    <path d="M 565.2 246.04 
L 565.2 25.44 
" style="fill: none; stroke: #000000; stroke-width: 0.8; stroke-linejoin: miter; stroke-linecap: square"/>
   </g>
   <g id="patch_5">
    <path d="M 57.44 246.04 
L 565.2 246.04 
" style="fill: none; stroke: #000000; stroke-width: 0.8; stroke-linejoin: miter; stroke-linecap: square"/>
   </g>
   <g id="patch_6">
    <path d="M 57.44 25.44 
L 565.2 25.44 
" style="fill: none; stroke: #000000; stroke-width: 0.8; stroke-linejoin: miter; stroke-linecap: square"/>
   </g>
   <g id="text_16">
    <text style="font: 12px 'sans-serif'; text-anchor: middle" x="311.32" y="19.44" transform="rotate(-0, 311.32, 19.44)">Separate, within-tree loss, 3 HLs: epochs to learn held-out tree</text>
   </g>
   <g id="legend_1">
    <g id="patch_7">
     <path d="M 437.589062 92.1525 
L 558.2 92.1525 
Q 560.2 92.1525 560.2 90.1525 
L 560.2 32.44 
Q 560.2 30.44 558.2 30.44 
L 437.589062 30.44 
Q 435.589062 30.44 435.589062 32.44 
L 435.589062 90.1525 
Q 435.589062 92.1525 437.589062 92.1525 
z
" style="fill: #ffffff; opacity: 0.8; stroke: #cccccc; stroke-linejoin: miter"/>
    </g>
    <g id="line2d_25">
     <path d="M 439.589062 38.538437 
L 449.589062 38.538437 
L 459.589062 38.538437 
" style="fill: none; stroke: #33ccff; stroke-width: 2; stroke-linecap: square"/>
    </g>
    <g id="line2d_26">
     <path d="M 439.589062 38.538437 
L 449.589062 38.538437 
L 459.589062 38.538437 
" style="fill: none; stroke-dasharray: 7.4,3.2; stroke-dashoffset: 0; stroke: #33ccff; stroke-width: 2"/>
    </g>
    <g id="text_17">
     <text style="font: 10px 'sans-serif'; text-anchor: start" x="467.589062" y="42.038437" transform="rotate(-0, 467.589062, 42.038437)">English to English</text>
    </g>
    <g id="line2d_27">
     <path d="M 439.589062 53.216562 
L 449.589062 53.216562 
L 459.589062 53.216562 
" style="fill: none; stroke: #33ccff; stroke-width: 2; stroke-linecap: square"/>
    </g>
    <g id="line2d_28">
     <path d="M 439.589062 53.216562 
L 449.589062 53.216562 
L 459.589062 53.216562 
" style="fill: none; stroke-dasharray: 7.4,3.2; stroke-dashoffset: 0; stroke: #f99a5a; stroke-width: 2"/>
    </g>
    <g id="text_18">
     <text style="font: 10px 'sans-serif'; text-anchor: start" x="467.589062" y="56.716562" transform="rotate(-0, 467.589062, 56.716562)">French to English</text>
    </g>
    <g id="line2d_29">
     <path d="M 439.589062 67.894687 
L 449.589062 67.894687 
L 459.589062 67.894687 
" style="fill: none; stroke: #f99a5a; stroke-width: 2; stroke-linecap: square"/>
    </g>
    <g id="line2d_30">
     <path d="M 439.589062 67.894687 
L 449.589062 67.894687 
L 459.589062 67.894687 
" style="fill: none; stroke-dasharray: 7.4,3.2; stroke-dashoffset: 0; stroke: #33ccff; stroke-width: 2"/>
    </g>
    <g id="text_19">
     <text style="font: 10px 'sans-serif'; text-anchor: start" x="467.589062" y="71.394687" transform="rotate(-0, 467.589062, 71.394687)">English to French</text>
    </g>
    <g id="line2d_31">
     <path d="M 439.589062 82.572812 
L 449.589062 82.572812 
L 459.589062 82.572812 
" style="fill: none; stroke: #f99a5a; stroke-width: 2; stroke-linecap: square"/>
    </g>
    <g id="line2d_32">
     <path d="M 439.589062 82.572812 
L 449.589062 82.572812 
L 459.589062 82.572812 
" style="fill: none; stroke-dasharray: 7.4,3.2; stroke-dashoffset: 0; stroke: #f99a5a; stroke-width: 2"/>
    </g>
    <g id="text_20">
     <text style="font: 10px 'sans-serif'; text-anchor: start" x="467.589062" y="86.072812" transform="rotate(-0, 467.589062, 86.072812)">French to French</text>
    </g>
   </g>
  </g>
 </g>
 <defs>
  <clipPath id="pff72aee3f6">
   <rect x="57.44" y="25.44" width="507.76" height="220.6"/>
  </clipPath>
 </defs>
</svg>
