<?xml version="1.0" encoding="utf-8" standalone="no"?>
<!DOCTYPE svg PUBLIC "-//W3C//DTD SVG 1.1//EN"
  "http://www.w3.org/Graphics/SVG/1.1/DTD/svg11.dtd">
<svg xmlns:xlink="http://www.w3.org/1999/xlink" width="576pt" height="288pt" viewBox="0 0 576 288" xmlns="http://www.w3.org/2000/svg" version="1.1">
 <metadata>
  <rdf:RDF xmlns:dc="http://purl.org/dc/elements/1.1/" xmlns:cc="http://creativecommons.org/ns#" xmlns:rdf="http://www.w3.org/1999/02/22-rdf-syntax-ns#">
   <cc:Work>
    <dc:type rdf:resource="http://purl.org/dc/dcmitype/StillImage"/>
    <dc:date>2022-05-02T10:52:58.555803</dc:date>
    <dc:format>image/svg+xml</dc:format>
    <dc:creator>
     <cc:Agent>
      <dc:title>Matplotlib v3.5.1, https://matplotlib.org/</dc:title>
     </cc:Agent>
    </dc:creator>
   </cc:Work>
  </rdf:RDF>
 </metadata>
 <defs>
  <style type="text/css">*{stroke-linejoin: round; stroke-linecap: butt}</style>
 </defs>
 <g id="figure_1">
  <g id="patch_1">
   <path d="M 0 288 
L 576 288 
L 576 0 
L 0 0 
z
" style="fill: #ffffff"/>
  </g>
  <g id="axes_1">
   <g id="patch_2">
    <path d="M 57.44 246.04 
L 565.2 246.04 
L 565.2 25.44 
L 57.44 25.44 
z
" style="fill: #ffffff"/>
   </g>
   <g id="PolyCollection_1">
    <defs>
     <path id="mea7c42fe00" d="M 80.52 -201.302931 
L 80.52 -196.610843 
L 88.213333 -191.626528 
L 95.906667 -184.297771 
L 103.6 -175.155142 
L 111.293333 -165.668696 
L 118.986667 -156.773409 
L 126.68 -147.576733 
L 134.373333 -137.694027 
L 142.066667 -127.771598 
L 149.76 -118.24797 
L 157.453333 -109.544151 
L 165.146667 -103.774086 
L 172.84 -98.324784 
L 180.533333 -93.345429 
L 188.226667 -88.90937 
L 195.92 -84.27277 
L 203.613333 -80.698631 
L 211.306667 -77.11588 
L 219 -74.354313 
L 226.693333 -71.50625 
L 234.386667 -68.62079 
L 242.08 -66.088143 
L 249.773333 -64.23524 
L 257.466667 -62.635264 
L 265.16 -61.248705 
L 272.853333 -60.007914 
L 280.546667 -59.379014 
L 288.24 -58.633008 
L 295.933333 -58.248328 
L 303.626667 -57.718524 
L 311.32 -57.381857 
L 319.013333 -56.855537 
L 326.706667 -56.56078 
L 334.4 -56.322958 
L 342.093333 -56.284491 
L 349.786667 -56.171986 
L 357.48 -56.180111 
L 365.173333 -56.074035 
L 372.866667 -55.982442 
L 380.56 -55.59453 
L 388.253333 -55.657197 
L 395.946667 -55.726921 
L 403.64 -55.521959 
L 411.333333 -55.271002 
L 419.026667 -55.526832 
L 426.72 -55.69739 
L 434.413333 -55.823072 
L 442.106667 -55.791303 
L 449.8 -55.924479 
L 457.493333 -56.016136 
L 465.186667 -55.990464 
L 472.88 -55.960159 
L 480.573333 -56.20338 
L 488.266667 -56.132042 
L 495.96 -56.329168 
L 503.653333 -56.407157 
L 511.346667 -56.37724 
L 519.04 -56.218944 
L 526.733333 -56.333101 
L 534.426667 -56.316866 
L 542.12 -56.447131 
L 542.12 -59.00805 
L 542.12 -59.00805 
L 534.426667 -58.772565 
L 526.733333 -58.850815 
L 519.04 -58.785145 
L 511.346667 -58.978884 
L 503.653333 -58.967255 
L 495.96 -58.964474 
L 488.266667 -58.782133 
L 480.573333 -58.937865 
L 472.88 -58.685799 
L 465.186667 -58.635682 
L 457.493333 -58.846225 
L 449.8 -58.809869 
L 442.106667 -58.670256 
L 434.413333 -58.795455 
L 426.72 -58.537098 
L 419.026667 -58.500397 
L 411.333333 -58.241129 
L 403.64 -58.552513 
L 395.946667 -58.70111 
L 388.253333 -58.636726 
L 380.56 -58.530233 
L 372.866667 -58.896682 
L 365.173333 -58.963581 
L 357.48 -59.131818 
L 349.786667 -59.066793 
L 342.093333 -59.342898 
L 334.4 -59.409585 
L 326.706667 -59.612187 
L 319.013333 -60.058075 
L 311.32 -60.548238 
L 303.626667 -60.968979 
L 295.933333 -61.56081 
L 288.24 -62.003642 
L 280.546667 -62.839507 
L 272.853333 -63.45416 
L 265.16 -64.895541 
L 257.466667 -66.367933 
L 249.773333 -68.132863 
L 242.08 -69.868889 
L 234.386667 -72.691442 
L 226.693333 -75.833248 
L 219 -79.070362 
L 211.306667 -82.112039 
L 203.613333 -85.640091 
L 195.92 -89.586702 
L 188.226667 -94.357514 
L 180.533333 -99.069794 
L 172.84 -103.659392 
L 165.146667 -109.269476 
L 157.453333 -115.116568 
L 149.76 -123.621319 
L 142.066667 -133.156349 
L 134.373333 -142.749768 
L 126.68 -152.99097 
L 118.986667 -161.952292 
L 111.293333 -170.466738 
L 103.6 -179.345548 
L 95.906667 -189.13509 
L 88.213333 -196.533894 
L 80.52 -201.302931 
z
" style="stroke: #33ccff; stroke-opacity: 0.3"/>
    </defs>
    <g clip-path="url(#p9628eb94a2)">
     <use xlink:href="#mea7c42fe00" x="0" y="288" style="fill: #33ccff; fill-opacity: 0.3; stroke: #33ccff; stroke-opacity: 0.3"/>
    </g>
   </g>
   <g id="PolyCollection_2">
    <defs>
     <path id="m018ee747d1" d="M 80.52 -208.820646 
L 80.52 -202.798112 
L 88.213333 -199.097486 
L 95.906667 -192.892025 
L 103.6 -183.681145 
L 111.293333 -176.049327 
L 118.986667 -167.623271 
L 126.68 -156.810673 
L 134.373333 -144.952523 
L 142.066667 -135.149698 
L 149.76 -127.431289 
L 157.453333 -119.704741 
L 165.146667 -113.158194 
L 172.84 -107.970026 
L 180.533333 -103.257988 
L 188.226667 -98.389255 
L 195.92 -92.070217 
L 203.613333 -88.623176 
L 211.306667 -85.933564 
L 219 -83.56878 
L 226.693333 -81.211594 
L 234.386667 -78.835632 
L 242.08 -77.472432 
L 249.773333 -75.898038 
L 257.466667 -74.404502 
L 265.16 -73.447039 
L 272.853333 -72.010723 
L 280.546667 -70.806842 
L 288.24 -69.9202 
L 295.933333 -68.734359 
L 303.626667 -67.953999 
L 311.32 -67.105993 
L 319.013333 -66.717273 
L 326.706667 -66.123455 
L 334.4 -65.961064 
L 342.093333 -65.264883 
L 349.786667 -64.849601 
L 357.48 -64.32091 
L 365.173333 -64.042868 
L 372.866667 -63.7877 
L 380.56 -63.547398 
L 388.253333 -63.270728 
L 395.946667 -63.096118 
L 403.64 -62.8463 
L 411.333333 -62.71183 
L 419.026667 -62.61981 
L 426.72 -62.487596 
L 434.413333 -62.47775 
L 442.106667 -62.463997 
L 449.8 -62.216081 
L 457.493333 -61.925946 
L 465.186667 -61.678248 
L 472.88 -61.96975 
L 480.573333 -61.954229 
L 488.266667 -62.277342 
L 495.96 -61.822187 
L 503.653333 -62.06124 
L 511.346667 -62.052276 
L 519.04 -61.807902 
L 526.733333 -61.917898 
L 534.426667 -61.691907 
L 542.12 -61.676409 
L 542.12 -64.422117 
L 542.12 -64.422117 
L 534.426667 -64.459958 
L 526.733333 -64.704871 
L 519.04 -64.740193 
L 511.346667 -64.972819 
L 503.653333 -64.995858 
L 495.96 -64.896591 
L 488.266667 -65.502114 
L 480.573333 -65.055627 
L 472.88 -64.973051 
L 465.186667 -64.750978 
L 457.493333 -64.837027 
L 449.8 -65.27687 
L 442.106667 -65.531861 
L 434.413333 -65.496773 
L 426.72 -65.508262 
L 419.026667 -65.685412 
L 411.333333 -65.704641 
L 403.64 -65.925255 
L 395.946667 -66.105193 
L 388.253333 -66.403012 
L 380.56 -66.710019 
L 372.866667 -66.91319 
L 365.173333 -67.224935 
L 357.48 -67.53057 
L 349.786667 -68.289627 
L 342.093333 -68.878635 
L 334.4 -69.479345 
L 326.706667 -69.728423 
L 319.013333 -70.44064 
L 311.32 -70.890099 
L 303.626667 -71.86475 
L 295.933333 -72.704362 
L 288.24 -73.927903 
L 280.546667 -74.857823 
L 272.853333 -76.573852 
L 265.16 -78.273848 
L 257.466667 -79.318869 
L 249.773333 -80.95555 
L 242.08 -82.855787 
L 234.386667 -84.098561 
L 226.693333 -87.086943 
L 219 -90.133723 
L 211.306667 -92.302724 
L 203.613333 -95.41026 
L 195.92 -99.436726 
L 188.226667 -106.540738 
L 180.533333 -111.404021 
L 172.84 -116.355421 
L 165.146667 -120.61124 
L 157.453333 -127.234766 
L 149.76 -134.522285 
L 142.066667 -141.990149 
L 134.373333 -150.973194 
L 126.68 -163.371934 
L 118.986667 -173.949657 
L 111.293333 -182.692548 
L 103.6 -190.147946 
L 95.906667 -198.928952 
L 88.213333 -205.18035 
L 80.52 -208.820646 
z
" style="stroke: #33ccff; stroke-opacity: 0.3"/>
    </defs>
    <g clip-path="url(#p9628eb94a2)">
     <use xlink:href="#m018ee747d1" x="0" y="288" style="fill: #33ccff; fill-opacity: 0.3; stroke: #33ccff; stroke-opacity: 0.3"/>
    </g>
   </g>
   <g id="PolyCollection_3">
    <defs>
     <path id="ma52def66e1" d="M 80.52 -187.042182 
L 80.52 -180.855652 
L 88.213333 -174.044865 
L 95.906667 -165.033157 
L 103.6 -157.795012 
L 111.293333 -148.608844 
L 118.986667 -139.161938 
L 126.68 -129.857107 
L 134.373333 -121.711261 
L 142.066667 -115.270933 
L 149.76 -110.334598 
L 157.453333 -105.702133 
L 165.146667 -98.255913 
L 172.84 -92.02409 
L 180.533333 -85.765519 
L 188.226667 -81.421534 
L 195.92 -76.882123 
L 203.613333 -73.0749 
L 211.306667 -69.852238 
L 219 -67.528099 
L 226.693333 -63.954632 
L 234.386667 -61.235309 
L 242.08 -59.213605 
L 249.773333 -57.666466 
L 257.466667 -56.06048 
L 265.16 -54.742381 
L 272.853333 -53.653752 
L 280.546667 -52.834723 
L 288.24 -52.140235 
L 295.933333 -51.637458 
L 303.626667 -51.147211 
L 311.32 -50.705386 
L 319.013333 -50.284524 
L 326.706667 -50.027325 
L 334.4 -49.972815 
L 342.093333 -49.905745 
L 349.786667 -50.016889 
L 357.48 -50.266213 
L 365.173333 -50.175188 
L 372.866667 -50.359351 
L 380.56 -50.462794 
L 388.253333 -50.289893 
L 395.946667 -50.200704 
L 403.64 -50.280758 
L 411.333333 -50.32259 
L 419.026667 -50.266216 
L 426.72 -50.419041 
L 434.413333 -50.20569 
L 442.106667 -50.252623 
L 449.8 -50.194064 
L 457.493333 -50.66837 
L 465.186667 -50.510768 
L 472.88 -50.328598 
L 480.573333 -50.605731 
L 488.266667 -50.464337 
L 495.96 -50.55888 
L 503.653333 -50.611399 
L 511.346667 -50.528248 
L 519.04 -50.782097 
L 526.733333 -50.507022 
L 534.426667 -50.789661 
L 542.12 -50.556153 
L 542.12 -53.033467 
L 542.12 -53.033467 
L 534.426667 -53.145898 
L 526.733333 -52.867719 
L 519.04 -53.110791 
L 511.346667 -52.840396 
L 503.653333 -52.866971 
L 495.96 -52.747282 
L 488.266667 -52.715337 
L 480.573333 -52.852828 
L 472.88 -52.669724 
L 465.186667 -52.783203 
L 457.493333 -52.960873 
L 449.8 -52.424792 
L 442.106667 -52.671025 
L 434.413333 -52.614329 
L 426.72 -52.72863 
L 419.026667 -52.535515 
L 411.333333 -52.718403 
L 403.64 -52.815098 
L 395.946667 -52.738183 
L 388.253333 -52.877589 
L 380.56 -53.161877 
L 372.866667 -53.093112 
L 365.173333 -52.818562 
L 357.48 -53.044522 
L 349.786667 -52.675117 
L 342.093333 -52.664344 
L 334.4 -52.763386 
L 326.706667 -52.72564 
L 319.013333 -52.989635 
L 311.32 -53.667549 
L 303.626667 -54.265066 
L 295.933333 -54.730342 
L 288.24 -55.276051 
L 280.546667 -56.043042 
L 272.853333 -56.953709 
L 265.16 -57.847753 
L 257.466667 -59.390129 
L 249.773333 -61.004273 
L 242.08 -62.950054 
L 234.386667 -64.969895 
L 226.693333 -68.14373 
L 219 -72.057485 
L 211.306667 -74.026344 
L 203.613333 -77.608169 
L 195.92 -81.826126 
L 188.226667 -87.084261 
L 180.533333 -91.509149 
L 172.84 -98.041185 
L 165.146667 -104.404901 
L 157.453333 -111.937696 
L 149.76 -115.429468 
L 142.066667 -119.516508 
L 134.373333 -126.407792 
L 126.68 -134.251348 
L 118.986667 -144.413598 
L 111.293333 -153.478248 
L 103.6 -163.439129 
L 95.906667 -170.492693 
L 88.213333 -179.863004 
L 80.52 -187.042182 
z
" style="stroke: #f99a5a; stroke-opacity: 0.3"/>
    </defs>
    <g clip-path="url(#p9628eb94a2)">
     <use xlink:href="#ma52def66e1" x="0" y="288" style="fill: #f99a5a; fill-opacity: 0.3; stroke: #f99a5a; stroke-opacity: 0.3"/>
    </g>
   </g>
   <g id="PolyCollection_4">
    <defs>
     <path id="m884cb6b146" d="M 80.52 -185.790599 
L 80.52 -180.920069 
L 88.213333 -174.596422 
L 95.906667 -165.209208 
L 103.6 -154.516755 
L 111.293333 -146.025231 
L 118.986667 -136.355413 
L 126.68 -126.096944 
L 134.373333 -118.258679 
L 142.066667 -111.296705 
L 149.76 -106.369954 
L 157.453333 -101.467258 
L 165.146667 -97.803836 
L 172.84 -92.474898 
L 180.533333 -85.907699 
L 188.226667 -78.923381 
L 195.92 -73.027759 
L 203.613333 -69.562318 
L 211.306667 -67.076997 
L 219 -64.733269 
L 226.693333 -63.231634 
L 234.386667 -61.231507 
L 242.08 -60.00965 
L 249.773333 -58.81837 
L 257.466667 -57.668956 
L 265.16 -57.101158 
L 272.853333 -56.664854 
L 280.546667 -55.904441 
L 288.24 -55.386975 
L 295.933333 -54.581856 
L 303.626667 -54.377185 
L 311.32 -54.289497 
L 319.013333 -54.027719 
L 326.706667 -53.580596 
L 334.4 -53.501417 
L 342.093333 -53.636948 
L 349.786667 -53.628118 
L 357.48 -53.783743 
L 365.173333 -53.679654 
L 372.866667 -53.795345 
L 380.56 -53.449864 
L 388.253333 -53.420685 
L 395.946667 -53.498991 
L 403.64 -53.492411 
L 411.333333 -53.681446 
L 419.026667 -53.709003 
L 426.72 -53.888971 
L 434.413333 -53.853385 
L 442.106667 -54.047156 
L 449.8 -54.307202 
L 457.493333 -54.464592 
L 465.186667 -54.985695 
L 472.88 -55.061611 
L 480.573333 -54.930225 
L 488.266667 -55.140814 
L 495.96 -55.406893 
L 503.653333 -55.280338 
L 511.346667 -55.60297 
L 519.04 -55.847365 
L 526.733333 -56.176339 
L 534.426667 -56.044562 
L 542.12 -56.279618 
L 542.12 -59.329483 
L 542.12 -59.329483 
L 534.426667 -59.067728 
L 526.733333 -59.351993 
L 519.04 -59.164343 
L 511.346667 -58.719908 
L 503.653333 -58.481723 
L 495.96 -58.6371 
L 488.266667 -58.66849 
L 480.573333 -58.42189 
L 472.88 -58.669971 
L 465.186667 -58.648353 
L 457.493333 -57.92438 
L 449.8 -57.799836 
L 442.106667 -57.544783 
L 434.413333 -57.404808 
L 426.72 -57.620675 
L 419.026667 -57.387649 
L 411.333333 -57.459401 
L 403.64 -57.179056 
L 395.946667 -57.315728 
L 388.253333 -57.232495 
L 380.56 -57.227699 
L 372.866667 -57.545141 
L 365.173333 -57.445954 
L 357.48 -57.521692 
L 349.786667 -57.527969 
L 342.093333 -57.491708 
L 334.4 -57.410836 
L 326.706667 -57.531295 
L 319.013333 -58.399352 
L 311.32 -58.779161 
L 303.626667 -58.96731 
L 295.933333 -59.299073 
L 288.24 -60.350139 
L 280.546667 -60.984788 
L 272.853333 -61.804722 
L 265.16 -62.461098 
L 257.466667 -62.964646 
L 249.773333 -64.038691 
L 242.08 -65.40919 
L 234.386667 -66.843598 
L 226.693333 -69.109038 
L 219 -70.3612 
L 211.306667 -72.342474 
L 203.613333 -74.829839 
L 195.92 -78.373095 
L 188.226667 -86.138262 
L 180.533333 -93.143908 
L 172.84 -99.678204 
L 165.146667 -105.215109 
L 157.453333 -108.310455 
L 149.76 -112.64906 
L 142.066667 -117.091622 
L 134.373333 -123.767577 
L 126.68 -131.551439 
L 118.986667 -141.578418 
L 111.293333 -150.485687 
L 103.6 -159.434376 
L 95.906667 -170.305974 
L 88.213333 -179.767112 
L 80.52 -185.790599 
z
" style="stroke: #f99a5a; stroke-opacity: 0.3"/>
    </defs>
    <g clip-path="url(#p9628eb94a2)">
     <use xlink:href="#m884cb6b146" x="0" y="288" style="fill: #f99a5a; fill-opacity: 0.3; stroke: #f99a5a; stroke-opacity: 0.3"/>
    </g>
   </g>
   <g id="matplotlib.axis_1">
    <g id="xtick_1">
     <g id="line2d_1">
      <defs>
       <path id="md5a2c6cf22" d="M 0 0 
L 0 3.5 
" style="stroke: #000000; stroke-width: 0.8"/>
      </defs>
      <g>
       <use xlink:href="#md5a2c6cf22" x="80.52" y="246.04" style="stroke: #000000; stroke-width: 0.8"/>
      </g>
     </g>
     <g id="text_1">
      <text style="font: 10px 'sans-serif'; text-anchor: middle" x="80.52" y="260.638438" transform="rotate(-0, 80.52, 260.638438)">0</text>
     </g>
    </g>
    <g id="xtick_2">
     <g id="line2d_2">
      <g>
       <use xlink:href="#md5a2c6cf22" x="157.453333" y="246.04" style="stroke: #000000; stroke-width: 0.8"/>
      </g>
     </g>
     <g id="text_2">
      <text style="font: 10px 'sans-serif'; text-anchor: middle" x="157.453333" y="260.638438" transform="rotate(-0, 157.453333, 260.638438)">2000</text>
     </g>
    </g>
    <g id="xtick_3">
     <g id="line2d_3">
      <g>
       <use xlink:href="#md5a2c6cf22" x="234.386667" y="246.04" style="stroke: #000000; stroke-width: 0.8"/>
      </g>
     </g>
     <g id="text_3">
      <text style="font: 10px 'sans-serif'; text-anchor: middle" x="234.386667" y="260.638438" transform="rotate(-0, 234.386667, 260.638438)">4000</text>
     </g>
    </g>
    <g id="xtick_4">
     <g id="line2d_4">
      <g>
       <use xlink:href="#md5a2c6cf22" x="311.32" y="246.04" style="stroke: #000000; stroke-width: 0.8"/>
      </g>
     </g>
     <g id="text_4">
      <text style="font: 10px 'sans-serif'; text-anchor: middle" x="311.32" y="260.638438" transform="rotate(-0, 311.32, 260.638438)">6000</text>
     </g>
    </g>
    <g id="xtick_5">
     <g id="line2d_5">
      <g>
       <use xlink:href="#md5a2c6cf22" x="388.253333" y="246.04" style="stroke: #000000; stroke-width: 0.8"/>
      </g>
     </g>
     <g id="text_5">
      <text style="font: 10px 'sans-serif'; text-anchor: middle" x="388.253333" y="260.638438" transform="rotate(-0, 388.253333, 260.638438)">8000</text>
     </g>
    </g>
    <g id="xtick_6">
     <g id="line2d_6">
      <g>
       <use xlink:href="#md5a2c6cf22" x="465.186667" y="246.04" style="stroke: #000000; stroke-width: 0.8"/>
      </g>
     </g>
     <g id="text_6">
      <text style="font: 10px 'sans-serif'; text-anchor: middle" x="465.186667" y="260.638438" transform="rotate(-0, 465.186667, 260.638438)">10000</text>
     </g>
    </g>
    <g id="xtick_7">
     <g id="line2d_7">
      <g>
       <use xlink:href="#md5a2c6cf22" x="542.12" y="246.04" style="stroke: #000000; stroke-width: 0.8"/>
      </g>
     </g>
     <g id="text_7">
      <text style="font: 10px 'sans-serif'; text-anchor: middle" x="542.12" y="260.638438" transform="rotate(-0, 542.12, 260.638438)">12000</text>
     </g>
    </g>
    <g id="text_8">
     <text style="font: 10px 'sans-serif'; text-anchor: middle" x="311.32" y="274.316562" transform="rotate(-0, 311.32, 274.316562)">Epochs training first 2 trees</text>
    </g>
   </g>
   <g id="matplotlib.axis_2">
    <g id="ytick_1">
     <g id="line2d_8">
      <defs>
       <path id="mb043f6d9c9" d="M 0 0 
L -3.5 0 
" style="stroke: #000000; stroke-width: 0.8"/>
      </defs>
      <g>
       <use xlink:href="#mb043f6d9c9" x="57.44" y="224.003595" style="stroke: #000000; stroke-width: 0.8"/>
      </g>
     </g>
     <g id="text_9">
      <text style="font: 10px 'sans-serif'; text-anchor: end" x="50.44" y="227.802814" transform="rotate(-0, 50.44, 227.802814)">1000</text>
     </g>
    </g>
    <g id="ytick_2">
     <g id="line2d_9">
      <g>
       <use xlink:href="#mb043f6d9c9" x="57.44" y="185.904564" style="stroke: #000000; stroke-width: 0.8"/>
      </g>
     </g>
     <g id="text_10">
      <text style="font: 10px 'sans-serif'; text-anchor: end" x="50.44" y="189.703783" transform="rotate(-0, 50.44, 189.703783)">1500</text>
     </g>
    </g>
    <g id="ytick_3">
     <g id="line2d_10">
      <g>
       <use xlink:href="#mb043f6d9c9" x="57.44" y="147.805534" style="stroke: #000000; stroke-width: 0.8"/>
      </g>
     </g>
     <g id="text_11">
      <text style="font: 10px 'sans-serif'; text-anchor: end" x="50.44" y="151.604753" transform="rotate(-0, 50.44, 151.604753)">2000</text>
     </g>
    </g>
    <g id="ytick_4">
     <g id="line2d_11">
      <g>
       <use xlink:href="#mb043f6d9c9" x="57.44" y="109.706503" style="stroke: #000000; stroke-width: 0.8"/>
      </g>
     </g>
     <g id="text_12">
      <text style="font: 10px 'sans-serif'; text-anchor: end" x="50.44" y="113.505722" transform="rotate(-0, 50.44, 113.505722)">2500</text>
     </g>
    </g>
    <g id="ytick_5">
     <g id="line2d_12">
      <g>
       <use xlink:href="#mb043f6d9c9" x="57.44" y="71.607473" style="stroke: #000000; stroke-width: 0.8"/>
      </g>
     </g>
     <g id="text_13">
      <text style="font: 10px 'sans-serif'; text-anchor: end" x="50.44" y="75.406691" transform="rotate(-0, 50.44, 75.406691)">3000</text>
     </g>
    </g>
    <g id="ytick_6">
     <g id="line2d_13">
      <g>
       <use xlink:href="#mb043f6d9c9" x="57.44" y="33.508442" style="stroke: #000000; stroke-width: 0.8"/>
      </g>
     </g>
     <g id="text_14">
      <text style="font: 10px 'sans-serif'; text-anchor: end" x="50.44" y="37.307661" transform="rotate(-0, 50.44, 37.307661)">3500</text>
     </g>
    </g>
    <g id="text_15">
     <text style="font: 10px 'sans-serif'; text-anchor: middle" x="18.910313" y="135.74" transform="rotate(-90, 18.910313, 135.74)">Epochs to 85% on held-out tree</text>
    </g>
   </g>
   <g id="line2d_14">
    <path d="M 80.52 89.043113 
L 88.213333 93.919789 
L 95.906667 101.28357 
L 103.6 110.749655 
L 111.293333 119.932283 
L 118.986667 128.63715 
L 126.68 137.716149 
L 134.373333 147.778102 
L 142.066667 157.536026 
L 149.76 167.065356 
L 157.453333 175.669641 
L 165.146667 181.478219 
L 172.84 187.007912 
L 180.533333 191.792388 
L 188.226667 196.366558 
L 195.92 201.070264 
L 203.613333 204.830639 
L 211.306667 208.38604 
L 219 211.287662 
L 226.693333 214.330251 
L 234.386667 217.343884 
L 242.08 220.021484 
L 249.773333 221.815948 
L 257.466667 223.498402 
L 265.16 224.927877 
L 272.853333 226.268963 
L 280.546667 226.890739 
L 288.24 227.681675 
L 295.933333 228.095431 
L 303.626667 228.656248 
L 311.32 229.034953 
L 319.013333 229.543194 
L 326.706667 229.913516 
L 334.4 230.133729 
L 342.093333 230.186305 
L 349.786667 230.380611 
L 357.48 230.344035 
L 365.173333 230.481192 
L 372.866667 230.560438 
L 380.56 230.937618 
L 388.253333 230.853039 
L 395.946667 230.785984 
L 403.64 230.962764 
L 411.333333 231.243935 
L 419.026667 230.986385 
L 426.72 230.882756 
L 434.413333 230.690737 
L 442.106667 230.769221 
L 449.8 230.632826 
L 457.493333 230.56882 
L 465.186667 230.686927 
L 472.88 230.677021 
L 480.573333 230.429377 
L 488.266667 230.542912 
L 495.96 230.353179 
L 503.653333 230.312794 
L 511.346667 230.321938 
L 519.04 230.497956 
L 526.733333 230.408042 
L 534.426667 230.455285 
L 542.12 230.272409 
" clip-path="url(#p9628eb94a2)" style="fill: none; stroke: #33ccff; stroke-width: 2; stroke-linecap: square"/>
   </g>
   <g id="line2d_15">
    <path d="M 80.52 89.043113 
L 88.213333 93.919789 
L 95.906667 101.28357 
L 103.6 110.749655 
L 111.293333 119.932283 
L 118.986667 128.63715 
L 126.68 137.716149 
L 134.373333 147.778102 
L 142.066667 157.536026 
L 149.76 167.065356 
L 157.453333 175.669641 
L 165.146667 181.478219 
L 172.84 187.007912 
L 180.533333 191.792388 
L 188.226667 196.366558 
L 195.92 201.070264 
L 203.613333 204.830639 
L 211.306667 208.38604 
L 219 211.287662 
L 226.693333 214.330251 
L 234.386667 217.343884 
L 242.08 220.021484 
L 249.773333 221.815948 
L 257.466667 223.498402 
L 265.16 224.927877 
L 272.853333 226.268963 
L 280.546667 226.890739 
L 288.24 227.681675 
L 295.933333 228.095431 
L 303.626667 228.656248 
L 311.32 229.034953 
L 319.013333 229.543194 
L 326.706667 229.913516 
L 334.4 230.133729 
L 342.093333 230.186305 
L 349.786667 230.380611 
L 357.48 230.344035 
L 365.173333 230.481192 
L 372.866667 230.560438 
L 380.56 230.937618 
L 388.253333 230.853039 
L 395.946667 230.785984 
L 403.64 230.962764 
L 411.333333 231.243935 
L 419.026667 230.986385 
L 426.72 230.882756 
L 434.413333 230.690737 
L 442.106667 230.769221 
L 449.8 230.632826 
L 457.493333 230.56882 
L 465.186667 230.686927 
L 472.88 230.677021 
L 480.573333 230.429377 
L 488.266667 230.542912 
L 495.96 230.353179 
L 503.653333 230.312794 
L 511.346667 230.321938 
L 519.04 230.497956 
L 526.733333 230.408042 
L 534.426667 230.455285 
L 542.12 230.272409 
" clip-path="url(#p9628eb94a2)" style="fill: none; stroke-dasharray: 7.4,3.2; stroke-dashoffset: 0; stroke: #33ccff; stroke-width: 2"/>
   </g>
   <g id="line2d_16">
    <path d="M 80.52 82.190621 
L 88.213333 85.861082 
L 95.906667 92.089512 
L 103.6 101.085455 
L 111.293333 108.629063 
L 118.986667 117.213536 
L 126.68 127.908696 
L 134.373333 140.037141 
L 142.066667 149.430076 
L 149.76 157.023213 
L 157.453333 164.530246 
L 165.146667 171.115283 
L 172.84 175.837276 
L 180.533333 180.668996 
L 188.226667 185.535004 
L 195.92 192.246529 
L 203.613333 195.983282 
L 211.306667 198.881856 
L 219 201.148748 
L 226.693333 203.850732 
L 234.386667 206.532903 
L 242.08 207.83589 
L 249.773333 209.573206 
L 257.466667 211.138314 
L 265.16 212.139557 
L 272.853333 213.707713 
L 280.546667 215.167668 
L 288.24 216.075949 
L 295.933333 217.28064 
L 303.626667 218.090625 
L 311.32 219.001954 
L 319.013333 219.421043 
L 326.706667 220.074061 
L 334.4 220.279796 
L 342.093333 220.928241 
L 349.786667 221.430386 
L 357.48 222.07426 
L 365.173333 222.366098 
L 372.866667 222.649555 
L 380.56 222.871292 
L 388.253333 223.16313 
L 395.946667 223.399344 
L 403.64 223.614223 
L 411.333333 223.791764 
L 419.026667 223.847389 
L 426.72 224.002071 
L 434.413333 224.012739 
L 442.106667 224.002071 
L 449.8 224.253524 
L 457.493333 224.618513 
L 465.186667 224.785387 
L 472.88 224.528599 
L 480.573333 224.495072 
L 488.266667 224.110272 
L 495.96 224.640611 
L 503.653333 224.471451 
L 511.346667 224.487453 
L 519.04 224.725952 
L 526.733333 224.688615 
L 534.426667 224.924067 
L 542.12 224.950737 
" clip-path="url(#p9628eb94a2)" style="fill: none; stroke: #33ccff; stroke-width: 2; stroke-linecap: square"/>
   </g>
   <g id="line2d_17">
    <path d="M 80.52 82.190621 
L 88.213333 85.861082 
L 95.906667 92.089512 
L 103.6 101.085455 
L 111.293333 108.629063 
L 118.986667 117.213536 
L 126.68 127.908696 
L 134.373333 140.037141 
L 142.066667 149.430076 
L 149.76 157.023213 
L 157.453333 164.530246 
L 165.146667 171.115283 
L 172.84 175.837276 
L 180.533333 180.668996 
L 188.226667 185.535004 
L 195.92 192.246529 
L 203.613333 195.983282 
L 211.306667 198.881856 
L 219 201.148748 
L 226.693333 203.850732 
L 234.386667 206.532903 
L 242.08 207.83589 
L 249.773333 209.573206 
L 257.466667 211.138314 
L 265.16 212.139557 
L 272.853333 213.707713 
L 280.546667 215.167668 
L 288.24 216.075949 
L 295.933333 217.28064 
L 303.626667 218.090625 
L 311.32 219.001954 
L 319.013333 219.421043 
L 326.706667 220.074061 
L 334.4 220.279796 
L 342.093333 220.928241 
L 349.786667 221.430386 
L 357.48 222.07426 
L 365.173333 222.366098 
L 372.866667 222.649555 
L 380.56 222.871292 
L 388.253333 223.16313 
L 395.946667 223.399344 
L 403.64 223.614223 
L 411.333333 223.791764 
L 419.026667 223.847389 
L 426.72 224.002071 
L 434.413333 224.012739 
L 442.106667 224.002071 
L 449.8 224.253524 
L 457.493333 224.618513 
L 465.186667 224.785387 
L 472.88 224.528599 
L 480.573333 224.495072 
L 488.266667 224.110272 
L 495.96 224.640611 
L 503.653333 224.471451 
L 511.346667 224.487453 
L 519.04 224.725952 
L 526.733333 224.688615 
L 534.426667 224.924067 
L 542.12 224.950737 
" clip-path="url(#p9628eb94a2)" style="fill: none; stroke-dasharray: 7.4,3.2; stroke-dashoffset: 0; stroke: #f99a5a; stroke-width: 2"/>
   </g>
   <g id="line2d_18">
    <path d="M 80.52 104.051083 
L 88.213333 111.046065 
L 95.906667 120.237075 
L 103.6 127.382929 
L 111.293333 136.956454 
L 118.986667 146.212232 
L 126.68 155.945773 
L 134.373333 163.940473 
L 142.066667 170.60628 
L 149.76 175.117967 
L 157.453333 179.180085 
L 165.146667 186.669593 
L 172.84 192.967363 
L 180.533333 199.362666 
L 188.226667 203.747102 
L 195.92 208.645876 
L 203.613333 212.658466 
L 211.306667 216.060709 
L 219 218.207208 
L 226.693333 221.950819 
L 234.386667 224.897398 
L 242.08 226.918171 
L 249.773333 228.66463 
L 257.466667 230.274695 
L 265.16 231.704933 
L 272.853333 232.69627 
L 280.546667 233.561118 
L 288.24 234.291857 
L 295.933333 234.8161 
L 303.626667 235.293862 
L 311.32 235.813532 
L 319.013333 236.36292 
L 326.706667 236.623518 
L 334.4 236.631899 
L 342.093333 236.714955 
L 349.786667 236.653997 
L 357.48 236.344633 
L 365.173333 236.503125 
L 372.866667 236.273769 
L 380.56 236.187665 
L 388.253333 236.416259 
L 395.946667 236.530556 
L 403.64 236.452072 
L 411.333333 236.479503 
L 419.026667 236.599134 
L 426.72 236.426165 
L 434.413333 236.589991 
L 442.106667 236.538176 
L 449.8 236.690572 
L 457.493333 236.185379 
L 465.186667 236.353015 
L 472.88 236.500839 
L 480.573333 236.270721 
L 488.266667 236.410163 
L 495.96 236.346919 
L 503.653333 236.260815 
L 511.346667 236.315678 
L 519.04 236.053556 
L 526.733333 236.31263 
L 534.426667 236.032221 
L 542.12 236.20519 
" clip-path="url(#p9628eb94a2)" style="fill: none; stroke: #f99a5a; stroke-width: 2; stroke-linecap: square"/>
   </g>
   <g id="line2d_19">
    <path d="M 80.52 104.051083 
L 88.213333 111.046065 
L 95.906667 120.237075 
L 103.6 127.382929 
L 111.293333 136.956454 
L 118.986667 146.212232 
L 126.68 155.945773 
L 134.373333 163.940473 
L 142.066667 170.60628 
L 149.76 175.117967 
L 157.453333 179.180085 
L 165.146667 186.669593 
L 172.84 192.967363 
L 180.533333 199.362666 
L 188.226667 203.747102 
L 195.92 208.645876 
L 203.613333 212.658466 
L 211.306667 216.060709 
L 219 218.207208 
L 226.693333 221.950819 
L 234.386667 224.897398 
L 242.08 226.918171 
L 249.773333 228.66463 
L 257.466667 230.274695 
L 265.16 231.704933 
L 272.853333 232.69627 
L 280.546667 233.561118 
L 288.24 234.291857 
L 295.933333 234.8161 
L 303.626667 235.293862 
L 311.32 235.813532 
L 319.013333 236.36292 
L 326.706667 236.623518 
L 334.4 236.631899 
L 342.093333 236.714955 
L 349.786667 236.653997 
L 357.48 236.344633 
L 365.173333 236.503125 
L 372.866667 236.273769 
L 380.56 236.187665 
L 388.253333 236.416259 
L 395.946667 236.530556 
L 403.64 236.452072 
L 411.333333 236.479503 
L 419.026667 236.599134 
L 426.72 236.426165 
L 434.413333 236.589991 
L 442.106667 236.538176 
L 449.8 236.690572 
L 457.493333 236.185379 
L 465.186667 236.353015 
L 472.88 236.500839 
L 480.573333 236.270721 
L 488.266667 236.410163 
L 495.96 236.346919 
L 503.653333 236.260815 
L 511.346667 236.315678 
L 519.04 236.053556 
L 526.733333 236.31263 
L 534.426667 236.032221 
L 542.12 236.20519 
" clip-path="url(#p9628eb94a2)" style="fill: none; stroke-dasharray: 7.4,3.2; stroke-dashoffset: 0; stroke: #33ccff; stroke-width: 2"/>
   </g>
   <g id="line2d_20">
    <path d="M 80.52 104.644666 
L 88.213333 110.818233 
L 95.906667 120.242409 
L 103.6 131.024435 
L 111.293333 139.744541 
L 118.986667 149.033085 
L 126.68 159.175808 
L 134.373333 166.986872 
L 142.066667 173.805836 
L 149.76 178.490493 
L 157.453333 183.111143 
L 165.146667 186.490527 
L 172.84 191.923449 
L 180.533333 198.474196 
L 188.226667 205.469178 
L 195.92 212.299573 
L 203.613333 215.803921 
L 211.306667 218.290264 
L 219 220.452765 
L 226.693333 221.829664 
L 234.386667 223.962448 
L 242.08 225.29058 
L 249.773333 226.571469 
L 257.466667 227.683199 
L 265.16 228.218872 
L 272.853333 228.765212 
L 280.546667 229.555386 
L 288.24 230.131443 
L 295.933333 231.059535 
L 303.626667 231.327752 
L 311.32 231.465671 
L 319.013333 231.786465 
L 326.706667 232.444054 
L 334.4 232.543874 
L 342.093333 232.435672 
L 349.786667 232.421957 
L 357.48 232.347283 
L 365.173333 232.437196 
L 372.866667 232.329757 
L 380.56 232.661219 
L 388.253333 232.67341 
L 395.946667 232.59264 
L 403.64 232.664266 
L 411.333333 232.429576 
L 419.026667 232.451674 
L 426.72 232.245177 
L 434.413333 232.370904 
L 442.106667 232.20403 
L 449.8 231.946481 
L 457.493333 231.805514 
L 465.186667 231.182976 
L 472.88 231.134209 
L 480.573333 231.323943 
L 488.266667 231.095348 
L 495.96 230.978003 
L 503.653333 231.11897 
L 511.346667 230.838561 
L 519.04 230.494146 
L 526.733333 230.235834 
L 534.426667 230.443855 
L 542.12 230.195449 
" clip-path="url(#p9628eb94a2)" style="fill: none; stroke: #f99a5a; stroke-width: 2; stroke-linecap: square"/>
   </g>
   <g id="line2d_21">
    <path d="M 80.52 104.644666 
L 88.213333 110.818233 
L 95.906667 120.242409 
L 103.6 131.024435 
L 111.293333 139.744541 
L 118.986667 149.033085 
L 126.68 159.175808 
L 134.373333 166.986872 
L 142.066667 173.805836 
L 149.76 178.490493 
L 157.453333 183.111143 
L 165.146667 186.490527 
L 172.84 191.923449 
L 180.533333 198.474196 
L 188.226667 205.469178 
L 195.92 212.299573 
L 203.613333 215.803921 
L 211.306667 218.290264 
L 219 220.452765 
L 226.693333 221.829664 
L 234.386667 223.962448 
L 242.08 225.29058 
L 249.773333 226.571469 
L 257.466667 227.683199 
L 265.16 228.218872 
L 272.853333 228.765212 
L 280.546667 229.555386 
L 288.24 230.131443 
L 295.933333 231.059535 
L 303.626667 231.327752 
L 311.32 231.465671 
L 319.013333 231.786465 
L 326.706667 232.444054 
L 334.4 232.543874 
L 342.093333 232.435672 
L 349.786667 232.421957 
L 357.48 232.347283 
L 365.173333 232.437196 
L 372.866667 232.329757 
L 380.56 232.661219 
L 388.253333 232.67341 
L 395.946667 232.59264 
L 403.64 232.664266 
L 411.333333 232.429576 
L 419.026667 232.451674 
L 426.72 232.245177 
L 434.413333 232.370904 
L 442.106667 232.20403 
L 449.8 231.946481 
L 457.493333 231.805514 
L 465.186667 231.182976 
L 472.88 231.134209 
L 480.573333 231.323943 
L 488.266667 231.095348 
L 495.96 230.978003 
L 503.653333 231.11897 
L 511.346667 230.838561 
L 519.04 230.494146 
L 526.733333 230.235834 
L 534.426667 230.443855 
L 542.12 230.195449 
" clip-path="url(#p9628eb94a2)" style="fill: none; stroke-dasharray: 7.4,3.2; stroke-dashoffset: 0; stroke: #f99a5a; stroke-width: 2"/>
   </g>
   <g id="line2d_22">
    <path d="M 88.213333 246.04 
L 88.213333 25.44 
" clip-path="url(#p9628eb94a2)" style="fill: none; stroke-dasharray: 1.85,0.8; stroke-dashoffset: 0; stroke: #000000; stroke-width: 0.5"/>
   </g>
   <g id="line2d_23">
    <path d="M 142.066667 246.04 
L 142.066667 25.44 
" clip-path="url(#p9628eb94a2)" style="fill: none; stroke-dasharray: 1.85,0.8; stroke-dashoffset: 0; stroke: #000000; stroke-width: 0.5"/>
   </g>
   <g id="line2d_24">
    <path d="M 326.706667 246.04 
L 326.706667 25.44 
" clip-path="url(#p9628eb94a2)" style="fill: none; stroke-dasharray: 1.85,0.8; stroke-dashoffset: 0; stroke: #000000; stroke-width: 0.5"/>
   </g>
   <g id="patch_3">
    <path d="M 57.44 246.04 
L 57.44 25.44 
" style="fill: none; stroke: #000000; stroke-width: 0.8; stroke-linejoin: miter; stroke-linecap: square"/>
   </g>
   <g id="patch_4">
    <path d="M 565.2 246.04 
L 565.2 25.44 
" style="fill: none; stroke: #000000; stroke-width: 0.8; stroke-linejoin: miter; stroke-linecap: square"/>
   </g>
   <g id="patch_5">
    <path d="M 57.44 246.04 
L 565.2 246.04 
" style="fill: none; stroke: #000000; stroke-width: 0.8; stroke-linejoin: miter; stroke-linecap: square"/>
   </g>
   <g id="patch_6">
    <path d="M 57.44 25.44 
L 565.2 25.44 
" style="fill: none; stroke: #000000; stroke-width: 0.8; stroke-linejoin: miter; stroke-linecap: square"/>
   </g>
   <g id="text_16">
    <text style="font: 12px 'sans-serif'; text-anchor: middle" x="311.32" y="19.44" transform="rotate(-0, 311.32, 19.44)">Separate, within-tree loss: epochs to learn held-out tree</text>
   </g>
   <g id="legend_1">
    <g id="patch_7">
     <path d="M 437.589062 92.1525 
L 558.2 92.1525 
Q 560.2 92.1525 560.2 90.1525 
L 560.2 32.44 
Q 560.2 30.44 558.2 30.44 
L 437.589062 30.44 
Q 435.589062 30.44 435.589062 32.44 
L 435.589062 90.1525 
Q 435.589062 92.1525 437.589062 92.1525 
z
" style="fill: #ffffff; opacity: 0.8; stroke: #cccccc; stroke-linejoin: miter"/>
    </g>
    <g id="line2d_25">
     <path d="M 439.589062 38.538437 
L 449.589062 38.538437 
L 459.589062 38.538437 
" style="fill: none; stroke: #33ccff; stroke-width: 2; stroke-linecap: square"/>
    </g>
    <g id="line2d_26">
     <path d="M 439.589062 38.538437 
L 449.589062 38.538437 
L 459.589062 38.538437 
" style="fill: none; stroke-dasharray: 7.4,3.2; stroke-dashoffset: 0; stroke: #33ccff; stroke-width: 2"/>
    </g>
    <g id="text_17">
     <text style="font: 10px 'sans-serif'; text-anchor: start" x="467.589062" y="42.038437" transform="rotate(-0, 467.589062, 42.038437)">English to English</text>
    </g>
    <g id="line2d_27">
     <path d="M 439.589062 53.216562 
L 449.589062 53.216562 
L 459.589062 53.216562 
" style="fill: none; stroke: #33ccff; stroke-width: 2; stroke-linecap: square"/>
    </g>
    <g id="line2d_28">
     <path d="M 439.589062 53.216562 
L 449.589062 53.216562 
L 459.589062 53.216562 
" style="fill: none; stroke-dasharray: 7.4,3.2; stroke-dashoffset: 0; stroke: #f99a5a; stroke-width: 2"/>
    </g>
    <g id="text_18">
     <text style="font: 10px 'sans-serif'; text-anchor: start" x="467.589062" y="56.716562" transform="rotate(-0, 467.589062, 56.716562)">French to English</text>
    </g>
    <g id="line2d_29">
     <path d="M 439.589062 67.894687 
L 449.589062 67.894687 
L 459.589062 67.894687 
" style="fill: none; stroke: #f99a5a; stroke-width: 2; stroke-linecap: square"/>
    </g>
    <g id="line2d_30">
     <path d="M 439.589062 67.894687 
L 449.589062 67.894687 
L 459.589062 67.894687 
" style="fill: none; stroke-dasharray: 7.4,3.2; stroke-dashoffset: 0; stroke: #33ccff; stroke-width: 2"/>
    </g>
    <g id="text_19">
     <text style="font: 10px 'sans-serif'; text-anchor: start" x="467.589062" y="71.394687" transform="rotate(-0, 467.589062, 71.394687)">English to French</text>
    </g>
    <g id="line2d_31">
     <path d="M 439.589062 82.572812 
L 449.589062 82.572812 
L 459.589062 82.572812 
" style="fill: none; stroke: #f99a5a; stroke-width: 2; stroke-linecap: square"/>
    </g>
    <g id="line2d_32">
     <path d="M 439.589062 82.572812 
L 449.589062 82.572812 
L 459.589062 82.572812 
" style="fill: none; stroke-dasharray: 7.4,3.2; stroke-dashoffset: 0; stroke: #f99a5a; stroke-width: 2"/>
    </g>
    <g id="text_20">
     <text style="font: 10px 'sans-serif'; text-anchor: start" x="467.589062" y="86.072812" transform="rotate(-0, 467.589062, 86.072812)">French to French</text>
    </g>
   </g>
  </g>
 </g>
 <defs>
  <clipPath id="p9628eb94a2">
   <rect x="57.44" y="25.44" width="507.76" height="220.6"/>
  </clipPath>
 </defs>
</svg>
