<?xml version="1.0" encoding="utf-8" standalone="no"?>
<!DOCTYPE svg PUBLIC "-//W3C//DTD SVG 1.1//EN"
  "http://www.w3.org/Graphics/SVG/1.1/DTD/svg11.dtd">
<svg xmlns:xlink="http://www.w3.org/1999/xlink" width="576pt" height="288pt" viewBox="0 0 576 288" xmlns="http://www.w3.org/2000/svg" version="1.1">
 <metadata>
  <rdf:RDF xmlns:dc="http://purl.org/dc/elements/1.1/" xmlns:cc="http://creativecommons.org/ns#" xmlns:rdf="http://www.w3.org/1999/02/22-rdf-syntax-ns#">
   <cc:Work>
    <dc:type rdf:resource="http://purl.org/dc/dcmitype/StillImage"/>
    <dc:date>2022-04-22T01:01:23.086241</dc:date>
    <dc:format>image/svg+xml</dc:format>
    <dc:creator>
     <cc:Agent>
      <dc:title>Matplotlib v3.5.1, https://matplotlib.org/</dc:title>
     </cc:Agent>
    </dc:creator>
   </cc:Work>
  </rdf:RDF>
 </metadata>
 <defs>
  <style type="text/css">*{stroke-linejoin: round; stroke-linecap: butt}</style>
 </defs>
 <g id="figure_1">
  <g id="patch_1">
   <path d="M 0 288 
L 576 288 
L 576 0 
L 0 0 
z
" style="fill: #ffffff"/>
  </g>
  <g id="axes_1">
   <g id="patch_2">
    <path d="M 57.44 246.04 
L 565.2 246.04 
L 565.2 25.44 
L 57.44 25.44 
z
" style="fill: #ffffff"/>
   </g>
   <g id="PolyCollection_1">
    <defs>
     <path id="m8cd020c34d" d="M 80.52 -105.320765 
L 80.52 -101.74033 
L 88.213333 -167.805005 
L 95.906667 -182.922543 
L 103.6 -177.694853 
L 111.293333 -171.899979 
L 118.986667 -164.949352 
L 126.68 -160.67148 
L 134.373333 -155.026766 
L 142.066667 -149.21974 
L 149.76 -145.783631 
L 157.453333 -140.822961 
L 165.146667 -139.159652 
L 172.84 -135.234833 
L 180.533333 -132.310809 
L 188.226667 -128.790556 
L 195.92 -128.911813 
L 203.613333 -123.459594 
L 211.306667 -126.114945 
L 219 -126.390028 
L 226.693333 -130.843873 
L 234.386667 -134.135546 
L 242.08 -134.151912 
L 249.773333 -129.127469 
L 257.466667 -137.997295 
L 265.16 -137.649141 
L 272.853333 -137.640552 
L 280.546667 -134.848084 
L 288.24 -133.081829 
L 295.933333 -135.57882 
L 303.626667 -135.775206 
L 311.32 -131.73765 
L 319.013333 -131.230686 
L 326.706667 -131.125971 
L 334.4 -130.373847 
L 342.093333 -128.433332 
L 349.786667 -129.016189 
L 357.48 -125.349539 
L 365.173333 -126.176916 
L 372.866667 -121.681097 
L 380.56 -124.162774 
L 388.253333 -122.320062 
L 395.946667 -119.98354 
L 403.64 -117.534197 
L 411.333333 -117.106463 
L 419.026667 -115.406091 
L 426.72 -115.542682 
L 434.413333 -115.665874 
L 442.106667 -112.265331 
L 449.8 -112.227224 
L 457.493333 -110.115585 
L 465.186667 -108.96644 
L 472.88 -108.379897 
L 480.573333 -107.659623 
L 488.266667 -105.918497 
L 495.96 -102.63908 
L 503.653333 -104.9334 
L 511.346667 -104.835749 
L 519.04 -99.222595 
L 526.733333 -99.152341 
L 534.426667 -99.597654 
L 542.12 -97.755018 
L 542.12 -133.157188 
L 542.12 -133.157188 
L 534.426667 -136.647232 
L 526.733333 -136.41661 
L 519.04 -135.595621 
L 511.346667 -141.503465 
L 503.653333 -142.629977 
L 495.96 -137.027442 
L 488.266667 -142.062664 
L 480.573333 -143.625502 
L 472.88 -145.088105 
L 465.186667 -144.624708 
L 457.493333 -144.096767 
L 449.8 -147.062394 
L 442.106667 -146.227031 
L 434.413333 -151.426643 
L 426.72 -152.016878 
L 419.026667 -150.258844 
L 411.333333 -151.42367 
L 403.64 -150.583625 
L 395.946667 -153.883834 
L 388.253333 -155.198821 
L 380.56 -157.385266 
L 372.866667 -154.447604 
L 365.173333 -158.36038 
L 357.48 -157.357897 
L 349.786667 -161.089133 
L 342.093333 -157.917404 
L 334.4 -160.279703 
L 326.706667 -158.64184 
L 319.013333 -160.078731 
L 311.32 -159.268918 
L 303.626667 -163.856148 
L 295.933333 -161.345145 
L 288.24 -158.65723 
L 280.546667 -159.570999 
L 272.853333 -163.33355 
L 265.16 -164.2107 
L 257.466667 -163.745785 
L 249.773333 -152.109513 
L 242.08 -158.729213 
L 234.386667 -156.954032 
L 226.693333 -153.297532 
L 219 -147.753741 
L 211.306667 -145.649824 
L 203.613333 -138.915972 
L 195.92 -145.107898 
L 188.226667 -145.021174 
L 180.533333 -148.473725 
L 172.84 -148.903834 
L 165.146667 -155.514845 
L 157.453333 -155.681395 
L 149.76 -157.958977 
L 142.066667 -158.680644 
L 134.373333 -165.107038 
L 126.68 -170.027343 
L 118.986667 -174.887821 
L 111.293333 -180.858408 
L 103.6 -186.50061 
L 95.906667 -191.241365 
L 88.213333 -180.721718 
L 80.52 -105.320765 
z
" style="stroke: #33ccff; stroke-opacity: 0.3"/>
    </defs>
    <g clip-path="url(#p2bce8cb164)">
     <use xlink:href="#m8cd020c34d" x="0" y="288" style="fill: #33ccff; fill-opacity: 0.3; stroke: #33ccff; stroke-opacity: 0.3"/>
    </g>
   </g>
   <g id="PolyCollection_2">
    <defs>
     <path id="me1df754deb" d="M 80.52 -104.057668 
L 80.52 -100.536858 
L 88.213333 -166.397589 
L 95.906667 -188.092265 
L 103.6 -193.013912 
L 111.293333 -186.069362 
L 118.986667 -182.125583 
L 126.68 -174.684846 
L 134.373333 -166.891792 
L 142.066667 -165.802209 
L 149.76 -161.698042 
L 157.453333 -155.203047 
L 165.146667 -149.786589 
L 172.84 -143.625938 
L 180.533333 -138.361661 
L 188.226667 -132.381119 
L 195.92 -126.421513 
L 203.613333 -124.988091 
L 211.306667 -121.293208 
L 219 -118.250989 
L 226.693333 -114.450825 
L 234.386667 -111.713379 
L 242.08 -110.515812 
L 249.773333 -109.087587 
L 257.466667 -105.620604 
L 265.16 -105.552268 
L 272.853333 -104.289073 
L 280.546667 -100.850716 
L 288.24 -101.066268 
L 295.933333 -100.278639 
L 303.626667 -97.212076 
L 311.32 -96.366084 
L 319.013333 -94.173573 
L 326.706667 -91.846271 
L 334.4 -92.145525 
L 342.093333 -90.554165 
L 349.786667 -89.392516 
L 357.48 -86.519698 
L 365.173333 -84.058937 
L 372.866667 -84.144764 
L 380.56 -83.570882 
L 388.253333 -81.761 
L 395.946667 -80.736636 
L 403.64 -79.723222 
L 411.333333 -77.516789 
L 419.026667 -75.645424 
L 426.72 -75.539198 
L 434.413333 -75.40745 
L 442.106667 -72.623591 
L 449.8 -71.943045 
L 457.493333 -70.163601 
L 465.186667 -71.131521 
L 472.88 -68.506589 
L 480.573333 -68.068051 
L 488.266667 -68.368592 
L 495.96 -67.196398 
L 503.653333 -66.723375 
L 511.346667 -66.331932 
L 519.04 -66.12768 
L 526.733333 -63.995107 
L 534.426667 -63.804843 
L 542.12 -62.728496 
L 542.12 -87.666257 
L 542.12 -87.666257 
L 534.426667 -87.717381 
L 526.733333 -88.243188 
L 519.04 -90.489141 
L 511.346667 -90.338709 
L 503.653333 -89.554111 
L 495.96 -90.963855 
L 488.266667 -91.68811 
L 480.573333 -91.225145 
L 472.88 -91.410547 
L 465.186667 -94.930147 
L 457.493333 -92.626031 
L 449.8 -95.686683 
L 442.106667 -96.325167 
L 434.413333 -99.050042 
L 426.72 -98.904611 
L 419.026667 -99.305564 
L 411.333333 -100.745461 
L 403.64 -103.243206 
L 395.946667 -104.084281 
L 388.253333 -105.173468 
L 380.56 -106.461394 
L 372.866667 -106.448511 
L 365.173333 -105.539135 
L 357.48 -108.644576 
L 349.786667 -111.824158 
L 342.093333 -112.653827 
L 334.4 -113.026419 
L 326.706667 -112.563992 
L 319.013333 -113.74772 
L 311.32 -114.990528 
L 303.626667 -116.641208 
L 295.933333 -119.401734 
L 288.24 -120.296189 
L 280.546667 -118.116322 
L 272.853333 -122.139704 
L 265.16 -123.093138 
L 257.466667 -121.184909 
L 249.773333 -125.800867 
L 242.08 -127.092803 
L 234.386667 -127.58188 
L 226.693333 -130.347695 
L 219 -133.79764 
L 211.306667 -137.004857 
L 203.613333 -140.560995 
L 195.92 -142.138722 
L 188.226667 -149.259965 
L 180.533333 -156.308275 
L 172.84 -160.391239 
L 165.146667 -165.978722 
L 157.453333 -170.800718 
L 149.76 -177.263426 
L 142.066667 -181.707419 
L 134.373333 -180.052277 
L 126.68 -189.045398 
L 118.986667 -196.230764 
L 111.293333 -197.715445 
L 103.6 -205.62231 
L 95.906667 -200.058299 
L 88.213333 -181.273497 
L 80.52 -104.057668 
z
" style="stroke: #33ccff; stroke-opacity: 0.3"/>
    </defs>
    <g clip-path="url(#p2bce8cb164)">
     <use xlink:href="#me1df754deb" x="0" y="288" style="fill: #33ccff; fill-opacity: 0.3; stroke: #33ccff; stroke-opacity: 0.3"/>
    </g>
   </g>
   <g id="PolyCollection_3">
    <defs>
     <path id="mb674c73958" d="M 80.52 -94.281752 
L 80.52 -90.389566 
L 88.213333 -139.17947 
L 95.906667 -152.21409 
L 103.6 -152.784923 
L 111.293333 -144.659337 
L 118.986667 -137.232548 
L 126.68 -130.995291 
L 134.373333 -128.220953 
L 142.066667 -122.224249 
L 149.76 -117.326845 
L 157.453333 -113.479266 
L 165.146667 -111.158102 
L 172.84 -109.260609 
L 180.533333 -106.442322 
L 188.226667 -102.2411 
L 195.92 -103.323952 
L 203.613333 -105.654365 
L 211.306667 -107.474477 
L 219 -113.554015 
L 226.693333 -111.2268 
L 234.386667 -113.468891 
L 242.08 -112.228418 
L 249.773333 -117.66473 
L 257.466667 -116.968561 
L 265.16 -111.978232 
L 272.853333 -116.538746 
L 280.546667 -116.349062 
L 288.24 -112.063813 
L 295.933333 -112.581255 
L 303.626667 -111.023383 
L 311.32 -108.352006 
L 319.013333 -109.287299 
L 326.706667 -110.507373 
L 334.4 -105.690009 
L 342.093333 -104.813629 
L 349.786667 -102.341345 
L 357.48 -105.090823 
L 365.173333 -102.920792 
L 372.866667 -101.638597 
L 380.56 -100.051966 
L 388.253333 -100.006083 
L 395.946667 -99.791537 
L 403.64 -98.543234 
L 411.333333 -96.716644 
L 419.026667 -97.265721 
L 426.72 -94.652366 
L 434.413333 -92.90708 
L 442.106667 -92.656776 
L 449.8 -92.729015 
L 457.493333 -88.94771 
L 465.186667 -87.364383 
L 472.88 -87.684547 
L 480.573333 -86.169324 
L 488.266667 -84.512264 
L 495.96 -84.40226 
L 503.653333 -84.712735 
L 511.346667 -82.284949 
L 519.04 -83.63703 
L 526.733333 -77.96925 
L 534.426667 -80.920379 
L 542.12 -79.208728 
L 542.12 -106.925747 
L 542.12 -106.925747 
L 534.426667 -108.117607 
L 526.733333 -104.724433 
L 519.04 -112.127467 
L 511.346667 -110.242174 
L 503.653333 -112.037843 
L 495.96 -112.181387 
L 488.266667 -111.978338 
L 480.573333 -113.343374 
L 472.88 -116.057989 
L 465.186667 -114.182505 
L 457.493333 -117.397313 
L 449.8 -120.424617 
L 442.106667 -120.933797 
L 434.413333 -121.092155 
L 426.72 -121.184026 
L 419.026667 -124.600266 
L 411.333333 -123.728147 
L 403.64 -126.523639 
L 395.946667 -127.277599 
L 388.253333 -127.52371 
L 380.56 -127.728681 
L 372.866667 -129.843729 
L 365.173333 -130.645895 
L 357.48 -133.206498 
L 349.786667 -129.261391 
L 342.093333 -131.384735 
L 334.4 -133.044252 
L 326.706667 -138.809238 
L 319.013333 -136.612238 
L 311.32 -135.522462 
L 303.626667 -139.332217 
L 295.933333 -139.364297 
L 288.24 -138.674908 
L 280.546667 -141.959036 
L 272.853333 -142.884052 
L 265.16 -136.662445 
L 257.466667 -141.856751 
L 249.773333 -141.918614 
L 242.08 -136.07201 
L 234.386667 -139.460005 
L 226.693333 -136.332015 
L 219 -138.739082 
L 211.306667 -127.54807 
L 203.613333 -126.170946 
L 195.92 -122.161618 
L 188.226667 -114.525729 
L 180.533333 -117.894796 
L 172.84 -119.048198 
L 165.146667 -120.625247 
L 157.453333 -121.597101 
L 149.76 -125.298831 
L 142.066667 -129.130202 
L 134.373333 -134.992919 
L 126.68 -137.358789 
L 118.986667 -142.431813 
L 111.293333 -152.40693 
L 103.6 -161.401383 
L 95.906667 -159.659806 
L 88.213333 -146.945954 
L 80.52 -94.281752 
z
" style="stroke: #f99a5a; stroke-opacity: 0.3"/>
    </defs>
    <g clip-path="url(#p2bce8cb164)">
     <use xlink:href="#mb674c73958" x="0" y="288" style="fill: #f99a5a; fill-opacity: 0.3; stroke: #f99a5a; stroke-opacity: 0.3"/>
    </g>
   </g>
   <g id="PolyCollection_4">
    <defs>
     <path id="m5fbf8c7575" d="M 80.52 -93.676954 
L 80.52 -90.024702 
L 88.213333 -139.83712 
L 95.906667 -156.665219 
L 103.6 -162.561885 
L 111.293333 -159.34123 
L 118.986667 -153.174467 
L 126.68 -145.134412 
L 134.373333 -144.136293 
L 142.066667 -137.982057 
L 149.76 -134.12217 
L 157.453333 -129.713624 
L 165.146667 -125.365356 
L 172.84 -119.483208 
L 180.533333 -114.185856 
L 188.226667 -112.582926 
L 195.92 -110.500415 
L 203.613333 -108.885546 
L 211.306667 -105.056305 
L 219 -102.559019 
L 226.693333 -100.021745 
L 234.386667 -94.379346 
L 242.08 -92.291151 
L 249.773333 -90.754173 
L 257.466667 -88.069723 
L 265.16 -85.539936 
L 272.853333 -85.512372 
L 280.546667 -81.806808 
L 288.24 -81.126653 
L 295.933333 -82.0086 
L 303.626667 -79.594976 
L 311.32 -77.810488 
L 319.013333 -75.46543 
L 326.706667 -74.959889 
L 334.4 -74.777357 
L 342.093333 -74.026613 
L 349.786667 -70.922958 
L 357.48 -71.667583 
L 365.173333 -71.393499 
L 372.866667 -70.968308 
L 380.56 -69.451382 
L 388.253333 -68.142169 
L 395.946667 -67.94667 
L 403.64 -66.124368 
L 411.333333 -65.026819 
L 419.026667 -63.471817 
L 426.72 -64.051105 
L 434.413333 -63.281689 
L 442.106667 -60.416686 
L 449.8 -60.05823 
L 457.493333 -59.09932 
L 465.186667 -59.5995 
L 472.88 -57.579604 
L 480.573333 -55.35294 
L 488.266667 -55.192978 
L 495.96 -54.098322 
L 503.653333 -55.408137 
L 511.346667 -53.909166 
L 519.04 -52.638822 
L 526.733333 -50.757916 
L 534.426667 -49.835588 
L 542.12 -49.753443 
L 542.12 -65.405118 
L 542.12 -65.405118 
L 534.426667 -66.333683 
L 526.733333 -67.72194 
L 519.04 -69.830054 
L 511.346667 -73.161724 
L 503.653333 -72.072327 
L 495.96 -72.345891 
L 488.266667 -72.533779 
L 480.573333 -72.914747 
L 472.88 -76.627372 
L 465.186667 -78.063775 
L 457.493333 -78.421653 
L 449.8 -79.073676 
L 442.106667 -78.995263 
L 434.413333 -84.805216 
L 426.72 -83.154622 
L 419.026667 -82.110206 
L 411.333333 -85.258471 
L 403.64 -86.856452 
L 395.946667 -88.442103 
L 388.253333 -89.060281 
L 380.56 -90.042496 
L 372.866667 -90.755883 
L 365.173333 -91.432621 
L 357.48 -91.209619 
L 349.786667 -91.244558 
L 342.093333 -94.224318 
L 334.4 -95.820647 
L 326.706667 -94.828087 
L 319.013333 -95.4637 
L 311.32 -98.486898 
L 303.626667 -98.780385 
L 295.933333 -101.275271 
L 288.24 -101.712981 
L 280.546667 -100.310369 
L 272.853333 -104.371216 
L 265.16 -105.165538 
L 257.466667 -106.653962 
L 249.773333 -109.892381 
L 242.08 -110.92505 
L 234.386667 -112.314136 
L 226.693333 -119.075737 
L 219 -122.20683 
L 211.306667 -121.834042 
L 203.613333 -126.276567 
L 195.92 -126.213338 
L 188.226667 -127.515975 
L 180.533333 -129.549047 
L 172.84 -134.972699 
L 165.146667 -141.086802 
L 157.453333 -142.625827 
L 149.76 -147.457796 
L 142.066667 -150.253269 
L 134.373333 -156.839633 
L 126.68 -155.771276 
L 118.986667 -166.928322 
L 111.293333 -169.972884 
L 103.6 -174.375426 
L 95.906667 -166.480646 
L 88.213333 -151.340029 
L 80.52 -93.676954 
z
" style="stroke: #f99a5a; stroke-opacity: 0.3"/>
    </defs>
    <g clip-path="url(#p2bce8cb164)">
     <use xlink:href="#m5fbf8c7575" x="0" y="288" style="fill: #f99a5a; fill-opacity: 0.3; stroke: #f99a5a; stroke-opacity: 0.3"/>
    </g>
   </g>
   <g id="matplotlib.axis_1">
    <g id="xtick_1">
     <g id="line2d_1">
      <defs>
       <path id="m88f4763c51" d="M 0 0 
L 0 3.5 
" style="stroke: #000000; stroke-width: 0.8"/>
      </defs>
      <g>
       <use xlink:href="#m88f4763c51" x="80.52" y="246.04" style="stroke: #000000; stroke-width: 0.8"/>
      </g>
     </g>
     <g id="text_1">
      <text style="font: 10px 'sans-serif'; text-anchor: middle" x="80.52" y="260.638438" transform="rotate(-0, 80.52, 260.638438)">0</text>
     </g>
    </g>
    <g id="xtick_2">
     <g id="line2d_2">
      <g>
       <use xlink:href="#m88f4763c51" x="157.453333" y="246.04" style="stroke: #000000; stroke-width: 0.8"/>
      </g>
     </g>
     <g id="text_2">
      <text style="font: 10px 'sans-serif'; text-anchor: middle" x="157.453333" y="260.638438" transform="rotate(-0, 157.453333, 260.638438)">2000</text>
     </g>
    </g>
    <g id="xtick_3">
     <g id="line2d_3">
      <g>
       <use xlink:href="#m88f4763c51" x="234.386667" y="246.04" style="stroke: #000000; stroke-width: 0.8"/>
      </g>
     </g>
     <g id="text_3">
      <text style="font: 10px 'sans-serif'; text-anchor: middle" x="234.386667" y="260.638438" transform="rotate(-0, 234.386667, 260.638438)">4000</text>
     </g>
    </g>
    <g id="xtick_4">
     <g id="line2d_4">
      <g>
       <use xlink:href="#m88f4763c51" x="311.32" y="246.04" style="stroke: #000000; stroke-width: 0.8"/>
      </g>
     </g>
     <g id="text_4">
      <text style="font: 10px 'sans-serif'; text-anchor: middle" x="311.32" y="260.638438" transform="rotate(-0, 311.32, 260.638438)">6000</text>
     </g>
    </g>
    <g id="xtick_5">
     <g id="line2d_5">
      <g>
       <use xlink:href="#m88f4763c51" x="388.253333" y="246.04" style="stroke: #000000; stroke-width: 0.8"/>
      </g>
     </g>
     <g id="text_5">
      <text style="font: 10px 'sans-serif'; text-anchor: middle" x="388.253333" y="260.638438" transform="rotate(-0, 388.253333, 260.638438)">8000</text>
     </g>
    </g>
    <g id="xtick_6">
     <g id="line2d_6">
      <g>
       <use xlink:href="#m88f4763c51" x="465.186667" y="246.04" style="stroke: #000000; stroke-width: 0.8"/>
      </g>
     </g>
     <g id="text_6">
      <text style="font: 10px 'sans-serif'; text-anchor: middle" x="465.186667" y="260.638438" transform="rotate(-0, 465.186667, 260.638438)">10000</text>
     </g>
    </g>
    <g id="xtick_7">
     <g id="line2d_7">
      <g>
       <use xlink:href="#m88f4763c51" x="542.12" y="246.04" style="stroke: #000000; stroke-width: 0.8"/>
      </g>
     </g>
     <g id="text_7">
      <text style="font: 10px 'sans-serif'; text-anchor: middle" x="542.12" y="260.638438" transform="rotate(-0, 542.12, 260.638438)">12000</text>
     </g>
    </g>
    <g id="text_8">
     <text style="font: 10px 'sans-serif'; text-anchor: middle" x="311.32" y="274.316562" transform="rotate(-0, 311.32, 274.316562)">Epochs training first 2 trees</text>
    </g>
   </g>
   <g id="matplotlib.axis_2">
    <g id="ytick_1">
     <g id="line2d_8">
      <defs>
       <path id="med91b03cbd" d="M 0 0 
L -3.5 0 
" style="stroke: #000000; stroke-width: 0.8"/>
      </defs>
      <g>
       <use xlink:href="#med91b03cbd" x="57.44" y="229.086181" style="stroke: #000000; stroke-width: 0.8"/>
      </g>
     </g>
     <g id="text_9">
      <text style="font: 10px 'sans-serif'; text-anchor: end" x="50.44" y="232.8854" transform="rotate(-0, 50.44, 232.8854)">2000</text>
     </g>
    </g>
    <g id="ytick_2">
     <g id="line2d_9">
      <g>
       <use xlink:href="#med91b03cbd" x="57.44" y="183.47653" style="stroke: #000000; stroke-width: 0.8"/>
      </g>
     </g>
     <g id="text_10">
      <text style="font: 10px 'sans-serif'; text-anchor: end" x="50.44" y="187.275749" transform="rotate(-0, 50.44, 187.275749)">3000</text>
     </g>
    </g>
    <g id="ytick_3">
     <g id="line2d_10">
      <g>
       <use xlink:href="#med91b03cbd" x="57.44" y="137.86688" style="stroke: #000000; stroke-width: 0.8"/>
      </g>
     </g>
     <g id="text_11">
      <text style="font: 10px 'sans-serif'; text-anchor: end" x="50.44" y="141.666099" transform="rotate(-0, 50.44, 141.666099)">4000</text>
     </g>
    </g>
    <g id="ytick_4">
     <g id="line2d_11">
      <g>
       <use xlink:href="#med91b03cbd" x="57.44" y="92.25723" style="stroke: #000000; stroke-width: 0.8"/>
      </g>
     </g>
     <g id="text_12">
      <text style="font: 10px 'sans-serif'; text-anchor: end" x="50.44" y="96.056448" transform="rotate(-0, 50.44, 96.056448)">5000</text>
     </g>
    </g>
    <g id="ytick_5">
     <g id="line2d_12">
      <g>
       <use xlink:href="#med91b03cbd" x="57.44" y="46.647579" style="stroke: #000000; stroke-width: 0.8"/>
      </g>
     </g>
     <g id="text_13">
      <text style="font: 10px 'sans-serif'; text-anchor: end" x="50.44" y="50.446798" transform="rotate(-0, 50.44, 50.446798)">6000</text>
     </g>
    </g>
    <g id="text_14">
     <text style="font: 10px 'sans-serif'; text-anchor: middle" x="18.910313" y="135.74" transform="rotate(-90, 18.910313, 135.74)">Epochs to 85% on held-out tree</text>
    </g>
   </g>
   <g id="line2d_13">
    <path d="M 80.52 184.469453 
L 88.213333 113.736638 
L 95.906667 100.918046 
L 103.6 105.902269 
L 111.293333 111.620807 
L 118.986667 118.081414 
L 126.68 122.650588 
L 134.373333 127.933098 
L 142.066667 134.049808 
L 149.76 136.128696 
L 157.453333 139.747822 
L 165.146667 140.662752 
L 172.84 145.930666 
L 180.533333 147.607733 
L 188.226667 151.094135 
L 195.92 150.990145 
L 203.613333 156.812217 
L 211.306667 152.117615 
L 219 150.928116 
L 226.693333 145.929298 
L 234.386667 142.455211 
L 242.08 141.559437 
L 249.773333 147.381509 
L 257.466667 137.12846 
L 265.16 137.070079 
L 272.853333 137.512949 
L 280.546667 140.790459 
L 288.24 142.13047 
L 295.933333 139.538018 
L 303.626667 138.184323 
L 311.32 142.496716 
L 319.013333 142.345292 
L 326.706667 143.116095 
L 334.4 142.673225 
L 342.093333 144.824632 
L 349.786667 142.947339 
L 357.48 146.646282 
L 365.173333 145.731352 
L 372.866667 149.93565 
L 380.56 147.22598 
L 388.253333 149.240559 
L 395.946667 151.066313 
L 403.64 153.941089 
L 411.333333 153.734933 
L 419.026667 155.167533 
L 426.72 154.22022 
L 434.413333 154.453742 
L 442.106667 158.753819 
L 449.8 158.355191 
L 457.493333 160.893824 
L 465.186667 161.204426 
L 472.88 161.265999 
L 480.573333 162.357438 
L 488.266667 164.009419 
L 495.96 168.166739 
L 503.653333 164.218312 
L 511.346667 164.830393 
L 519.04 170.590892 
L 526.733333 170.215525 
L 534.426667 169.877557 
L 542.12 172.543897 
" clip-path="url(#p2bce8cb164)" style="fill: none; stroke: #33ccff; stroke-width: 2; stroke-linecap: square"/>
   </g>
   <g id="line2d_14">
    <path d="M 80.52 184.469453 
L 88.213333 113.736638 
L 95.906667 100.918046 
L 103.6 105.902269 
L 111.293333 111.620807 
L 118.986667 118.081414 
L 126.68 122.650588 
L 134.373333 127.933098 
L 142.066667 134.049808 
L 149.76 136.128696 
L 157.453333 139.747822 
L 165.146667 140.662752 
L 172.84 145.930666 
L 180.533333 147.607733 
L 188.226667 151.094135 
L 195.92 150.990145 
L 203.613333 156.812217 
L 211.306667 152.117615 
L 219 150.928116 
L 226.693333 145.929298 
L 234.386667 142.455211 
L 242.08 141.559437 
L 249.773333 147.381509 
L 257.466667 137.12846 
L 265.16 137.070079 
L 272.853333 137.512949 
L 280.546667 140.790459 
L 288.24 142.13047 
L 295.933333 139.538018 
L 303.626667 138.184323 
L 311.32 142.496716 
L 319.013333 142.345292 
L 326.706667 143.116095 
L 334.4 142.673225 
L 342.093333 144.824632 
L 349.786667 142.947339 
L 357.48 146.646282 
L 365.173333 145.731352 
L 372.866667 149.93565 
L 380.56 147.22598 
L 388.253333 149.240559 
L 395.946667 151.066313 
L 403.64 153.941089 
L 411.333333 153.734933 
L 419.026667 155.167533 
L 426.72 154.22022 
L 434.413333 154.453742 
L 442.106667 158.753819 
L 449.8 158.355191 
L 457.493333 160.893824 
L 465.186667 161.204426 
L 472.88 161.265999 
L 480.573333 162.357438 
L 488.266667 164.009419 
L 495.96 168.166739 
L 503.653333 164.218312 
L 511.346667 164.830393 
L 519.04 170.590892 
L 526.733333 170.215525 
L 534.426667 169.877557 
L 542.12 172.543897 
" clip-path="url(#p2bce8cb164)" style="fill: none; stroke-dasharray: 7.4,3.2; stroke-dashoffset: 0; stroke: #33ccff; stroke-width: 2"/>
   </g>
   <g id="line2d_15">
    <path d="M 80.52 185.702737 
L 88.213333 114.164457 
L 95.906667 93.924718 
L 103.6 88.681889 
L 111.293333 96.107596 
L 118.986667 98.821827 
L 126.68 106.134878 
L 134.373333 114.527966 
L 142.066667 114.245186 
L 149.76 118.519266 
L 157.453333 124.998117 
L 165.146667 130.117344 
L 172.84 135.991411 
L 180.533333 140.665032 
L 188.226667 147.179458 
L 195.92 153.719882 
L 203.613333 155.225457 
L 211.306667 158.850968 
L 219 161.975685 
L 226.693333 165.60074 
L 234.386667 168.35237 
L 242.08 169.195693 
L 249.773333 170.555773 
L 257.466667 174.597244 
L 265.16 173.677297 
L 272.853333 174.785612 
L 280.546667 178.516481 
L 288.24 177.318772 
L 295.933333 178.159813 
L 303.626667 181.073358 
L 311.32 182.321694 
L 319.013333 184.039354 
L 326.706667 185.794869 
L 334.4 185.414028 
L 342.093333 186.396004 
L 349.786667 187.391663 
L 357.48 190.417863 
L 365.173333 193.200964 
L 372.866667 192.703363 
L 380.56 192.983862 
L 388.253333 194.532766 
L 395.946667 195.589541 
L 403.64 196.516786 
L 411.333333 198.868875 
L 419.026667 200.524506 
L 426.72 200.778095 
L 434.413333 200.771254 
L 442.106667 203.525621 
L 449.8 204.185136 
L 457.493333 206.605184 
L 465.186667 204.969166 
L 472.88 208.041432 
L 480.573333 208.353402 
L 488.266667 207.971649 
L 495.96 208.919874 
L 503.653333 209.861257 
L 511.346667 209.66468 
L 519.04 209.691589 
L 526.733333 211.880852 
L 534.426667 212.238888 
L 542.12 212.802623 
" clip-path="url(#p2bce8cb164)" style="fill: none; stroke: #33ccff; stroke-width: 2; stroke-linecap: square"/>
   </g>
   <g id="line2d_16">
    <path d="M 80.52 185.702737 
L 88.213333 114.164457 
L 95.906667 93.924718 
L 103.6 88.681889 
L 111.293333 96.107596 
L 118.986667 98.821827 
L 126.68 106.134878 
L 134.373333 114.527966 
L 142.066667 114.245186 
L 149.76 118.519266 
L 157.453333 124.998117 
L 165.146667 130.117344 
L 172.84 135.991411 
L 180.533333 140.665032 
L 188.226667 147.179458 
L 195.92 153.719882 
L 203.613333 155.225457 
L 211.306667 158.850968 
L 219 161.975685 
L 226.693333 165.60074 
L 234.386667 168.35237 
L 242.08 169.195693 
L 249.773333 170.555773 
L 257.466667 174.597244 
L 265.16 173.677297 
L 272.853333 174.785612 
L 280.546667 178.516481 
L 288.24 177.318772 
L 295.933333 178.159813 
L 303.626667 181.073358 
L 311.32 182.321694 
L 319.013333 184.039354 
L 326.706667 185.794869 
L 334.4 185.414028 
L 342.093333 186.396004 
L 349.786667 187.391663 
L 357.48 190.417863 
L 365.173333 193.200964 
L 372.866667 192.703363 
L 380.56 192.983862 
L 388.253333 194.532766 
L 395.946667 195.589541 
L 403.64 196.516786 
L 411.333333 198.868875 
L 419.026667 200.524506 
L 426.72 200.778095 
L 434.413333 200.771254 
L 442.106667 203.525621 
L 449.8 204.185136 
L 457.493333 206.605184 
L 465.186667 204.969166 
L 472.88 208.041432 
L 480.573333 208.353402 
L 488.266667 207.971649 
L 495.96 208.919874 
L 503.653333 209.861257 
L 511.346667 209.66468 
L 519.04 209.691589 
L 526.733333 211.880852 
L 534.426667 212.238888 
L 542.12 212.802623 
" clip-path="url(#p2bce8cb164)" style="fill: none; stroke-dasharray: 7.4,3.2; stroke-dashoffset: 0; stroke: #f99a5a; stroke-width: 2"/>
   </g>
   <g id="line2d_17">
    <path d="M 80.52 195.664341 
L 88.213333 144.937288 
L 95.906667 132.063052 
L 103.6 130.906847 
L 111.293333 139.466867 
L 118.986667 148.16782 
L 126.68 153.82296 
L 134.373333 156.393064 
L 142.066667 162.322775 
L 149.76 166.687162 
L 157.453333 170.461817 
L 165.146667 172.108325 
L 172.84 173.845597 
L 180.533333 175.831441 
L 188.226667 179.616586 
L 195.92 175.257215 
L 203.613333 172.087345 
L 211.306667 170.488726 
L 219 161.853451 
L 226.693333 164.220592 
L 234.386667 161.535552 
L 242.08 163.849786 
L 249.773333 158.208328 
L 257.466667 158.587344 
L 265.16 163.679662 
L 272.853333 158.288601 
L 280.546667 158.845951 
L 288.24 162.63064 
L 295.933333 162.027224 
L 303.626667 162.8222 
L 311.32 166.062766 
L 319.013333 165.050232 
L 326.706667 163.341694 
L 334.4 168.63287 
L 342.093333 169.900818 
L 349.786667 172.198632 
L 357.48 168.85134 
L 365.173333 171.216656 
L 372.866667 172.258837 
L 380.56 174.109677 
L 388.253333 174.235103 
L 395.946667 174.465432 
L 403.64 175.466564 
L 411.333333 177.777605 
L 419.026667 177.067006 
L 426.72 180.081804 
L 434.413333 181.000383 
L 442.106667 181.204714 
L 449.8 181.423184 
L 457.493333 184.827488 
L 465.186667 187.226556 
L 472.88 186.128732 
L 480.573333 188.243651 
L 488.266667 189.754699 
L 495.96 189.708177 
L 503.653333 189.624711 
L 511.346667 191.736438 
L 519.04 190.117752 
L 526.733333 196.653158 
L 534.426667 193.481007 
L 542.12 194.932762 
" clip-path="url(#p2bce8cb164)" style="fill: none; stroke: #f99a5a; stroke-width: 2; stroke-linecap: square"/>
   </g>
   <g id="line2d_18">
    <path d="M 80.52 195.664341 
L 88.213333 144.937288 
L 95.906667 132.063052 
L 103.6 130.906847 
L 111.293333 139.466867 
L 118.986667 148.16782 
L 126.68 153.82296 
L 134.373333 156.393064 
L 142.066667 162.322775 
L 149.76 166.687162 
L 157.453333 170.461817 
L 165.146667 172.108325 
L 172.84 173.845597 
L 180.533333 175.831441 
L 188.226667 179.616586 
L 195.92 175.257215 
L 203.613333 172.087345 
L 211.306667 170.488726 
L 219 161.853451 
L 226.693333 164.220592 
L 234.386667 161.535552 
L 242.08 163.849786 
L 249.773333 158.208328 
L 257.466667 158.587344 
L 265.16 163.679662 
L 272.853333 158.288601 
L 280.546667 158.845951 
L 288.24 162.63064 
L 295.933333 162.027224 
L 303.626667 162.8222 
L 311.32 166.062766 
L 319.013333 165.050232 
L 326.706667 163.341694 
L 334.4 168.63287 
L 342.093333 169.900818 
L 349.786667 172.198632 
L 357.48 168.85134 
L 365.173333 171.216656 
L 372.866667 172.258837 
L 380.56 174.109677 
L 388.253333 174.235103 
L 395.946667 174.465432 
L 403.64 175.466564 
L 411.333333 177.777605 
L 419.026667 177.067006 
L 426.72 180.081804 
L 434.413333 181.000383 
L 442.106667 181.204714 
L 449.8 181.423184 
L 457.493333 184.827488 
L 465.186667 187.226556 
L 472.88 186.128732 
L 480.573333 188.243651 
L 488.266667 189.754699 
L 495.96 189.708177 
L 503.653333 189.624711 
L 511.346667 191.736438 
L 519.04 190.117752 
L 526.733333 196.653158 
L 534.426667 193.481007 
L 542.12 194.932762 
" clip-path="url(#p2bce8cb164)" style="fill: none; stroke-dasharray: 7.4,3.2; stroke-dashoffset: 0; stroke: #33ccff; stroke-width: 2"/>
   </g>
   <g id="line2d_19">
    <path d="M 80.52 196.149172 
L 88.213333 142.411426 
L 95.906667 126.427067 
L 103.6 119.531344 
L 111.293333 123.342943 
L 118.986667 127.948605 
L 126.68 137.547156 
L 134.373333 137.512037 
L 142.066667 143.882337 
L 149.76 147.210017 
L 157.453333 151.830274 
L 165.146667 154.773921 
L 172.84 160.772046 
L 180.533333 166.132549 
L 188.226667 167.950549 
L 195.92 169.643123 
L 203.613333 170.418944 
L 211.306667 174.554827 
L 219 175.617075 
L 226.693333 178.451259 
L 234.386667 184.653259 
L 242.08 186.391899 
L 249.773333 187.676723 
L 257.466667 190.638158 
L 265.16 192.647263 
L 272.853333 193.058206 
L 280.546667 196.941411 
L 288.24 196.580183 
L 295.933333 196.358064 
L 303.626667 198.812319 
L 311.32 199.851307 
L 319.013333 202.535435 
L 326.706667 203.106012 
L 334.4 202.700998 
L 342.093333 203.874534 
L 349.786667 206.916242 
L 357.48 206.561399 
L 365.173333 206.58694 
L 372.866667 207.137905 
L 380.56 208.253061 
L 388.253333 209.398775 
L 395.946667 209.805613 
L 403.64 211.50959 
L 411.333333 212.857355 
L 419.026667 215.208989 
L 426.72 214.397137 
L 434.413333 213.956548 
L 442.106667 218.294025 
L 449.8 218.434047 
L 457.493333 219.239513 
L 465.186667 219.168362 
L 472.88 220.896512 
L 480.573333 223.866156 
L 488.266667 224.136622 
L 495.96 224.777893 
L 503.653333 224.259768 
L 511.346667 224.464555 
L 519.04 226.765562 
L 526.733333 228.760072 
L 534.426667 229.915364 
L 542.12 230.420719 
" clip-path="url(#p2bce8cb164)" style="fill: none; stroke: #f99a5a; stroke-width: 2; stroke-linecap: square"/>
   </g>
   <g id="line2d_20">
    <path d="M 80.52 196.149172 
L 88.213333 142.411426 
L 95.906667 126.427067 
L 103.6 119.531344 
L 111.293333 123.342943 
L 118.986667 127.948605 
L 126.68 137.547156 
L 134.373333 137.512037 
L 142.066667 143.882337 
L 149.76 147.210017 
L 157.453333 151.830274 
L 165.146667 154.773921 
L 172.84 160.772046 
L 180.533333 166.132549 
L 188.226667 167.950549 
L 195.92 169.643123 
L 203.613333 170.418944 
L 211.306667 174.554827 
L 219 175.617075 
L 226.693333 178.451259 
L 234.386667 184.653259 
L 242.08 186.391899 
L 249.773333 187.676723 
L 257.466667 190.638158 
L 265.16 192.647263 
L 272.853333 193.058206 
L 280.546667 196.941411 
L 288.24 196.580183 
L 295.933333 196.358064 
L 303.626667 198.812319 
L 311.32 199.851307 
L 319.013333 202.535435 
L 326.706667 203.106012 
L 334.4 202.700998 
L 342.093333 203.874534 
L 349.786667 206.916242 
L 357.48 206.561399 
L 365.173333 206.58694 
L 372.866667 207.137905 
L 380.56 208.253061 
L 388.253333 209.398775 
L 395.946667 209.805613 
L 403.64 211.50959 
L 411.333333 212.857355 
L 419.026667 215.208989 
L 426.72 214.397137 
L 434.413333 213.956548 
L 442.106667 218.294025 
L 449.8 218.434047 
L 457.493333 219.239513 
L 465.186667 219.168362 
L 472.88 220.896512 
L 480.573333 223.866156 
L 488.266667 224.136622 
L 495.96 224.777893 
L 503.653333 224.259768 
L 511.346667 224.464555 
L 519.04 226.765562 
L 526.733333 228.760072 
L 534.426667 229.915364 
L 542.12 230.420719 
" clip-path="url(#p2bce8cb164)" style="fill: none; stroke-dasharray: 7.4,3.2; stroke-dashoffset: 0; stroke: #f99a5a; stroke-width: 2"/>
   </g>
   <g id="line2d_21">
    <path d="M 88.213333 246.04 
L 88.213333 25.44 
" clip-path="url(#p2bce8cb164)" style="fill: none; stroke-dasharray: 1.85,0.8; stroke-dashoffset: 0; stroke: #000000; stroke-width: 0.5"/>
   </g>
   <g id="line2d_22">
    <path d="M 142.066667 246.04 
L 142.066667 25.44 
" clip-path="url(#p2bce8cb164)" style="fill: none; stroke-dasharray: 1.85,0.8; stroke-dashoffset: 0; stroke: #000000; stroke-width: 0.5"/>
   </g>
   <g id="line2d_23">
    <path d="M 326.706667 246.04 
L 326.706667 25.44 
" clip-path="url(#p2bce8cb164)" style="fill: none; stroke-dasharray: 1.85,0.8; stroke-dashoffset: 0; stroke: #000000; stroke-width: 0.5"/>
   </g>
   <g id="patch_3">
    <path d="M 57.44 246.04 
L 57.44 25.44 
" style="fill: none; stroke: #000000; stroke-width: 0.8; stroke-linejoin: miter; stroke-linecap: square"/>
   </g>
   <g id="patch_4">
    <path d="M 565.2 246.04 
L 565.2 25.44 
" style="fill: none; stroke: #000000; stroke-width: 0.8; stroke-linejoin: miter; stroke-linecap: square"/>
   </g>
   <g id="patch_5">
    <path d="M 57.44 246.04 
L 565.2 246.04 
" style="fill: none; stroke: #000000; stroke-width: 0.8; stroke-linejoin: miter; stroke-linecap: square"/>
   </g>
   <g id="patch_6">
    <path d="M 57.44 25.44 
L 565.2 25.44 
" style="fill: none; stroke: #000000; stroke-width: 0.8; stroke-linejoin: miter; stroke-linecap: square"/>
   </g>
   <g id="text_15">
    <text style="font: 12px 'sans-serif'; text-anchor: middle" x="311.32" y="19.44" transform="rotate(-0, 311.32, 19.44)">Asymmetric tree holdout (train 2, separate rels): epochs to learn held-out tree</text>
   </g>
   <g id="legend_1">
    <g id="patch_7">
     <path d="M 437.589062 92.1525 
L 558.2 92.1525 
Q 560.2 92.1525 560.2 90.1525 
L 560.2 32.44 
Q 560.2 30.44 558.2 30.44 
L 437.589062 30.44 
Q 435.589062 30.44 435.589062 32.44 
L 435.589062 90.1525 
Q 435.589062 92.1525 437.589062 92.1525 
z
" style="fill: #ffffff; opacity: 0.8; stroke: #cccccc; stroke-linejoin: miter"/>
    </g>
    <g id="line2d_24">
     <path d="M 439.589062 38.538437 
L 449.589062 38.538437 
L 459.589062 38.538437 
" style="fill: none; stroke: #33ccff; stroke-width: 2; stroke-linecap: square"/>
    </g>
    <g id="line2d_25">
     <path d="M 439.589062 38.538437 
L 449.589062 38.538437 
L 459.589062 38.538437 
" style="fill: none; stroke-dasharray: 7.4,3.2; stroke-dashoffset: 0; stroke: #33ccff; stroke-width: 2"/>
    </g>
    <g id="text_16">
     <text style="font: 10px 'sans-serif'; text-anchor: start" x="467.589062" y="42.038437" transform="rotate(-0, 467.589062, 42.038437)">English to English</text>
    </g>
    <g id="line2d_26">
     <path d="M 439.589062 53.216562 
L 449.589062 53.216562 
L 459.589062 53.216562 
" style="fill: none; stroke: #33ccff; stroke-width: 2; stroke-linecap: square"/>
    </g>
    <g id="line2d_27">
     <path d="M 439.589062 53.216562 
L 449.589062 53.216562 
L 459.589062 53.216562 
" style="fill: none; stroke-dasharray: 7.4,3.2; stroke-dashoffset: 0; stroke: #f99a5a; stroke-width: 2"/>
    </g>
    <g id="text_17">
     <text style="font: 10px 'sans-serif'; text-anchor: start" x="467.589062" y="56.716562" transform="rotate(-0, 467.589062, 56.716562)">French to English</text>
    </g>
    <g id="line2d_28">
     <path d="M 439.589062 67.894687 
L 449.589062 67.894687 
L 459.589062 67.894687 
" style="fill: none; stroke: #f99a5a; stroke-width: 2; stroke-linecap: square"/>
    </g>
    <g id="line2d_29">
     <path d="M 439.589062 67.894687 
L 449.589062 67.894687 
L 459.589062 67.894687 
" style="fill: none; stroke-dasharray: 7.4,3.2; stroke-dashoffset: 0; stroke: #33ccff; stroke-width: 2"/>
    </g>
    <g id="text_18">
     <text style="font: 10px 'sans-serif'; text-anchor: start" x="467.589062" y="71.394687" transform="rotate(-0, 467.589062, 71.394687)">English to French</text>
    </g>
    <g id="line2d_30">
     <path d="M 439.589062 82.572812 
L 449.589062 82.572812 
L 459.589062 82.572812 
" style="fill: none; stroke: #f99a5a; stroke-width: 2; stroke-linecap: square"/>
    </g>
    <g id="line2d_31">
     <path d="M 439.589062 82.572812 
L 449.589062 82.572812 
L 459.589062 82.572812 
" style="fill: none; stroke-dasharray: 7.4,3.2; stroke-dashoffset: 0; stroke: #f99a5a; stroke-width: 2"/>
    </g>
    <g id="text_19">
     <text style="font: 10px 'sans-serif'; text-anchor: start" x="467.589062" y="86.072812" transform="rotate(-0, 467.589062, 86.072812)">French to French</text>
    </g>
   </g>
  </g>
 </g>
 <defs>
  <clipPath id="p2bce8cb164">
   <rect x="57.44" y="25.44" width="507.76" height="220.6"/>
  </clipPath>
 </defs>
</svg>
