<?xml version="1.0" encoding="utf-8" standalone="no"?>
<!DOCTYPE svg PUBLIC "-//W3C//DTD SVG 1.1//EN"
  "http://www.w3.org/Graphics/SVG/1.1/DTD/svg11.dtd">
<svg xmlns:xlink="http://www.w3.org/1999/xlink" width="576pt" height="288pt" viewBox="0 0 576 288" xmlns="http://www.w3.org/2000/svg" version="1.1">
 <metadata>
  <rdf:RDF xmlns:dc="http://purl.org/dc/elements/1.1/" xmlns:cc="http://creativecommons.org/ns#" xmlns:rdf="http://www.w3.org/1999/02/22-rdf-syntax-ns#">
   <cc:Work>
    <dc:type rdf:resource="http://purl.org/dc/dcmitype/StillImage"/>
    <dc:date>2022-02-16T13:48:28.793752</dc:date>
    <dc:format>image/svg+xml</dc:format>
    <dc:creator>
     <cc:Agent>
      <dc:title>Matplotlib v3.5.0, https://matplotlib.org/</dc:title>
     </cc:Agent>
    </dc:creator>
   </cc:Work>
  </rdf:RDF>
 </metadata>
 <defs>
  <style type="text/css">*{stroke-linejoin: round; stroke-linecap: butt}</style>
 </defs>
 <g id="figure_1">
  <g id="patch_1">
   <path d="M 0 288 
L 576 288 
L 576 0 
L 0 0 
z
" style="fill: #ffffff"/>
  </g>
  <g id="axes_1">
   <g id="patch_2">
    <path d="M 61.79625 240.60375 
L 563.04 240.60375 
L 563.04 27.65625 
L 61.79625 27.65625 
z
" style="fill: #ffffff"/>
   </g>
   <g id="matplotlib.axis_1">
    <g id="xtick_1">
     <g id="text_1">
      <text style="fill: #262626; font: 11px 'sans-serif'; text-anchor: middle" x="84.580057" y="257.977344" transform="rotate(-0, 84.580057, 257.977344)">0</text>
     </g>
    </g>
    <g id="xtick_2">
     <g id="text_2">
      <text style="fill: #262626; font: 11px 'sans-serif'; text-anchor: middle" x="160.52608" y="257.977344" transform="rotate(-0, 160.52608, 257.977344)">2000</text>
     </g>
    </g>
    <g id="xtick_3">
     <g id="text_3">
      <text style="fill: #262626; font: 11px 'sans-serif'; text-anchor: middle" x="236.472102" y="257.977344" transform="rotate(-0, 236.472102, 257.977344)">4000</text>
     </g>
    </g>
    <g id="xtick_4">
     <g id="text_4">
      <text style="fill: #262626; font: 11px 'sans-serif'; text-anchor: middle" x="312.418125" y="257.977344" transform="rotate(-0, 312.418125, 257.977344)">6000</text>
     </g>
    </g>
    <g id="xtick_5">
     <g id="text_5">
      <text style="fill: #262626; font: 11px 'sans-serif'; text-anchor: middle" x="388.364148" y="257.977344" transform="rotate(-0, 388.364148, 257.977344)">8000</text>
     </g>
    </g>
    <g id="xtick_6">
     <g id="text_6">
      <text style="fill: #262626; font: 11px 'sans-serif'; text-anchor: middle" x="464.31017" y="257.977344" transform="rotate(-0, 464.31017, 257.977344)">10000</text>
     </g>
    </g>
    <g id="xtick_7">
     <g id="text_7">
      <text style="fill: #262626; font: 11px 'sans-serif'; text-anchor: middle" x="540.256193" y="257.977344" transform="rotate(-0, 540.256193, 257.977344)">12000</text>
     </g>
    </g>
    <g id="text_8">
     <text style="fill: #262626; font: 12px 'sans-serif'; text-anchor: middle" x="312.418125" y="272.899219" transform="rotate(-0, 312.418125, 272.899219)">Epochs training first 2 trees</text>
    </g>
   </g>
   <g id="matplotlib.axis_2">
    <g id="ytick_1">
     <g id="text_9">
      <text style="fill: #262626; font: 11px 'sans-serif'; text-anchor: end" x="52.29625" y="233.718707" transform="rotate(-0, 52.29625, 233.718707)">400</text>
     </g>
    </g>
    <g id="ytick_2">
     <g id="text_10">
      <text style="fill: #262626; font: 11px 'sans-serif'; text-anchor: end" x="52.29625" y="203.77557" transform="rotate(-0, 52.29625, 203.77557)">600</text>
     </g>
    </g>
    <g id="ytick_3">
     <g id="text_11">
      <text style="fill: #262626; font: 11px 'sans-serif'; text-anchor: end" x="52.29625" y="173.832434" transform="rotate(-0, 52.29625, 173.832434)">800</text>
     </g>
    </g>
    <g id="ytick_4">
     <g id="text_12">
      <text style="fill: #262626; font: 11px 'sans-serif'; text-anchor: end" x="52.29625" y="143.889297" transform="rotate(-0, 52.29625, 143.889297)">1000</text>
     </g>
    </g>
    <g id="ytick_5">
     <g id="text_13">
      <text style="fill: #262626; font: 11px 'sans-serif'; text-anchor: end" x="52.29625" y="113.94616" transform="rotate(-0, 52.29625, 113.94616)">1200</text>
     </g>
    </g>
    <g id="ytick_6">
     <g id="text_14">
      <text style="fill: #262626; font: 11px 'sans-serif'; text-anchor: end" x="52.29625" y="84.003024" transform="rotate(-0, 52.29625, 84.003024)">1400</text>
     </g>
    </g>
    <g id="ytick_7">
     <g id="text_15">
      <text style="fill: #262626; font: 11px 'sans-serif'; text-anchor: end" x="52.29625" y="54.059887" transform="rotate(-0, 52.29625, 54.059887)">1600</text>
     </g>
    </g>
    <g id="text_16">
     <text style="fill: #262626; font: 12px 'sans-serif'; text-anchor: middle" x="21.443125" y="134.13" transform="rotate(-90, 21.443125, 134.13)">Epochs to 85% on held-out tree</text>
    </g>
   </g>
   <g id="PolyCollection_1">
    <defs>
     <path id="mac7efee29f" d="M 84.580057 -173.710011 
L 84.580057 -168.862725 
L 92.174659 -201.612108 
L 99.769261 -188.988231 
L 107.363864 -171.00245 
L 114.958466 -152.69139 
L 122.553068 -136.942982 
L 130.14767 -129.393609 
L 137.742273 -140.837565 
L 145.336875 -155.074687 
L 152.931477 -167.631906 
L 160.52608 -169.809247 
L 168.120682 -168.068242 
L 175.715284 -165.980885 
L 183.309886 -162.680248 
L 190.904489 -161.279847 
L 198.499091 -159.056277 
L 206.093693 -156.499219 
L 213.688295 -153.746904 
L 221.282898 -150.550327 
L 228.8775 -148.876798 
L 236.472102 -146.998288 
L 244.066705 -145.573421 
L 251.661307 -144.563539 
L 259.255909 -142.315839 
L 266.850511 -141.750941 
L 274.445114 -140.169903 
L 282.039716 -138.704066 
L 289.634318 -137.627444 
L 297.22892 -136.68885 
L 304.823523 -136.189056 
L 312.418125 -136.115108 
L 320.012727 -135.193982 
L 327.60733 -135.539844 
L 335.201932 -134.703823 
L 342.796534 -134.344117 
L 350.391136 -134.734599 
L 357.985739 -134.54649 
L 365.580341 -134.03761 
L 373.174943 -133.08395 
L 380.769545 -132.585117 
L 388.364148 -132.594701 
L 395.95875 -132.148944 
L 403.553352 -132.320313 
L 411.147955 -131.926698 
L 418.742557 -131.976368 
L 426.337159 -132.277818 
L 433.931761 -135.987858 
L 441.526364 -143.380626 
L 449.120966 -150.903067 
L 456.715568 -158.306998 
L 464.31017 -164.785292 
L 471.904773 -164.907917 
L 479.499375 -164.322627 
L 487.093977 -163.821983 
L 494.68858 -163.758031 
L 502.283182 -163.469802 
L 509.877784 -163.45241 
L 517.472386 -163.6838 
L 525.066989 -163.133266 
L 532.661591 -163.49029 
L 540.256193 -163.795672 
L 540.256193 -171.228399 
L 540.256193 -171.228399 
L 532.661591 -170.872038 
L 525.066989 -170.534381 
L 517.472386 -171.39417 
L 509.877784 -171.227316 
L 502.283182 -171.275799 
L 494.68858 -171.757108 
L 487.093977 -171.681179 
L 479.499375 -172.144704 
L 471.904773 -172.954764 
L 464.31017 -172.649202 
L 456.715568 -166.626236 
L 449.120966 -159.429894 
L 441.526364 -152.055625 
L 433.931761 -144.982863 
L 426.337159 -139.967474 
L 418.742557 -139.104135 
L 411.147955 -138.833414 
L 403.553352 -139.083576 
L 395.95875 -139.296866 
L 388.364148 -139.01879 
L 380.769545 -138.923573 
L 373.174943 -139.227217 
L 365.580341 -140.875615 
L 357.985739 -141.98067 
L 350.391136 -141.511095 
L 342.796534 -140.703852 
L 335.201932 -140.751373 
L 327.60733 -141.861656 
L 320.012727 -142.183564 
L 312.418125 -142.532026 
L 304.823523 -142.730561 
L 297.22892 -143.323691 
L 289.634318 -145.035065 
L 282.039716 -145.371758 
L 274.445114 -147.325428 
L 266.850511 -148.720738 
L 259.255909 -148.997242 
L 251.661307 -152.034506 
L 244.066705 -153.195501 
L 236.472102 -154.03733 
L 228.8775 -156.063404 
L 221.282898 -157.710569 
L 213.688295 -161.406903 
L 206.093693 -164.77197 
L 198.499091 -166.787229 
L 190.904489 -169.662975 
L 183.309886 -171.48745 
L 175.715284 -174.522781 
L 168.120682 -177.456888 
L 160.52608 -177.934669 
L 152.931477 -177.683622 
L 145.336875 -166.40311 
L 137.742273 -151.454656 
L 130.14767 -142.636092 
L 122.553068 -147.88741 
L 114.958466 -161.073055 
L 107.363864 -179.184826 
L 99.769261 -197.037985 
L 92.174659 -207.638005 
L 84.580057 -173.710011 
z
" style="stroke: #ffffff; stroke-opacity: 0.3"/>
    </defs>
    <g clip-path="url(#p7a30a1bfd6)">
     <use xlink:href="#mac7efee29f" x="0" y="288" style="fill: #4c72b0; fill-opacity: 0.3; stroke: #ffffff; stroke-opacity: 0.3"/>
    </g>
   </g>
   <g id="PolyCollection_2"/>
   <g id="PolyCollection_3">
    <defs>
     <path id="m10174b7273" d="M 84.580057 -183.244365 
L 84.580057 -177.719446 
L 92.174659 -203.147047 
L 99.769261 -193.585042 
L 107.363864 -168.726748 
L 114.958466 -148.310153 
L 122.553068 -129.784027 
L 130.14767 -116.656918 
L 137.742273 -111.937171 
L 145.336875 -108.412229 
L 152.931477 -104.959847 
L 160.52608 -101.243014 
L 168.120682 -101.016747 
L 175.715284 -99.016583 
L 183.309886 -97.08782 
L 190.904489 -94.275942 
L 198.499091 -94.572007 
L 206.093693 -92.700657 
L 213.688295 -92.744477 
L 221.282898 -91.439133 
L 228.8775 -92.091929 
L 236.472102 -89.959032 
L 244.066705 -92.059232 
L 251.661307 -90.064313 
L 259.255909 -90.783303 
L 266.850511 -90.701667 
L 274.445114 -89.376528 
L 282.039716 -90.100011 
L 289.634318 -92.159052 
L 297.22892 -90.772888 
L 304.823523 -92.876191 
L 312.418125 -90.716797 
L 320.012727 -91.207065 
L 327.60733 -93.968748 
L 335.201932 -91.155085 
L 342.796534 -92.549636 
L 350.391136 -87.823949 
L 357.985739 -94.358673 
L 365.580341 -86.08615 
L 373.174943 -92.875784 
L 380.769545 -86.950351 
L 388.364148 -85.96083 
L 395.95875 -93.162866 
L 403.553352 -92.431213 
L 411.147955 -91.169686 
L 418.742557 -89.611541 
L 426.337159 -92.112288 
L 433.931761 -91.047027 
L 441.526364 -89.736516 
L 449.120966 -81.781871 
L 456.715568 -84.162042 
L 464.31017 -89.464978 
L 471.904773 -94.256 
L 479.499375 -89.120704 
L 487.093977 -92.979127 
L 494.68858 -95.099263 
L 502.283182 -94.472489 
L 509.877784 -92.502379 
L 517.472386 -80.807634 
L 525.066989 -95.121557 
L 532.661591 -94.185563 
L 540.256193 -91.332792 
L 540.256193 -104.006548 
L 540.256193 -104.006548 
L 532.661591 -106.804046 
L 525.066989 -107.140636 
L 517.472386 -167.785575 
L 509.877784 -103.085489 
L 502.283182 -119.530408 
L 494.68858 -105.878369 
L 487.093977 -102.881223 
L 479.499375 -145.219571 
L 471.904773 -105.967066 
L 464.31017 -186.490268 
L 456.715568 -140.464679 
L 449.120966 -137.505989 
L 441.526364 -134.49795 
L 433.931761 -100.267955 
L 426.337159 -117.815348 
L 418.742557 -119.274074 
L 411.147955 -101.378954 
L 403.553352 -113.62777 
L 395.95875 -133.505977 
L 388.364148 -162.794071 
L 380.769545 -131.103852 
L 373.174943 -114.276123 
L 365.580341 -130.701459 
L 357.985739 -105.187677 
L 350.391136 -129.61642 
L 342.796534 -102.331574 
L 335.201932 -100.357521 
L 327.60733 -103.843895 
L 320.012727 -101.419426 
L 312.418125 -101.673144 
L 304.823523 -108.882958 
L 297.22892 -99.434198 
L 289.634318 -100.901615 
L 282.039716 -97.226545 
L 274.445114 -97.180489 
L 266.850511 -98.966442 
L 259.255909 -97.992501 
L 251.661307 -98.627651 
L 244.066705 -100.243874 
L 236.472102 -97.556166 
L 228.8775 -99.148195 
L 221.282898 -99.495571 
L 213.688295 -100.220372 
L 206.093693 -100.479782 
L 198.499091 -101.791388 
L 190.904489 -102.413833 
L 183.309886 -105.937923 
L 175.715284 -104.817624 
L 168.120682 -108.551571 
L 160.52608 -108.768462 
L 152.931477 -112.276909 
L 145.336875 -115.744385 
L 137.742273 -118.947666 
L 130.14767 -123.204871 
L 122.553068 -135.403667 
L 114.958466 -154.393297 
L 107.363864 -175.720429 
L 99.769261 -200.738417 
L 92.174659 -208.980602 
L 84.580057 -183.244365 
z
" style="stroke: #ffffff; stroke-opacity: 0.3"/>
    </defs>
    <g clip-path="url(#p7a30a1bfd6)">
     <use xlink:href="#m10174b7273" x="0" y="288" style="fill: #4c72b0; fill-opacity: 0.3; stroke: #ffffff; stroke-opacity: 0.3"/>
    </g>
   </g>
   <g id="PolyCollection_4"/>
   <g id="PolyCollection_5">
    <defs>
     <path id="mca6691d6ee" d="M 84.580057 -154.811445 
L 84.580057 -149.880229 
L 92.174659 -171.652455 
L 99.769261 -150.839913 
L 107.363864 -132.495317 
L 114.958466 -114.952044 
L 122.553068 -99.548232 
L 130.14767 -87.308184 
L 137.742273 -80.804378 
L 145.336875 -79.564185 
L 152.931477 -83.754226 
L 160.52608 -90.097071 
L 168.120682 -93.030856 
L 175.715284 -92.339273 
L 183.309886 -94.739881 
L 190.904489 -95.637372 
L 198.499091 -95.187727 
L 206.093693 -94.772493 
L 213.688295 -91.752558 
L 221.282898 -90.995971 
L 228.8775 -91.883582 
L 236.472102 -89.896837 
L 244.066705 -85.905918 
L 251.661307 -84.783823 
L 259.255909 -86.208295 
L 266.850511 -81.668591 
L 274.445114 -82.035546 
L 282.039716 -80.961468 
L 289.634318 -80.296818 
L 297.22892 -80.335678 
L 304.823523 -79.50609 
L 312.418125 -79.445995 
L 320.012727 -77.235906 
L 327.60733 -78.365095 
L 335.201932 -76.14575 
L 342.796534 -74.951128 
L 350.391136 -74.134102 
L 357.985739 -73.505193 
L 365.580341 -72.339272 
L 373.174943 -71.693486 
L 380.769545 -71.893582 
L 388.364148 -71.862665 
L 395.95875 -69.927346 
L 403.553352 -69.796876 
L 411.147955 -70.944705 
L 418.742557 -68.885729 
L 426.337159 -67.85006 
L 433.931761 -69.770778 
L 441.526364 -67.885663 
L 449.120966 -67.704247 
L 456.715568 -68.426633 
L 464.31017 -67.53586 
L 471.904773 -69.218933 
L 479.499375 -66.434204 
L 487.093977 -67.506919 
L 494.68858 -67.132569 
L 502.283182 -66.484127 
L 509.877784 -65.586651 
L 517.472386 -66.209952 
L 525.066989 -64.635351 
L 532.661591 -64.769504 
L 540.256193 -65.534689 
L 540.256193 -73.41873 
L 540.256193 -73.41873 
L 532.661591 -73.330536 
L 525.066989 -72.551423 
L 517.472386 -74.040005 
L 509.877784 -75.271151 
L 502.283182 -74.646158 
L 494.68858 -75.213408 
L 487.093977 -76.264351 
L 479.499375 -74.315804 
L 471.904773 -80.319385 
L 464.31017 -76.313263 
L 456.715568 -77.132242 
L 449.120966 -77.052152 
L 441.526364 -76.4156 
L 433.931761 -79.800477 
L 426.337159 -76.535044 
L 418.742557 -78.835041 
L 411.147955 -80.051844 
L 403.553352 -79.001847 
L 395.95875 -79.374421 
L 388.364148 -82.514464 
L 380.769545 -81.369662 
L 373.174943 -81.976985 
L 365.580341 -82.759487 
L 357.985739 -83.764443 
L 350.391136 -84.273373 
L 342.796534 -86.127275 
L 335.201932 -87.274206 
L 327.60733 -89.785877 
L 320.012727 -88.229166 
L 312.418125 -91.480705 
L 304.823523 -90.414521 
L 297.22892 -89.872387 
L 289.634318 -92.267772 
L 282.039716 -93.088302 
L 274.445114 -93.262852 
L 266.850511 -92.794393 
L 259.255909 -97.722709 
L 251.661307 -96.1888 
L 244.066705 -96.033868 
L 236.472102 -100.783351 
L 228.8775 -104.327103 
L 221.282898 -102.59469 
L 213.688295 -102.7873 
L 206.093693 -105.693111 
L 198.499091 -106.310916 
L 190.904489 -106.54098 
L 183.309886 -108.001402 
L 175.715284 -103.799549 
L 168.120682 -107.946776 
L 160.52608 -103.454663 
L 152.931477 -94.34685 
L 145.336875 -89.266496 
L 137.742273 -88.870699 
L 130.14767 -94.287256 
L 122.553068 -105.893921 
L 114.958466 -121.457302 
L 107.363864 -138.591175 
L 99.769261 -157.118558 
L 92.174659 -177.507772 
L 84.580057 -154.811445 
z
" style="stroke: #ffffff; stroke-opacity: 0.3"/>
    </defs>
    <g clip-path="url(#p7a30a1bfd6)">
     <use xlink:href="#mca6691d6ee" x="0" y="288" style="fill: #dd8452; fill-opacity: 0.3; stroke: #ffffff; stroke-opacity: 0.3"/>
    </g>
   </g>
   <g id="PolyCollection_6"/>
   <g id="PolyCollection_7">
    <defs>
     <path id="mf5f4e42496" d="M 84.580057 -138.316458 
L 84.580057 -134.354026 
L 92.174659 -158.431971 
L 99.769261 -143.295521 
L 107.363864 -123.558592 
L 114.958466 -102.273212 
L 122.553068 -85.352733 
L 130.14767 -76.054224 
L 137.742273 -70.864834 
L 145.336875 -68.562559 
L 152.931477 -65.168537 
L 160.52608 -63.247837 
L 168.120682 -62.31493 
L 175.715284 -60.767137 
L 183.309886 -60.769674 
L 190.904489 -59.110987 
L 198.499091 -59.041321 
L 206.093693 -57.655633 
L 213.688295 -57.887421 
L 221.282898 -56.95995 
L 228.8775 -56.938699 
L 236.472102 -56.519217 
L 244.066705 -56.316867 
L 251.661307 -56.206563 
L 259.255909 -56.083349 
L 266.850511 -56.048464 
L 274.445114 -56.153552 
L 282.039716 -56.05098 
L 289.634318 -55.172589 
L 297.22892 -57.765971 
L 304.823523 -57.704435 
L 312.418125 -57.065834 
L 320.012727 -58.16806 
L 327.60733 -57.128388 
L 335.201932 -57.111382 
L 342.796534 -55.090743 
L 350.391136 -57.087437 
L 357.985739 -57.075584 
L 365.580341 -57.726853 
L 373.174943 -57.183877 
L 380.769545 -57.524183 
L 388.364148 -56.543092 
L 395.95875 -57.90347 
L 403.553352 -56.680053 
L 411.147955 -57.624424 
L 418.742557 -57.398249 
L 426.337159 -57.471227 
L 433.931761 -58.027107 
L 441.526364 -57.963698 
L 449.120966 -57.673012 
L 456.715568 -58.255061 
L 464.31017 -57.581828 
L 471.904773 -58.386553 
L 479.499375 -57.911758 
L 487.093977 -57.973847 
L 494.68858 -58.361107 
L 502.283182 -57.724344 
L 509.877784 -59.480968 
L 517.472386 -58.625996 
L 525.066989 -58.492972 
L 532.661591 -58.008596 
L 540.256193 -58.484745 
L 540.256193 -65.667782 
L 540.256193 -65.667782 
L 532.661591 -63.784412 
L 525.066989 -64.994818 
L 517.472386 -65.176197 
L 509.877784 -67.357459 
L 502.283182 -64.164482 
L 494.68858 -64.617649 
L 487.093977 -64.181473 
L 479.499375 -64.378305 
L 471.904773 -65.517446 
L 464.31017 -64.244117 
L 456.715568 -65.556114 
L 449.120966 -64.548183 
L 441.526364 -65.13483 
L 433.931761 -64.586343 
L 426.337159 -63.938508 
L 418.742557 -64.203123 
L 411.147955 -64.566828 
L 403.553352 -63.007953 
L 395.95875 -65.575336 
L 388.364148 -63.417395 
L 380.769545 -63.705893 
L 373.174943 -64.944493 
L 365.580341 -65.26388 
L 357.985739 -64.322174 
L 350.391136 -64.717548 
L 342.796534 -61.662835 
L 335.201932 -64.576825 
L 327.60733 -64.559818 
L 320.012727 -66.8618 
L 312.418125 -64.164242 
L 304.823523 -65.492906 
L 297.22892 -67.24293 
L 289.634318 -62.051096 
L 282.039716 -64.125098 
L 274.445114 -62.884687 
L 266.850511 -62.699326 
L 259.255909 -63.460929 
L 251.661307 -63.436528 
L 244.066705 -63.27532 
L 236.472102 -63.198731 
L 228.8775 -63.671555 
L 221.282898 -62.961611 
L 213.688295 -64.300836 
L 206.093693 -63.301961 
L 198.499091 -65.233973 
L 190.904489 -66.182374 
L 183.309886 -68.542055 
L 175.715284 -66.559362 
L 168.120682 -68.943103 
L 160.52608 -68.920468 
L 152.931477 -72.15897 
L 145.336875 -73.75048 
L 137.742273 -75.742051 
L 130.14767 -80.601578 
L 122.553068 -89.146184 
L 114.958466 -106.333931 
L 107.363864 -127.753453 
L 99.769261 -147.424685 
L 92.174659 -162.405042 
L 84.580057 -138.316458 
z
" style="stroke: #ffffff; stroke-opacity: 0.3"/>
    </defs>
    <g clip-path="url(#p7a30a1bfd6)">
     <use xlink:href="#mf5f4e42496" x="0" y="288" style="fill: #dd8452; fill-opacity: 0.3; stroke: #ffffff; stroke-opacity: 0.3"/>
    </g>
   </g>
   <g id="PolyCollection_8"/>
   <g id="line2d_1">
    <path d="M 84.580057 116.713632 
L 92.174659 83.374944 
L 99.769261 94.986892 
L 107.363864 112.906362 
L 114.958466 131.117778 
L 122.553068 145.584804 
L 130.14767 151.98515 
L 137.742273 141.853889 
L 145.336875 127.261102 
L 152.931477 115.342236 
L 160.52608 114.128042 
L 168.120682 115.237435 
L 175.715284 117.748167 
L 183.309886 120.916151 
L 190.904489 122.528589 
L 198.499091 125.078247 
L 206.093693 127.364405 
L 213.688295 130.423097 
L 221.282898 133.869552 
L 228.8775 135.529899 
L 236.472102 137.482191 
L 244.066705 138.615539 
L 251.661307 139.700978 
L 259.255909 142.34346 
L 266.850511 142.764161 
L 274.445114 144.252334 
L 282.039716 145.962088 
L 289.634318 146.668746 
L 297.22892 147.993729 
L 304.823523 148.540192 
L 312.418125 148.676433 
L 320.012727 149.311227 
L 327.60733 149.29925 
L 335.201932 150.272402 
L 342.796534 150.476015 
L 350.391136 149.877153 
L 357.985739 149.73642 
L 365.580341 150.543387 
L 373.174943 151.844417 
L 380.769545 152.245655 
L 388.364148 152.193254 
L 395.95875 152.277095 
L 403.553352 152.298055 
L 411.147955 152.619944 
L 418.742557 152.459748 
L 426.337159 151.877354 
L 433.931761 147.514639 
L 441.526364 140.281875 
L 449.120966 132.833519 
L 456.715568 125.533383 
L 464.31017 119.282753 
L 471.904773 119.06866 
L 479.499375 119.766335 
L 487.093977 120.248419 
L 494.68858 120.24243 
L 502.283182 120.6272 
L 509.877784 120.660137 
L 517.472386 120.461015 
L 525.066989 121.166176 
L 532.661591 120.818836 
L 540.256193 120.487964 
" clip-path="url(#p7a30a1bfd6)" style="fill: none; stroke: #4c72b0; stroke-width: 2; stroke-linecap: round"/>
   </g>
   <g id="line2d_2">
    <path d="M 84.580057 116.713632 
L 92.174659 83.374944 
L 99.769261 94.986892 
L 107.363864 112.906362 
L 114.958466 131.117778 
L 122.553068 145.584804 
L 130.14767 151.98515 
L 137.742273 141.853889 
L 145.336875 127.261102 
L 152.931477 115.342236 
L 160.52608 114.128042 
L 168.120682 115.237435 
L 175.715284 117.748167 
L 183.309886 120.916151 
L 190.904489 122.528589 
L 198.499091 125.078247 
L 206.093693 127.364405 
L 213.688295 130.423097 
L 221.282898 133.869552 
L 228.8775 135.529899 
L 236.472102 137.482191 
L 244.066705 138.615539 
L 251.661307 139.700978 
L 259.255909 142.34346 
L 266.850511 142.764161 
L 274.445114 144.252334 
L 282.039716 145.962088 
L 289.634318 146.668746 
L 297.22892 147.993729 
L 304.823523 148.540192 
L 312.418125 148.676433 
L 320.012727 149.311227 
L 327.60733 149.29925 
L 335.201932 150.272402 
L 342.796534 150.476015 
L 350.391136 149.877153 
L 357.985739 149.73642 
L 365.580341 150.543387 
L 373.174943 151.844417 
L 380.769545 152.245655 
L 388.364148 152.193254 
L 395.95875 152.277095 
L 403.553352 152.298055 
L 411.147955 152.619944 
L 418.742557 152.459748 
L 426.337159 151.877354 
L 433.931761 147.514639 
L 441.526364 140.281875 
L 449.120966 132.833519 
L 456.715568 125.533383 
L 464.31017 119.282753 
L 471.904773 119.06866 
L 479.499375 119.766335 
L 487.093977 120.248419 
L 494.68858 120.24243 
L 502.283182 120.6272 
L 509.877784 120.660137 
L 517.472386 120.461015 
L 525.066989 121.166176 
L 532.661591 120.818836 
L 540.256193 120.487964 
" clip-path="url(#p7a30a1bfd6)" style="fill: none; stroke-dasharray: 7.4,3.2; stroke-dashoffset: 0; stroke: #4c72b0; stroke-width: 2"/>
   </g>
   <g id="line2d_3">
    <path d="M 84.580057 107.518095 
L 92.174659 81.936176 
L 99.769261 90.83827 
L 107.363864 115.776412 
L 114.958466 136.648275 
L 122.553068 155.406153 
L 130.14767 168.069105 
L 137.742273 172.557581 
L 145.336875 175.921693 
L 152.931477 179.381622 
L 160.52608 182.994262 
L 168.120682 183.215841 
L 175.715284 186.082896 
L 183.309886 186.487129 
L 190.904489 189.655112 
L 198.499091 189.818303 
L 206.093693 191.40978 
L 213.688295 191.517576 
L 221.282898 192.532648 
L 228.8775 192.379938 
L 236.472102 194.242401 
L 244.066705 191.848447 
L 251.661307 193.654018 
L 259.255909 193.612098 
L 266.850511 193.165945 
L 274.445114 194.721491 
L 282.039716 194.336722 
L 289.634318 191.469667 
L 297.22892 192.896457 
L 304.823523 187.120426 
L 312.418125 191.80503 
L 320.012727 191.686754 
L 327.60733 189.093679 
L 335.201932 192.243697 
L 342.796534 190.559395 
L 350.391136 179.279816 
L 357.985739 188.226825 
L 365.580341 179.606196 
L 373.174943 184.424046 
L 380.769545 178.972898 
L 388.364148 163.62255 
L 395.95875 174.665578 
L 403.553352 184.970509 
L 411.147955 191.72568 
L 418.742557 183.557193 
L 426.337159 183.036182 
L 433.931761 192.342509 
L 441.526364 175.882767 
L 449.120966 178.35607 
L 456.715568 175.686639 
L 464.31017 150.022377 
L 471.904773 187.888467 
L 479.499375 170.829862 
L 487.093977 190.069825 
L 494.68858 187.511184 
L 502.283182 180.998552 
L 509.877784 190.206066 
L 517.472386 163.703396 
L 525.066989 186.868904 
L 532.661591 187.505195 
L 540.256193 190.33033 
" clip-path="url(#p7a30a1bfd6)" style="fill: none; stroke: #4c72b0; stroke-width: 2; stroke-linecap: round"/>
   </g>
   <g id="line2d_4">
    <path d="M 84.580057 107.518095 
L 92.174659 81.936176 
L 99.769261 90.83827 
L 107.363864 115.776412 
L 114.958466 136.648275 
L 122.553068 155.406153 
L 130.14767 168.069105 
L 137.742273 172.557581 
L 145.336875 175.921693 
L 152.931477 179.381622 
L 160.52608 182.994262 
L 168.120682 183.215841 
L 175.715284 186.082896 
L 183.309886 186.487129 
L 190.904489 189.655112 
L 198.499091 189.818303 
L 206.093693 191.40978 
L 213.688295 191.517576 
L 221.282898 192.532648 
L 228.8775 192.379938 
L 236.472102 194.242401 
L 244.066705 191.848447 
L 251.661307 193.654018 
L 259.255909 193.612098 
L 266.850511 193.165945 
L 274.445114 194.721491 
L 282.039716 194.336722 
L 289.634318 191.469667 
L 297.22892 192.896457 
L 304.823523 187.120426 
L 312.418125 191.80503 
L 320.012727 191.686754 
L 327.60733 189.093679 
L 335.201932 192.243697 
L 342.796534 190.559395 
L 350.391136 179.279816 
L 357.985739 188.226825 
L 365.580341 179.606196 
L 373.174943 184.424046 
L 380.769545 178.972898 
L 388.364148 163.62255 
L 395.95875 174.665578 
L 403.553352 184.970509 
L 411.147955 191.72568 
L 418.742557 183.557193 
L 426.337159 183.036182 
L 433.931761 192.342509 
L 441.526364 175.882767 
L 449.120966 178.35607 
L 456.715568 175.686639 
L 464.31017 150.022377 
L 471.904773 187.888467 
L 479.499375 170.829862 
L 487.093977 190.069825 
L 494.68858 187.511184 
L 502.283182 180.998552 
L 509.877784 190.206066 
L 517.472386 163.703396 
L 525.066989 186.868904 
L 532.661591 187.505195 
L 540.256193 190.33033 
" clip-path="url(#p7a30a1bfd6)" style="fill: none; stroke-dasharray: 7.4,3.2; stroke-dashoffset: 0; stroke: #dd8452; stroke-width: 2"/>
   </g>
   <g id="line2d_5">
    <path d="M 84.580057 135.654163 
L 92.174659 113.419887 
L 99.769261 134.020765 
L 107.363864 152.456754 
L 114.958466 169.795327 
L 122.553068 185.278923 
L 130.14767 197.20228 
L 137.742273 203.162461 
L 145.336875 203.58466 
L 152.931477 198.949462 
L 160.52608 191.224133 
L 168.120682 187.511184 
L 175.715284 189.930589 
L 183.309886 186.629358 
L 190.904489 186.910824 
L 198.499091 187.250679 
L 206.093693 187.767198 
L 213.688295 190.730071 
L 221.282898 191.20467 
L 228.8775 189.894658 
L 236.472102 192.659906 
L 244.066705 197.030107 
L 251.661307 197.513689 
L 259.255909 196.034498 
L 266.850511 200.768508 
L 274.445114 200.350801 
L 282.039716 200.975115 
L 289.634318 201.717705 
L 297.22892 202.895967 
L 304.823523 203.039694 
L 312.418125 202.53665 
L 320.012727 205.267464 
L 327.60733 203.924514 
L 335.201932 206.290022 
L 342.796534 207.460799 
L 350.391136 208.796262 
L 357.985739 209.365182 
L 365.580341 210.450621 
L 373.174943 211.164765 
L 380.769545 211.368378 
L 388.364148 210.811436 
L 395.95875 213.349116 
L 403.553352 213.600639 
L 411.147955 212.501726 
L 418.742557 214.139615 
L 426.337159 215.807448 
L 433.931761 213.214372 
L 441.526364 215.849368 
L 449.120966 215.6218 
L 456.715568 215.220562 
L 464.31017 216.075439 
L 471.904773 213.230841 
L 479.499375 217.624996 
L 487.093977 216.114365 
L 494.68858 216.827012 
L 502.283182 217.434857 
L 509.877784 217.571099 
L 517.472386 217.875021 
L 525.066989 219.406613 
L 532.661591 218.94998 
L 540.256193 218.52329 
" clip-path="url(#p7a30a1bfd6)" style="fill: none; stroke: #dd8452; stroke-width: 2; stroke-linecap: round"/>
   </g>
   <g id="line2d_6">
    <path d="M 84.580057 135.654163 
L 92.174659 113.419887 
L 99.769261 134.020765 
L 107.363864 152.456754 
L 114.958466 169.795327 
L 122.553068 185.278923 
L 130.14767 197.20228 
L 137.742273 203.162461 
L 145.336875 203.58466 
L 152.931477 198.949462 
L 160.52608 191.224133 
L 168.120682 187.511184 
L 175.715284 189.930589 
L 183.309886 186.629358 
L 190.904489 186.910824 
L 198.499091 187.250679 
L 206.093693 187.767198 
L 213.688295 190.730071 
L 221.282898 191.20467 
L 228.8775 189.894658 
L 236.472102 192.659906 
L 244.066705 197.030107 
L 251.661307 197.513689 
L 259.255909 196.034498 
L 266.850511 200.768508 
L 274.445114 200.350801 
L 282.039716 200.975115 
L 289.634318 201.717705 
L 297.22892 202.895967 
L 304.823523 203.039694 
L 312.418125 202.53665 
L 320.012727 205.267464 
L 327.60733 203.924514 
L 335.201932 206.290022 
L 342.796534 207.460799 
L 350.391136 208.796262 
L 357.985739 209.365182 
L 365.580341 210.450621 
L 373.174943 211.164765 
L 380.769545 211.368378 
L 388.364148 210.811436 
L 395.95875 213.349116 
L 403.553352 213.600639 
L 411.147955 212.501726 
L 418.742557 214.139615 
L 426.337159 215.807448 
L 433.931761 213.214372 
L 441.526364 215.849368 
L 449.120966 215.6218 
L 456.715568 215.220562 
L 464.31017 216.075439 
L 471.904773 213.230841 
L 479.499375 217.624996 
L 487.093977 216.114365 
L 494.68858 216.827012 
L 502.283182 217.434857 
L 509.877784 217.571099 
L 517.472386 217.875021 
L 525.066989 219.406613 
L 532.661591 218.94998 
L 540.256193 218.52329 
" clip-path="url(#p7a30a1bfd6)" style="fill: none; stroke-dasharray: 7.4,3.2; stroke-dashoffset: 0; stroke: #4c72b0; stroke-width: 2"/>
   </g>
   <g id="line2d_7">
    <path d="M 84.580057 151.664758 
L 92.174659 127.581493 
L 99.769261 142.639897 
L 107.363864 162.343978 
L 114.958466 183.696428 
L 122.553068 200.750542 
L 130.14767 209.672099 
L 137.742273 214.696558 
L 145.336875 216.84348 
L 152.931477 219.336247 
L 160.52608 221.915848 
L 168.120682 222.370983 
L 175.715284 224.33675 
L 183.309886 223.344135 
L 190.904489 225.35332 
L 198.499091 225.862353 
L 206.093693 227.521203 
L 213.688295 226.905871 
L 221.282898 228.039219 
L 228.8775 227.694873 
L 236.472102 228.141026 
L 244.066705 228.203906 
L 251.661307 228.178455 
L 259.255909 228.227861 
L 266.850511 228.626105 
L 274.445114 228.48088 
L 282.039716 227.911961 
L 289.634318 229.388157 
L 297.22892 225.49555 
L 304.823523 226.40133 
L 312.418125 227.384962 
L 320.012727 225.48507 
L 327.60733 227.155897 
L 335.201932 227.155897 
L 342.796534 229.623211 
L 350.391136 227.097508 
L 357.985739 227.301121 
L 365.580341 226.504633 
L 373.174943 226.935815 
L 380.769545 227.384962 
L 388.364148 228.019756 
L 395.95875 226.260597 
L 403.553352 228.155997 
L 411.147955 226.904374 
L 418.742557 227.199314 
L 426.337159 227.295132 
L 433.931761 226.693275 
L 441.526364 226.450736 
L 449.120966 226.889403 
L 456.715568 226.094412 
L 464.31017 227.087027 
L 471.904773 226.048001 
L 479.499375 226.854968 
L 487.093977 226.92234 
L 494.68858 226.510622 
L 502.283182 227.055587 
L 509.877784 224.580787 
L 517.472386 226.098904 
L 525.066989 226.256105 
L 532.661591 227.103496 
L 540.256193 225.923737 
" clip-path="url(#p7a30a1bfd6)" style="fill: none; stroke: #dd8452; stroke-width: 2; stroke-linecap: round"/>
   </g>
   <g id="line2d_8">
    <path d="M 84.580057 151.664758 
L 92.174659 127.581493 
L 99.769261 142.639897 
L 107.363864 162.343978 
L 114.958466 183.696428 
L 122.553068 200.750542 
L 130.14767 209.672099 
L 137.742273 214.696558 
L 145.336875 216.84348 
L 152.931477 219.336247 
L 160.52608 221.915848 
L 168.120682 222.370983 
L 175.715284 224.33675 
L 183.309886 223.344135 
L 190.904489 225.35332 
L 198.499091 225.862353 
L 206.093693 227.521203 
L 213.688295 226.905871 
L 221.282898 228.039219 
L 228.8775 227.694873 
L 236.472102 228.141026 
L 244.066705 228.203906 
L 251.661307 228.178455 
L 259.255909 228.227861 
L 266.850511 228.626105 
L 274.445114 228.48088 
L 282.039716 227.911961 
L 289.634318 229.388157 
L 297.22892 225.49555 
L 304.823523 226.40133 
L 312.418125 227.384962 
L 320.012727 225.48507 
L 327.60733 227.155897 
L 335.201932 227.155897 
L 342.796534 229.623211 
L 350.391136 227.097508 
L 357.985739 227.301121 
L 365.580341 226.504633 
L 373.174943 226.935815 
L 380.769545 227.384962 
L 388.364148 228.019756 
L 395.95875 226.260597 
L 403.553352 228.155997 
L 411.147955 226.904374 
L 418.742557 227.199314 
L 426.337159 227.295132 
L 433.931761 226.693275 
L 441.526364 226.450736 
L 449.120966 226.889403 
L 456.715568 226.094412 
L 464.31017 227.087027 
L 471.904773 226.048001 
L 479.499375 226.854968 
L 487.093977 226.92234 
L 494.68858 226.510622 
L 502.283182 227.055587 
L 509.877784 224.580787 
L 517.472386 226.098904 
L 525.066989 226.256105 
L 532.661591 227.103496 
L 540.256193 225.923737 
" clip-path="url(#p7a30a1bfd6)" style="fill: none; stroke-dasharray: 7.4,3.2; stroke-dashoffset: 0; stroke: #dd8452; stroke-width: 2"/>
   </g>
   <g id="line2d_9">
    <path d="M 122.553068 240.60375 
L 122.553068 27.65625 
" clip-path="url(#p7a30a1bfd6)" style="fill: none; stroke-dasharray: 1.85,0.8; stroke-dashoffset: 0; stroke: #1a1a1a; stroke-width: 0.5"/>
   </g>
   <g id="line2d_10">
    <path d="M 160.52608 240.60375 
L 160.52608 27.65625 
" clip-path="url(#p7a30a1bfd6)" style="fill: none; stroke-dasharray: 1.85,0.8; stroke-dashoffset: 0; stroke: #1a1a1a; stroke-width: 0.5"/>
   </g>
   <g id="line2d_11">
    <path d="M 274.445114 240.60375 
L 274.445114 27.65625 
" clip-path="url(#p7a30a1bfd6)" style="fill: none; stroke-dasharray: 1.85,0.8; stroke-dashoffset: 0; stroke: #1a1a1a; stroke-width: 0.5"/>
   </g>
   <g id="patch_3">
    <path d="M 61.79625 240.60375 
L 61.79625 27.65625 
" style="fill: none; stroke: #262626; stroke-width: 1.25; stroke-linejoin: miter; stroke-linecap: square"/>
   </g>
   <g id="patch_4">
    <path d="M 563.04 240.60375 
L 563.04 27.65625 
" style="fill: none; stroke: #262626; stroke-width: 1.25; stroke-linejoin: miter; stroke-linecap: square"/>
   </g>
   <g id="patch_5">
    <path d="M 61.79625 240.60375 
L 563.04 240.60375 
" style="fill: none; stroke: #262626; stroke-width: 1.25; stroke-linejoin: miter; stroke-linecap: square"/>
   </g>
   <g id="patch_6">
    <path d="M 61.79625 27.65625 
L 563.04 27.65625 
" style="fill: none; stroke: #262626; stroke-width: 1.25; stroke-linejoin: miter; stroke-linecap: square"/>
   </g>
   <g id="text_17">
    <text style="fill: #262626; font: 12px 'sans-serif'; text-anchor: middle" x="312.418125" y="21.65625" transform="rotate(-0, 312.418125, 21.65625)">Tree holdout (train 2, shared rels): epochs to learn held-out tree</text>
   </g>
   <g id="legend_1">
    <g id="patch_7">
     <path d="M 434.228281 99.350469 
L 555.34 99.350469 
Q 557.54 99.350469 557.54 97.150469 
L 557.54 35.35625 
Q 557.54 33.15625 555.34 33.15625 
L 434.228281 33.15625 
Q 432.028281 33.15625 432.028281 35.35625 
L 432.028281 97.150469 
Q 432.028281 99.350469 434.228281 99.350469 
z
" style="fill: #ffffff; opacity: 0.8; stroke: #cccccc; stroke-linejoin: miter"/>
    </g>
    <g id="line2d_12">
     <path d="M 436.428281 41.579844 
L 447.428281 41.579844 
L 458.428281 41.579844 
" style="fill: none; stroke: #4c72b0; stroke-width: 2; stroke-linecap: round"/>
    </g>
    <g id="line2d_13">
     <path d="M 436.428281 41.579844 
L 447.428281 41.579844 
L 458.428281 41.579844 
" style="fill: none; stroke-dasharray: 7.4,3.2; stroke-dashoffset: 0; stroke: #4c72b0; stroke-width: 2"/>
    </g>
    <g id="text_18">
     <text style="fill: #262626; font: 11px 'sans-serif'; text-anchor: start" x="467.228281" y="45.429844" transform="rotate(-0, 467.228281, 45.429844)">english -&gt; english</text>
    </g>
    <g id="line2d_14">
     <path d="M 436.428281 57.402656 
L 447.428281 57.402656 
L 458.428281 57.402656 
" style="fill: none; stroke: #4c72b0; stroke-width: 2; stroke-linecap: round"/>
    </g>
    <g id="line2d_15">
     <path d="M 436.428281 57.402656 
L 447.428281 57.402656 
L 458.428281 57.402656 
" style="fill: none; stroke-dasharray: 7.4,3.2; stroke-dashoffset: 0; stroke: #dd8452; stroke-width: 2"/>
    </g>
    <g id="text_19">
     <text style="fill: #262626; font: 11px 'sans-serif'; text-anchor: start" x="467.228281" y="61.252656" transform="rotate(-0, 467.228281, 61.252656)">french -&gt; english</text>
    </g>
    <g id="line2d_16">
     <path d="M 436.428281 73.225469 
L 447.428281 73.225469 
L 458.428281 73.225469 
" style="fill: none; stroke: #dd8452; stroke-width: 2; stroke-linecap: round"/>
    </g>
    <g id="line2d_17">
     <path d="M 436.428281 73.225469 
L 447.428281 73.225469 
L 458.428281 73.225469 
" style="fill: none; stroke-dasharray: 7.4,3.2; stroke-dashoffset: 0; stroke: #4c72b0; stroke-width: 2"/>
    </g>
    <g id="text_20">
     <text style="fill: #262626; font: 11px 'sans-serif'; text-anchor: start" x="467.228281" y="77.075469" transform="rotate(-0, 467.228281, 77.075469)">english -&gt; french</text>
    </g>
    <g id="line2d_18">
     <path d="M 436.428281 88.914219 
L 447.428281 88.914219 
L 458.428281 88.914219 
" style="fill: none; stroke: #dd8452; stroke-width: 2; stroke-linecap: round"/>
    </g>
    <g id="line2d_19">
     <path d="M 436.428281 88.914219 
L 447.428281 88.914219 
L 458.428281 88.914219 
" style="fill: none; stroke-dasharray: 7.4,3.2; stroke-dashoffset: 0; stroke: #dd8452; stroke-width: 2"/>
    </g>
    <g id="text_21">
     <text style="fill: #262626; font: 11px 'sans-serif'; text-anchor: start" x="467.228281" y="92.764219" transform="rotate(-0, 467.228281, 92.764219)">french -&gt; french</text>
    </g>
   </g>
  </g>
 </g>
 <defs>
  <clipPath id="p7a30a1bfd6">
   <rect x="61.79625" y="27.65625" width="501.24375" height="212.9475"/>
  </clipPath>
 </defs>
</svg>
