<?xml version="1.0" encoding="utf-8" standalone="no"?>
<!DOCTYPE svg PUBLIC "-//W3C//DTD SVG 1.1//EN"
  "http://www.w3.org/Graphics/SVG/1.1/DTD/svg11.dtd">
<svg xmlns:xlink="http://www.w3.org/1999/xlink" width="432pt" height="864pt" viewBox="0 0 432 864" xmlns="http://www.w3.org/2000/svg" version="1.1">
 <metadata>
  <rdf:RDF xmlns:dc="http://purl.org/dc/elements/1.1/" xmlns:cc="http://creativecommons.org/ns#" xmlns:rdf="http://www.w3.org/1999/02/22-rdf-syntax-ns#">
   <cc:Work>
    <dc:type rdf:resource="http://purl.org/dc/dcmitype/StillImage"/>
    <dc:date>2022-02-16T14:18:24.364401</dc:date>
    <dc:format>image/svg+xml</dc:format>
    <dc:creator>
     <cc:Agent>
      <dc:title>Matplotlib v3.5.0, https://matplotlib.org/</dc:title>
     </cc:Agent>
    </dc:creator>
   </cc:Work>
  </rdf:RDF>
 </metadata>
 <defs>
  <style type="text/css">*{stroke-linejoin: round; stroke-linecap: butt}</style>
 </defs>
 <g id="figure_1">
  <g id="patch_1">
   <path d="M 0 864 
L 432 864 
L 432 0 
L 0 0 
z
" style="fill: #ffffff"/>
  </g>
  <g id="axes_1">
   <g id="patch_2">
    <path d="M 61.79625 249.3 
L 419.04 249.3 
L 419.04 27.6 
L 61.79625 27.6 
z
" style="fill: #ffffff"/>
   </g>
   <g id="matplotlib.axis_1">
    <g id="xtick_1">
     <g id="text_1">
      <text style="fill: #262626; font: 11px 'sans-serif'; text-anchor: middle" x="151.107188" y="266.673594" transform="rotate(-0, 151.107188, 266.673594)">English</text>
     </g>
    </g>
    <g id="xtick_2">
     <g id="text_2">
      <text style="fill: #262626; font: 11px 'sans-serif'; text-anchor: middle" x="329.729062" y="266.673594" transform="rotate(-0, 329.729062, 266.673594)">French</text>
     </g>
    </g>
    <g id="text_3">
     <text style="fill: #262626; font: 12px 'sans-serif'; text-anchor: middle" x="240.418125" y="281.578125" transform="rotate(-0, 240.418125, 281.578125)">Tested on</text>
    </g>
   </g>
   <g id="matplotlib.axis_2">
    <g id="ytick_1">
     <g id="line2d_1">
      <path d="M 61.79625 216.007453 
L 419.04 216.007453 
" clip-path="url(#pf3fd009f8a)" style="fill: none; stroke: #cccccc; stroke-linecap: round"/>
     </g>
     <g id="text_4">
      <text style="fill: #262626; font: 11px 'sans-serif'; text-anchor: end" x="52.29625" y="219.94425" transform="rotate(-0, 52.29625, 219.94425)">1000</text>
     </g>
    </g>
    <g id="ytick_2">
     <g id="line2d_2">
      <path d="M 61.79625 176.384287 
L 419.04 176.384287 
" clip-path="url(#pf3fd009f8a)" style="fill: none; stroke: #cccccc; stroke-linecap: round"/>
     </g>
     <g id="text_5">
      <text style="fill: #262626; font: 11px 'sans-serif'; text-anchor: end" x="52.29625" y="180.321083" transform="rotate(-0, 52.29625, 180.321083)">1500</text>
     </g>
    </g>
    <g id="ytick_3">
     <g id="line2d_3">
      <path d="M 61.79625 136.76112 
L 419.04 136.76112 
" clip-path="url(#pf3fd009f8a)" style="fill: none; stroke: #cccccc; stroke-linecap: round"/>
     </g>
     <g id="text_6">
      <text style="fill: #262626; font: 11px 'sans-serif'; text-anchor: end" x="52.29625" y="140.697917" transform="rotate(-0, 52.29625, 140.697917)">2000</text>
     </g>
    </g>
    <g id="ytick_4">
     <g id="line2d_4">
      <path d="M 61.79625 97.137954 
L 419.04 97.137954 
" clip-path="url(#pf3fd009f8a)" style="fill: none; stroke: #cccccc; stroke-linecap: round"/>
     </g>
     <g id="text_7">
      <text style="fill: #262626; font: 11px 'sans-serif'; text-anchor: end" x="52.29625" y="101.074751" transform="rotate(-0, 52.29625, 101.074751)">2500</text>
     </g>
    </g>
    <g id="ytick_5">
     <g id="line2d_5">
      <path d="M 61.79625 57.514787 
L 419.04 57.514787 
" clip-path="url(#pf3fd009f8a)" style="fill: none; stroke: #cccccc; stroke-linecap: round"/>
     </g>
     <g id="text_8">
      <text style="fill: #262626; font: 11px 'sans-serif'; text-anchor: end" x="52.29625" y="61.451584" transform="rotate(-0, 52.29625, 61.451584)">3000</text>
     </g>
    </g>
    <g id="text_9">
     <text style="fill: #262626; font: 12px 'sans-serif'; text-anchor: middle" x="21.443125" y="138.45" transform="rotate(-90, 21.443125, 138.45)">Epochs to 85% on held-out tree</text>
    </g>
   </g>
   <g id="patch_3">
    <path d="M 151.107188 295.253786 
L 151.107188 295.253786 
L 151.107188 295.253786 
L 151.107188 295.253786 
z
" clip-path="url(#pf3fd009f8a)" style="fill: #3274a1; stroke: #3f3f3f; stroke-width: 0.75; stroke-linejoin: miter"/>
   </g>
   <g id="PolyCollection_1">
    <defs>
     <path id="m8bd01c9257" d="M 151.107188 -635.029023 
L 150.492835 -635.029023 
L 150.284189 -636.134606 
L 150.022565 -637.240189 
L 149.700524 -638.345771 
L 149.311287 -639.451354 
L 148.849219 -640.556937 
L 148.310295 -641.662519 
L 147.69248 -642.768102 
L 146.995993 -643.873684 
L 146.223372 -644.979267 
L 145.37932 -646.08485 
L 144.470291 -647.190432 
L 143.503823 -648.296015 
L 142.487619 -649.401598 
L 141.428433 -650.50718 
L 140.330819 -651.612763 
L 139.195843 -652.718346 
L 138.019875 -653.823928 
L 136.793597 -654.929511 
L 135.501386 -656.035094 
L 134.121215 -657.140676 
L 132.625221 -658.246259 
L 130.981009 -659.351842 
L 129.153744 -660.457424 
L 127.108961 -661.563007 
L 124.815945 -662.668589 
L 122.251439 -663.774172 
L 119.403366 -664.879755 
L 116.274184 -665.985337 
L 112.883544 -667.09092 
L 109.269906 -668.196503 
L 105.490916 -669.302085 
L 101.62242 -670.407668 
L 97.756138 -671.513251 
L 93.996133 -672.618833 
L 90.454287 -673.724416 
L 87.245059 -674.829999 
L 84.47982 -675.935581 
L 82.261042 -677.041164 
L 80.676614 -678.146747 
L 79.794565 -679.252329 
L 79.658438 -680.357912 
L 80.28362 -681.463495 
L 81.654939 -682.569077 
L 83.72581 -683.67466 
L 86.419243 -684.780242 
L 89.630859 -685.885825 
L 93.233973 -686.991408 
L 97.086567 -688.09699 
L 101.039754 -689.202573 
L 104.947128 -690.308156 
L 108.674202 -691.413738 
L 112.107072 -692.519321 
L 115.159448 -693.624904 
L 117.777353 -694.730486 
L 119.941002 -695.836069 
L 121.663722 -696.941652 
L 122.988078 -698.047234 
L 123.979703 -699.152817 
L 124.719572 -700.2584 
L 125.295594 -701.363982 
L 125.794422 -702.469565 
L 126.294288 -703.575147 
L 126.859465 -704.68073 
L 127.536719 -705.786313 
L 128.353833 -706.891895 
L 129.320045 -707.997478 
L 130.428055 -709.103061 
L 131.657137 -710.208643 
L 132.97686 -711.314226 
L 134.350976 -712.419809 
L 135.741099 -713.525391 
L 137.109924 -714.630974 
L 138.423837 -715.736557 
L 139.654867 -716.842139 
L 140.781977 -717.947722 
L 141.791733 -719.053305 
L 142.678413 -720.158887 
L 143.443603 -721.26447 
L 144.095343 -722.370053 
L 144.646892 -723.475635 
L 145.115211 -724.581218 
L 145.519263 -725.6868 
L 145.878293 -726.792383 
L 146.21021 -727.897966 
L 146.530231 -729.003548 
L 146.849908 -730.109131 
L 147.176596 -731.214714 
L 147.513404 -732.320296 
L 147.859572 -733.425879 
L 148.211201 -734.531462 
L 148.562209 -735.637044 
L 148.905375 -736.742627 
L 149.233338 -737.84821 
L 149.539443 -738.953792 
L 149.818371 -740.059375 
L 150.0665 -741.164958 
L 150.282026 -742.27054 
L 150.464869 -743.376123 
L 150.616412 -744.481705 
L 151.107188 -744.481705 
L 151.107188 -744.481705 
L 151.107188 -743.376123 
L 151.107188 -742.27054 
L 151.107188 -741.164958 
L 151.107188 -740.059375 
L 151.107188 -738.953792 
L 151.107188 -737.84821 
L 151.107188 -736.742627 
L 151.107188 -735.637044 
L 151.107188 -734.531462 
L 151.107188 -733.425879 
L 151.107188 -732.320296 
L 151.107188 -731.214714 
L 151.107188 -730.109131 
L 151.107188 -729.003548 
L 151.107188 -727.897966 
L 151.107188 -726.792383 
L 151.107188 -725.6868 
L 151.107188 -724.581218 
L 151.107188 -723.475635 
L 151.107188 -722.370053 
L 151.107188 -721.26447 
L 151.107188 -720.158887 
L 151.107188 -719.053305 
L 151.107188 -717.947722 
L 151.107188 -716.842139 
L 151.107188 -715.736557 
L 151.107188 -714.630974 
L 151.107188 -713.525391 
L 151.107188 -712.419809 
L 151.107188 -711.314226 
L 151.107188 -710.208643 
L 151.107188 -709.103061 
L 151.107188 -707.997478 
L 151.107188 -706.891895 
L 151.107188 -705.786313 
L 151.107188 -704.68073 
L 151.107188 -703.575147 
L 151.107188 -702.469565 
L 151.107188 -701.363982 
L 151.107188 -700.2584 
L 151.107188 -699.152817 
L 151.107188 -698.047234 
L 151.107188 -696.941652 
L 151.107188 -695.836069 
L 151.107188 -694.730486 
L 151.107188 -693.624904 
L 151.107188 -692.519321 
L 151.107188 -691.413738 
L 151.107188 -690.308156 
L 151.107188 -689.202573 
L 151.107188 -688.09699 
L 151.107188 -686.991408 
L 151.107188 -685.885825 
L 151.107188 -684.780242 
L 151.107188 -683.67466 
L 151.107188 -682.569077 
L 151.107188 -681.463495 
L 151.107188 -680.357912 
L 151.107188 -679.252329 
L 151.107188 -678.146747 
L 151.107188 -677.041164 
L 151.107188 -675.935581 
L 151.107188 -674.829999 
L 151.107188 -673.724416 
L 151.107188 -672.618833 
L 151.107188 -671.513251 
L 151.107188 -670.407668 
L 151.107188 -669.302085 
L 151.107188 -668.196503 
L 151.107188 -667.09092 
L 151.107188 -665.985337 
L 151.107188 -664.879755 
L 151.107188 -663.774172 
L 151.107188 -662.668589 
L 151.107188 -661.563007 
L 151.107188 -660.457424 
L 151.107188 -659.351842 
L 151.107188 -658.246259 
L 151.107188 -657.140676 
L 151.107188 -656.035094 
L 151.107188 -654.929511 
L 151.107188 -653.823928 
L 151.107188 -652.718346 
L 151.107188 -651.612763 
L 151.107188 -650.50718 
L 151.107188 -649.401598 
L 151.107188 -648.296015 
L 151.107188 -647.190432 
L 151.107188 -646.08485 
L 151.107188 -644.979267 
L 151.107188 -643.873684 
L 151.107188 -642.768102 
L 151.107188 -641.662519 
L 151.107188 -640.556937 
L 151.107188 -639.451354 
L 151.107188 -638.345771 
L 151.107188 -637.240189 
L 151.107188 -636.134606 
L 151.107188 -635.029023 
z
" style="stroke: #3f3f3f; stroke-width: 1.5"/>
    </defs>
    <g clip-path="url(#pf3fd009f8a)">
     <use xlink:href="#m8bd01c9257" x="0" y="864" style="fill: #3274a1; stroke: #3f3f3f; stroke-width: 1.5"/>
    </g>
   </g>
   <g id="patch_4">
    <path d="M 151.107188 295.253786 
L 151.107188 295.253786 
L 151.107188 295.253786 
L 151.107188 295.253786 
z
" clip-path="url(#pf3fd009f8a)" style="fill: #e1812c; stroke: #3f3f3f; stroke-width: 0.75; stroke-linejoin: miter"/>
   </g>
   <g id="PolyCollection_2">
    <defs>
     <path id="m4f363c18f1" d="M 153.263709 -628.947496 
L 151.107188 -628.947496 
L 151.107188 -630.941185 
L 151.107188 -632.934874 
L 151.107188 -634.928563 
L 151.107188 -636.922252 
L 151.107188 -638.915942 
L 151.107188 -640.909631 
L 151.107188 -642.90332 
L 151.107188 -644.897009 
L 151.107188 -646.890698 
L 151.107188 -648.884388 
L 151.107188 -650.878077 
L 151.107188 -652.871766 
L 151.107188 -654.865455 
L 151.107188 -656.859145 
L 151.107188 -658.852834 
L 151.107188 -660.846523 
L 151.107188 -662.840212 
L 151.107188 -664.833901 
L 151.107188 -666.827591 
L 151.107188 -668.82128 
L 151.107188 -670.814969 
L 151.107188 -672.808658 
L 151.107188 -674.802347 
L 151.107188 -676.796037 
L 151.107188 -678.789726 
L 151.107188 -680.783415 
L 151.107188 -682.777104 
L 151.107188 -684.770793 
L 151.107188 -686.764483 
L 151.107188 -688.758172 
L 151.107188 -690.751861 
L 151.107188 -692.74555 
L 151.107188 -694.739239 
L 151.107188 -696.732929 
L 151.107188 -698.726618 
L 151.107188 -700.720307 
L 151.107188 -702.713996 
L 151.107188 -704.707686 
L 151.107188 -706.701375 
L 151.107188 -708.695064 
L 151.107188 -710.688753 
L 151.107188 -712.682442 
L 151.107188 -714.676132 
L 151.107188 -716.669821 
L 151.107188 -718.66351 
L 151.107188 -720.657199 
L 151.107188 -722.650888 
L 151.107188 -724.644578 
L 151.107188 -726.638267 
L 151.107188 -728.631956 
L 151.107188 -730.625645 
L 151.107188 -732.619334 
L 151.107188 -734.613024 
L 151.107188 -736.606713 
L 151.107188 -738.600402 
L 151.107188 -740.594091 
L 151.107188 -742.587781 
L 151.107188 -744.58147 
L 151.107188 -746.575159 
L 151.107188 -748.568848 
L 151.107188 -750.562537 
L 151.107188 -752.556227 
L 151.107188 -754.549916 
L 151.107188 -756.543605 
L 151.107188 -758.537294 
L 151.107188 -760.530983 
L 151.107188 -762.524673 
L 151.107188 -764.518362 
L 151.107188 -766.512051 
L 151.107188 -768.50574 
L 151.107188 -770.499429 
L 151.107188 -772.493119 
L 151.107188 -774.486808 
L 151.107188 -776.480497 
L 151.107188 -778.474186 
L 151.107188 -780.467875 
L 151.107188 -782.461565 
L 151.107188 -784.455254 
L 151.107188 -786.448943 
L 151.107188 -788.442632 
L 151.107188 -790.436322 
L 151.107188 -792.430011 
L 151.107188 -794.4237 
L 151.107188 -796.417389 
L 151.107188 -798.411078 
L 151.107188 -800.404768 
L 151.107188 -802.398457 
L 151.107188 -804.392146 
L 151.107188 -806.385835 
L 151.107188 -808.379524 
L 151.107188 -810.373214 
L 151.107188 -812.366903 
L 151.107188 -814.360592 
L 151.107188 -816.354281 
L 151.107188 -818.34797 
L 151.107188 -820.34166 
L 151.107188 -822.335349 
L 151.107188 -824.329038 
L 151.107188 -826.322727 
L 151.385456 -826.322727 
L 151.385456 -826.322727 
L 151.473417 -824.329038 
L 151.579507 -822.335349 
L 151.7041 -820.34166 
L 151.846416 -818.34797 
L 152.004285 -816.354281 
L 152.174016 -814.360592 
L 152.350394 -812.366903 
L 152.526858 -810.373214 
L 152.695839 -808.379524 
L 152.849276 -806.385835 
L 152.979239 -804.392146 
L 153.078615 -802.398457 
L 153.141772 -800.404768 
L 153.165118 -798.411078 
L 153.14749 -796.417389 
L 153.090316 -794.4237 
L 152.997542 -792.430011 
L 152.875334 -790.436322 
L 152.731603 -788.442632 
L 152.575424 -786.448943 
L 152.416412 -784.455254 
L 152.26415 -782.461565 
L 152.127703 -780.467875 
L 152.015249 -778.474186 
L 151.933853 -776.480497 
L 151.889323 -774.486808 
L 151.886147 -772.493119 
L 151.927439 -770.499429 
L 152.01488 -768.50574 
L 152.148606 -766.512051 
L 152.327065 -764.518362 
L 152.54685 -762.524673 
L 152.802566 -760.530983 
L 153.086768 -758.537294 
L 153.390053 -756.543605 
L 153.701336 -754.549916 
L 154.008352 -752.556227 
L 154.298378 -750.562537 
L 154.559155 -748.568848 
L 154.779939 -746.575159 
L 154.952606 -744.58147 
L 155.072703 -742.587781 
L 155.140356 -740.594091 
L 155.160918 -738.600402 
L 155.145306 -736.606713 
L 155.109958 -734.613024 
L 155.076389 -732.619334 
L 155.070362 -730.625645 
L 155.120692 -728.631956 
L 155.257744 -726.638267 
L 155.511693 -724.644578 
L 155.910662 -722.650888 
L 156.478828 -720.657199 
L 157.234657 -718.66351 
L 158.189413 -716.669821 
L 159.346096 -714.676132 
L 160.698979 -712.682442 
L 162.233846 -710.688753 
L 163.929012 -708.695064 
L 165.757093 -706.701375 
L 167.687411 -704.707686 
L 169.688796 -702.713996 
L 171.732456 -700.720307 
L 173.794509 -698.726618 
L 175.857784 -696.732929 
L 177.912506 -694.739239 
L 179.955647 -692.74555 
L 181.988859 -690.751861 
L 184.015172 -688.758172 
L 186.034812 -686.764483 
L 188.040727 -684.770793 
L 190.014505 -682.777104 
L 191.923401 -680.783415 
L 193.719114 -678.789726 
L 195.338717 -676.796037 
L 196.707908 -674.802347 
L 197.746375 -672.808658 
L 198.374771 -670.814969 
L 198.522509 -668.82128 
L 198.135434 -666.827591 
L 197.18239 -664.833901 
L 195.659837 -662.840212 
L 193.593895 -660.846523 
L 191.039528 -658.852834 
L 188.076976 -656.859145 
L 184.805859 -654.865455 
L 181.337679 -652.871766 
L 177.787603 -650.878077 
L 174.266433 -648.884388 
L 170.873589 -646.890698 
L 167.691734 -644.897009 
L 164.78339 -642.90332 
L 162.189648 -640.909631 
L 159.930796 -638.915942 
L 158.008517 -636.922252 
L 156.409169 -634.928563 
L 155.107642 -632.934874 
L 154.071313 -630.941185 
L 153.263709 -628.947496 
z
" style="stroke: #3f3f3f; stroke-width: 1.5"/>
    </defs>
    <g clip-path="url(#pf3fd009f8a)">
     <use xlink:href="#m4f363c18f1" x="0" y="864" style="fill: #e1812c; stroke: #3f3f3f; stroke-width: 1.5"/>
    </g>
   </g>
   <g id="PolyCollection_3">
    <defs>
     <path id="md79bf28092" d="M 329.729062 -628.766572 
L 328.320647 -628.766572 
L 327.732885 -629.969051 
L 326.9533 -631.171531 
L 325.941804 -632.37401 
L 324.658265 -633.57649 
L 323.065741 -634.778969 
L 321.134381 -635.981449 
L 318.845707 -637.183928 
L 316.196837 -638.386408 
L 313.204086 -639.588887 
L 309.905367 -640.791367 
L 306.360809 -641.993846 
L 302.651166 -643.196326 
L 298.873846 -644.398805 
L 295.13665 -645.601285 
L 291.54971 -646.803764 
L 288.216392 -648.006244 
L 285.224225 -649.208723 
L 282.636994 -650.411203 
L 280.489134 -651.613682 
L 278.783307 -652.816162 
L 277.491707 -654.018641 
L 276.561106 -655.221121 
L 275.921166 -656.4236 
L 275.494989 -657.62608 
L 275.210525 -658.828559 
L 275.01125 -660.031039 
L 274.864549 -661.233518 
L 274.76653 -662.435998 
L 274.742488 -663.638477 
L 274.842884 -664.840957 
L 275.135388 -666.043436 
L 275.694156 -667.245916 
L 276.587968 -668.448395 
L 277.86901 -669.650875 
L 279.563997 -670.853354 
L 281.668886 -672.055834 
L 284.147891 -673.258313 
L 286.93675 -674.460793 
L 289.949572 -675.663272 
L 293.088064 -676.865752 
L 296.251659 -678.068231 
L 299.347076 -679.270711 
L 302.296052 -680.47319 
L 305.040446 -681.67567 
L 307.544364 -682.878149 
L 309.793494 -684.080629 
L 311.792188 -685.283108 
L 313.559057 -686.485588 
L 315.121953 -687.688067 
L 316.513057 -688.890547 
L 317.764685 -690.093026 
L 318.906116 -691.295506 
L 319.961581 -692.497985 
L 320.949322 -693.700465 
L 321.881538 -694.902945 
L 322.764975 -696.105424 
L 323.601903 -697.307904 
L 324.391278 -698.510383 
L 325.129932 -699.712863 
L 325.813658 -700.915342 
L 326.438139 -702.117822 
L 326.999662 -703.320301 
L 327.495609 -704.522781 
L 327.924706 -705.72526 
L 328.287054 -706.92774 
L 328.583984 -708.130219 
L 328.817755 -709.332699 
L 328.991194 -710.535178 
L 329.107329 -711.737658 
L 329.169091 -712.940137 
L 329.179151 -714.142617 
L 329.139931 -715.345096 
L 329.053804 -716.547576 
L 328.923454 -717.750055 
L 328.752359 -718.952535 
L 328.545311 -720.155014 
L 328.308856 -721.357494 
L 328.051583 -722.559973 
L 327.784147 -723.762453 
L 327.518968 -724.964932 
L 327.269619 -726.167412 
L 327.049912 -727.369891 
L 326.872807 -728.572371 
L 326.749255 -729.77485 
L 326.687161 -730.97733 
L 326.690593 -732.179809 
L 326.759376 -733.382289 
L 326.889125 -734.584768 
L 327.07172 -735.787248 
L 327.296153 -736.989727 
L 327.549629 -738.192207 
L 327.818768 -739.394686 
L 328.090753 -740.597166 
L 328.354292 -741.799645 
L 328.600299 -743.002125 
L 328.822256 -744.204604 
L 329.016267 -745.407084 
L 329.180844 -746.609563 
L 329.316508 -747.812043 
L 329.729062 -747.812043 
L 329.729062 -747.812043 
L 329.729062 -746.609563 
L 329.729062 -745.407084 
L 329.729062 -744.204604 
L 329.729062 -743.002125 
L 329.729062 -741.799645 
L 329.729062 -740.597166 
L 329.729062 -739.394686 
L 329.729062 -738.192207 
L 329.729062 -736.989727 
L 329.729062 -735.787248 
L 329.729062 -734.584768 
L 329.729062 -733.382289 
L 329.729062 -732.179809 
L 329.729062 -730.97733 
L 329.729062 -729.77485 
L 329.729062 -728.572371 
L 329.729062 -727.369891 
L 329.729062 -726.167412 
L 329.729062 -724.964932 
L 329.729062 -723.762453 
L 329.729062 -722.559973 
L 329.729062 -721.357494 
L 329.729062 -720.155014 
L 329.729062 -718.952535 
L 329.729062 -717.750055 
L 329.729062 -716.547576 
L 329.729062 -715.345096 
L 329.729062 -714.142617 
L 329.729062 -712.940137 
L 329.729062 -711.737658 
L 329.729062 -710.535178 
L 329.729062 -709.332699 
L 329.729062 -708.130219 
L 329.729062 -706.92774 
L 329.729062 -705.72526 
L 329.729062 -704.522781 
L 329.729062 -703.320301 
L 329.729062 -702.117822 
L 329.729062 -700.915342 
L 329.729062 -699.712863 
L 329.729062 -698.510383 
L 329.729062 -697.307904 
L 329.729062 -696.105424 
L 329.729062 -694.902945 
L 329.729062 -693.700465 
L 329.729062 -692.497985 
L 329.729062 -691.295506 
L 329.729062 -690.093026 
L 329.729062 -688.890547 
L 329.729062 -687.688067 
L 329.729062 -686.485588 
L 329.729062 -685.283108 
L 329.729062 -684.080629 
L 329.729062 -682.878149 
L 329.729062 -681.67567 
L 329.729062 -680.47319 
L 329.729062 -679.270711 
L 329.729062 -678.068231 
L 329.729062 -676.865752 
L 329.729062 -675.663272 
L 329.729062 -674.460793 
L 329.729062 -673.258313 
L 329.729062 -672.055834 
L 329.729062 -670.853354 
L 329.729062 -669.650875 
L 329.729062 -668.448395 
L 329.729062 -667.245916 
L 329.729062 -666.043436 
L 329.729062 -664.840957 
L 329.729062 -663.638477 
L 329.729062 -662.435998 
L 329.729062 -661.233518 
L 329.729062 -660.031039 
L 329.729062 -658.828559 
L 329.729062 -657.62608 
L 329.729062 -656.4236 
L 329.729062 -655.221121 
L 329.729062 -654.018641 
L 329.729062 -652.816162 
L 329.729062 -651.613682 
L 329.729062 -650.411203 
L 329.729062 -649.208723 
L 329.729062 -648.006244 
L 329.729062 -646.803764 
L 329.729062 -645.601285 
L 329.729062 -644.398805 
L 329.729062 -643.196326 
L 329.729062 -641.993846 
L 329.729062 -640.791367 
L 329.729062 -639.588887 
L 329.729062 -638.386408 
L 329.729062 -637.183928 
L 329.729062 -635.981449 
L 329.729062 -634.778969 
L 329.729062 -633.57649 
L 329.729062 -632.37401 
L 329.729062 -631.171531 
L 329.729062 -629.969051 
L 329.729062 -628.766572 
z
" style="stroke: #3f3f3f; stroke-width: 1.5"/>
    </defs>
    <g clip-path="url(#pf3fd009f8a)">
     <use xlink:href="#md79bf28092" x="0" y="864" style="fill: #3274a1; stroke: #3f3f3f; stroke-width: 1.5"/>
    </g>
   </g>
   <g id="PolyCollection_4">
    <defs>
     <path id="m85f2183eba" d="M 332.261427 -624.777273 
L 329.729062 -624.777273 
L 329.729062 -625.732152 
L 329.729062 -626.687032 
L 329.729062 -627.641911 
L 329.729062 -628.596791 
L 329.729062 -629.55167 
L 329.729062 -630.50655 
L 329.729062 -631.461429 
L 329.729062 -632.416309 
L 329.729062 -633.371188 
L 329.729062 -634.326068 
L 329.729062 -635.280947 
L 329.729062 -636.235827 
L 329.729062 -637.190706 
L 329.729062 -638.145586 
L 329.729062 -639.100466 
L 329.729062 -640.055345 
L 329.729062 -641.010225 
L 329.729062 -641.965104 
L 329.729062 -642.919984 
L 329.729062 -643.874863 
L 329.729062 -644.829743 
L 329.729062 -645.784622 
L 329.729062 -646.739502 
L 329.729062 -647.694381 
L 329.729062 -648.649261 
L 329.729062 -649.60414 
L 329.729062 -650.55902 
L 329.729062 -651.513899 
L 329.729062 -652.468779 
L 329.729062 -653.423658 
L 329.729062 -654.378538 
L 329.729062 -655.333417 
L 329.729062 -656.288297 
L 329.729062 -657.243176 
L 329.729062 -658.198056 
L 329.729062 -659.152935 
L 329.729062 -660.107815 
L 329.729062 -661.062695 
L 329.729062 -662.017574 
L 329.729062 -662.972454 
L 329.729062 -663.927333 
L 329.729062 -664.882213 
L 329.729062 -665.837092 
L 329.729062 -666.791972 
L 329.729062 -667.746851 
L 329.729062 -668.701731 
L 329.729062 -669.65661 
L 329.729062 -670.61149 
L 329.729062 -671.566369 
L 329.729062 -672.521249 
L 329.729062 -673.476128 
L 329.729062 -674.431008 
L 329.729062 -675.385887 
L 329.729062 -676.340767 
L 329.729062 -677.295646 
L 329.729062 -678.250526 
L 329.729062 -679.205405 
L 329.729062 -680.160285 
L 329.729062 -681.115164 
L 329.729062 -682.070044 
L 329.729062 -683.024923 
L 329.729062 -683.979803 
L 329.729062 -684.934683 
L 329.729062 -685.889562 
L 329.729062 -686.844442 
L 329.729062 -687.799321 
L 329.729062 -688.754201 
L 329.729062 -689.70908 
L 329.729062 -690.66396 
L 329.729062 -691.618839 
L 329.729062 -692.573719 
L 329.729062 -693.528598 
L 329.729062 -694.483478 
L 329.729062 -695.438357 
L 329.729062 -696.393237 
L 329.729062 -697.348116 
L 329.729062 -698.302996 
L 329.729062 -699.257875 
L 329.729062 -700.212755 
L 329.729062 -701.167634 
L 329.729062 -702.122514 
L 329.729062 -703.077393 
L 329.729062 -704.032273 
L 329.729062 -704.987152 
L 329.729062 -705.942032 
L 329.729062 -706.896911 
L 329.729062 -707.851791 
L 329.729062 -708.806671 
L 329.729062 -709.76155 
L 329.729062 -710.71643 
L 329.729062 -711.671309 
L 329.729062 -712.626189 
L 329.729062 -713.581068 
L 329.729062 -714.535948 
L 329.729062 -715.490827 
L 329.729062 -716.445707 
L 329.729062 -717.400586 
L 329.729062 -718.355466 
L 329.729062 -719.310345 
L 330.195391 -719.310345 
L 330.195391 -719.310345 
L 330.331587 -718.355466 
L 330.494058 -717.400586 
L 330.683511 -716.445707 
L 330.899282 -715.490827 
L 331.139067 -714.535948 
L 331.398748 -713.581068 
L 331.672378 -712.626189 
L 331.952337 -711.671309 
L 332.229696 -710.71643 
L 332.494779 -709.76155 
L 332.737893 -708.806671 
L 332.95017 -707.851791 
L 333.124453 -706.896911 
L 333.256118 -705.942032 
L 333.343753 -704.987152 
L 333.3896 -704.032273 
L 333.399691 -703.077393 
L 333.383653 -702.122514 
L 333.354161 -701.167634 
L 333.326104 -700.212755 
L 333.315495 -699.257875 
L 333.338257 -698.302996 
L 333.408967 -697.348116 
L 333.5397 -696.393237 
L 333.739069 -695.438357 
L 334.01155 -694.483478 
L 334.357186 -693.528598 
L 334.771667 -692.573719 
L 335.246813 -691.618839 
L 335.771396 -690.66396 
L 336.332229 -689.70908 
L 336.915416 -688.754201 
L 337.507635 -687.799321 
L 338.097323 -686.844442 
L 338.675652 -685.889562 
L 339.237213 -684.934683 
L 339.780341 -683.979803 
L 340.307098 -683.024923 
L 340.822941 -682.070044 
L 341.336152 -681.115164 
L 341.857137 -680.160285 
L 342.397688 -679.205405 
L 342.970305 -678.250526 
L 343.587649 -677.295646 
L 344.262153 -676.340767 
L 345.005803 -675.385887 
L 345.830055 -674.431008 
L 346.745845 -673.476128 
L 347.763645 -672.521249 
L 348.893522 -671.566369 
L 350.145156 -670.61149 
L 351.527791 -669.65661 
L 353.050118 -668.701731 
L 354.720053 -667.746851 
L 356.544412 -666.791972 
L 358.52847 -665.837092 
L 360.675367 -664.882213 
L 362.985386 -663.927333 
L 365.455094 -662.972454 
L 368.076399 -662.017574 
L 370.835584 -661.062695 
L 373.712423 -660.107815 
L 376.679493 -659.152935 
L 379.701791 -658.198056 
L 382.736756 -657.243176 
L 385.734751 -656.288297 
L 388.640015 -655.333417 
L 391.392049 -654.378538 
L 393.927347 -653.423658 
L 396.181377 -652.468779 
L 398.090702 -651.513899 
L 399.595144 -650.55902 
L 400.639936 -649.60414 
L 401.177812 -648.649261 
L 401.171025 -647.694381 
L 400.593253 -646.739502 
L 399.431359 -645.784622 
L 397.686911 -644.829743 
L 395.377326 -643.874863 
L 392.536471 -642.919984 
L 389.214562 -641.965104 
L 385.477171 -641.010225 
L 381.40329 -640.055345 
L 377.082432 -639.100466 
L 372.610898 -638.145586 
L 368.087442 -637.190706 
L 363.608656 -636.235827 
L 359.264468 -635.280947 
L 355.134118 -634.326068 
L 351.282963 -633.371188 
L 347.760351 -632.416309 
L 344.598683 -631.461429 
L 341.813671 -630.50655 
L 339.405644 -629.55167 
L 337.361693 -628.596791 
L 335.658376 -627.641911 
L 334.264668 -626.687032 
L 333.144898 -625.732152 
L 332.261427 -624.777273 
z
" style="stroke: #3f3f3f; stroke-width: 1.5"/>
    </defs>
    <g clip-path="url(#pf3fd009f8a)">
     <use xlink:href="#m85f2183eba" x="0" y="864" style="fill: #e1812c; stroke: #3f3f3f; stroke-width: 1.5"/>
    </g>
   </g>
   <g id="line2d_6">
    <path d="M 87.88368 189.242004 
L 151.107188 189.242004 
" clip-path="url(#pf3fd009f8a)" style="fill: none; stroke-dasharray: 3.375,3.375; stroke-dashoffset: 0; stroke: #3f3f3f; stroke-width: 1.5"/>
   </g>
   <g id="line2d_7">
    <path d="M 82.349461 181.733414 
L 151.107188 181.733414 
" clip-path="url(#pf3fd009f8a)" style="fill: none; stroke-dasharray: 6.75,6.75; stroke-dashoffset: 0; stroke: #3f3f3f; stroke-width: 1.5"/>
   </g>
   <g id="line2d_8">
    <path d="M 97.626773 176.404098 
L 151.107188 176.404098 
" clip-path="url(#pf3fd009f8a)" style="fill: none; stroke-dasharray: 3.375,3.375; stroke-dashoffset: 0; stroke: #3f3f3f; stroke-width: 1.5"/>
   </g>
   <g id="line2d_9">
    <path d="M 151.107188 198.850622 
L 196.721638 198.850622 
" clip-path="url(#pf3fd009f8a)" style="fill: none; stroke-dasharray: 3.375,3.375; stroke-dashoffset: 0; stroke: #3f3f3f; stroke-width: 1.5"/>
   </g>
   <g id="line2d_10">
    <path d="M 151.107188 192.94677 
L 197.902095 192.94677 
" clip-path="url(#pf3fd009f8a)" style="fill: none; stroke-dasharray: 6.75,6.75; stroke-dashoffset: 0; stroke: #3f3f3f; stroke-width: 1.5"/>
   </g>
   <g id="line2d_11">
    <path d="M 151.107188 173.868216 
L 181.680042 173.868216 
" clip-path="url(#pf3fd009f8a)" style="fill: none; stroke-dasharray: 3.375,3.375; stroke-dashoffset: 0; stroke: #3f3f3f; stroke-width: 1.5"/>
   </g>
   <g id="line2d_12">
    <path d="M 278.01408 210.539456 
L 329.729062 210.539456 
" clip-path="url(#pf3fd009f8a)" style="fill: none; stroke-dasharray: 3.375,3.375; stroke-dashoffset: 0; stroke: #3f3f3f; stroke-width: 1.5"/>
   </g>
   <g id="line2d_13">
    <path d="M 275.681325 197.741173 
L 329.729062 197.741173 
" clip-path="url(#pf3fd009f8a)" style="fill: none; stroke-dasharray: 6.75,6.75; stroke-dashoffset: 0; stroke: #3f3f3f; stroke-width: 1.5"/>
   </g>
   <g id="line2d_14">
    <path d="M 280.065647 193.085451 
L 329.729062 193.085451 
" clip-path="url(#pf3fd009f8a)" style="fill: none; stroke-dasharray: 3.375,3.375; stroke-dashoffset: 0; stroke: #3f3f3f; stroke-width: 1.5"/>
   </g>
   <g id="line2d_15">
    <path d="M 329.729062 219.137683 
L 397.007333 219.137683 
" clip-path="url(#pf3fd009f8a)" style="fill: none; stroke-dasharray: 3.375,3.375; stroke-dashoffset: 0; stroke: #3f3f3f; stroke-width: 1.5"/>
   </g>
   <g id="line2d_16">
    <path d="M 329.729062 212.679107 
L 397.407086 212.679107 
" clip-path="url(#pf3fd009f8a)" style="fill: none; stroke-dasharray: 6.75,6.75; stroke-dashoffset: 0; stroke: #3f3f3f; stroke-width: 1.5"/>
   </g>
   <g id="line2d_17">
    <path d="M 329.729062 202.931808 
L 370.424519 202.931808 
" clip-path="url(#pf3fd009f8a)" style="fill: none; stroke-dasharray: 3.375,3.375; stroke-dashoffset: 0; stroke: #3f3f3f; stroke-width: 1.5"/>
   </g>
   <g id="patch_5">
    <path d="M 61.79625 249.3 
L 61.79625 27.6 
" style="fill: none; stroke: #cccccc; stroke-width: 1.25; stroke-linejoin: miter; stroke-linecap: square"/>
   </g>
   <g id="patch_6">
    <path d="M 419.04 249.3 
L 419.04 27.6 
" style="fill: none; stroke: #cccccc; stroke-width: 1.25; stroke-linejoin: miter; stroke-linecap: square"/>
   </g>
   <g id="patch_7">
    <path d="M 61.79625 249.3 
L 419.04 249.3 
" style="fill: none; stroke: #cccccc; stroke-width: 1.25; stroke-linejoin: miter; stroke-linecap: square"/>
   </g>
   <g id="patch_8">
    <path d="M 61.79625 27.6 
L 419.04 27.6 
" style="fill: none; stroke: #cccccc; stroke-width: 1.25; stroke-linejoin: miter; stroke-linecap: square"/>
   </g>
   <g id="text_10">
    <text style="fill: #262626; font: 12px 'sans-serif'; text-anchor: middle" x="240.418125" y="21.6" transform="rotate(-0, 240.418125, 21.6)">Training epoch 1000</text>
   </g>
   <g id="legend_1">
    <g id="patch_9">
     <path d="M 340.063438 84.122969 
L 411.34 84.122969 
Q 413.54 84.122969 413.54 81.922969 
L 413.54 35.3 
Q 413.54 33.1 411.34 33.1 
L 340.063438 33.1 
Q 337.863438 33.1 337.863438 35.3 
L 337.863438 81.922969 
Q 337.863438 84.122969 340.063438 84.122969 
z
" style="fill: #ffffff; opacity: 0.8; stroke: #cccccc; stroke-linejoin: miter"/>
    </g>
    <g id="text_11">
     <text style="fill: #262626; font: 12px 'sans-serif'; text-anchor: start" x="347.244844" y="46.089375" transform="rotate(-0, 347.244844, 46.089375)">Trained on</text>
    </g>
    <g id="patch_10">
     <path d="M 342.263438 61.847969 
L 364.263438 61.847969 
L 364.263438 54.147969 
L 342.263438 54.147969 
z
" style="fill: #3274a1; stroke: #3f3f3f; stroke-width: 0.75; stroke-linejoin: miter"/>
    </g>
    <g id="text_12">
     <text style="fill: #262626; font: 11px 'sans-serif'; text-anchor: start" x="373.063438" y="61.847969" transform="rotate(-0, 373.063438, 61.847969)">English</text>
    </g>
    <g id="patch_11">
     <path d="M 342.263438 77.536719 
L 364.263438 77.536719 
L 364.263438 69.836719 
L 342.263438 69.836719 
z
" style="fill: #e1812c; stroke: #3f3f3f; stroke-width: 0.75; stroke-linejoin: miter"/>
    </g>
    <g id="text_13">
     <text style="fill: #262626; font: 11px 'sans-serif'; text-anchor: start" x="373.063438" y="77.536719" transform="rotate(-0, 373.063438, 77.536719)">French</text>
    </g>
   </g>
  </g>
  <g id="axes_2">
   <g id="patch_12">
    <path d="M 61.79625 532.98 
L 419.04 532.98 
L 419.04 311.28 
L 61.79625 311.28 
z
" style="fill: #ffffff"/>
   </g>
   <g id="matplotlib.axis_3">
    <g id="xtick_3">
     <g id="text_14">
      <text style="fill: #262626; font: 11px 'sans-serif'; text-anchor: middle" x="151.107188" y="550.353594" transform="rotate(-0, 151.107188, 550.353594)">English</text>
     </g>
    </g>
    <g id="xtick_4">
     <g id="text_15">
      <text style="fill: #262626; font: 11px 'sans-serif'; text-anchor: middle" x="329.729062" y="550.353594" transform="rotate(-0, 329.729062, 550.353594)">French</text>
     </g>
    </g>
    <g id="text_16">
     <text style="fill: #262626; font: 12px 'sans-serif'; text-anchor: middle" x="240.418125" y="565.258125" transform="rotate(-0, 240.418125, 565.258125)">Tested on</text>
    </g>
   </g>
   <g id="matplotlib.axis_4">
    <g id="ytick_6">
     <g id="line2d_18">
      <path d="M 61.79625 510.004296 
L 419.04 510.004296 
" clip-path="url(#p66e6b95e55)" style="fill: none; stroke: #cccccc; stroke-linecap: round"/>
     </g>
     <g id="text_17">
      <text style="fill: #262626; font: 11px 'sans-serif'; text-anchor: end" x="52.29625" y="513.941093" transform="rotate(-0, 52.29625, 513.941093)">400</text>
     </g>
    </g>
    <g id="ytick_7">
     <g id="line2d_19">
      <path d="M 61.79625 480.751416 
L 419.04 480.751416 
" clip-path="url(#p66e6b95e55)" style="fill: none; stroke: #cccccc; stroke-linecap: round"/>
     </g>
     <g id="text_18">
      <text style="fill: #262626; font: 11px 'sans-serif'; text-anchor: end" x="52.29625" y="484.688213" transform="rotate(-0, 52.29625, 484.688213)">600</text>
     </g>
    </g>
    <g id="ytick_8">
     <g id="line2d_20">
      <path d="M 61.79625 451.498536 
L 419.04 451.498536 
" clip-path="url(#p66e6b95e55)" style="fill: none; stroke: #cccccc; stroke-linecap: round"/>
     </g>
     <g id="text_19">
      <text style="fill: #262626; font: 11px 'sans-serif'; text-anchor: end" x="52.29625" y="455.435333" transform="rotate(-0, 52.29625, 455.435333)">800</text>
     </g>
    </g>
    <g id="ytick_9">
     <g id="line2d_21">
      <path d="M 61.79625 422.245657 
L 419.04 422.245657 
" clip-path="url(#p66e6b95e55)" style="fill: none; stroke: #cccccc; stroke-linecap: round"/>
     </g>
     <g id="text_20">
      <text style="fill: #262626; font: 11px 'sans-serif'; text-anchor: end" x="52.29625" y="426.182454" transform="rotate(-0, 52.29625, 426.182454)">1000</text>
     </g>
    </g>
    <g id="ytick_10">
     <g id="line2d_22">
      <path d="M 61.79625 392.992777 
L 419.04 392.992777 
" clip-path="url(#p66e6b95e55)" style="fill: none; stroke: #cccccc; stroke-linecap: round"/>
     </g>
     <g id="text_21">
      <text style="fill: #262626; font: 11px 'sans-serif'; text-anchor: end" x="52.29625" y="396.929574" transform="rotate(-0, 52.29625, 396.929574)">1200</text>
     </g>
    </g>
    <g id="ytick_11">
     <g id="line2d_23">
      <path d="M 61.79625 363.739897 
L 419.04 363.739897 
" clip-path="url(#p66e6b95e55)" style="fill: none; stroke: #cccccc; stroke-linecap: round"/>
     </g>
     <g id="text_22">
      <text style="fill: #262626; font: 11px 'sans-serif'; text-anchor: end" x="52.29625" y="367.676694" transform="rotate(-0, 52.29625, 367.676694)">1400</text>
     </g>
    </g>
    <g id="ytick_12">
     <g id="line2d_24">
      <path d="M 61.79625 334.487018 
L 419.04 334.487018 
" clip-path="url(#p66e6b95e55)" style="fill: none; stroke: #cccccc; stroke-linecap: round"/>
     </g>
     <g id="text_23">
      <text style="fill: #262626; font: 11px 'sans-serif'; text-anchor: end" x="52.29625" y="338.423815" transform="rotate(-0, 52.29625, 338.423815)">1600</text>
     </g>
    </g>
    <g id="text_24">
     <text style="fill: #262626; font: 12px 'sans-serif'; text-anchor: middle" x="21.443125" y="422.13" transform="rotate(-90, 21.443125, 422.13)">Epochs to 85% on held-out tree</text>
    </g>
   </g>
   <g id="patch_13">
    <path d="M 151.107188 568.510055 
L 151.107188 568.510055 
L 151.107188 568.510055 
L 151.107188 568.510055 
z
" clip-path="url(#p66e6b95e55)" style="fill: #3274a1; stroke: #3f3f3f; stroke-width: 0.75; stroke-linejoin: miter"/>
   </g>
   <g id="PolyCollection_5">
    <defs>
     <path id="m4c28ec003d" d="M 151.107188 -343.498718 
L 150.13168 -343.498718 
L 149.829196 -345.510274 
L 149.451879 -347.52183 
L 148.987097 -349.533385 
L 148.421666 -351.544941 
L 147.742249 -353.556497 
L 146.935834 -355.568052 
L 145.990294 -357.579608 
L 144.895011 -359.591164 
L 143.641536 -361.602719 
L 142.224266 -363.614275 
L 140.641089 -365.62583 
L 138.893971 -367.637386 
L 136.989439 -369.648942 
L 134.938917 -371.660497 
L 132.758875 -373.672053 
L 130.470746 -375.683609 
L 128.100588 -377.695164 
L 125.678468 -379.70672 
L 123.237551 -381.718276 
L 120.812931 -383.729831 
L 118.440218 -385.741387 
L 116.153968 -387.752943 
L 113.986027 -389.764498 
L 111.963915 -391.776054 
L 110.109379 -393.78761 
L 108.43723 -395.799165 
L 106.954612 -397.810721 
L 105.660779 -399.822276 
L 104.547449 -401.833832 
L 103.599745 -403.845388 
L 102.797668 -405.856943 
L 102.117999 -407.868499 
L 101.53647 -409.880055 
L 101.03001 -411.89161 
L 100.578864 -413.903166 
L 100.168363 -415.914722 
L 99.790195 -417.926277 
L 99.443039 -419.937833 
L 99.132516 -421.949389 
L 98.870473 -423.960944 
L 98.67368 -425.9725 
L 98.5621 -427.984055 
L 98.556897 -429.995611 
L 98.6784 -432.007167 
L 98.944208 -434.018722 
L 99.367599 -436.030278 
L 99.95637 -438.041834 
L 100.712174 -440.053389 
L 101.63036 -442.064945 
L 102.700282 -444.076501 
L 103.906015 -446.088056 
L 105.227351 -448.099612 
L 106.640998 -450.111168 
L 108.121844 -452.122723 
L 109.644222 -454.134279 
L 111.183079 -456.145835 
L 112.715004 -458.15739 
L 114.219083 -460.168946 
L 115.677553 -462.180501 
L 117.076269 -464.192057 
L 118.40496 -466.203613 
L 119.657325 -468.215168 
L 120.830944 -470.226724 
L 121.927052 -472.23828 
L 122.950187 -474.249835 
L 123.907733 -476.261391 
L 124.809385 -478.272947 
L 125.666561 -480.284502 
L 126.491779 -482.296058 
L 127.298034 -484.307614 
L 128.09818 -486.319169 
L 128.904347 -488.330725 
L 129.727409 -490.34228 
L 130.576508 -492.353836 
L 131.458666 -494.365392 
L 132.378483 -496.376947 
L 133.337942 -498.388503 
L 134.336329 -500.400059 
L 135.370271 -502.411614 
L 136.433907 -504.42317 
L 137.519171 -506.434726 
L 138.616187 -508.446281 
L 139.713749 -510.457837 
L 140.799873 -512.469393 
L 141.862367 -514.480948 
L 142.889407 -516.492504 
L 143.870068 -518.50406 
L 144.794782 -520.515615 
L 145.655706 -522.527171 
L 146.446965 -524.538726 
L 147.164778 -526.550282 
L 147.807459 -528.561838 
L 148.375305 -530.573393 
L 148.870395 -532.584949 
L 149.296315 -534.596505 
L 149.657837 -536.60806 
L 149.960589 -538.619616 
L 150.210715 -540.631172 
L 150.414579 -542.642727 
L 151.107188 -542.642727 
L 151.107188 -542.642727 
L 151.107188 -540.631172 
L 151.107188 -538.619616 
L 151.107188 -536.60806 
L 151.107188 -534.596505 
L 151.107188 -532.584949 
L 151.107188 -530.573393 
L 151.107188 -528.561838 
L 151.107188 -526.550282 
L 151.107188 -524.538726 
L 151.107188 -522.527171 
L 151.107188 -520.515615 
L 151.107188 -518.50406 
L 151.107188 -516.492504 
L 151.107188 -514.480948 
L 151.107188 -512.469393 
L 151.107188 -510.457837 
L 151.107188 -508.446281 
L 151.107188 -506.434726 
L 151.107188 -504.42317 
L 151.107188 -502.411614 
L 151.107188 -500.400059 
L 151.107188 -498.388503 
L 151.107188 -496.376947 
L 151.107188 -494.365392 
L 151.107188 -492.353836 
L 151.107188 -490.34228 
L 151.107188 -488.330725 
L 151.107188 -486.319169 
L 151.107188 -484.307614 
L 151.107188 -482.296058 
L 151.107188 -480.284502 
L 151.107188 -478.272947 
L 151.107188 -476.261391 
L 151.107188 -474.249835 
L 151.107188 -472.23828 
L 151.107188 -470.226724 
L 151.107188 -468.215168 
L 151.107188 -466.203613 
L 151.107188 -464.192057 
L 151.107188 -462.180501 
L 151.107188 -460.168946 
L 151.107188 -458.15739 
L 151.107188 -456.145835 
L 151.107188 -454.134279 
L 151.107188 -452.122723 
L 151.107188 -450.111168 
L 151.107188 -448.099612 
L 151.107188 -446.088056 
L 151.107188 -444.076501 
L 151.107188 -442.064945 
L 151.107188 -440.053389 
L 151.107188 -438.041834 
L 151.107188 -436.030278 
L 151.107188 -434.018722 
L 151.107188 -432.007167 
L 151.107188 -429.995611 
L 151.107188 -427.984055 
L 151.107188 -425.9725 
L 151.107188 -423.960944 
L 151.107188 -421.949389 
L 151.107188 -419.937833 
L 151.107188 -417.926277 
L 151.107188 -415.914722 
L 151.107188 -413.903166 
L 151.107188 -411.89161 
L 151.107188 -409.880055 
L 151.107188 -407.868499 
L 151.107188 -405.856943 
L 151.107188 -403.845388 
L 151.107188 -401.833832 
L 151.107188 -399.822276 
L 151.107188 -397.810721 
L 151.107188 -395.799165 
L 151.107188 -393.78761 
L 151.107188 -391.776054 
L 151.107188 -389.764498 
L 151.107188 -387.752943 
L 151.107188 -385.741387 
L 151.107188 -383.729831 
L 151.107188 -381.718276 
L 151.107188 -379.70672 
L 151.107188 -377.695164 
L 151.107188 -375.683609 
L 151.107188 -373.672053 
L 151.107188 -371.660497 
L 151.107188 -369.648942 
L 151.107188 -367.637386 
L 151.107188 -365.62583 
L 151.107188 -363.614275 
L 151.107188 -361.602719 
L 151.107188 -359.591164 
L 151.107188 -357.579608 
L 151.107188 -355.568052 
L 151.107188 -353.556497 
L 151.107188 -351.544941 
L 151.107188 -349.533385 
L 151.107188 -347.52183 
L 151.107188 -345.510274 
L 151.107188 -343.498718 
z
" style="stroke: #3f3f3f; stroke-width: 1.5"/>
    </defs>
    <g clip-path="url(#p66e6b95e55)">
     <use xlink:href="#m4c28ec003d" x="0" y="864" style="fill: #3274a1; stroke: #3f3f3f; stroke-width: 1.5"/>
    </g>
   </g>
   <g id="patch_14">
    <path d="M 151.107188 568.510055 
L 151.107188 568.510055 
L 151.107188 568.510055 
L 151.107188 568.510055 
z
" clip-path="url(#p66e6b95e55)" style="fill: #e1812c; stroke: #3f3f3f; stroke-width: 0.75; stroke-linejoin: miter"/>
   </g>
   <g id="PolyCollection_6">
    <defs>
     <path id="m4e099464c8" d="M 152.977755 -378.229311 
L 151.107188 -378.229311 
L 151.107188 -379.719483 
L 151.107188 -381.209656 
L 151.107188 -382.699829 
L 151.107188 -384.190001 
L 151.107188 -385.680174 
L 151.107188 -387.170346 
L 151.107188 -388.660519 
L 151.107188 -390.150691 
L 151.107188 -391.640864 
L 151.107188 -393.131036 
L 151.107188 -394.621209 
L 151.107188 -396.111381 
L 151.107188 -397.601554 
L 151.107188 -399.091726 
L 151.107188 -400.581899 
L 151.107188 -402.072071 
L 151.107188 -403.562244 
L 151.107188 -405.052416 
L 151.107188 -406.542589 
L 151.107188 -408.032762 
L 151.107188 -409.522934 
L 151.107188 -411.013107 
L 151.107188 -412.503279 
L 151.107188 -413.993452 
L 151.107188 -415.483624 
L 151.107188 -416.973797 
L 151.107188 -418.463969 
L 151.107188 -419.954142 
L 151.107188 -421.444314 
L 151.107188 -422.934487 
L 151.107188 -424.424659 
L 151.107188 -425.914832 
L 151.107188 -427.405004 
L 151.107188 -428.895177 
L 151.107188 -430.385349 
L 151.107188 -431.875522 
L 151.107188 -433.365695 
L 151.107188 -434.855867 
L 151.107188 -436.34604 
L 151.107188 -437.836212 
L 151.107188 -439.326385 
L 151.107188 -440.816557 
L 151.107188 -442.30673 
L 151.107188 -443.796902 
L 151.107188 -445.287075 
L 151.107188 -446.777247 
L 151.107188 -448.26742 
L 151.107188 -449.757592 
L 151.107188 -451.247765 
L 151.107188 -452.737937 
L 151.107188 -454.22811 
L 151.107188 -455.718282 
L 151.107188 -457.208455 
L 151.107188 -458.698627 
L 151.107188 -460.1888 
L 151.107188 -461.678973 
L 151.107188 -463.169145 
L 151.107188 -464.659318 
L 151.107188 -466.14949 
L 151.107188 -467.639663 
L 151.107188 -469.129835 
L 151.107188 -470.620008 
L 151.107188 -472.11018 
L 151.107188 -473.600353 
L 151.107188 -475.090525 
L 151.107188 -476.580698 
L 151.107188 -478.07087 
L 151.107188 -479.561043 
L 151.107188 -481.051215 
L 151.107188 -482.541388 
L 151.107188 -484.03156 
L 151.107188 -485.521733 
L 151.107188 -487.011906 
L 151.107188 -488.502078 
L 151.107188 -489.992251 
L 151.107188 -491.482423 
L 151.107188 -492.972596 
L 151.107188 -494.462768 
L 151.107188 -495.952941 
L 151.107188 -497.443113 
L 151.107188 -498.933286 
L 151.107188 -500.423458 
L 151.107188 -501.913631 
L 151.107188 -503.403803 
L 151.107188 -504.893976 
L 151.107188 -506.384148 
L 151.107188 -507.874321 
L 151.107188 -509.364493 
L 151.107188 -510.854666 
L 151.107188 -512.344839 
L 151.107188 -513.835011 
L 151.107188 -515.325184 
L 151.107188 -516.815356 
L 151.107188 -518.305529 
L 151.107188 -519.795701 
L 151.107188 -521.285874 
L 151.107188 -522.776046 
L 151.107188 -524.266219 
L 151.107188 -525.756391 
L 152.109168 -525.756391 
L 152.109168 -525.756391 
L 152.397297 -524.266219 
L 152.749026 -522.776046 
L 153.172733 -521.285874 
L 153.676446 -519.795701 
L 154.267444 -518.305529 
L 154.951836 -516.815356 
L 155.734126 -515.325184 
L 156.61681 -513.835011 
L 157.600025 -512.344839 
L 158.68128 -510.854666 
L 159.855299 -509.364493 
L 161.113994 -507.874321 
L 162.446589 -506.384148 
L 163.839895 -504.893976 
L 165.278735 -503.403803 
L 166.746525 -501.913631 
L 168.225969 -500.423458 
L 169.69987 -498.933286 
L 171.152013 -497.443113 
L 172.568081 -495.952941 
L 173.936574 -494.462768 
L 175.249667 -492.972596 
L 176.50396 -491.482423 
L 177.701052 -489.992251 
L 178.847887 -488.502078 
L 179.956808 -487.011906 
L 181.045268 -485.521733 
L 182.135175 -484.03156 
L 183.25186 -482.541388 
L 184.422691 -481.051215 
L 185.675388 -479.561043 
L 187.036146 -478.07087 
L 188.527657 -476.580698 
L 190.167212 -475.090525 
L 191.964998 -473.600353 
L 193.922765 -472.11018 
L 196.032972 -470.620008 
L 198.278506 -469.129835 
L 200.633025 -467.639663 
L 203.061914 -466.14949 
L 205.523786 -464.659318 
L 207.97245 -463.169145 
L 210.359164 -461.678973 
L 212.635045 -460.1888 
L 214.753445 -458.698627 
L 216.672136 -457.208455 
L 218.355172 -455.718282 
L 219.77432 -454.22811 
L 220.91 -452.737937 
L 221.75172 -451.247765 
L 222.298013 -449.757592 
L 222.555938 -448.26742 
L 222.540219 -446.777247 
L 222.272107 -445.287075 
L 221.77805 -443.796902 
L 221.088271 -442.30673 
L 220.235318 -440.816557 
L 219.252641 -439.326385 
L 218.173253 -437.836212 
L 217.028486 -436.34604 
L 215.84687 -434.855867 
L 214.653142 -433.365695 
L 213.467387 -431.875522 
L 212.304344 -430.385349 
L 211.172864 -428.895177 
L 210.075584 -427.405004 
L 209.00882 -425.914832 
L 207.962729 -424.424659 
L 206.921779 -422.934487 
L 205.865535 -421.444314 
L 204.769772 -419.954142 
L 203.607895 -418.463969 
L 202.352604 -416.973797 
L 200.97773 -415.483624 
L 199.460126 -413.993452 
L 197.781474 -412.503279 
L 195.929882 -411.013107 
L 193.901122 -409.522934 
L 191.699403 -408.032762 
L 189.3376 -406.542589 
L 186.836898 -405.052416 
L 184.225878 -403.562244 
L 181.539101 -402.072071 
L 178.815315 -400.581899 
L 176.095413 -399.091726 
L 173.420315 -397.601554 
L 170.828931 -396.111381 
L 168.356355 -394.621209 
L 166.032409 -393.131036 
L 163.880611 -391.640864 
L 161.917609 -390.150691 
L 160.153078 -388.660519 
L 158.590028 -387.170346 
L 157.225456 -385.680174 
L 156.051258 -384.190001 
L 155.055281 -382.699829 
L 154.222449 -381.209656 
L 153.535854 -379.719483 
L 152.977755 -378.229311 
z
" style="stroke: #3f3f3f; stroke-width: 1.5"/>
    </defs>
    <g clip-path="url(#p66e6b95e55)">
     <use xlink:href="#m4e099464c8" x="0" y="864" style="fill: #e1812c; stroke: #3f3f3f; stroke-width: 1.5"/>
    </g>
   </g>
   <g id="PolyCollection_7">
    <defs>
     <path id="m9a414b064e" d="M 329.729062 -355.018972 
L 329.142214 -355.018972 
L 328.97094 -356.283654 
L 328.763717 -357.548336 
L 328.51691 -358.813017 
L 328.227276 -360.077699 
L 327.891973 -361.342381 
L 327.50845 -362.607063 
L 327.074183 -363.871744 
L 326.586276 -365.136426 
L 326.040921 -366.401108 
L 325.432781 -367.665789 
L 324.754376 -368.930471 
L 323.995565 -370.195153 
L 323.143257 -371.459835 
L 322.181448 -372.724516 
L 321.091697 -373.989198 
L 319.854084 -375.25388 
L 318.448634 -376.518561 
L 316.857148 -377.783243 
L 315.065273 -379.047925 
L 313.064617 -380.312607 
L 310.854649 -381.577288 
L 308.444133 -382.84197 
L 305.851866 -384.106652 
L 303.106572 -385.371334 
L 300.245858 -386.636015 
L 297.314306 -387.900697 
L 294.360842 -389.165379 
L 291.43563 -390.43006 
L 288.586825 -391.694742 
L 285.857515 -392.959424 
L 283.283164 -394.224106 
L 280.889827 -395.488787 
L 278.693277 -396.753469 
L 276.699094 -398.018151 
L 274.903657 -399.282833 
L 273.295874 -400.547514 
L 271.859433 -401.812196 
L 270.575316 -403.076878 
L 269.424326 -404.341559 
L 268.389416 -405.606241 
L 267.457623 -406.870923 
L 266.621502 -408.135605 
L 265.879972 -409.400286 
L 265.238554 -410.664968 
L 264.709001 -411.92965 
L 264.308367 -413.194331 
L 264.057571 -414.459013 
L 263.979582 -415.723695 
L 264.09733 -416.988377 
L 264.431532 -418.253058 
L 264.998594 -419.51774 
L 265.808818 -420.782422 
L 266.86505 -422.047104 
L 268.161958 -423.311785 
L 269.685986 -424.576467 
L 271.416015 -425.841149 
L 273.324635 -427.10583 
L 275.379884 -428.370512 
L 277.547244 -429.635194 
L 279.791656 -430.899876 
L 282.079331 -432.164557 
L 284.379181 -433.429239 
L 286.663764 -434.693921 
L 288.909713 -435.958603 
L 291.097712 -437.223284 
L 293.21215 -438.487966 
L 295.240601 -439.752648 
L 297.173313 -441.017329 
L 299.002839 -442.282011 
L 300.723896 -443.546693 
L 302.333475 -444.811375 
L 303.831146 -446.076056 
L 305.219458 -447.340738 
L 306.504299 -448.60542 
L 307.695058 -449.870101 
L 308.804497 -451.134783 
L 309.84824 -452.399465 
L 310.843888 -453.664147 
L 311.809822 -454.928828 
L 312.763793 -456.19351 
L 313.721487 -457.458192 
L 314.695201 -458.722874 
L 315.692817 -459.987555 
L 316.71718 -461.252237 
L 317.765961 -462.516919 
L 318.832004 -463.7816 
L 319.904117 -465.046282 
L 320.968195 -466.310964 
L 322.008539 -467.575646 
L 323.009239 -468.840327 
L 323.955448 -470.105009 
L 324.834457 -471.369691 
L 325.636473 -472.634373 
L 326.355061 -473.899054 
L 326.987259 -475.163736 
L 327.533391 -476.428418 
L 327.996658 -477.693099 
L 328.382562 -478.957781 
L 328.698265 -480.222463 
L 329.729062 -480.222463 
L 329.729062 -480.222463 
L 329.729062 -478.957781 
L 329.729062 -477.693099 
L 329.729062 -476.428418 
L 329.729062 -475.163736 
L 329.729062 -473.899054 
L 329.729062 -472.634373 
L 329.729062 -471.369691 
L 329.729062 -470.105009 
L 329.729062 -468.840327 
L 329.729062 -467.575646 
L 329.729062 -466.310964 
L 329.729062 -465.046282 
L 329.729062 -463.7816 
L 329.729062 -462.516919 
L 329.729062 -461.252237 
L 329.729062 -459.987555 
L 329.729062 -458.722874 
L 329.729062 -457.458192 
L 329.729062 -456.19351 
L 329.729062 -454.928828 
L 329.729062 -453.664147 
L 329.729062 -452.399465 
L 329.729062 -451.134783 
L 329.729062 -449.870101 
L 329.729062 -448.60542 
L 329.729062 -447.340738 
L 329.729062 -446.076056 
L 329.729062 -444.811375 
L 329.729062 -443.546693 
L 329.729062 -442.282011 
L 329.729062 -441.017329 
L 329.729062 -439.752648 
L 329.729062 -438.487966 
L 329.729062 -437.223284 
L 329.729062 -435.958603 
L 329.729062 -434.693921 
L 329.729062 -433.429239 
L 329.729062 -432.164557 
L 329.729062 -430.899876 
L 329.729062 -429.635194 
L 329.729062 -428.370512 
L 329.729062 -427.10583 
L 329.729062 -425.841149 
L 329.729062 -424.576467 
L 329.729062 -423.311785 
L 329.729062 -422.047104 
L 329.729062 -420.782422 
L 329.729062 -419.51774 
L 329.729062 -418.253058 
L 329.729062 -416.988377 
L 329.729062 -415.723695 
L 329.729062 -414.459013 
L 329.729062 -413.194331 
L 329.729062 -411.92965 
L 329.729062 -410.664968 
L 329.729062 -409.400286 
L 329.729062 -408.135605 
L 329.729062 -406.870923 
L 329.729062 -405.606241 
L 329.729062 -404.341559 
L 329.729062 -403.076878 
L 329.729062 -401.812196 
L 329.729062 -400.547514 
L 329.729062 -399.282833 
L 329.729062 -398.018151 
L 329.729062 -396.753469 
L 329.729062 -395.488787 
L 329.729062 -394.224106 
L 329.729062 -392.959424 
L 329.729062 -391.694742 
L 329.729062 -390.43006 
L 329.729062 -389.165379 
L 329.729062 -387.900697 
L 329.729062 -386.636015 
L 329.729062 -385.371334 
L 329.729062 -384.106652 
L 329.729062 -382.84197 
L 329.729062 -381.577288 
L 329.729062 -380.312607 
L 329.729062 -379.047925 
L 329.729062 -377.783243 
L 329.729062 -376.518561 
L 329.729062 -375.25388 
L 329.729062 -373.989198 
L 329.729062 -372.724516 
L 329.729062 -371.459835 
L 329.729062 -370.195153 
L 329.729062 -368.930471 
L 329.729062 -367.665789 
L 329.729062 -366.401108 
L 329.729062 -365.136426 
L 329.729062 -363.871744 
L 329.729062 -362.607063 
L 329.729062 -361.342381 
L 329.729062 -360.077699 
L 329.729062 -358.813017 
L 329.729062 -357.548336 
L 329.729062 -356.283654 
L 329.729062 -355.018972 
z
" style="stroke: #3f3f3f; stroke-width: 1.5"/>
    </defs>
    <g clip-path="url(#p66e6b95e55)">
     <use xlink:href="#m9a414b064e" x="0" y="864" style="fill: #3274a1; stroke: #3f3f3f; stroke-width: 1.5"/>
    </g>
   </g>
   <g id="PolyCollection_8">
    <defs>
     <path id="m340df0166c" d="M 330.44342 -341.097273 
L 329.729062 -341.097273 
L 329.729062 -342.137924 
L 329.729062 -343.178575 
L 329.729062 -344.219226 
L 329.729062 -345.259877 
L 329.729062 -346.300529 
L 329.729062 -347.34118 
L 329.729062 -348.381831 
L 329.729062 -349.422482 
L 329.729062 -350.463133 
L 329.729062 -351.503784 
L 329.729062 -352.544436 
L 329.729062 -353.585087 
L 329.729062 -354.625738 
L 329.729062 -355.666389 
L 329.729062 -356.70704 
L 329.729062 -357.747691 
L 329.729062 -358.788343 
L 329.729062 -359.828994 
L 329.729062 -360.869645 
L 329.729062 -361.910296 
L 329.729062 -362.950947 
L 329.729062 -363.991598 
L 329.729062 -365.03225 
L 329.729062 -366.072901 
L 329.729062 -367.113552 
L 329.729062 -368.154203 
L 329.729062 -369.194854 
L 329.729062 -370.235505 
L 329.729062 -371.276157 
L 329.729062 -372.316808 
L 329.729062 -373.357459 
L 329.729062 -374.39811 
L 329.729062 -375.438761 
L 329.729062 -376.479412 
L 329.729062 -377.520064 
L 329.729062 -378.560715 
L 329.729062 -379.601366 
L 329.729062 -380.642017 
L 329.729062 -381.682668 
L 329.729062 -382.723319 
L 329.729062 -383.763971 
L 329.729062 -384.804622 
L 329.729062 -385.845273 
L 329.729062 -386.885924 
L 329.729062 -387.926575 
L 329.729062 -388.967226 
L 329.729062 -390.007877 
L 329.729062 -391.048529 
L 329.729062 -392.08918 
L 329.729062 -393.129831 
L 329.729062 -394.170482 
L 329.729062 -395.211133 
L 329.729062 -396.251784 
L 329.729062 -397.292436 
L 329.729062 -398.333087 
L 329.729062 -399.373738 
L 329.729062 -400.414389 
L 329.729062 -401.45504 
L 329.729062 -402.495691 
L 329.729062 -403.536343 
L 329.729062 -404.576994 
L 329.729062 -405.617645 
L 329.729062 -406.658296 
L 329.729062 -407.698947 
L 329.729062 -408.739598 
L 329.729062 -409.78025 
L 329.729062 -410.820901 
L 329.729062 -411.861552 
L 329.729062 -412.902203 
L 329.729062 -413.942854 
L 329.729062 -414.983505 
L 329.729062 -416.024157 
L 329.729062 -417.064808 
L 329.729062 -418.105459 
L 329.729062 -419.14611 
L 329.729062 -420.186761 
L 329.729062 -421.227412 
L 329.729062 -422.268064 
L 329.729062 -423.308715 
L 329.729062 -424.349366 
L 329.729062 -425.390017 
L 329.729062 -426.430668 
L 329.729062 -427.471319 
L 329.729062 -428.511971 
L 329.729062 -429.552622 
L 329.729062 -430.593273 
L 329.729062 -431.633924 
L 329.729062 -432.674575 
L 329.729062 -433.715226 
L 329.729062 -434.755878 
L 329.729062 -435.796529 
L 329.729062 -436.83718 
L 329.729062 -437.877831 
L 329.729062 -438.918482 
L 329.729062 -439.959133 
L 329.729062 -440.999785 
L 329.729062 -442.040436 
L 329.729062 -443.081087 
L 329.729062 -444.121738 
L 331.466142 -444.121738 
L 331.466142 -444.121738 
L 331.98118 -443.081087 
L 332.612271 -442.040436 
L 333.374175 -440.999785 
L 334.280359 -439.959133 
L 335.342029 -438.918482 
L 336.5671 -437.877831 
L 337.959196 -436.83718 
L 339.516749 -435.796529 
L 341.232317 -434.755878 
L 343.092196 -433.715226 
L 345.07642 -432.674575 
L 347.159201 -431.633924 
L 349.309831 -430.593273 
L 351.494034 -429.552622 
L 353.675691 -428.511971 
L 355.818832 -427.471319 
L 357.889757 -426.430668 
L 359.85909 -425.390017 
L 361.703618 -424.349366 
L 363.407718 -423.308715 
L 364.964246 -422.268064 
L 366.374803 -421.227412 
L 367.649333 -420.186761 
L 368.805103 -419.14611 
L 369.865146 -418.105459 
L 370.856334 -417.064808 
L 371.807259 -416.024157 
L 372.74612 -414.983505 
L 373.698815 -413.942854 
L 374.6874 -412.902203 
L 375.729019 -411.861552 
L 376.835361 -410.820901 
L 378.012632 -409.78025 
L 379.261959 -408.739598 
L 380.580119 -407.698947 
L 381.960429 -406.658296 
L 383.393664 -405.617645 
L 384.868844 -404.576994 
L 386.373805 -403.536343 
L 387.895496 -402.495691 
L 389.42001 -401.45504 
L 390.932396 -400.414389 
L 392.41636 -399.373738 
L 393.853966 -398.333087 
L 395.225467 -397.292436 
L 396.509373 -396.251784 
L 397.682825 -395.211133 
L 398.7223 -394.170482 
L 399.604602 -393.129831 
L 400.308064 -392.08918 
L 400.813828 -391.048529 
L 401.107039 -390.007877 
L 401.177812 -388.967226 
L 401.021824 -387.926575 
L 400.64043 -386.885924 
L 400.040288 -385.845273 
L 399.232485 -384.804622 
L 398.231295 -383.763971 
L 397.052673 -382.723319 
L 395.712707 -381.682668 
L 394.226191 -380.642017 
L 392.605521 -379.601366 
L 390.860043 -378.560715 
L 388.995934 -377.520064 
L 387.016643 -376.479412 
L 384.923802 -375.438761 
L 382.718497 -374.39811 
L 380.402718 -373.357459 
L 377.980779 -372.316808 
L 375.460527 -371.276157 
L 372.854155 -370.235505 
L 370.178531 -369.194854 
L 367.454983 -368.154203 
L 364.708568 -367.113552 
L 361.966925 -366.072901 
L 359.258841 -365.03225 
L 356.612705 -363.991598 
L 354.055012 -362.950947 
L 351.609079 -361.910296 
L 349.294082 -360.869645 
L 347.124471 -359.828994 
L 345.109795 -358.788343 
L 343.254891 -357.747691 
L 341.560362 -356.70704 
L 340.023269 -355.666389 
L 338.637912 -354.625738 
L 337.396632 -353.585087 
L 336.290539 -352.544436 
L 335.310117 -351.503784 
L 334.445692 -350.463133 
L 333.687745 -349.422482 
L 333.027099 -348.381831 
L 332.455 -347.34118 
L 331.963131 -346.300529 
L 331.543587 -345.259877 
L 331.188842 -344.219226 
L 330.891723 -343.178575 
L 330.645405 -342.137924 
L 330.44342 -341.097273 
z
" style="stroke: #3f3f3f; stroke-width: 1.5"/>
    </defs>
    <g clip-path="url(#p66e6b95e55)">
     <use xlink:href="#m340df0166c" x="0" y="864" style="fill: #e1812c; stroke: #3f3f3f; stroke-width: 1.5"/>
    </g>
   </g>
   <g id="line2d_25">
    <path d="M 104.07482 459.43338 
L 151.107188 459.43338 
" clip-path="url(#p66e6b95e55)" style="fill: none; stroke-dasharray: 3.375,3.375; stroke-dashoffset: 0; stroke: #3f3f3f; stroke-width: 1.5"/>
   </g>
   <g id="line2d_26">
    <path d="M 99.202688 431.021521 
L 151.107188 431.021521 
" clip-path="url(#p66e6b95e55)" style="fill: none; stroke-dasharray: 6.75,6.75; stroke-dashoffset: 0; stroke: #3f3f3f; stroke-width: 1.5"/>
   </g>
   <g id="line2d_27">
    <path d="M 111.58232 408.313973 
L 151.107188 408.313973 
" clip-path="url(#p66e6b95e55)" style="fill: none; stroke-dasharray: 3.375,3.375; stroke-dashoffset: 0; stroke: #3f3f3f; stroke-width: 1.5"/>
   </g>
   <g id="line2d_28">
    <path d="M 151.107188 437.639985 
L 208.429803 437.639985 
" clip-path="url(#p66e6b95e55)" style="fill: none; stroke-dasharray: 3.375,3.375; stroke-dashoffset: 0; stroke: #3f3f3f; stroke-width: 1.5"/>
   </g>
   <g id="line2d_29">
    <path d="M 151.107188 418.077121 
L 221.560458 418.077121 
" clip-path="url(#p66e6b95e55)" style="fill: none; stroke-dasharray: 6.75,6.75; stroke-dashoffset: 0; stroke: #3f3f3f; stroke-width: 1.5"/>
   </g>
   <g id="line2d_30">
    <path d="M 151.107188 401.841773 
L 209.766645 401.841773 
" clip-path="url(#p66e6b95e55)" style="fill: none; stroke-dasharray: 3.375,3.375; stroke-dashoffset: 0; stroke: #3f3f3f; stroke-width: 1.5"/>
   </g>
   <g id="line2d_31">
    <path d="M 271.166853 461.554214 
L 329.729062 461.554214 
" clip-path="url(#p66e6b95e55)" style="fill: none; stroke-dasharray: 3.375,3.375; stroke-dashoffset: 0; stroke: #3f3f3f; stroke-width: 1.5"/>
   </g>
   <g id="line2d_32">
    <path d="M 265.084507 446.159886 
L 329.729062 446.159886 
" clip-path="url(#p66e6b95e55)" style="fill: none; stroke-dasharray: 6.75,6.75; stroke-dashoffset: 0; stroke: #3f3f3f; stroke-width: 1.5"/>
   </g>
   <g id="line2d_33">
    <path d="M 273.888679 436.433303 
L 329.729062 436.433303 
" clip-path="url(#p66e6b95e55)" style="fill: none; stroke-dasharray: 3.375,3.375; stroke-dashoffset: 0; stroke: #3f3f3f; stroke-width: 1.5"/>
   </g>
   <g id="line2d_34">
    <path d="M 329.729062 482.689419 
L 395.05287 482.689419 
" clip-path="url(#p66e6b95e55)" style="fill: none; stroke-dasharray: 3.375,3.375; stroke-dashoffset: 0; stroke: #3f3f3f; stroke-width: 1.5"/>
   </g>
   <g id="line2d_35">
    <path d="M 329.729062 471.463627 
L 399.602274 471.463627 
" clip-path="url(#p66e6b95e55)" style="fill: none; stroke-dasharray: 6.75,6.75; stroke-dashoffset: 0; stroke: #3f3f3f; stroke-width: 1.5"/>
   </g>
   <g id="line2d_36">
    <path d="M 329.729062 458.226699 
L 382.857018 458.226699 
" clip-path="url(#p66e6b95e55)" style="fill: none; stroke-dasharray: 3.375,3.375; stroke-dashoffset: 0; stroke: #3f3f3f; stroke-width: 1.5"/>
   </g>
   <g id="patch_15">
    <path d="M 61.79625 532.98 
L 61.79625 311.28 
" style="fill: none; stroke: #cccccc; stroke-width: 1.25; stroke-linejoin: miter; stroke-linecap: square"/>
   </g>
   <g id="patch_16">
    <path d="M 419.04 532.98 
L 419.04 311.28 
" style="fill: none; stroke: #cccccc; stroke-width: 1.25; stroke-linejoin: miter; stroke-linecap: square"/>
   </g>
   <g id="patch_17">
    <path d="M 61.79625 532.98 
L 419.04 532.98 
" style="fill: none; stroke: #cccccc; stroke-width: 1.25; stroke-linejoin: miter; stroke-linecap: square"/>
   </g>
   <g id="patch_18">
    <path d="M 61.79625 311.28 
L 419.04 311.28 
" style="fill: none; stroke: #cccccc; stroke-width: 1.25; stroke-linejoin: miter; stroke-linecap: square"/>
   </g>
   <g id="text_25">
    <text style="fill: #262626; font: 12px 'sans-serif'; text-anchor: middle" x="240.418125" y="305.28" transform="rotate(-0, 240.418125, 305.28)">Training epoch 2000</text>
   </g>
   <g id="legend_2">
    <g id="patch_19">
     <path d="M 340.063438 367.802969 
L 411.34 367.802969 
Q 413.54 367.802969 413.54 365.602969 
L 413.54 318.98 
Q 413.54 316.78 411.34 316.78 
L 340.063438 316.78 
Q 337.863438 316.78 337.863438 318.98 
L 337.863438 365.602969 
Q 337.863438 367.802969 340.063438 367.802969 
z
" style="fill: #ffffff; opacity: 0.8; stroke: #cccccc; stroke-linejoin: miter"/>
    </g>
    <g id="text_26">
     <text style="fill: #262626; font: 12px 'sans-serif'; text-anchor: start" x="347.244844" y="329.769375" transform="rotate(-0, 347.244844, 329.769375)">Trained on</text>
    </g>
    <g id="patch_20">
     <path d="M 342.263438 345.527969 
L 364.263438 345.527969 
L 364.263438 337.827969 
L 342.263438 337.827969 
z
" style="fill: #3274a1; stroke: #3f3f3f; stroke-width: 0.75; stroke-linejoin: miter"/>
    </g>
    <g id="text_27">
     <text style="fill: #262626; font: 11px 'sans-serif'; text-anchor: start" x="373.063438" y="345.527969" transform="rotate(-0, 373.063438, 345.527969)">English</text>
    </g>
    <g id="patch_21">
     <path d="M 342.263438 361.216719 
L 364.263438 361.216719 
L 364.263438 353.516719 
L 342.263438 353.516719 
z
" style="fill: #e1812c; stroke: #3f3f3f; stroke-width: 0.75; stroke-linejoin: miter"/>
    </g>
    <g id="text_28">
     <text style="fill: #262626; font: 11px 'sans-serif'; text-anchor: start" x="373.063438" y="361.216719" transform="rotate(-0, 373.063438, 361.216719)">French</text>
    </g>
   </g>
  </g>
  <g id="axes_3">
   <g id="patch_22">
    <path d="M 61.79625 816.66 
L 419.04 816.66 
L 419.04 594.96 
L 61.79625 594.96 
z
" style="fill: #ffffff"/>
   </g>
   <g id="matplotlib.axis_5">
    <g id="xtick_5">
     <g id="text_29">
      <text style="fill: #262626; font: 11px 'sans-serif'; text-anchor: middle" x="151.107188" y="834.033594" transform="rotate(-0, 151.107188, 834.033594)">English</text>
     </g>
    </g>
    <g id="xtick_6">
     <g id="text_30">
      <text style="fill: #262626; font: 11px 'sans-serif'; text-anchor: middle" x="329.729062" y="834.033594" transform="rotate(-0, 329.729062, 834.033594)">French</text>
     </g>
    </g>
    <g id="text_31">
     <text style="fill: #262626; font: 12px 'sans-serif'; text-anchor: middle" x="240.418125" y="848.938125" transform="rotate(-0, 240.418125, 848.938125)">Tested on</text>
    </g>
   </g>
   <g id="matplotlib.axis_6">
    <g id="ytick_13">
     <g id="line2d_37">
      <path d="M 61.79625 814.999204 
L 419.04 814.999204 
" clip-path="url(#paf4874973f)" style="fill: none; stroke: #cccccc; stroke-linecap: round"/>
     </g>
     <g id="text_32">
      <text style="fill: #262626; font: 11px 'sans-serif'; text-anchor: end" x="52.29625" y="818.936001" transform="rotate(-0, 52.29625, 818.936001)">200</text>
     </g>
    </g>
    <g id="ytick_14">
     <g id="line2d_38">
      <path d="M 61.79625 782.036426 
L 419.04 782.036426 
" clip-path="url(#paf4874973f)" style="fill: none; stroke: #cccccc; stroke-linecap: round"/>
     </g>
     <g id="text_33">
      <text style="fill: #262626; font: 11px 'sans-serif'; text-anchor: end" x="52.29625" y="785.973223" transform="rotate(-0, 52.29625, 785.973223)">400</text>
     </g>
    </g>
    <g id="ytick_15">
     <g id="line2d_39">
      <path d="M 61.79625 749.073647 
L 419.04 749.073647 
" clip-path="url(#paf4874973f)" style="fill: none; stroke: #cccccc; stroke-linecap: round"/>
     </g>
     <g id="text_34">
      <text style="fill: #262626; font: 11px 'sans-serif'; text-anchor: end" x="52.29625" y="753.010444" transform="rotate(-0, 52.29625, 753.010444)">600</text>
     </g>
    </g>
    <g id="ytick_16">
     <g id="line2d_40">
      <path d="M 61.79625 716.110868 
L 419.04 716.110868 
" clip-path="url(#paf4874973f)" style="fill: none; stroke: #cccccc; stroke-linecap: round"/>
     </g>
     <g id="text_35">
      <text style="fill: #262626; font: 11px 'sans-serif'; text-anchor: end" x="52.29625" y="720.047665" transform="rotate(-0, 52.29625, 720.047665)">800</text>
     </g>
    </g>
    <g id="ytick_17">
     <g id="line2d_41">
      <path d="M 61.79625 683.14809 
L 419.04 683.14809 
" clip-path="url(#paf4874973f)" style="fill: none; stroke: #cccccc; stroke-linecap: round"/>
     </g>
     <g id="text_36">
      <text style="fill: #262626; font: 11px 'sans-serif'; text-anchor: end" x="52.29625" y="687.084887" transform="rotate(-0, 52.29625, 687.084887)">1000</text>
     </g>
    </g>
    <g id="ytick_18">
     <g id="line2d_42">
      <path d="M 61.79625 650.185311 
L 419.04 650.185311 
" clip-path="url(#paf4874973f)" style="fill: none; stroke: #cccccc; stroke-linecap: round"/>
     </g>
     <g id="text_37">
      <text style="fill: #262626; font: 11px 'sans-serif'; text-anchor: end" x="52.29625" y="654.122108" transform="rotate(-0, 52.29625, 654.122108)">1200</text>
     </g>
    </g>
    <g id="ytick_19">
     <g id="line2d_43">
      <path d="M 61.79625 617.222532 
L 419.04 617.222532 
" clip-path="url(#paf4874973f)" style="fill: none; stroke: #cccccc; stroke-linecap: round"/>
     </g>
     <g id="text_38">
      <text style="fill: #262626; font: 11px 'sans-serif'; text-anchor: end" x="52.29625" y="621.159329" transform="rotate(-0, 52.29625, 621.159329)">1400</text>
     </g>
    </g>
    <g id="text_39">
     <text style="fill: #262626; font: 12px 'sans-serif'; text-anchor: middle" x="21.443125" y="705.81" transform="rotate(-90, 21.443125, 705.81)">Epochs to 85% on held-out tree</text>
    </g>
   </g>
   <g id="patch_23">
    <path d="M 151.107188 847.961983 
L 151.107188 847.961983 
L 151.107188 847.961983 
L 151.107188 847.961983 
z
" clip-path="url(#paf4874973f)" style="fill: #3274a1; stroke: #3f3f3f; stroke-width: 0.75; stroke-linejoin: miter"/>
   </g>
   <g id="PolyCollection_9">
    <defs>
     <path id="m3837eeaeed" d="M 151.107188 -77.018769 
L 149.50746 -77.018769 
L 149.003702 -78.758479 
L 148.376944 -80.498189 
L 147.608832 -82.237899 
L 146.68167 -83.977609 
L 145.57951 -85.71732 
L 144.289366 -87.45703 
L 142.802485 -89.19674 
L 141.115575 -90.93645 
L 139.231892 -92.67616 
L 137.162059 -94.41587 
L 134.924511 -96.15558 
L 132.545486 -97.89529 
L 130.058504 -99.635 
L 127.503317 -101.37471 
L 124.924385 -103.11442 
L 122.368947 -104.85413 
L 119.884843 -106.59384 
L 117.518232 -108.33355 
L 115.311396 -110.07326 
L 113.300816 -111.81297 
L 111.515649 -113.55268 
L 109.976745 -115.29239 
L 108.696249 -117.0321 
L 107.677796 -118.77181 
L 106.91725 -120.511521 
L 106.40388 -122.251231 
L 106.121845 -123.990941 
L 106.051836 -125.730651 
L 106.172714 -127.470361 
L 106.463022 -129.210071 
L 106.902244 -130.949781 
L 107.471742 -132.689491 
L 108.155332 -134.429201 
L 108.939496 -136.168911 
L 109.813249 -137.908621 
L 110.767735 -139.648331 
L 111.795606 -141.388041 
L 112.890283 -143.127751 
L 114.045184 -144.867461 
L 115.253011 -146.607171 
L 116.505173 -148.346881 
L 117.791416 -150.086591 
L 119.099715 -151.826301 
L 120.416434 -153.566012 
L 121.726779 -155.305722 
L 123.015483 -157.045432 
L 124.267685 -158.785142 
L 125.469909 -160.524852 
L 126.61104 -162.264562 
L 127.683199 -164.004272 
L 128.682398 -165.743982 
L 129.60891 -167.483692 
L 130.46727 -169.223402 
L 131.265912 -170.963112 
L 132.016432 -172.702822 
L 132.732558 -174.442532 
L 133.428897 -176.182242 
L 134.119596 -177.921952 
L 134.817023 -179.661662 
L 135.530609 -181.401372 
L 136.265966 -183.141082 
L 137.024348 -184.880792 
L 137.802524 -186.620502 
L 138.593061 -188.360213 
L 139.384991 -190.099923 
L 140.164799 -191.839633 
L 140.917628 -193.579343 
L 141.628599 -195.319053 
L 142.284115 -197.058763 
L 142.873046 -198.798473 
L 143.387682 -200.538183 
L 143.82438 -202.277893 
L 144.183864 -204.017603 
L 144.471151 -205.757313 
L 144.695134 -207.497023 
L 144.867852 -209.236733 
L 145.003545 -210.976443 
L 145.117557 -212.716153 
L 145.225202 -214.455863 
L 145.340682 -216.195573 
L 145.476159 -217.935283 
L 145.641026 -219.674993 
L 145.841447 -221.414704 
L 146.080179 -223.154414 
L 146.356663 -224.894124 
L 146.667368 -226.633834 
L 147.006322 -228.373544 
L 147.365776 -230.113254 
L 147.736932 -231.852964 
L 148.110664 -233.592674 
L 148.47817 -235.332384 
L 148.831519 -237.072094 
L 149.164056 -238.811804 
L 149.470648 -240.551514 
L 149.747791 -242.291224 
L 149.993576 -244.030934 
L 150.207547 -245.770644 
L 150.390489 -247.510354 
L 150.544168 -249.250064 
L 151.107188 -249.250064 
L 151.107188 -249.250064 
L 151.107188 -247.510354 
L 151.107188 -245.770644 
L 151.107188 -244.030934 
L 151.107188 -242.291224 
L 151.107188 -240.551514 
L 151.107188 -238.811804 
L 151.107188 -237.072094 
L 151.107188 -235.332384 
L 151.107188 -233.592674 
L 151.107188 -231.852964 
L 151.107188 -230.113254 
L 151.107188 -228.373544 
L 151.107188 -226.633834 
L 151.107188 -224.894124 
L 151.107188 -223.154414 
L 151.107188 -221.414704 
L 151.107188 -219.674993 
L 151.107188 -217.935283 
L 151.107188 -216.195573 
L 151.107188 -214.455863 
L 151.107188 -212.716153 
L 151.107188 -210.976443 
L 151.107188 -209.236733 
L 151.107188 -207.497023 
L 151.107188 -205.757313 
L 151.107188 -204.017603 
L 151.107188 -202.277893 
L 151.107188 -200.538183 
L 151.107188 -198.798473 
L 151.107188 -197.058763 
L 151.107188 -195.319053 
L 151.107188 -193.579343 
L 151.107188 -191.839633 
L 151.107188 -190.099923 
L 151.107188 -188.360213 
L 151.107188 -186.620502 
L 151.107188 -184.880792 
L 151.107188 -183.141082 
L 151.107188 -181.401372 
L 151.107188 -179.661662 
L 151.107188 -177.921952 
L 151.107188 -176.182242 
L 151.107188 -174.442532 
L 151.107188 -172.702822 
L 151.107188 -170.963112 
L 151.107188 -169.223402 
L 151.107188 -167.483692 
L 151.107188 -165.743982 
L 151.107188 -164.004272 
L 151.107188 -162.264562 
L 151.107188 -160.524852 
L 151.107188 -158.785142 
L 151.107188 -157.045432 
L 151.107188 -155.305722 
L 151.107188 -153.566012 
L 151.107188 -151.826301 
L 151.107188 -150.086591 
L 151.107188 -148.346881 
L 151.107188 -146.607171 
L 151.107188 -144.867461 
L 151.107188 -143.127751 
L 151.107188 -141.388041 
L 151.107188 -139.648331 
L 151.107188 -137.908621 
L 151.107188 -136.168911 
L 151.107188 -134.429201 
L 151.107188 -132.689491 
L 151.107188 -130.949781 
L 151.107188 -129.210071 
L 151.107188 -127.470361 
L 151.107188 -125.730651 
L 151.107188 -123.990941 
L 151.107188 -122.251231 
L 151.107188 -120.511521 
L 151.107188 -118.77181 
L 151.107188 -117.0321 
L 151.107188 -115.29239 
L 151.107188 -113.55268 
L 151.107188 -111.81297 
L 151.107188 -110.07326 
L 151.107188 -108.33355 
L 151.107188 -106.59384 
L 151.107188 -104.85413 
L 151.107188 -103.11442 
L 151.107188 -101.37471 
L 151.107188 -99.635 
L 151.107188 -97.89529 
L 151.107188 -96.15558 
L 151.107188 -94.41587 
L 151.107188 -92.67616 
L 151.107188 -90.93645 
L 151.107188 -89.19674 
L 151.107188 -87.45703 
L 151.107188 -85.71732 
L 151.107188 -83.977609 
L 151.107188 -82.237899 
L 151.107188 -80.498189 
L 151.107188 -78.758479 
L 151.107188 -77.018769 
z
" style="stroke: #3f3f3f; stroke-width: 1.5"/>
    </defs>
    <g clip-path="url(#paf4874973f)">
     <use xlink:href="#m3837eeaeed" x="0" y="864" style="fill: #3274a1; stroke: #3f3f3f; stroke-width: 1.5"/>
    </g>
   </g>
   <g id="patch_24">
    <path d="M 151.107188 847.961983 
L 151.107188 847.961983 
L 151.107188 847.961983 
L 151.107188 847.961983 
z
" clip-path="url(#paf4874973f)" style="fill: #e1812c; stroke: #3f3f3f; stroke-width: 0.75; stroke-linejoin: miter"/>
   </g>
   <g id="PolyCollection_10">
    <defs>
     <path id="m160baf06cc" d="M 151.7483 -92.204515 
L 151.107188 -92.204515 
L 151.107188 -93.304485 
L 151.107188 -94.404455 
L 151.107188 -95.504425 
L 151.107188 -96.604395 
L 151.107188 -97.704365 
L 151.107188 -98.804335 
L 151.107188 -99.904304 
L 151.107188 -101.004274 
L 151.107188 -102.104244 
L 151.107188 -103.204214 
L 151.107188 -104.304184 
L 151.107188 -105.404154 
L 151.107188 -106.504124 
L 151.107188 -107.604094 
L 151.107188 -108.704064 
L 151.107188 -109.804034 
L 151.107188 -110.904004 
L 151.107188 -112.003974 
L 151.107188 -113.103944 
L 151.107188 -114.203914 
L 151.107188 -115.303884 
L 151.107188 -116.403854 
L 151.107188 -117.503824 
L 151.107188 -118.603794 
L 151.107188 -119.703764 
L 151.107188 -120.803734 
L 151.107188 -121.903704 
L 151.107188 -123.003673 
L 151.107188 -124.103643 
L 151.107188 -125.203613 
L 151.107188 -126.303583 
L 151.107188 -127.403553 
L 151.107188 -128.503523 
L 151.107188 -129.603493 
L 151.107188 -130.703463 
L 151.107188 -131.803433 
L 151.107188 -132.903403 
L 151.107188 -134.003373 
L 151.107188 -135.103343 
L 151.107188 -136.203313 
L 151.107188 -137.303283 
L 151.107188 -138.403253 
L 151.107188 -139.503223 
L 151.107188 -140.603193 
L 151.107188 -141.703163 
L 151.107188 -142.803133 
L 151.107188 -143.903103 
L 151.107188 -145.003073 
L 151.107188 -146.103042 
L 151.107188 -147.203012 
L 151.107188 -148.302982 
L 151.107188 -149.402952 
L 151.107188 -150.502922 
L 151.107188 -151.602892 
L 151.107188 -152.702862 
L 151.107188 -153.802832 
L 151.107188 -154.902802 
L 151.107188 -156.002772 
L 151.107188 -157.102742 
L 151.107188 -158.202712 
L 151.107188 -159.302682 
L 151.107188 -160.402652 
L 151.107188 -161.502622 
L 151.107188 -162.602592 
L 151.107188 -163.702562 
L 151.107188 -164.802532 
L 151.107188 -165.902502 
L 151.107188 -167.002472 
L 151.107188 -168.102442 
L 151.107188 -169.202412 
L 151.107188 -170.302381 
L 151.107188 -171.402351 
L 151.107188 -172.502321 
L 151.107188 -173.602291 
L 151.107188 -174.702261 
L 151.107188 -175.802231 
L 151.107188 -176.902201 
L 151.107188 -178.002171 
L 151.107188 -179.102141 
L 151.107188 -180.202111 
L 151.107188 -181.302081 
L 151.107188 -182.402051 
L 151.107188 -183.502021 
L 151.107188 -184.601991 
L 151.107188 -185.701961 
L 151.107188 -186.801931 
L 151.107188 -187.901901 
L 151.107188 -189.001871 
L 151.107188 -190.101841 
L 151.107188 -191.201811 
L 151.107188 -192.301781 
L 151.107188 -193.40175 
L 151.107188 -194.50172 
L 151.107188 -195.60169 
L 151.107188 -196.70166 
L 151.107188 -197.80163 
L 151.107188 -198.9016 
L 151.107188 -200.00157 
L 151.107188 -201.10154 
L 152.551681 -201.10154 
L 152.551681 -201.10154 
L 152.989791 -200.00157 
L 153.52463 -198.9016 
L 154.166034 -197.80163 
L 154.92154 -196.70166 
L 155.795433 -195.60169 
L 156.787854 -194.50172 
L 157.894073 -193.40175 
L 159.104013 -192.301781 
L 160.402136 -191.201811 
L 161.767727 -190.101841 
L 163.175638 -189.001871 
L 164.597453 -187.901901 
L 166.003037 -186.801931 
L 167.362351 -185.701961 
L 168.647423 -184.601991 
L 169.834313 -183.502021 
L 170.904917 -182.402051 
L 171.848486 -181.302081 
L 172.662732 -180.202111 
L 173.354444 -179.102141 
L 173.93957 -178.002171 
L 174.442756 -176.902201 
L 174.896361 -175.802231 
L 175.33899 -174.702261 
L 175.813631 -173.602291 
L 176.36545 -172.502321 
L 177.039379 -171.402351 
L 177.8776 -170.302381 
L 178.91706 -169.202412 
L 180.187183 -168.102442 
L 181.707907 -167.002472 
L 183.488221 -165.902502 
L 185.525298 -164.802532 
L 187.804322 -163.702562 
L 190.299027 -162.602592 
L 192.972918 -161.502622 
L 195.781067 -160.402652 
L 198.672337 -159.302682 
L 201.591852 -158.202712 
L 204.483511 -157.102742 
L 207.292364 -156.002772 
L 209.966713 -154.902802 
L 212.459821 -153.802832 
L 214.731201 -152.702862 
L 216.747468 -151.602892 
L 218.482791 -150.502922 
L 219.918981 -149.402952 
L 221.045268 -148.302982 
L 221.857797 -147.203012 
L 222.358868 -146.103042 
L 222.555938 -145.003073 
L 222.460423 -143.903103 
L 222.086356 -142.803133 
L 221.448968 -141.703163 
L 220.563339 -140.603193 
L 219.443242 -139.503223 
L 218.100339 -138.403253 
L 216.543862 -137.303283 
L 214.780854 -136.203313 
L 212.816978 -135.103343 
L 210.657821 -134.003373 
L 208.310529 -132.903403 
L 205.785536 -131.803433 
L 203.098143 -130.703463 
L 200.269657 -129.603493 
L 197.327908 -128.503523 
L 194.306983 -127.403553 
L 191.246163 -126.303583 
L 188.188152 -125.203613 
L 185.17676 -124.103643 
L 182.254322 -123.003673 
L 179.459133 -121.903704 
L 176.823189 -120.803734 
L 174.370474 -119.703764 
L 172.115967 -118.603794 
L 170.065437 -117.503824 
L 168.216 -116.403854 
L 166.557335 -115.303884 
L 165.073387 -114.203914 
L 163.744329 -113.103944 
L 162.548592 -112.003974 
L 161.464738 -110.904004 
L 160.473028 -109.804034 
L 159.556581 -108.704064 
L 158.702066 -107.604094 
L 157.899946 -106.504124 
L 157.144307 -105.404154 
L 156.432385 -104.304184 
L 155.763867 -103.204214 
L 155.140096 -102.104244 
L 154.563262 -101.004274 
L 154.03568 -99.904304 
L 153.559199 -98.804335 
L 153.134783 -97.704365 
L 152.76227 -96.604395 
L 152.440303 -95.504425 
L 152.166396 -94.404455 
L 151.937112 -93.304485 
L 151.7483 -92.204515 
z
" style="stroke: #3f3f3f; stroke-width: 1.5"/>
    </defs>
    <g clip-path="url(#paf4874973f)">
     <use xlink:href="#m160baf06cc" x="0" y="864" style="fill: #e1812c; stroke: #3f3f3f; stroke-width: 1.5"/>
    </g>
   </g>
   <g id="PolyCollection_11">
    <defs>
     <path id="ma9e24d4eb1" d="M 329.729062 -57.417273 
L 328.623636 -57.417273 
L 328.243912 -59.453085 
L 327.763681 -61.488898 
L 327.16618 -63.524711 
L 326.434485 -65.560523 
L 325.552119 -67.596336 
L 324.503694 -69.632149 
L 323.275527 -71.667961 
L 321.856218 -73.703774 
L 320.237154 -75.739587 
L 318.412968 -77.775399 
L 316.381974 -79.811212 
L 314.146629 -81.847025 
L 311.714081 -83.882837 
L 309.096845 -85.91865 
L 306.313589 -87.954463 
L 303.39001 -89.990275 
L 300.359664 -92.026088 
L 297.264583 -94.061901 
L 294.155478 -96.097713 
L 291.091282 -98.133526 
L 288.137869 -100.169339 
L 285.365825 -102.205152 
L 282.847291 -104.240964 
L 280.652025 -106.276777 
L 278.843006 -108.31259 
L 277.471985 -110.348402 
L 276.575499 -112.384215 
L 276.17184 -114.420028 
L 276.259405 -116.45584 
L 276.816711 -118.491653 
L 277.804139 -120.527466 
L 279.167279 -122.563278 
L 280.841512 -124.599091 
L 282.757307 -126.634904 
L 284.845633 -128.670716 
L 287.042868 -130.706529 
L 289.294678 -132.742342 
L 291.558496 -134.778154 
L 293.804418 -136.813967 
L 296.014565 -138.84978 
L 298.181148 -140.885592 
L 300.303604 -142.921405 
L 302.385301 -144.957218 
L 304.430273 -146.99303 
L 306.440435 -149.028843 
L 308.413591 -151.064656 
L 310.342441 -153.100468 
L 312.214604 -155.136281 
L 314.013558 -157.172094 
L 315.720281 -159.207906 
L 317.315286 -161.243719 
L 318.780747 -163.279532 
L 320.102397 -165.315344 
L 321.27097 -167.351157 
L 322.283014 -169.38697 
L 323.141034 -171.422782 
L 323.852976 -173.458595 
L 324.431186 -175.494408 
L 324.891026 -177.53022 
L 325.24933 -179.566033 
L 325.522928 -181.601846 
L 325.727404 -183.637658 
L 325.876203 -185.673471 
L 325.980174 -187.709284 
L 326.047511 -189.745096 
L 326.084064 -191.780909 
L 326.093899 -193.816722 
L 326.079985 -195.852534 
L 326.044889 -197.888347 
L 325.991374 -199.92416 
L 325.922817 -201.959972 
L 325.843427 -203.995785 
L 325.758264 -206.031598 
L 325.673082 -208.06741 
L 325.594064 -210.103223 
L 325.527499 -212.139036 
L 325.479446 -214.174848 
L 325.455426 -216.210661 
L 325.460162 -218.246474 
L 325.49737 -220.282287 
L 325.569589 -222.318099 
L 325.678063 -224.353912 
L 325.822655 -226.389725 
L 326.001807 -228.425537 
L 326.212558 -230.46135 
L 326.450632 -232.497163 
L 326.710606 -234.532975 
L 326.986162 -236.568788 
L 327.270418 -238.604601 
L 327.556306 -240.640413 
L 327.836974 -242.676226 
L 328.106173 -244.712039 
L 328.358578 -246.747851 
L 328.590034 -248.783664 
L 328.797686 -250.819477 
L 328.979999 -252.855289 
L 329.136682 -254.891102 
L 329.268516 -256.926915 
L 329.377138 -258.962727 
L 329.729062 -258.962727 
L 329.729062 -258.962727 
L 329.729062 -256.926915 
L 329.729062 -254.891102 
L 329.729062 -252.855289 
L 329.729062 -250.819477 
L 329.729062 -248.783664 
L 329.729062 -246.747851 
L 329.729062 -244.712039 
L 329.729062 -242.676226 
L 329.729062 -240.640413 
L 329.729062 -238.604601 
L 329.729062 -236.568788 
L 329.729062 -234.532975 
L 329.729062 -232.497163 
L 329.729062 -230.46135 
L 329.729062 -228.425537 
L 329.729062 -226.389725 
L 329.729062 -224.353912 
L 329.729062 -222.318099 
L 329.729062 -220.282287 
L 329.729062 -218.246474 
L 329.729062 -216.210661 
L 329.729062 -214.174848 
L 329.729062 -212.139036 
L 329.729062 -210.103223 
L 329.729062 -208.06741 
L 329.729062 -206.031598 
L 329.729062 -203.995785 
L 329.729062 -201.959972 
L 329.729062 -199.92416 
L 329.729062 -197.888347 
L 329.729062 -195.852534 
L 329.729062 -193.816722 
L 329.729062 -191.780909 
L 329.729062 -189.745096 
L 329.729062 -187.709284 
L 329.729062 -185.673471 
L 329.729062 -183.637658 
L 329.729062 -181.601846 
L 329.729062 -179.566033 
L 329.729062 -177.53022 
L 329.729062 -175.494408 
L 329.729062 -173.458595 
L 329.729062 -171.422782 
L 329.729062 -169.38697 
L 329.729062 -167.351157 
L 329.729062 -165.315344 
L 329.729062 -163.279532 
L 329.729062 -161.243719 
L 329.729062 -159.207906 
L 329.729062 -157.172094 
L 329.729062 -155.136281 
L 329.729062 -153.100468 
L 329.729062 -151.064656 
L 329.729062 -149.028843 
L 329.729062 -146.99303 
L 329.729062 -144.957218 
L 329.729062 -142.921405 
L 329.729062 -140.885592 
L 329.729062 -138.84978 
L 329.729062 -136.813967 
L 329.729062 -134.778154 
L 329.729062 -132.742342 
L 329.729062 -130.706529 
L 329.729062 -128.670716 
L 329.729062 -126.634904 
L 329.729062 -124.599091 
L 329.729062 -122.563278 
L 329.729062 -120.527466 
L 329.729062 -118.491653 
L 329.729062 -116.45584 
L 329.729062 -114.420028 
L 329.729062 -112.384215 
L 329.729062 -110.348402 
L 329.729062 -108.31259 
L 329.729062 -106.276777 
L 329.729062 -104.240964 
L 329.729062 -102.205152 
L 329.729062 -100.169339 
L 329.729062 -98.133526 
L 329.729062 -96.097713 
L 329.729062 -94.061901 
L 329.729062 -92.026088 
L 329.729062 -89.990275 
L 329.729062 -87.954463 
L 329.729062 -85.91865 
L 329.729062 -83.882837 
L 329.729062 -81.847025 
L 329.729062 -79.811212 
L 329.729062 -77.775399 
L 329.729062 -75.739587 
L 329.729062 -73.703774 
L 329.729062 -71.667961 
L 329.729062 -69.632149 
L 329.729062 -67.596336 
L 329.729062 -65.560523 
L 329.729062 -63.524711 
L 329.729062 -61.488898 
L 329.729062 -59.453085 
L 329.729062 -57.417273 
z
" style="stroke: #3f3f3f; stroke-width: 1.5"/>
    </defs>
    <g clip-path="url(#paf4874973f)">
     <use xlink:href="#ma9e24d4eb1" x="0" y="864" style="fill: #3274a1; stroke: #3f3f3f; stroke-width: 1.5"/>
    </g>
   </g>
   <g id="PolyCollection_12">
    <defs>
     <path id="m320c76c6a8" d="M 330.561883 -63.444828 
L 329.729062 -63.444828 
L 329.729062 -64.588076 
L 329.729062 -65.731323 
L 329.729062 -66.874571 
L 329.729062 -68.017818 
L 329.729062 -69.161066 
L 329.729062 -70.304314 
L 329.729062 -71.447561 
L 329.729062 -72.590809 
L 329.729062 -73.734056 
L 329.729062 -74.877304 
L 329.729062 -76.020552 
L 329.729062 -77.163799 
L 329.729062 -78.307047 
L 329.729062 -79.450294 
L 329.729062 -80.593542 
L 329.729062 -81.73679 
L 329.729062 -82.880037 
L 329.729062 -84.023285 
L 329.729062 -85.166532 
L 329.729062 -86.30978 
L 329.729062 -87.453027 
L 329.729062 -88.596275 
L 329.729062 -89.739523 
L 329.729062 -90.88277 
L 329.729062 -92.026018 
L 329.729062 -93.169265 
L 329.729062 -94.312513 
L 329.729062 -95.455761 
L 329.729062 -96.599008 
L 329.729062 -97.742256 
L 329.729062 -98.885503 
L 329.729062 -100.028751 
L 329.729062 -101.171998 
L 329.729062 -102.315246 
L 329.729062 -103.458494 
L 329.729062 -104.601741 
L 329.729062 -105.744989 
L 329.729062 -106.888236 
L 329.729062 -108.031484 
L 329.729062 -109.174732 
L 329.729062 -110.317979 
L 329.729062 -111.461227 
L 329.729062 -112.604474 
L 329.729062 -113.747722 
L 329.729062 -114.89097 
L 329.729062 -116.034217 
L 329.729062 -117.177465 
L 329.729062 -118.320712 
L 329.729062 -119.46396 
L 329.729062 -120.607207 
L 329.729062 -121.750455 
L 329.729062 -122.893703 
L 329.729062 -124.03695 
L 329.729062 -125.180198 
L 329.729062 -126.323445 
L 329.729062 -127.466693 
L 329.729062 -128.609941 
L 329.729062 -129.753188 
L 329.729062 -130.896436 
L 329.729062 -132.039683 
L 329.729062 -133.182931 
L 329.729062 -134.326179 
L 329.729062 -135.469426 
L 329.729062 -136.612674 
L 329.729062 -137.755921 
L 329.729062 -138.899169 
L 329.729062 -140.042416 
L 329.729062 -141.185664 
L 329.729062 -142.328912 
L 329.729062 -143.472159 
L 329.729062 -144.615407 
L 329.729062 -145.758654 
L 329.729062 -146.901902 
L 329.729062 -148.04515 
L 329.729062 -149.188397 
L 329.729062 -150.331645 
L 329.729062 -151.474892 
L 329.729062 -152.61814 
L 329.729062 -153.761388 
L 329.729062 -154.904635 
L 329.729062 -156.047883 
L 329.729062 -157.19113 
L 329.729062 -158.334378 
L 329.729062 -159.477625 
L 329.729062 -160.620873 
L 329.729062 -161.764121 
L 329.729062 -162.907368 
L 329.729062 -164.050616 
L 329.729062 -165.193863 
L 329.729062 -166.337111 
L 329.729062 -167.480359 
L 329.729062 -168.623606 
L 329.729062 -169.766854 
L 329.729062 -170.910101 
L 329.729062 -172.053349 
L 329.729062 -173.196596 
L 329.729062 -174.339844 
L 329.729062 -175.483092 
L 329.729062 -176.626339 
L 330.333904 -176.626339 
L 330.333904 -176.626339 
L 330.51537 -175.483092 
L 330.733715 -174.339844 
L 330.990828 -173.196596 
L 331.287046 -172.053349 
L 331.620832 -170.910101 
L 331.988581 -169.766854 
L 332.384596 -168.623606 
L 332.801278 -167.480359 
L 333.229528 -166.337111 
L 333.659346 -165.193863 
L 334.080582 -164.050616 
L 334.483748 -162.907368 
L 334.860821 -161.764121 
L 335.205932 -160.620873 
L 335.515876 -159.477625 
L 335.790389 -158.334378 
L 336.032206 -157.19113 
L 336.246912 -156.047883 
L 336.442668 -154.904635 
L 336.629889 -153.761388 
L 336.820951 -152.61814 
L 337.029977 -151.474892 
L 337.272725 -150.331645 
L 337.566538 -149.188397 
L 337.930289 -148.04515 
L 338.384235 -146.901902 
L 338.949665 -145.758654 
L 339.648307 -144.615407 
L 340.501437 -143.472159 
L 341.528762 -142.328912 
L 342.747153 -141.185664 
L 344.16938 -140.042416 
L 345.802992 -138.899169 
L 347.649492 -137.755921 
L 349.70389 -136.612674 
L 351.954658 -135.469426 
L 354.384048 -134.326179 
L 356.968661 -133.182931 
L 359.680143 -132.039683 
L 362.485886 -130.896436 
L 365.349654 -129.753188 
L 368.232141 -128.609941 
L 371.091528 -127.466693 
L 373.884202 -126.323445 
L 376.565782 -125.180198 
L 379.092641 -124.03695 
L 381.423965 -122.893703 
L 383.524347 -121.750455 
L 385.366693 -120.607207 
L 386.935169 -119.46396 
L 388.227734 -118.320712 
L 389.257835 -117.177465 
L 390.054842 -116.034217 
L 390.662926 -114.89097 
L 391.138266 -113.747722 
L 391.544678 -112.604474 
L 391.947981 -111.461227 
L 392.409619 -110.317979 
L 392.980146 -109.174732 
L 393.693309 -108.031484 
L 394.561356 -106.888236 
L 395.572146 -105.744989 
L 396.688423 -104.601741 
L 397.849423 -103.458494 
L 398.974709 -102.315246 
L 399.969931 -101.171998 
L 400.733985 -100.028751 
L 401.166913 -98.885503 
L 401.177812 -97.742256 
L 400.692034 -96.599008 
L 399.657016 -95.455761 
L 398.046273 -94.312513 
L 395.861227 -93.169265 
L 393.130811 -92.026018 
L 389.908994 -90.88277 
L 386.270551 -89.739523 
L 382.30558 -88.596275 
L 378.11332 -87.453027 
L 373.795873 -86.30978 
L 369.452354 -85.166532 
L 365.173928 -84.023285 
L 361.04 -82.880037 
L 357.115744 -81.73679 
L 353.450934 -80.593542 
L 350.079966 -79.450294 
L 347.022847 -78.307047 
L 344.286874 -77.163799 
L 341.868733 -76.020552 
L 339.756745 -74.877304 
L 337.933073 -73.734056 
L 336.375714 -72.590809 
L 335.060211 -71.447561 
L 333.961042 -70.304314 
L 333.052685 -69.161066 
L 332.310417 -68.017818 
L 331.710863 -66.874571 
L 331.232376 -65.731323 
L 330.855258 -64.588076 
L 330.561883 -63.444828 
z
" style="stroke: #3f3f3f; stroke-width: 1.5"/>
    </defs>
    <g clip-path="url(#paf4874973f)">
     <use xlink:href="#m320c76c6a8" x="0" y="864" style="fill: #e1812c; stroke: #3f3f3f; stroke-width: 1.5"/>
    </g>
   </g>
   <g id="line2d_44">
    <path d="M 108.11209 745.983387 
L 151.107188 745.983387 
" clip-path="url(#paf4874973f)" style="fill: none; stroke-dasharray: 3.375,3.375; stroke-dashoffset: 0; stroke: #3f3f3f; stroke-width: 1.5"/>
   </g>
   <g id="line2d_45">
    <path d="M 108.584851 728.883945 
L 151.107188 728.883945 
" clip-path="url(#paf4874973f)" style="fill: none; stroke-dasharray: 6.75,6.75; stroke-dashoffset: 0; stroke: #3f3f3f; stroke-width: 1.5"/>
   </g>
   <g id="line2d_46">
    <path d="M 120.723342 710.095161 
L 151.107188 710.095161 
" clip-path="url(#paf4874973f)" style="fill: none; stroke-dasharray: 3.375,3.375; stroke-dashoffset: 0; stroke: #3f3f3f; stroke-width: 1.5"/>
   </g>
   <g id="line2d_47">
    <path d="M 151.107188 729.089962 
L 212.19988 729.089962 
" clip-path="url(#paf4874973f)" style="fill: none; stroke-dasharray: 3.375,3.375; stroke-dashoffset: 0; stroke: #3f3f3f; stroke-width: 1.5"/>
   </g>
   <g id="line2d_48">
    <path d="M 151.107188 717.759007 
L 221.646352 717.759007 
" clip-path="url(#paf4874973f)" style="fill: none; stroke-dasharray: 6.75,6.75; stroke-dashoffset: 0; stroke: #3f3f3f; stroke-width: 1.5"/>
   </g>
   <g id="line2d_49">
    <path d="M 151.107188 707.169715 
L 203.949748 707.169715 
" clip-path="url(#paf4874973f)" style="fill: none; stroke-dasharray: 3.375,3.375; stroke-dashoffset: 0; stroke: #3f3f3f; stroke-width: 1.5"/>
   </g>
   <g id="line2d_50">
    <path d="M 277.994556 753.317605 
L 329.729062 753.317605 
" clip-path="url(#paf4874973f)" style="fill: none; stroke-dasharray: 3.375,3.375; stroke-dashoffset: 0; stroke: #3f3f3f; stroke-width: 1.5"/>
   </g>
   <g id="line2d_51">
    <path d="M 276.794102 746.931066 
L 329.729062 746.931066 
" clip-path="url(#paf4874973f)" style="fill: none; stroke-dasharray: 6.75,6.75; stroke-dashoffset: 0; stroke: #3f3f3f; stroke-width: 1.5"/>
   </g>
   <g id="line2d_52">
    <path d="M 294.163664 727.606637 
L 329.729062 727.606637 
" clip-path="url(#paf4874973f)" style="fill: none; stroke-dasharray: 3.375,3.375; stroke-dashoffset: 0; stroke: #3f3f3f; stroke-width: 1.5"/>
   </g>
   <g id="line2d_53">
    <path d="M 329.729062 768.233262 
L 398.957737 768.233262 
" clip-path="url(#paf4874973f)" style="fill: none; stroke-dasharray: 3.375,3.375; stroke-dashoffset: 0; stroke: #3f3f3f; stroke-width: 1.5"/>
   </g>
   <g id="line2d_54">
    <path d="M 329.729062 756.984714 
L 393.913033 756.984714 
" clip-path="url(#paf4874973f)" style="fill: none; stroke-dasharray: 6.75,6.75; stroke-dashoffset: 0; stroke: #3f3f3f; stroke-width: 1.5"/>
   </g>
   <g id="line2d_55">
    <path d="M 329.729062 745.406538 
L 387.642747 745.406538 
" clip-path="url(#paf4874973f)" style="fill: none; stroke-dasharray: 3.375,3.375; stroke-dashoffset: 0; stroke: #3f3f3f; stroke-width: 1.5"/>
   </g>
   <g id="patch_25">
    <path d="M 61.79625 816.66 
L 61.79625 594.96 
" style="fill: none; stroke: #cccccc; stroke-width: 1.25; stroke-linejoin: miter; stroke-linecap: square"/>
   </g>
   <g id="patch_26">
    <path d="M 419.04 816.66 
L 419.04 594.96 
" style="fill: none; stroke: #cccccc; stroke-width: 1.25; stroke-linejoin: miter; stroke-linecap: square"/>
   </g>
   <g id="patch_27">
    <path d="M 61.79625 816.66 
L 419.04 816.66 
" style="fill: none; stroke: #cccccc; stroke-width: 1.25; stroke-linejoin: miter; stroke-linecap: square"/>
   </g>
   <g id="patch_28">
    <path d="M 61.79625 594.96 
L 419.04 594.96 
" style="fill: none; stroke: #cccccc; stroke-width: 1.25; stroke-linejoin: miter; stroke-linecap: square"/>
   </g>
   <g id="text_40">
    <text style="fill: #262626; font: 12px 'sans-serif'; text-anchor: middle" x="240.418125" y="588.96" transform="rotate(-0, 240.418125, 588.96)">Training epoch 5000</text>
   </g>
   <g id="legend_3">
    <g id="patch_29">
     <path d="M 340.063438 651.482969 
L 411.34 651.482969 
Q 413.54 651.482969 413.54 649.282969 
L 413.54 602.66 
Q 413.54 600.46 411.34 600.46 
L 340.063438 600.46 
Q 337.863438 600.46 337.863438 602.66 
L 337.863438 649.282969 
Q 337.863438 651.482969 340.063438 651.482969 
z
" style="fill: #ffffff; opacity: 0.8; stroke: #cccccc; stroke-linejoin: miter"/>
    </g>
    <g id="text_41">
     <text style="fill: #262626; font: 12px 'sans-serif'; text-anchor: start" x="347.244844" y="613.449375" transform="rotate(-0, 347.244844, 613.449375)">Trained on</text>
    </g>
    <g id="patch_30">
     <path d="M 342.263438 629.207969 
L 364.263438 629.207969 
L 364.263438 621.507969 
L 342.263438 621.507969 
z
" style="fill: #3274a1; stroke: #3f3f3f; stroke-width: 0.75; stroke-linejoin: miter"/>
    </g>
    <g id="text_42">
     <text style="fill: #262626; font: 11px 'sans-serif'; text-anchor: start" x="373.063438" y="629.207969" transform="rotate(-0, 373.063438, 629.207969)">English</text>
    </g>
    <g id="patch_31">
     <path d="M 342.263438 644.896719 
L 364.263438 644.896719 
L 364.263438 637.196719 
L 342.263438 637.196719 
z
" style="fill: #e1812c; stroke: #3f3f3f; stroke-width: 0.75; stroke-linejoin: miter"/>
    </g>
    <g id="text_43">
     <text style="fill: #262626; font: 11px 'sans-serif'; text-anchor: start" x="373.063438" y="644.896719" transform="rotate(-0, 373.063438, 644.896719)">French</text>
    </g>
   </g>
  </g>
 </g>
 <defs>
  <clipPath id="pf3fd009f8a">
   <rect x="61.79625" y="27.6" width="357.24375" height="221.7"/>
  </clipPath>
  <clipPath id="p66e6b95e55">
   <rect x="61.79625" y="311.28" width="357.24375" height="221.7"/>
  </clipPath>
  <clipPath id="paf4874973f">
   <rect x="61.79625" y="594.96" width="357.24375" height="221.7"/>
  </clipPath>
 </defs>
</svg>
