<?xml version="1.0" encoding="utf-8" standalone="no"?>
<!DOCTYPE svg PUBLIC "-//W3C//DTD SVG 1.1//EN"
  "http://www.w3.org/Graphics/SVG/1.1/DTD/svg11.dtd">
<svg xmlns:xlink="http://www.w3.org/1999/xlink" width="288pt" height="576pt" viewBox="0 0 288 576" xmlns="http://www.w3.org/2000/svg" version="1.1">
 <metadata>
  <rdf:RDF xmlns:dc="http://purl.org/dc/elements/1.1/" xmlns:cc="http://creativecommons.org/ns#" xmlns:rdf="http://www.w3.org/1999/02/22-rdf-syntax-ns#">
   <cc:Work>
    <dc:type rdf:resource="http://purl.org/dc/dcmitype/StillImage"/>
    <dc:date>2022-02-16T13:46:22.364356</dc:date>
    <dc:format>image/svg+xml</dc:format>
    <dc:creator>
     <cc:Agent>
      <dc:title>Matplotlib v3.5.0, https://matplotlib.org/</dc:title>
     </cc:Agent>
    </dc:creator>
   </cc:Work>
  </rdf:RDF>
 </metadata>
 <defs>
  <style type="text/css">*{stroke-linejoin: round; stroke-linecap: butt}</style>
 </defs>
 <g id="figure_1">
  <g id="patch_1">
   <path d="M 0 576 
L 288 576 
L 288 0 
L 0 0 
z
" style="fill: #ffffff"/>
  </g>
  <g id="axes_1">
   <g id="patch_2">
    <path d="M 37.76 247.111875 
L 261.430909 247.111875 
L 261.430909 27.6 
L 37.76 27.6 
z
" style="fill: #ffffff"/>
   </g>
   <g id="matplotlib.axis_1">
    <g id="xtick_1">
     <g id="text_1">
      <text style="fill: #262626; font: 11px 'sans-serif'; text-anchor: middle" x="47.92686" y="264.485469" transform="rotate(-0, 47.92686, 264.485469)">0</text>
     </g>
    </g>
    <g id="xtick_2">
     <g id="text_2">
      <text style="fill: #262626; font: 11px 'sans-serif'; text-anchor: middle" x="90.288774" y="264.485469" transform="rotate(-0, 90.288774, 264.485469)">2500</text>
     </g>
    </g>
    <g id="xtick_3">
     <g id="text_3">
      <text style="fill: #262626; font: 11px 'sans-serif'; text-anchor: middle" x="132.650689" y="264.485469" transform="rotate(-0, 132.650689, 264.485469)">5000</text>
     </g>
    </g>
    <g id="xtick_4">
     <g id="text_4">
      <text style="fill: #262626; font: 11px 'sans-serif'; text-anchor: middle" x="175.012603" y="264.485469" transform="rotate(-0, 175.012603, 264.485469)">7500</text>
     </g>
    </g>
    <g id="xtick_5">
     <g id="text_5">
      <text style="fill: #262626; font: 11px 'sans-serif'; text-anchor: middle" x="217.374518" y="264.485469" transform="rotate(-0, 217.374518, 264.485469)">10000</text>
     </g>
    </g>
    <g id="xtick_6">
     <g id="text_6">
      <text style="fill: #262626; font: 11px 'sans-serif'; text-anchor: middle" x="259.736433" y="264.485469" transform="rotate(-0, 259.736433, 264.485469)">12500</text>
     </g>
    </g>
    <g id="text_7">
     <text style="fill: #262626; font: 12px 'sans-serif'; text-anchor: middle" x="149.595455" y="279.261094" transform="rotate(-0, 149.595455, 279.261094)">Epoch</text>
    </g>
   </g>
   <g id="matplotlib.axis_2">
    <g id="ytick_1">
     <g id="text_8">
      <text style="fill: #262626; font: 11px 'sans-serif'; text-anchor: end" x="28.26" y="243.80452" transform="rotate(-0, 28.26, 243.80452)">0.0</text>
     </g>
    </g>
    <g id="ytick_2">
     <g id="text_9">
      <text style="fill: #262626; font: 11px 'sans-serif'; text-anchor: end" x="28.26" y="208.004636" transform="rotate(-0, 28.26, 208.004636)">0.2</text>
     </g>
    </g>
    <g id="ytick_3">
     <g id="text_10">
      <text style="fill: #262626; font: 11px 'sans-serif'; text-anchor: end" x="28.26" y="172.204752" transform="rotate(-0, 28.26, 172.204752)">0.4</text>
     </g>
    </g>
    <g id="ytick_4">
     <g id="text_11">
      <text style="fill: #262626; font: 11px 'sans-serif'; text-anchor: end" x="28.26" y="136.404867" transform="rotate(-0, 28.26, 136.404867)">0.6</text>
     </g>
    </g>
    <g id="ytick_5">
     <g id="text_12">
      <text style="fill: #262626; font: 11px 'sans-serif'; text-anchor: end" x="28.26" y="100.604983" transform="rotate(-0, 28.26, 100.604983)">0.8</text>
     </g>
    </g>
    <g id="ytick_6">
     <g id="text_13">
      <text style="fill: #262626; font: 11px 'sans-serif'; text-anchor: end" x="28.26" y="64.805099" transform="rotate(-0, 28.26, 64.805099)">1.0</text>
     </g>
    </g>
   </g>
   <g id="PolyCollection_1">
    <defs>
     <path id="m3f9962d760" d="M 47.92686 -524.384005 
L 47.92686 -524.298546 
L 48.774098 -518.911406 
L 49.621336 -518.679405 
L 50.468574 -518.287065 
L 51.315813 -517.498496 
L 52.163051 -515.958277 
L 53.010289 -513.719024 
L 53.857528 -511.416356 
L 54.704766 -509.41735 
L 55.552004 -507.420172 
L 56.399242 -504.821353 
L 57.246481 -501.277795 
L 58.093719 -496.460065 
L 58.940957 -490.621622 
L 59.788196 -484.565654 
L 60.635434 -478.339033 
L 61.482672 -472.100132 
L 62.32991 -466.032614 
L 63.177149 -460.249134 
L 64.024387 -454.832819 
L 64.871625 -449.654251 
L 65.718864 -444.715659 
L 66.566102 -440.273159 
L 67.41334 -436.316372 
L 68.260579 -432.726179 
L 69.107817 -429.313209 
L 69.955055 -425.814163 
L 70.802293 -422.200143 
L 71.649532 -418.365414 
L 72.49677 -414.306271 
L 73.344008 -409.973042 
L 74.191247 -405.462595 
L 75.038485 -400.853388 
L 75.885723 -396.170857 
L 76.732961 -391.474873 
L 77.5802 -386.877233 
L 78.427438 -382.255407 
L 79.274676 -378.143035 
L 80.121915 -374.282717 
L 80.969153 -370.676187 
L 81.816391 -367.081976 
L 82.663629 -364.757208 
L 83.510868 -363.238587 
L 84.358106 -361.799112 
L 85.205344 -360.4344 
L 86.052583 -359.147409 
L 86.899821 -357.935951 
L 87.747059 -356.800586 
L 88.594298 -355.724836 
L 89.441536 -354.713087 
L 90.288774 -353.764823 
L 91.136012 -352.879071 
L 91.983251 -352.05437 
L 92.830489 -351.285878 
L 93.677727 -350.566067 
L 94.524966 -349.909107 
L 95.372204 -349.299439 
L 96.219442 -348.739356 
L 97.06668 -348.223 
L 97.913919 -347.739553 
L 98.761157 -347.295113 
L 99.608395 -346.885548 
L 100.455634 -346.507459 
L 101.302872 -346.157959 
L 102.15011 -345.835186 
L 102.997348 -345.533504 
L 103.844587 -345.253704 
L 104.691825 -344.997752 
L 105.539063 -344.759458 
L 106.386302 -344.541547 
L 107.23354 -344.340524 
L 108.080778 -344.145354 
L 108.928017 -343.970362 
L 109.775255 -343.798814 
L 110.622493 -343.646754 
L 111.469731 -343.496943 
L 112.31697 -343.357175 
L 113.164208 -343.226063 
L 114.011446 -343.105881 
L 114.858685 -342.990785 
L 115.705923 -342.883001 
L 116.553161 -342.783304 
L 117.400399 -342.683305 
L 118.247638 -342.595589 
L 119.094876 -342.505008 
L 119.942114 -342.425085 
L 120.789353 -342.34226 
L 121.636591 -342.26469 
L 122.483829 -342.192982 
L 123.331067 -342.129899 
L 124.178306 -342.060043 
L 125.025544 -341.997234 
L 125.872782 -341.936424 
L 126.720021 -341.877754 
L 127.567259 -341.825593 
L 128.414497 -341.772306 
L 129.261736 -341.723574 
L 130.108974 -341.670373 
L 130.956212 -341.626452 
L 131.80345 -341.575528 
L 132.650689 -341.536936 
L 133.497927 -341.494449 
L 134.345165 -341.452792 
L 135.192404 -341.408716 
L 136.039642 -341.37755 
L 136.88688 -341.333681 
L 137.734118 -341.301505 
L 138.581357 -341.263902 
L 139.428595 -341.239383 
L 140.275833 -341.205308 
L 141.123072 -341.168141 
L 141.97031 -341.137914 
L 142.817548 -341.107138 
L 143.664787 -341.078465 
L 144.512025 -341.05393 
L 145.359263 -341.023446 
L 146.206501 -340.998116 
L 147.05374 -340.970221 
L 147.900978 -340.944061 
L 148.748216 -340.914502 
L 149.595455 -340.889823 
L 150.442693 -340.869036 
L 151.289931 -340.84011 
L 152.137169 -340.820827 
L 152.984408 -340.801105 
L 153.831646 -340.774707 
L 154.678884 -340.757743 
L 155.526123 -340.735983 
L 156.373361 -340.713731 
L 157.220599 -340.698429 
L 158.067837 -340.670758 
L 158.915076 -340.659523 
L 159.762314 -340.635177 
L 160.609552 -340.617856 
L 161.456791 -340.600047 
L 162.304029 -340.584924 
L 163.151267 -340.565138 
L 163.998506 -340.546882 
L 164.845744 -340.529075 
L 165.692982 -340.511441 
L 166.54022 -340.50062 
L 167.387459 -340.479559 
L 168.234697 -340.462001 
L 169.081935 -340.448905 
L 169.929174 -340.435643 
L 170.776412 -340.418226 
L 171.62365 -340.407235 
L 172.470888 -340.388135 
L 173.318127 -340.376911 
L 174.165365 -340.364658 
L 175.012603 -340.350128 
L 175.859842 -340.337868 
L 176.70708 -340.32359 
L 177.554318 -340.308871 
L 178.401556 -340.296783 
L 179.248795 -340.281511 
L 180.096033 -340.271805 
L 180.943271 -340.259745 
L 181.79051 -340.24942 
L 182.637748 -340.239837 
L 183.484986 -340.224098 
L 184.332225 -340.212739 
L 185.179463 -340.203267 
L 186.026701 -340.191505 
L 186.873939 -340.181816 
L 187.721178 -340.170895 
L 188.568416 -340.159706 
L 189.415654 -340.149159 
L 190.262893 -340.139035 
L 191.110131 -340.13097 
L 191.957369 -340.11623 
L 192.804607 -340.110898 
L 193.651846 -340.100075 
L 194.499084 -340.087348 
L 195.346322 -340.075869 
L 196.193561 -340.069754 
L 197.040799 -340.059454 
L 197.888037 -340.051193 
L 198.735275 -340.0368 
L 199.582514 -340.031023 
L 200.429752 -340.020669 
L 201.27699 -340.006032 
L 202.124229 -339.994946 
L 202.971467 -339.984791 
L 203.818705 -339.978915 
L 204.665944 -339.969882 
L 205.513182 -339.961133 
L 206.36042 -339.950386 
L 207.207658 -339.943483 
L 208.054897 -339.93299 
L 208.902135 -339.926288 
L 209.749373 -339.91806 
L 210.596612 -339.912121 
L 211.44385 -339.901182 
L 212.291088 -339.892652 
L 213.138326 -339.884024 
L 213.985565 -339.876164 
L 214.832803 -339.86855 
L 215.680041 -339.861307 
L 216.52728 -339.85853 
L 217.374518 -339.843857 
L 218.221756 -339.826633 
L 219.068994 -339.824375 
L 219.916233 -339.818798 
L 220.763471 -339.81295 
L 221.610709 -339.807883 
L 222.457948 -339.803323 
L 223.305186 -339.798397 
L 224.152424 -339.793243 
L 224.999663 -339.787214 
L 225.846901 -339.782601 
L 226.694139 -339.778906 
L 227.541377 -339.77401 
L 228.388616 -339.769182 
L 229.235854 -339.763807 
L 230.083092 -339.758295 
L 230.930331 -339.752704 
L 231.777569 -339.749725 
L 232.624807 -339.744486 
L 233.472045 -339.738788 
L 234.319284 -339.734513 
L 235.166522 -339.729533 
L 236.01376 -339.723472 
L 236.860999 -339.719302 
L 237.708237 -339.714322 
L 238.555475 -339.709771 
L 239.402713 -339.705941 
L 240.249952 -339.700159 
L 241.09719 -339.697168 
L 241.944428 -339.690436 
L 242.791667 -339.686829 
L 243.638905 -339.684037 
L 244.486143 -339.679348 
L 245.333382 -339.6757 
L 246.18062 -339.670517 
L 247.027858 -339.665698 
L 247.875096 -339.662081 
L 248.722335 -339.655377 
L 249.569573 -339.651112 
L 250.416811 -339.646928 
L 251.26405 -339.643884 
L 251.26405 -340.349192 
L 251.26405 -340.349192 
L 250.416811 -340.352391 
L 249.569573 -340.356653 
L 248.722335 -340.360847 
L 247.875096 -340.367673 
L 247.027858 -340.371571 
L 246.18062 -340.377461 
L 245.333382 -340.382304 
L 244.486143 -340.386908 
L 243.638905 -340.391037 
L 242.791667 -340.394132 
L 241.944428 -340.397522 
L 241.09719 -340.404498 
L 240.249952 -340.407855 
L 239.402713 -340.412462 
L 238.555475 -340.417236 
L 237.708237 -340.422088 
L 236.860999 -340.42705 
L 236.01376 -340.431637 
L 235.166522 -340.438543 
L 234.319284 -340.443145 
L 233.472045 -340.447246 
L 232.624807 -340.453521 
L 231.777569 -340.457802 
L 230.930331 -340.461819 
L 230.083092 -340.467219 
L 229.235854 -340.473262 
L 228.388616 -340.478076 
L 227.541377 -340.48387 
L 226.694139 -340.487916 
L 225.846901 -340.492067 
L 224.999663 -340.49716 
L 224.152424 -340.503076 
L 223.305186 -340.508616 
L 222.457948 -340.514529 
L 221.610709 -340.517891 
L 220.763471 -340.523306 
L 219.916233 -340.529531 
L 219.068994 -340.536193 
L 218.221756 -340.537454 
L 217.374518 -340.556996 
L 216.52728 -340.56909 
L 215.680041 -340.574433 
L 214.832803 -340.579903 
L 213.985565 -340.589635 
L 213.138326 -340.597486 
L 212.291088 -340.608349 
L 211.44385 -340.614544 
L 210.596612 -340.626227 
L 209.749373 -340.631558 
L 208.902135 -340.639954 
L 208.054897 -340.646824 
L 207.207658 -340.658689 
L 206.36042 -340.665117 
L 205.513182 -340.677087 
L 204.665944 -340.686505 
L 203.818705 -340.696924 
L 202.971467 -340.701931 
L 202.124229 -340.714449 
L 201.27699 -340.727583 
L 200.429752 -340.752069 
L 199.582514 -340.761204 
L 198.735275 -340.767114 
L 197.888037 -340.783521 
L 197.040799 -340.78927 
L 196.193561 -340.801916 
L 195.346322 -340.810103 
L 194.499084 -340.819826 
L 193.651846 -340.832919 
L 192.804607 -340.845585 
L 191.957369 -340.849605 
L 191.110131 -340.864287 
L 190.262893 -340.874403 
L 189.415654 -340.883788 
L 188.568416 -340.895072 
L 187.721178 -340.90823 
L 186.873939 -340.916945 
L 186.026701 -340.927404 
L 185.179463 -340.940188 
L 184.332225 -340.949264 
L 183.484986 -340.961309 
L 182.637748 -340.976693 
L 181.79051 -340.988392 
L 180.943271 -340.997702 
L 180.096033 -341.010011 
L 179.248795 -341.020444 
L 178.401556 -341.035145 
L 177.554318 -341.048568 
L 176.70708 -341.065057 
L 175.859842 -341.079041 
L 175.012603 -341.089921 
L 174.165365 -341.104418 
L 173.318127 -341.11727 
L 172.470888 -341.12958 
L 171.62365 -341.147529 
L 170.776412 -341.159928 
L 169.929174 -341.178649 
L 169.081935 -341.192815 
L 168.234697 -341.205164 
L 167.387459 -341.223431 
L 166.54022 -341.244884 
L 165.692982 -341.254151 
L 164.845744 -341.272982 
L 163.998506 -341.291317 
L 163.151267 -341.311661 
L 162.304029 -341.328841 
L 161.456791 -341.345913 
L 160.609552 -341.362759 
L 159.762314 -341.385253 
L 158.915076 -341.409031 
L 158.067837 -341.418535 
L 157.220599 -341.448556 
L 156.373361 -341.464317 
L 155.526123 -341.484798 
L 154.678884 -341.509815 
L 153.831646 -341.52507 
L 152.984408 -341.554021 
L 152.137169 -341.574781 
L 151.289931 -341.594635 
L 150.442693 -341.62304 
L 149.595455 -341.645853 
L 148.748216 -341.670792 
L 147.900978 -341.70127 
L 147.05374 -341.729871 
L 146.206501 -341.75927 
L 145.359263 -341.784368 
L 144.512025 -341.817096 
L 143.664787 -341.842535 
L 142.817548 -341.873884 
L 141.97031 -341.905702 
L 141.123072 -341.934893 
L 140.275833 -341.97447 
L 139.428595 -342.008955 
L 138.581357 -342.037493 
L 137.734118 -342.074932 
L 136.88688 -342.108499 
L 136.039642 -342.154481 
L 135.192404 -342.188065 
L 134.345165 -342.237833 
L 133.497927 -342.279619 
L 132.650689 -342.327051 
L 131.80345 -342.37026 
L 130.956212 -342.419039 
L 130.108974 -342.468506 
L 129.261736 -342.526802 
L 128.414497 -342.578349 
L 127.567259 -342.634431 
L 126.720021 -342.693995 
L 125.872782 -342.757163 
L 125.025544 -342.82009 
L 124.178306 -342.890663 
L 123.331067 -342.966264 
L 122.483829 -343.036089 
L 121.636591 -343.114042 
L 120.789353 -343.204032 
L 119.942114 -343.289743 
L 119.094876 -343.377333 
L 118.247638 -343.479793 
L 117.400399 -343.576941 
L 116.553161 -343.68923 
L 115.705923 -343.800718 
L 114.858685 -343.922738 
L 114.011446 -344.05255 
L 113.164208 -344.185728 
L 112.31697 -344.337666 
L 111.469731 -344.497476 
L 110.622493 -344.667703 
L 109.775255 -344.841318 
L 108.928017 -345.039404 
L 108.080778 -345.24409 
L 107.23354 -345.468608 
L 106.386302 -345.705888 
L 105.539063 -345.961988 
L 104.691825 -346.240509 
L 103.844587 -346.54498 
L 102.997348 -346.88075 
L 102.15011 -347.241622 
L 101.302872 -347.634789 
L 100.455634 -348.060149 
L 99.608395 -348.523747 
L 98.761157 -349.023055 
L 97.913919 -349.570162 
L 97.06668 -350.16637 
L 96.219442 -350.808996 
L 95.372204 -351.502923 
L 94.524966 -352.262756 
L 93.677727 -353.084162 
L 92.830489 -353.976462 
L 91.983251 -354.930293 
L 91.136012 -355.949135 
L 90.288774 -357.035231 
L 89.441536 -358.185341 
L 88.594298 -359.392685 
L 87.747059 -360.656983 
L 86.899821 -361.968263 
L 86.052583 -363.346064 
L 85.205344 -364.780228 
L 84.358106 -366.282865 
L 83.510868 -367.844482 
L 82.663629 -369.471566 
L 81.816391 -371.8323 
L 80.969153 -375.49235 
L 80.121915 -379.215118 
L 79.274676 -383.099835 
L 78.427438 -387.22111 
L 77.5802 -391.693983 
L 76.732961 -396.181542 
L 75.885723 -400.749305 
L 75.038485 -405.366331 
L 74.191247 -410.030646 
L 73.344008 -414.712443 
L 72.49677 -419.220435 
L 71.649532 -423.504559 
L 70.802293 -427.583219 
L 69.955055 -431.384994 
L 69.107817 -435.065322 
L 68.260579 -438.612564 
L 67.41334 -442.236665 
L 66.566102 -446.25815 
L 65.718864 -450.878006 
L 64.871625 -456.066462 
L 64.024387 -461.394339 
L 63.177149 -466.733973 
L 62.32991 -472.30976 
L 61.482672 -477.98419 
L 60.635434 -483.695699 
L 59.788196 -489.270624 
L 58.940957 -494.505649 
L 58.093719 -499.394254 
L 57.246481 -503.369018 
L 56.399242 -506.268431 
L 55.552004 -508.449918 
L 54.704766 -510.272073 
L 53.857528 -512.139118 
L 53.010289 -514.275583 
L 52.163051 -516.325662 
L 51.315813 -517.681686 
L 50.468574 -518.371071 
L 49.621336 -518.719603 
L 48.774098 -518.932475 
L 47.92686 -524.384005 
z
" style="stroke: #ffffff; stroke-opacity: 0.3"/>
    </defs>
    <g clip-path="url(#p1c07d4d3e6)">
     <use xlink:href="#m3f9962d760" x="0" y="576" style="fill: #4c72b0; fill-opacity: 0.3; stroke: #ffffff; stroke-opacity: 0.3"/>
    </g>
   </g>
   <g id="PolyCollection_2">
    <defs>
     <path id="m24e5e65216" d="M 47.92686 -538.422188 
L 47.92686 -538.332201 
L 48.774098 -531.607822 
L 49.621336 -531.226462 
L 50.468574 -529.944087 
L 51.315813 -525.555661 
L 52.163051 -519.957377 
L 53.010289 -516.797024 
L 53.857528 -514.689967 
L 54.704766 -512.191808 
L 55.552004 -508.796764 
L 56.399242 -504.064771 
L 57.246481 -498.53824 
L 58.093719 -492.803009 
L 58.940957 -487.394852 
L 59.788196 -482.281171 
L 60.635434 -477.13891 
L 61.482672 -471.338314 
L 62.32991 -464.383578 
L 63.177149 -456.397722 
L 64.024387 -447.484213 
L 64.871625 -438.355083 
L 65.718864 -428.967272 
L 66.566102 -419.913788 
L 67.41334 -411.180618 
L 68.260579 -403.006512 
L 69.107817 -395.446774 
L 69.955055 -388.580577 
L 70.802293 -382.631474 
L 71.649532 -377.068104 
L 72.49677 -372.278659 
L 73.344008 -368.119913 
L 74.191247 -364.945347 
L 75.038485 -362.065539 
L 75.885723 -359.926001 
L 76.732961 -358.108301 
L 77.5802 -356.62402 
L 78.427438 -355.302482 
L 79.274676 -354.296721 
L 80.121915 -353.328702 
L 80.969153 -352.558669 
L 81.816391 -351.857007 
L 82.663629 -351.133402 
L 83.510868 -350.816045 
L 84.358106 -350.500206 
L 85.205344 -350.192943 
L 86.052583 -349.889716 
L 86.899821 -349.587887 
L 87.747059 -349.30339 
L 88.594298 -349.02721 
L 89.441536 -348.743764 
L 90.288774 -348.475393 
L 91.136012 -348.211997 
L 91.983251 -347.950646 
L 92.830489 -347.700674 
L 93.677727 -347.456449 
L 94.524966 -347.208384 
L 95.372204 -346.97767 
L 96.219442 -346.752394 
L 97.06668 -346.52746 
L 97.913919 -346.312643 
L 98.761157 -346.105382 
L 99.608395 -345.89741 
L 100.455634 -345.697971 
L 101.302872 -345.504797 
L 102.15011 -345.316151 
L 102.997348 -345.136145 
L 103.844587 -344.959283 
L 104.691825 -344.786617 
L 105.539063 -344.621217 
L 106.386302 -344.453925 
L 107.23354 -344.295842 
L 108.080778 -344.142597 
L 108.928017 -343.997613 
L 109.775255 -343.855118 
L 110.622493 -343.712235 
L 111.469731 -343.573884 
L 112.31697 -343.4487 
L 113.164208 -343.32523 
L 114.011446 -343.201444 
L 114.858685 -343.082446 
L 115.705923 -342.973416 
L 116.553161 -342.86305 
L 117.400399 -342.751093 
L 118.247638 -342.648917 
L 119.094876 -342.548089 
L 119.942114 -342.448543 
L 120.789353 -342.351213 
L 121.636591 -342.2617 
L 122.483829 -342.167936 
L 123.331067 -342.07597 
L 124.178306 -341.988974 
L 125.025544 -341.91153 
L 125.872782 -341.826165 
L 126.720021 -341.750388 
L 127.567259 -341.674477 
L 128.414497 -341.598451 
L 129.261736 -341.528533 
L 130.108974 -341.456006 
L 130.956212 -341.393665 
L 131.80345 -341.319705 
L 132.650689 -341.251843 
L 133.497927 -341.193898 
L 134.345165 -341.131725 
L 135.192404 -341.075246 
L 136.039642 -341.016555 
L 136.88688 -340.961179 
L 137.734118 -340.909973 
L 138.581357 -340.855525 
L 139.428595 -340.806932 
L 140.275833 -340.758173 
L 141.123072 -340.713505 
L 141.97031 -340.664883 
L 142.817548 -340.621504 
L 143.664787 -340.579883 
L 144.512025 -340.538807 
L 145.359263 -340.496131 
L 146.206501 -340.457029 
L 147.05374 -340.416465 
L 147.900978 -340.379558 
L 148.748216 -340.339523 
L 149.595455 -340.304273 
L 150.442693 -340.271283 
L 151.289931 -340.23408 
L 152.137169 -340.207996 
L 152.984408 -340.168083 
L 153.831646 -340.138385 
L 154.678884 -340.110121 
L 155.526123 -340.078214 
L 156.373361 -340.049086 
L 157.220599 -340.019989 
L 158.067837 -339.992735 
L 158.915076 -339.963465 
L 159.762314 -339.938518 
L 160.609552 -339.912264 
L 161.456791 -339.888607 
L 162.304029 -339.865421 
L 163.151267 -339.837274 
L 163.998506 -339.817735 
L 164.845744 -339.794646 
L 165.692982 -339.772731 
L 166.54022 -339.750596 
L 167.387459 -339.731318 
L 168.234697 -339.702638 
L 169.081935 -339.684342 
L 169.929174 -339.661586 
L 170.776412 -339.640638 
L 171.62365 -339.621795 
L 172.470888 -339.602692 
L 173.318127 -339.585828 
L 174.165365 -339.567861 
L 175.012603 -339.548183 
L 175.859842 -339.533506 
L 176.70708 -339.51714 
L 177.554318 -339.503812 
L 178.401556 -339.48656 
L 179.248795 -339.472167 
L 180.096033 -339.450654 
L 180.943271 -339.436555 
L 181.79051 -339.420688 
L 182.637748 -339.406182 
L 183.484986 -339.394054 
L 184.332225 -339.383178 
L 185.179463 -339.369006 
L 186.026701 -339.356557 
L 186.873939 -339.345447 
L 187.721178 -339.332856 
L 188.568416 -339.321975 
L 189.415654 -339.308709 
L 190.262893 -339.2963 
L 191.110131 -339.287125 
L 191.957369 -339.275901 
L 192.804607 -339.265462 
L 193.651846 -339.25376 
L 194.499084 -339.241154 
L 195.346322 -339.230169 
L 196.193561 -339.218765 
L 197.040799 -339.208216 
L 197.888037 -339.199755 
L 198.735275 -339.188956 
L 199.582514 -339.179407 
L 200.429752 -339.169812 
L 201.27699 -339.162329 
L 202.124229 -339.153828 
L 202.971467 -339.144929 
L 203.818705 -339.135489 
L 204.665944 -339.131381 
L 205.513182 -339.120348 
L 206.36042 -339.113922 
L 207.207658 -339.105432 
L 208.054897 -339.098375 
L 208.902135 -339.089041 
L 209.749373 -339.082748 
L 210.596612 -339.074431 
L 211.44385 -339.067851 
L 212.291088 -339.05927 
L 213.138326 -339.053722 
L 213.985565 -339.04783 
L 214.832803 -339.041007 
L 215.680041 -339.034869 
L 216.52728 -339.02715 
L 217.374518 -339.021424 
L 218.221756 -339.012492 
L 219.068994 -339.010719 
L 219.916233 -339.006634 
L 220.763471 -339.000953 
L 221.610709 -338.997718 
L 222.457948 -338.993272 
L 223.305186 -338.990971 
L 224.152424 -338.985587 
L 224.999663 -338.980612 
L 225.846901 -338.976612 
L 226.694139 -338.972778 
L 227.541377 -338.968642 
L 228.388616 -338.966587 
L 229.235854 -338.960355 
L 230.083092 -338.955522 
L 230.930331 -338.952373 
L 231.777569 -338.947782 
L 232.624807 -338.945594 
L 233.472045 -338.940292 
L 234.319284 -338.936092 
L 235.166522 -338.93079 
L 236.01376 -338.928554 
L 236.860999 -338.924654 
L 237.708237 -338.921324 
L 238.555475 -338.916391 
L 239.402713 -338.91323 
L 240.249952 -338.910034 
L 241.09719 -338.905966 
L 241.944428 -338.901452 
L 242.791667 -338.898731 
L 243.638905 -338.895455 
L 244.486143 -338.892795 
L 245.333382 -338.890936 
L 246.18062 -338.884314 
L 247.027858 -338.881699 
L 247.875096 -338.880146 
L 248.722335 -338.875736 
L 249.569573 -338.872531 
L 250.416811 -338.8679 
L 251.26405 -338.865938 
L 251.26405 -339.321655 
L 251.26405 -339.321655 
L 250.416811 -339.324791 
L 249.569573 -339.32956 
L 248.722335 -339.334114 
L 247.875096 -339.338117 
L 247.027858 -339.339461 
L 246.18062 -339.342679 
L 245.333382 -339.349223 
L 244.486143 -339.351819 
L 243.638905 -339.355112 
L 242.791667 -339.358499 
L 241.944428 -339.361648 
L 241.09719 -339.366699 
L 240.249952 -339.371047 
L 239.402713 -339.374616 
L 238.555475 -339.37802 
L 237.708237 -339.383033 
L 236.860999 -339.387069 
L 236.01376 -339.391212 
L 235.166522 -339.39356 
L 234.319284 -339.39922 
L 233.472045 -339.403752 
L 232.624807 -339.409646 
L 231.777569 -339.411716 
L 230.930331 -339.416702 
L 230.083092 -339.420568 
L 229.235854 -339.425487 
L 228.388616 -339.431237 
L 227.541377 -339.43409 
L 226.694139 -339.438444 
L 225.846901 -339.442339 
L 224.999663 -339.44678 
L 224.152424 -339.451961 
L 223.305186 -339.458144 
L 222.457948 -339.461262 
L 221.610709 -339.465725 
L 220.763471 -339.468753 
L 219.916233 -339.475102 
L 219.068994 -339.478869 
L 218.221756 -339.481346 
L 217.374518 -339.491096 
L 216.52728 -339.496187 
L 215.680041 -339.504296 
L 214.832803 -339.510827 
L 213.985565 -339.518252 
L 213.138326 -339.524518 
L 212.291088 -339.531319 
L 211.44385 -339.540236 
L 210.596612 -339.546858 
L 209.749373 -339.555922 
L 208.902135 -339.562558 
L 208.054897 -339.571903 
L 207.207658 -339.580423 
L 206.36042 -339.588515 
L 205.513182 -339.594931 
L 204.665944 -339.607058 
L 203.818705 -339.611295 
L 202.971467 -339.623135 
L 202.124229 -339.632288 
L 201.27699 -339.641776 
L 200.429752 -339.64962 
L 199.582514 -339.658472 
L 198.735275 -339.669294 
L 197.888037 -339.681346 
L 197.040799 -339.691042 
L 196.193561 -339.701055 
L 195.346322 -339.713585 
L 194.499084 -339.725758 
L 193.651846 -339.742283 
L 192.804607 -339.754314 
L 191.957369 -339.767741 
L 191.110131 -339.777582 
L 190.262893 -339.787352 
L 189.415654 -339.801454 
L 188.568416 -339.815237 
L 187.721178 -339.826057 
L 186.873939 -339.83991 
L 186.026701 -339.850872 
L 185.179463 -339.865712 
L 184.332225 -339.880256 
L 183.484986 -339.892135 
L 182.637748 -339.905396 
L 181.79051 -339.921628 
L 180.943271 -339.939162 
L 180.096033 -339.95531 
L 179.248795 -339.984327 
L 178.401556 -340.001168 
L 177.554318 -340.017598 
L 176.70708 -340.032764 
L 175.859842 -340.049463 
L 175.012603 -340.065868 
L 174.165365 -340.08683 
L 173.318127 -340.105312 
L 172.470888 -340.124416 
L 171.62365 -340.144487 
L 170.776412 -340.165108 
L 169.929174 -340.187887 
L 169.081935 -340.212668 
L 168.234697 -340.232914 
L 167.387459 -340.264264 
L 166.54022 -340.286061 
L 165.692982 -340.309436 
L 164.845744 -340.334479 
L 163.998506 -340.358509 
L 163.151267 -340.381151 
L 162.304029 -340.410331 
L 161.456791 -340.437268 
L 160.609552 -340.463585 
L 159.762314 -340.491958 
L 158.915076 -340.520367 
L 158.067837 -340.551556 
L 157.220599 -340.581305 
L 156.373361 -340.613496 
L 155.526123 -340.645798 
L 154.678884 -340.681297 
L 153.831646 -340.713666 
L 152.984408 -340.746448 
L 152.137169 -340.790322 
L 151.289931 -340.819193 
L 150.442693 -340.860029 
L 149.595455 -340.897495 
L 148.748216 -340.937084 
L 147.900978 -340.981534 
L 147.05374 -341.021405 
L 146.206501 -341.065857 
L 145.359263 -341.1106 
L 144.512025 -341.155631 
L 143.664787 -341.200898 
L 142.817548 -341.24662 
L 141.97031 -341.292995 
L 141.123072 -341.345337 
L 140.275833 -341.393925 
L 139.428595 -341.448255 
L 138.581357 -341.500818 
L 137.734118 -341.558111 
L 136.88688 -341.613524 
L 136.039642 -341.672839 
L 135.192404 -341.735635 
L 134.345165 -341.796273 
L 133.497927 -341.862114 
L 132.650689 -341.924156 
L 131.80345 -341.996392 
L 130.956212 -342.073265 
L 130.108974 -342.138652 
L 129.261736 -342.215874 
L 128.414497 -342.290025 
L 127.567259 -342.369502 
L 126.720021 -342.450246 
L 125.872782 -342.531288 
L 125.025544 -342.622878 
L 124.178306 -342.70202 
L 123.331067 -342.793262 
L 122.483829 -342.89134 
L 121.636591 -342.992974 
L 120.789353 -343.084153 
L 119.942114 -343.185263 
L 119.094876 -343.291707 
L 118.247638 -343.396898 
L 117.400399 -343.502378 
L 116.553161 -343.619458 
L 115.705923 -343.732491 
L 114.858685 -343.846278 
L 114.011446 -343.970644 
L 113.164208 -344.096179 
L 112.31697 -344.225764 
L 111.469731 -344.354174 
L 110.622493 -344.496867 
L 109.775255 -344.642671 
L 108.928017 -344.788909 
L 108.080778 -344.936455 
L 107.23354 -345.09363 
L 106.386302 -345.254926 
L 105.539063 -345.423696 
L 104.691825 -345.593884 
L 103.844587 -345.768095 
L 102.997348 -345.946767 
L 102.15011 -346.126078 
L 101.302872 -346.317212 
L 100.455634 -346.512254 
L 99.608395 -346.711607 
L 98.761157 -346.918208 
L 97.913919 -347.12327 
L 97.06668 -347.336458 
L 96.219442 -347.559514 
L 95.372204 -347.783028 
L 94.524966 -348.007367 
L 93.677727 -348.253632 
L 92.830489 -348.490191 
L 91.983251 -348.734444 
L 91.136012 -348.990949 
L 90.288774 -349.244016 
L 89.441536 -349.504039 
L 88.594298 -349.783488 
L 87.747059 -350.048336 
L 86.899821 -350.32558 
L 86.052583 -350.621279 
L 85.205344 -350.920885 
L 84.358106 -351.228722 
L 83.510868 -351.544419 
L 82.663629 -351.871309 
L 81.816391 -352.624147 
L 80.969153 -353.353256 
L 80.121915 -354.233348 
L 79.274676 -355.376147 
L 78.427438 -356.595568 
L 77.5802 -358.247243 
L 76.732961 -360.176577 
L 75.885723 -362.608425 
L 75.038485 -365.664463 
L 74.191247 -369.62707 
L 73.344008 -373.335571 
L 72.49677 -378.022849 
L 71.649532 -383.371417 
L 70.802293 -389.465505 
L 69.955055 -395.972378 
L 69.107817 -403.276335 
L 68.260579 -411.090507 
L 67.41334 -419.287719 
L 66.566102 -427.743818 
L 65.718864 -436.406669 
L 64.871625 -445.27652 
L 64.024387 -453.742287 
L 63.177149 -462.030641 
L 62.32991 -469.447955 
L 61.482672 -476.053505 
L 60.635434 -481.727204 
L 59.788196 -486.743373 
L 58.940957 -491.788472 
L 58.093719 -497.106934 
L 57.246481 -502.499483 
L 56.399242 -507.259735 
L 55.552004 -511.052973 
L 54.704766 -513.723998 
L 53.857528 -515.641278 
L 53.010289 -517.759947 
L 52.163051 -521.401036 
L 51.315813 -526.837615 
L 50.468574 -530.340226 
L 49.621336 -531.313476 
L 48.774098 -531.633056 
L 47.92686 -538.422188 
z
" style="stroke: #ffffff; stroke-opacity: 0.3"/>
    </defs>
    <g clip-path="url(#p1c07d4d3e6)">
     <use xlink:href="#m24e5e65216" x="0" y="576" style="fill: #dd8452; fill-opacity: 0.3; stroke: #ffffff; stroke-opacity: 0.3"/>
    </g>
   </g>
   <g id="line2d_1">
    <path d="M 47.92686 51.658724 
L 48.774098 57.078059 
L 49.621336 57.300496 
L 50.468574 57.670932 
L 51.315813 58.409909 
L 52.163051 59.858031 
L 54.704766 66.155288 
L 55.552004 68.064955 
L 56.399242 70.455108 
L 57.246481 73.676593 
L 58.093719 78.072841 
L 59.788196 89.081861 
L 64.024387 117.886421 
L 65.718864 128.203168 
L 67.41334 136.723481 
L 71.649532 155.065013 
L 73.344008 163.657258 
L 79.274676 195.378565 
L 81.816391 206.542862 
L 82.663629 208.885613 
L 85.205344 213.392686 
L 87.747059 217.271215 
L 90.288774 220.599973 
L 91.983251 222.507668 
L 93.677727 224.174886 
L 95.372204 225.598819 
L 97.913919 227.345142 
L 100.455634 228.716196 
L 102.997348 229.792873 
L 105.539063 230.639277 
L 108.928017 231.495117 
L 112.31697 232.15258 
L 116.553161 232.763733 
L 121.636591 233.310634 
L 129.261736 233.874812 
L 136.88688 234.27891 
L 154.678884 234.866221 
L 170.776412 235.210923 
L 225.846901 235.862666 
L 251.26405 236.003462 
L 251.26405 236.003462 
" clip-path="url(#p1c07d4d3e6)" style="fill: none; stroke: #4c72b0; stroke-width: 1.5; stroke-linecap: round"/>
   </g>
   <g id="line2d_2">
    <path d="M 47.92686 37.622806 
L 48.774098 44.379561 
L 49.621336 44.730031 
L 50.468574 45.857843 
L 51.315813 49.803362 
L 52.163051 55.320793 
L 53.010289 58.721515 
L 54.704766 63.042097 
L 55.552004 66.075131 
L 56.399242 70.337747 
L 60.635434 96.566943 
L 61.482672 102.304091 
L 62.32991 109.084234 
L 64.024387 125.38675 
L 68.260579 168.951491 
L 69.955055 183.723523 
L 71.649532 195.78024 
L 73.344008 205.272258 
L 75.038485 212.134999 
L 75.885723 214.732787 
L 76.732961 216.857561 
L 78.427438 220.050975 
L 80.121915 222.218975 
L 81.816391 223.759423 
L 82.663629 224.497645 
L 87.747059 226.324137 
L 94.524966 228.392125 
L 100.455634 229.894887 
L 106.386302 231.145575 
L 112.31697 232.162768 
L 119.094876 233.080102 
L 126.720021 233.899683 
L 136.039642 234.655303 
L 146.206501 235.238557 
L 158.067837 235.727855 
L 172.470888 236.136446 
L 197.040799 236.550371 
L 232.624807 236.82238 
L 251.26405 236.906204 
L 251.26405 236.906204 
" clip-path="url(#p1c07d4d3e6)" style="fill: none; stroke: #dd8452; stroke-width: 1.5; stroke-linecap: round"/>
   </g>
   <g id="line2d_3">
    <path d="M 64.871625 247.111875 
L 64.871625 27.6 
" clip-path="url(#p1c07d4d3e6)" style="fill: none; stroke-dasharray: 1.85,0.8; stroke-dashoffset: 0; stroke: #1a1a1a; stroke-width: 0.5"/>
   </g>
   <g id="line2d_4">
    <path d="M 81.816391 247.111875 
L 81.816391 27.6 
" clip-path="url(#p1c07d4d3e6)" style="fill: none; stroke-dasharray: 1.85,0.8; stroke-dashoffset: 0; stroke: #1a1a1a; stroke-width: 0.5"/>
   </g>
   <g id="line2d_5">
    <path d="M 132.650689 247.111875 
L 132.650689 27.6 
" clip-path="url(#p1c07d4d3e6)" style="fill: none; stroke-dasharray: 1.85,0.8; stroke-dashoffset: 0; stroke: #1a1a1a; stroke-width: 0.5"/>
   </g>
   <g id="patch_3">
    <path d="M 37.76 247.111875 
L 37.76 27.6 
" style="fill: none; stroke: #262626; stroke-width: 1.25; stroke-linejoin: miter; stroke-linecap: square"/>
   </g>
   <g id="patch_4">
    <path d="M 261.430909 247.111875 
L 261.430909 27.6 
" style="fill: none; stroke: #262626; stroke-width: 1.25; stroke-linejoin: miter; stroke-linecap: square"/>
   </g>
   <g id="patch_5">
    <path d="M 37.76 247.111875 
L 261.430909 247.111875 
" style="fill: none; stroke: #262626; stroke-width: 1.25; stroke-linejoin: miter; stroke-linecap: square"/>
   </g>
   <g id="patch_6">
    <path d="M 37.76 27.6 
L 261.430909 27.6 
" style="fill: none; stroke: #262626; stroke-width: 1.25; stroke-linejoin: miter; stroke-linecap: square"/>
   </g>
   <g id="text_14">
    <text style="fill: #262626; font: 12px 'sans-serif'; text-anchor: middle" x="149.595455" y="21.6" transform="rotate(-0, 149.595455, 21.6)">Loss</text>
   </g>
   <g id="legend_1">
    <g id="patch_7">
     <path d="M 182.454347 67.648594 
L 253.730909 67.648594 
Q 255.930909 67.648594 255.930909 65.448594 
L 255.930909 35.3 
Q 255.930909 33.1 253.730909 33.1 
L 182.454347 33.1 
Q 180.254347 33.1 180.254347 35.3 
L 180.254347 65.448594 
Q 180.254347 67.648594 182.454347 67.648594 
z
" style="fill: #ffffff; opacity: 0.8; stroke: #cccccc; stroke-linejoin: miter"/>
    </g>
    <g id="line2d_6">
     <path d="M 184.654347 41.523594 
L 195.654347 41.523594 
L 206.654347 41.523594 
" style="fill: none; stroke: #4c72b0; stroke-width: 1.5; stroke-linecap: round"/>
    </g>
    <g id="text_15">
     <text style="fill: #262626; font: 11px 'sans-serif'; text-anchor: start" x="215.454347" y="45.373594" transform="rotate(-0, 215.454347, 45.373594)">English</text>
    </g>
    <g id="line2d_7">
     <path d="M 184.654347 57.212344 
L 195.654347 57.212344 
L 206.654347 57.212344 
" style="fill: none; stroke: #dd8452; stroke-width: 1.5; stroke-linecap: round"/>
    </g>
    <g id="text_16">
     <text style="fill: #262626; font: 11px 'sans-serif'; text-anchor: start" x="215.454347" y="61.062344" transform="rotate(-0, 215.454347, 61.062344)">French</text>
    </g>
   </g>
  </g>
  <g id="axes_2">
   <g id="patch_8">
    <path d="M 37.76 528.66 
L 261.430909 528.66 
L 261.430909 309.148125 
L 37.76 309.148125 
z
" style="fill: #ffffff"/>
   </g>
   <g id="matplotlib.axis_3">
    <g id="xtick_7">
     <g id="text_17">
      <text style="fill: #262626; font: 11px 'sans-serif'; text-anchor: middle" x="47.92686" y="546.033594" transform="rotate(-0, 47.92686, 546.033594)">0</text>
     </g>
    </g>
    <g id="xtick_8">
     <g id="text_18">
      <text style="fill: #262626; font: 11px 'sans-serif'; text-anchor: middle" x="90.288774" y="546.033594" transform="rotate(-0, 90.288774, 546.033594)">2500</text>
     </g>
    </g>
    <g id="xtick_9">
     <g id="text_19">
      <text style="fill: #262626; font: 11px 'sans-serif'; text-anchor: middle" x="132.650689" y="546.033594" transform="rotate(-0, 132.650689, 546.033594)">5000</text>
     </g>
    </g>
    <g id="xtick_10">
     <g id="text_20">
      <text style="fill: #262626; font: 11px 'sans-serif'; text-anchor: middle" x="175.012603" y="546.033594" transform="rotate(-0, 175.012603, 546.033594)">7500</text>
     </g>
    </g>
    <g id="xtick_11">
     <g id="text_21">
      <text style="fill: #262626; font: 11px 'sans-serif'; text-anchor: middle" x="217.374518" y="546.033594" transform="rotate(-0, 217.374518, 546.033594)">10000</text>
     </g>
    </g>
    <g id="xtick_12">
     <g id="text_22">
      <text style="fill: #262626; font: 11px 'sans-serif'; text-anchor: middle" x="259.736433" y="546.033594" transform="rotate(-0, 259.736433, 546.033594)">12500</text>
     </g>
    </g>
    <g id="text_23">
     <text style="fill: #262626; font: 12px 'sans-serif'; text-anchor: middle" x="149.595455" y="560.809219" transform="rotate(-0, 149.595455, 560.809219)">Epoch</text>
    </g>
   </g>
   <g id="matplotlib.axis_4">
    <g id="ytick_7">
     <g id="text_24">
      <text style="fill: #262626; font: 11px 'sans-serif'; text-anchor: end" x="28.26" y="516.310214" transform="rotate(-0, 28.26, 516.310214)">0.5</text>
     </g>
    </g>
    <g id="ytick_8">
     <g id="text_25">
      <text style="fill: #262626; font: 11px 'sans-serif'; text-anchor: end" x="28.26" y="477.51431" transform="rotate(-0, 28.26, 477.51431)">0.6</text>
     </g>
    </g>
    <g id="ytick_9">
     <g id="text_26">
      <text style="fill: #262626; font: 11px 'sans-serif'; text-anchor: end" x="28.26" y="438.718407" transform="rotate(-0, 28.26, 438.718407)">0.7</text>
     </g>
    </g>
    <g id="ytick_10">
     <g id="text_27">
      <text style="fill: #262626; font: 11px 'sans-serif'; text-anchor: end" x="28.26" y="399.922503" transform="rotate(-0, 28.26, 399.922503)">0.8</text>
     </g>
    </g>
    <g id="ytick_11">
     <g id="text_28">
      <text style="fill: #262626; font: 11px 'sans-serif'; text-anchor: end" x="28.26" y="361.126599" transform="rotate(-0, 28.26, 361.126599)">0.9</text>
     </g>
    </g>
    <g id="ytick_12">
     <g id="text_29">
      <text style="fill: #262626; font: 11px 'sans-serif'; text-anchor: end" x="28.26" y="322.330696" transform="rotate(-0, 28.26, 322.330696)">1.0</text>
     </g>
    </g>
   </g>
   <g id="PolyCollection_3">
    <defs>
     <path id="m6da4fb7fcb" d="M 47.92686 -63.626583 
L 47.92686 -63.626583 
L 48.774098 -63.626583 
L 49.621336 -63.626583 
L 50.468574 -63.626583 
L 51.315813 -63.626583 
L 52.163051 -63.609104 
L 53.010289 -63.347746 
L 53.857528 -62.758226 
L 54.704766 -62.41143 
L 55.552004 -62.346348 
L 56.399242 -62.244334 
L 57.246481 -61.989141 
L 58.093719 -61.648008 
L 58.940957 -60.924144 
L 59.788196 -60.17654 
L 60.635434 -59.683692 
L 61.482672 -60.114193 
L 62.32991 -61.944251 
L 63.177149 -65.246941 
L 64.024387 -69.827377 
L 64.871625 -75.098519 
L 65.718864 -79.588366 
L 66.566102 -84.32968 
L 67.41334 -89.497064 
L 68.260579 -93.747646 
L 69.107817 -96.982149 
L 69.955055 -99.768093 
L 70.802293 -101.983002 
L 71.649532 -103.999231 
L 72.49677 -106.72696 
L 73.344008 -108.846452 
L 74.191247 -112.231382 
L 75.038485 -114.653907 
L 75.885723 -117.518408 
L 76.732961 -120.184062 
L 77.5802 -123.03116 
L 78.427438 -125.629882 
L 79.274676 -130.108533 
L 80.121915 -134.886793 
L 80.969153 -139.75723 
L 81.816391 -146.293565 
L 82.663629 -151.330198 
L 83.510868 -155.19792 
L 84.358106 -159.137676 
L 85.205344 -163.155307 
L 86.052583 -167.135659 
L 86.899821 -170.716323 
L 87.747059 -174.459221 
L 88.594298 -177.954252 
L 89.441536 -181.39195 
L 90.288774 -184.788562 
L 91.136012 -188.270586 
L 91.983251 -191.25772 
L 92.830489 -193.803899 
L 93.677727 -196.641476 
L 94.524966 -199.603447 
L 95.372204 -202.218382 
L 96.219442 -204.324006 
L 97.06668 -206.93943 
L 97.913919 -209.310662 
L 98.761157 -211.215669 
L 99.608395 -213.568773 
L 100.455634 -215.303054 
L 101.302872 -216.885215 
L 102.15011 -218.698053 
L 102.997348 -220.050071 
L 103.844587 -221.392264 
L 104.691825 -222.453177 
L 105.539063 -223.891346 
L 106.386302 -225.111876 
L 107.23354 -225.877366 
L 108.080778 -226.893448 
L 108.928017 -227.601343 
L 109.775255 -228.432469 
L 110.622493 -228.824303 
L 111.469731 -229.449138 
L 112.31697 -230.462697 
L 113.164208 -231.017939 
L 114.011446 -231.724008 
L 114.858685 -232.343655 
L 115.705923 -232.503806 
L 116.553161 -232.90425 
L 117.400399 -233.635461 
L 118.247638 -233.945265 
L 119.094876 -234.282618 
L 119.942114 -234.706024 
L 120.789353 -234.969045 
L 121.636591 -235.46064 
L 122.483829 -235.949618 
L 123.331067 -236.196942 
L 124.178306 -236.219156 
L 125.025544 -236.810399 
L 125.872782 -237.05284 
L 126.720021 -237.327519 
L 127.567259 -237.476448 
L 128.414497 -237.838269 
L 129.261736 -237.941544 
L 130.108974 -238.214758 
L 130.956212 -238.583451 
L 131.80345 -238.650918 
L 132.650689 -239.210891 
L 133.497927 -239.014526 
L 134.345165 -239.506676 
L 135.192404 -239.779092 
L 136.039642 -239.822335 
L 136.88688 -240.064207 
L 137.734118 -240.295328 
L 138.581357 -240.485565 
L 139.428595 -240.796284 
L 140.275833 -240.995636 
L 141.123072 -241.180347 
L 141.97031 -241.503739 
L 142.817548 -241.534562 
L 143.664787 -241.734489 
L 144.512025 -241.854155 
L 145.359263 -242.361626 
L 146.206501 -242.157389 
L 147.05374 -242.604855 
L 147.900978 -242.511933 
L 148.748216 -242.629573 
L 149.595455 -242.893427 
L 150.442693 -243.109452 
L 151.289931 -243.461607 
L 152.137169 -243.34304 
L 152.984408 -243.582529 
L 153.831646 -243.815096 
L 154.678884 -244.020967 
L 155.526123 -243.870262 
L 156.373361 -243.861325 
L 157.220599 -244.123706 
L 158.067837 -244.401015 
L 158.915076 -244.405372 
L 159.762314 -244.538892 
L 160.609552 -244.81871 
L 161.456791 -244.994524 
L 162.304029 -244.972523 
L 163.151267 -244.936823 
L 163.998506 -245.104824 
L 164.845744 -245.391191 
L 165.692982 -245.331222 
L 166.54022 -245.602898 
L 167.387459 -245.704305 
L 168.234697 -245.857659 
L 169.081935 -246.117806 
L 169.929174 -246.09869 
L 170.776412 -246.079199 
L 171.62365 -246.410797 
L 172.470888 -246.424703 
L 173.318127 -246.349878 
L 174.165365 -246.597438 
L 175.012603 -246.676512 
L 175.859842 -246.836213 
L 176.70708 -246.938612 
L 177.554318 -247.04951 
L 178.401556 -247.227253 
L 179.248795 -247.277113 
L 180.096033 -247.406587 
L 180.943271 -247.463209 
L 181.79051 -247.497813 
L 182.637748 -247.521567 
L 183.484986 -247.652713 
L 184.332225 -247.714057 
L 185.179463 -247.764533 
L 186.026701 -247.862144 
L 186.873939 -247.895579 
L 187.721178 -248.012224 
L 188.568416 -247.972259 
L 189.415654 -248.229669 
L 190.262893 -248.27255 
L 191.110131 -248.310222 
L 191.957369 -248.304101 
L 192.804607 -248.21563 
L 193.651846 -248.406226 
L 194.499084 -248.710419 
L 195.346322 -248.590283 
L 196.193561 -248.685351 
L 197.040799 -248.771047 
L 197.888037 -248.696493 
L 198.735275 -248.940439 
L 199.582514 -248.9448 
L 200.429752 -248.983365 
L 201.27699 -248.982907 
L 202.124229 -249.227718 
L 202.971467 -249.31663 
L 203.818705 -249.244901 
L 204.665944 -249.341222 
L 205.513182 -249.462482 
L 206.36042 -249.582088 
L 207.207658 -249.564018 
L 208.054897 -249.648746 
L 208.902135 -249.628385 
L 209.749373 -249.764389 
L 210.596612 -249.686561 
L 211.44385 -249.863665 
L 212.291088 -249.891984 
L 213.138326 -250.017601 
L 213.985565 -250.183519 
L 214.832803 -250.298789 
L 215.680041 -250.282262 
L 216.52728 -250.147925 
L 217.374518 -250.351093 
L 218.221756 -250.423217 
L 219.068994 -250.3226 
L 219.916233 -250.500775 
L 220.763471 -250.40566 
L 221.610709 -250.473371 
L 222.457948 -250.507229 
L 223.305186 -250.504081 
L 224.152424 -250.653314 
L 224.999663 -250.566568 
L 225.846901 -250.714957 
L 226.694139 -250.73921 
L 227.541377 -250.84443 
L 228.388616 -250.828427 
L 229.235854 -250.844257 
L 230.083092 -250.884428 
L 230.930331 -250.873887 
L 231.777569 -251.12849 
L 232.624807 -250.931602 
L 233.472045 -250.905196 
L 234.319284 -250.900961 
L 235.166522 -250.973318 
L 236.01376 -250.963569 
L 236.860999 -251.121674 
L 237.708237 -251.170759 
L 238.555475 -251.086224 
L 239.402713 -251.206074 
L 240.249952 -251.149256 
L 241.09719 -251.25661 
L 241.944428 -251.221372 
L 242.791667 -251.398479 
L 243.638905 -251.325548 
L 244.486143 -251.238714 
L 245.333382 -251.399159 
L 246.18062 -251.207163 
L 247.027858 -251.392825 
L 247.875096 -251.476419 
L 248.722335 -251.425742 
L 249.569573 -251.512684 
L 250.416811 -251.556005 
L 251.26405 -251.532269 
L 251.26405 -253.19121 
L 251.26405 -253.19121 
L 250.416811 -253.279383 
L 249.569573 -253.210794 
L 248.722335 -253.148521 
L 247.875096 -253.172451 
L 247.027858 -253.10683 
L 246.18062 -252.956757 
L 245.333382 -253.063193 
L 244.486143 -252.961444 
L 243.638905 -253.024893 
L 242.791667 -253.062808 
L 241.944428 -252.942552 
L 241.09719 -252.980852 
L 240.249952 -252.864385 
L 239.402713 -252.919479 
L 238.555475 -252.815506 
L 237.708237 -252.917489 
L 236.860999 -252.817359 
L 236.01376 -252.677036 
L 235.166522 -252.704588 
L 234.319284 -252.627733 
L 233.472045 -252.698105 
L 232.624807 -252.671698 
L 231.777569 -252.773241 
L 230.930331 -252.617502 
L 230.083092 -252.605896 
L 229.235854 -252.607698 
L 228.388616 -252.549985 
L 227.541377 -252.571286 
L 226.694139 -252.489987 
L 225.846901 -252.47587 
L 224.999663 -252.287461 
L 224.152424 -252.389365 
L 223.305186 -252.312645 
L 222.457948 -252.273258 
L 221.610709 -252.196271 
L 220.763471 -252.225612 
L 219.916233 -252.242409 
L 219.068994 -252.045415 
L 218.221756 -252.169687 
L 217.374518 -252.166138 
L 216.52728 -251.921661 
L 215.680041 -252.08362 
L 214.832803 -252.105464 
L 213.985565 -251.996913 
L 213.138326 -251.827096 
L 212.291088 -251.803497 
L 211.44385 -251.682603 
L 210.596612 -251.560212 
L 209.749373 -251.520752 
L 208.902135 -251.469171 
L 208.054897 -251.523419 
L 207.207658 -251.384324 
L 206.36042 -251.441928 
L 205.513182 -251.372882 
L 204.665944 -251.195713 
L 203.818705 -251.143885 
L 202.971467 -251.14783 
L 202.124229 -251.047026 
L 201.27699 -250.880429 
L 200.429752 -250.807493 
L 199.582514 -250.844993 
L 198.735275 -250.85042 
L 197.888037 -250.568918 
L 197.040799 -250.685146 
L 196.193561 -250.619494 
L 195.346322 -250.451305 
L 194.499084 -250.593362 
L 193.651846 -250.298562 
L 192.804607 -250.118254 
L 191.957369 -250.210971 
L 191.110131 -250.133443 
L 190.262893 -250.130611 
L 189.415654 -250.065846 
L 188.568416 -249.912914 
L 187.721178 -249.904923 
L 186.873939 -249.764707 
L 186.026701 -249.720336 
L 185.179463 -249.667664 
L 184.332225 -249.567861 
L 183.484986 -249.515162 
L 182.637748 -249.385181 
L 181.79051 -249.410001 
L 180.943271 -249.334825 
L 180.096033 -249.315774 
L 179.248795 -249.253401 
L 178.401556 -249.112477 
L 177.554318 -248.95875 
L 176.70708 -248.921498 
L 175.859842 -248.759574 
L 175.012603 -248.657082 
L 174.165365 -248.551769 
L 173.318127 -248.274946 
L 172.470888 -248.384508 
L 171.62365 -248.32061 
L 170.776412 -248.061743 
L 169.929174 -248.036921 
L 169.081935 -248.016741 
L 168.234697 -247.97739 
L 167.387459 -247.677771 
L 166.54022 -247.629964 
L 165.692982 -247.305849 
L 164.845744 -247.430265 
L 163.998506 -247.116575 
L 163.151267 -246.982946 
L 162.304029 -246.942984 
L 161.456791 -246.958288 
L 160.609552 -246.757865 
L 159.762314 -246.594302 
L 158.915076 -246.499739 
L 158.067837 -246.463591 
L 157.220599 -246.216515 
L 156.373361 -245.958776 
L 155.526123 -245.987145 
L 154.678884 -246.054931 
L 153.831646 -245.844067 
L 152.984408 -245.667361 
L 152.137169 -245.46027 
L 151.289931 -245.520761 
L 150.442693 -245.200381 
L 149.595455 -245.043368 
L 148.748216 -244.815878 
L 147.900978 -244.673459 
L 147.05374 -244.79583 
L 146.206501 -244.313901 
L 145.359263 -244.435806 
L 144.512025 -244.120462 
L 143.664787 -243.974738 
L 142.817548 -243.761128 
L 141.97031 -243.714144 
L 141.123072 -243.428953 
L 140.275833 -243.271534 
L 139.428595 -243.133018 
L 138.581357 -242.844749 
L 137.734118 -242.66088 
L 136.88688 -242.354827 
L 136.039642 -242.188491 
L 135.192404 -242.254115 
L 134.345165 -241.924339 
L 133.497927 -241.488159 
L 132.650689 -241.573171 
L 131.80345 -241.152589 
L 130.956212 -241.175288 
L 130.108974 -240.859725 
L 129.261736 -240.603226 
L 128.414497 -240.405939 
L 127.567259 -240.162372 
L 126.720021 -239.96491 
L 125.872782 -239.769562 
L 125.025544 -239.45884 
L 124.178306 -238.98959 
L 123.331067 -238.962778 
L 122.483829 -238.713429 
L 121.636591 -238.295391 
L 120.789353 -237.851194 
L 119.942114 -237.542936 
L 119.094876 -237.277824 
L 118.247638 -237.00233 
L 117.400399 -236.560725 
L 116.553161 -235.989504 
L 115.705923 -235.706758 
L 114.858685 -235.546095 
L 114.011446 -235.016786 
L 113.164208 -234.439605 
L 112.31697 -233.819246 
L 111.469731 -233.084859 
L 110.622493 -232.529828 
L 109.775255 -232.219282 
L 108.928017 -231.436758 
L 108.080778 -230.902968 
L 107.23354 -230.119944 
L 106.386302 -229.47429 
L 105.539063 -228.530134 
L 104.691825 -227.347446 
L 103.844587 -226.377974 
L 102.997348 -225.413726 
L 102.15011 -224.481689 
L 101.302872 -222.841268 
L 100.455634 -221.591545 
L 99.608395 -220.200836 
L 98.761157 -218.233099 
L 97.913919 -216.6646 
L 97.06668 -214.581763 
L 96.219442 -212.468137 
L 95.372204 -210.670723 
L 94.524966 -208.474013 
L 93.677727 -206.010415 
L 92.830489 -203.368607 
L 91.983251 -201.188931 
L 91.136012 -198.454679 
L 90.288774 -195.324344 
L 89.441536 -192.010008 
L 88.594298 -188.785256 
L 87.747059 -185.169123 
L 86.899821 -181.229587 
L 86.052583 -177.457143 
L 85.205344 -173.319633 
L 84.358106 -168.901823 
L 83.510868 -164.534943 
L 82.663629 -160.305586 
L 81.816391 -154.157392 
L 80.969153 -146.827196 
L 80.121915 -141.721358 
L 79.274676 -135.763003 
L 78.427438 -130.120421 
L 77.5802 -126.865274 
L 76.732961 -123.728226 
L 75.885723 -121.440786 
L 75.038485 -119.249721 
L 74.191247 -117.279804 
L 73.344008 -114.610586 
L 72.49677 -112.817663 
L 71.649532 -110.277286 
L 70.802293 -108.360569 
L 69.955055 -106.000695 
L 69.107817 -103.022738 
L 68.260579 -99.735728 
L 67.41334 -95.619013 
L 66.566102 -90.672565 
L 65.718864 -86.121042 
L 64.871625 -81.456208 
L 64.024387 -75.828696 
L 63.177149 -70.255395 
L 62.32991 -65.512702 
L 61.482672 -61.787853 
L 60.635434 -60.469592 
L 59.788196 -60.960963 
L 58.940957 -61.567203 
L 58.093719 -62.103924 
L 57.246481 -62.338081 
L 56.399242 -62.487902 
L 55.552004 -62.549209 
L 54.704766 -62.621614 
L 53.857528 -62.940454 
L 53.010289 -63.450106 
L 52.163051 -63.625411 
L 51.315813 -63.626583 
L 50.468574 -63.626583 
L 49.621336 -63.626583 
L 48.774098 -63.626583 
L 47.92686 -63.626583 
z
" style="stroke: #ffffff; stroke-opacity: 0.3"/>
    </defs>
    <g clip-path="url(#pe982d86d33)">
     <use xlink:href="#m6da4fb7fcb" x="0" y="576" style="fill: #4c72b0; fill-opacity: 0.3; stroke: #ffffff; stroke-opacity: 0.3"/>
    </g>
   </g>
   <g id="PolyCollection_4">
    <defs>
     <path id="mcbc927c85d" d="M 47.92686 -63.626583 
L 47.92686 -63.626583 
L 48.774098 -63.626583 
L 49.621336 -63.626583 
L 50.468574 -63.626583 
L 51.315813 -63.014453 
L 52.163051 -60.478603 
L 53.010289 -59.427184 
L 53.857528 -59.627691 
L 54.704766 -59.854301 
L 55.552004 -59.956953 
L 56.399242 -59.541238 
L 57.246481 -58.926748 
L 58.093719 -58.269975 
L 58.940957 -57.688155 
L 59.788196 -57.317812 
L 60.635434 -57.323555 
L 61.482672 -57.48628 
L 62.32991 -58.226926 
L 63.177149 -59.436346 
L 64.024387 -60.889086 
L 64.871625 -63.0758 
L 65.718864 -66.133995 
L 66.566102 -70.91894 
L 67.41334 -77.56863 
L 68.260579 -85.255954 
L 69.107817 -94.45539 
L 69.955055 -104.587103 
L 70.802293 -114.128369 
L 71.649532 -123.936822 
L 72.49677 -134.755965 
L 73.344008 -145.961179 
L 74.191247 -155.558753 
L 75.038485 -167.388267 
L 75.885723 -176.161341 
L 76.732961 -184.720762 
L 77.5802 -191.82838 
L 78.427438 -198.060845 
L 79.274676 -202.573105 
L 80.121915 -206.960203 
L 80.969153 -209.764379 
L 81.816391 -211.708823 
L 82.663629 -215.009787 
L 83.510868 -216.064422 
L 84.358106 -216.662543 
L 85.205344 -217.596623 
L 86.052583 -218.569348 
L 86.899821 -219.103945 
L 87.747059 -219.807785 
L 88.594298 -220.446772 
L 89.441536 -220.972795 
L 90.288774 -221.432182 
L 91.136012 -221.902593 
L 91.983251 -222.728071 
L 92.830489 -223.264633 
L 93.677727 -223.944983 
L 94.524966 -224.477843 
L 95.372204 -224.880178 
L 96.219442 -225.62549 
L 97.06668 -226.248411 
L 97.913919 -226.639349 
L 98.761157 -227.254908 
L 99.608395 -227.743422 
L 100.455634 -228.638924 
L 101.302872 -229.077468 
L 102.15011 -229.734816 
L 102.997348 -230.173206 
L 103.844587 -230.60885 
L 104.691825 -230.998822 
L 105.539063 -231.425917 
L 106.386302 -231.8353 
L 107.23354 -232.393725 
L 108.080778 -232.625593 
L 108.928017 -233.271551 
L 109.775255 -233.79902 
L 110.622493 -234.231758 
L 111.469731 -234.770333 
L 112.31697 -235.045609 
L 113.164208 -235.554038 
L 114.011446 -236.034166 
L 114.858685 -236.512431 
L 115.705923 -236.9695 
L 116.553161 -237.53796 
L 117.400399 -237.880224 
L 118.247638 -238.316707 
L 119.094876 -238.697029 
L 119.942114 -239.004448 
L 120.789353 -239.552926 
L 121.636591 -239.916571 
L 122.483829 -240.284954 
L 123.331067 -240.837601 
L 124.178306 -241.343083 
L 125.025544 -241.719251 
L 125.872782 -242.127024 
L 126.720021 -242.443018 
L 127.567259 -242.6247 
L 128.414497 -242.948752 
L 129.261736 -243.566185 
L 130.108974 -243.925212 
L 130.956212 -244.002674 
L 131.80345 -244.644611 
L 132.650689 -244.824563 
L 133.497927 -245.097015 
L 134.345165 -245.460299 
L 135.192404 -245.740778 
L 136.039642 -246.127952 
L 136.88688 -246.345257 
L 137.734118 -246.757835 
L 138.581357 -246.844518 
L 139.428595 -247.238965 
L 140.275833 -247.477342 
L 141.123072 -247.743806 
L 141.97031 -248.064474 
L 142.817548 -247.949338 
L 143.664787 -248.387845 
L 144.512025 -248.663048 
L 145.359263 -248.585478 
L 146.206501 -248.959363 
L 147.05374 -249.214307 
L 147.900978 -249.305996 
L 148.748216 -249.58302 
L 149.595455 -249.869967 
L 150.442693 -250.046027 
L 151.289931 -250.336682 
L 152.137169 -250.472281 
L 152.984408 -250.638622 
L 153.831646 -250.701262 
L 154.678884 -251.002349 
L 155.526123 -251.132172 
L 156.373361 -251.166499 
L 157.220599 -251.298129 
L 158.067837 -251.399144 
L 158.915076 -251.611084 
L 159.762314 -251.733087 
L 160.609552 -251.846369 
L 161.456791 -251.971418 
L 162.304029 -252.104397 
L 163.151267 -252.229968 
L 163.998506 -252.466028 
L 164.845744 -252.604636 
L 165.692982 -252.572066 
L 166.54022 -252.720418 
L 167.387459 -252.755782 
L 168.234697 -253.02861 
L 169.081935 -252.899877 
L 169.929174 -253.106851 
L 170.776412 -253.197605 
L 171.62365 -253.338122 
L 172.470888 -253.37388 
L 173.318127 -253.435679 
L 174.165365 -253.594069 
L 175.012603 -253.654882 
L 175.859842 -253.871193 
L 176.70708 -253.81234 
L 177.554318 -254.010325 
L 178.401556 -253.92234 
L 179.248795 -254.004443 
L 180.096033 -254.059347 
L 180.943271 -254.081297 
L 181.79051 -254.073108 
L 182.637748 -254.130846 
L 183.484986 -254.346477 
L 184.332225 -254.313513 
L 185.179463 -254.367875 
L 186.026701 -254.354982 
L 186.873939 -254.345236 
L 187.721178 -254.586679 
L 188.568416 -254.56569 
L 189.415654 -254.561317 
L 190.262893 -254.70753 
L 191.110131 -254.625458 
L 191.957369 -254.66325 
L 192.804607 -254.786163 
L 193.651846 -254.830582 
L 194.499084 -254.887886 
L 195.346322 -254.876975 
L 196.193561 -254.786747 
L 197.040799 -254.883768 
L 197.888037 -254.943224 
L 198.735275 -254.880571 
L 199.582514 -255.074959 
L 200.429752 -255.044728 
L 201.27699 -255.043068 
L 202.124229 -255.140451 
L 202.971467 -255.166491 
L 203.818705 -255.18774 
L 204.665944 -255.174056 
L 205.513182 -255.330531 
L 206.36042 -255.302399 
L 207.207658 -255.279632 
L 208.054897 -255.325164 
L 208.902135 -255.29395 
L 209.749373 -255.386101 
L 210.596612 -255.531591 
L 211.44385 -255.435221 
L 212.291088 -255.489982 
L 213.138326 -255.513605 
L 213.985565 -255.493416 
L 214.832803 -255.644127 
L 215.680041 -255.52982 
L 216.52728 -255.604479 
L 217.374518 -255.600923 
L 218.221756 -255.644847 
L 219.068994 -255.680915 
L 219.916233 -255.627614 
L 220.763471 -255.61469 
L 221.610709 -255.627328 
L 222.457948 -255.61689 
L 223.305186 -255.662999 
L 224.152424 -255.792452 
L 224.999663 -255.70581 
L 225.846901 -255.737565 
L 226.694139 -255.777407 
L 227.541377 -255.773946 
L 228.388616 -255.764402 
L 229.235854 -255.754855 
L 230.083092 -255.761629 
L 230.930331 -255.794238 
L 231.777569 -255.796168 
L 232.624807 -255.831055 
L 233.472045 -255.849398 
L 234.319284 -255.812513 
L 235.166522 -255.848583 
L 236.01376 -255.903469 
L 236.860999 -255.910387 
L 237.708237 -255.837357 
L 238.555475 -255.941044 
L 239.402713 -255.959173 
L 240.249952 -256.021237 
L 241.09719 -255.927784 
L 241.944428 -255.904518 
L 242.791667 -255.981511 
L 243.638905 -255.92275 
L 244.486143 -255.961253 
L 245.333382 -255.999304 
L 246.18062 -256.058865 
L 247.027858 -255.949438 
L 247.875096 -256.053177 
L 248.722335 -255.962098 
L 249.569573 -255.985959 
L 250.416811 -256.008512 
L 251.26405 -256.019991 
L 251.26405 -256.843074 
L 251.26405 -256.843074 
L 250.416811 -256.824412 
L 249.569573 -256.812934 
L 248.722335 -256.833877 
L 247.875096 -256.874063 
L 247.027858 -256.779446 
L 246.18062 -256.873236 
L 245.333382 -256.832646 
L 244.486143 -256.803608 
L 243.638905 -256.769185 
L 242.791667 -256.808629 
L 241.944428 -256.754358 
L 241.09719 -256.762208 
L 240.249952 -256.838912 
L 239.402713 -256.795963 
L 238.555475 -256.782979 
L 237.708237 -256.681506 
L 236.860999 -256.744601 
L 236.01376 -256.74763 
L 235.166522 -256.70042 
L 234.319284 -256.666483 
L 233.472045 -256.700578 
L 232.624807 -256.685863 
L 231.777569 -256.648797 
L 230.930331 -256.6517 
L 230.083092 -256.611384 
L 229.235854 -256.621074 
L 228.388616 -256.608611 
L 227.541377 -256.636014 
L 226.694139 -256.628663 
L 225.846901 -256.597526 
L 224.999663 -256.561219 
L 224.152424 -256.646678 
L 223.305186 -256.569025 
L 222.457948 -256.545126 
L 221.610709 -256.534689 
L 220.763471 -256.51524 
L 219.916233 -256.535376 
L 219.068994 -256.545277 
L 218.221756 -256.516198 
L 217.374518 -256.521228 
L 216.52728 -256.515726 
L 215.680041 -256.452315 
L 214.832803 -256.576229 
L 213.985565 -256.421629 
L 213.138326 -256.441791 
L 212.291088 -256.423119 
L 211.44385 -256.380159 
L 210.596612 -256.430612 
L 209.749373 -256.329131 
L 208.902135 -256.284183 
L 208.054897 -256.287001 
L 207.207658 -256.275653 
L 206.36042 -256.270873 
L 205.513182 -256.277744 
L 204.665944 -256.192109 
L 203.818705 -256.177454 
L 202.971467 -256.162727 
L 202.124229 -256.152791 
L 201.27699 -256.015843 
L 200.429752 -256.052588 
L 199.582514 -256.111327 
L 198.735275 -255.9197 
L 197.888037 -255.999006 
L 197.040799 -255.965606 
L 196.193561 -255.861353 
L 195.346322 -255.916487 
L 194.499084 -255.924539 
L 193.651846 -255.893846 
L 192.804607 -255.86534 
L 191.957369 -255.839973 
L 191.110131 -255.753795 
L 190.262893 -255.768953 
L 189.415654 -255.675001 
L 188.568416 -255.648751 
L 187.721178 -255.681725 
L 186.873939 -255.540073 
L 186.026701 -255.492405 
L 185.179463 -255.477565 
L 184.332225 -255.440045 
L 183.484986 -255.488269 
L 182.637748 -255.327611 
L 181.79051 -255.344508 
L 180.943271 -255.339237 
L 180.096033 -255.319375 
L 179.248795 -255.23329 
L 178.401556 -255.180244 
L 177.554318 -255.269706 
L 176.70708 -255.140502 
L 175.859842 -255.113736 
L 175.012603 -254.966881 
L 174.165365 -254.924629 
L 173.318127 -254.785974 
L 172.470888 -254.738869 
L 171.62365 -254.664755 
L 170.776412 -254.586984 
L 169.929174 -254.496886 
L 169.081935 -254.302287 
L 168.234697 -254.398163 
L 167.387459 -254.241708 
L 166.54022 -254.208037 
L 165.692982 -254.071494 
L 164.845744 -254.075873 
L 163.998506 -253.985499 
L 163.151267 -253.792274 
L 162.304029 -253.630523 
L 161.456791 -253.508752 
L 160.609552 -253.483577 
L 159.762314 -253.366906 
L 158.915076 -253.258949 
L 158.067837 -253.050845 
L 157.220599 -252.943782 
L 156.373361 -252.817258 
L 155.526123 -252.824848 
L 154.678884 -252.742702 
L 153.831646 -252.441432 
L 152.984408 -252.362111 
L 152.137169 -252.294607 
L 151.289931 -252.126839 
L 150.442693 -251.914313 
L 149.595455 -251.726235 
L 148.748216 -251.527018 
L 147.900978 -251.224048 
L 147.05374 -251.195655 
L 146.206501 -250.895399 
L 145.359263 -250.595943 
L 144.512025 -250.652555 
L 143.664787 -250.382768 
L 142.817548 -250.009381 
L 141.97031 -250.085792 
L 141.123072 -249.818201 
L 140.275833 -249.485225 
L 139.428595 -249.222367 
L 138.581357 -248.950282 
L 137.734118 -248.938273 
L 136.88688 -248.543334 
L 136.039642 -248.28857 
L 135.192404 -247.924135 
L 134.345165 -247.702408 
L 133.497927 -247.342278 
L 132.650689 -247.148501 
L 131.80345 -246.891393 
L 130.956212 -246.317432 
L 130.108974 -246.240291 
L 129.261736 -245.961958 
L 128.414497 -245.35134 
L 127.567259 -245.102202 
L 126.720021 -244.85606 
L 125.872782 -244.524482 
L 125.025544 -244.16509 
L 124.178306 -243.691929 
L 123.331067 -243.167713 
L 122.483829 -242.754838 
L 121.636591 -242.247639 
L 120.789353 -241.896137 
L 119.942114 -241.277818 
L 119.094876 -240.961944 
L 118.247638 -240.583854 
L 117.400399 -240.174898 
L 116.553161 -239.835561 
L 115.705923 -239.246464 
L 114.858685 -238.96748 
L 114.011446 -238.470982 
L 113.164208 -238.063862 
L 112.31697 -237.535787 
L 111.469731 -237.286007 
L 110.622493 -236.808013 
L 109.775255 -236.384617 
L 108.928017 -235.734598 
L 108.080778 -235.053811 
L 107.23354 -234.853965 
L 106.386302 -234.26407 
L 105.539063 -233.779402 
L 104.691825 -233.420368 
L 103.844587 -232.967332 
L 102.997348 -232.542951 
L 102.15011 -232.036239 
L 101.302872 -231.291975 
L 100.455634 -230.896745 
L 99.608395 -229.917117 
L 98.761157 -229.502339 
L 97.913919 -228.786781 
L 97.06668 -228.350755 
L 96.219442 -227.656167 
L 95.372204 -226.859855 
L 94.524966 -226.535378 
L 93.677727 -226.012292 
L 92.830489 -225.318255 
L 91.983251 -224.722543 
L 91.136012 -223.975279 
L 90.288774 -223.48357 
L 89.441536 -223.090233 
L 88.594298 -222.4621 
L 87.747059 -221.903178 
L 86.899821 -221.17429 
L 86.052583 -220.681623 
L 85.205344 -219.722337 
L 84.358106 -218.939737 
L 83.510868 -218.311269 
L 82.663629 -217.613279 
L 81.816391 -215.014643 
L 80.969153 -213.306508 
L 80.121915 -211.065132 
L 79.274676 -207.537445 
L 78.427438 -203.592681 
L 77.5802 -198.505954 
L 76.732961 -192.589494 
L 75.885723 -185.023476 
L 75.038485 -177.033296 
L 74.191247 -165.894922 
L 73.344008 -156.68152 
L 72.49677 -145.212207 
L 71.649532 -134.839106 
L 70.802293 -124.666803 
L 69.955055 -114.533809 
L 69.107817 -103.237837 
L 68.260579 -92.762666 
L 67.41334 -83.736919 
L 66.566102 -75.729216 
L 65.718864 -69.345881 
L 64.871625 -65.177131 
L 64.024387 -62.213878 
L 63.177149 -60.489308 
L 62.32991 -59.125717 
L 61.482672 -58.179598 
L 60.635434 -57.949905 
L 59.788196 -57.929189 
L 58.940957 -58.321153 
L 58.093719 -58.917537 
L 57.246481 -59.527336 
L 56.399242 -59.928443 
L 55.552004 -60.219952 
L 54.704766 -60.102087 
L 53.857528 -59.953092 
L 53.010289 -59.897532 
L 52.163051 -61.238355 
L 51.315813 -63.374487 
L 50.468574 -63.626583 
L 49.621336 -63.626583 
L 48.774098 -63.626583 
L 47.92686 -63.626583 
z
" style="stroke: #ffffff; stroke-opacity: 0.3"/>
    </defs>
    <g clip-path="url(#pe982d86d33)">
     <use xlink:href="#mcbc927c85d" x="0" y="576" style="fill: #dd8452; fill-opacity: 0.3; stroke: #ffffff; stroke-opacity: 0.3"/>
    </g>
   </g>
   <g id="line2d_8">
    <path d="M 47.92686 512.373417 
L 52.163051 512.382742 
L 53.010289 512.601074 
L 53.857528 513.15066 
L 54.704766 513.483478 
L 56.399242 513.633882 
L 58.093719 514.124034 
L 60.635434 515.923358 
L 61.482672 515.048977 
L 62.32991 512.271524 
L 63.177149 508.248832 
L 67.41334 483.441961 
L 68.260579 479.258313 
L 69.955055 473.115606 
L 70.802293 470.828214 
L 71.649532 468.861741 
L 72.49677 466.227689 
L 73.344008 464.271481 
L 74.191247 461.244407 
L 75.038485 459.048186 
L 76.732961 454.043856 
L 78.427438 448.124848 
L 80.969153 432.707787 
L 81.816391 425.774522 
L 82.663629 420.182108 
L 87.747059 396.185828 
L 90.288774 385.943547 
L 91.983251 379.776674 
L 92.830489 377.413747 
L 95.372204 369.555448 
L 96.219442 367.603929 
L 97.913919 363.012369 
L 98.761157 361.275616 
L 99.608395 359.115196 
L 102.15011 354.410129 
L 106.386302 348.706917 
L 107.23354 348.001345 
L 108.080778 347.101792 
L 108.928017 346.480949 
L 109.775255 345.674125 
L 110.622493 345.322935 
L 111.469731 344.733001 
L 112.31697 343.859029 
L 114.858685 342.055125 
L 115.705923 341.894718 
L 116.553161 341.553123 
L 117.400399 340.901907 
L 119.942114 339.87552 
L 120.789353 339.58988 
L 122.483829 338.668477 
L 123.331067 338.42014 
L 124.178306 338.395627 
L 125.025544 337.865381 
L 126.720021 337.353786 
L 127.567259 337.18059 
L 128.414497 336.877896 
L 129.261736 336.727615 
L 130.956212 336.12063 
L 131.80345 336.098247 
L 132.650689 335.607969 
L 133.497927 335.748658 
L 134.345165 335.284492 
L 135.192404 334.983397 
L 136.039642 334.994587 
L 138.581357 334.334843 
L 139.428595 334.035349 
L 141.123072 333.69535 
L 141.97031 333.391059 
L 142.817548 333.352155 
L 144.512025 333.012691 
L 145.359263 332.601284 
L 146.206501 332.764355 
L 147.05374 332.299657 
L 147.900978 332.407304 
L 148.748216 332.277274 
L 151.289931 331.508816 
L 152.137169 331.598345 
L 154.678884 330.962051 
L 156.373361 331.089949 
L 158.067837 330.567697 
L 159.762314 330.433403 
L 161.456791 330.023594 
L 163.151267 330.040116 
L 163.998506 329.889301 
L 164.845744 329.589272 
L 165.692982 329.681465 
L 166.54022 329.383569 
L 167.387459 329.308962 
L 169.081935 328.932727 
L 170.776412 328.929529 
L 171.62365 328.634297 
L 172.470888 328.595395 
L 173.318127 328.687588 
L 174.165365 328.425397 
L 177.554318 327.99587 
L 179.248795 327.734743 
L 181.79051 327.546093 
L 182.637748 327.546626 
L 184.332225 327.359041 
L 191.957369 326.742464 
L 192.804607 326.833058 
L 193.651846 326.647606 
L 194.499084 326.34811 
L 195.346322 326.479206 
L 197.040799 326.271903 
L 197.888037 326.367294 
L 198.735275 326.104571 
L 201.27699 326.068332 
L 202.971467 325.76777 
L 203.818705 325.805607 
L 209.749373 325.357429 
L 210.596612 325.376613 
L 212.291088 325.15226 
L 213.985565 324.909784 
L 214.832803 324.797874 
L 215.680041 324.817059 
L 216.52728 324.965207 
L 217.374518 324.741384 
L 218.221756 324.703548 
L 219.068994 324.815992 
L 219.916233 324.628408 
L 221.610709 324.665179 
L 224.152424 324.478661 
L 224.999663 324.572986 
L 225.846901 324.404586 
L 230.930331 324.254306 
L 231.777569 324.049135 
L 232.624807 324.19835 
L 236.01376 324.179698 
L 237.708237 323.955876 
L 238.555475 324.049135 
L 239.402713 323.937223 
L 240.249952 323.99318 
L 241.09719 323.881269 
L 241.944428 323.918038 
L 242.791667 323.769356 
L 244.486143 323.899921 
L 245.333382 323.768824 
L 246.18062 323.91804 
L 247.875096 323.675565 
L 248.722335 323.712869 
L 250.416811 323.582306 
L 251.26405 323.638261 
L 251.26405 323.638261 
" clip-path="url(#pe982d86d33)" style="fill: none; stroke: #4c72b0; stroke-width: 1.5; stroke-linecap: round"/>
   </g>
   <g id="line2d_9">
    <path d="M 47.92686 512.373417 
L 50.468574 512.373417 
L 51.315813 512.80553 
L 52.163051 515.141521 
L 53.010289 516.337642 
L 55.552004 515.911547 
L 56.399242 516.265159 
L 58.093719 517.406244 
L 58.940957 517.995346 
L 59.788196 518.376499 
L 60.635434 518.36327 
L 61.482672 518.167061 
L 62.32991 517.323678 
L 63.177149 516.037173 
L 64.024387 514.448518 
L 64.871625 511.873535 
L 65.718864 508.260062 
L 66.566102 502.675922 
L 67.41334 495.347225 
L 68.260579 486.99069 
L 71.649532 446.612036 
L 75.038485 403.789219 
L 76.732961 387.344872 
L 78.427438 375.173237 
L 80.121915 366.987332 
L 80.969153 364.464556 
L 81.816391 362.638267 
L 82.663629 359.688467 
L 83.510868 358.812155 
L 84.358106 358.19886 
L 86.052583 356.374514 
L 86.899821 355.860882 
L 88.594298 354.545564 
L 89.441536 353.968486 
L 91.136012 353.061064 
L 91.983251 352.274693 
L 96.219442 349.359171 
L 97.06668 348.700417 
L 97.913919 348.286935 
L 98.761157 347.621376 
L 99.608395 347.169731 
L 100.455634 346.232166 
L 101.302872 345.815278 
L 102.15011 345.114473 
L 104.691825 343.790405 
L 106.386302 342.950315 
L 107.23354 342.376155 
L 108.080778 342.160298 
L 109.775255 340.908181 
L 115.705923 337.892018 
L 116.553161 337.313239 
L 118.247638 336.54972 
L 119.942114 335.858867 
L 120.789353 335.275469 
L 122.483829 334.480104 
L 125.872782 332.674247 
L 127.567259 332.136549 
L 128.414497 331.849954 
L 129.261736 331.235928 
L 130.108974 330.917249 
L 130.956212 330.839947 
L 131.80345 330.231998 
L 133.497927 329.780353 
L 136.039642 328.791739 
L 136.88688 328.555704 
L 137.734118 328.151946 
L 138.581357 328.1026 
L 141.123072 327.218996 
L 141.97031 326.924867 
L 142.817548 327.02064 
L 143.664787 326.614694 
L 144.512025 326.342198 
L 145.359263 326.409289 
L 147.05374 325.795019 
L 147.900978 325.734978 
L 149.595455 325.201899 
L 152.984408 324.499634 
L 153.831646 324.428653 
L 154.678884 324.127475 
L 163.151267 322.988879 
L 164.845744 322.659745 
L 165.692982 322.67822 
L 168.234697 322.286613 
L 169.081935 322.398918 
L 170.776412 322.107706 
L 174.165365 321.740651 
L 175.012603 321.689118 
L 175.859842 321.507536 
L 176.70708 321.523579 
L 177.554318 321.359984 
L 178.401556 321.448708 
L 180.943271 321.289733 
L 182.637748 321.270772 
L 183.484986 321.082627 
L 185.179463 321.07728 
L 186.873939 321.057345 
L 187.721178 320.865798 
L 189.415654 320.881841 
L 190.262893 320.761758 
L 191.957369 320.748389 
L 194.499084 320.593788 
L 198.735275 320.599865 
L 199.582514 320.406857 
L 201.27699 320.470545 
L 202.971467 320.335391 
L 209.749373 320.142384 
L 210.596612 320.018898 
L 211.44385 320.09231 
L 214.832803 319.889822 
L 215.680041 320.008933 
L 217.374518 319.938924 
L 227.541377 319.79502 
L 231.777569 319.777518 
L 236.860999 319.672506 
L 237.708237 319.740569 
L 239.402713 319.622432 
L 240.249952 319.569926 
L 241.944428 319.670562 
L 242.791667 319.60493 
L 244.486143 319.61757 
L 246.18062 319.53395 
L 247.027858 319.635558 
L 247.875096 319.53638 
L 249.569573 319.600554 
L 251.26405 319.568467 
L 251.26405 319.568467 
" clip-path="url(#pe982d86d33)" style="fill: none; stroke: #dd8452; stroke-width: 1.5; stroke-linecap: round"/>
   </g>
   <g id="line2d_10">
    <path d="M 64.871625 528.66 
L 64.871625 309.148125 
" clip-path="url(#pe982d86d33)" style="fill: none; stroke-dasharray: 1.85,0.8; stroke-dashoffset: 0; stroke: #1a1a1a; stroke-width: 0.5"/>
   </g>
   <g id="line2d_11">
    <path d="M 81.816391 528.66 
L 81.816391 309.148125 
" clip-path="url(#pe982d86d33)" style="fill: none; stroke-dasharray: 1.85,0.8; stroke-dashoffset: 0; stroke: #1a1a1a; stroke-width: 0.5"/>
   </g>
   <g id="line2d_12">
    <path d="M 132.650689 528.66 
L 132.650689 309.148125 
" clip-path="url(#pe982d86d33)" style="fill: none; stroke-dasharray: 1.85,0.8; stroke-dashoffset: 0; stroke: #1a1a1a; stroke-width: 0.5"/>
   </g>
   <g id="patch_9">
    <path d="M 37.76 528.66 
L 37.76 309.148125 
" style="fill: none; stroke: #262626; stroke-width: 1.25; stroke-linejoin: miter; stroke-linecap: square"/>
   </g>
   <g id="patch_10">
    <path d="M 261.430909 528.66 
L 261.430909 309.148125 
" style="fill: none; stroke: #262626; stroke-width: 1.25; stroke-linejoin: miter; stroke-linecap: square"/>
   </g>
   <g id="patch_11">
    <path d="M 37.76 528.66 
L 261.430909 528.66 
" style="fill: none; stroke: #262626; stroke-width: 1.25; stroke-linejoin: miter; stroke-linecap: square"/>
   </g>
   <g id="patch_12">
    <path d="M 37.76 309.148125 
L 261.430909 309.148125 
" style="fill: none; stroke: #262626; stroke-width: 1.25; stroke-linejoin: miter; stroke-linecap: square"/>
   </g>
   <g id="text_30">
    <text style="fill: #262626; font: 12px 'sans-serif'; text-anchor: middle" x="149.595455" y="303.148125" transform="rotate(-0, 149.595455, 303.148125)">Training accuracy (weighted)</text>
   </g>
   <g id="legend_2">
    <g id="patch_13">
     <path d="M 182.454347 523.16 
L 253.730909 523.16 
Q 255.930909 523.16 255.930909 520.96 
L 255.930909 490.811406 
Q 255.930909 488.611406 253.730909 488.611406 
L 182.454347 488.611406 
Q 180.254347 488.611406 180.254347 490.811406 
L 180.254347 520.96 
Q 180.254347 523.16 182.454347 523.16 
z
" style="fill: #ffffff; opacity: 0.8; stroke: #cccccc; stroke-linejoin: miter"/>
    </g>
    <g id="line2d_13">
     <path d="M 184.654347 497.035 
L 195.654347 497.035 
L 206.654347 497.035 
" style="fill: none; stroke: #4c72b0; stroke-width: 1.5; stroke-linecap: round"/>
    </g>
    <g id="text_31">
     <text style="fill: #262626; font: 11px 'sans-serif'; text-anchor: start" x="215.454347" y="500.885" transform="rotate(-0, 215.454347, 500.885)">English</text>
    </g>
    <g id="line2d_14">
     <path d="M 184.654347 512.72375 
L 195.654347 512.72375 
L 206.654347 512.72375 
" style="fill: none; stroke: #dd8452; stroke-width: 1.5; stroke-linecap: round"/>
    </g>
    <g id="text_32">
     <text style="fill: #262626; font: 11px 'sans-serif'; text-anchor: start" x="215.454347" y="516.57375" transform="rotate(-0, 215.454347, 516.57375)">French</text>
    </g>
   </g>
  </g>
 </g>
 <defs>
  <clipPath id="p1c07d4d3e6">
   <rect x="37.76" y="27.6" width="223.670909" height="219.511875"/>
  </clipPath>
  <clipPath id="pe982d86d33">
   <rect x="37.76" y="309.148125" width="223.670909" height="219.511875"/>
  </clipPath>
 </defs>
</svg>
