<?xml version="1.0" encoding="utf-8" standalone="no"?>
<!DOCTYPE svg PUBLIC "-//W3C//DTD SVG 1.1//EN"
  "http://www.w3.org/Graphics/SVG/1.1/DTD/svg11.dtd">
<svg xmlns:xlink="http://www.w3.org/1999/xlink" width="576pt" height="288pt" viewBox="0 0 576 288" xmlns="http://www.w3.org/2000/svg" version="1.1">
 <metadata>
  <rdf:RDF xmlns:dc="http://purl.org/dc/elements/1.1/" xmlns:cc="http://creativecommons.org/ns#" xmlns:rdf="http://www.w3.org/1999/02/22-rdf-syntax-ns#">
   <cc:Work>
    <dc:type rdf:resource="http://purl.org/dc/dcmitype/StillImage"/>
    <dc:date>2022-02-16T14:19:35.992572</dc:date>
    <dc:format>image/svg+xml</dc:format>
    <dc:creator>
     <cc:Agent>
      <dc:title>Matplotlib v3.5.0, https://matplotlib.org/</dc:title>
     </cc:Agent>
    </dc:creator>
   </cc:Work>
  </rdf:RDF>
 </metadata>
 <defs>
  <style type="text/css">*{stroke-linejoin: round; stroke-linecap: butt}</style>
 </defs>
 <g id="figure_1">
  <g id="patch_1">
   <path d="M 0 288 
L 576 288 
L 576 0 
L 0 0 
z
" style="fill: #ffffff"/>
  </g>
  <g id="axes_1">
   <g id="patch_2">
    <path d="M 37.76 240.66 
L 267.75719 240.66 
L 267.75719 27.65625 
L 37.76 27.65625 
z
" style="fill: #ffffff"/>
   </g>
   <g id="matplotlib.axis_1">
    <g id="xtick_1">
     <g id="text_1">
      <text style="fill: #262626; font: 11px 'sans-serif'; text-anchor: middle" x="48.214418" y="258.033594" transform="rotate(-0, 48.214418, 258.033594)">0</text>
     </g>
    </g>
    <g id="xtick_2">
     <g id="text_2">
      <text style="fill: #262626; font: 11px 'sans-serif'; text-anchor: middle" x="91.774492" y="258.033594" transform="rotate(-0, 91.774492, 258.033594)">2500</text>
     </g>
    </g>
    <g id="xtick_3">
     <g id="text_3">
      <text style="fill: #262626; font: 11px 'sans-serif'; text-anchor: middle" x="135.334565" y="258.033594" transform="rotate(-0, 135.334565, 258.033594)">5000</text>
     </g>
    </g>
    <g id="xtick_4">
     <g id="text_4">
      <text style="fill: #262626; font: 11px 'sans-serif'; text-anchor: middle" x="178.894639" y="258.033594" transform="rotate(-0, 178.894639, 258.033594)">7500</text>
     </g>
    </g>
    <g id="xtick_5">
     <g id="text_5">
      <text style="fill: #262626; font: 11px 'sans-serif'; text-anchor: middle" x="222.454713" y="258.033594" transform="rotate(-0, 222.454713, 258.033594)">10000</text>
     </g>
    </g>
    <g id="xtick_6">
     <g id="text_6">
      <text style="fill: #262626; font: 11px 'sans-serif'; text-anchor: middle" x="266.014787" y="258.033594" transform="rotate(-0, 266.014787, 258.033594)">12500</text>
     </g>
    </g>
    <g id="text_7">
     <text style="fill: #262626; font: 12px 'sans-serif'; text-anchor: middle" x="152.758595" y="272.809219" transform="rotate(-0, 152.758595, 272.809219)">Epoch</text>
    </g>
   </g>
   <g id="matplotlib.axis_2">
    <g id="ytick_1">
     <g id="text_8">
      <text style="fill: #262626; font: 11px 'sans-serif'; text-anchor: end" x="28.26" y="236.284479" transform="rotate(-0, 28.26, 236.284479)">0.0</text>
     </g>
    </g>
    <g id="ytick_2">
     <g id="text_9">
      <text style="fill: #262626; font: 11px 'sans-serif'; text-anchor: end" x="28.26" y="201.945447" transform="rotate(-0, 28.26, 201.945447)">0.2</text>
     </g>
    </g>
    <g id="ytick_3">
     <g id="text_10">
      <text style="fill: #262626; font: 11px 'sans-serif'; text-anchor: end" x="28.26" y="167.606415" transform="rotate(-0, 28.26, 167.606415)">0.4</text>
     </g>
    </g>
    <g id="ytick_4">
     <g id="text_11">
      <text style="fill: #262626; font: 11px 'sans-serif'; text-anchor: end" x="28.26" y="133.267383" transform="rotate(-0, 28.26, 133.267383)">0.6</text>
     </g>
    </g>
    <g id="ytick_5">
     <g id="text_12">
      <text style="fill: #262626; font: 11px 'sans-serif'; text-anchor: end" x="28.26" y="98.928351" transform="rotate(-0, 28.26, 98.928351)">0.8</text>
     </g>
    </g>
    <g id="ytick_6">
     <g id="text_13">
      <text style="fill: #262626; font: 11px 'sans-serif'; text-anchor: end" x="28.26" y="64.589319" transform="rotate(-0, 28.26, 64.589319)">1.0</text>
     </g>
    </g>
   </g>
   <g id="PolyCollection_1">
    <defs>
     <path id="m164ae10fb3" d="M 48.214418 -236.993513 
L 48.214418 -236.868128 
L 49.085619 -221.649275 
L 49.956821 -221.535498 
L 50.828022 -221.370144 
L 51.699224 -221.094204 
L 52.570425 -220.583016 
L 53.441627 -219.555288 
L 54.312828 -217.455455 
L 55.18403 -214.01121 
L 56.055231 -209.883882 
L 56.926433 -206.050868 
L 57.797634 -202.912509 
L 58.668835 -200.38044 
L 59.540037 -198.252033 
L 60.411238 -196.299014 
L 61.28244 -194.336556 
L 62.153641 -192.068852 
L 63.024843 -189.087286 
L 63.896044 -185.58295 
L 64.767246 -181.798341 
L 65.638447 -177.842452 
L 66.509649 -173.990629 
L 67.38085 -170.124416 
L 68.252052 -166.070175 
L 69.123253 -161.837713 
L 69.994455 -157.503402 
L 70.865656 -153.287817 
L 71.736858 -149.234674 
L 72.608059 -145.285905 
L 73.479261 -141.489546 
L 74.350462 -137.689302 
L 75.221664 -133.923867 
L 76.092865 -130.157817 
L 76.964066 -126.267453 
L 77.835268 -122.198424 
L 78.706469 -118.151194 
L 79.577671 -114.27182 
L 80.448872 -110.604942 
L 81.320074 -107.159311 
L 82.191275 -103.86876 
L 83.062477 -100.612874 
L 83.933678 -98.797848 
L 84.80488 -97.175371 
L 85.676081 -95.578117 
L 86.547283 -94.001589 
L 87.418484 -92.452846 
L 88.289686 -90.945222 
L 89.160887 -89.473092 
L 90.032089 -88.038179 
L 90.90329 -86.652051 
L 91.774492 -85.312488 
L 92.645693 -84.013008 
L 93.516895 -82.775446 
L 94.388096 -81.586826 
L 95.259298 -80.461373 
L 96.130499 -79.374265 
L 97.0017 -78.34324 
L 97.872902 -77.341624 
L 98.744103 -76.379211 
L 99.615305 -75.461932 
L 100.486506 -74.561329 
L 101.357708 -73.696711 
L 102.228909 -72.848736 
L 103.100111 -72.029927 
L 103.971312 -71.24646 
L 104.842514 -70.483421 
L 105.713715 -69.74295 
L 106.584917 -69.047019 
L 107.456118 -68.371428 
L 108.32732 -67.746673 
L 109.198521 -67.160032 
L 110.069723 -66.602658 
L 110.940924 -66.073842 
L 111.812126 -65.585033 
L 112.683327 -65.133822 
L 113.554529 -64.699579 
L 114.42573 -64.298184 
L 115.296932 -63.912084 
L 116.168133 -63.560089 
L 117.039334 -63.22889 
L 117.910536 -62.914664 
L 118.781737 -62.617424 
L 119.652939 -62.344347 
L 120.52414 -62.096283 
L 121.395342 -61.8387 
L 122.266543 -61.602586 
L 123.137745 -61.374761 
L 124.008946 -61.161646 
L 124.880148 -60.959394 
L 125.751349 -60.77124 
L 126.622551 -60.599547 
L 127.493752 -60.433801 
L 128.364954 -60.284325 
L 129.236155 -60.137599 
L 130.107357 -60.002471 
L 130.978558 -59.877591 
L 131.84976 -59.750559 
L 132.720961 -59.637328 
L 133.592163 -59.521955 
L 134.463364 -59.419594 
L 135.334565 -59.31963 
L 136.205767 -59.22418 
L 137.076968 -59.132633 
L 137.94817 -59.046185 
L 138.819371 -58.960785 
L 139.690573 -58.881298 
L 140.561774 -58.807693 
L 141.432976 -58.732651 
L 142.304177 -58.669859 
L 143.175379 -58.606066 
L 144.04658 -58.550424 
L 144.917782 -58.493185 
L 145.788983 -58.436384 
L 146.660185 -58.383819 
L 147.531386 -58.33004 
L 148.402588 -58.281791 
L 149.273789 -58.236524 
L 150.144991 -58.194474 
L 151.016192 -58.153209 
L 151.887394 -58.115351 
L 152.758595 -58.074011 
L 153.629797 -58.037879 
L 154.500998 -58.002683 
L 155.372199 -57.972525 
L 156.243401 -57.938024 
L 157.114602 -57.907202 
L 157.985804 -57.880735 
L 158.857005 -57.855088 
L 159.728207 -57.829662 
L 160.599408 -57.802864 
L 161.47061 -57.778311 
L 162.341811 -57.75722 
L 163.213013 -57.735456 
L 164.084214 -57.714754 
L 164.955416 -57.693467 
L 165.826617 -57.67864 
L 166.697819 -57.659997 
L 167.56902 -57.641701 
L 168.440222 -57.625527 
L 169.311423 -57.610172 
L 170.182625 -57.593659 
L 171.053826 -57.577475 
L 171.925028 -57.562523 
L 172.796229 -57.547645 
L 173.667431 -57.535357 
L 174.538632 -57.522948 
L 175.409833 -57.51231 
L 176.281035 -57.50035 
L 177.152236 -57.488532 
L 178.023438 -57.476756 
L 178.894639 -57.465001 
L 179.765841 -57.456557 
L 180.637042 -57.445086 
L 181.508244 -57.437706 
L 182.379445 -57.424658 
L 183.250647 -57.41459 
L 184.121848 -57.404534 
L 184.99305 -57.395686 
L 185.864251 -57.385703 
L 186.735453 -57.377151 
L 187.606654 -57.368405 
L 188.477856 -57.361767 
L 189.349057 -57.352129 
L 190.220259 -57.347166 
L 191.09146 -57.335811 
L 191.962662 -57.330435 
L 192.833863 -57.321601 
L 193.705064 -57.313757 
L 194.576266 -57.308759 
L 195.447467 -57.301296 
L 196.318669 -57.294094 
L 197.18987 -57.286415 
L 198.061072 -57.281927 
L 198.932273 -57.27501 
L 199.803475 -57.268925 
L 200.674676 -57.262019 
L 201.545878 -57.255543 
L 202.417079 -57.250818 
L 203.288281 -57.244482 
L 204.159482 -57.236606 
L 205.030684 -57.23389 
L 205.901885 -57.227627 
L 206.773087 -57.222477 
L 207.644288 -57.217291 
L 208.51549 -57.209322 
L 209.386691 -57.205178 
L 210.257893 -57.198159 
L 211.129094 -57.193477 
L 212.000296 -57.188184 
L 212.871497 -57.185913 
L 213.742698 -57.181586 
L 214.6139 -57.175267 
L 215.485101 -57.171636 
L 216.356303 -57.167213 
L 217.227504 -57.161197 
L 218.098706 -57.159013 
L 218.969907 -57.154352 
L 219.841109 -57.149242 
L 220.71231 -57.14616 
L 221.583512 -57.14179 
L 222.454713 -57.13666 
L 223.325915 -57.129845 
L 224.197116 -57.126458 
L 225.068318 -57.123314 
L 225.939519 -57.120011 
L 226.810721 -57.117284 
L 227.681922 -57.113471 
L 228.553124 -57.110429 
L 229.424325 -57.107735 
L 230.295527 -57.104957 
L 231.166728 -57.102624 
L 232.03793 -57.099437 
L 232.909131 -57.09624 
L 233.780332 -57.093072 
L 234.651534 -57.091448 
L 235.522735 -57.08895 
L 236.393937 -57.086132 
L 237.265138 -57.082428 
L 238.13634 -57.078979 
L 239.007541 -57.075828 
L 239.878743 -57.07434 
L 240.749944 -57.071849 
L 241.621146 -57.069029 
L 242.492347 -57.066688 
L 243.363549 -57.062972 
L 244.23475 -57.059894 
L 245.105952 -57.057633 
L 245.977153 -57.055344 
L 246.848355 -57.051679 
L 247.719556 -57.049488 
L 248.590758 -57.046998 
L 249.461959 -57.044081 
L 250.333161 -57.040792 
L 251.204362 -57.037315 
L 252.075563 -57.03628 
L 252.946765 -57.033116 
L 253.817966 -57.031921 
L 254.689168 -57.028819 
L 255.560369 -57.026315 
L 256.431571 -57.023807 
L 257.302772 -57.021989 
L 257.302772 -57.838931 
L 257.302772 -57.838931 
L 256.431571 -57.842045 
L 255.560369 -57.844 
L 254.689168 -57.847281 
L 253.817966 -57.849648 
L 252.946765 -57.851459 
L 252.075563 -57.854489 
L 251.204362 -57.856371 
L 250.333161 -57.859508 
L 249.461959 -57.862743 
L 248.590758 -57.866339 
L 247.719556 -57.869728 
L 246.848355 -57.871596 
L 245.977153 -57.875658 
L 245.105952 -57.878157 
L 244.23475 -57.881231 
L 243.363549 -57.88313 
L 242.492347 -57.887747 
L 241.621146 -57.890711 
L 240.749944 -57.894187 
L 239.878743 -57.896398 
L 239.007541 -57.898139 
L 238.13634 -57.90155 
L 237.265138 -57.9048 
L 236.393937 -57.909369 
L 235.522735 -57.912312 
L 234.651534 -57.914656 
L 233.780332 -57.91708 
L 232.909131 -57.921025 
L 232.03793 -57.924111 
L 231.166728 -57.927199 
L 230.295527 -57.930784 
L 229.424325 -57.933417 
L 228.553124 -57.937195 
L 227.681922 -57.940016 
L 226.810721 -57.944206 
L 225.939519 -57.947687 
L 225.068318 -57.950645 
L 224.197116 -57.954839 
L 223.325915 -57.957378 
L 222.454713 -57.968394 
L 221.583512 -57.972118 
L 220.71231 -57.977174 
L 219.841109 -57.980208 
L 218.969907 -57.988292 
L 218.098706 -57.992251 
L 217.227504 -57.994871 
L 216.356303 -58.001677 
L 215.485101 -58.007739 
L 214.6139 -58.009793 
L 213.742698 -58.017917 
L 212.871497 -58.023172 
L 212.000296 -58.02639 
L 211.129094 -58.031989 
L 210.257893 -58.03717 
L 209.386691 -58.045187 
L 208.51549 -58.049762 
L 207.644288 -58.060328 
L 206.773087 -58.064899 
L 205.901885 -58.071877 
L 205.030684 -58.076308 
L 204.159482 -58.080954 
L 203.288281 -58.08931 
L 202.417079 -58.096716 
L 201.545878 -58.101944 
L 200.674676 -58.109048 
L 199.803475 -58.117977 
L 198.932273 -58.123863 
L 198.061072 -58.131429 
L 197.18987 -58.138365 
L 196.318669 -58.147714 
L 195.447467 -58.152654 
L 194.576266 -58.164583 
L 193.705064 -58.167246 
L 192.833863 -58.175513 
L 191.962662 -58.186383 
L 191.09146 -58.193567 
L 190.220259 -58.20734 
L 189.349057 -58.210707 
L 188.477856 -58.221836 
L 187.606654 -58.229786 
L 186.735453 -58.240767 
L 185.864251 -58.250224 
L 184.99305 -58.258038 
L 184.121848 -58.271048 
L 183.250647 -58.282425 
L 182.379445 -58.291014 
L 181.508244 -58.304687 
L 180.637042 -58.315685 
L 179.765841 -58.32907 
L 178.894639 -58.336873 
L 178.023438 -58.34692 
L 177.152236 -58.360419 
L 176.281035 -58.376909 
L 175.409833 -58.387608 
L 174.538632 -58.3982 
L 173.667431 -58.415776 
L 172.796229 -58.428899 
L 171.925028 -58.441189 
L 171.053826 -58.459451 
L 170.182625 -58.474973 
L 169.311423 -58.495291 
L 168.440222 -58.511795 
L 167.56902 -58.527076 
L 166.697819 -58.550718 
L 165.826617 -58.569055 
L 164.955416 -58.585854 
L 164.084214 -58.607055 
L 163.213013 -58.634206 
L 162.341811 -58.657154 
L 161.47061 -58.680309 
L 160.599408 -58.705473 
L 159.728207 -58.73496 
L 158.857005 -58.764567 
L 157.985804 -58.791029 
L 157.114602 -58.826419 
L 156.243401 -58.863379 
L 155.372199 -58.900686 
L 154.500998 -58.938715 
L 153.629797 -58.979795 
L 152.758595 -59.024731 
L 151.887394 -59.074893 
L 151.016192 -59.124288 
L 150.144991 -59.175544 
L 149.273789 -59.231119 
L 148.402588 -59.2914 
L 147.531386 -59.358555 
L 146.660185 -59.430835 
L 145.788983 -59.504756 
L 144.917782 -59.581384 
L 144.04658 -59.659616 
L 143.175379 -59.739433 
L 142.304177 -59.830081 
L 141.432976 -59.921904 
L 140.561774 -60.031413 
L 139.690573 -60.143143 
L 138.819371 -60.258393 
L 137.94817 -60.388047 
L 137.076968 -60.520086 
L 136.205767 -60.665917 
L 135.334565 -60.815281 
L 134.463364 -60.963661 
L 133.592163 -61.121656 
L 132.720961 -61.2948 
L 131.84976 -61.46616 
L 130.978558 -61.652261 
L 130.107357 -61.835855 
L 129.236155 -62.035264 
L 128.364954 -62.245792 
L 127.493752 -62.4632 
L 126.622551 -62.698954 
L 125.751349 -62.947511 
L 124.880148 -63.212589 
L 124.008946 -63.497378 
L 123.137745 -63.798426 
L 122.266543 -64.120154 
L 121.395342 -64.447974 
L 120.52414 -64.799327 
L 119.652939 -65.144489 
L 118.781737 -65.518089 
L 117.910536 -65.922479 
L 117.039334 -66.34653 
L 116.168133 -66.796772 
L 115.296932 -67.272981 
L 114.42573 -67.7951 
L 113.554529 -68.343664 
L 112.683327 -68.928274 
L 111.812126 -69.554509 
L 110.940924 -70.233365 
L 110.069723 -70.97938 
L 109.198521 -71.773726 
L 108.32732 -72.629666 
L 107.456118 -73.545253 
L 106.584917 -74.538446 
L 105.713715 -75.579895 
L 104.842514 -76.677848 
L 103.971312 -77.822213 
L 103.100111 -78.969152 
L 102.228909 -80.143025 
L 101.357708 -81.323447 
L 100.486506 -82.487765 
L 99.615305 -83.635041 
L 98.744103 -84.765065 
L 97.872902 -85.886559 
L 97.0017 -87.025643 
L 96.130499 -88.146236 
L 95.259298 -89.282954 
L 94.388096 -90.44013 
L 93.516895 -91.631717 
L 92.645693 -92.843115 
L 91.774492 -94.099839 
L 90.90329 -95.397261 
L 90.032089 -96.742919 
L 89.160887 -98.142817 
L 88.289686 -99.592437 
L 87.418484 -101.088906 
L 86.547283 -102.635216 
L 85.676081 -104.225167 
L 84.80488 -105.83294 
L 83.933678 -107.448914 
L 83.062477 -109.234169 
L 82.191275 -112.39464 
L 81.320074 -115.524989 
L 80.448872 -118.713319 
L 79.577671 -122.077027 
L 78.706469 -125.638859 
L 77.835268 -129.393488 
L 76.964066 -133.239926 
L 76.092865 -136.98931 
L 75.221664 -140.684305 
L 74.350462 -144.484836 
L 73.479261 -148.4152 
L 72.608059 -152.396986 
L 71.736858 -156.665792 
L 70.865656 -161.004949 
L 69.994455 -165.257191 
L 69.123253 -169.614295 
L 68.252052 -173.959382 
L 67.38085 -178.090563 
L 66.509649 -181.804393 
L 65.638447 -185.145116 
L 64.767246 -188.362182 
L 63.896044 -191.280253 
L 63.024843 -193.694722 
L 62.153641 -195.736519 
L 61.28244 -197.594234 
L 60.411238 -199.430112 
L 59.540037 -201.328336 
L 58.668835 -203.372173 
L 57.797634 -205.740265 
L 56.926433 -208.652899 
L 56.055231 -212.297903 
L 55.18403 -216.03144 
L 54.312828 -218.712793 
L 53.441627 -220.152308 
L 52.570425 -220.865635 
L 51.699224 -221.238033 
L 50.828022 -221.449154 
L 49.956821 -221.582314 
L 49.085619 -221.681273 
L 48.214418 -236.993513 
z
" style="stroke: #ffffff; stroke-opacity: 0.3"/>
    </defs>
    <g clip-path="url(#p3bbbc1c1a2)">
     <use xlink:href="#m164ae10fb3" x="0" y="288" style="fill: #4c72b0; fill-opacity: 0.3; stroke: #ffffff; stroke-opacity: 0.3"/>
    </g>
   </g>
   <g id="PolyCollection_2">
    <defs>
     <path id="me959054937" d="M 48.214418 -250.661761 
L 48.214418 -250.489439 
L 49.085619 -232.15452 
L 49.956821 -232.014492 
L 50.828022 -231.742765 
L 51.699224 -231.007652 
L 52.570425 -228.422657 
L 53.441627 -222.524982 
L 54.312828 -215.049505 
L 55.18403 -208.117765 
L 56.055231 -203.63191 
L 56.926433 -200.878909 
L 57.797634 -198.913309 
L 58.668835 -197.356263 
L 59.540037 -195.642734 
L 60.411238 -193.895199 
L 61.28244 -191.929577 
L 62.153641 -189.451162 
L 63.024843 -186.301917 
L 63.896044 -182.439536 
L 64.767246 -178.0767 
L 65.638447 -173.394527 
L 66.509649 -168.373456 
L 67.38085 -162.932311 
L 68.252052 -156.899623 
L 69.123253 -150.143515 
L 69.994455 -143.422449 
L 70.865656 -136.975944 
L 71.736858 -130.955619 
L 72.608059 -125.707231 
L 73.479261 -120.81425 
L 74.350462 -115.678229 
L 75.221664 -110.908937 
L 76.092865 -105.991476 
L 76.964066 -101.886719 
L 77.835268 -98.103707 
L 78.706469 -94.163006 
L 79.577671 -90.720553 
L 80.448872 -87.873617 
L 81.320074 -84.974613 
L 82.191275 -82.388726 
L 83.062477 -80.375393 
L 83.933678 -76.228897 
L 84.80488 -75.375519 
L 85.676081 -74.599924 
L 86.547283 -73.877684 
L 87.418484 -73.218419 
L 88.289686 -72.632467 
L 89.160887 -72.070672 
L 90.032089 -71.563186 
L 90.90329 -71.072258 
L 91.774492 -70.62658 
L 92.645693 -70.20741 
L 93.516895 -69.802582 
L 94.388096 -69.425532 
L 95.259298 -69.07017 
L 96.130499 -68.72107 
L 97.0017 -68.39333 
L 97.872902 -68.079696 
L 98.744103 -67.77064 
L 99.615305 -67.47324 
L 100.486506 -67.182053 
L 101.357708 -66.900567 
L 102.228909 -66.628408 
L 103.100111 -66.371722 
L 103.971312 -66.118451 
L 104.842514 -65.86278 
L 105.713715 -65.624702 
L 106.584917 -65.386057 
L 107.456118 -65.161355 
L 108.32732 -64.940049 
L 109.198521 -64.709411 
L 110.069723 -64.500521 
L 110.940924 -64.293852 
L 111.812126 -64.090691 
L 112.683327 -63.889476 
L 113.554529 -63.691473 
L 114.42573 -63.498577 
L 115.296932 -63.319264 
L 116.168133 -63.141149 
L 117.039334 -62.960754 
L 117.910536 -62.790257 
L 118.781737 -62.623882 
L 119.652939 -62.459837 
L 120.52414 -62.308947 
L 121.395342 -62.156782 
L 122.266543 -62.017167 
L 123.137745 -61.868738 
L 124.008946 -61.736133 
L 124.880148 -61.609954 
L 125.751349 -61.482231 
L 126.622551 -61.361218 
L 127.493752 -61.244916 
L 128.364954 -61.13056 
L 129.236155 -61.015718 
L 130.107357 -60.910504 
L 130.978558 -60.805343 
L 131.84976 -60.699515 
L 132.720961 -60.6004 
L 133.592163 -60.505754 
L 134.463364 -60.405972 
L 135.334565 -60.319003 
L 136.205767 -60.227251 
L 137.076968 -60.147109 
L 137.94817 -60.0653 
L 138.819371 -59.985139 
L 139.690573 -59.908742 
L 140.561774 -59.821881 
L 141.432976 -59.742235 
L 142.304177 -59.663039 
L 143.175379 -59.591871 
L 144.04658 -59.516295 
L 144.917782 -59.446869 
L 145.788983 -59.380611 
L 146.660185 -59.321241 
L 147.531386 -59.25685 
L 148.402588 -59.194546 
L 149.273789 -59.142901 
L 150.144991 -59.085669 
L 151.016192 -59.038696 
L 151.887394 -58.988331 
L 152.758595 -58.940038 
L 153.629797 -58.897249 
L 154.500998 -58.847348 
L 155.372199 -58.807597 
L 156.243401 -58.76604 
L 157.114602 -58.720612 
L 157.985804 -58.682489 
L 158.857005 -58.63802 
L 159.728207 -58.602052 
L 160.599408 -58.56536 
L 161.47061 -58.52791 
L 162.341811 -58.490369 
L 163.213013 -58.460216 
L 164.084214 -58.42346 
L 164.955416 -58.396841 
L 165.826617 -58.360309 
L 166.697819 -58.332121 
L 167.56902 -58.303607 
L 168.440222 -58.275427 
L 169.311423 -58.23821 
L 170.182625 -58.212506 
L 171.053826 -58.178025 
L 171.925028 -58.152872 
L 172.796229 -58.131925 
L 173.667431 -58.101224 
L 174.538632 -58.077134 
L 175.409833 -58.053143 
L 176.281035 -58.029709 
L 177.152236 -58.001206 
L 178.023438 -57.967064 
L 178.894639 -57.95156 
L 179.765841 -57.923902 
L 180.637042 -57.90344 
L 181.508244 -57.879487 
L 182.379445 -57.852647 
L 183.250647 -57.833562 
L 184.121848 -57.806919 
L 184.99305 -57.78647 
L 185.864251 -57.762003 
L 186.735453 -57.74417 
L 187.606654 -57.730389 
L 188.477856 -57.706938 
L 189.349057 -57.681738 
L 190.220259 -57.66208 
L 191.09146 -57.643668 
L 191.962662 -57.627804 
L 192.833863 -57.610345 
L 193.705064 -57.587876 
L 194.576266 -57.574729 
L 195.447467 -57.557437 
L 196.318669 -57.540908 
L 197.18987 -57.520706 
L 198.061072 -57.505578 
L 198.932273 -57.494335 
L 199.803475 -57.478502 
L 200.674676 -57.460293 
L 201.545878 -57.448269 
L 202.417079 -57.440968 
L 203.288281 -57.422811 
L 204.159482 -57.414644 
L 205.030684 -57.399805 
L 205.901885 -57.387667 
L 206.773087 -57.378856 
L 207.644288 -57.375172 
L 208.51549 -57.361167 
L 209.386691 -57.35176 
L 210.257893 -57.340501 
L 211.129094 -57.333374 
L 212.000296 -57.323151 
L 212.871497 -57.321833 
L 213.742698 -57.310385 
L 214.6139 -57.301895 
L 215.485101 -57.291344 
L 216.356303 -57.284404 
L 217.227504 -57.281193 
L 218.098706 -57.270194 
L 218.969907 -57.262858 
L 219.841109 -57.26081 
L 220.71231 -57.253111 
L 221.583512 -57.249981 
L 222.454713 -57.240471 
L 223.325915 -57.217693 
L 224.197116 -57.21467 
L 225.068318 -57.213192 
L 225.939519 -57.207744 
L 226.810721 -57.20431 
L 227.681922 -57.20123 
L 228.553124 -57.196881 
L 229.424325 -57.191104 
L 230.295527 -57.18852 
L 231.166728 -57.183062 
L 232.03793 -57.181215 
L 232.909131 -57.176322 
L 233.780332 -57.173237 
L 234.651534 -57.168656 
L 235.522735 -57.165644 
L 236.393937 -57.161566 
L 237.265138 -57.16114 
L 238.13634 -57.155459 
L 239.007541 -57.150408 
L 239.878743 -57.147921 
L 240.749944 -57.143972 
L 241.621146 -57.13995 
L 242.492347 -57.136839 
L 243.363549 -57.134402 
L 244.23475 -57.13267 
L 245.105952 -57.130474 
L 245.977153 -57.125559 
L 246.848355 -57.119701 
L 247.719556 -57.118804 
L 248.590758 -57.115927 
L 249.461959 -57.112021 
L 250.333161 -57.110095 
L 251.204362 -57.106597 
L 252.075563 -57.104234 
L 252.946765 -57.101058 
L 253.817966 -57.100333 
L 254.689168 -57.097105 
L 255.560369 -57.092536 
L 256.431571 -57.093222 
L 257.302772 -57.090335 
L 257.302772 -57.906329 
L 257.302772 -57.906329 
L 256.431571 -57.909904 
L 255.560369 -57.909388 
L 254.689168 -57.914586 
L 253.817966 -57.918096 
L 252.946765 -57.920059 
L 252.075563 -57.923315 
L 251.204362 -57.926764 
L 250.333161 -57.929216 
L 249.461959 -57.932388 
L 248.590758 -57.93733 
L 247.719556 -57.940018 
L 246.848355 -57.941726 
L 245.977153 -57.947694 
L 245.105952 -57.952382 
L 244.23475 -57.955131 
L 243.363549 -57.958595 
L 242.492347 -57.961425 
L 241.621146 -57.964601 
L 240.749944 -57.968801 
L 239.878743 -57.972312 
L 239.007541 -57.975299 
L 238.13634 -57.981083 
L 237.265138 -57.988018 
L 236.393937 -57.989223 
L 235.522735 -57.993382 
L 234.651534 -57.99644 
L 233.780332 -58.001948 
L 232.909131 -58.005506 
L 232.03793 -58.011492 
L 231.166728 -58.013327 
L 230.295527 -58.019009 
L 229.424325 -58.022551 
L 228.553124 -58.02841 
L 227.681922 -58.032522 
L 226.810721 -58.037403 
L 225.939519 -58.039765 
L 225.068318 -58.045252 
L 224.197116 -58.047489 
L 223.325915 -58.050799 
L 222.454713 -58.093606 
L 221.583512 -58.102377 
L 220.71231 -58.102583 
L 219.841109 -58.116471 
L 218.969907 -58.113424 
L 218.098706 -58.12805 
L 217.227504 -58.130593 
L 216.356303 -58.14297 
L 215.485101 -58.149759 
L 214.6139 -58.165797 
L 213.742698 -58.170461 
L 212.871497 -58.180634 
L 212.000296 -58.180461 
L 211.129094 -58.204625 
L 210.257893 -58.204887 
L 209.386691 -58.220219 
L 208.51549 -58.229225 
L 207.644288 -58.239308 
L 206.773087 -58.250274 
L 205.901885 -58.258803 
L 205.030684 -58.275123 
L 204.159482 -58.293694 
L 203.288281 -58.290508 
L 202.417079 -58.315954 
L 201.545878 -58.335527 
L 200.674676 -58.349437 
L 199.803475 -58.372439 
L 198.932273 -58.385749 
L 198.061072 -58.401391 
L 197.18987 -58.423945 
L 196.318669 -58.448364 
L 195.447467 -58.466359 
L 194.576266 -58.48739 
L 193.705064 -58.515 
L 192.833863 -58.537522 
L 191.962662 -58.557423 
L 191.09146 -58.582183 
L 190.220259 -58.610548 
L 189.349057 -58.635045 
L 188.477856 -58.668551 
L 187.606654 -58.691782 
L 186.735453 -58.718121 
L 185.864251 -58.747557 
L 184.99305 -58.769802 
L 184.121848 -58.801064 
L 183.250647 -58.841131 
L 182.379445 -58.864888 
L 181.508244 -58.910724 
L 180.637042 -58.934424 
L 179.765841 -58.974144 
L 178.894639 -59.004257 
L 178.023438 -59.029567 
L 177.152236 -59.072615 
L 176.281035 -59.115381 
L 175.409833 -59.143785 
L 174.538632 -59.179633 
L 173.667431 -59.212563 
L 172.796229 -59.252745 
L 171.925028 -59.28509 
L 171.053826 -59.313271 
L 170.182625 -59.359844 
L 169.311423 -59.396711 
L 168.440222 -59.439676 
L 167.56902 -59.477135 
L 166.697819 -59.517758 
L 165.826617 -59.553127 
L 164.955416 -59.600574 
L 164.084214 -59.637181 
L 163.213013 -59.681197 
L 162.341811 -59.724838 
L 161.47061 -59.767059 
L 160.599408 -59.815789 
L 159.728207 -59.865792 
L 158.857005 -59.907039 
L 157.985804 -59.959876 
L 157.114602 -60.00646 
L 156.243401 -60.066525 
L 155.372199 -60.115469 
L 154.500998 -60.162289 
L 153.629797 -60.227901 
L 152.758595 -60.271157 
L 151.887394 -60.329977 
L 151.016192 -60.395513 
L 150.144991 -60.446965 
L 149.273789 -60.509409 
L 148.402588 -60.574369 
L 147.531386 -60.64548 
L 146.660185 -60.71714 
L 145.788983 -60.786799 
L 144.917782 -60.874931 
L 144.04658 -60.953237 
L 143.175379 -61.047413 
L 142.304177 -61.133023 
L 141.432976 -61.234267 
L 140.561774 -61.349482 
L 139.690573 -61.495195 
L 138.819371 -61.589113 
L 137.94817 -61.688321 
L 137.076968 -61.781742 
L 136.205767 -61.886226 
L 135.334565 -61.995827 
L 134.463364 -62.094684 
L 133.592163 -62.226797 
L 132.720961 -62.332832 
L 131.84976 -62.444497 
L 130.978558 -62.579623 
L 130.107357 -62.70737 
L 129.236155 -62.821776 
L 128.364954 -62.959533 
L 127.493752 -63.087655 
L 126.622551 -63.220625 
L 125.751349 -63.356323 
L 124.880148 -63.503257 
L 124.008946 -63.643712 
L 123.137745 -63.786319 
L 122.266543 -63.949495 
L 121.395342 -64.103754 
L 120.52414 -64.265635 
L 119.652939 -64.433346 
L 118.781737 -64.60467 
L 117.910536 -64.785549 
L 117.039334 -64.969029 
L 116.168133 -65.164311 
L 115.296932 -65.350576 
L 114.42573 -65.53578 
L 113.554529 -65.73742 
L 112.683327 -65.941948 
L 111.812126 -66.15272 
L 110.940924 -66.359355 
L 110.069723 -66.576734 
L 109.198521 -66.789115 
L 108.32732 -67.021275 
L 107.456118 -67.249155 
L 106.584917 -67.480889 
L 105.713715 -67.725315 
L 104.842514 -67.969531 
L 103.971312 -68.229513 
L 103.100111 -68.493431 
L 102.228909 -68.753593 
L 101.357708 -69.03314 
L 100.486506 -69.32329 
L 99.615305 -69.620472 
L 98.744103 -69.930113 
L 97.872902 -70.243076 
L 97.0017 -70.56837 
L 96.130499 -70.905322 
L 95.259298 -71.264201 
L 94.388096 -71.630697 
L 93.516895 -72.024708 
L 92.645693 -72.443043 
L 91.774492 -72.881033 
L 90.90329 -73.354303 
L 90.032089 -73.875195 
L 89.160887 -74.42451 
L 88.289686 -75.029731 
L 87.418484 -75.667811 
L 86.547283 -76.385531 
L 85.676081 -77.180469 
L 84.80488 -78.035712 
L 83.933678 -78.993972 
L 83.062477 -83.971927 
L 82.191275 -86.184156 
L 81.320074 -88.762994 
L 80.448872 -91.94681 
L 79.577671 -95.163339 
L 78.706469 -98.910113 
L 77.835268 -102.999138 
L 76.964066 -107.471198 
L 76.092865 -111.990519 
L 75.221664 -117.272889 
L 74.350462 -122.747759 
L 73.479261 -128.086158 
L 72.608059 -133.117303 
L 71.736858 -138.346053 
L 70.865656 -144.239907 
L 69.994455 -150.762601 
L 69.123253 -157.588913 
L 68.252052 -164.150523 
L 67.38085 -169.933626 
L 66.509649 -174.903016 
L 65.638447 -179.218462 
L 64.767246 -183.048686 
L 63.896044 -186.660729 
L 63.024843 -189.892578 
L 62.153641 -192.472285 
L 61.28244 -194.4826 
L 60.411238 -196.135873 
L 59.540037 -197.642454 
L 58.668835 -199.738943 
L 57.797634 -201.999463 
L 56.926433 -204.599724 
L 56.055231 -208.162046 
L 55.18403 -213.73506 
L 54.312828 -221.446572 
L 53.441627 -227.447709 
L 52.570425 -230.65071 
L 51.699224 -231.562008 
L 50.828022 -231.904435 
L 49.956821 -232.073899 
L 49.085619 -232.181686 
L 48.214418 -250.661761 
z
" style="stroke: #ffffff; stroke-opacity: 0.3"/>
    </defs>
    <g clip-path="url(#p3bbbc1c1a2)">
     <use xlink:href="#me959054937" x="0" y="288" style="fill: #dd8452; fill-opacity: 0.3; stroke: #ffffff; stroke-opacity: 0.3"/>
    </g>
   </g>
   <g id="line2d_1">
    <path d="M 48.214418 51.069179 
L 49.085619 66.334726 
L 50.828022 66.590351 
L 51.699224 66.833881 
L 52.570425 67.275674 
L 53.441627 68.146202 
L 54.312828 69.915876 
L 55.18403 72.978675 
L 56.926433 80.648116 
L 57.797634 83.673613 
L 58.668835 86.123694 
L 60.411238 90.135437 
L 62.153641 94.097314 
L 63.024843 96.608996 
L 64.767246 102.919738 
L 67.38085 113.892511 
L 69.994455 126.619703 
L 73.479261 143.047627 
L 79.577671 169.825576 
L 81.320074 176.65785 
L 83.062477 183.076479 
L 84.80488 186.495844 
L 88.289686 192.731171 
L 90.90329 196.975344 
L 93.516895 200.796418 
L 96.130499 204.23975 
L 100.486506 209.475453 
L 104.842514 214.419365 
L 107.456118 217.041659 
L 110.069723 219.208981 
L 111.812126 220.430229 
L 114.42573 221.953358 
L 117.039334 223.21229 
L 119.652939 224.255582 
L 124.008946 225.670488 
L 127.493752 226.551499 
L 131.84976 227.39164 
L 137.94817 228.282884 
L 143.175379 228.82725 
L 151.887394 229.404878 
L 159.728207 229.717689 
L 171.053826 229.981537 
L 188.477856 230.208198 
L 213.742698 230.400248 
L 240.749944 230.516982 
L 257.302772 230.56954 
L 257.302772 230.56954 
" clip-path="url(#p3bbbc1c1a2)" style="fill: none; stroke: #4c72b0; stroke-width: 1.5; stroke-linecap: round"/>
   </g>
   <g id="line2d_2">
    <path d="M 48.214418 37.4244 
L 49.085619 55.831897 
L 50.828022 56.1764 
L 51.699224 56.71517 
L 52.570425 58.463317 
L 53.441627 63.013654 
L 55.18403 77.073587 
L 56.055231 82.103022 
L 56.926433 85.260683 
L 57.797634 87.543614 
L 59.540037 91.357406 
L 61.28244 94.793912 
L 62.153641 97.038276 
L 63.024843 99.902752 
L 64.767246 107.437307 
L 66.509649 116.361764 
L 67.38085 121.567031 
L 69.123253 134.133786 
L 70.865656 147.392075 
L 72.608059 158.587733 
L 76.964066 183.321042 
L 78.706469 191.463441 
L 79.577671 195.058054 
L 81.320074 201.131196 
L 82.191275 203.713559 
L 83.062477 205.82634 
L 83.933678 210.388565 
L 85.676081 212.109803 
L 87.418484 213.556885 
L 90.032089 215.28081 
L 92.645693 216.674773 
L 95.259298 217.832815 
L 98.744103 219.149623 
L 103.100111 220.567424 
L 108.32732 222.019338 
L 112.683327 223.084288 
L 118.781737 224.385724 
L 124.008946 225.310078 
L 132.720961 226.533384 
L 144.917782 227.8391 
L 151.016192 228.282895 
L 160.599408 228.809426 
L 172.796229 229.307665 
L 186.735453 229.768854 
L 212.000296 230.248194 
L 223.325915 230.365754 
L 257.302772 230.501668 
L 257.302772 230.501668 
" clip-path="url(#p3bbbc1c1a2)" style="fill: none; stroke: #dd8452; stroke-width: 1.5; stroke-linecap: round"/>
   </g>
   <g id="line2d_3">
    <path d="M 65.638447 240.66 
L 65.638447 27.65625 
" clip-path="url(#p3bbbc1c1a2)" style="fill: none; stroke-dasharray: 1.85,0.8; stroke-dashoffset: 0; stroke: #1a1a1a; stroke-width: 0.5"/>
   </g>
   <g id="line2d_4">
    <path d="M 83.062477 240.66 
L 83.062477 27.65625 
" clip-path="url(#p3bbbc1c1a2)" style="fill: none; stroke-dasharray: 1.85,0.8; stroke-dashoffset: 0; stroke: #1a1a1a; stroke-width: 0.5"/>
   </g>
   <g id="line2d_5">
    <path d="M 135.334565 240.66 
L 135.334565 27.65625 
" clip-path="url(#p3bbbc1c1a2)" style="fill: none; stroke-dasharray: 1.85,0.8; stroke-dashoffset: 0; stroke: #1a1a1a; stroke-width: 0.5"/>
   </g>
   <g id="patch_3">
    <path d="M 37.76 240.66 
L 37.76 27.65625 
" style="fill: none; stroke: #262626; stroke-width: 1.25; stroke-linejoin: miter; stroke-linecap: square"/>
   </g>
   <g id="patch_4">
    <path d="M 267.75719 240.66 
L 267.75719 27.65625 
" style="fill: none; stroke: #262626; stroke-width: 1.25; stroke-linejoin: miter; stroke-linecap: square"/>
   </g>
   <g id="patch_5">
    <path d="M 37.76 240.66 
L 267.75719 240.66 
" style="fill: none; stroke: #262626; stroke-width: 1.25; stroke-linejoin: miter; stroke-linecap: square"/>
   </g>
   <g id="patch_6">
    <path d="M 37.76 27.65625 
L 267.75719 27.65625 
" style="fill: none; stroke: #262626; stroke-width: 1.25; stroke-linejoin: miter; stroke-linecap: square"/>
   </g>
   <g id="text_14">
    <text style="fill: #262626; font: 12px 'sans-serif'; text-anchor: middle" x="152.758595" y="21.65625" transform="rotate(-0, 152.758595, 21.65625)">Loss</text>
   </g>
   <g id="legend_1">
    <g id="patch_7">
     <path d="M 188.780628 67.704844 
L 260.05719 67.704844 
Q 262.25719 67.704844 262.25719 65.504844 
L 262.25719 35.35625 
Q 262.25719 33.15625 260.05719 33.15625 
L 188.780628 33.15625 
Q 186.580628 33.15625 186.580628 35.35625 
L 186.580628 65.504844 
Q 186.580628 67.704844 188.780628 67.704844 
z
" style="fill: #ffffff; opacity: 0.8; stroke: #cccccc; stroke-linejoin: miter"/>
    </g>
    <g id="line2d_6">
     <path d="M 190.980628 41.579844 
L 201.980628 41.579844 
L 212.980628 41.579844 
" style="fill: none; stroke: #4c72b0; stroke-width: 1.5; stroke-linecap: round"/>
    </g>
    <g id="text_15">
     <text style="fill: #262626; font: 11px 'sans-serif'; text-anchor: start" x="221.780628" y="45.429844" transform="rotate(-0, 221.780628, 45.429844)">English</text>
    </g>
    <g id="line2d_7">
     <path d="M 190.980628 57.268594 
L 201.980628 57.268594 
L 212.980628 57.268594 
" style="fill: none; stroke: #dd8452; stroke-width: 1.5; stroke-linecap: round"/>
    </g>
    <g id="text_16">
     <text style="fill: #262626; font: 11px 'sans-serif'; text-anchor: start" x="221.780628" y="61.118594" transform="rotate(-0, 221.780628, 61.118594)">French</text>
    </g>
   </g>
  </g>
  <g id="axes_2">
   <g id="patch_8">
    <path d="M 319.28 240.66 
L 549.27719 240.66 
L 549.27719 27.65625 
L 319.28 27.65625 
z
" style="fill: #ffffff"/>
   </g>
   <g id="matplotlib.axis_3">
    <g id="xtick_7">
     <g id="text_17">
      <text style="fill: #262626; font: 11px 'sans-serif'; text-anchor: middle" x="329.734418" y="258.033594" transform="rotate(-0, 329.734418, 258.033594)">0</text>
     </g>
    </g>
    <g id="xtick_8">
     <g id="text_18">
      <text style="fill: #262626; font: 11px 'sans-serif'; text-anchor: middle" x="373.294492" y="258.033594" transform="rotate(-0, 373.294492, 258.033594)">2500</text>
     </g>
    </g>
    <g id="xtick_9">
     <g id="text_19">
      <text style="fill: #262626; font: 11px 'sans-serif'; text-anchor: middle" x="416.854565" y="258.033594" transform="rotate(-0, 416.854565, 258.033594)">5000</text>
     </g>
    </g>
    <g id="xtick_10">
     <g id="text_20">
      <text style="fill: #262626; font: 11px 'sans-serif'; text-anchor: middle" x="460.414639" y="258.033594" transform="rotate(-0, 460.414639, 258.033594)">7500</text>
     </g>
    </g>
    <g id="xtick_11">
     <g id="text_21">
      <text style="fill: #262626; font: 11px 'sans-serif'; text-anchor: middle" x="503.974713" y="258.033594" transform="rotate(-0, 503.974713, 258.033594)">10000</text>
     </g>
    </g>
    <g id="xtick_12">
     <g id="text_22">
      <text style="fill: #262626; font: 11px 'sans-serif'; text-anchor: middle" x="547.534787" y="258.033594" transform="rotate(-0, 547.534787, 258.033594)">12500</text>
     </g>
    </g>
    <g id="text_23">
     <text style="fill: #262626; font: 12px 'sans-serif'; text-anchor: middle" x="434.278595" y="272.809219" transform="rotate(-0, 434.278595, 272.809219)">Epoch</text>
    </g>
   </g>
   <g id="matplotlib.axis_4">
    <g id="ytick_7">
     <g id="text_24">
      <text style="fill: #262626; font: 11px 'sans-serif'; text-anchor: end" x="309.78" y="226.341717" transform="rotate(-0, 309.78, 226.341717)">0.5</text>
     </g>
    </g>
    <g id="ytick_8">
     <g id="text_25">
      <text style="fill: #262626; font: 11px 'sans-serif'; text-anchor: end" x="309.78" y="189.285342" transform="rotate(-0, 309.78, 189.285342)">0.6</text>
     </g>
    </g>
    <g id="ytick_9">
     <g id="text_26">
      <text style="fill: #262626; font: 11px 'sans-serif'; text-anchor: end" x="309.78" y="152.228967" transform="rotate(-0, 309.78, 152.228967)">0.7</text>
     </g>
    </g>
    <g id="ytick_10">
     <g id="text_27">
      <text style="fill: #262626; font: 11px 'sans-serif'; text-anchor: end" x="309.78" y="115.172592" transform="rotate(-0, 309.78, 115.172592)">0.8</text>
     </g>
    </g>
    <g id="ytick_11">
     <g id="text_28">
      <text style="fill: #262626; font: 11px 'sans-serif'; text-anchor: end" x="309.78" y="78.116217" transform="rotate(-0, 309.78, 78.116217)">0.9</text>
     </g>
    </g>
    <g id="ytick_12">
     <g id="text_29">
      <text style="fill: #262626; font: 11px 'sans-serif'; text-anchor: end" x="309.78" y="41.059842" transform="rotate(-0, 309.78, 41.059842)">1.0</text>
     </g>
    </g>
   </g>
   <g id="PolyCollection_3">
    <defs>
     <path id="mf579f0edf9" d="M 329.734418 -65.59508 
L 329.734418 -65.59508 
L 330.605619 -65.59508 
L 331.476821 -65.59508 
L 332.348022 -65.59508 
L 333.219224 -65.59508 
L 334.090425 -65.59508 
L 334.961627 -65.502325 
L 335.832828 -65.130375 
L 336.70403 -64.095173 
L 337.575231 -62.385347 
L 338.446433 -60.742234 
L 339.317634 -59.814029 
L 340.188835 -59.930769 
L 341.060037 -59.531253 
L 341.931238 -59.886446 
L 342.80244 -59.941071 
L 343.673641 -59.924103 
L 344.544843 -60.006727 
L 345.416044 -60.987466 
L 346.287246 -62.253708 
L 347.158447 -63.722064 
L 348.029649 -66.768026 
L 348.90085 -68.418063 
L 349.772052 -70.029507 
L 350.643253 -72.546413 
L 351.514455 -74.318731 
L 352.385656 -77.50625 
L 353.256858 -82.042712 
L 354.128059 -84.92843 
L 354.999261 -89.559026 
L 355.870462 -92.996473 
L 356.741664 -94.693509 
L 357.612865 -97.924826 
L 358.484066 -100.445837 
L 359.355268 -103.29318 
L 360.226469 -105.836645 
L 361.097671 -109.681074 
L 361.968872 -112.690007 
L 362.840074 -115.991347 
L 363.711275 -119.230531 
L 364.582477 -123.387719 
L 365.453678 -126.830067 
L 366.32488 -128.385349 
L 367.196081 -129.916732 
L 368.067283 -133.223601 
L 368.938484 -136.014889 
L 369.809686 -138.027076 
L 370.680887 -140.90502 
L 371.552089 -142.688648 
L 372.42329 -145.528887 
L 373.294492 -147.335069 
L 374.165693 -149.499204 
L 375.036895 -152.311956 
L 375.908096 -154.166432 
L 376.779298 -156.613439 
L 377.650499 -159.568854 
L 378.5217 -161.938481 
L 379.392902 -163.746675 
L 380.264103 -165.808187 
L 381.135305 -167.705121 
L 382.006506 -169.928985 
L 382.877708 -172.310628 
L 383.748909 -173.606147 
L 384.620111 -176.978288 
L 385.491312 -178.326093 
L 386.362514 -180.901065 
L 387.233715 -182.86588 
L 388.104917 -185.030663 
L 388.976118 -188.110258 
L 389.84732 -190.747023 
L 390.718521 -193.390633 
L 391.589723 -195.864596 
L 392.460924 -199.013276 
L 393.332126 -201.037777 
L 394.203327 -202.694366 
L 395.074529 -204.859868 
L 395.94573 -206.85968 
L 396.816932 -209.218861 
L 397.688133 -211.100551 
L 398.559334 -212.296611 
L 399.430536 -214.176823 
L 400.301737 -214.687965 
L 401.172939 -216.234575 
L 402.04414 -217.262617 
L 402.915342 -218.566577 
L 403.786543 -219.670597 
L 404.657745 -220.790781 
L 405.528946 -221.745431 
L 406.400148 -222.277644 
L 407.271349 -224.390371 
L 408.142551 -225.133917 
L 409.013752 -225.536451 
L 409.884954 -227.146831 
L 410.756155 -227.673119 
L 411.627357 -228.222038 
L 412.498558 -229.191877 
L 413.36976 -230.378233 
L 414.240961 -230.972472 
L 415.112163 -231.354458 
L 415.983364 -231.890007 
L 416.854565 -232.580267 
L 417.725767 -233.398947 
L 418.596968 -234.338966 
L 419.46817 -234.845874 
L 420.339371 -235.366231 
L 421.210573 -235.563332 
L 422.081774 -236.090288 
L 422.952976 -236.447278 
L 423.824177 -237.155401 
L 424.695379 -237.669756 
L 425.56658 -238.141176 
L 426.437782 -238.445471 
L 427.308983 -239.340646 
L 428.180185 -239.429255 
L 429.051386 -240.567881 
L 429.922588 -240.842067 
L 430.793789 -241.217959 
L 431.664991 -241.802554 
L 432.536192 -242.167482 
L 433.407394 -242.392601 
L 434.278595 -242.679091 
L 435.149797 -242.794093 
L 436.020998 -243.099172 
L 436.892199 -243.487427 
L 437.763401 -243.736485 
L 438.634602 -244.073031 
L 439.505804 -244.101734 
L 440.377005 -244.336018 
L 441.248207 -244.319445 
L 442.119408 -244.783293 
L 442.99061 -245.177562 
L 443.861811 -245.614236 
L 444.733013 -245.988809 
L 445.604214 -245.906892 
L 446.475416 -245.874944 
L 447.346617 -246.190234 
L 448.217819 -246.264816 
L 449.08902 -246.348853 
L 449.960222 -246.565224 
L 450.831423 -246.565224 
L 451.702625 -246.652175 
L 452.573826 -246.652175 
L 453.445028 -246.655288 
L 454.316229 -246.811138 
L 455.187431 -246.811138 
L 456.058632 -247.023936 
L 456.929833 -247.316963 
L 457.801035 -247.4476 
L 458.672236 -247.320122 
L 459.543438 -247.58358 
L 460.414639 -247.58358 
L 461.285841 -247.58358 
L 462.157042 -247.58358 
L 463.028244 -247.543314 
L 463.899445 -247.677037 
L 464.770647 -247.682054 
L 465.641848 -247.682054 
L 466.51305 -247.776718 
L 467.384251 -247.548259 
L 468.255453 -247.682054 
L 469.126654 -247.641976 
L 469.997856 -247.877639 
L 470.869057 -247.877639 
L 471.740259 -247.871528 
L 472.61146 -248.072748 
L 473.482662 -248.072748 
L 474.353863 -248.312198 
L 475.225064 -248.514716 
L 476.096266 -248.514716 
L 476.967467 -248.412797 
L 477.838669 -248.412797 
L 478.70987 -248.412797 
L 479.581072 -248.514716 
L 480.452273 -248.412797 
L 481.323475 -248.514716 
L 482.194676 -248.412797 
L 483.065878 -248.312198 
L 483.937079 -248.514716 
L 484.808281 -248.617966 
L 485.679482 -248.514716 
L 486.550684 -248.412797 
L 487.421885 -248.617966 
L 488.293087 -248.524751 
L 489.164288 -248.524751 
L 490.03549 -248.628089 
L 490.906691 -248.628089 
L 491.777893 -248.73279 
L 492.649094 -248.638164 
L 493.520296 -248.742963 
L 494.391497 -248.742963 
L 495.262698 -248.849165 
L 496.1339 -248.849165 
L 497.005101 -248.849165 
L 497.876303 -248.849165 
L 498.747504 -248.849165 
L 499.618706 -248.849165 
L 500.489907 -248.849165 
L 501.361109 -248.849165 
L 502.23231 -248.849165 
L 503.103512 -248.849165 
L 503.974713 -248.849165 
L 504.845915 -248.899785 
L 505.717116 -248.849165 
L 506.588318 -249.008003 
L 507.459519 -249.008003 
L 508.330721 -249.008003 
L 509.201922 -249.008003 
L 510.073124 -249.008003 
L 510.944325 -249.018771 
L 511.815527 -249.139828 
L 512.686728 -249.366188 
L 513.55793 -249.366188 
L 514.429131 -249.366188 
L 515.300332 -249.366188 
L 516.171534 -249.366188 
L 517.042735 -249.366188 
L 517.913937 -249.366188 
L 518.785138 -249.366188 
L 519.65634 -249.366188 
L 520.527541 -249.366188 
L 521.398743 -249.366188 
L 522.269944 -249.366188 
L 523.141146 -249.356548 
L 524.012347 -249.366188 
L 524.883549 -249.366188 
L 525.75475 -249.366188 
L 526.625952 -249.366188 
L 527.497153 -249.366188 
L 528.368355 -249.366188 
L 529.239556 -249.366188 
L 530.110758 -249.366188 
L 530.981959 -249.366188 
L 531.853161 -249.366188 
L 532.724362 -249.366188 
L 533.595563 -249.366188 
L 534.466765 -249.482726 
L 535.337966 -249.482726 
L 536.209168 -249.482726 
L 537.080369 -249.482726 
L 537.951571 -249.482726 
L 538.822772 -249.366188 
L 538.822772 -250.580349 
L 538.822772 -250.580349 
L 537.951571 -250.661761 
L 537.080369 -250.661761 
L 536.209168 -250.661761 
L 535.337966 -250.661761 
L 534.466765 -250.661761 
L 533.595563 -250.580349 
L 532.724362 -250.580349 
L 531.853161 -250.580349 
L 530.981959 -250.580349 
L 530.110758 -250.580349 
L 529.239556 -250.580349 
L 528.368355 -250.580349 
L 527.497153 -250.580349 
L 526.625952 -250.580349 
L 525.75475 -250.580349 
L 524.883549 -250.580349 
L 524.012347 -250.580349 
L 523.141146 -250.581384 
L 522.269944 -250.580349 
L 521.398743 -250.580349 
L 520.527541 -250.580349 
L 519.65634 -250.580349 
L 518.785138 -250.580349 
L 517.913937 -250.580349 
L 517.042735 -250.580349 
L 516.171534 -250.580349 
L 515.300332 -250.580349 
L 514.429131 -250.580349 
L 513.55793 -250.580349 
L 512.686728 -250.580349 
L 511.815527 -250.410809 
L 510.944325 -250.531865 
L 510.073124 -250.534027 
L 509.201922 -250.534027 
L 508.330721 -250.534027 
L 507.459519 -250.534027 
L 506.588318 -250.534027 
L 505.717116 -250.494915 
L 504.845915 -250.444294 
L 503.974713 -250.494915 
L 503.103512 -250.494915 
L 502.23231 -250.494915 
L 501.361109 -250.494915 
L 500.489907 -250.494915 
L 499.618706 -250.494915 
L 498.747504 -250.494915 
L 497.876303 -250.494915 
L 497.005101 -250.494915 
L 496.1339 -250.494915 
L 495.262698 -250.494915 
L 494.391497 -250.403167 
L 493.520296 -250.403167 
L 492.649094 -250.310016 
L 491.777893 -250.404733 
L 490.906691 -250.311484 
L 490.03549 -250.311484 
L 489.164288 -250.216871 
L 488.293087 -250.216871 
L 487.421885 -250.313 
L 486.550684 -250.122268 
L 485.679482 -250.2183 
L 484.808281 -250.313 
L 483.937079 -250.2183 
L 483.065878 -250.024917 
L 482.194676 -250.122268 
L 481.323475 -250.2183 
L 480.452273 -250.122268 
L 479.581072 -250.2183 
L 478.70987 -250.122268 
L 477.838669 -250.122268 
L 476.967467 -250.122268 
L 476.096266 -250.2183 
L 475.225064 -250.2183 
L 474.353863 -250.024917 
L 473.482662 -250.066417 
L 472.61146 -250.066417 
L 471.740259 -249.66518 
L 470.869057 -249.865626 
L 469.997856 -249.865626 
L 469.126654 -249.696781 
L 468.255453 -249.656703 
L 467.384251 -249.592548 
L 466.51305 -249.75999 
L 465.641848 -249.656703 
L 464.770647 -249.656703 
L 463.899445 -249.653113 
L 463.028244 -249.588886 
L 462.157042 -249.54862 
L 461.285841 -249.54862 
L 460.414639 -249.54862 
L 459.543438 -249.54862 
L 458.672236 -249.416177 
L 457.801035 -249.478043 
L 456.929833 -249.41073 
L 456.058632 -249.307855 
L 455.187431 -249.124753 
L 454.316229 -249.124753 
L 453.445028 -249.082652 
L 452.573826 -249.077157 
L 451.702625 -249.077157 
L 450.831423 -248.966159 
L 449.960222 -248.966159 
L 449.08902 -248.769416 
L 448.217819 -248.655502 
L 447.346617 -248.71287 
L 446.475416 -248.434309 
L 445.604214 -248.402361 
L 444.733013 -248.518394 
L 443.861811 -248.290509 
L 442.99061 -247.935381 
L 442.119408 -247.916536 
L 441.248207 -247.588581 
L 440.377005 -247.563401 
L 439.505804 -247.393177 
L 438.634602 -247.215323 
L 437.763401 -247.138753 
L 436.892199 -246.983303 
L 436.020998 -246.769101 
L 435.149797 -246.480328 
L 434.278595 -246.397382 
L 433.407394 -246.270756 
L 432.536192 -246.099974 
L 431.664991 -245.664491 
L 430.793789 -245.448678 
L 429.922588 -245.041374 
L 429.051386 -244.876627 
L 428.180185 -243.829191 
L 427.308983 -243.702636 
L 426.437782 -243.220761 
L 425.56658 -243.103337 
L 424.695379 -242.774345 
L 423.824177 -242.453866 
L 422.952976 -241.939861 
L 422.081774 -241.470621 
L 421.210573 -241.377903 
L 420.339371 -241.144679 
L 419.46817 -240.649461 
L 418.596968 -239.925632 
L 417.725767 -239.075485 
L 416.854565 -238.276138 
L 415.983364 -237.744271 
L 415.112163 -237.444985 
L 414.240961 -237.215903 
L 413.36976 -236.794574 
L 412.498558 -236.147732 
L 411.627357 -235.103634 
L 410.756155 -234.41321 
L 409.884954 -233.880892 
L 409.013752 -232.86627 
L 408.142551 -232.416757 
L 407.271349 -231.705798 
L 406.400148 -230.41033 
L 405.528946 -230.090494 
L 404.657745 -229.599247 
L 403.786543 -229.273535 
L 402.915342 -228.286157 
L 402.04414 -227.352411 
L 401.172939 -225.962013 
L 400.301737 -225.03854 
L 399.430536 -224.714847 
L 398.559334 -223.135226 
L 397.688133 -222.093586 
L 396.816932 -220.670358 
L 395.94573 -219.337329 
L 395.074529 -217.369522 
L 394.203327 -215.644861 
L 393.332126 -214.056777 
L 392.460924 -212.139478 
L 391.589723 -210.150043 
L 390.718521 -208.639181 
L 389.84732 -206.763953 
L 388.976118 -204.839245 
L 388.104917 -202.857791 
L 387.233715 -201.278727 
L 386.362514 -199.413623 
L 385.491312 -196.56216 
L 384.620111 -195.322913 
L 383.748909 -192.739324 
L 382.877708 -191.246316 
L 382.006506 -188.705012 
L 381.135305 -186.711661 
L 380.264103 -183.995482 
L 379.392902 -181.898856 
L 378.5217 -179.43663 
L 377.650499 -176.443985 
L 376.779298 -172.847466 
L 375.908096 -169.500314 
L 375.036895 -167.92898 
L 374.165693 -165.005467 
L 373.294492 -162.198923 
L 372.42329 -160.651286 
L 371.552089 -157.509571 
L 370.680887 -155.114724 
L 369.809686 -151.572176 
L 368.938484 -149.305346 
L 368.067283 -146.189805 
L 367.196081 -142.426005 
L 366.32488 -140.553098 
L 365.453678 -138.330106 
L 364.582477 -134.168177 
L 363.711275 -129.062361 
L 362.840074 -125.109197 
L 361.968872 -121.01947 
L 361.097671 -117.299651 
L 360.226469 -113.210795 
L 359.355268 -110.38572 
L 358.484066 -107.400953 
L 357.612865 -105.794339 
L 356.741664 -103.117255 
L 355.870462 -101.185447 
L 354.999261 -97.623045 
L 354.128059 -93.845811 
L 353.256858 -90.861079 
L 352.385656 -86.015224 
L 351.514455 -83.318993 
L 350.643253 -81.208578 
L 349.772052 -78.814664 
L 348.90085 -76.450663 
L 348.029649 -74.102172 
L 347.158447 -70.605585 
L 346.287246 -68.147403 
L 345.416044 -64.892849 
L 344.544843 -63.350307 
L 343.673641 -63.351955 
L 342.80244 -62.78651 
L 341.931238 -62.154958 
L 341.060037 -61.404211 
L 340.188835 -61.513657 
L 339.317634 -61.41132 
L 338.446433 -62.182908 
L 337.575231 -63.360006 
L 336.70403 -64.847128 
L 335.832828 -65.516797 
L 334.961627 -65.606857 
L 334.090425 -65.59508 
L 333.219224 -65.59508 
L 332.348022 -65.59508 
L 331.476821 -65.59508 
L 330.605619 -65.59508 
L 329.734418 -65.59508 
z
" style="stroke: #ffffff; stroke-opacity: 0.3"/>
    </defs>
    <g clip-path="url(#p9c4a3bc2c1)">
     <use xlink:href="#mf579f0edf9" x="0" y="288" style="fill: #4c72b0; fill-opacity: 0.3; stroke: #ffffff; stroke-opacity: 0.3"/>
    </g>
   </g>
   <g id="PolyCollection_4">
    <defs>
     <path id="m1610b71f71" d="M 329.734418 -65.59508 
L 329.734418 -65.59508 
L 330.605619 -65.59508 
L 331.476821 -65.59508 
L 332.348022 -65.59508 
L 333.219224 -65.59508 
L 334.090425 -65.053218 
L 334.961627 -63.944192 
L 335.832828 -62.495388 
L 336.70403 -60.074743 
L 337.575231 -58.894132 
L 338.446433 -57.664555 
L 339.317634 -57.021989 
L 340.188835 -57.167845 
L 341.060037 -58.014817 
L 341.931238 -59.024436 
L 342.80244 -59.637278 
L 343.673641 -60.12809 
L 344.544843 -60.951859 
L 345.416044 -62.345478 
L 346.287246 -62.909329 
L 347.158447 -63.792036 
L 348.029649 -64.120563 
L 348.90085 -65.022717 
L 349.772052 -66.282073 
L 350.643253 -69.41257 
L 351.514455 -73.076678 
L 352.385656 -78.282907 
L 353.256858 -83.036408 
L 354.128059 -86.809487 
L 354.999261 -92.626651 
L 355.870462 -97.802445 
L 356.741664 -104.419047 
L 357.612865 -112.987832 
L 358.484066 -119.137392 
L 359.355268 -125.982314 
L 360.226469 -132.713231 
L 361.097671 -138.866793 
L 361.968872 -145.574992 
L 362.840074 -153.691752 
L 363.711275 -157.932834 
L 364.582477 -164.038175 
L 365.453678 -177.806011 
L 366.32488 -181.439076 
L 367.196081 -185.525116 
L 368.067283 -188.418258 
L 368.938484 -191.227296 
L 369.809686 -193.997984 
L 370.680887 -196.06329 
L 371.552089 -198.778362 
L 372.42329 -200.381777 
L 373.294492 -201.269751 
L 374.165693 -203.319285 
L 375.036895 -205.222707 
L 375.908096 -206.273575 
L 376.779298 -207.730066 
L 377.650499 -208.741431 
L 378.5217 -210.682019 
L 379.392902 -212.055509 
L 380.264103 -212.806657 
L 381.135305 -213.530744 
L 382.006506 -214.420405 
L 382.877708 -214.908697 
L 383.748909 -215.496961 
L 384.620111 -216.313636 
L 385.491312 -216.76453 
L 386.362514 -217.144657 
L 387.233715 -217.713652 
L 388.104917 -218.114144 
L 388.976118 -218.621301 
L 389.84732 -219.469698 
L 390.718521 -219.949153 
L 391.589723 -220.678242 
L 392.460924 -220.986658 
L 393.332126 -222.259396 
L 394.203327 -222.571378 
L 395.074529 -223.328171 
L 395.94573 -223.468233 
L 396.816932 -223.902699 
L 397.688133 -224.861893 
L 398.559334 -224.862224 
L 399.430536 -225.906354 
L 400.301737 -226.448059 
L 401.172939 -226.878511 
L 402.04414 -227.667819 
L 402.915342 -227.899429 
L 403.786543 -228.339892 
L 404.657745 -228.724844 
L 405.528946 -228.970884 
L 406.400148 -229.876558 
L 407.271349 -229.867424 
L 408.142551 -230.726615 
L 409.013752 -231.634141 
L 409.884954 -232.569693 
L 410.756155 -233.253994 
L 411.627357 -233.231496 
L 412.498558 -233.754886 
L 413.36976 -233.969008 
L 414.240961 -234.226602 
L 415.112163 -234.33572 
L 415.983364 -234.774092 
L 416.854565 -235.383225 
L 417.725767 -235.500363 
L 418.596968 -236.004296 
L 419.46817 -236.382445 
L 420.339371 -236.243268 
L 421.210573 -236.767808 
L 422.081774 -237.27655 
L 422.952976 -237.3827 
L 423.824177 -238.077336 
L 424.695379 -238.766101 
L 425.56658 -239.00463 
L 426.437782 -238.937025 
L 427.308983 -239.826052 
L 428.180185 -240.280883 
L 429.051386 -239.983842 
L 429.922588 -240.23886 
L 430.793789 -240.68487 
L 431.664991 -241.000144 
L 432.536192 -241.107377 
L 433.407394 -241.054003 
L 434.278595 -241.739734 
L 435.149797 -241.611545 
L 436.020998 -241.789168 
L 436.892199 -241.829942 
L 437.763401 -242.296084 
L 438.634602 -242.531318 
L 439.505804 -243.024146 
L 440.377005 -243.512472 
L 441.248207 -243.642722 
L 442.119408 -243.833422 
L 442.99061 -243.821464 
L 443.861811 -243.910621 
L 444.733013 -244.316852 
L 445.604214 -244.282779 
L 446.475416 -244.230217 
L 447.346617 -244.652809 
L 448.217819 -244.561475 
L 449.08902 -244.866768 
L 449.960222 -245.065878 
L 450.831423 -244.869142 
L 451.702625 -245.196056 
L 452.573826 -245.196846 
L 453.445028 -245.428253 
L 454.316229 -245.422545 
L 455.187431 -245.2727 
L 456.058632 -245.448356 
L 456.929833 -245.863055 
L 457.801035 -245.944922 
L 458.672236 -245.78081 
L 459.543438 -245.765638 
L 460.414639 -246.190944 
L 461.285841 -246.43629 
L 462.157042 -246.448645 
L 463.028244 -246.627006 
L 463.899445 -246.523974 
L 464.770647 -246.724439 
L 465.641848 -247.029345 
L 466.51305 -247.188634 
L 467.384251 -247.072273 
L 468.255453 -247.331276 
L 469.126654 -247.324068 
L 469.997856 -247.293053 
L 470.869057 -247.460916 
L 471.740259 -247.799475 
L 472.61146 -248.00794 
L 473.482662 -248.116758 
L 474.353863 -248.174913 
L 475.225064 -248.377931 
L 476.096266 -248.324539 
L 476.967467 -248.387652 
L 477.838669 -248.480464 
L 478.70987 -248.619466 
L 479.581072 -248.619466 
L 480.452273 -248.622689 
L 481.323475 -248.622689 
L 482.194676 -248.71797 
L 483.065878 -248.90036 
L 483.937079 -248.907561 
L 484.808281 -249.068818 
L 485.679482 -249.058024 
L 486.550684 -249.058024 
L 487.421885 -249.058024 
L 488.293087 -249.058024 
L 489.164288 -249.061273 
L 490.03549 -249.061273 
L 490.906691 -249.063372 
L 491.777893 -249.066622 
L 492.649094 -249.066622 
L 493.520296 -249.066622 
L 494.391497 -249.066622 
L 495.262698 -249.075231 
L 496.1339 -249.073131 
L 497.005101 -249.171832 
L 497.876303 -249.180577 
L 498.747504 -249.078488 
L 499.618706 -249.177266 
L 500.489907 -249.177266 
L 501.361109 -249.180577 
L 502.23231 -249.081748 
L 503.103512 -249.180577 
L 503.974713 -249.177266 
L 504.845915 -249.201301 
L 505.717116 -249.201301 
L 506.588318 -249.201301 
L 507.459519 -249.191557 
L 508.330721 -249.201301 
L 509.201922 -249.201301 
L 510.073124 -249.133353 
L 510.944325 -249.133353 
L 511.815527 -249.201301 
L 512.686728 -249.133353 
L 513.55793 -249.201301 
L 514.429131 -249.191557 
L 515.300332 -249.191557 
L 516.171534 -249.191557 
L 517.042735 -249.201301 
L 517.913937 -249.201301 
L 518.785138 -249.201301 
L 519.65634 -249.20677 
L 520.527541 -249.20677 
L 521.398743 -249.20677 
L 522.269944 -249.20677 
L 523.141146 -249.20677 
L 524.012347 -249.19701 
L 524.883549 -249.20677 
L 525.75475 -249.20677 
L 526.625952 -249.20677 
L 527.497153 -249.20677 
L 528.368355 -249.20677 
L 529.239556 -249.20677 
L 530.110758 -249.20677 
L 530.981959 -249.20677 
L 531.853161 -249.20677 
L 532.724362 -249.20677 
L 533.595563 -249.417363 
L 534.466765 -249.417363 
L 535.337966 -249.20677 
L 536.209168 -249.20677 
L 537.080369 -249.417363 
L 537.951571 -249.417363 
L 538.822772 -249.417363 
L 538.822772 -250.530686 
L 538.822772 -250.530686 
L 537.951571 -250.530686 
L 537.080369 -250.530686 
L 536.209168 -250.560692 
L 535.337966 -250.560692 
L 534.466765 -250.530686 
L 533.595563 -250.530686 
L 532.724362 -250.560692 
L 531.853161 -250.560692 
L 530.981959 -250.560692 
L 530.110758 -250.560692 
L 529.239556 -250.560692 
L 528.368355 -250.560692 
L 527.497153 -250.560692 
L 526.625952 -250.560692 
L 525.75475 -250.560692 
L 524.883549 -250.560692 
L 524.012347 -250.562601 
L 523.141146 -250.560692 
L 522.269944 -250.560692 
L 521.398743 -250.560692 
L 520.527541 -250.560692 
L 519.65634 -250.560692 
L 518.785138 -250.558309 
L 517.913937 -250.558309 
L 517.042735 -250.558309 
L 516.171534 -250.560202 
L 515.300332 -250.560202 
L 514.429131 -250.560202 
L 513.55793 -250.558309 
L 512.686728 -250.535962 
L 511.815527 -250.558309 
L 510.944325 -250.535962 
L 510.073124 -250.535962 
L 509.201922 -250.558309 
L 508.330721 -250.558309 
L 507.459519 -250.560202 
L 506.588318 -250.558309 
L 505.717116 -250.558309 
L 504.845915 -250.558309 
L 503.974713 -250.550937 
L 503.103512 -250.555478 
L 502.23231 -250.473721 
L 501.361109 -250.555478 
L 500.489907 -250.550937 
L 499.618706 -250.550937 
L 498.747504 -250.469129 
L 497.876303 -250.555478 
L 497.005101 -250.548519 
L 496.1339 -250.466634 
L 495.262698 -250.464534 
L 494.391497 -250.457439 
L 493.520296 -250.457439 
L 492.649094 -250.457439 
L 491.777893 -250.457439 
L 490.906691 -250.452836 
L 490.03549 -250.454936 
L 489.164288 -250.454936 
L 488.293087 -250.450332 
L 487.421885 -250.450332 
L 486.550684 -250.450332 
L 485.679482 -250.450332 
L 484.808281 -250.455243 
L 483.937079 -250.412357 
L 483.065878 -250.411705 
L 482.194676 -250.41351 
L 481.323475 -250.328204 
L 480.452273 -250.328204 
L 479.581072 -250.323575 
L 478.70987 -250.323575 
L 477.838669 -250.266286 
L 476.967467 -250.178512 
L 476.096266 -250.143479 
L 475.225064 -250.172531 
L 474.353863 -250.104667 
L 473.482662 -250.072528 
L 472.61146 -249.977204 
L 471.740259 -249.824496 
L 470.869057 -249.60559 
L 469.997856 -249.585016 
L 469.126654 -249.554 
L 468.255453 -249.53109 
L 467.384251 -249.413213 
L 466.51305 -249.394998 
L 465.641848 -249.36585 
L 464.770647 -249.211436 
L 463.899445 -249.050729 
L 463.028244 -249.120431 
L 462.157042 -248.929768 
L 461.285841 -248.942122 
L 460.414639 -248.802739 
L 459.543438 -248.588141 
L 458.672236 -248.565118 
L 457.801035 -248.656182 
L 456.929833 -248.639903 
L 456.058632 -248.340109 
L 455.187431 -248.311623 
L 454.316229 -248.350215 
L 453.445028 -248.336658 
L 452.573826 -248.199039 
L 451.702625 -248.109537 
L 450.831423 -247.886841 
L 449.960222 -247.862841 
L 449.08902 -247.783218 
L 448.217819 -247.629192 
L 447.346617 -247.61245 
L 446.475416 -247.371578 
L 445.604214 -247.40931 
L 444.733013 -247.359534 
L 443.861811 -247.133713 
L 442.99061 -247.10117 
L 442.119408 -247.112767 
L 441.248207 -247.016883 
L 440.377005 -246.935143 
L 439.505804 -246.512683 
L 438.634602 -246.004436 
L 437.763401 -245.780351 
L 436.892199 -245.598735 
L 436.020998 -245.451072 
L 435.149797 -245.275373 
L 434.278595 -245.335622 
L 433.407394 -244.898579 
L 432.536192 -244.927643 
L 431.664991 -244.830736 
L 430.793789 -244.604248 
L 429.922588 -244.237619 
L 429.051386 -244.123609 
L 428.180185 -244.435069 
L 427.308983 -244.077259 
L 426.437782 -243.4156 
L 425.56658 -243.430436 
L 424.695379 -243.193946 
L 423.824177 -242.873782 
L 422.952976 -242.477051 
L 422.081774 -242.010033 
L 421.210573 -241.854958 
L 420.339371 -241.272425 
L 419.46817 -241.274573 
L 418.596968 -240.816174 
L 417.725767 -240.279412 
L 416.854565 -240.208111 
L 415.983364 -239.725876 
L 415.112163 -239.139615 
L 414.240961 -238.946446 
L 413.36976 -238.811462 
L 412.498558 -238.452413 
L 411.627357 -238.214197 
L 410.756155 -237.944376 
L 409.884954 -237.144728 
L 409.013752 -236.521739 
L 408.142551 -235.607694 
L 407.271349 -235.088578 
L 406.400148 -235.032337 
L 405.528946 -234.328434 
L 404.657745 -234.001308 
L 403.786543 -233.518658 
L 402.915342 -233.279958 
L 402.04414 -232.840257 
L 401.172939 -232.055321 
L 400.301737 -231.402255 
L 399.430536 -230.5346 
L 398.559334 -229.863155 
L 397.688133 -229.702531 
L 396.816932 -228.914744 
L 395.94573 -228.407022 
L 395.074529 -227.965703 
L 394.203327 -227.305288 
L 393.332126 -226.945968 
L 392.460924 -225.627675 
L 391.589723 -225.445368 
L 390.718521 -224.643397 
L 389.84732 -224.106073 
L 388.976118 -223.545107 
L 388.104917 -223.18467 
L 387.233715 -222.733264 
L 386.362514 -222.210885 
L 385.491312 -221.731263 
L 384.620111 -221.165369 
L 383.748909 -220.670828 
L 382.877708 -220.332606 
L 382.006506 -220.027886 
L 381.135305 -219.162718 
L 380.264103 -218.363596 
L 379.392902 -217.336359 
L 378.5217 -216.421112 
L 377.650499 -215.154328 
L 376.779298 -214.363752 
L 375.908096 -213.197815 
L 375.036895 -212.242241 
L 374.165693 -210.203441 
L 373.294492 -208.496349 
L 372.42329 -207.786524 
L 371.552089 -206.398479 
L 370.680887 -204.104235 
L 369.809686 -202.129899 
L 368.938484 -199.79313 
L 368.067283 -197.091773 
L 367.196081 -194.358532 
L 366.32488 -190.899195 
L 365.453678 -187.422286 
L 364.582477 -176.337332 
L 363.711275 -170.335863 
L 362.840074 -165.278523 
L 361.968872 -157.195657 
L 361.097671 -151.426249 
L 360.226469 -145.822401 
L 359.355268 -137.147081 
L 358.484066 -130.819525 
L 357.612865 -125.084273 
L 356.741664 -116.050503 
L 355.870462 -108.790487 
L 354.999261 -102.384466 
L 354.128059 -95.100539 
L 353.256858 -90.032367 
L 352.385656 -84.489579 
L 351.514455 -79.325278 
L 350.643253 -74.725589 
L 349.772052 -70.323195 
L 348.90085 -68.677463 
L 348.029649 -66.36046 
L 347.158447 -65.929526 
L 346.287246 -65.023141 
L 345.416044 -64.401757 
L 344.544843 -63.040538 
L 343.673641 -62.033815 
L 342.80244 -61.607419 
L 341.931238 -60.98185 
L 341.060037 -59.859759 
L 340.188835 -58.951549 
L 339.317634 -58.593118 
L 338.446433 -59.350635 
L 337.575231 -60.634639 
L 336.70403 -61.761679 
L 335.832828 -64.015944 
L 334.961627 -65.024328 
L 334.090425 -65.605177 
L 333.219224 -65.59508 
L 332.348022 -65.59508 
L 331.476821 -65.59508 
L 330.605619 -65.59508 
L 329.734418 -65.59508 
z
" style="stroke: #ffffff; stroke-opacity: 0.3"/>
    </defs>
    <g clip-path="url(#p9c4a3bc2c1)">
     <use xlink:href="#m1610b71f71" x="0" y="288" style="fill: #dd8452; fill-opacity: 0.3; stroke: #ffffff; stroke-opacity: 0.3"/>
    </g>
   </g>
   <g id="line2d_8">
    <path d="M 329.734418 222.40492 
L 334.961627 222.445409 
L 335.832828 222.676414 
L 336.70403 223.52885 
L 338.446433 226.537429 
L 339.317634 227.387325 
L 340.188835 227.277787 
L 341.060037 227.532268 
L 341.931238 226.979298 
L 343.673641 226.361971 
L 344.544843 226.321483 
L 345.416044 225.059842 
L 347.158447 220.836175 
L 348.029649 217.564901 
L 349.772052 213.577915 
L 350.643253 211.122504 
L 351.514455 209.181138 
L 352.385656 206.239263 
L 353.256858 201.548105 
L 354.128059 198.61288 
L 354.999261 194.408965 
L 355.870462 190.90904 
L 356.741664 189.094618 
L 357.612865 186.140417 
L 358.484066 184.076605 
L 360.226469 178.47628 
L 361.097671 174.509637 
L 362.840074 167.449728 
L 363.711275 163.853554 
L 364.582477 159.222052 
L 365.453678 155.419913 
L 367.196081 151.828632 
L 368.067283 148.293297 
L 368.938484 145.339882 
L 369.809686 143.200374 
L 370.680887 139.990128 
L 371.552089 137.90089 
L 372.42329 134.909913 
L 373.294492 133.233004 
L 374.165693 130.747665 
L 375.036895 127.879532 
L 375.908096 126.166627 
L 378.5217 117.312444 
L 382.006506 108.683001 
L 382.877708 106.221528 
L 383.748909 104.827264 
L 384.620111 101.8494 
L 385.491312 100.555874 
L 386.362514 97.842656 
L 388.104917 94.055773 
L 389.84732 89.244512 
L 393.332126 80.452723 
L 394.203327 78.830387 
L 396.816932 73.055391 
L 397.688133 71.402932 
L 398.559334 70.284082 
L 399.430536 68.554165 
L 400.301737 68.136747 
L 402.915342 64.573633 
L 403.786543 63.527934 
L 405.528946 62.082037 
L 406.400148 61.656013 
L 407.271349 59.951916 
L 408.142551 59.224663 
L 409.013752 58.79864 
L 409.884954 57.486138 
L 411.627357 56.337164 
L 413.36976 54.413597 
L 414.240961 53.905812 
L 415.983364 53.182861 
L 416.854565 52.571798 
L 419.46817 50.252333 
L 420.339371 49.744545 
L 422.081774 49.219546 
L 422.952976 48.80643 
L 423.824177 48.195366 
L 425.56658 47.377743 
L 426.437782 47.166884 
L 427.308983 46.478359 
L 428.180185 46.370777 
L 429.051386 45.277746 
L 429.922588 45.05828 
L 432.536192 43.866272 
L 436.892199 42.764635 
L 440.377005 42.050291 
L 441.248207 42.045987 
L 442.119408 41.650086 
L 442.99061 41.443528 
L 444.733013 40.746398 
L 446.475416 40.845374 
L 447.346617 40.548448 
L 449.08902 40.440866 
L 449.960222 40.234309 
L 453.445028 40.13103 
L 460.414639 39.4339 
L 465.641848 39.330621 
L 466.51305 39.231646 
L 467.384251 39.429597 
L 470.869057 39.128368 
L 471.740259 39.231646 
L 472.61146 38.930418 
L 474.353863 38.831442 
L 475.225064 38.633492 
L 482.194676 38.732467 
L 483.065878 38.831442 
L 484.808281 38.534517 
L 486.550684 38.732467 
L 487.421885 38.534517 
L 489.164288 38.629189 
L 491.777893 38.431239 
L 492.649094 38.52591 
L 495.262698 38.32796 
L 511.815527 38.224682 
L 512.686728 38.026731 
L 538.822772 38.026731 
L 538.822772 38.026731 
" clip-path="url(#p9c4a3bc2c1)" style="fill: none; stroke: #4c72b0; stroke-width: 1.5; stroke-linecap: round"/>
   </g>
   <g id="line2d_9">
    <path d="M 329.734418 222.40492 
L 333.219224 222.40492 
L 334.090425 222.670802 
L 334.961627 223.51574 
L 335.832828 224.744334 
L 336.70403 227.081789 
L 338.446433 229.492405 
L 339.317634 230.192447 
L 340.188835 229.940303 
L 341.060037 229.062712 
L 341.931238 227.996857 
L 342.80244 227.377651 
L 343.673641 226.919047 
L 344.544843 226.003801 
L 345.416044 224.626383 
L 346.287246 224.033765 
L 347.158447 223.139219 
L 348.029649 222.759488 
L 349.772052 219.697366 
L 351.514455 211.799022 
L 353.256858 201.465613 
L 354.128059 197.044987 
L 356.741664 177.765225 
L 357.612865 168.963947 
L 359.355268 156.435303 
L 360.226469 148.732184 
L 361.968872 136.614675 
L 362.840074 128.514863 
L 363.711275 123.865651 
L 364.582477 117.812247 
L 365.453678 105.385851 
L 367.196081 98.058176 
L 369.809686 89.936058 
L 370.680887 87.916237 
L 371.552089 85.411579 
L 372.42329 83.915849 
L 373.294492 83.11695 
L 375.036895 79.267526 
L 375.908096 78.264305 
L 376.779298 76.953091 
L 377.650499 76.05212 
L 378.5217 74.448435 
L 379.392902 73.304066 
L 382.006506 70.775854 
L 383.748909 69.916106 
L 384.620111 69.260497 
L 388.104917 67.350593 
L 388.976118 66.916796 
L 389.84732 66.212115 
L 390.718521 65.703725 
L 391.589723 64.938195 
L 392.460924 64.692833 
L 393.332126 63.397318 
L 394.203327 63.061667 
L 395.074529 62.353063 
L 395.94573 62.062373 
L 396.816932 61.591278 
L 397.688133 60.717788 
L 398.559334 60.63731 
L 400.301737 59.074843 
L 401.172939 58.533084 
L 402.04414 57.745962 
L 405.528946 56.350341 
L 406.400148 55.545552 
L 407.271349 55.521999 
L 408.142551 54.832845 
L 409.884954 53.142789 
L 410.756155 52.400815 
L 411.627357 52.277153 
L 413.36976 51.609765 
L 415.112163 51.262333 
L 416.854565 50.204332 
L 417.725767 50.110112 
L 419.46817 49.171491 
L 420.339371 49.242154 
L 421.210573 48.688617 
L 422.952976 48.070124 
L 424.695379 47.019977 
L 425.56658 46.782467 
L 426.437782 46.823688 
L 427.308983 46.048344 
L 428.180185 45.642024 
L 429.051386 45.946275 
L 429.922588 45.76176 
L 430.793789 45.355441 
L 431.664991 45.08456 
L 432.536192 44.98249 
L 433.407394 45.023709 
L 434.278595 44.462322 
L 435.149797 44.556541 
L 437.763401 43.961783 
L 438.634602 43.732123 
L 440.377005 42.776193 
L 442.99061 42.538683 
L 443.861811 42.477833 
L 444.733013 42.161807 
L 446.475416 42.199102 
L 447.346617 41.86737 
L 448.217819 41.904667 
L 449.960222 41.53564 
L 450.831423 41.622009 
L 451.702625 41.347204 
L 452.573826 41.302058 
L 453.445028 41.117545 
L 456.058632 41.105767 
L 456.929833 40.748521 
L 457.801035 40.699448 
L 458.672236 40.827036 
L 459.543438 40.82311 
L 460.414639 40.503158 
L 461.285841 40.310794 
L 462.157042 40.310794 
L 463.028244 40.126282 
L 463.899445 40.212649 
L 466.51305 39.708184 
L 467.384251 39.757257 
L 468.255453 39.568817 
L 470.869057 39.466747 
L 472.61146 39.007428 
L 475.225064 38.724769 
L 476.967467 38.716918 
L 479.581072 38.528479 
L 482.194676 38.43426 
L 484.808281 38.23797 
L 496.1339 38.230118 
L 497.876303 38.131973 
L 498.747504 38.226192 
L 500.489907 38.135899 
L 529.239556 38.116269 
L 538.822772 38.025976 
L 538.822772 38.025976 
" clip-path="url(#p9c4a3bc2c1)" style="fill: none; stroke: #dd8452; stroke-width: 1.5; stroke-linecap: round"/>
   </g>
   <g id="line2d_10">
    <path d="M 347.158447 240.66 
L 347.158447 27.65625 
" clip-path="url(#p9c4a3bc2c1)" style="fill: none; stroke-dasharray: 1.85,0.8; stroke-dashoffset: 0; stroke: #1a1a1a; stroke-width: 0.5"/>
   </g>
   <g id="line2d_11">
    <path d="M 364.582477 240.66 
L 364.582477 27.65625 
" clip-path="url(#p9c4a3bc2c1)" style="fill: none; stroke-dasharray: 1.85,0.8; stroke-dashoffset: 0; stroke: #1a1a1a; stroke-width: 0.5"/>
   </g>
   <g id="line2d_12">
    <path d="M 416.854565 240.66 
L 416.854565 27.65625 
" clip-path="url(#p9c4a3bc2c1)" style="fill: none; stroke-dasharray: 1.85,0.8; stroke-dashoffset: 0; stroke: #1a1a1a; stroke-width: 0.5"/>
   </g>
   <g id="patch_9">
    <path d="M 319.28 240.66 
L 319.28 27.65625 
" style="fill: none; stroke: #262626; stroke-width: 1.25; stroke-linejoin: miter; stroke-linecap: square"/>
   </g>
   <g id="patch_10">
    <path d="M 549.27719 240.66 
L 549.27719 27.65625 
" style="fill: none; stroke: #262626; stroke-width: 1.25; stroke-linejoin: miter; stroke-linecap: square"/>
   </g>
   <g id="patch_11">
    <path d="M 319.28 240.66 
L 549.27719 240.66 
" style="fill: none; stroke: #262626; stroke-width: 1.25; stroke-linejoin: miter; stroke-linecap: square"/>
   </g>
   <g id="patch_12">
    <path d="M 319.28 27.65625 
L 549.27719 27.65625 
" style="fill: none; stroke: #262626; stroke-width: 1.25; stroke-linejoin: miter; stroke-linecap: square"/>
   </g>
   <g id="text_30">
    <text style="fill: #262626; font: 12px 'sans-serif'; text-anchor: middle" x="434.278595" y="21.65625" transform="rotate(-0, 434.278595, 21.65625)">Training accuracy (weighted)</text>
   </g>
   <g id="legend_2">
    <g id="patch_13">
     <path d="M 470.300628 235.16 
L 541.57719 235.16 
Q 543.77719 235.16 543.77719 232.96 
L 543.77719 202.811406 
Q 543.77719 200.611406 541.57719 200.611406 
L 470.300628 200.611406 
Q 468.100628 200.611406 468.100628 202.811406 
L 468.100628 232.96 
Q 468.100628 235.16 470.300628 235.16 
z
" style="fill: #ffffff; opacity: 0.8; stroke: #cccccc; stroke-linejoin: miter"/>
    </g>
    <g id="line2d_13">
     <path d="M 472.500628 209.035 
L 483.500628 209.035 
L 494.500628 209.035 
" style="fill: none; stroke: #4c72b0; stroke-width: 1.5; stroke-linecap: round"/>
    </g>
    <g id="text_31">
     <text style="fill: #262626; font: 11px 'sans-serif'; text-anchor: start" x="503.300628" y="212.885" transform="rotate(-0, 503.300628, 212.885)">English</text>
    </g>
    <g id="line2d_14">
     <path d="M 472.500628 224.72375 
L 483.500628 224.72375 
L 494.500628 224.72375 
" style="fill: none; stroke: #dd8452; stroke-width: 1.5; stroke-linecap: round"/>
    </g>
    <g id="text_32">
     <text style="fill: #262626; font: 11px 'sans-serif'; text-anchor: start" x="503.300628" y="228.57375" transform="rotate(-0, 503.300628, 228.57375)">French</text>
    </g>
   </g>
  </g>
 </g>
 <defs>
  <clipPath id="p3bbbc1c1a2">
   <rect x="37.76" y="27.65625" width="229.99719" height="213.00375"/>
  </clipPath>
  <clipPath id="p9c4a3bc2c1">
   <rect x="319.28" y="27.65625" width="229.99719" height="213.00375"/>
  </clipPath>
 </defs>
</svg>
