<?xml version="1.0" encoding="utf-8" standalone="no"?>
<!DOCTYPE svg PUBLIC "-//W3C//DTD SVG 1.1//EN"
  "http://www.w3.org/Graphics/SVG/1.1/DTD/svg11.dtd">
<svg xmlns:xlink="http://www.w3.org/1999/xlink" width="288pt" height="576pt" viewBox="0 0 288 576" xmlns="http://www.w3.org/2000/svg" version="1.1">
 <metadata>
  <rdf:RDF xmlns:dc="http://purl.org/dc/elements/1.1/" xmlns:cc="http://creativecommons.org/ns#" xmlns:rdf="http://www.w3.org/1999/02/22-rdf-syntax-ns#">
   <cc:Work>
    <dc:type rdf:resource="http://purl.org/dc/dcmitype/StillImage"/>
    <dc:date>2022-02-16T09:32:57.830337</dc:date>
    <dc:format>image/svg+xml</dc:format>
    <dc:creator>
     <cc:Agent>
      <dc:title>Matplotlib v3.5.0, https://matplotlib.org/</dc:title>
     </cc:Agent>
    </dc:creator>
   </cc:Work>
  </rdf:RDF>
 </metadata>
 <defs>
  <style type="text/css">*{stroke-linejoin: round; stroke-linecap: butt}</style>
 </defs>
 <g id="figure_1">
  <g id="patch_1">
   <path d="M 0 576 
L 288 576 
L 288 0 
L 0 0 
z
" style="fill: #ffffff"/>
  </g>
  <g id="axes_1">
   <g id="patch_2">
    <path d="M 33.73 245.176 
L 271.370455 245.176 
L 271.370455 25.44 
L 33.73 25.44 
z
" style="fill: #ffffff"/>
   </g>
   <g id="PolyCollection_1">
    <path d="M 44.531839 35.428 
L 44.531839 35.509985 
L 45.431992 43.357629 
L 46.332145 43.478216 
L 47.232299 43.710176 
L 48.132452 44.342536 
L 49.032605 46.403453 
L 49.932758 50.887709 
L 50.832912 56.076026 
L 51.733065 60.352736 
L 52.633218 63.688648 
L 53.533371 66.995828 
L 54.433524 71.336051 
L 55.333678 76.511285 
L 56.233831 81.601329 
L 57.133984 86.033117 
L 58.034137 89.256394 
L 58.934291 92.045397 
L 59.834444 95.122425 
L 60.734597 98.712894 
L 61.63475 102.783486 
L 62.534904 107.339405 
L 63.435057 112.414724 
L 64.33521 118.006867 
L 65.235363 124.18175 
L 66.135517 130.87097 
L 67.03567 137.836321 
L 67.935823 145.101244 
L 68.835976 152.424187 
L 69.736129 159.650842 
L 70.636283 166.614204 
L 71.536436 173.260607 
L 72.436589 179.183335 
L 73.336742 184.85676 
L 74.236896 189.809934 
L 75.137049 194.388059 
L 76.037202 198.30091 
L 76.937355 201.846646 
L 77.837509 204.902368 
L 78.737662 207.700755 
L 79.637815 209.952298 
L 80.537968 211.982912 
L 81.438122 213.718705 
L 82.338275 214.561449 
L 83.238428 215.358511 
L 84.138581 216.091294 
L 85.038735 216.79943 
L 85.938888 217.447795 
L 86.839041 218.053604 
L 87.739194 218.627869 
L 88.639347 219.175298 
L 89.539501 219.69341 
L 90.439654 220.178016 
L 91.339807 220.64891 
L 92.23996 221.071261 
L 93.140114 221.498464 
L 94.040267 221.899886 
L 94.94042 222.276546 
L 95.840573 222.640565 
L 96.740727 222.994788 
L 97.64088 223.335725 
L 98.541033 223.648426 
L 99.441186 223.960154 
L 100.34134 224.252072 
L 101.241493 224.516586 
L 102.141646 224.802474 
L 103.041799 225.061986 
L 103.941952 225.305587 
L 104.842106 225.55069 
L 105.742259 225.785242 
L 106.642412 226.020445 
L 107.542565 226.243244 
L 108.442719 226.466066 
L 109.342872 226.667605 
L 110.243025 226.872967 
L 111.143178 227.070553 
L 112.043332 227.261091 
L 112.943485 227.455232 
L 113.843638 227.629766 
L 114.743791 227.820437 
L 115.643945 227.991189 
L 116.544098 228.162117 
L 117.444251 228.328398 
L 118.344404 228.491084 
L 119.244558 228.645847 
L 120.144711 228.806074 
L 121.044864 228.955544 
L 121.945017 229.102823 
L 122.84517 229.24645 
L 123.745324 229.383039 
L 124.645477 229.507961 
L 125.54563 229.643477 
L 126.445783 229.774387 
L 127.345937 229.887122 
L 128.24609 230.018222 
L 129.146243 230.140559 
L 130.046396 230.251396 
L 130.94655 230.366255 
L 131.846703 230.472195 
L 132.746856 230.572537 
L 133.647009 230.681199 
L 134.547163 230.775133 
L 135.447316 230.872317 
L 136.347469 230.967208 
L 137.247622 231.063387 
L 138.147775 231.145002 
L 139.047929 231.239686 
L 139.948082 231.331829 
L 140.848235 231.412683 
L 141.748388 231.50155 
L 142.648542 231.580621 
L 143.548695 231.659414 
L 144.448848 231.735944 
L 145.349001 231.813657 
L 146.249155 231.889962 
L 147.149308 231.954829 
L 148.049461 232.026764 
L 148.949614 232.096213 
L 149.849768 232.163698 
L 150.749921 232.229159 
L 151.650074 232.297376 
L 152.550227 232.362873 
L 153.450381 232.418633 
L 154.350534 232.488605 
L 155.250687 232.546876 
L 156.15084 232.604341 
L 157.050993 232.65819 
L 157.951147 232.718849 
L 158.8513 232.775166 
L 159.751453 232.830677 
L 160.651606 232.884052 
L 161.55176 232.936703 
L 162.451913 232.980181 
L 163.352066 233.031349 
L 164.252219 233.084812 
L 165.152373 233.133685 
L 166.052526 233.181304 
L 166.952679 233.226574 
L 167.852832 233.272254 
L 168.752986 233.309249 
L 169.653139 233.353645 
L 170.553292 233.397787 
L 171.453445 233.437474 
L 172.353598 233.48265 
L 173.253752 233.520226 
L 174.153905 233.557871 
L 175.054058 233.602622 
L 175.954211 233.63612 
L 176.854365 233.681915 
L 177.754518 233.720444 
L 178.654671 233.755627 
L 179.554824 233.792727 
L 180.454978 233.828723 
L 181.355131 233.853457 
L 182.255284 233.895202 
L 183.155437 233.926977 
L 184.055591 233.956025 
L 184.955744 233.989275 
L 185.855897 234.017275 
L 186.75605 234.048096 
L 187.656204 234.076521 
L 188.556357 234.105127 
L 189.45651 234.135099 
L 190.356663 234.167013 
L 191.256816 234.196343 
L 192.15697 234.218706 
L 193.057123 234.246427 
L 193.957276 234.271248 
L 194.857429 234.286619 
L 195.757583 234.315652 
L 196.657736 234.337887 
L 197.557889 234.359144 
L 198.458042 234.380871 
L 199.358196 234.40172 
L 200.258349 234.426633 
L 201.158502 234.44534 
L 202.058655 234.459975 
L 202.958809 234.48941 
L 203.858962 234.50777 
L 204.759115 234.519476 
L 205.659268 234.540619 
L 206.559421 234.559878 
L 207.459575 234.576608 
L 208.359728 234.590817 
L 209.259881 234.607197 
L 210.160034 234.632987 
L 211.060188 234.643967 
L 211.960341 234.660368 
L 212.860494 234.680737 
L 213.760647 234.690636 
L 214.660801 234.713771 
L 215.560954 234.721776 
L 216.461107 234.740718 
L 217.36126 234.755904 
L 218.261414 234.77321 
L 219.161567 234.786356 
L 220.06172 234.796709 
L 220.961873 234.808802 
L 221.862027 234.826668 
L 222.76218 234.842405 
L 223.662333 234.855083 
L 224.562486 234.862144 
L 225.462639 234.884962 
L 226.362793 234.892734 
L 227.262946 234.899695 
L 228.163099 234.909741 
L 229.063252 234.917892 
L 229.963406 234.926105 
L 230.863559 234.936789 
L 231.763712 234.942856 
L 232.663865 234.95335 
L 233.564019 234.959487 
L 234.464172 234.973192 
L 235.364325 234.979473 
L 236.264478 234.988053 
L 237.164632 234.994653 
L 238.064785 235.003826 
L 238.964938 235.013773 
L 239.865091 235.021674 
L 240.765244 235.03146 
L 241.665398 235.038894 
L 242.565551 235.047215 
L 243.465704 235.05022 
L 244.365857 235.059534 
L 245.266011 235.069221 
L 246.166164 235.075939 
L 247.066317 235.081556 
L 247.96647 235.092626 
L 248.866624 235.097032 
L 249.766777 235.107072 
L 250.66693 235.10989 
L 251.567083 235.118991 
L 252.467237 235.128338 
L 253.36739 235.134347 
L 254.267543 235.140232 
L 255.167696 235.146578 
L 256.06785 235.15431 
L 256.968003 235.162503 
L 257.868156 235.166225 
L 258.768309 235.173596 
L 259.668462 235.181265 
L 260.568616 235.188 
L 260.568616 234.866805 
L 260.568616 234.866805 
L 259.668462 234.8594 
L 258.768309 234.851378 
L 257.868156 234.844135 
L 256.968003 234.839701 
L 256.06785 234.830176 
L 255.167696 234.823034 
L 254.267543 234.815818 
L 253.36739 234.809297 
L 252.467237 234.802793 
L 251.567083 234.792529 
L 250.66693 234.783367 
L 249.766777 234.779272 
L 248.866624 234.769655 
L 247.96647 234.763426 
L 247.066317 234.753425 
L 246.166164 234.746945 
L 245.266011 234.738351 
L 244.365857 234.728675 
L 243.465704 234.717819 
L 242.565551 234.713767 
L 241.665398 234.705238 
L 240.765244 234.696667 
L 239.865091 234.687112 
L 238.964938 234.677592 
L 238.064785 234.66728 
L 237.164632 234.657055 
L 236.264478 234.64763 
L 235.364325 234.636007 
L 234.464172 234.629377 
L 233.564019 234.615506 
L 232.663865 234.608404 
L 231.763712 234.597699 
L 230.863559 234.589488 
L 229.963406 234.578866 
L 229.063252 234.570066 
L 228.163099 234.560544 
L 227.262946 234.549603 
L 226.362793 234.542424 
L 225.462639 234.534313 
L 224.562486 234.509303 
L 223.662333 234.499409 
L 222.76218 234.486558 
L 221.862027 234.470164 
L 220.961873 234.453043 
L 220.06172 234.436848 
L 219.161567 234.426219 
L 218.261414 234.410477 
L 217.36126 234.392558 
L 216.461107 234.376013 
L 215.560954 234.356243 
L 214.660801 234.34722 
L 213.760647 234.323962 
L 212.860494 234.312128 
L 211.960341 234.288738 
L 211.060188 234.272076 
L 210.160034 234.260638 
L 209.259881 234.234838 
L 208.359728 234.215374 
L 207.459575 234.199646 
L 206.559421 234.183244 
L 205.659268 234.160448 
L 204.759115 234.138256 
L 203.858962 234.125429 
L 202.958809 234.10534 
L 202.058655 234.07483 
L 201.158502 234.058888 
L 200.258349 234.039709 
L 199.358196 234.012305 
L 198.458042 233.990441 
L 197.557889 233.965287 
L 196.657736 233.944124 
L 195.757583 233.918942 
L 194.857429 233.8886 
L 193.957276 233.872123 
L 193.057123 233.843877 
L 192.15697 233.815907 
L 191.256816 233.790599 
L 190.356663 233.758894 
L 189.45651 233.724731 
L 188.556357 233.68761 
L 187.656204 233.654229 
L 186.75605 233.622518 
L 185.855897 233.590349 
L 184.955744 233.560262 
L 184.055591 233.528477 
L 183.155437 233.493711 
L 182.255284 233.460584 
L 181.355131 233.41704 
L 180.454978 233.391615 
L 179.554824 233.351379 
L 178.654671 233.310483 
L 177.754518 233.27467 
L 176.854365 233.231531 
L 175.954211 233.180389 
L 175.054058 233.143015 
L 174.153905 233.090389 
L 173.253752 233.048671 
L 172.353598 233.004911 
L 171.453445 232.951839 
L 170.553292 232.908282 
L 169.653139 232.859737 
L 168.752986 232.813971 
L 167.852832 232.772577 
L 166.952679 232.722547 
L 166.052526 232.67536 
L 165.152373 232.626513 
L 164.252219 232.575185 
L 163.352066 232.516444 
L 162.451913 232.465251 
L 161.55176 232.417147 
L 160.651606 232.361487 
L 159.751453 232.307098 
L 158.8513 232.249297 
L 157.951147 232.190962 
L 157.050993 232.127825 
L 156.15084 232.06921 
L 155.250687 232.007458 
L 154.350534 231.947337 
L 153.450381 231.874075 
L 152.550227 231.814766 
L 151.650074 231.745383 
L 150.749921 231.675959 
L 149.849768 231.602776 
L 148.949614 231.534648 
L 148.049461 231.457337 
L 147.149308 231.381448 
L 146.249155 231.313431 
L 145.349001 231.227596 
L 144.448848 231.150641 
L 143.548695 231.06481 
L 142.648542 230.979284 
L 141.748388 230.896306 
L 140.848235 230.802851 
L 139.948082 230.715801 
L 139.047929 230.620493 
L 138.147775 230.513876 
L 137.247622 230.430029 
L 136.347469 230.327283 
L 135.447316 230.229072 
L 134.547163 230.12869 
L 133.647009 230.028872 
L 132.746856 229.917472 
L 131.846703 229.808844 
L 130.94655 229.696859 
L 130.046396 229.579132 
L 129.146243 229.464164 
L 128.24609 229.335714 
L 127.345937 229.194725 
L 126.445783 229.081733 
L 125.54563 228.942588 
L 124.645477 228.79941 
L 123.745324 228.66837 
L 122.84517 228.523756 
L 121.945017 228.372765 
L 121.044864 228.214927 
L 120.144711 228.059071 
L 119.244558 227.884898 
L 118.344404 227.722536 
L 117.444251 227.550401 
L 116.544098 227.37171 
L 115.643945 227.190239 
L 114.743791 227.008847 
L 113.843638 226.803714 
L 112.943485 226.614528 
L 112.043332 226.415343 
L 111.143178 226.214097 
L 110.243025 226.003024 
L 109.342872 225.786179 
L 108.442719 225.575775 
L 107.542565 225.335497 
L 106.642412 225.097966 
L 105.742259 224.85199 
L 104.842106 224.603083 
L 103.941952 224.341204 
L 103.041799 224.081541 
L 102.141646 223.80059 
L 101.241493 223.499775 
L 100.34134 223.212596 
L 99.441186 222.894596 
L 98.541033 222.560412 
L 97.64088 222.212156 
L 96.740727 221.833786 
L 95.840573 221.443257 
L 94.94042 221.026408 
L 94.040267 220.598428 
L 93.140114 220.138725 
L 92.23996 219.646293 
L 91.339807 219.150067 
L 90.439654 218.607233 
L 89.539501 218.0396 
L 88.639347 217.430692 
L 87.739194 216.791767 
L 86.839041 216.10917 
L 85.938888 215.396918 
L 85.038735 214.629846 
L 84.138581 213.805198 
L 83.238428 212.948151 
L 82.338275 212.03234 
L 81.438122 211.068503 
L 80.537968 209.156594 
L 79.637815 206.834967 
L 78.737662 204.386191 
L 77.837509 201.299887 
L 76.937355 197.974824 
L 76.037202 194.202134 
L 75.137049 189.830622 
L 74.236896 184.938021 
L 73.336742 179.664782 
L 72.436589 173.673505 
L 71.536436 167.465394 
L 70.636283 160.763265 
L 69.736129 153.821576 
L 68.835976 146.696821 
L 67.935823 139.679029 
L 67.03567 132.821799 
L 66.135517 126.29579 
L 65.235363 120.179136 
L 64.33521 114.537853 
L 63.435057 109.376763 
L 62.534904 104.594598 
L 61.63475 100.193123 
L 60.734597 96.259283 
L 59.834444 92.729453 
L 58.934291 89.577509 
L 58.034137 86.677431 
L 57.133984 83.359678 
L 56.233831 78.75984 
L 55.333678 73.579037 
L 54.433524 68.937929 
L 53.533371 65.255043 
L 52.633218 62.185833 
L 51.733065 58.664603 
L 50.832912 54.153999 
L 49.932758 49.238658 
L 49.032605 45.570973 
L 48.132452 44.097896 
L 47.232299 43.635518 
L 46.332145 43.449397 
L 45.431992 43.343202 
L 44.531839 35.428 
z
" clip-path="url(#p37b098e99c)" style="fill-opacity: 0.3"/>
   </g>
   <g id="matplotlib.axis_1">
    <g id="xtick_1">
     <g id="line2d_1">
      <defs>
       <path id="m871bb5cf45" d="M 0 0 
L 0 3.5 
" style="stroke: #000000; stroke-width: 0.8"/>
      </defs>
      <g>
       <use xlink:href="#m871bb5cf45" x="44.531839" y="245.176" style="stroke: #000000; stroke-width: 0.8"/>
      </g>
     </g>
     <g id="text_1">
      <text style="font: 10px 'sans-serif'; text-anchor: middle" x="44.531839" y="259.774437" transform="rotate(-0, 44.531839, 259.774437)">0</text>
     </g>
    </g>
    <g id="xtick_2">
     <g id="line2d_2">
      <g>
       <use xlink:href="#m871bb5cf45" x="80.537968" y="245.176" style="stroke: #000000; stroke-width: 0.8"/>
      </g>
     </g>
     <g id="text_2">
      <text style="font: 10px 'sans-serif'; text-anchor: middle" x="80.537968" y="259.774437" transform="rotate(-0, 80.537968, 259.774437)">2000</text>
     </g>
    </g>
    <g id="xtick_3">
     <g id="line2d_3">
      <g>
       <use xlink:href="#m871bb5cf45" x="116.544098" y="245.176" style="stroke: #000000; stroke-width: 0.8"/>
      </g>
     </g>
     <g id="text_3">
      <text style="font: 10px 'sans-serif'; text-anchor: middle" x="116.544098" y="259.774437" transform="rotate(-0, 116.544098, 259.774437)">4000</text>
     </g>
    </g>
    <g id="xtick_4">
     <g id="line2d_4">
      <g>
       <use xlink:href="#m871bb5cf45" x="152.550227" y="245.176" style="stroke: #000000; stroke-width: 0.8"/>
      </g>
     </g>
     <g id="text_4">
      <text style="font: 10px 'sans-serif'; text-anchor: middle" x="152.550227" y="259.774437" transform="rotate(-0, 152.550227, 259.774437)">6000</text>
     </g>
    </g>
    <g id="xtick_5">
     <g id="line2d_5">
      <g>
       <use xlink:href="#m871bb5cf45" x="188.556357" y="245.176" style="stroke: #000000; stroke-width: 0.8"/>
      </g>
     </g>
     <g id="text_5">
      <text style="font: 10px 'sans-serif'; text-anchor: middle" x="188.556357" y="259.774437" transform="rotate(-0, 188.556357, 259.774437)">8000</text>
     </g>
    </g>
    <g id="xtick_6">
     <g id="line2d_6">
      <g>
       <use xlink:href="#m871bb5cf45" x="224.562486" y="245.176" style="stroke: #000000; stroke-width: 0.8"/>
      </g>
     </g>
     <g id="text_6">
      <text style="font: 10px 'sans-serif'; text-anchor: middle" x="224.562486" y="259.774437" transform="rotate(-0, 224.562486, 259.774437)">10000</text>
     </g>
    </g>
    <g id="xtick_7">
     <g id="line2d_7">
      <g>
       <use xlink:href="#m871bb5cf45" x="260.568616" y="245.176" style="stroke: #000000; stroke-width: 0.8"/>
      </g>
     </g>
     <g id="text_7">
      <text style="font: 10px 'sans-serif'; text-anchor: middle" x="260.568616" y="259.774437" transform="rotate(-0, 260.568616, 259.774437)">12000</text>
     </g>
    </g>
    <g id="text_8">
     <text style="font: 10px 'sans-serif'; text-anchor: middle" x="152.550227" y="273.452562" transform="rotate(-0, 152.550227, 273.452562)">Epoch</text>
    </g>
   </g>
   <g id="matplotlib.axis_2">
    <g id="ytick_1">
     <g id="line2d_8">
      <defs>
       <path id="m1a8e93b6df" d="M 0 0 
L -3.5 0 
" style="stroke: #000000; stroke-width: 0.8"/>
      </defs>
      <g>
       <use xlink:href="#m1a8e93b6df" x="33.73" y="239.01172" style="stroke: #000000; stroke-width: 0.8"/>
      </g>
     </g>
     <g id="text_9">
      <text style="font: 10px 'sans-serif'; text-anchor: end" x="26.73" y="242.810939" transform="rotate(-0, 26.73, 242.810939)">0.0</text>
     </g>
    </g>
    <g id="ytick_2">
     <g id="line2d_9">
      <g>
       <use xlink:href="#m1a8e93b6df" x="33.73" y="203.202237" style="stroke: #000000; stroke-width: 0.8"/>
      </g>
     </g>
     <g id="text_10">
      <text style="font: 10px 'sans-serif'; text-anchor: end" x="26.73" y="207.001456" transform="rotate(-0, 26.73, 207.001456)">0.2</text>
     </g>
    </g>
    <g id="ytick_3">
     <g id="line2d_10">
      <g>
       <use xlink:href="#m1a8e93b6df" x="33.73" y="167.392755" style="stroke: #000000; stroke-width: 0.8"/>
      </g>
     </g>
     <g id="text_11">
      <text style="font: 10px 'sans-serif'; text-anchor: end" x="26.73" y="171.191973" transform="rotate(-0, 26.73, 171.191973)">0.4</text>
     </g>
    </g>
    <g id="ytick_4">
     <g id="line2d_11">
      <g>
       <use xlink:href="#m1a8e93b6df" x="33.73" y="131.583272" style="stroke: #000000; stroke-width: 0.8"/>
      </g>
     </g>
     <g id="text_12">
      <text style="font: 10px 'sans-serif'; text-anchor: end" x="26.73" y="135.382491" transform="rotate(-0, 26.73, 135.382491)">0.6</text>
     </g>
    </g>
    <g id="ytick_5">
     <g id="line2d_12">
      <g>
       <use xlink:href="#m1a8e93b6df" x="33.73" y="95.773789" style="stroke: #000000; stroke-width: 0.8"/>
      </g>
     </g>
     <g id="text_13">
      <text style="font: 10px 'sans-serif'; text-anchor: end" x="26.73" y="99.573008" transform="rotate(-0, 26.73, 99.573008)">0.8</text>
     </g>
    </g>
    <g id="ytick_6">
     <g id="line2d_13">
      <g>
       <use xlink:href="#m1a8e93b6df" x="33.73" y="59.964306" style="stroke: #000000; stroke-width: 0.8"/>
      </g>
     </g>
     <g id="text_14">
      <text style="font: 10px 'sans-serif'; text-anchor: end" x="26.73" y="63.763525" transform="rotate(-0, 26.73, 63.763525)">1.0</text>
     </g>
    </g>
   </g>
   <g id="line2d_14">
    <path d="M 44.531839 35.468993 
L 45.431992 43.350415 
L 47.232299 43.672847 
L 48.132452 44.220216 
L 49.032605 45.987213 
L 49.932758 50.063183 
L 50.832912 55.115012 
L 51.733065 59.508669 
L 54.433524 70.13699 
L 57.133984 84.696397 
L 58.034137 87.966913 
L 59.834444 93.925939 
L 61.63475 101.488305 
L 63.435057 110.895744 
L 65.235363 122.180443 
L 67.03567 135.32906 
L 71.536436 170.363 
L 73.336742 182.260771 
L 75.137049 192.109341 
L 76.937355 199.910735 
L 78.737662 206.043473 
L 80.537968 210.569753 
L 81.438122 212.393604 
L 84.138581 214.948246 
L 85.938888 216.422356 
L 88.639347 218.302995 
L 91.339807 219.899488 
L 94.94042 221.651477 
L 98.541033 223.104419 
L 102.141646 224.301532 
L 106.642412 225.559205 
L 112.043332 226.838217 
L 118.344404 228.10681 
L 126.445783 229.42806 
L 139.948082 231.023815 
L 152.550227 232.08882 
L 172.353598 233.243781 
L 191.256816 233.993471 
L 217.36126 234.574231 
L 234.464172 234.801285 
L 260.568616 235.027402 
L 260.568616 235.027402 
" clip-path="url(#p37b098e99c)" style="fill: none; stroke: #000000; stroke-width: 1.5; stroke-linecap: square"/>
   </g>
   <g id="line2d_15">
    <defs>
     <path id="mddda3b3d28" d="M 0 3 
C 0.795609 3 1.55874 2.683901 2.12132 2.12132 
C 2.683901 1.55874 3 0.795609 3 0 
C 3 -0.795609 2.683901 -1.55874 2.12132 -2.12132 
C 1.55874 -2.683901 0.795609 -3 0 -3 
C -0.795609 -3 -1.55874 -2.683901 -2.12132 -2.12132 
C -2.683901 -1.55874 -3 -0.795609 -3 0 
C -3 0.795609 -2.683901 1.55874 -2.12132 2.12132 
C -1.55874 2.683901 -0.795609 3 0 3 
z
" style="stroke: #ff0000"/>
    </defs>
    <g clip-path="url(#p37b098e99c)">
     <use xlink:href="#mddda3b3d28" x="44.531839" y="35.468993" style="fill-opacity: 0; stroke: #ff0000"/>
     <use xlink:href="#mddda3b3d28" x="62.534904" y="105.967002" style="fill-opacity: 0; stroke: #ff0000"/>
     <use xlink:href="#mddda3b3d28" x="80.537968" y="210.569753" style="fill-opacity: 0; stroke: #ff0000"/>
     <use xlink:href="#mddda3b3d28" x="134.547163" y="230.451912" style="fill-opacity: 0; stroke: #ff0000"/>
    </g>
   </g>
   <g id="patch_3">
    <path d="M 33.73 245.176 
L 33.73 25.44 
" style="fill: none; stroke: #000000; stroke-width: 0.8; stroke-linejoin: miter; stroke-linecap: square"/>
   </g>
   <g id="patch_4">
    <path d="M 271.370455 245.176 
L 271.370455 25.44 
" style="fill: none; stroke: #000000; stroke-width: 0.8; stroke-linejoin: miter; stroke-linecap: square"/>
   </g>
   <g id="patch_5">
    <path d="M 33.73 245.176 
L 271.370455 245.176 
" style="fill: none; stroke: #000000; stroke-width: 0.8; stroke-linejoin: miter; stroke-linecap: square"/>
   </g>
   <g id="patch_6">
    <path d="M 33.73 25.44 
L 271.370455 25.44 
" style="fill: none; stroke: #000000; stroke-width: 0.8; stroke-linejoin: miter; stroke-linecap: square"/>
   </g>
   <g id="text_15">
    <text style="font: 12px 'sans-serif'; text-anchor: middle" x="152.550227" y="19.44" transform="rotate(-0, 152.550227, 19.44)">Loss</text>
   </g>
  </g>
  <g id="axes_2">
   <g id="patch_7">
    <path d="M 33.73 534.04 
L 271.370455 534.04 
L 271.370455 314.304 
L 33.73 314.304 
z
" style="fill: #ffffff"/>
   </g>
   <g id="PolyCollection_2">
    <path d="M 44.531839 524.017836 
L 44.531839 524.017836 
L 45.431992 524.017836 
L 46.332145 524.017836 
L 47.232299 524.017836 
L 48.132452 524.017836 
L 49.032605 524.017836 
L 49.932758 524.052 
L 50.832912 523.815841 
L 51.733065 522.838017 
L 52.633218 521.503399 
L 53.533371 520.189817 
L 54.433524 519.302525 
L 55.333678 518.500877 
L 56.233831 517.367322 
L 57.133984 516.060058 
L 58.034137 514.127005 
L 58.934291 512.440429 
L 59.834444 511.180628 
L 60.734597 509.992407 
L 61.63475 508.359225 
L 62.534904 506.37507 
L 63.435057 503.813831 
L 64.33521 500.477871 
L 65.235363 495.685475 
L 66.135517 488.92769 
L 67.03567 478.745699 
L 67.935823 467.687168 
L 68.835976 454.289624 
L 69.736129 442.230409 
L 70.636283 429.355516 
L 71.536436 416.903638 
L 72.436589 405.60731 
L 73.336742 395.103503 
L 74.236896 385.968386 
L 75.137049 377.654905 
L 76.037202 370.132397 
L 76.937355 363.915025 
L 77.837509 358.644656 
L 78.737662 353.918841 
L 79.637815 350.457523 
L 80.537968 347.100929 
L 81.438122 344.763318 
L 82.338275 343.383508 
L 83.238428 342.638517 
L 84.138581 341.342793 
L 85.038735 340.337285 
L 85.938888 339.491471 
L 86.839041 338.364682 
L 87.739194 337.68151 
L 88.639347 336.928836 
L 89.539501 336.441914 
L 90.439654 335.903581 
L 91.339807 335.25432 
L 92.23996 334.608791 
L 93.140114 334.281917 
L 94.040267 333.744847 
L 94.94042 333.337957 
L 95.840573 333.069483 
L 96.740727 332.870431 
L 97.64088 332.581373 
L 98.541033 332.140273 
L 99.441186 331.807737 
L 100.34134 331.51416 
L 101.241493 331.349896 
L 102.141646 330.871493 
L 103.041799 330.808421 
L 103.941952 330.576135 
L 104.842106 330.268385 
L 105.742259 330.223964 
L 106.642412 330.004808 
L 107.542565 329.71611 
L 108.442719 329.540173 
L 109.342872 329.330374 
L 110.243025 329.153134 
L 111.143178 329.023143 
L 112.043332 328.642598 
L 112.943485 328.595334 
L 113.843638 328.245418 
L 114.743791 328.191862 
L 115.643945 328.045762 
L 116.544098 327.872471 
L 117.444251 327.741559 
L 118.344404 327.646304 
L 119.244558 327.535184 
L 120.144711 327.378501 
L 121.044864 327.226756 
L 121.945017 327.01313 
L 122.84517 326.919446 
L 123.745324 326.79419 
L 124.645477 326.717489 
L 125.54563 326.463857 
L 126.445783 326.404446 
L 127.345937 326.365909 
L 128.24609 326.28669 
L 129.146243 326.203212 
L 130.046396 326.206058 
L 130.94655 326.136026 
L 131.846703 326.05431 
L 132.746856 325.895927 
L 133.647009 325.875278 
L 134.547163 325.841941 
L 135.447316 325.799356 
L 136.347469 325.784489 
L 137.247622 325.659312 
L 138.147775 325.616215 
L 139.047929 325.54441 
L 139.948082 325.543959 
L 140.848235 325.498903 
L 141.748388 325.454603 
L 142.648542 325.415122 
L 143.548695 325.392051 
L 144.448848 325.371929 
L 145.349001 325.408766 
L 146.249155 325.330344 
L 147.149308 325.316773 
L 148.049461 325.245813 
L 148.949614 325.246078 
L 149.849768 325.164665 
L 150.749921 325.125535 
L 151.650074 325.146994 
L 152.550227 325.105772 
L 153.450381 325.139891 
L 154.350534 325.100927 
L 155.250687 325.139986 
L 156.15084 325.062809 
L 157.050993 325.075365 
L 157.951147 325.03395 
L 158.8513 325.068551 
L 159.751453 324.991711 
L 160.651606 324.996165 
L 161.55176 324.973256 
L 162.451913 324.971403 
L 163.352066 324.994511 
L 164.252219 324.991354 
L 165.152373 324.967949 
L 166.052526 324.948938 
L 166.952679 324.946078 
L 167.852832 324.946514 
L 168.752986 324.907233 
L 169.653139 324.90709 
L 170.553292 324.904817 
L 171.453445 324.886648 
L 172.353598 324.865835 
L 173.253752 324.827574 
L 174.153905 324.825967 
L 175.054058 324.825684 
L 175.954211 324.81922 
L 176.854365 324.727822 
L 177.754518 324.746495 
L 178.654671 324.747167 
L 179.554824 324.727822 
L 180.454978 324.746707 
L 181.355131 324.725577 
L 182.255284 324.726253 
L 183.155437 324.726033 
L 184.055591 324.725565 
L 184.955744 324.724199 
L 185.855897 324.706575 
L 186.75605 324.723989 
L 187.656204 324.723534 
L 188.556357 324.722419 
L 189.45651 324.721753 
L 190.356663 324.69603 
L 191.256816 324.677069 
L 192.15697 324.695581 
L 193.057123 324.676387 
L 193.957276 324.674103 
L 194.857429 324.633995 
L 195.757583 324.634694 
L 196.657736 324.634455 
L 197.557889 324.614695 
L 198.458042 324.613997 
L 199.358196 324.613997 
L 200.258349 324.613536 
L 201.158502 324.612383 
L 202.058655 324.612383 
L 202.958809 324.612383 
L 203.858962 324.612383 
L 204.759115 324.612383 
L 205.659268 324.612383 
L 206.559421 324.612383 
L 207.459575 324.612383 
L 208.359728 324.612383 
L 209.259881 324.612383 
L 210.160034 324.612383 
L 211.060188 324.612383 
L 211.960341 324.612383 
L 212.860494 324.611685 
L 213.760647 324.611685 
L 214.660801 324.611685 
L 215.560954 324.611685 
L 216.461107 324.611685 
L 217.36126 324.611685 
L 218.261414 324.611685 
L 219.161567 324.611223 
L 220.06172 324.611685 
L 220.961873 324.610761 
L 221.862027 324.611223 
L 222.76218 324.610761 
L 223.662333 324.610761 
L 224.562486 324.610761 
L 225.462639 324.610761 
L 226.362793 324.610292 
L 227.262946 324.610292 
L 228.163099 324.610292 
L 229.063252 324.610292 
L 229.963406 324.610761 
L 230.863559 324.610292 
L 231.763712 324.60983 
L 232.663865 324.60983 
L 233.564019 324.610292 
L 234.464172 324.610292 
L 235.364325 324.610292 
L 236.264478 324.609367 
L 237.164632 324.58899 
L 238.064785 324.58899 
L 238.964938 324.58899 
L 239.865091 324.58899 
L 240.765244 324.58899 
L 241.665398 324.58899 
L 242.565551 324.58899 
L 243.465704 324.58899 
L 244.365857 324.58899 
L 245.266011 324.588527 
L 246.166164 324.588527 
L 247.066317 324.588527 
L 247.96647 324.588527 
L 248.866624 324.588527 
L 249.766777 324.588527 
L 250.66693 324.588527 
L 251.567083 324.588056 
L 252.467237 324.588527 
L 253.36739 324.588056 
L 254.267543 324.588056 
L 255.167696 324.588527 
L 256.06785 324.588056 
L 256.968003 324.588527 
L 257.868156 324.588527 
L 258.768309 324.588056 
L 259.668462 324.588527 
L 260.568616 324.588056 
L 260.568616 324.292 
L 260.568616 324.292 
L 259.668462 324.292531 
L 258.768309 324.292 
L 257.868156 324.292531 
L 256.968003 324.292531 
L 256.06785 324.292 
L 255.167696 324.292531 
L 254.267543 324.292 
L 253.36739 324.292 
L 252.467237 324.292531 
L 251.567083 324.292 
L 250.66693 324.292531 
L 249.766777 324.292531 
L 248.866624 324.292531 
L 247.96647 324.292531 
L 247.066317 324.292531 
L 246.166164 324.292531 
L 245.266011 324.292531 
L 244.365857 324.293069 
L 243.465704 324.293069 
L 242.565551 324.293069 
L 241.665398 324.293069 
L 240.765244 324.293069 
L 239.865091 324.293069 
L 238.964938 324.293069 
L 238.064785 324.293069 
L 237.164632 324.293069 
L 236.264478 324.307759 
L 235.364325 324.308838 
L 234.464172 324.308838 
L 233.564019 324.308838 
L 232.663865 324.308298 
L 231.763712 324.308298 
L 230.863559 324.308838 
L 229.963406 324.309371 
L 229.063252 324.308838 
L 228.163099 324.308838 
L 227.262946 324.308838 
L 226.362793 324.308838 
L 225.462639 324.309371 
L 224.562486 324.309371 
L 223.662333 324.309371 
L 222.76218 324.309371 
L 221.862027 324.309911 
L 220.961873 324.309371 
L 220.06172 324.31045 
L 219.161567 324.309911 
L 218.261414 324.31045 
L 217.36126 324.31045 
L 216.461107 324.31045 
L 215.560954 324.31045 
L 214.660801 324.31045 
L 213.760647 324.31045 
L 212.860494 324.31045 
L 211.960341 324.310754 
L 211.060188 324.310754 
L 210.160034 324.310754 
L 209.259881 324.310754 
L 208.359728 324.310754 
L 207.459575 324.310754 
L 206.559421 324.310754 
L 205.659268 324.310754 
L 204.759115 324.310754 
L 203.858962 324.310754 
L 202.958809 324.310754 
L 202.058655 324.310754 
L 201.158502 324.310754 
L 200.258349 324.311605 
L 199.358196 324.312145 
L 198.458042 324.312145 
L 197.557889 324.31245 
L 196.657736 324.327755 
L 195.757583 324.327517 
L 194.857429 324.327213 
L 193.957276 324.35824 
L 193.057123 324.359964 
L 192.15697 324.374835 
L 191.256816 324.360285 
L 190.356663 324.375387 
L 189.45651 324.382727 
L 188.556357 324.383063 
L 187.656204 324.383952 
L 186.75605 324.384498 
L 185.855897 324.370853 
L 184.955744 324.384289 
L 184.055591 324.385928 
L 183.155437 324.386463 
L 182.255284 324.386242 
L 181.355131 324.385916 
L 180.454978 324.402857 
L 179.554824 324.387678 
L 178.654671 324.4034 
L 177.754518 324.40307 
L 176.854365 324.387678 
L 175.954211 324.439551 
L 175.054058 324.433088 
L 174.153905 324.433807 
L 173.253752 324.434203 
L 172.353598 324.434014 
L 171.453445 324.452274 
L 170.553292 324.467169 
L 169.653139 324.469905 
L 168.752986 324.46976 
L 167.852832 324.505622 
L 166.952679 324.504054 
L 166.052526 324.507204 
L 165.152373 324.524262 
L 164.252219 324.535923 
L 163.352066 324.538777 
L 162.451913 324.52782 
L 161.55176 324.526969 
L 160.651606 324.540129 
L 159.751453 324.545585 
L 158.8513 324.57695 
L 157.951147 324.544425 
L 157.050993 324.574144 
L 156.15084 324.562655 
L 155.250687 324.623739 
L 154.350534 324.597675 
L 153.450381 324.624835 
L 152.550227 324.600847 
L 151.650074 324.631761 
L 150.749921 324.621158 
L 149.849768 324.658175 
L 148.949614 324.717027 
L 148.049461 324.717293 
L 147.149308 324.759548 
L 146.249155 324.781042 
L 145.349001 324.8499 
L 144.448848 324.822618 
L 143.548695 324.842571 
L 142.648542 324.857572 
L 141.748388 324.889226 
L 140.848235 324.919068 
L 139.948082 324.956168 
L 139.047929 324.955719 
L 138.147775 325.030191 
L 137.247622 325.067248 
L 136.347469 325.160485 
L 135.447316 325.159144 
L 134.547163 325.17517 
L 133.647009 325.198442 
L 132.746856 325.242417 
L 131.846703 325.349036 
L 130.94655 325.4136 
L 130.046396 325.448767 
L 129.146243 325.498704 
L 128.24609 325.553486 
L 127.345937 325.617542 
L 126.445783 325.694224 
L 125.54563 325.710958 
L 124.645477 325.945252 
L 123.745324 325.983771 
L 122.84517 326.108992 
L 121.945017 326.162587 
L 121.044864 326.335694 
L 120.144711 326.504558 
L 119.244558 326.630412 
L 118.344404 326.771772 
L 117.444251 326.860869 
L 116.544098 326.948369 
L 115.643945 327.082164 
L 114.743791 327.201066 
L 113.843638 327.225658 
L 112.943485 327.508944 
L 112.043332 327.575898 
L 111.143178 327.902696 
L 110.243025 327.99012 
L 109.342872 328.205623 
L 108.442719 328.380555 
L 107.542565 328.527231 
L 106.642412 328.787073 
L 105.742259 328.977191 
L 104.842106 329.059512 
L 103.941952 329.339376 
L 103.041799 329.525384 
L 102.141646 329.689244 
L 101.241493 329.986308 
L 100.34134 330.184733 
L 99.441186 330.490293 
L 98.541033 330.795969 
L 97.64088 331.124329 
L 96.740727 331.443425 
L 95.840573 331.634114 
L 94.94042 331.867592 
L 94.040267 332.207118 
L 93.140114 332.679465 
L 92.23996 332.991803 
L 91.339807 333.470409 
L 90.439654 333.955325 
L 89.539501 334.354302 
L 88.639347 334.815182 
L 87.739194 335.374023 
L 86.839041 335.962264 
L 85.938888 336.815232 
L 85.038735 337.417166 
L 84.138581 338.316277 
L 83.238428 339.307954 
L 82.338275 339.875483 
L 81.438122 340.877693 
L 80.537968 343.132832 
L 79.637815 345.531187 
L 78.737662 348.417983 
L 77.837509 352.436788 
L 76.937355 356.95901 
L 76.037202 362.591227 
L 75.137049 369.183887 
L 74.236896 376.618939 
L 73.336742 384.897316 
L 72.436589 394.56129 
L 71.536436 405.613909 
L 70.636283 417.966733 
L 69.736129 431.39526 
L 68.835976 443.83307 
L 67.935823 457.976242 
L 67.03567 470.315352 
L 66.135517 482.078337 
L 65.235363 490.465236 
L 64.33521 496.573321 
L 63.435057 500.83036 
L 62.534904 504.069982 
L 61.63475 506.741993 
L 60.734597 508.663674 
L 59.834444 509.882962 
L 58.934291 511.084096 
L 58.034137 512.817276 
L 57.133984 514.683347 
L 56.233831 516.096066 
L 55.333678 517.397601 
L 54.433524 518.198729 
L 53.533371 519.094588 
L 52.633218 520.362468 
L 51.733065 521.892967 
L 50.832912 523.281284 
L 49.932758 523.913538 
L 49.032605 524.017836 
L 48.132452 524.017836 
L 47.232299 524.017836 
L 46.332145 524.017836 
L 45.431992 524.017836 
L 44.531839 524.017836 
z
" clip-path="url(#p2086bbe9d1)" style="fill-opacity: 0.3"/>
   </g>
   <g id="matplotlib.axis_3">
    <g id="xtick_8">
     <g id="line2d_16">
      <g>
       <use xlink:href="#m871bb5cf45" x="44.531839" y="534.04" style="stroke: #000000; stroke-width: 0.8"/>
      </g>
     </g>
     <g id="text_16">
      <text style="font: 10px 'sans-serif'; text-anchor: middle" x="44.531839" y="548.638438" transform="rotate(-0, 44.531839, 548.638438)">0</text>
     </g>
    </g>
    <g id="xtick_9">
     <g id="line2d_17">
      <g>
       <use xlink:href="#m871bb5cf45" x="80.537968" y="534.04" style="stroke: #000000; stroke-width: 0.8"/>
      </g>
     </g>
     <g id="text_17">
      <text style="font: 10px 'sans-serif'; text-anchor: middle" x="80.537968" y="548.638438" transform="rotate(-0, 80.537968, 548.638438)">2000</text>
     </g>
    </g>
    <g id="xtick_10">
     <g id="line2d_18">
      <g>
       <use xlink:href="#m871bb5cf45" x="116.544098" y="534.04" style="stroke: #000000; stroke-width: 0.8"/>
      </g>
     </g>
     <g id="text_18">
      <text style="font: 10px 'sans-serif'; text-anchor: middle" x="116.544098" y="548.638438" transform="rotate(-0, 116.544098, 548.638438)">4000</text>
     </g>
    </g>
    <g id="xtick_11">
     <g id="line2d_19">
      <g>
       <use xlink:href="#m871bb5cf45" x="152.550227" y="534.04" style="stroke: #000000; stroke-width: 0.8"/>
      </g>
     </g>
     <g id="text_19">
      <text style="font: 10px 'sans-serif'; text-anchor: middle" x="152.550227" y="548.638438" transform="rotate(-0, 152.550227, 548.638438)">6000</text>
     </g>
    </g>
    <g id="xtick_12">
     <g id="line2d_20">
      <g>
       <use xlink:href="#m871bb5cf45" x="188.556357" y="534.04" style="stroke: #000000; stroke-width: 0.8"/>
      </g>
     </g>
     <g id="text_20">
      <text style="font: 10px 'sans-serif'; text-anchor: middle" x="188.556357" y="548.638438" transform="rotate(-0, 188.556357, 548.638438)">8000</text>
     </g>
    </g>
    <g id="xtick_13">
     <g id="line2d_21">
      <g>
       <use xlink:href="#m871bb5cf45" x="224.562486" y="534.04" style="stroke: #000000; stroke-width: 0.8"/>
      </g>
     </g>
     <g id="text_21">
      <text style="font: 10px 'sans-serif'; text-anchor: middle" x="224.562486" y="548.638438" transform="rotate(-0, 224.562486, 548.638438)">10000</text>
     </g>
    </g>
    <g id="xtick_14">
     <g id="line2d_22">
      <g>
       <use xlink:href="#m871bb5cf45" x="260.568616" y="534.04" style="stroke: #000000; stroke-width: 0.8"/>
      </g>
     </g>
     <g id="text_22">
      <text style="font: 10px 'sans-serif'; text-anchor: middle" x="260.568616" y="548.638438" transform="rotate(-0, 260.568616, 548.638438)">12000</text>
     </g>
    </g>
    <g id="text_23">
     <text style="font: 10px 'sans-serif'; text-anchor: middle" x="152.550227" y="562.316563" transform="rotate(-0, 152.550227, 562.316563)">Epoch</text>
    </g>
   </g>
   <g id="matplotlib.axis_4">
    <g id="ytick_7">
     <g id="line2d_23">
      <g>
       <use xlink:href="#m1a8e93b6df" x="33.73" y="524.017836" style="stroke: #000000; stroke-width: 0.8"/>
      </g>
     </g>
     <g id="text_24">
      <text style="font: 10px 'sans-serif'; text-anchor: end" x="26.73" y="527.817054" transform="rotate(-0, 26.73, 527.817054)">0.5</text>
     </g>
    </g>
    <g id="ytick_8">
     <g id="line2d_24">
      <g>
       <use xlink:href="#m1a8e93b6df" x="33.73" y="484.04196" style="stroke: #000000; stroke-width: 0.8"/>
      </g>
     </g>
     <g id="text_25">
      <text style="font: 10px 'sans-serif'; text-anchor: end" x="26.73" y="487.841179" transform="rotate(-0, 26.73, 487.841179)">0.6</text>
     </g>
    </g>
    <g id="ytick_9">
     <g id="line2d_25">
      <g>
       <use xlink:href="#m1a8e93b6df" x="33.73" y="444.066084" style="stroke: #000000; stroke-width: 0.8"/>
      </g>
     </g>
     <g id="text_26">
      <text style="font: 10px 'sans-serif'; text-anchor: end" x="26.73" y="447.865303" transform="rotate(-0, 26.73, 447.865303)">0.7</text>
     </g>
    </g>
    <g id="ytick_10">
     <g id="line2d_26">
      <g>
       <use xlink:href="#m1a8e93b6df" x="33.73" y="404.090209" style="stroke: #000000; stroke-width: 0.8"/>
      </g>
     </g>
     <g id="text_27">
      <text style="font: 10px 'sans-serif'; text-anchor: end" x="26.73" y="407.889427" transform="rotate(-0, 26.73, 407.889427)">0.8</text>
     </g>
    </g>
    <g id="ytick_11">
     <g id="line2d_27">
      <g>
       <use xlink:href="#m1a8e93b6df" x="33.73" y="364.114333" style="stroke: #000000; stroke-width: 0.8"/>
      </g>
     </g>
     <g id="text_28">
      <text style="font: 10px 'sans-serif'; text-anchor: end" x="26.73" y="367.913552" transform="rotate(-0, 26.73, 367.913552)">0.9</text>
     </g>
    </g>
    <g id="ytick_12">
     <g id="line2d_28">
      <g>
       <use xlink:href="#m1a8e93b6df" x="33.73" y="324.138457" style="stroke: #000000; stroke-width: 0.8"/>
      </g>
     </g>
     <g id="text_29">
      <text style="font: 10px 'sans-serif'; text-anchor: end" x="26.73" y="327.937676" transform="rotate(-0, 26.73, 327.937676)">1.0</text>
     </g>
    </g>
   </g>
   <g id="line2d_29">
    <path d="M 44.531839 524.017836 
L 49.932758 523.982769 
L 50.832912 523.548562 
L 51.733065 522.365492 
L 53.533371 519.642202 
L 55.333678 517.949239 
L 57.133984 515.371703 
L 58.934291 511.762262 
L 60.734597 509.32804 
L 61.63475 507.550609 
L 62.534904 505.222526 
L 63.435057 502.322096 
L 64.33521 498.525596 
L 65.235363 493.075356 
L 66.135517 485.503013 
L 67.935823 462.831705 
L 69.736129 436.812835 
L 71.536436 411.258773 
L 73.336742 390.000409 
L 75.137049 373.419396 
L 76.037202 366.361812 
L 76.937355 360.437018 
L 78.737662 351.168412 
L 80.537968 345.11688 
L 81.438122 342.820506 
L 82.338275 341.629496 
L 83.238428 340.973236 
L 84.138581 339.829535 
L 85.038735 338.877226 
L 85.938888 338.153352 
L 86.839041 337.163473 
L 88.639347 335.872009 
L 91.339807 334.362365 
L 92.23996 333.800297 
L 93.140114 333.480691 
L 94.040267 332.975982 
L 94.94042 332.602774 
L 97.64088 331.852851 
L 99.441186 331.149015 
L 100.34134 330.849447 
L 101.241493 330.668102 
L 102.141646 330.280369 
L 103.941952 329.957756 
L 104.842106 329.663949 
L 105.742259 329.600577 
L 113.843638 327.735538 
L 115.643945 327.563963 
L 118.344404 327.209038 
L 121.044864 326.781225 
L 121.945017 326.587858 
L 124.645477 326.33137 
L 125.54563 326.087407 
L 130.94655 325.774813 
L 135.447316 325.47925 
L 137.247622 325.36328 
L 144.448848 325.097273 
L 146.249155 325.055693 
L 173.253752 324.630888 
L 193.957276 324.516172 
L 197.557889 324.463572 
L 260.568616 324.440028 
L 260.568616 324.440028 
" clip-path="url(#p2086bbe9d1)" style="fill: none; stroke: #000000; stroke-width: 1.5; stroke-linecap: square"/>
   </g>
   <g id="line2d_30">
    <g clip-path="url(#p2086bbe9d1)">
     <use xlink:href="#mddda3b3d28" x="44.531839" y="524.017836" style="fill-opacity: 0; stroke: #ff0000"/>
     <use xlink:href="#mddda3b3d28" x="62.534904" y="505.222526" style="fill-opacity: 0; stroke: #ff0000"/>
     <use xlink:href="#mddda3b3d28" x="80.537968" y="345.11688" style="fill-opacity: 0; stroke: #ff0000"/>
     <use xlink:href="#mddda3b3d28" x="134.547163" y="325.508556" style="fill-opacity: 0; stroke: #ff0000"/>
    </g>
   </g>
   <g id="patch_8">
    <path d="M 33.73 534.04 
L 33.73 314.304 
" style="fill: none; stroke: #000000; stroke-width: 0.8; stroke-linejoin: miter; stroke-linecap: square"/>
   </g>
   <g id="patch_9">
    <path d="M 271.370455 534.04 
L 271.370455 314.304 
" style="fill: none; stroke: #000000; stroke-width: 0.8; stroke-linejoin: miter; stroke-linecap: square"/>
   </g>
   <g id="patch_10">
    <path d="M 33.73 534.04 
L 271.370455 534.04 
" style="fill: none; stroke: #000000; stroke-width: 0.8; stroke-linejoin: miter; stroke-linecap: square"/>
   </g>
   <g id="patch_11">
    <path d="M 33.73 314.304 
L 271.370455 314.304 
" style="fill: none; stroke: #000000; stroke-width: 0.8; stroke-linejoin: miter; stroke-linecap: square"/>
   </g>
   <g id="text_30">
    <text style="font: 12px 'sans-serif'" transform="translate(36.300227 294.866625)">Fraction of correctly classified outputs,</text>
    <text style="font: 12px 'sans-serif'" transform="translate(37.631477 308.304)">inversely weighted by class frequency</text>
   </g>
  </g>
 </g>
 <defs>
  <clipPath id="p37b098e99c">
   <rect x="33.73" y="25.44" width="237.640455" height="219.736"/>
  </clipPath>
  <clipPath id="p2086bbe9d1">
   <rect x="33.73" y="314.304" width="237.640455" height="219.736"/>
  </clipPath>
 </defs>
</svg>
