<?xml version="1.0" encoding="utf-8" standalone="no"?>
<!DOCTYPE svg PUBLIC "-//W3C//DTD SVG 1.1//EN"
  "http://www.w3.org/Graphics/SVG/1.1/DTD/svg11.dtd">
<svg xmlns:xlink="http://www.w3.org/1999/xlink" width="288pt" height="576pt" viewBox="0 0 288 576" xmlns="http://www.w3.org/2000/svg" version="1.1">
 <metadata>
  <rdf:RDF xmlns:dc="http://purl.org/dc/elements/1.1/" xmlns:cc="http://creativecommons.org/ns#" xmlns:rdf="http://www.w3.org/1999/02/22-rdf-syntax-ns#">
   <cc:Work>
    <dc:type rdf:resource="http://purl.org/dc/dcmitype/StillImage"/>
    <dc:date>2022-02-16T10:22:34.157218</dc:date>
    <dc:format>image/svg+xml</dc:format>
    <dc:creator>
     <cc:Agent>
      <dc:title>Matplotlib v3.5.0, https://matplotlib.org/</dc:title>
     </cc:Agent>
    </dc:creator>
   </cc:Work>
  </rdf:RDF>
 </metadata>
 <defs>
  <style type="text/css">*{stroke-linejoin: round; stroke-linecap: butt}</style>
 </defs>
 <g id="figure_1">
  <g id="patch_1">
   <path d="M 0 576 
L 288 576 
L 288 0 
L 0 0 
z
" style="fill: #ffffff"/>
  </g>
  <g id="axes_1">
   <g id="patch_2">
    <path d="M 33.73 245.176 
L 271.370455 245.176 
L 271.370455 25.44 
L 33.73 25.44 
z
" style="fill: #ffffff"/>
   </g>
   <g id="PolyCollection_1">
    <path d="M 44.531839 49.627057 
L 44.531839 49.696336 
L 45.431992 56.076905 
L 46.332145 56.170409 
L 47.232299 56.303208 
L 48.132452 56.541913 
L 49.032605 57.052583 
L 49.932758 58.161201 
L 50.832912 60.096321 
L 51.733065 62.670215 
L 52.633218 65.379452 
L 53.533371 67.895441 
L 54.433524 70.245978 
L 55.333678 72.673579 
L 56.233831 75.409844 
L 57.133984 78.642707 
L 58.034137 82.551179 
L 58.934291 86.803382 
L 59.834444 90.991285 
L 60.734597 95.15739 
L 61.63475 99.516653 
L 62.534904 103.996636 
L 63.435057 108.446257 
L 64.33521 112.805432 
L 65.235363 117.065006 
L 66.135517 121.169367 
L 67.03567 125.051243 
L 67.935823 128.684837 
L 68.835976 132.229117 
L 69.736129 135.554107 
L 70.636283 138.837933 
L 71.536436 141.977107 
L 72.436589 145.220499 
L 73.336742 148.547979 
L 74.236896 151.859619 
L 75.137049 155.142208 
L 76.037202 158.776795 
L 76.937355 162.42169 
L 77.837509 166.114545 
L 78.737662 169.922776 
L 79.637815 173.820611 
L 80.537968 177.941482 
L 81.438122 180.882859 
L 82.338275 183.024681 
L 83.238428 185.176985 
L 84.138581 187.318346 
L 85.038735 189.433989 
L 85.938888 191.514291 
L 86.839041 193.544959 
L 87.739194 195.503123 
L 88.639347 197.424313 
L 89.539501 199.275133 
L 90.439654 201.068098 
L 91.339807 202.77662 
L 92.23996 204.41565 
L 93.140114 205.967883 
L 94.040267 207.439378 
L 94.94042 208.846187 
L 95.840573 210.168391 
L 96.740727 211.425365 
L 97.64088 212.611073 
L 98.541033 213.730363 
L 99.441186 214.793417 
L 100.34134 215.780445 
L 101.241493 216.723196 
L 102.141646 217.610129 
L 103.041799 218.437793 
L 103.941952 219.220835 
L 104.842106 219.944874 
L 105.742259 220.640678 
L 106.642412 221.289857 
L 107.542565 221.896703 
L 108.442719 222.463645 
L 109.342872 223.004249 
L 110.243025 223.510312 
L 111.143178 223.996943 
L 112.043332 224.420894 
L 112.943485 224.871985 
L 113.843638 225.248049 
L 114.743791 225.625332 
L 115.643945 225.96971 
L 116.544098 226.311039 
L 117.444251 226.600028 
L 118.344404 226.915033 
L 119.244558 227.192497 
L 120.144711 227.458449 
L 121.044864 227.723567 
L 121.945017 227.952063 
L 122.84517 228.166942 
L 123.745324 228.391349 
L 124.645477 228.59664 
L 125.54563 228.780155 
L 126.445783 228.966641 
L 127.345937 229.144643 
L 128.24609 229.288999 
L 129.146243 229.456113 
L 130.046396 229.608351 
L 130.94655 229.785316 
L 131.846703 229.912194 
L 132.746856 230.041745 
L 133.647009 230.17067 
L 134.547163 230.273392 
L 135.447316 230.390151 
L 136.347469 230.520195 
L 137.247622 230.630477 
L 138.147775 230.726133 
L 139.047929 230.826983 
L 139.948082 230.922714 
L 140.848235 231.008786 
L 141.748388 231.091507 
L 142.648542 231.196761 
L 143.548695 231.276442 
L 144.448848 231.355007 
L 145.349001 231.433239 
L 146.249155 231.498724 
L 147.149308 231.579504 
L 148.049461 231.660012 
L 148.949614 231.717736 
L 149.849768 231.795864 
L 150.749921 231.853953 
L 151.650074 231.918684 
L 152.550227 231.970363 
L 153.450381 232.038451 
L 154.350534 232.089233 
L 155.250687 232.142703 
L 156.15084 232.200344 
L 157.050993 232.268639 
L 157.951147 232.295614 
L 158.8513 232.353796 
L 159.751453 232.40008 
L 160.651606 232.438117 
L 161.55176 232.485886 
L 162.451913 232.52585 
L 163.352066 232.574716 
L 164.252219 232.601329 
L 165.152373 232.645135 
L 166.052526 232.693727 
L 166.952679 232.729978 
L 167.852832 232.760482 
L 168.752986 232.804887 
L 169.653139 232.837583 
L 170.553292 232.874814 
L 171.453445 232.907905 
L 172.353598 232.933466 
L 173.253752 232.980624 
L 174.153905 232.994333 
L 175.054058 233.038225 
L 175.954211 233.062239 
L 176.854365 233.100648 
L 177.754518 233.135905 
L 178.654671 233.156321 
L 179.554824 233.196809 
L 180.454978 233.22081 
L 181.355131 233.257244 
L 182.255284 233.293794 
L 183.155437 233.315521 
L 184.055591 233.337529 
L 184.955744 233.36478 
L 185.855897 233.388891 
L 186.75605 233.407732 
L 187.656204 233.443593 
L 188.556357 233.464922 
L 189.45651 233.483075 
L 190.356663 233.509628 
L 191.256816 233.531498 
L 192.15697 233.553829 
L 193.057123 233.568661 
L 193.957276 233.59247 
L 194.857429 233.629659 
L 195.757583 233.63334 
L 196.657736 233.673383 
L 197.557889 233.679714 
L 198.458042 233.707196 
L 199.358196 233.720796 
L 200.258349 233.745794 
L 201.158502 233.76577 
L 202.058655 233.78486 
L 202.958809 233.8054 
L 203.858962 233.812794 
L 204.759115 233.834035 
L 205.659268 233.847496 
L 206.559421 233.866789 
L 207.459575 233.883392 
L 208.359728 233.906306 
L 209.259881 233.928816 
L 210.160034 233.954908 
L 211.060188 233.969495 
L 211.960341 233.984567 
L 212.860494 233.99663 
L 213.760647 234.025163 
L 214.660801 234.04324 
L 215.560954 234.058335 
L 216.461107 234.078853 
L 217.36126 234.08101 
L 218.261414 234.091436 
L 219.161567 234.108672 
L 220.06172 234.128847 
L 220.961873 234.147801 
L 221.862027 234.156913 
L 222.76218 234.163052 
L 223.662333 234.17898 
L 224.562486 234.19176 
L 225.462639 234.24589 
L 226.362793 234.257819 
L 227.262946 234.262198 
L 228.163099 234.268996 
L 229.063252 234.281078 
L 229.963406 234.295304 
L 230.863559 234.299901 
L 231.763712 234.30571 
L 232.663865 234.31828 
L 233.564019 234.327718 
L 234.464172 234.335841 
L 235.364325 234.350553 
L 236.264478 234.356458 
L 237.164632 234.364727 
L 238.064785 234.374916 
L 238.964938 234.381387 
L 239.865091 234.385652 
L 240.765244 234.396355 
L 241.665398 234.407415 
L 242.565551 234.413569 
L 243.465704 234.422083 
L 244.365857 234.429893 
L 245.266011 234.441 
L 246.166164 234.449576 
L 247.066317 234.457155 
L 247.96647 234.46564 
L 248.866624 234.480653 
L 249.766777 234.486444 
L 250.66693 234.494277 
L 251.567083 234.50119 
L 252.467237 234.512872 
L 253.36739 234.519355 
L 254.267543 234.52756 
L 255.167696 234.53557 
L 256.06785 234.545982 
L 256.968003 234.553838 
L 257.868156 234.562476 
L 258.768309 234.570757 
L 259.668462 234.580157 
L 260.568616 234.587189 
L 260.568616 233.878741 
L 260.568616 233.878741 
L 259.668462 233.870867 
L 258.768309 233.863002 
L 257.868156 233.85312 
L 256.968003 233.844439 
L 256.06785 233.835003 
L 255.167696 233.822126 
L 254.267543 233.814292 
L 253.36739 233.805151 
L 252.467237 233.799396 
L 251.567083 233.78843 
L 250.66693 233.78003 
L 249.766777 233.772574 
L 248.866624 233.764676 
L 247.96647 233.747365 
L 247.066317 233.737407 
L 246.166164 233.728884 
L 245.266011 233.720053 
L 244.365857 233.710245 
L 243.465704 233.70205 
L 242.565551 233.693949 
L 241.665398 233.687808 
L 240.765244 233.6761 
L 239.865091 233.666727 
L 238.964938 233.662073 
L 238.064785 233.653844 
L 237.164632 233.644345 
L 236.264478 233.635462 
L 235.364325 233.629687 
L 234.464172 233.614865 
L 233.564019 233.607133 
L 232.663865 233.597833 
L 231.763712 233.585921 
L 230.863559 233.57781 
L 229.963406 233.574289 
L 229.063252 233.559571 
L 228.163099 233.547221 
L 227.262946 233.540095 
L 226.362793 233.535264 
L 225.462639 233.522599 
L 224.562486 233.47024 
L 223.662333 233.454529 
L 222.76218 233.437097 
L 221.862027 233.429503 
L 220.961873 233.42226 
L 220.06172 233.400053 
L 219.161567 233.377927 
L 218.261414 233.36377 
L 217.36126 233.350728 
L 216.461107 233.348759 
L 215.560954 233.327702 
L 214.660801 233.311252 
L 213.760647 233.289486 
L 212.860494 233.261831 
L 211.960341 233.248347 
L 211.060188 233.232603 
L 210.160034 233.211733 
L 209.259881 233.17922 
L 208.359728 233.153455 
L 207.459575 233.132187 
L 206.559421 233.111015 
L 205.659268 233.09372 
L 204.759115 233.078979 
L 203.858962 233.056484 
L 202.958809 233.046552 
L 202.058655 233.014815 
L 201.158502 233.005912 
L 200.258349 232.979108 
L 199.358196 232.953033 
L 198.458042 232.944107 
L 197.557889 232.91184 
L 196.657736 232.904963 
L 195.757583 232.859507 
L 194.857429 232.856613 
L 193.957276 232.82072 
L 193.057123 232.790392 
L 192.15697 232.771756 
L 191.256816 232.750023 
L 190.356663 232.724911 
L 189.45651 232.698924 
L 188.556357 232.677402 
L 187.656204 232.651073 
L 186.75605 232.612485 
L 185.855897 232.591492 
L 184.955744 232.559317 
L 184.055591 232.539203 
L 183.155437 232.50895 
L 182.255284 232.484734 
L 181.355131 232.446986 
L 180.454978 232.404612 
L 179.554824 232.374344 
L 178.654671 232.320595 
L 177.754518 232.303247 
L 176.854365 232.261865 
L 175.954211 232.221292 
L 175.054058 232.188298 
L 174.153905 232.146427 
L 173.253752 232.129949 
L 172.353598 232.080938 
L 171.453445 232.04872 
L 170.553292 232.007468 
L 169.653139 231.961249 
L 168.752986 231.939333 
L 167.852832 231.88628 
L 166.952679 231.848943 
L 166.052526 231.803111 
L 165.152373 231.753522 
L 164.252219 231.713381 
L 163.352066 231.674004 
L 162.451913 231.624322 
L 161.55176 231.577155 
L 160.651606 231.53069 
L 159.751453 231.483478 
L 158.8513 231.432487 
L 157.951147 231.367908 
L 157.050993 231.332396 
L 156.15084 231.261891 
L 155.250687 231.196835 
L 154.350534 231.138137 
L 153.450381 231.080205 
L 152.550227 231.003515 
L 151.650074 230.941461 
L 150.749921 230.873003 
L 149.849768 230.803875 
L 148.949614 230.730609 
L 148.049461 230.649516 
L 147.149308 230.555301 
L 146.249155 230.466843 
L 145.349001 230.410767 
L 144.448848 230.315422 
L 143.548695 230.232186 
L 142.648542 230.144735 
L 141.748388 230.019246 
L 140.848235 229.924115 
L 139.948082 229.835605 
L 139.047929 229.725942 
L 138.147775 229.608681 
L 137.247622 229.501877 
L 136.347469 229.387449 
L 135.447316 229.244791 
L 134.547163 229.11366 
L 133.647009 228.992208 
L 132.746856 228.846795 
L 131.846703 228.699168 
L 130.94655 228.552246 
L 130.046396 228.357828 
L 129.146243 228.179299 
L 128.24609 227.993191 
L 127.345937 227.833899 
L 126.445783 227.6355 
L 125.54563 227.42226 
L 124.645477 227.210295 
L 123.745324 226.982442 
L 122.84517 226.732257 
L 121.945017 226.488635 
L 121.044864 226.230225 
L 120.144711 225.932767 
L 119.244558 225.628545 
L 118.344404 225.305437 
L 117.444251 224.945978 
L 116.544098 224.617797 
L 115.643945 224.241682 
L 114.743791 223.84368 
L 113.843638 223.409646 
L 112.943485 222.980044 
L 112.043332 222.469429 
L 111.143178 221.964896 
L 110.243025 221.405674 
L 109.342872 220.815863 
L 108.442719 220.1861 
L 107.542565 219.527491 
L 106.642412 218.812787 
L 105.742259 218.055909 
L 104.842106 217.253223 
L 103.941952 216.41776 
L 103.041799 215.51758 
L 102.141646 214.566615 
L 101.241493 213.564335 
L 100.34134 212.496948 
L 99.441186 211.391647 
L 98.541033 210.210576 
L 97.64088 208.963363 
L 96.740727 207.657722 
L 95.840573 206.277119 
L 94.94042 204.834446 
L 94.040267 203.316225 
L 93.140114 201.725943 
L 92.23996 200.068635 
L 91.339807 198.335572 
L 90.439654 196.53591 
L 89.539501 194.653439 
L 88.639347 192.729026 
L 87.739194 190.746315 
L 86.839041 188.743696 
L 85.938888 186.683717 
L 85.038735 184.581857 
L 84.138581 182.460528 
L 83.238428 180.329013 
L 82.338275 178.190502 
L 81.438122 176.074407 
L 80.537968 173.20726 
L 79.637815 169.155675 
L 78.737662 165.409434 
L 77.837509 161.831382 
L 76.937355 158.337235 
L 76.037202 154.940153 
L 75.137049 151.556766 
L 74.236896 148.469669 
L 73.336742 145.308144 
L 72.436589 142.061878 
L 71.536436 138.904987 
L 70.636283 135.749353 
L 69.736129 132.384038 
L 68.835976 128.985553 
L 67.935823 125.305307 
L 67.03567 121.535961 
L 66.135517 117.588521 
L 65.235363 113.435003 
L 64.33521 109.180042 
L 63.435057 104.902375 
L 62.534904 100.598686 
L 61.63475 96.262345 
L 60.734597 91.993393 
L 59.834444 87.958161 
L 58.934291 84.015275 
L 58.034137 80.136779 
L 57.133984 76.621593 
L 56.233831 73.76472 
L 55.333678 71.334836 
L 54.433524 69.055541 
L 53.533371 66.699363 
L 52.633218 64.145474 
L 51.733065 61.493329 
L 50.832912 59.150807 
L 49.932758 57.598024 
L 49.032605 56.810602 
L 48.132452 56.448428 
L 47.232299 56.262516 
L 46.332145 56.149619 
L 45.431992 56.064073 
L 44.531839 49.627057 
z
" clip-path="url(#p96ea98ba83)" style="fill: #1f77b4; fill-opacity: 0.3"/>
   </g>
   <g id="PolyCollection_2">
    <path d="M 44.531839 35.428 
L 44.531839 35.509985 
L 45.431992 43.357629 
L 46.332145 43.478216 
L 47.232299 43.710176 
L 48.132452 44.342536 
L 49.032605 46.403453 
L 49.932758 50.887709 
L 50.832912 56.076026 
L 51.733065 60.352736 
L 52.633218 63.688648 
L 53.533371 66.995828 
L 54.433524 71.336051 
L 55.333678 76.511285 
L 56.233831 81.601329 
L 57.133984 86.033117 
L 58.034137 89.256394 
L 58.934291 92.045397 
L 59.834444 95.122425 
L 60.734597 98.712894 
L 61.63475 102.783486 
L 62.534904 107.339405 
L 63.435057 112.414724 
L 64.33521 118.006867 
L 65.235363 124.18175 
L 66.135517 130.87097 
L 67.03567 137.836321 
L 67.935823 145.101244 
L 68.835976 152.424187 
L 69.736129 159.650842 
L 70.636283 166.614204 
L 71.536436 173.260607 
L 72.436589 179.183335 
L 73.336742 184.85676 
L 74.236896 189.809934 
L 75.137049 194.388059 
L 76.037202 198.30091 
L 76.937355 201.846646 
L 77.837509 204.902368 
L 78.737662 207.700755 
L 79.637815 209.952298 
L 80.537968 211.982912 
L 81.438122 213.718705 
L 82.338275 214.561449 
L 83.238428 215.358511 
L 84.138581 216.091294 
L 85.038735 216.79943 
L 85.938888 217.447795 
L 86.839041 218.053604 
L 87.739194 218.627869 
L 88.639347 219.175298 
L 89.539501 219.69341 
L 90.439654 220.178016 
L 91.339807 220.64891 
L 92.23996 221.071261 
L 93.140114 221.498464 
L 94.040267 221.899886 
L 94.94042 222.276546 
L 95.840573 222.640565 
L 96.740727 222.994788 
L 97.64088 223.335725 
L 98.541033 223.648426 
L 99.441186 223.960154 
L 100.34134 224.252072 
L 101.241493 224.516586 
L 102.141646 224.802474 
L 103.041799 225.061986 
L 103.941952 225.305587 
L 104.842106 225.55069 
L 105.742259 225.785242 
L 106.642412 226.020445 
L 107.542565 226.243244 
L 108.442719 226.466066 
L 109.342872 226.667605 
L 110.243025 226.872967 
L 111.143178 227.070553 
L 112.043332 227.261091 
L 112.943485 227.455232 
L 113.843638 227.629766 
L 114.743791 227.820437 
L 115.643945 227.991189 
L 116.544098 228.162117 
L 117.444251 228.328398 
L 118.344404 228.491084 
L 119.244558 228.645847 
L 120.144711 228.806074 
L 121.044864 228.955544 
L 121.945017 229.102823 
L 122.84517 229.24645 
L 123.745324 229.383039 
L 124.645477 229.507961 
L 125.54563 229.643477 
L 126.445783 229.774387 
L 127.345937 229.887122 
L 128.24609 230.018222 
L 129.146243 230.140559 
L 130.046396 230.251396 
L 130.94655 230.366255 
L 131.846703 230.472195 
L 132.746856 230.572537 
L 133.647009 230.681199 
L 134.547163 230.775133 
L 135.447316 230.872317 
L 136.347469 230.967208 
L 137.247622 231.063387 
L 138.147775 231.145002 
L 139.047929 231.239686 
L 139.948082 231.331829 
L 140.848235 231.412683 
L 141.748388 231.50155 
L 142.648542 231.580621 
L 143.548695 231.659414 
L 144.448848 231.735944 
L 145.349001 231.813657 
L 146.249155 231.889962 
L 147.149308 231.954829 
L 148.049461 232.026764 
L 148.949614 232.096213 
L 149.849768 232.163698 
L 150.749921 232.229159 
L 151.650074 232.297376 
L 152.550227 232.362873 
L 153.450381 232.418633 
L 154.350534 232.488605 
L 155.250687 232.546876 
L 156.15084 232.604341 
L 157.050993 232.65819 
L 157.951147 232.718849 
L 158.8513 232.775166 
L 159.751453 232.830677 
L 160.651606 232.884052 
L 161.55176 232.936703 
L 162.451913 232.980181 
L 163.352066 233.031349 
L 164.252219 233.084812 
L 165.152373 233.133685 
L 166.052526 233.181304 
L 166.952679 233.226574 
L 167.852832 233.272254 
L 168.752986 233.309249 
L 169.653139 233.353645 
L 170.553292 233.397787 
L 171.453445 233.437474 
L 172.353598 233.48265 
L 173.253752 233.520226 
L 174.153905 233.557871 
L 175.054058 233.602622 
L 175.954211 233.63612 
L 176.854365 233.681915 
L 177.754518 233.720444 
L 178.654671 233.755627 
L 179.554824 233.792727 
L 180.454978 233.828723 
L 181.355131 233.853457 
L 182.255284 233.895202 
L 183.155437 233.926977 
L 184.055591 233.956025 
L 184.955744 233.989275 
L 185.855897 234.017275 
L 186.75605 234.048096 
L 187.656204 234.076521 
L 188.556357 234.105127 
L 189.45651 234.135099 
L 190.356663 234.167013 
L 191.256816 234.196343 
L 192.15697 234.218706 
L 193.057123 234.246427 
L 193.957276 234.271248 
L 194.857429 234.286619 
L 195.757583 234.315652 
L 196.657736 234.337887 
L 197.557889 234.359144 
L 198.458042 234.380871 
L 199.358196 234.40172 
L 200.258349 234.426633 
L 201.158502 234.44534 
L 202.058655 234.459975 
L 202.958809 234.48941 
L 203.858962 234.50777 
L 204.759115 234.519476 
L 205.659268 234.540619 
L 206.559421 234.559878 
L 207.459575 234.576608 
L 208.359728 234.590817 
L 209.259881 234.607197 
L 210.160034 234.632987 
L 211.060188 234.643967 
L 211.960341 234.660368 
L 212.860494 234.680737 
L 213.760647 234.690636 
L 214.660801 234.713771 
L 215.560954 234.721776 
L 216.461107 234.740718 
L 217.36126 234.755904 
L 218.261414 234.77321 
L 219.161567 234.786356 
L 220.06172 234.796709 
L 220.961873 234.808802 
L 221.862027 234.826668 
L 222.76218 234.842405 
L 223.662333 234.855083 
L 224.562486 234.862144 
L 225.462639 234.884962 
L 226.362793 234.892734 
L 227.262946 234.899695 
L 228.163099 234.909741 
L 229.063252 234.917892 
L 229.963406 234.926105 
L 230.863559 234.936789 
L 231.763712 234.942856 
L 232.663865 234.95335 
L 233.564019 234.959487 
L 234.464172 234.973192 
L 235.364325 234.979473 
L 236.264478 234.988053 
L 237.164632 234.994653 
L 238.064785 235.003826 
L 238.964938 235.013773 
L 239.865091 235.021674 
L 240.765244 235.03146 
L 241.665398 235.038894 
L 242.565551 235.047215 
L 243.465704 235.05022 
L 244.365857 235.059534 
L 245.266011 235.069221 
L 246.166164 235.075939 
L 247.066317 235.081556 
L 247.96647 235.092626 
L 248.866624 235.097032 
L 249.766777 235.107072 
L 250.66693 235.10989 
L 251.567083 235.118991 
L 252.467237 235.128338 
L 253.36739 235.134347 
L 254.267543 235.140232 
L 255.167696 235.146578 
L 256.06785 235.15431 
L 256.968003 235.162503 
L 257.868156 235.166225 
L 258.768309 235.173596 
L 259.668462 235.181265 
L 260.568616 235.188 
L 260.568616 234.866805 
L 260.568616 234.866805 
L 259.668462 234.8594 
L 258.768309 234.851378 
L 257.868156 234.844135 
L 256.968003 234.839701 
L 256.06785 234.830176 
L 255.167696 234.823034 
L 254.267543 234.815818 
L 253.36739 234.809297 
L 252.467237 234.802793 
L 251.567083 234.792529 
L 250.66693 234.783367 
L 249.766777 234.779272 
L 248.866624 234.769655 
L 247.96647 234.763426 
L 247.066317 234.753425 
L 246.166164 234.746945 
L 245.266011 234.738351 
L 244.365857 234.728675 
L 243.465704 234.717819 
L 242.565551 234.713767 
L 241.665398 234.705238 
L 240.765244 234.696667 
L 239.865091 234.687112 
L 238.964938 234.677592 
L 238.064785 234.66728 
L 237.164632 234.657055 
L 236.264478 234.64763 
L 235.364325 234.636007 
L 234.464172 234.629377 
L 233.564019 234.615506 
L 232.663865 234.608404 
L 231.763712 234.597699 
L 230.863559 234.589488 
L 229.963406 234.578866 
L 229.063252 234.570066 
L 228.163099 234.560544 
L 227.262946 234.549603 
L 226.362793 234.542424 
L 225.462639 234.534313 
L 224.562486 234.509303 
L 223.662333 234.499409 
L 222.76218 234.486558 
L 221.862027 234.470164 
L 220.961873 234.453043 
L 220.06172 234.436848 
L 219.161567 234.426219 
L 218.261414 234.410477 
L 217.36126 234.392558 
L 216.461107 234.376013 
L 215.560954 234.356243 
L 214.660801 234.34722 
L 213.760647 234.323962 
L 212.860494 234.312128 
L 211.960341 234.288738 
L 211.060188 234.272076 
L 210.160034 234.260638 
L 209.259881 234.234838 
L 208.359728 234.215374 
L 207.459575 234.199646 
L 206.559421 234.183244 
L 205.659268 234.160448 
L 204.759115 234.138256 
L 203.858962 234.125429 
L 202.958809 234.10534 
L 202.058655 234.07483 
L 201.158502 234.058888 
L 200.258349 234.039709 
L 199.358196 234.012305 
L 198.458042 233.990441 
L 197.557889 233.965287 
L 196.657736 233.944124 
L 195.757583 233.918942 
L 194.857429 233.8886 
L 193.957276 233.872123 
L 193.057123 233.843877 
L 192.15697 233.815907 
L 191.256816 233.790599 
L 190.356663 233.758894 
L 189.45651 233.724731 
L 188.556357 233.68761 
L 187.656204 233.654229 
L 186.75605 233.622518 
L 185.855897 233.590349 
L 184.955744 233.560262 
L 184.055591 233.528477 
L 183.155437 233.493711 
L 182.255284 233.460584 
L 181.355131 233.41704 
L 180.454978 233.391615 
L 179.554824 233.351379 
L 178.654671 233.310483 
L 177.754518 233.27467 
L 176.854365 233.231531 
L 175.954211 233.180389 
L 175.054058 233.143015 
L 174.153905 233.090389 
L 173.253752 233.048671 
L 172.353598 233.004911 
L 171.453445 232.951839 
L 170.553292 232.908282 
L 169.653139 232.859737 
L 168.752986 232.813971 
L 167.852832 232.772577 
L 166.952679 232.722547 
L 166.052526 232.67536 
L 165.152373 232.626513 
L 164.252219 232.575185 
L 163.352066 232.516444 
L 162.451913 232.465251 
L 161.55176 232.417147 
L 160.651606 232.361487 
L 159.751453 232.307098 
L 158.8513 232.249297 
L 157.951147 232.190962 
L 157.050993 232.127825 
L 156.15084 232.06921 
L 155.250687 232.007458 
L 154.350534 231.947337 
L 153.450381 231.874075 
L 152.550227 231.814766 
L 151.650074 231.745383 
L 150.749921 231.675959 
L 149.849768 231.602776 
L 148.949614 231.534648 
L 148.049461 231.457337 
L 147.149308 231.381448 
L 146.249155 231.313431 
L 145.349001 231.227596 
L 144.448848 231.150641 
L 143.548695 231.06481 
L 142.648542 230.979284 
L 141.748388 230.896306 
L 140.848235 230.802851 
L 139.948082 230.715801 
L 139.047929 230.620493 
L 138.147775 230.513876 
L 137.247622 230.430029 
L 136.347469 230.327283 
L 135.447316 230.229072 
L 134.547163 230.12869 
L 133.647009 230.028872 
L 132.746856 229.917472 
L 131.846703 229.808844 
L 130.94655 229.696859 
L 130.046396 229.579132 
L 129.146243 229.464164 
L 128.24609 229.335714 
L 127.345937 229.194725 
L 126.445783 229.081733 
L 125.54563 228.942588 
L 124.645477 228.79941 
L 123.745324 228.66837 
L 122.84517 228.523756 
L 121.945017 228.372765 
L 121.044864 228.214927 
L 120.144711 228.059071 
L 119.244558 227.884898 
L 118.344404 227.722536 
L 117.444251 227.550401 
L 116.544098 227.37171 
L 115.643945 227.190239 
L 114.743791 227.008847 
L 113.843638 226.803714 
L 112.943485 226.614528 
L 112.043332 226.415343 
L 111.143178 226.214097 
L 110.243025 226.003024 
L 109.342872 225.786179 
L 108.442719 225.575775 
L 107.542565 225.335497 
L 106.642412 225.097966 
L 105.742259 224.85199 
L 104.842106 224.603083 
L 103.941952 224.341204 
L 103.041799 224.081541 
L 102.141646 223.80059 
L 101.241493 223.499775 
L 100.34134 223.212596 
L 99.441186 222.894596 
L 98.541033 222.560412 
L 97.64088 222.212156 
L 96.740727 221.833786 
L 95.840573 221.443257 
L 94.94042 221.026408 
L 94.040267 220.598428 
L 93.140114 220.138725 
L 92.23996 219.646293 
L 91.339807 219.150067 
L 90.439654 218.607233 
L 89.539501 218.0396 
L 88.639347 217.430692 
L 87.739194 216.791767 
L 86.839041 216.10917 
L 85.938888 215.396918 
L 85.038735 214.629846 
L 84.138581 213.805198 
L 83.238428 212.948151 
L 82.338275 212.03234 
L 81.438122 211.068503 
L 80.537968 209.156594 
L 79.637815 206.834967 
L 78.737662 204.386191 
L 77.837509 201.299887 
L 76.937355 197.974824 
L 76.037202 194.202134 
L 75.137049 189.830622 
L 74.236896 184.938021 
L 73.336742 179.664782 
L 72.436589 173.673505 
L 71.536436 167.465394 
L 70.636283 160.763265 
L 69.736129 153.821576 
L 68.835976 146.696821 
L 67.935823 139.679029 
L 67.03567 132.821799 
L 66.135517 126.29579 
L 65.235363 120.179136 
L 64.33521 114.537853 
L 63.435057 109.376763 
L 62.534904 104.594598 
L 61.63475 100.193123 
L 60.734597 96.259283 
L 59.834444 92.729453 
L 58.934291 89.577509 
L 58.034137 86.677431 
L 57.133984 83.359678 
L 56.233831 78.75984 
L 55.333678 73.579037 
L 54.433524 68.937929 
L 53.533371 65.255043 
L 52.633218 62.185833 
L 51.733065 58.664603 
L 50.832912 54.153999 
L 49.932758 49.238658 
L 49.032605 45.570973 
L 48.132452 44.097896 
L 47.232299 43.635518 
L 46.332145 43.449397 
L 45.431992 43.343202 
L 44.531839 35.428 
z
" clip-path="url(#p96ea98ba83)" style="fill: #ff7f0e; fill-opacity: 0.3"/>
   </g>
   <g id="matplotlib.axis_1">
    <g id="xtick_1">
     <g id="line2d_1">
      <defs>
       <path id="m08c97cf40b" d="M 0 0 
L 0 3.5 
" style="stroke: #000000; stroke-width: 0.8"/>
      </defs>
      <g>
       <use xlink:href="#m08c97cf40b" x="44.531839" y="245.176" style="stroke: #000000; stroke-width: 0.8"/>
      </g>
     </g>
     <g id="text_1">
      <text style="font: 10px 'sans-serif'; text-anchor: middle" x="44.531839" y="259.774437" transform="rotate(-0, 44.531839, 259.774437)">0</text>
     </g>
    </g>
    <g id="xtick_2">
     <g id="line2d_2">
      <g>
       <use xlink:href="#m08c97cf40b" x="80.537968" y="245.176" style="stroke: #000000; stroke-width: 0.8"/>
      </g>
     </g>
     <g id="text_2">
      <text style="font: 10px 'sans-serif'; text-anchor: middle" x="80.537968" y="259.774437" transform="rotate(-0, 80.537968, 259.774437)">2000</text>
     </g>
    </g>
    <g id="xtick_3">
     <g id="line2d_3">
      <g>
       <use xlink:href="#m08c97cf40b" x="116.544098" y="245.176" style="stroke: #000000; stroke-width: 0.8"/>
      </g>
     </g>
     <g id="text_3">
      <text style="font: 10px 'sans-serif'; text-anchor: middle" x="116.544098" y="259.774437" transform="rotate(-0, 116.544098, 259.774437)">4000</text>
     </g>
    </g>
    <g id="xtick_4">
     <g id="line2d_4">
      <g>
       <use xlink:href="#m08c97cf40b" x="152.550227" y="245.176" style="stroke: #000000; stroke-width: 0.8"/>
      </g>
     </g>
     <g id="text_4">
      <text style="font: 10px 'sans-serif'; text-anchor: middle" x="152.550227" y="259.774437" transform="rotate(-0, 152.550227, 259.774437)">6000</text>
     </g>
    </g>
    <g id="xtick_5">
     <g id="line2d_5">
      <g>
       <use xlink:href="#m08c97cf40b" x="188.556357" y="245.176" style="stroke: #000000; stroke-width: 0.8"/>
      </g>
     </g>
     <g id="text_5">
      <text style="font: 10px 'sans-serif'; text-anchor: middle" x="188.556357" y="259.774437" transform="rotate(-0, 188.556357, 259.774437)">8000</text>
     </g>
    </g>
    <g id="xtick_6">
     <g id="line2d_6">
      <g>
       <use xlink:href="#m08c97cf40b" x="224.562486" y="245.176" style="stroke: #000000; stroke-width: 0.8"/>
      </g>
     </g>
     <g id="text_6">
      <text style="font: 10px 'sans-serif'; text-anchor: middle" x="224.562486" y="259.774437" transform="rotate(-0, 224.562486, 259.774437)">10000</text>
     </g>
    </g>
    <g id="xtick_7">
     <g id="line2d_7">
      <g>
       <use xlink:href="#m08c97cf40b" x="260.568616" y="245.176" style="stroke: #000000; stroke-width: 0.8"/>
      </g>
     </g>
     <g id="text_7">
      <text style="font: 10px 'sans-serif'; text-anchor: middle" x="260.568616" y="259.774437" transform="rotate(-0, 260.568616, 259.774437)">12000</text>
     </g>
    </g>
    <g id="text_8">
     <text style="font: 10px 'sans-serif'; text-anchor: middle" x="152.550227" y="273.452562" transform="rotate(-0, 152.550227, 273.452562)">Epoch</text>
    </g>
   </g>
   <g id="matplotlib.axis_2">
    <g id="ytick_1">
     <g id="line2d_8">
      <defs>
       <path id="mf2ecc3b857" d="M 0 0 
L -3.5 0 
" style="stroke: #000000; stroke-width: 0.8"/>
      </defs>
      <g>
       <use xlink:href="#mf2ecc3b857" x="33.73" y="239.01172" style="stroke: #000000; stroke-width: 0.8"/>
      </g>
     </g>
     <g id="text_9">
      <text style="font: 10px 'sans-serif'; text-anchor: end" x="26.73" y="242.810939" transform="rotate(-0, 26.73, 242.810939)">0.0</text>
     </g>
    </g>
    <g id="ytick_2">
     <g id="line2d_9">
      <g>
       <use xlink:href="#mf2ecc3b857" x="33.73" y="203.202237" style="stroke: #000000; stroke-width: 0.8"/>
      </g>
     </g>
     <g id="text_10">
      <text style="font: 10px 'sans-serif'; text-anchor: end" x="26.73" y="207.001456" transform="rotate(-0, 26.73, 207.001456)">0.2</text>
     </g>
    </g>
    <g id="ytick_3">
     <g id="line2d_10">
      <g>
       <use xlink:href="#mf2ecc3b857" x="33.73" y="167.392755" style="stroke: #000000; stroke-width: 0.8"/>
      </g>
     </g>
     <g id="text_11">
      <text style="font: 10px 'sans-serif'; text-anchor: end" x="26.73" y="171.191973" transform="rotate(-0, 26.73, 171.191973)">0.4</text>
     </g>
    </g>
    <g id="ytick_4">
     <g id="line2d_11">
      <g>
       <use xlink:href="#mf2ecc3b857" x="33.73" y="131.583272" style="stroke: #000000; stroke-width: 0.8"/>
      </g>
     </g>
     <g id="text_12">
      <text style="font: 10px 'sans-serif'; text-anchor: end" x="26.73" y="135.382491" transform="rotate(-0, 26.73, 135.382491)">0.6</text>
     </g>
    </g>
    <g id="ytick_5">
     <g id="line2d_12">
      <g>
       <use xlink:href="#mf2ecc3b857" x="33.73" y="95.773789" style="stroke: #000000; stroke-width: 0.8"/>
      </g>
     </g>
     <g id="text_13">
      <text style="font: 10px 'sans-serif'; text-anchor: end" x="26.73" y="99.573008" transform="rotate(-0, 26.73, 99.573008)">0.8</text>
     </g>
    </g>
    <g id="ytick_6">
     <g id="line2d_13">
      <g>
       <use xlink:href="#mf2ecc3b857" x="33.73" y="59.964306" style="stroke: #000000; stroke-width: 0.8"/>
      </g>
     </g>
     <g id="text_14">
      <text style="font: 10px 'sans-serif'; text-anchor: end" x="26.73" y="63.763525" transform="rotate(-0, 26.73, 63.763525)">1.0</text>
     </g>
    </g>
   </g>
   <g id="line2d_14">
    <path d="M 44.531839 49.661697 
L 45.431992 56.070489 
L 47.232299 56.282862 
L 48.132452 56.495171 
L 49.032605 56.931592 
L 49.932758 57.879612 
L 50.832912 59.623564 
L 56.233831 74.587282 
L 57.133984 77.63215 
L 58.934291 85.409329 
L 61.63475 97.889499 
L 66.135517 119.378944 
L 67.935823 126.995072 
L 69.736129 133.969073 
L 73.336742 146.928061 
L 76.037202 156.858474 
L 78.737662 167.666105 
L 80.537968 175.574371 
L 81.438122 178.478633 
L 87.739194 193.124719 
L 90.439654 198.802004 
L 93.140114 203.846913 
L 95.840573 208.222755 
L 97.64088 210.787218 
L 99.441186 213.092532 
L 102.141646 216.088372 
L 103.941952 217.819297 
L 106.642412 220.051322 
L 109.342872 221.910056 
L 112.043332 223.445162 
L 113.843638 224.328848 
L 116.544098 225.464418 
L 121.945017 227.220349 
L 127.345937 228.489271 
L 137.247622 230.066177 
L 146.249155 230.982783 
L 153.450381 231.559328 
L 168.752986 232.37211 
L 216.461107 233.713806 
L 224.562486 233.831 
L 227.262946 233.901146 
L 260.568616 234.232965 
L 260.568616 234.232965 
" clip-path="url(#p96ea98ba83)" style="fill: none; stroke: #1f77b4; stroke-width: 1.5; stroke-linecap: square"/>
   </g>
   <g id="line2d_15">
    <path d="M 44.531839 35.468993 
L 45.431992 43.350415 
L 47.232299 43.672847 
L 48.132452 44.220216 
L 49.032605 45.987213 
L 49.932758 50.063183 
L 50.832912 55.115012 
L 51.733065 59.508669 
L 54.433524 70.13699 
L 57.133984 84.696397 
L 58.034137 87.966913 
L 59.834444 93.925939 
L 61.63475 101.488305 
L 63.435057 110.895744 
L 65.235363 122.180443 
L 67.03567 135.32906 
L 71.536436 170.363 
L 73.336742 182.260771 
L 75.137049 192.109341 
L 76.937355 199.910735 
L 78.737662 206.043473 
L 80.537968 210.569753 
L 81.438122 212.393604 
L 84.138581 214.948246 
L 85.938888 216.422356 
L 88.639347 218.302995 
L 91.339807 219.899488 
L 94.94042 221.651477 
L 98.541033 223.104419 
L 102.141646 224.301532 
L 106.642412 225.559205 
L 112.043332 226.838217 
L 118.344404 228.10681 
L 126.445783 229.42806 
L 139.948082 231.023815 
L 152.550227 232.08882 
L 172.353598 233.243781 
L 191.256816 233.993471 
L 217.36126 234.574231 
L 234.464172 234.801285 
L 260.568616 235.027402 
L 260.568616 235.027402 
" clip-path="url(#p96ea98ba83)" style="fill: none; stroke: #ff7f0e; stroke-width: 1.5; stroke-linecap: square"/>
   </g>
   <g id="line2d_16">
    <path d="M 62.534904 245.176 
L 62.534904 25.44 
" clip-path="url(#p96ea98ba83)" style="fill: none; stroke-dasharray: 1.85,0.8; stroke-dashoffset: 0; stroke: #000000; stroke-width: 0.5"/>
   </g>
   <g id="line2d_17">
    <path d="M 80.537968 245.176 
L 80.537968 25.44 
" clip-path="url(#p96ea98ba83)" style="fill: none; stroke-dasharray: 1.85,0.8; stroke-dashoffset: 0; stroke: #000000; stroke-width: 0.5"/>
   </g>
   <g id="line2d_18">
    <path d="M 134.547163 245.176 
L 134.547163 25.44 
" clip-path="url(#p96ea98ba83)" style="fill: none; stroke-dasharray: 1.85,0.8; stroke-dashoffset: 0; stroke: #000000; stroke-width: 0.5"/>
   </g>
   <g id="patch_3">
    <path d="M 33.73 245.176 
L 33.73 25.44 
" style="fill: none; stroke: #000000; stroke-width: 0.8; stroke-linejoin: miter; stroke-linecap: square"/>
   </g>
   <g id="patch_4">
    <path d="M 271.370455 245.176 
L 271.370455 25.44 
" style="fill: none; stroke: #000000; stroke-width: 0.8; stroke-linejoin: miter; stroke-linecap: square"/>
   </g>
   <g id="patch_5">
    <path d="M 33.73 245.176 
L 271.370455 245.176 
" style="fill: none; stroke: #000000; stroke-width: 0.8; stroke-linejoin: miter; stroke-linecap: square"/>
   </g>
   <g id="patch_6">
    <path d="M 33.73 25.44 
L 271.370455 25.44 
" style="fill: none; stroke: #000000; stroke-width: 0.8; stroke-linejoin: miter; stroke-linecap: square"/>
   </g>
   <g id="text_15">
    <text style="font: 12px 'sans-serif'; text-anchor: middle" x="152.550227" y="19.44" transform="rotate(-0, 152.550227, 19.44)">Loss</text>
   </g>
   <g id="legend_1">
    <g id="patch_7">
     <path d="M 196.262642 62.79625 
L 264.370455 62.79625 
Q 266.370455 62.79625 266.370455 60.79625 
L 266.370455 32.44 
Q 266.370455 30.44 264.370455 30.44 
L 196.262642 30.44 
Q 194.262642 30.44 194.262642 32.44 
L 194.262642 60.79625 
Q 194.262642 62.79625 196.262642 62.79625 
z
" style="fill: #ffffff; opacity: 0.8; stroke: #cccccc; stroke-linejoin: miter"/>
    </g>
    <g id="line2d_19">
     <path d="M 198.262642 38.538437 
L 208.262642 38.538437 
L 218.262642 38.538437 
" style="fill: none; stroke: #1f77b4; stroke-width: 1.5; stroke-linecap: square"/>
    </g>
    <g id="text_16">
     <text style="font: 10px 'sans-serif'; text-anchor: start" x="226.262642" y="42.038437" transform="rotate(-0, 226.262642, 42.038437)">English</text>
    </g>
    <g id="line2d_20">
     <path d="M 198.262642 53.216562 
L 208.262642 53.216562 
L 218.262642 53.216562 
" style="fill: none; stroke: #ff7f0e; stroke-width: 1.5; stroke-linecap: square"/>
    </g>
    <g id="text_17">
     <text style="font: 10px 'sans-serif'; text-anchor: start" x="226.262642" y="56.716562" transform="rotate(-0, 226.262642, 56.716562)">French</text>
    </g>
   </g>
  </g>
  <g id="axes_2">
   <g id="patch_8">
    <path d="M 33.73 534.04 
L 271.370455 534.04 
L 271.370455 314.304 
L 33.73 314.304 
z
" style="fill: #ffffff"/>
   </g>
   <g id="PolyCollection_3">
    <path d="M 44.531839 524.017836 
L 44.531839 524.017836 
L 45.431992 524.017836 
L 46.332145 524.017836 
L 47.232299 524.017836 
L 48.132452 524.017836 
L 49.032605 524.017836 
L 49.932758 524.017836 
L 50.832912 524.017836 
L 51.733065 524.017836 
L 52.633218 524.019681 
L 53.533371 523.956635 
L 54.433524 523.558531 
L 55.333678 522.905823 
L 56.233831 522.193346 
L 57.133984 521.1773 
L 58.034137 519.583625 
L 58.934291 517.385141 
L 59.834444 514.869979 
L 60.734597 510.391943 
L 61.63475 505.801548 
L 62.534904 500.844942 
L 63.435057 495.097725 
L 64.33521 489.331113 
L 65.235363 484.060016 
L 66.135517 479.638038 
L 67.03567 475.458416 
L 67.935823 472.507763 
L 68.835976 469.267209 
L 69.736129 466.146235 
L 70.636283 463.949351 
L 71.536436 462.742512 
L 72.436589 461.004404 
L 73.336742 459.281345 
L 74.236896 456.740244 
L 75.137049 454.52769 
L 76.037202 451.424405 
L 76.937355 448.039915 
L 77.837509 443.71207 
L 78.737662 438.850619 
L 79.637815 432.246388 
L 80.537968 425.182714 
L 81.438122 419.443644 
L 82.338275 414.864579 
L 83.238428 410.096991 
L 84.138581 405.556506 
L 85.038735 400.68175 
L 85.938888 396.178901 
L 86.839041 391.707058 
L 87.739194 387.456835 
L 88.639347 383.712445 
L 89.539501 380.035067 
L 90.439654 376.456504 
L 91.339807 373.131399 
L 92.23996 369.395572 
L 93.140114 366.068829 
L 94.040267 363.52915 
L 94.94042 360.983143 
L 95.840573 357.753681 
L 96.740727 355.778245 
L 97.64088 353.620683 
L 98.541033 351.389043 
L 99.441186 349.844729 
L 100.34134 348.612858 
L 101.241493 346.904797 
L 102.141646 345.593639 
L 103.041799 344.101554 
L 103.941952 343.079425 
L 104.842106 341.906021 
L 105.742259 340.750707 
L 106.642412 339.785154 
L 107.542565 338.807898 
L 108.442719 337.872216 
L 109.342872 337.147251 
L 110.243025 336.293572 
L 111.143178 335.285586 
L 112.043332 334.787741 
L 112.943485 334.196042 
L 113.843638 333.670387 
L 114.743791 333.226831 
L 115.643945 332.78727 
L 116.544098 332.231047 
L 117.444251 331.956943 
L 118.344404 331.492927 
L 119.244558 331.21174 
L 120.144711 330.772528 
L 121.044864 330.521287 
L 121.945017 330.241982 
L 122.84517 329.859963 
L 123.745324 329.790018 
L 124.645477 329.792066 
L 125.54563 329.502003 
L 126.445783 329.299222 
L 127.345937 329.127185 
L 128.24609 328.824555 
L 129.146243 328.938596 
L 130.046396 328.459412 
L 130.94655 328.467695 
L 131.846703 328.436641 
L 132.746856 328.208121 
L 133.647009 327.965617 
L 134.547163 327.931524 
L 135.447316 327.860235 
L 136.347469 327.783084 
L 137.247622 327.582487 
L 138.147775 327.548736 
L 139.047929 327.510466 
L 139.948082 327.345284 
L 140.848235 327.362216 
L 141.748388 327.30606 
L 142.648542 327.19235 
L 143.548695 327.176953 
L 144.448848 327.133556 
L 145.349001 327.031262 
L 146.249155 326.969485 
L 147.149308 327.021921 
L 148.049461 326.892603 
L 148.949614 326.842538 
L 149.849768 326.83471 
L 150.749921 326.772887 
L 151.650074 326.791983 
L 152.550227 326.730595 
L 153.450381 326.777928 
L 154.350534 326.654783 
L 155.250687 326.650623 
L 156.15084 326.588471 
L 157.050993 326.573338 
L 157.951147 326.522242 
L 158.8513 326.591354 
L 159.751453 326.522929 
L 160.651606 326.522755 
L 161.55176 326.500989 
L 162.451913 326.50325 
L 163.352066 326.542581 
L 164.252219 326.504097 
L 165.152373 326.465463 
L 166.052526 326.443301 
L 166.952679 326.498691 
L 167.852832 326.462899 
L 168.752986 326.395357 
L 169.653139 326.370254 
L 170.553292 326.417901 
L 171.453445 326.353014 
L 172.353598 326.350416 
L 173.253752 326.28895 
L 174.153905 326.393419 
L 175.054058 326.334705 
L 175.954211 326.357467 
L 176.854365 326.286992 
L 177.754518 326.244974 
L 178.654671 326.245249 
L 179.554824 326.265296 
L 180.454978 326.220585 
L 181.355131 326.240779 
L 182.255284 326.24444 
L 183.155437 326.243787 
L 184.055591 326.220588 
L 184.955744 326.247167 
L 185.855897 326.205948 
L 186.75605 326.205383 
L 187.656204 326.162121 
L 188.556357 326.249223 
L 189.45651 326.227279 
L 190.356663 326.227846 
L 191.256816 326.206516 
L 192.15697 326.206513 
L 193.057123 326.225403 
L 193.957276 326.227846 
L 194.857429 326.207266 
L 195.757583 326.205858 
L 196.657736 326.164387 
L 197.557889 326.20416 
L 198.458042 326.138865 
L 199.358196 326.113232 
L 200.258349 326.17555 
L 201.158502 326.13773 
L 202.058655 326.095298 
L 202.958809 326.096348 
L 203.858962 326.076758 
L 204.759115 326.116774 
L 205.659268 326.03409 
L 206.559421 326.07971 
L 207.459575 326.036986 
L 208.359728 326.035263 
L 209.259881 326.035933 
L 210.160034 326.042599 
L 211.060188 326.01681 
L 211.960341 325.990326 
L 212.860494 326.008553 
L 213.760647 325.966512 
L 214.660801 325.967188 
L 215.560954 325.946157 
L 216.461107 325.939358 
L 217.36126 325.992922 
L 218.261414 325.919108 
L 219.161567 325.967764 
L 220.06172 325.915322 
L 220.961873 325.965162 
L 221.862027 325.926151 
L 222.76218 325.905915 
L 223.662333 325.904658 
L 224.562486 325.882529 
L 225.462639 325.882626 
L 226.362793 325.903098 
L 227.262946 325.881463 
L 228.163099 325.899311 
L 229.063252 325.882529 
L 229.963406 325.861711 
L 230.863559 325.820951 
L 231.763712 325.864066 
L 232.663865 325.864066 
L 233.564019 325.864748 
L 234.464172 325.862216 
L 235.364325 325.841949 
L 236.264478 325.861533 
L 237.164632 325.863966 
L 238.064785 325.865431 
L 238.964938 325.863966 
L 239.865091 325.864163 
L 240.765244 325.864748 
L 241.665398 325.862898 
L 242.565551 325.841365 
L 243.465704 325.864648 
L 244.365857 325.862216 
L 245.266011 325.862898 
L 246.166164 325.862116 
L 247.066317 325.843119 
L 247.96647 325.864066 
L 248.866624 325.863966 
L 249.766777 325.842535 
L 250.66693 325.819194 
L 251.567083 325.841267 
L 252.467237 325.840583 
L 253.36739 325.841952 
L 254.267543 325.81309 
L 255.167696 325.841466 
L 256.06785 325.841365 
L 256.968003 325.819095 
L 257.868156 325.817922 
L 258.768309 325.817922 
L 259.668462 325.799258 
L 260.568616 325.778172 
L 260.568616 324.965372 
L 260.568616 324.965372 
L 259.668462 324.980528 
L 258.768309 325.000302 
L 257.868156 325.000302 
L 256.968003 325.001326 
L 256.06785 325.017494 
L 255.167696 325.017393 
L 254.267543 325.009527 
L 253.36739 325.018005 
L 252.467237 325.017178 
L 251.567083 325.017592 
L 250.66693 325.001227 
L 249.766777 325.01852 
L 248.866624 325.03443 
L 247.96647 325.03433 
L 247.066317 325.019034 
L 246.166164 325.032986 
L 245.266011 325.033301 
L 244.365857 325.032885 
L 243.465704 325.034845 
L 242.565551 325.017494 
L 241.665398 325.033301 
L 240.765244 325.034745 
L 239.865091 325.034232 
L 238.964938 325.03443 
L 238.064785 325.035161 
L 237.164632 325.03443 
L 236.264478 325.03247 
L 235.364325 325.018008 
L 234.464172 325.032885 
L 233.564019 325.034745 
L 232.663865 325.03433 
L 231.763712 325.03433 
L 230.863559 325.002764 
L 229.963406 325.038881 
L 229.063252 325.054305 
L 228.163099 325.072666 
L 227.262946 325.053174 
L 226.362793 325.075468 
L 225.462639 325.054207 
L 224.562486 325.054305 
L 223.662333 325.070614 
L 222.76218 325.071553 
L 221.862027 325.086462 
L 220.961873 325.122131 
L 220.06172 325.097289 
L 219.161567 325.12392 
L 218.261414 325.100092 
L 217.36126 325.137201 
L 216.461107 325.114986 
L 215.560954 325.108188 
L 214.660801 325.123399 
L 213.760647 325.122976 
L 212.860494 325.161106 
L 211.960341 325.135405 
L 211.060188 325.149554 
L 210.160034 325.163302 
L 209.259881 325.169968 
L 208.359728 325.169539 
L 207.459575 325.171111 
L 206.559421 325.204165 
L 205.659268 325.175104 
L 204.759115 325.245076 
L 203.858962 325.208215 
L 202.958809 325.22926 
L 202.058655 325.228113 
L 201.158502 325.261461 
L 200.258349 325.297223 
L 199.358196 325.248617 
L 198.458042 325.26252 
L 197.557889 325.308149 
L 196.657736 325.276536 
L 195.757583 325.309746 
L 194.857429 325.310534 
L 193.957276 325.327294 
L 193.057123 325.325345 
L 192.15697 325.310188 
L 191.256816 325.310186 
L 190.356663 325.327294 
L 189.45651 325.326762 
L 188.556357 325.344355 
L 187.656204 325.275507 
L 186.75605 325.309122 
L 185.855897 325.309655 
L 184.955744 325.343116 
L 184.055591 325.333453 
L 183.155437 325.351987 
L 182.255284 325.352431 
L 181.355131 325.349504 
L 180.454978 325.333456 
L 179.554824 325.363426 
L 178.654671 325.34723 
L 177.754518 325.347505 
L 176.854365 325.381266 
L 175.954211 325.432694 
L 175.054058 325.413723 
L 174.153905 325.468128 
L 173.253752 325.382602 
L 172.353598 325.433156 
L 171.453445 325.434951 
L 170.553292 325.483182 
L 169.653139 325.45505 
L 168.752986 325.469484 
L 167.852832 325.51506 
L 166.952679 325.556145 
L 166.052526 325.498417 
L 165.152373 325.516888 
L 164.252219 325.549641 
L 163.352066 325.588034 
L 162.451913 325.554881 
L 161.55176 325.55824 
L 160.651606 325.571617 
L 159.751453 325.571442 
L 158.8513 325.623823 
L 157.951147 325.576522 
L 157.050993 325.59791 
L 156.15084 325.622313 
L 155.250687 325.675477 
L 154.350534 325.707558 
L 153.450381 325.776604 
L 152.550227 325.745962 
L 151.650074 325.80538 
L 150.749921 325.788234 
L 149.849768 325.83843 
L 148.949614 325.867942 
L 148.049461 325.895851 
L 147.149308 325.997164 
L 146.249155 325.933186 
L 145.349001 325.990018 
L 144.448848 326.079915 
L 143.548695 326.110102 
L 142.648542 326.135339 
L 141.748388 326.217116 
L 140.848235 326.271882 
L 139.948082 326.250375 
L 139.047929 326.395993 
L 138.147775 326.434598 
L 137.247622 326.477725 
L 136.347469 326.62417 
L 135.447316 326.698577 
L 134.547163 326.783237 
L 133.647009 326.793071 
L 132.746856 326.895415 
L 131.846703 327.123761 
L 130.94655 327.17178 
L 130.046396 327.14382 
L 129.146243 327.432305 
L 128.24609 327.357448 
L 127.345937 327.591858 
L 126.445783 327.727328 
L 125.54563 327.907832 
L 124.645477 328.158101 
L 123.745324 328.163445 
L 122.84517 328.21101 
L 121.945017 328.481345 
L 121.044864 328.664395 
L 120.144711 328.877711 
L 119.244558 329.202873 
L 118.344404 329.462017 
L 117.444251 329.811796 
L 116.544098 330.035196 
L 115.643945 330.51571 
L 114.743791 330.965721 
L 113.843638 331.364512 
L 112.943485 331.878889 
L 112.043332 332.407392 
L 111.143178 332.868311 
L 110.243025 333.586754 
L 109.342872 334.234368 
L 108.442719 334.934916 
L 107.542565 335.692721 
L 106.642412 336.3738 
L 105.742259 337.259878 
L 104.842106 338.105553 
L 103.941952 338.972675 
L 103.041799 339.838417 
L 102.141646 340.965629 
L 101.241493 342.080482 
L 100.34134 343.489219 
L 99.441186 344.528505 
L 98.541033 345.875857 
L 97.64088 347.492445 
L 96.740727 349.296226 
L 95.840573 350.864804 
L 94.94042 353.637217 
L 94.040267 355.848777 
L 93.140114 358.079845 
L 92.23996 360.823068 
L 91.339807 364.079721 
L 90.439654 367.181513 
L 89.539501 370.514161 
L 88.639347 373.994005 
L 87.739194 377.69457 
L 86.839041 381.820614 
L 85.938888 386.298315 
L 85.038735 390.567096 
L 84.138581 395.218464 
L 83.238428 399.904277 
L 82.338275 404.661715 
L 81.438122 409.413281 
L 80.537968 415.413279 
L 79.637815 423.260937 
L 78.737662 430.546677 
L 77.837509 436.588535 
L 76.937355 442.210763 
L 76.037202 446.636399 
L 75.137049 450.764465 
L 74.236896 453.891549 
L 73.336742 456.574768 
L 72.436589 458.599476 
L 71.536436 460.208832 
L 70.636283 461.306166 
L 69.736129 463.287753 
L 68.835976 466.056858 
L 67.935823 468.896378 
L 67.03567 471.375801 
L 66.135517 475.254729 
L 65.235363 478.928544 
L 64.33521 484.156768 
L 63.435057 490.058452 
L 62.534904 495.973881 
L 61.63475 501.564077 
L 60.734597 506.820685 
L 59.834444 512.005368 
L 58.934291 515.197174 
L 58.034137 517.995676 
L 57.133984 519.998246 
L 56.233831 521.20032 
L 55.333678 522.064947 
L 54.433524 523.005173 
L 53.533371 523.718393 
L 52.633218 523.922155 
L 51.733065 524.017836 
L 50.832912 524.017836 
L 49.932758 524.017836 
L 49.032605 524.017836 
L 48.132452 524.017836 
L 47.232299 524.017836 
L 46.332145 524.017836 
L 45.431992 524.017836 
L 44.531839 524.017836 
z
" clip-path="url(#p01978e3da5)" style="fill: #1f77b4; fill-opacity: 0.3"/>
   </g>
   <g id="PolyCollection_4">
    <path d="M 44.531839 524.017836 
L 44.531839 524.017836 
L 45.431992 524.017836 
L 46.332145 524.017836 
L 47.232299 524.017836 
L 48.132452 524.017836 
L 49.032605 524.017836 
L 49.932758 524.052 
L 50.832912 523.815841 
L 51.733065 522.838017 
L 52.633218 521.503399 
L 53.533371 520.189817 
L 54.433524 519.302525 
L 55.333678 518.500877 
L 56.233831 517.367322 
L 57.133984 516.060058 
L 58.034137 514.127005 
L 58.934291 512.440429 
L 59.834444 511.180628 
L 60.734597 509.992407 
L 61.63475 508.359225 
L 62.534904 506.37507 
L 63.435057 503.813831 
L 64.33521 500.477871 
L 65.235363 495.685475 
L 66.135517 488.92769 
L 67.03567 478.745699 
L 67.935823 467.687168 
L 68.835976 454.289624 
L 69.736129 442.230409 
L 70.636283 429.355516 
L 71.536436 416.903638 
L 72.436589 405.60731 
L 73.336742 395.103503 
L 74.236896 385.968386 
L 75.137049 377.654905 
L 76.037202 370.132397 
L 76.937355 363.915025 
L 77.837509 358.644656 
L 78.737662 353.918841 
L 79.637815 350.457523 
L 80.537968 347.100929 
L 81.438122 344.763318 
L 82.338275 343.383508 
L 83.238428 342.638517 
L 84.138581 341.342793 
L 85.038735 340.337285 
L 85.938888 339.491471 
L 86.839041 338.364682 
L 87.739194 337.68151 
L 88.639347 336.928836 
L 89.539501 336.441914 
L 90.439654 335.903581 
L 91.339807 335.25432 
L 92.23996 334.608791 
L 93.140114 334.281917 
L 94.040267 333.744847 
L 94.94042 333.337957 
L 95.840573 333.069483 
L 96.740727 332.870431 
L 97.64088 332.581373 
L 98.541033 332.140273 
L 99.441186 331.807737 
L 100.34134 331.51416 
L 101.241493 331.349896 
L 102.141646 330.871493 
L 103.041799 330.808421 
L 103.941952 330.576135 
L 104.842106 330.268385 
L 105.742259 330.223964 
L 106.642412 330.004808 
L 107.542565 329.71611 
L 108.442719 329.540173 
L 109.342872 329.330374 
L 110.243025 329.153134 
L 111.143178 329.023143 
L 112.043332 328.642598 
L 112.943485 328.595334 
L 113.843638 328.245418 
L 114.743791 328.191862 
L 115.643945 328.045762 
L 116.544098 327.872471 
L 117.444251 327.741559 
L 118.344404 327.646304 
L 119.244558 327.535184 
L 120.144711 327.378501 
L 121.044864 327.226756 
L 121.945017 327.01313 
L 122.84517 326.919446 
L 123.745324 326.79419 
L 124.645477 326.717489 
L 125.54563 326.463857 
L 126.445783 326.404446 
L 127.345937 326.365909 
L 128.24609 326.28669 
L 129.146243 326.203212 
L 130.046396 326.206058 
L 130.94655 326.136026 
L 131.846703 326.05431 
L 132.746856 325.895927 
L 133.647009 325.875278 
L 134.547163 325.841941 
L 135.447316 325.799356 
L 136.347469 325.784489 
L 137.247622 325.659312 
L 138.147775 325.616215 
L 139.047929 325.54441 
L 139.948082 325.543959 
L 140.848235 325.498903 
L 141.748388 325.454603 
L 142.648542 325.415122 
L 143.548695 325.392051 
L 144.448848 325.371929 
L 145.349001 325.408766 
L 146.249155 325.330344 
L 147.149308 325.316773 
L 148.049461 325.245813 
L 148.949614 325.246078 
L 149.849768 325.164665 
L 150.749921 325.125535 
L 151.650074 325.146994 
L 152.550227 325.105772 
L 153.450381 325.139891 
L 154.350534 325.100927 
L 155.250687 325.139986 
L 156.15084 325.062809 
L 157.050993 325.075365 
L 157.951147 325.03395 
L 158.8513 325.068551 
L 159.751453 324.991711 
L 160.651606 324.996165 
L 161.55176 324.973256 
L 162.451913 324.971403 
L 163.352066 324.994511 
L 164.252219 324.991354 
L 165.152373 324.967949 
L 166.052526 324.948938 
L 166.952679 324.946078 
L 167.852832 324.946514 
L 168.752986 324.907233 
L 169.653139 324.90709 
L 170.553292 324.904817 
L 171.453445 324.886648 
L 172.353598 324.865835 
L 173.253752 324.827574 
L 174.153905 324.825967 
L 175.054058 324.825684 
L 175.954211 324.81922 
L 176.854365 324.727822 
L 177.754518 324.746495 
L 178.654671 324.747167 
L 179.554824 324.727822 
L 180.454978 324.746707 
L 181.355131 324.725577 
L 182.255284 324.726253 
L 183.155437 324.726033 
L 184.055591 324.725565 
L 184.955744 324.724199 
L 185.855897 324.706575 
L 186.75605 324.723989 
L 187.656204 324.723534 
L 188.556357 324.722419 
L 189.45651 324.721753 
L 190.356663 324.69603 
L 191.256816 324.677069 
L 192.15697 324.695581 
L 193.057123 324.676387 
L 193.957276 324.674103 
L 194.857429 324.633995 
L 195.757583 324.634694 
L 196.657736 324.634455 
L 197.557889 324.614695 
L 198.458042 324.613997 
L 199.358196 324.613997 
L 200.258349 324.613536 
L 201.158502 324.612383 
L 202.058655 324.612383 
L 202.958809 324.612383 
L 203.858962 324.612383 
L 204.759115 324.612383 
L 205.659268 324.612383 
L 206.559421 324.612383 
L 207.459575 324.612383 
L 208.359728 324.612383 
L 209.259881 324.612383 
L 210.160034 324.612383 
L 211.060188 324.612383 
L 211.960341 324.612383 
L 212.860494 324.611685 
L 213.760647 324.611685 
L 214.660801 324.611685 
L 215.560954 324.611685 
L 216.461107 324.611685 
L 217.36126 324.611685 
L 218.261414 324.611685 
L 219.161567 324.611223 
L 220.06172 324.611685 
L 220.961873 324.610761 
L 221.862027 324.611223 
L 222.76218 324.610761 
L 223.662333 324.610761 
L 224.562486 324.610761 
L 225.462639 324.610761 
L 226.362793 324.610292 
L 227.262946 324.610292 
L 228.163099 324.610292 
L 229.063252 324.610292 
L 229.963406 324.610761 
L 230.863559 324.610292 
L 231.763712 324.60983 
L 232.663865 324.60983 
L 233.564019 324.610292 
L 234.464172 324.610292 
L 235.364325 324.610292 
L 236.264478 324.609367 
L 237.164632 324.58899 
L 238.064785 324.58899 
L 238.964938 324.58899 
L 239.865091 324.58899 
L 240.765244 324.58899 
L 241.665398 324.58899 
L 242.565551 324.58899 
L 243.465704 324.58899 
L 244.365857 324.58899 
L 245.266011 324.588527 
L 246.166164 324.588527 
L 247.066317 324.588527 
L 247.96647 324.588527 
L 248.866624 324.588527 
L 249.766777 324.588527 
L 250.66693 324.588527 
L 251.567083 324.588056 
L 252.467237 324.588527 
L 253.36739 324.588056 
L 254.267543 324.588056 
L 255.167696 324.588527 
L 256.06785 324.588056 
L 256.968003 324.588527 
L 257.868156 324.588527 
L 258.768309 324.588056 
L 259.668462 324.588527 
L 260.568616 324.588056 
L 260.568616 324.292 
L 260.568616 324.292 
L 259.668462 324.292531 
L 258.768309 324.292 
L 257.868156 324.292531 
L 256.968003 324.292531 
L 256.06785 324.292 
L 255.167696 324.292531 
L 254.267543 324.292 
L 253.36739 324.292 
L 252.467237 324.292531 
L 251.567083 324.292 
L 250.66693 324.292531 
L 249.766777 324.292531 
L 248.866624 324.292531 
L 247.96647 324.292531 
L 247.066317 324.292531 
L 246.166164 324.292531 
L 245.266011 324.292531 
L 244.365857 324.293069 
L 243.465704 324.293069 
L 242.565551 324.293069 
L 241.665398 324.293069 
L 240.765244 324.293069 
L 239.865091 324.293069 
L 238.964938 324.293069 
L 238.064785 324.293069 
L 237.164632 324.293069 
L 236.264478 324.307759 
L 235.364325 324.308838 
L 234.464172 324.308838 
L 233.564019 324.308838 
L 232.663865 324.308298 
L 231.763712 324.308298 
L 230.863559 324.308838 
L 229.963406 324.309371 
L 229.063252 324.308838 
L 228.163099 324.308838 
L 227.262946 324.308838 
L 226.362793 324.308838 
L 225.462639 324.309371 
L 224.562486 324.309371 
L 223.662333 324.309371 
L 222.76218 324.309371 
L 221.862027 324.309911 
L 220.961873 324.309371 
L 220.06172 324.31045 
L 219.161567 324.309911 
L 218.261414 324.31045 
L 217.36126 324.31045 
L 216.461107 324.31045 
L 215.560954 324.31045 
L 214.660801 324.31045 
L 213.760647 324.31045 
L 212.860494 324.31045 
L 211.960341 324.310754 
L 211.060188 324.310754 
L 210.160034 324.310754 
L 209.259881 324.310754 
L 208.359728 324.310754 
L 207.459575 324.310754 
L 206.559421 324.310754 
L 205.659268 324.310754 
L 204.759115 324.310754 
L 203.858962 324.310754 
L 202.958809 324.310754 
L 202.058655 324.310754 
L 201.158502 324.310754 
L 200.258349 324.311605 
L 199.358196 324.312145 
L 198.458042 324.312145 
L 197.557889 324.31245 
L 196.657736 324.327755 
L 195.757583 324.327517 
L 194.857429 324.327213 
L 193.957276 324.35824 
L 193.057123 324.359964 
L 192.15697 324.374835 
L 191.256816 324.360285 
L 190.356663 324.375387 
L 189.45651 324.382727 
L 188.556357 324.383063 
L 187.656204 324.383952 
L 186.75605 324.384498 
L 185.855897 324.370853 
L 184.955744 324.384289 
L 184.055591 324.385928 
L 183.155437 324.386463 
L 182.255284 324.386242 
L 181.355131 324.385916 
L 180.454978 324.402857 
L 179.554824 324.387678 
L 178.654671 324.4034 
L 177.754518 324.40307 
L 176.854365 324.387678 
L 175.954211 324.439551 
L 175.054058 324.433088 
L 174.153905 324.433807 
L 173.253752 324.434203 
L 172.353598 324.434014 
L 171.453445 324.452274 
L 170.553292 324.467169 
L 169.653139 324.469905 
L 168.752986 324.46976 
L 167.852832 324.505622 
L 166.952679 324.504054 
L 166.052526 324.507204 
L 165.152373 324.524262 
L 164.252219 324.535923 
L 163.352066 324.538777 
L 162.451913 324.52782 
L 161.55176 324.526969 
L 160.651606 324.540129 
L 159.751453 324.545585 
L 158.8513 324.57695 
L 157.951147 324.544425 
L 157.050993 324.574144 
L 156.15084 324.562655 
L 155.250687 324.623739 
L 154.350534 324.597675 
L 153.450381 324.624835 
L 152.550227 324.600847 
L 151.650074 324.631761 
L 150.749921 324.621158 
L 149.849768 324.658175 
L 148.949614 324.717027 
L 148.049461 324.717293 
L 147.149308 324.759548 
L 146.249155 324.781042 
L 145.349001 324.8499 
L 144.448848 324.822618 
L 143.548695 324.842571 
L 142.648542 324.857572 
L 141.748388 324.889226 
L 140.848235 324.919068 
L 139.948082 324.956168 
L 139.047929 324.955719 
L 138.147775 325.030191 
L 137.247622 325.067248 
L 136.347469 325.160485 
L 135.447316 325.159144 
L 134.547163 325.17517 
L 133.647009 325.198442 
L 132.746856 325.242417 
L 131.846703 325.349036 
L 130.94655 325.4136 
L 130.046396 325.448767 
L 129.146243 325.498704 
L 128.24609 325.553486 
L 127.345937 325.617542 
L 126.445783 325.694224 
L 125.54563 325.710958 
L 124.645477 325.945252 
L 123.745324 325.983771 
L 122.84517 326.108992 
L 121.945017 326.162587 
L 121.044864 326.335694 
L 120.144711 326.504558 
L 119.244558 326.630412 
L 118.344404 326.771772 
L 117.444251 326.860869 
L 116.544098 326.948369 
L 115.643945 327.082164 
L 114.743791 327.201066 
L 113.843638 327.225658 
L 112.943485 327.508944 
L 112.043332 327.575898 
L 111.143178 327.902696 
L 110.243025 327.99012 
L 109.342872 328.205623 
L 108.442719 328.380555 
L 107.542565 328.527231 
L 106.642412 328.787073 
L 105.742259 328.977191 
L 104.842106 329.059512 
L 103.941952 329.339376 
L 103.041799 329.525384 
L 102.141646 329.689244 
L 101.241493 329.986308 
L 100.34134 330.184733 
L 99.441186 330.490293 
L 98.541033 330.795969 
L 97.64088 331.124329 
L 96.740727 331.443425 
L 95.840573 331.634114 
L 94.94042 331.867592 
L 94.040267 332.207118 
L 93.140114 332.679465 
L 92.23996 332.991803 
L 91.339807 333.470409 
L 90.439654 333.955325 
L 89.539501 334.354302 
L 88.639347 334.815182 
L 87.739194 335.374023 
L 86.839041 335.962264 
L 85.938888 336.815232 
L 85.038735 337.417166 
L 84.138581 338.316277 
L 83.238428 339.307954 
L 82.338275 339.875483 
L 81.438122 340.877693 
L 80.537968 343.132832 
L 79.637815 345.531187 
L 78.737662 348.417983 
L 77.837509 352.436788 
L 76.937355 356.95901 
L 76.037202 362.591227 
L 75.137049 369.183887 
L 74.236896 376.618939 
L 73.336742 384.897316 
L 72.436589 394.56129 
L 71.536436 405.613909 
L 70.636283 417.966733 
L 69.736129 431.39526 
L 68.835976 443.83307 
L 67.935823 457.976242 
L 67.03567 470.315352 
L 66.135517 482.078337 
L 65.235363 490.465236 
L 64.33521 496.573321 
L 63.435057 500.83036 
L 62.534904 504.069982 
L 61.63475 506.741993 
L 60.734597 508.663674 
L 59.834444 509.882962 
L 58.934291 511.084096 
L 58.034137 512.817276 
L 57.133984 514.683347 
L 56.233831 516.096066 
L 55.333678 517.397601 
L 54.433524 518.198729 
L 53.533371 519.094588 
L 52.633218 520.362468 
L 51.733065 521.892967 
L 50.832912 523.281284 
L 49.932758 523.913538 
L 49.032605 524.017836 
L 48.132452 524.017836 
L 47.232299 524.017836 
L 46.332145 524.017836 
L 45.431992 524.017836 
L 44.531839 524.017836 
z
" clip-path="url(#p01978e3da5)" style="fill: #ff7f0e; fill-opacity: 0.3"/>
   </g>
   <g id="matplotlib.axis_3">
    <g id="xtick_8">
     <g id="line2d_21">
      <g>
       <use xlink:href="#m08c97cf40b" x="44.531839" y="534.04" style="stroke: #000000; stroke-width: 0.8"/>
      </g>
     </g>
     <g id="text_18">
      <text style="font: 10px 'sans-serif'; text-anchor: middle" x="44.531839" y="548.638438" transform="rotate(-0, 44.531839, 548.638438)">0</text>
     </g>
    </g>
    <g id="xtick_9">
     <g id="line2d_22">
      <g>
       <use xlink:href="#m08c97cf40b" x="80.537968" y="534.04" style="stroke: #000000; stroke-width: 0.8"/>
      </g>
     </g>
     <g id="text_19">
      <text style="font: 10px 'sans-serif'; text-anchor: middle" x="80.537968" y="548.638438" transform="rotate(-0, 80.537968, 548.638438)">2000</text>
     </g>
    </g>
    <g id="xtick_10">
     <g id="line2d_23">
      <g>
       <use xlink:href="#m08c97cf40b" x="116.544098" y="534.04" style="stroke: #000000; stroke-width: 0.8"/>
      </g>
     </g>
     <g id="text_20">
      <text style="font: 10px 'sans-serif'; text-anchor: middle" x="116.544098" y="548.638438" transform="rotate(-0, 116.544098, 548.638438)">4000</text>
     </g>
    </g>
    <g id="xtick_11">
     <g id="line2d_24">
      <g>
       <use xlink:href="#m08c97cf40b" x="152.550227" y="534.04" style="stroke: #000000; stroke-width: 0.8"/>
      </g>
     </g>
     <g id="text_21">
      <text style="font: 10px 'sans-serif'; text-anchor: middle" x="152.550227" y="548.638438" transform="rotate(-0, 152.550227, 548.638438)">6000</text>
     </g>
    </g>
    <g id="xtick_12">
     <g id="line2d_25">
      <g>
       <use xlink:href="#m08c97cf40b" x="188.556357" y="534.04" style="stroke: #000000; stroke-width: 0.8"/>
      </g>
     </g>
     <g id="text_22">
      <text style="font: 10px 'sans-serif'; text-anchor: middle" x="188.556357" y="548.638438" transform="rotate(-0, 188.556357, 548.638438)">8000</text>
     </g>
    </g>
    <g id="xtick_13">
     <g id="line2d_26">
      <g>
       <use xlink:href="#m08c97cf40b" x="224.562486" y="534.04" style="stroke: #000000; stroke-width: 0.8"/>
      </g>
     </g>
     <g id="text_23">
      <text style="font: 10px 'sans-serif'; text-anchor: middle" x="224.562486" y="548.638438" transform="rotate(-0, 224.562486, 548.638438)">10000</text>
     </g>
    </g>
    <g id="xtick_14">
     <g id="line2d_27">
      <g>
       <use xlink:href="#m08c97cf40b" x="260.568616" y="534.04" style="stroke: #000000; stroke-width: 0.8"/>
      </g>
     </g>
     <g id="text_24">
      <text style="font: 10px 'sans-serif'; text-anchor: middle" x="260.568616" y="548.638438" transform="rotate(-0, 260.568616, 548.638438)">12000</text>
     </g>
    </g>
    <g id="text_25">
     <text style="font: 10px 'sans-serif'; text-anchor: middle" x="152.550227" y="562.316563" transform="rotate(-0, 152.550227, 562.316563)">Epoch</text>
    </g>
   </g>
   <g id="matplotlib.axis_4">
    <g id="ytick_7">
     <g id="line2d_28">
      <g>
       <use xlink:href="#mf2ecc3b857" x="33.73" y="524.017836" style="stroke: #000000; stroke-width: 0.8"/>
      </g>
     </g>
     <g id="text_26">
      <text style="font: 10px 'sans-serif'; text-anchor: end" x="26.73" y="527.817054" transform="rotate(-0, 26.73, 527.817054)">0.5</text>
     </g>
    </g>
    <g id="ytick_8">
     <g id="line2d_29">
      <g>
       <use xlink:href="#mf2ecc3b857" x="33.73" y="484.04196" style="stroke: #000000; stroke-width: 0.8"/>
      </g>
     </g>
     <g id="text_27">
      <text style="font: 10px 'sans-serif'; text-anchor: end" x="26.73" y="487.841179" transform="rotate(-0, 26.73, 487.841179)">0.6</text>
     </g>
    </g>
    <g id="ytick_9">
     <g id="line2d_30">
      <g>
       <use xlink:href="#mf2ecc3b857" x="33.73" y="444.066084" style="stroke: #000000; stroke-width: 0.8"/>
      </g>
     </g>
     <g id="text_28">
      <text style="font: 10px 'sans-serif'; text-anchor: end" x="26.73" y="447.865303" transform="rotate(-0, 26.73, 447.865303)">0.7</text>
     </g>
    </g>
    <g id="ytick_10">
     <g id="line2d_31">
      <g>
       <use xlink:href="#mf2ecc3b857" x="33.73" y="404.090209" style="stroke: #000000; stroke-width: 0.8"/>
      </g>
     </g>
     <g id="text_29">
      <text style="font: 10px 'sans-serif'; text-anchor: end" x="26.73" y="407.889427" transform="rotate(-0, 26.73, 407.889427)">0.8</text>
     </g>
    </g>
    <g id="ytick_11">
     <g id="line2d_32">
      <g>
       <use xlink:href="#mf2ecc3b857" x="33.73" y="364.114333" style="stroke: #000000; stroke-width: 0.8"/>
      </g>
     </g>
     <g id="text_30">
      <text style="font: 10px 'sans-serif'; text-anchor: end" x="26.73" y="367.913552" transform="rotate(-0, 26.73, 367.913552)">0.9</text>
     </g>
    </g>
    <g id="ytick_12">
     <g id="line2d_33">
      <g>
       <use xlink:href="#mf2ecc3b857" x="33.73" y="324.138457" style="stroke: #000000; stroke-width: 0.8"/>
      </g>
     </g>
     <g id="text_31">
      <text style="font: 10px 'sans-serif'; text-anchor: end" x="26.73" y="327.937676" transform="rotate(-0, 26.73, 327.937676)">1.0</text>
     </g>
    </g>
   </g>
   <g id="line2d_34">
    <path d="M 44.531839 524.017836 
L 52.633218 523.970918 
L 53.533371 523.837514 
L 54.433524 523.281852 
L 56.233831 521.696833 
L 57.133984 520.587773 
L 58.034137 518.789651 
L 58.934291 516.291157 
L 59.834444 513.437674 
L 62.534904 498.409412 
L 65.235363 481.49428 
L 67.03567 473.417108 
L 68.835976 467.662034 
L 69.736129 464.716994 
L 70.636283 462.627758 
L 71.536436 461.475672 
L 73.336742 457.928056 
L 75.137049 452.646078 
L 76.937355 445.125339 
L 78.737662 434.698648 
L 81.438122 414.428462 
L 86.839041 386.763836 
L 88.639347 378.853225 
L 90.439654 371.819008 
L 93.140114 362.074337 
L 94.94042 357.31018 
L 95.840573 354.309242 
L 97.64088 350.556564 
L 98.541033 348.63245 
L 99.441186 347.186617 
L 100.34134 346.051039 
L 101.241493 344.492639 
L 103.941952 341.02605 
L 106.642412 338.079477 
L 109.342872 335.690809 
L 111.143178 334.076948 
L 116.544098 331.133122 
L 117.444251 330.88437 
L 118.344404 330.477472 
L 122.84517 329.035486 
L 124.645477 328.975083 
L 126.445783 328.513275 
L 127.345937 328.359521 
L 128.24609 328.091002 
L 129.146243 328.18545 
L 130.046396 327.801616 
L 131.846703 327.780201 
L 133.647009 327.379344 
L 136.347469 327.203627 
L 137.247622 327.030106 
L 139.047929 326.95323 
L 139.948082 326.797829 
L 141.748388 326.761588 
L 143.548695 326.643528 
L 160.651606 326.047186 
L 173.253752 325.835776 
L 174.153905 325.930774 
L 177.754518 325.79624 
L 198.458042 325.700693 
L 203.858962 325.642487 
L 204.759115 325.680925 
L 205.659268 325.604597 
L 207.459575 325.604049 
L 229.063252 325.468417 
L 235.364325 325.429978 
L 241.665398 325.4481 
L 247.066317 325.431077 
L 252.467237 325.428881 
L 260.568616 325.371772 
L 260.568616 325.371772 
" clip-path="url(#p01978e3da5)" style="fill: none; stroke: #1f77b4; stroke-width: 1.5; stroke-linecap: square"/>
   </g>
   <g id="line2d_35">
    <path d="M 44.531839 524.017836 
L 49.932758 523.982769 
L 50.832912 523.548562 
L 51.733065 522.365492 
L 53.533371 519.642202 
L 55.333678 517.949239 
L 57.133984 515.371703 
L 58.934291 511.762262 
L 60.734597 509.32804 
L 61.63475 507.550609 
L 62.534904 505.222526 
L 63.435057 502.322096 
L 64.33521 498.525596 
L 65.235363 493.075356 
L 66.135517 485.503013 
L 67.935823 462.831705 
L 69.736129 436.812835 
L 71.536436 411.258773 
L 73.336742 390.000409 
L 75.137049 373.419396 
L 76.037202 366.361812 
L 76.937355 360.437018 
L 78.737662 351.168412 
L 80.537968 345.11688 
L 81.438122 342.820506 
L 82.338275 341.629496 
L 83.238428 340.973236 
L 84.138581 339.829535 
L 85.038735 338.877226 
L 85.938888 338.153352 
L 86.839041 337.163473 
L 88.639347 335.872009 
L 91.339807 334.362365 
L 92.23996 333.800297 
L 93.140114 333.480691 
L 94.040267 332.975982 
L 94.94042 332.602774 
L 97.64088 331.852851 
L 99.441186 331.149015 
L 100.34134 330.849447 
L 101.241493 330.668102 
L 102.141646 330.280369 
L 103.941952 329.957756 
L 104.842106 329.663949 
L 105.742259 329.600577 
L 113.843638 327.735538 
L 115.643945 327.563963 
L 118.344404 327.209038 
L 121.044864 326.781225 
L 121.945017 326.587858 
L 124.645477 326.33137 
L 125.54563 326.087407 
L 130.94655 325.774813 
L 135.447316 325.47925 
L 137.247622 325.36328 
L 144.448848 325.097273 
L 146.249155 325.055693 
L 173.253752 324.630888 
L 193.957276 324.516172 
L 197.557889 324.463572 
L 260.568616 324.440028 
L 260.568616 324.440028 
" clip-path="url(#p01978e3da5)" style="fill: none; stroke: #ff7f0e; stroke-width: 1.5; stroke-linecap: square"/>
   </g>
   <g id="line2d_36">
    <path d="M 62.534904 534.04 
L 62.534904 314.304 
" clip-path="url(#p01978e3da5)" style="fill: none; stroke-dasharray: 1.85,0.8; stroke-dashoffset: 0; stroke: #000000; stroke-width: 0.5"/>
   </g>
   <g id="line2d_37">
    <path d="M 80.537968 534.04 
L 80.537968 314.304 
" clip-path="url(#p01978e3da5)" style="fill: none; stroke-dasharray: 1.85,0.8; stroke-dashoffset: 0; stroke: #000000; stroke-width: 0.5"/>
   </g>
   <g id="line2d_38">
    <path d="M 134.547163 534.04 
L 134.547163 314.304 
" clip-path="url(#p01978e3da5)" style="fill: none; stroke-dasharray: 1.85,0.8; stroke-dashoffset: 0; stroke: #000000; stroke-width: 0.5"/>
   </g>
   <g id="patch_9">
    <path d="M 33.73 534.04 
L 33.73 314.304 
" style="fill: none; stroke: #000000; stroke-width: 0.8; stroke-linejoin: miter; stroke-linecap: square"/>
   </g>
   <g id="patch_10">
    <path d="M 271.370455 534.04 
L 271.370455 314.304 
" style="fill: none; stroke: #000000; stroke-width: 0.8; stroke-linejoin: miter; stroke-linecap: square"/>
   </g>
   <g id="patch_11">
    <path d="M 33.73 534.04 
L 271.370455 534.04 
" style="fill: none; stroke: #000000; stroke-width: 0.8; stroke-linejoin: miter; stroke-linecap: square"/>
   </g>
   <g id="patch_12">
    <path d="M 33.73 314.304 
L 271.370455 314.304 
" style="fill: none; stroke: #000000; stroke-width: 0.8; stroke-linejoin: miter; stroke-linecap: square"/>
   </g>
   <g id="text_32">
    <text style="font: 12px 'sans-serif'" transform="translate(36.300227 294.866625)">Fraction of correctly classified outputs,</text>
    <text style="font: 12px 'sans-serif'" transform="translate(37.631477 308.304)">inversely weighted by class frequency</text>
   </g>
   <g id="legend_2">
    <g id="patch_13">
     <path d="M 196.262642 529.04 
L 264.370455 529.04 
Q 266.370455 529.04 266.370455 527.04 
L 266.370455 498.68375 
Q 266.370455 496.68375 264.370455 496.68375 
L 196.262642 496.68375 
Q 194.262642 496.68375 194.262642 498.68375 
L 194.262642 527.04 
Q 194.262642 529.04 196.262642 529.04 
z
" style="fill: #ffffff; opacity: 0.8; stroke: #cccccc; stroke-linejoin: miter"/>
    </g>
    <g id="line2d_39">
     <path d="M 198.262642 504.782188 
L 208.262642 504.782188 
L 218.262642 504.782188 
" style="fill: none; stroke: #1f77b4; stroke-width: 1.5; stroke-linecap: square"/>
    </g>
    <g id="text_33">
     <text style="font: 10px 'sans-serif'; text-anchor: start" x="226.262642" y="508.282188" transform="rotate(-0, 226.262642, 508.282188)">English</text>
    </g>
    <g id="line2d_40">
     <path d="M 198.262642 519.460312 
L 208.262642 519.460312 
L 218.262642 519.460312 
" style="fill: none; stroke: #ff7f0e; stroke-width: 1.5; stroke-linecap: square"/>
    </g>
    <g id="text_34">
     <text style="font: 10px 'sans-serif'; text-anchor: start" x="226.262642" y="522.960312" transform="rotate(-0, 226.262642, 522.960312)">French</text>
    </g>
   </g>
  </g>
 </g>
 <defs>
  <clipPath id="p96ea98ba83">
   <rect x="33.73" y="25.44" width="237.640455" height="219.736"/>
  </clipPath>
  <clipPath id="p01978e3da5">
   <rect x="33.73" y="314.304" width="237.640455" height="219.736"/>
  </clipPath>
 </defs>
</svg>
