<?xml version="1.0" encoding="utf-8" standalone="no"?>
<!DOCTYPE svg PUBLIC "-//W3C//DTD SVG 1.1//EN"
  "http://www.w3.org/Graphics/SVG/1.1/DTD/svg11.dtd">
<svg xmlns:xlink="http://www.w3.org/1999/xlink" width="288pt" height="576pt" viewBox="0 0 288 576" xmlns="http://www.w3.org/2000/svg" version="1.1">
 <metadata>
  <rdf:RDF xmlns:dc="http://purl.org/dc/elements/1.1/" xmlns:cc="http://creativecommons.org/ns#" xmlns:rdf="http://www.w3.org/1999/02/22-rdf-syntax-ns#">
   <cc:Work>
    <dc:type rdf:resource="http://purl.org/dc/dcmitype/StillImage"/>
    <dc:date>2022-02-15T17:22:29.964886</dc:date>
    <dc:format>image/svg+xml</dc:format>
    <dc:creator>
     <cc:Agent>
      <dc:title>Matplotlib v3.5.0, https://matplotlib.org/</dc:title>
     </cc:Agent>
    </dc:creator>
   </cc:Work>
  </rdf:RDF>
 </metadata>
 <defs>
  <style type="text/css">*{stroke-linejoin: round; stroke-linecap: butt}</style>
 </defs>
 <g id="figure_1">
  <g id="patch_1">
   <path d="M 0 576 
L 288 576 
L 288 0 
L 0 0 
z
" style="fill: #ffffff"/>
  </g>
  <g id="axes_1">
   <g id="patch_2">
    <path d="M 33.73 245.176 
L 271.370455 245.176 
L 271.370455 25.44 
L 33.73 25.44 
z
" style="fill: #ffffff"/>
   </g>
   <g id="PolyCollection_1">
    <path d="M 44.531839 35.428 
L 44.531839 35.502823 
L 45.431992 42.393943 
L 46.332145 42.494928 
L 47.232299 42.638354 
L 48.132452 42.896159 
L 49.032605 43.447691 
L 49.932758 44.645016 
L 50.832912 46.734978 
L 51.733065 49.514827 
L 52.633218 52.440847 
L 53.533371 55.158157 
L 54.433524 57.696776 
L 55.333678 60.318624 
L 56.233831 63.273836 
L 57.133984 66.765382 
L 58.034137 70.986596 
L 58.934291 75.579046 
L 59.834444 80.10205 
L 60.734597 84.601512 
L 61.63475 89.309588 
L 62.534904 94.148044 
L 63.435057 98.953708 
L 64.33521 103.661689 
L 65.235363 108.2621 
L 66.135517 112.694877 
L 67.03567 116.887368 
L 67.935823 120.811709 
L 68.835976 124.63959 
L 69.736129 128.230635 
L 70.636283 131.777221 
L 71.536436 135.167581 
L 72.436589 138.670497 
L 73.336742 142.264231 
L 74.236896 145.840857 
L 75.137049 149.386108 
L 76.037202 153.311521 
L 76.937355 157.248069 
L 77.837509 161.236413 
L 78.737662 165.349365 
L 79.637815 169.559091 
L 80.537968 174.0097 
L 81.438122 177.186436 
L 82.338275 179.499639 
L 83.238428 181.824163 
L 84.138581 184.136869 
L 85.038735 186.421797 
L 85.938888 188.668558 
L 86.839041 190.861713 
L 87.739194 192.976563 
L 88.639347 195.05148 
L 89.539501 197.050396 
L 90.439654 198.986827 
L 91.339807 200.83206 
L 92.23996 202.602239 
L 93.140114 204.278676 
L 94.040267 205.867916 
L 94.94042 207.387292 
L 95.840573 208.815295 
L 96.740727 210.172847 
L 97.64088 211.453432 
L 98.541033 212.662283 
L 99.441186 213.810399 
L 100.34134 214.876405 
L 101.241493 215.894593 
L 102.141646 216.852494 
L 103.041799 217.746385 
L 103.941952 218.592083 
L 104.842106 219.374057 
L 105.742259 220.125538 
L 106.642412 220.826662 
L 107.542565 221.482066 
L 108.442719 222.094372 
L 109.342872 222.678233 
L 110.243025 223.22479 
L 111.143178 223.750359 
L 112.043332 224.208234 
L 112.943485 224.695419 
L 113.843638 225.101575 
L 114.743791 225.509047 
L 115.643945 225.88098 
L 116.544098 226.249621 
L 117.444251 226.561734 
L 118.344404 226.901945 
L 119.244558 227.20161 
L 120.144711 227.488843 
L 121.044864 227.775175 
L 121.945017 228.021954 
L 122.84517 228.254027 
L 123.745324 228.49639 
L 124.645477 228.718108 
L 125.54563 228.916307 
L 126.445783 229.117715 
L 127.345937 229.30996 
L 128.24609 229.465867 
L 129.146243 229.646353 
L 130.046396 229.810772 
L 130.94655 230.001897 
L 131.846703 230.138928 
L 132.746856 230.278845 
L 133.647009 230.418087 
L 134.547163 230.529028 
L 135.447316 230.655129 
L 136.347469 230.795579 
L 137.247622 230.914685 
L 138.147775 231.017996 
L 139.047929 231.126915 
L 139.948082 231.230306 
L 140.848235 231.323265 
L 141.748388 231.412605 
L 142.648542 231.526282 
L 143.548695 231.612339 
L 144.448848 231.69719 
L 145.349001 231.781682 
L 146.249155 231.852407 
L 147.149308 231.93965 
L 148.049461 232.0266 
L 148.949614 232.088943 
L 149.849768 232.173323 
L 150.749921 232.23606 
L 151.650074 232.30597 
L 152.550227 232.361784 
L 153.450381 232.435321 
L 154.350534 232.490166 
L 155.250687 232.547915 
L 156.15084 232.610168 
L 157.050993 232.683928 
L 157.951147 232.713061 
L 158.8513 232.775899 
L 159.751453 232.825886 
L 160.651606 232.866967 
L 161.55176 232.918558 
L 162.451913 232.961719 
L 163.352066 233.014496 
L 164.252219 233.043238 
L 165.152373 233.090549 
L 166.052526 233.14303 
L 166.952679 233.182182 
L 167.852832 233.215126 
L 168.752986 233.263084 
L 169.653139 233.298396 
L 170.553292 233.338607 
L 171.453445 233.374346 
L 172.353598 233.401952 
L 173.253752 233.452883 
L 174.153905 233.467689 
L 175.054058 233.515094 
L 175.954211 233.541028 
L 176.854365 233.582511 
L 177.754518 233.620589 
L 178.654671 233.642638 
L 179.554824 233.686367 
L 180.454978 233.712288 
L 181.355131 233.751638 
L 182.255284 233.791112 
L 183.155437 233.814578 
L 184.055591 233.838346 
L 184.955744 233.867778 
L 185.855897 233.893818 
L 186.75605 233.914167 
L 187.656204 233.952898 
L 188.556357 233.975934 
L 189.45651 233.995538 
L 190.356663 234.024216 
L 191.256816 234.047836 
L 192.15697 234.071954 
L 193.057123 234.087973 
L 193.957276 234.113687 
L 194.857429 234.153851 
L 195.757583 234.157828 
L 196.657736 234.201074 
L 197.557889 234.207912 
L 198.458042 234.237593 
L 199.358196 234.252281 
L 200.258349 234.279279 
L 201.158502 234.300854 
L 202.058655 234.321471 
L 202.958809 234.343655 
L 203.858962 234.351641 
L 204.759115 234.374581 
L 205.659268 234.389119 
L 206.559421 234.409956 
L 207.459575 234.427888 
L 208.359728 234.452635 
L 209.259881 234.476947 
L 210.160034 234.505126 
L 211.060188 234.520881 
L 211.960341 234.537159 
L 212.860494 234.550187 
L 213.760647 234.581003 
L 214.660801 234.600526 
L 215.560954 234.616828 
L 216.461107 234.638989 
L 217.36126 234.641318 
L 218.261414 234.652579 
L 219.161567 234.671194 
L 220.06172 234.692983 
L 220.961873 234.713453 
L 221.862027 234.723295 
L 222.76218 234.729925 
L 223.662333 234.747128 
L 224.562486 234.76093 
L 225.462639 234.819392 
L 226.362793 234.832275 
L 227.262946 234.837004 
L 228.163099 234.844346 
L 229.063252 234.857395 
L 229.963406 234.872759 
L 230.863559 234.877724 
L 231.763712 234.883998 
L 232.663865 234.897574 
L 233.564019 234.907767 
L 234.464172 234.916541 
L 235.364325 234.932429 
L 236.264478 234.938807 
L 237.164632 234.947738 
L 238.064785 234.958742 
L 238.964938 234.96573 
L 239.865091 234.970337 
L 240.765244 234.981896 
L 241.665398 234.993841 
L 242.565551 235.000487 
L 243.465704 235.009683 
L 244.365857 235.018118 
L 245.266011 235.030113 
L 246.166164 235.039376 
L 247.066317 235.047561 
L 247.96647 235.056725 
L 248.866624 235.072939 
L 249.766777 235.079193 
L 250.66693 235.087654 
L 251.567083 235.09512 
L 252.467237 235.107736 
L 253.36739 235.114738 
L 254.267543 235.1236 
L 255.167696 235.132251 
L 256.06785 235.143496 
L 256.968003 235.151981 
L 257.868156 235.161309 
L 258.768309 235.170253 
L 259.668462 235.180405 
L 260.568616 235.188 
L 260.568616 234.422864 
L 260.568616 234.422864 
L 259.668462 234.41436 
L 258.768309 234.405866 
L 257.868156 234.395193 
L 256.968003 234.385818 
L 256.06785 234.375627 
L 255.167696 234.361719 
L 254.267543 234.353258 
L 253.36739 234.343386 
L 252.467237 234.33717 
L 251.567083 234.325327 
L 250.66693 234.316255 
L 249.766777 234.308203 
L 248.866624 234.299672 
L 247.96647 234.280976 
L 247.066317 234.270222 
L 246.166164 234.261016 
L 245.266011 234.251479 
L 244.365857 234.240886 
L 243.465704 234.232035 
L 242.565551 234.223286 
L 241.665398 234.216654 
L 240.765244 234.204009 
L 239.865091 234.193885 
L 238.964938 234.18886 
L 238.064785 234.179972 
L 237.164632 234.169713 
L 236.264478 234.160119 
L 235.364325 234.153882 
L 234.464172 234.137874 
L 233.564019 234.129523 
L 232.663865 234.11948 
L 231.763712 234.106614 
L 230.863559 234.097854 
L 229.963406 234.094051 
L 229.063252 234.078156 
L 228.163099 234.064817 
L 227.262946 234.057121 
L 226.362793 234.051903 
L 225.462639 234.038225 
L 224.562486 233.981676 
L 223.662333 233.964709 
L 222.76218 233.945882 
L 221.862027 233.93768 
L 220.961873 233.929857 
L 220.06172 233.905873 
L 219.161567 233.881978 
L 218.261414 233.866688 
L 217.36126 233.852602 
L 216.461107 233.850475 
L 215.560954 233.827733 
L 214.660801 233.809966 
L 213.760647 233.786459 
L 212.860494 233.756591 
L 211.960341 233.742028 
L 211.060188 233.725024 
L 210.160034 233.702485 
L 209.259881 233.66737 
L 208.359728 233.639544 
L 207.459575 233.616574 
L 206.559421 233.593708 
L 205.659268 233.575029 
L 204.759115 233.559108 
L 203.858962 233.534813 
L 202.958809 233.524086 
L 202.058655 233.48981 
L 201.158502 233.480195 
L 200.258349 233.451245 
L 199.358196 233.423085 
L 198.458042 233.413444 
L 197.557889 233.378595 
L 196.657736 233.371169 
L 195.757583 233.322075 
L 194.857429 233.318949 
L 193.957276 233.280184 
L 193.057123 233.24743 
L 192.15697 233.227302 
L 191.256816 233.20383 
L 190.356663 233.176709 
L 189.45651 233.148642 
L 188.556357 233.125398 
L 187.656204 233.096963 
L 186.75605 233.055287 
L 185.855897 233.032615 
L 184.955744 232.997865 
L 184.055591 232.976141 
L 183.155437 232.943467 
L 182.255284 232.917314 
L 181.355131 232.876545 
L 180.454978 232.830781 
L 179.554824 232.798091 
L 178.654671 232.740041 
L 177.754518 232.721305 
L 176.854365 232.676611 
L 175.954211 232.632792 
L 175.054058 232.597159 
L 174.153905 232.551937 
L 173.253752 232.53414 
L 172.353598 232.481207 
L 171.453445 232.446412 
L 170.553292 232.401859 
L 169.653139 232.351941 
L 168.752986 232.328272 
L 167.852832 232.270974 
L 166.952679 232.230649 
L 166.052526 232.181149 
L 165.152373 232.127593 
L 164.252219 232.08424 
L 163.352066 232.041712 
L 162.451913 231.988054 
L 161.55176 231.937114 
L 160.651606 231.886931 
L 159.751453 231.835941 
L 158.8513 231.78087 
L 157.951147 231.711123 
L 157.050993 231.67277 
L 156.15084 231.596623 
L 155.250687 231.526362 
L 154.350534 231.462967 
L 153.450381 231.4004 
L 152.550227 231.317573 
L 151.650074 231.250553 
L 150.749921 231.176618 
L 149.849768 231.101958 
L 148.949614 231.02283 
L 148.049461 230.935249 
L 147.149308 230.833494 
L 146.249155 230.737958 
L 145.349001 230.677396 
L 144.448848 230.574421 
L 143.548695 230.484525 
L 142.648542 230.390077 
L 141.748388 230.254546 
L 140.848235 230.151803 
L 139.948082 230.05621 
L 139.047929 229.937773 
L 138.147775 229.811129 
L 137.247622 229.695779 
L 136.347469 229.572195 
L 135.447316 229.418122 
L 134.547163 229.276498 
L 133.647009 229.145328 
L 132.746856 228.98828 
L 131.846703 228.82884 
L 130.94655 228.670161 
L 130.046396 228.460187 
L 129.146243 228.267373 
L 128.24609 228.066373 
L 127.345937 227.894335 
L 126.445783 227.680061 
L 125.54563 227.449758 
L 124.645477 227.220833 
L 123.745324 226.974748 
L 122.84517 226.704544 
L 121.945017 226.441428 
L 121.044864 226.162341 
L 120.144711 225.841081 
L 119.244558 225.512516 
L 118.344404 225.163555 
L 117.444251 224.775333 
L 116.544098 224.420891 
L 115.643945 224.014681 
L 114.743791 223.584832 
L 113.843638 223.116069 
L 112.943485 222.652092 
L 112.043332 222.100619 
L 111.143178 221.555715 
L 110.243025 220.951746 
L 109.342872 220.31474 
L 108.442719 219.634586 
L 107.542565 218.923277 
L 106.642412 218.151385 
L 105.742259 217.333944 
L 104.842106 216.46703 
L 103.941952 215.564716 
L 103.041799 214.592508 
L 102.141646 213.56545 
L 101.241493 212.48297 
L 100.34134 211.330175 
L 99.441186 210.136431 
L 98.541033 208.860855 
L 97.64088 207.513844 
L 96.740727 206.103731 
L 95.840573 204.612657 
L 94.94042 203.054546 
L 94.040267 201.414841 
L 93.140114 199.697311 
L 92.23996 197.907391 
L 91.339807 196.035655 
L 90.439654 194.091989 
L 89.539501 192.05889 
L 88.639347 189.980492 
L 87.739194 187.839132 
L 86.839041 185.676269 
L 85.938888 183.451459 
L 85.038735 181.181415 
L 84.138581 178.890344 
L 83.238428 176.588273 
L 82.338275 174.278646 
L 81.438122 171.993229 
L 80.537968 168.896662 
L 79.637815 164.520883 
L 78.737662 160.474882 
L 77.837509 156.610526 
L 76.937355 152.83679 
L 76.037202 149.167885 
L 75.137049 145.513771 
L 74.236896 142.179655 
L 73.336742 138.765156 
L 72.436589 135.259135 
L 71.536436 131.849641 
L 70.636283 128.441503 
L 69.736129 124.806907 
L 68.835976 121.136487 
L 67.935823 117.161761 
L 67.03567 113.090805 
L 66.135517 108.827505 
L 65.235363 104.341636 
L 64.33521 99.746208 
L 63.435057 95.126257 
L 62.534904 90.478202 
L 61.63475 85.794882 
L 60.734597 81.184343 
L 59.834444 76.826226 
L 58.934291 72.567844 
L 58.034137 68.379004 
L 57.133984 64.582546 
L 56.233831 61.497075 
L 55.333678 58.87276 
L 54.433524 56.411084 
L 53.533371 53.866373 
L 52.633218 51.10813 
L 51.733065 48.24377 
L 50.832912 45.713807 
L 49.932758 44.036776 
L 49.032605 43.186347 
L 48.132452 42.795194 
L 47.232299 42.594406 
L 46.332145 42.472475 
L 45.431992 42.380084 
L 44.531839 35.428 
z
" clip-path="url(#p5bf19fd4c2)" style="fill-opacity: 0.3"/>
   </g>
   <g id="matplotlib.axis_1">
    <g id="xtick_1">
     <g id="line2d_1">
      <defs>
       <path id="m9807c87525" d="M 0 0 
L 0 3.5 
" style="stroke: #000000; stroke-width: 0.8"/>
      </defs>
      <g>
       <use xlink:href="#m9807c87525" x="44.531839" y="245.176" style="stroke: #000000; stroke-width: 0.8"/>
      </g>
     </g>
     <g id="text_1">
      <!-- 0 -->
      <g transform="translate(41.350589 259.774437)scale(0.1 -0.1)">
       <defs>
        <path id="DejaVuSans-30" d="M 2034 4250 
Q 1547 4250 1301 3770 
Q 1056 3291 1056 2328 
Q 1056 1369 1301 889 
Q 1547 409 2034 409 
Q 2525 409 2770 889 
Q 3016 1369 3016 2328 
Q 3016 3291 2770 3770 
Q 2525 4250 2034 4250 
z
M 2034 4750 
Q 2819 4750 3233 4129 
Q 3647 3509 3647 2328 
Q 3647 1150 3233 529 
Q 2819 -91 2034 -91 
Q 1250 -91 836 529 
Q 422 1150 422 2328 
Q 422 3509 836 4129 
Q 1250 4750 2034 4750 
z
" transform="scale(0.015625)"/>
       </defs>
       <use xlink:href="#DejaVuSans-30"/>
      </g>
     </g>
    </g>
    <g id="xtick_2">
     <g id="line2d_2">
      <g>
       <use xlink:href="#m9807c87525" x="80.537968" y="245.176" style="stroke: #000000; stroke-width: 0.8"/>
      </g>
     </g>
     <g id="text_2">
      <!-- 2000 -->
      <g transform="translate(67.812968 259.774437)scale(0.1 -0.1)">
       <defs>
        <path id="DejaVuSans-32" d="M 1228 531 
L 3431 531 
L 3431 0 
L 469 0 
L 469 531 
Q 828 903 1448 1529 
Q 2069 2156 2228 2338 
Q 2531 2678 2651 2914 
Q 2772 3150 2772 3378 
Q 2772 3750 2511 3984 
Q 2250 4219 1831 4219 
Q 1534 4219 1204 4116 
Q 875 4013 500 3803 
L 500 4441 
Q 881 4594 1212 4672 
Q 1544 4750 1819 4750 
Q 2544 4750 2975 4387 
Q 3406 4025 3406 3419 
Q 3406 3131 3298 2873 
Q 3191 2616 2906 2266 
Q 2828 2175 2409 1742 
Q 1991 1309 1228 531 
z
" transform="scale(0.015625)"/>
       </defs>
       <use xlink:href="#DejaVuSans-32"/>
       <use xlink:href="#DejaVuSans-30" x="63.623047"/>
       <use xlink:href="#DejaVuSans-30" x="127.246094"/>
       <use xlink:href="#DejaVuSans-30" x="190.869141"/>
      </g>
     </g>
    </g>
    <g id="xtick_3">
     <g id="line2d_3">
      <g>
       <use xlink:href="#m9807c87525" x="116.544098" y="245.176" style="stroke: #000000; stroke-width: 0.8"/>
      </g>
     </g>
     <g id="text_3">
      <!-- 4000 -->
      <g transform="translate(103.819098 259.774437)scale(0.1 -0.1)">
       <defs>
        <path id="DejaVuSans-34" d="M 2419 4116 
L 825 1625 
L 2419 1625 
L 2419 4116 
z
M 2253 4666 
L 3047 4666 
L 3047 1625 
L 3713 1625 
L 3713 1100 
L 3047 1100 
L 3047 0 
L 2419 0 
L 2419 1100 
L 313 1100 
L 313 1709 
L 2253 4666 
z
" transform="scale(0.015625)"/>
       </defs>
       <use xlink:href="#DejaVuSans-34"/>
       <use xlink:href="#DejaVuSans-30" x="63.623047"/>
       <use xlink:href="#DejaVuSans-30" x="127.246094"/>
       <use xlink:href="#DejaVuSans-30" x="190.869141"/>
      </g>
     </g>
    </g>
    <g id="xtick_4">
     <g id="line2d_4">
      <g>
       <use xlink:href="#m9807c87525" x="152.550227" y="245.176" style="stroke: #000000; stroke-width: 0.8"/>
      </g>
     </g>
     <g id="text_4">
      <!-- 6000 -->
      <g transform="translate(139.825227 259.774437)scale(0.1 -0.1)">
       <defs>
        <path id="DejaVuSans-36" d="M 2113 2584 
Q 1688 2584 1439 2293 
Q 1191 2003 1191 1497 
Q 1191 994 1439 701 
Q 1688 409 2113 409 
Q 2538 409 2786 701 
Q 3034 994 3034 1497 
Q 3034 2003 2786 2293 
Q 2538 2584 2113 2584 
z
M 3366 4563 
L 3366 3988 
Q 3128 4100 2886 4159 
Q 2644 4219 2406 4219 
Q 1781 4219 1451 3797 
Q 1122 3375 1075 2522 
Q 1259 2794 1537 2939 
Q 1816 3084 2150 3084 
Q 2853 3084 3261 2657 
Q 3669 2231 3669 1497 
Q 3669 778 3244 343 
Q 2819 -91 2113 -91 
Q 1303 -91 875 529 
Q 447 1150 447 2328 
Q 447 3434 972 4092 
Q 1497 4750 2381 4750 
Q 2619 4750 2861 4703 
Q 3103 4656 3366 4563 
z
" transform="scale(0.015625)"/>
       </defs>
       <use xlink:href="#DejaVuSans-36"/>
       <use xlink:href="#DejaVuSans-30" x="63.623047"/>
       <use xlink:href="#DejaVuSans-30" x="127.246094"/>
       <use xlink:href="#DejaVuSans-30" x="190.869141"/>
      </g>
     </g>
    </g>
    <g id="xtick_5">
     <g id="line2d_5">
      <g>
       <use xlink:href="#m9807c87525" x="188.556357" y="245.176" style="stroke: #000000; stroke-width: 0.8"/>
      </g>
     </g>
     <g id="text_5">
      <!-- 8000 -->
      <g transform="translate(175.831357 259.774437)scale(0.1 -0.1)">
       <defs>
        <path id="DejaVuSans-38" d="M 2034 2216 
Q 1584 2216 1326 1975 
Q 1069 1734 1069 1313 
Q 1069 891 1326 650 
Q 1584 409 2034 409 
Q 2484 409 2743 651 
Q 3003 894 3003 1313 
Q 3003 1734 2745 1975 
Q 2488 2216 2034 2216 
z
M 1403 2484 
Q 997 2584 770 2862 
Q 544 3141 544 3541 
Q 544 4100 942 4425 
Q 1341 4750 2034 4750 
Q 2731 4750 3128 4425 
Q 3525 4100 3525 3541 
Q 3525 3141 3298 2862 
Q 3072 2584 2669 2484 
Q 3125 2378 3379 2068 
Q 3634 1759 3634 1313 
Q 3634 634 3220 271 
Q 2806 -91 2034 -91 
Q 1263 -91 848 271 
Q 434 634 434 1313 
Q 434 1759 690 2068 
Q 947 2378 1403 2484 
z
M 1172 3481 
Q 1172 3119 1398 2916 
Q 1625 2713 2034 2713 
Q 2441 2713 2670 2916 
Q 2900 3119 2900 3481 
Q 2900 3844 2670 4047 
Q 2441 4250 2034 4250 
Q 1625 4250 1398 4047 
Q 1172 3844 1172 3481 
z
" transform="scale(0.015625)"/>
       </defs>
       <use xlink:href="#DejaVuSans-38"/>
       <use xlink:href="#DejaVuSans-30" x="63.623047"/>
       <use xlink:href="#DejaVuSans-30" x="127.246094"/>
       <use xlink:href="#DejaVuSans-30" x="190.869141"/>
      </g>
     </g>
    </g>
    <g id="xtick_6">
     <g id="line2d_6">
      <g>
       <use xlink:href="#m9807c87525" x="224.562486" y="245.176" style="stroke: #000000; stroke-width: 0.8"/>
      </g>
     </g>
     <g id="text_6">
      <!-- 10000 -->
      <g transform="translate(208.656236 259.774437)scale(0.1 -0.1)">
       <defs>
        <path id="DejaVuSans-31" d="M 794 531 
L 1825 531 
L 1825 4091 
L 703 3866 
L 703 4441 
L 1819 4666 
L 2450 4666 
L 2450 531 
L 3481 531 
L 3481 0 
L 794 0 
L 794 531 
z
" transform="scale(0.015625)"/>
       </defs>
       <use xlink:href="#DejaVuSans-31"/>
       <use xlink:href="#DejaVuSans-30" x="63.623047"/>
       <use xlink:href="#DejaVuSans-30" x="127.246094"/>
       <use xlink:href="#DejaVuSans-30" x="190.869141"/>
       <use xlink:href="#DejaVuSans-30" x="254.492188"/>
      </g>
     </g>
    </g>
    <g id="xtick_7">
     <g id="line2d_7">
      <g>
       <use xlink:href="#m9807c87525" x="260.568616" y="245.176" style="stroke: #000000; stroke-width: 0.8"/>
      </g>
     </g>
     <g id="text_7">
      <!-- 12000 -->
      <g transform="translate(244.662366 259.774437)scale(0.1 -0.1)">
       <use xlink:href="#DejaVuSans-31"/>
       <use xlink:href="#DejaVuSans-32" x="63.623047"/>
       <use xlink:href="#DejaVuSans-30" x="127.246094"/>
       <use xlink:href="#DejaVuSans-30" x="190.869141"/>
       <use xlink:href="#DejaVuSans-30" x="254.492188"/>
      </g>
     </g>
    </g>
    <g id="text_8">
     <!-- Epoch -->
     <g transform="translate(137.23929 273.452562)scale(0.1 -0.1)">
      <defs>
       <path id="DejaVuSans-45" d="M 628 4666 
L 3578 4666 
L 3578 4134 
L 1259 4134 
L 1259 2753 
L 3481 2753 
L 3481 2222 
L 1259 2222 
L 1259 531 
L 3634 531 
L 3634 0 
L 628 0 
L 628 4666 
z
" transform="scale(0.015625)"/>
       <path id="DejaVuSans-70" d="M 1159 525 
L 1159 -1331 
L 581 -1331 
L 581 3500 
L 1159 3500 
L 1159 2969 
Q 1341 3281 1617 3432 
Q 1894 3584 2278 3584 
Q 2916 3584 3314 3078 
Q 3713 2572 3713 1747 
Q 3713 922 3314 415 
Q 2916 -91 2278 -91 
Q 1894 -91 1617 61 
Q 1341 213 1159 525 
z
M 3116 1747 
Q 3116 2381 2855 2742 
Q 2594 3103 2138 3103 
Q 1681 3103 1420 2742 
Q 1159 2381 1159 1747 
Q 1159 1113 1420 752 
Q 1681 391 2138 391 
Q 2594 391 2855 752 
Q 3116 1113 3116 1747 
z
" transform="scale(0.015625)"/>
       <path id="DejaVuSans-6f" d="M 1959 3097 
Q 1497 3097 1228 2736 
Q 959 2375 959 1747 
Q 959 1119 1226 758 
Q 1494 397 1959 397 
Q 2419 397 2687 759 
Q 2956 1122 2956 1747 
Q 2956 2369 2687 2733 
Q 2419 3097 1959 3097 
z
M 1959 3584 
Q 2709 3584 3137 3096 
Q 3566 2609 3566 1747 
Q 3566 888 3137 398 
Q 2709 -91 1959 -91 
Q 1206 -91 779 398 
Q 353 888 353 1747 
Q 353 2609 779 3096 
Q 1206 3584 1959 3584 
z
" transform="scale(0.015625)"/>
       <path id="DejaVuSans-63" d="M 3122 3366 
L 3122 2828 
Q 2878 2963 2633 3030 
Q 2388 3097 2138 3097 
Q 1578 3097 1268 2742 
Q 959 2388 959 1747 
Q 959 1106 1268 751 
Q 1578 397 2138 397 
Q 2388 397 2633 464 
Q 2878 531 3122 666 
L 3122 134 
Q 2881 22 2623 -34 
Q 2366 -91 2075 -91 
Q 1284 -91 818 406 
Q 353 903 353 1747 
Q 353 2603 823 3093 
Q 1294 3584 2113 3584 
Q 2378 3584 2631 3529 
Q 2884 3475 3122 3366 
z
" transform="scale(0.015625)"/>
       <path id="DejaVuSans-68" d="M 3513 2113 
L 3513 0 
L 2938 0 
L 2938 2094 
Q 2938 2591 2744 2837 
Q 2550 3084 2163 3084 
Q 1697 3084 1428 2787 
Q 1159 2491 1159 1978 
L 1159 0 
L 581 0 
L 581 4863 
L 1159 4863 
L 1159 2956 
Q 1366 3272 1645 3428 
Q 1925 3584 2291 3584 
Q 2894 3584 3203 3211 
Q 3513 2838 3513 2113 
z
" transform="scale(0.015625)"/>
      </defs>
      <use xlink:href="#DejaVuSans-45"/>
      <use xlink:href="#DejaVuSans-70" x="63.183594"/>
      <use xlink:href="#DejaVuSans-6f" x="126.660156"/>
      <use xlink:href="#DejaVuSans-63" x="187.841797"/>
      <use xlink:href="#DejaVuSans-68" x="242.822266"/>
     </g>
    </g>
   </g>
   <g id="matplotlib.axis_2">
    <g id="ytick_1">
     <g id="line2d_8">
      <defs>
       <path id="mcecf6f680b" d="M 0 0 
L -3.5 0 
" style="stroke: #000000; stroke-width: 0.8"/>
      </defs>
      <g>
       <use xlink:href="#mcecf6f680b" x="33.73" y="239.966567" style="stroke: #000000; stroke-width: 0.8"/>
      </g>
     </g>
     <g id="text_9">
      <!-- 0.0 -->
      <g transform="translate(10.826875 243.765785)scale(0.1 -0.1)">
       <defs>
        <path id="DejaVuSans-2e" d="M 684 794 
L 1344 794 
L 1344 0 
L 684 0 
L 684 794 
z
" transform="scale(0.015625)"/>
       </defs>
       <use xlink:href="#DejaVuSans-30"/>
       <use xlink:href="#DejaVuSans-2e" x="63.623047"/>
       <use xlink:href="#DejaVuSans-30" x="95.410156"/>
      </g>
     </g>
    </g>
    <g id="ytick_2">
     <g id="line2d_9">
      <g>
       <use xlink:href="#mcecf6f680b" x="33.73" y="201.291733" style="stroke: #000000; stroke-width: 0.8"/>
      </g>
     </g>
     <g id="text_10">
      <!-- 0.2 -->
      <g transform="translate(10.826875 205.090952)scale(0.1 -0.1)">
       <use xlink:href="#DejaVuSans-30"/>
       <use xlink:href="#DejaVuSans-2e" x="63.623047"/>
       <use xlink:href="#DejaVuSans-32" x="95.410156"/>
      </g>
     </g>
    </g>
    <g id="ytick_3">
     <g id="line2d_10">
      <g>
       <use xlink:href="#mcecf6f680b" x="33.73" y="162.6169" style="stroke: #000000; stroke-width: 0.8"/>
      </g>
     </g>
     <g id="text_11">
      <!-- 0.4 -->
      <g transform="translate(10.826875 166.416119)scale(0.1 -0.1)">
       <use xlink:href="#DejaVuSans-30"/>
       <use xlink:href="#DejaVuSans-2e" x="63.623047"/>
       <use xlink:href="#DejaVuSans-34" x="95.410156"/>
      </g>
     </g>
    </g>
    <g id="ytick_4">
     <g id="line2d_11">
      <g>
       <use xlink:href="#mcecf6f680b" x="33.73" y="123.942067" style="stroke: #000000; stroke-width: 0.8"/>
      </g>
     </g>
     <g id="text_12">
      <!-- 0.6 -->
      <g transform="translate(10.826875 127.741286)scale(0.1 -0.1)">
       <use xlink:href="#DejaVuSans-30"/>
       <use xlink:href="#DejaVuSans-2e" x="63.623047"/>
       <use xlink:href="#DejaVuSans-36" x="95.410156"/>
      </g>
     </g>
    </g>
    <g id="ytick_5">
     <g id="line2d_12">
      <g>
       <use xlink:href="#mcecf6f680b" x="33.73" y="85.267233" style="stroke: #000000; stroke-width: 0.8"/>
      </g>
     </g>
     <g id="text_13">
      <!-- 0.8 -->
      <g transform="translate(10.826875 89.066452)scale(0.1 -0.1)">
       <use xlink:href="#DejaVuSans-30"/>
       <use xlink:href="#DejaVuSans-2e" x="63.623047"/>
       <use xlink:href="#DejaVuSans-38" x="95.410156"/>
      </g>
     </g>
    </g>
    <g id="ytick_6">
     <g id="line2d_13">
      <g>
       <use xlink:href="#mcecf6f680b" x="33.73" y="46.5924" style="stroke: #000000; stroke-width: 0.8"/>
      </g>
     </g>
     <g id="text_14">
      <!-- 1.0 -->
      <g transform="translate(10.826875 50.391619)scale(0.1 -0.1)">
       <use xlink:href="#DejaVuSans-31"/>
       <use xlink:href="#DejaVuSans-2e" x="63.623047"/>
       <use xlink:href="#DejaVuSans-30" x="95.410156"/>
      </g>
     </g>
    </g>
   </g>
   <g id="line2d_14">
    <path d="M 44.531839 35.465411 
L 45.431992 42.387013 
L 47.232299 42.61638 
L 48.132452 42.845676 
L 49.032605 43.317019 
L 49.932758 44.340896 
L 50.832912 46.224393 
L 56.233831 62.385456 
L 57.133984 65.673964 
L 58.934291 74.073445 
L 61.63475 87.552235 
L 66.135517 110.761191 
L 67.935823 118.986735 
L 69.736129 126.518771 
L 73.336742 140.514693 
L 76.037202 151.239703 
L 78.737662 162.912123 
L 80.537968 171.453181 
L 81.438122 174.589832 
L 87.739194 190.407847 
L 90.439654 196.539408 
L 93.140114 201.987994 
L 94.94042 205.220919 
L 96.740727 208.138289 
L 98.541033 210.761569 
L 100.34134 213.10329 
L 102.141646 215.208972 
L 103.941952 217.0784 
L 106.642412 219.489023 
L 109.342872 221.496487 
L 112.043332 223.154426 
L 113.843638 224.108822 
L 116.544098 225.335256 
L 121.945017 227.231691 
L 127.345937 228.602147 
L 137.247622 230.305232 
L 146.249155 231.295182 
L 153.450381 231.917861 
L 166.952679 232.706415 
L 194.857429 233.7364 
L 200.258349 233.865262 
L 218.261414 234.259633 
L 242.565551 234.611887 
L 260.568616 234.805432 
L 260.568616 234.805432 
" clip-path="url(#p5bf19fd4c2)" style="fill: none; stroke: #000000; stroke-width: 1.5; stroke-linecap: square"/>
   </g>
   <g id="line2d_15">
    <defs>
     <path id="me95908b7b8" d="M 0 3 
C 0.795609 3 1.55874 2.683901 2.12132 2.12132 
C 2.683901 1.55874 3 0.795609 3 0 
C 3 -0.795609 2.683901 -1.55874 2.12132 -2.12132 
C 1.55874 -2.683901 0.795609 -3 0 -3 
C -0.795609 -3 -1.55874 -2.683901 -2.12132 -2.12132 
C -2.683901 -1.55874 -3 -0.795609 -3 0 
C -3 0.795609 -2.683901 1.55874 -2.12132 2.12132 
C -1.55874 2.683901 -0.795609 3 0 3 
z
" style="stroke: #ff0000"/>
    </defs>
    <g clip-path="url(#p5bf19fd4c2)">
     <use xlink:href="#me95908b7b8" x="44.531839" y="35.465411" style="fill-opacity: 0; stroke: #ff0000"/>
     <use xlink:href="#me95908b7b8" x="62.534904" y="92.313123" style="fill-opacity: 0; stroke: #ff0000"/>
     <use xlink:href="#me95908b7b8" x="80.537968" y="171.453181" style="fill-opacity: 0; stroke: #ff0000"/>
     <use xlink:href="#me95908b7b8" x="134.547163" y="229.902763" style="fill-opacity: 0; stroke: #ff0000"/>
    </g>
   </g>
   <g id="patch_3">
    <path d="M 33.73 245.176 
L 33.73 25.44 
" style="fill: none; stroke: #000000; stroke-width: 0.8; stroke-linejoin: miter; stroke-linecap: square"/>
   </g>
   <g id="patch_4">
    <path d="M 271.370455 245.176 
L 271.370455 25.44 
" style="fill: none; stroke: #000000; stroke-width: 0.8; stroke-linejoin: miter; stroke-linecap: square"/>
   </g>
   <g id="patch_5">
    <path d="M 33.73 245.176 
L 271.370455 245.176 
" style="fill: none; stroke: #000000; stroke-width: 0.8; stroke-linejoin: miter; stroke-linecap: square"/>
   </g>
   <g id="patch_6">
    <path d="M 33.73 25.44 
L 271.370455 25.44 
" style="fill: none; stroke: #000000; stroke-width: 0.8; stroke-linejoin: miter; stroke-linecap: square"/>
   </g>
   <g id="text_15">
    <!-- Loss -->
    <g transform="translate(139.389602 19.44)scale(0.12 -0.12)">
     <defs>
      <path id="DejaVuSans-4c" d="M 628 4666 
L 1259 4666 
L 1259 531 
L 3531 531 
L 3531 0 
L 628 0 
L 628 4666 
z
" transform="scale(0.015625)"/>
      <path id="DejaVuSans-73" d="M 2834 3397 
L 2834 2853 
Q 2591 2978 2328 3040 
Q 2066 3103 1784 3103 
Q 1356 3103 1142 2972 
Q 928 2841 928 2578 
Q 928 2378 1081 2264 
Q 1234 2150 1697 2047 
L 1894 2003 
Q 2506 1872 2764 1633 
Q 3022 1394 3022 966 
Q 3022 478 2636 193 
Q 2250 -91 1575 -91 
Q 1294 -91 989 -36 
Q 684 19 347 128 
L 347 722 
Q 666 556 975 473 
Q 1284 391 1588 391 
Q 1994 391 2212 530 
Q 2431 669 2431 922 
Q 2431 1156 2273 1281 
Q 2116 1406 1581 1522 
L 1381 1569 
Q 847 1681 609 1914 
Q 372 2147 372 2553 
Q 372 3047 722 3315 
Q 1072 3584 1716 3584 
Q 2034 3584 2315 3537 
Q 2597 3491 2834 3397 
z
" transform="scale(0.015625)"/>
     </defs>
     <use xlink:href="#DejaVuSans-4c"/>
     <use xlink:href="#DejaVuSans-6f" x="53.962891"/>
     <use xlink:href="#DejaVuSans-73" x="115.144531"/>
     <use xlink:href="#DejaVuSans-73" x="167.244141"/>
    </g>
   </g>
  </g>
  <g id="axes_2">
   <g id="patch_7">
    <path d="M 33.73 534.04 
L 271.370455 534.04 
L 271.370455 314.304 
L 33.73 314.304 
z
" style="fill: #ffffff"/>
   </g>
   <g id="PolyCollection_2">
    <path d="M 44.531839 524.050148 
L 44.531839 524.050148 
L 45.431992 524.050148 
L 46.332145 524.050148 
L 47.232299 524.050148 
L 48.132452 524.050148 
L 49.032605 524.050148 
L 49.932758 524.050148 
L 50.832912 524.050148 
L 51.733065 524.050148 
L 52.633218 524.052 
L 53.533371 523.988731 
L 54.433524 523.589215 
L 55.333678 522.934193 
L 56.233831 522.21919 
L 57.133984 521.199543 
L 58.034137 519.600217 
L 58.934291 517.393939 
L 59.834444 514.869861 
L 60.734597 510.375948 
L 61.63475 505.76928 
L 62.534904 500.795102 
L 63.435057 495.027509 
L 64.33521 489.240454 
L 65.235363 483.950669 
L 66.135517 479.513014 
L 67.03567 475.318575 
L 67.935823 472.357461 
L 68.835976 469.105419 
L 69.736129 465.97338 
L 70.636283 463.768707 
L 71.536436 462.55759 
L 72.436589 460.81332 
L 73.336742 459.084152 
L 74.236896 456.534043 
L 75.137049 454.313645 
L 76.037202 451.199358 
L 76.937355 447.802869 
L 77.837509 443.459681 
L 78.737662 438.580995 
L 79.637815 431.953351 
L 80.537968 424.864634 
L 81.438122 419.105218 
L 82.338275 414.509919 
L 83.238428 409.725429 
L 84.138581 405.168847 
L 85.038735 400.276809 
L 85.938888 395.757996 
L 86.839041 391.2703 
L 87.739194 387.005009 
L 88.639347 383.247344 
L 89.539501 379.556929 
L 90.439654 375.965679 
L 91.339807 372.628786 
L 92.23996 368.879715 
L 93.140114 365.541178 
L 94.040267 362.992495 
L 94.94042 360.437462 
L 95.840573 357.19655 
L 96.740727 355.214111 
L 97.64088 353.0489 
L 98.541033 350.809348 
L 99.441186 349.259559 
L 100.34134 348.023321 
L 101.241493 346.309204 
L 102.141646 344.993398 
L 103.041799 343.496023 
L 103.941952 342.470271 
L 104.842106 341.292707 
L 105.742259 340.133297 
L 106.642412 339.164321 
L 107.542565 338.1836 
L 108.442719 337.244601 
L 109.342872 336.517066 
L 110.243025 335.660361 
L 111.143178 334.648801 
L 112.043332 334.149191 
L 112.943485 333.555395 
L 113.843638 333.027876 
L 114.743791 332.582747 
L 115.643945 332.141628 
L 116.544098 331.583433 
L 117.444251 331.308358 
L 118.344404 330.842696 
L 119.244558 330.560513 
L 120.144711 330.119743 
L 121.044864 329.867612 
L 121.945017 329.587316 
L 122.84517 329.203943 
L 123.745324 329.133751 
L 124.645477 329.135805 
L 125.54563 328.844714 
L 126.445783 328.641214 
L 127.345937 328.468567 
L 128.24609 328.164864 
L 129.146243 328.279309 
L 130.046396 327.798426 
L 130.94655 327.80674 
L 131.846703 327.775575 
L 132.746856 327.546245 
L 133.647009 327.302881 
L 134.547163 327.268667 
L 135.447316 327.197126 
L 136.347469 327.119701 
L 137.247622 326.918393 
L 138.147775 326.884523 
L 139.047929 326.846117 
L 139.948082 326.680349 
L 140.848235 326.697341 
L 141.748388 326.640986 
L 142.648542 326.526873 
L 143.548695 326.511421 
L 144.448848 326.46787 
L 145.349001 326.365214 
L 146.249155 326.303218 
L 147.149308 326.35584 
L 148.049461 326.226064 
L 148.949614 326.175821 
L 149.849768 326.167965 
L 150.749921 326.105923 
L 151.650074 326.125086 
L 152.550227 326.063481 
L 153.450381 326.110981 
L 154.350534 325.9874 
L 155.250687 325.983225 
L 156.15084 325.920853 
L 157.050993 325.905666 
L 157.951147 325.854389 
L 158.8513 325.923746 
L 159.751453 325.855079 
L 160.651606 325.854904 
L 161.55176 325.833061 
L 162.451913 325.835329 
L 163.352066 325.8748 
L 164.252219 325.83618 
L 165.152373 325.797409 
L 166.052526 325.775168 
L 166.952679 325.830755 
L 167.852832 325.794836 
L 168.752986 325.727055 
L 169.653139 325.701862 
L 170.553292 325.749679 
L 171.453445 325.684561 
L 172.353598 325.681954 
L 173.253752 325.62027 
L 174.153905 325.72511 
L 175.054058 325.666188 
L 175.954211 325.68903 
L 176.854365 325.618305 
L 177.754518 325.576138 
L 178.654671 325.576414 
L 179.554824 325.596532 
L 180.454978 325.551662 
L 181.355131 325.571928 
L 182.255284 325.575602 
L 183.155437 325.574947 
L 184.055591 325.551665 
L 184.955744 325.578339 
L 185.855897 325.536974 
L 186.75605 325.536407 
L 187.656204 325.492992 
L 188.556357 325.580403 
L 189.45651 325.558381 
L 190.356663 325.558949 
L 191.256816 325.537543 
L 192.15697 325.537541 
L 193.057123 325.556498 
L 193.957276 325.558949 
L 194.857429 325.538296 
L 195.757583 325.536884 
L 196.657736 325.495265 
L 197.557889 325.53518 
L 198.458042 325.469653 
L 199.358196 325.443929 
L 200.258349 325.506468 
L 201.158502 325.468514 
L 202.058655 325.425931 
L 202.958809 325.426985 
L 203.858962 325.407326 
L 204.759115 325.447484 
L 205.659268 325.364506 
L 206.559421 325.410288 
L 207.459575 325.367413 
L 208.359728 325.365684 
L 209.259881 325.366356 
L 210.160034 325.373045 
L 211.060188 325.347166 
L 211.960341 325.320587 
L 212.860494 325.338879 
L 213.760647 325.296689 
L 214.660801 325.297367 
L 215.560954 325.276262 
L 216.461107 325.269439 
L 217.36126 325.323192 
L 218.261414 325.249117 
L 219.161567 325.297946 
L 220.06172 325.245318 
L 220.961873 325.295334 
L 221.862027 325.256184 
L 222.76218 325.235877 
L 223.662333 325.234616 
L 224.562486 325.212408 
L 225.462639 325.212505 
L 226.362793 325.23305 
L 227.262946 325.211339 
L 228.163099 325.22925 
L 229.063252 325.212408 
L 229.963406 325.191516 
L 230.863559 325.150612 
L 231.763712 325.19388 
L 232.663865 325.19388 
L 233.564019 325.194565 
L 234.464172 325.192023 
L 235.364325 325.171684 
L 236.264478 325.191338 
L 237.164632 325.193779 
L 238.064785 325.195249 
L 238.964938 325.193779 
L 239.865091 325.193977 
L 240.765244 325.194565 
L 241.665398 325.192708 
L 242.565551 325.171098 
L 243.465704 325.194464 
L 244.365857 325.192023 
L 245.266011 325.192708 
L 246.166164 325.191923 
L 247.066317 325.172858 
L 247.96647 325.19388 
L 248.866624 325.193779 
L 249.766777 325.172273 
L 250.66693 325.148848 
L 251.567083 325.171 
L 252.467237 325.170313 
L 253.36739 325.171687 
L 254.267543 325.142723 
L 255.167696 325.1712 
L 256.06785 325.171098 
L 256.968003 325.148749 
L 257.868156 325.147572 
L 258.768309 325.147572 
L 259.668462 325.128842 
L 260.568616 325.107681 
L 260.568616 324.292 
L 260.568616 324.292 
L 259.668462 324.307209 
L 258.768309 324.327053 
L 257.868156 324.327053 
L 256.968003 324.328081 
L 256.06785 324.344306 
L 255.167696 324.344205 
L 254.267543 324.336311 
L 253.36739 324.34482 
L 252.467237 324.34399 
L 251.567083 324.344404 
L 250.66693 324.327981 
L 249.766777 324.345336 
L 248.866624 324.361302 
L 247.96647 324.361202 
L 247.066317 324.345852 
L 246.166164 324.359853 
L 245.266011 324.360169 
L 244.365857 324.359752 
L 243.465704 324.361719 
L 242.565551 324.344306 
L 241.665398 324.360169 
L 240.765244 324.361619 
L 239.865091 324.361104 
L 238.964938 324.361302 
L 238.064785 324.362036 
L 237.164632 324.361302 
L 236.264478 324.359335 
L 235.364325 324.344822 
L 234.464172 324.359752 
L 233.564019 324.361619 
L 232.663865 324.361202 
L 231.763712 324.361202 
L 230.863559 324.329524 
L 229.963406 324.365769 
L 229.063252 324.381248 
L 228.163099 324.399674 
L 227.262946 324.380113 
L 226.362793 324.402486 
L 225.462639 324.38115 
L 224.562486 324.381248 
L 223.662333 324.397615 
L 222.76218 324.398557 
L 221.862027 324.413518 
L 220.961873 324.449315 
L 220.06172 324.424385 
L 219.161567 324.45111 
L 218.261414 324.427198 
L 217.36126 324.464438 
L 216.461107 324.442144 
L 215.560954 324.435322 
L 214.660801 324.450587 
L 213.760647 324.450163 
L 212.860494 324.488428 
L 211.960341 324.462636 
L 211.060188 324.476835 
L 210.160034 324.490631 
L 209.259881 324.497321 
L 208.359728 324.496891 
L 207.459575 324.498468 
L 206.559421 324.531639 
L 205.659268 324.502475 
L 204.759115 324.572695 
L 203.858962 324.535704 
L 202.958809 324.556823 
L 202.058655 324.555673 
L 201.158502 324.589138 
L 200.258349 324.625027 
L 199.358196 324.576249 
L 198.458042 324.590201 
L 197.557889 324.635992 
L 196.657736 324.604267 
L 195.757583 324.637594 
L 194.857429 324.638385 
L 193.957276 324.655205 
L 193.057123 324.653249 
L 192.15697 324.638038 
L 191.256816 324.638036 
L 190.356663 324.655205 
L 189.45651 324.654671 
L 188.556357 324.672326 
L 187.656204 324.603234 
L 186.75605 324.636969 
L 185.855897 324.637503 
L 184.955744 324.671083 
L 184.055591 324.661386 
L 183.155437 324.679985 
L 182.255284 324.680431 
L 181.355131 324.677494 
L 180.454978 324.661388 
L 179.554824 324.691464 
L 178.654671 324.675211 
L 177.754518 324.675487 
L 176.854365 324.709368 
L 175.954211 324.760978 
L 175.054058 324.74194 
L 174.153905 324.796538 
L 173.253752 324.710708 
L 172.353598 324.761442 
L 171.453445 324.763243 
L 170.553292 324.811645 
L 169.653139 324.783414 
L 168.752986 324.797898 
L 167.852832 324.843637 
L 166.952679 324.884867 
L 166.052526 324.826934 
L 165.152373 324.845471 
L 164.252219 324.87834 
L 163.352066 324.916869 
L 162.451913 324.883599 
L 161.55176 324.886969 
L 160.651606 324.900394 
L 159.751453 324.900219 
L 158.8513 324.952785 
L 157.951147 324.905316 
L 157.050993 324.92678 
L 156.15084 324.95127 
L 155.250687 325.004622 
L 154.350534 325.036817 
L 153.450381 325.106108 
L 152.550227 325.075357 
L 151.650074 325.134985 
L 150.749921 325.117778 
L 149.849768 325.168153 
L 148.949614 325.19777 
L 148.049461 325.225778 
L 147.149308 325.32745 
L 146.249155 325.263245 
L 145.349001 325.320278 
L 144.448848 325.410494 
L 143.548695 325.440788 
L 142.648542 325.466114 
L 141.748388 325.548181 
L 140.848235 325.603142 
L 139.948082 325.581558 
L 139.047929 325.727693 
L 138.147775 325.766435 
L 137.247622 325.809715 
L 136.347469 325.956679 
L 135.447316 326.031349 
L 134.547163 326.116309 
L 133.647009 326.126178 
L 132.746856 326.228885 
L 131.846703 326.458041 
L 130.94655 326.506229 
L 130.046396 326.478171 
L 129.146243 326.767679 
L 128.24609 326.692556 
L 127.345937 326.927797 
L 126.445783 327.063747 
L 125.54563 327.244891 
L 124.645477 327.496047 
L 123.745324 327.50141 
L 122.84517 327.549144 
L 121.945017 327.820438 
L 121.044864 328.004137 
L 120.144711 328.218209 
L 119.244558 328.544523 
L 118.344404 328.804586 
L 117.444251 329.155605 
L 116.544098 329.379798 
L 115.643945 329.862015 
L 114.743791 330.313621 
L 113.843638 330.713826 
L 112.943485 331.230026 
L 112.043332 331.760403 
L 111.143178 332.222956 
L 110.243025 332.943947 
L 109.342872 333.593856 
L 108.442719 334.296888 
L 107.542565 335.057379 
L 106.642412 335.740873 
L 105.742259 336.630093 
L 104.842106 337.478766 
L 103.941952 338.348962 
L 103.041799 339.217772 
L 102.141646 340.348981 
L 101.241493 341.467786 
L 100.34134 342.881518 
L 99.441186 343.924489 
L 98.541033 345.276617 
L 97.64088 346.898936 
L 96.740727 348.709112 
L 95.840573 350.283251 
L 94.94042 353.065492 
L 94.040267 355.284893 
L 93.140114 357.523871 
L 92.23996 360.276819 
L 91.339807 363.545018 
L 90.439654 366.657806 
L 89.539501 370.00227 
L 88.639347 373.49445 
L 87.739194 377.208135 
L 86.839041 381.348806 
L 85.938888 385.842381 
L 85.038735 390.126296 
L 84.138581 394.794155 
L 83.238428 399.49658 
L 82.338275 404.270883 
L 81.438122 409.039295 
L 80.537968 415.060564 
L 79.637815 422.936044 
L 78.737662 430.247614 
L 77.837509 436.310891 
L 76.937355 441.953052 
L 76.037202 446.394377 
L 75.137049 450.537079 
L 74.236896 453.675248 
L 73.336742 456.36798 
L 72.436589 458.399866 
L 71.536436 460.014928 
L 70.636283 461.116151 
L 69.736129 463.104764 
L 68.835976 465.883686 
L 67.935823 468.733273 
L 67.03567 471.221486 
L 66.135517 475.114165 
L 65.235363 478.801005 
L 64.33521 484.047764 
L 63.435057 489.970371 
L 62.534904 495.906771 
L 61.63475 501.516786 
L 60.734597 506.79203 
L 59.834444 511.995094 
L 58.934291 515.198215 
L 58.034137 518.006639 
L 57.133984 520.016308 
L 56.233831 521.222643 
L 55.333678 522.090337 
L 54.433524 523.033895 
L 53.533371 523.749643 
L 52.633218 523.954128 
L 51.733065 524.050148 
L 50.832912 524.050148 
L 49.932758 524.050148 
L 49.032605 524.050148 
L 48.132452 524.050148 
L 47.232299 524.050148 
L 46.332145 524.050148 
L 45.431992 524.050148 
L 44.531839 524.050148 
z
" clip-path="url(#p3cf653805a)" style="fill-opacity: 0.3"/>
   </g>
   <g id="matplotlib.axis_3">
    <g id="xtick_8">
     <g id="line2d_16">
      <g>
       <use xlink:href="#m9807c87525" x="44.531839" y="534.04" style="stroke: #000000; stroke-width: 0.8"/>
      </g>
     </g>
     <g id="text_16">
      <!-- 0 -->
      <g transform="translate(41.350589 548.638438)scale(0.1 -0.1)">
       <use xlink:href="#DejaVuSans-30"/>
      </g>
     </g>
    </g>
    <g id="xtick_9">
     <g id="line2d_17">
      <g>
       <use xlink:href="#m9807c87525" x="80.537968" y="534.04" style="stroke: #000000; stroke-width: 0.8"/>
      </g>
     </g>
     <g id="text_17">
      <!-- 2000 -->
      <g transform="translate(67.812968 548.638438)scale(0.1 -0.1)">
       <use xlink:href="#DejaVuSans-32"/>
       <use xlink:href="#DejaVuSans-30" x="63.623047"/>
       <use xlink:href="#DejaVuSans-30" x="127.246094"/>
       <use xlink:href="#DejaVuSans-30" x="190.869141"/>
      </g>
     </g>
    </g>
    <g id="xtick_10">
     <g id="line2d_18">
      <g>
       <use xlink:href="#m9807c87525" x="116.544098" y="534.04" style="stroke: #000000; stroke-width: 0.8"/>
      </g>
     </g>
     <g id="text_18">
      <!-- 4000 -->
      <g transform="translate(103.819098 548.638438)scale(0.1 -0.1)">
       <use xlink:href="#DejaVuSans-34"/>
       <use xlink:href="#DejaVuSans-30" x="63.623047"/>
       <use xlink:href="#DejaVuSans-30" x="127.246094"/>
       <use xlink:href="#DejaVuSans-30" x="190.869141"/>
      </g>
     </g>
    </g>
    <g id="xtick_11">
     <g id="line2d_19">
      <g>
       <use xlink:href="#m9807c87525" x="152.550227" y="534.04" style="stroke: #000000; stroke-width: 0.8"/>
      </g>
     </g>
     <g id="text_19">
      <!-- 6000 -->
      <g transform="translate(139.825227 548.638438)scale(0.1 -0.1)">
       <use xlink:href="#DejaVuSans-36"/>
       <use xlink:href="#DejaVuSans-30" x="63.623047"/>
       <use xlink:href="#DejaVuSans-30" x="127.246094"/>
       <use xlink:href="#DejaVuSans-30" x="190.869141"/>
      </g>
     </g>
    </g>
    <g id="xtick_12">
     <g id="line2d_20">
      <g>
       <use xlink:href="#m9807c87525" x="188.556357" y="534.04" style="stroke: #000000; stroke-width: 0.8"/>
      </g>
     </g>
     <g id="text_20">
      <!-- 8000 -->
      <g transform="translate(175.831357 548.638438)scale(0.1 -0.1)">
       <use xlink:href="#DejaVuSans-38"/>
       <use xlink:href="#DejaVuSans-30" x="63.623047"/>
       <use xlink:href="#DejaVuSans-30" x="127.246094"/>
       <use xlink:href="#DejaVuSans-30" x="190.869141"/>
      </g>
     </g>
    </g>
    <g id="xtick_13">
     <g id="line2d_21">
      <g>
       <use xlink:href="#m9807c87525" x="224.562486" y="534.04" style="stroke: #000000; stroke-width: 0.8"/>
      </g>
     </g>
     <g id="text_21">
      <!-- 10000 -->
      <g transform="translate(208.656236 548.638438)scale(0.1 -0.1)">
       <use xlink:href="#DejaVuSans-31"/>
       <use xlink:href="#DejaVuSans-30" x="63.623047"/>
       <use xlink:href="#DejaVuSans-30" x="127.246094"/>
       <use xlink:href="#DejaVuSans-30" x="190.869141"/>
       <use xlink:href="#DejaVuSans-30" x="254.492188"/>
      </g>
     </g>
    </g>
    <g id="xtick_14">
     <g id="line2d_22">
      <g>
       <use xlink:href="#m9807c87525" x="260.568616" y="534.04" style="stroke: #000000; stroke-width: 0.8"/>
      </g>
     </g>
     <g id="text_22">
      <!-- 12000 -->
      <g transform="translate(244.662366 548.638438)scale(0.1 -0.1)">
       <use xlink:href="#DejaVuSans-31"/>
       <use xlink:href="#DejaVuSans-32" x="63.623047"/>
       <use xlink:href="#DejaVuSans-30" x="127.246094"/>
       <use xlink:href="#DejaVuSans-30" x="190.869141"/>
       <use xlink:href="#DejaVuSans-30" x="254.492188"/>
      </g>
     </g>
    </g>
    <g id="text_23">
     <!-- Epoch -->
     <g transform="translate(137.23929 562.316563)scale(0.1 -0.1)">
      <use xlink:href="#DejaVuSans-45"/>
      <use xlink:href="#DejaVuSans-70" x="63.183594"/>
      <use xlink:href="#DejaVuSans-6f" x="126.660156"/>
      <use xlink:href="#DejaVuSans-63" x="187.841797"/>
      <use xlink:href="#DejaVuSans-68" x="242.822266"/>
     </g>
    </g>
   </g>
   <g id="matplotlib.axis_4">
    <g id="ytick_7">
     <g id="line2d_23">
      <g>
       <use xlink:href="#mcecf6f680b" x="33.73" y="524.050148" style="stroke: #000000; stroke-width: 0.8"/>
      </g>
     </g>
     <g id="text_24">
      <!-- 0.5 -->
      <g transform="translate(10.826875 527.849367)scale(0.1 -0.1)">
       <defs>
        <path id="DejaVuSans-35" d="M 691 4666 
L 3169 4666 
L 3169 4134 
L 1269 4134 
L 1269 2991 
Q 1406 3038 1543 3061 
Q 1681 3084 1819 3084 
Q 2600 3084 3056 2656 
Q 3513 2228 3513 1497 
Q 3513 744 3044 326 
Q 2575 -91 1722 -91 
Q 1428 -91 1123 -41 
Q 819 9 494 109 
L 494 744 
Q 775 591 1075 516 
Q 1375 441 1709 441 
Q 2250 441 2565 725 
Q 2881 1009 2881 1497 
Q 2881 1984 2565 2268 
Q 2250 2553 1709 2553 
Q 1456 2553 1204 2497 
Q 953 2441 691 2322 
L 691 4666 
z
" transform="scale(0.015625)"/>
       </defs>
       <use xlink:href="#DejaVuSans-30"/>
       <use xlink:href="#DejaVuSans-2e" x="63.623047"/>
       <use xlink:href="#DejaVuSans-35" x="95.410156"/>
      </g>
     </g>
    </g>
    <g id="ytick_8">
     <g id="line2d_24">
      <g>
       <use xlink:href="#mcecf6f680b" x="33.73" y="483.932549" style="stroke: #000000; stroke-width: 0.8"/>
      </g>
     </g>
     <g id="text_25">
      <!-- 0.6 -->
      <g transform="translate(10.826875 487.731768)scale(0.1 -0.1)">
       <use xlink:href="#DejaVuSans-30"/>
       <use xlink:href="#DejaVuSans-2e" x="63.623047"/>
       <use xlink:href="#DejaVuSans-36" x="95.410156"/>
      </g>
     </g>
    </g>
    <g id="ytick_9">
     <g id="line2d_25">
      <g>
       <use xlink:href="#mcecf6f680b" x="33.73" y="443.81495" style="stroke: #000000; stroke-width: 0.8"/>
      </g>
     </g>
     <g id="text_26">
      <!-- 0.7 -->
      <g transform="translate(10.826875 447.614169)scale(0.1 -0.1)">
       <defs>
        <path id="DejaVuSans-37" d="M 525 4666 
L 3525 4666 
L 3525 4397 
L 1831 0 
L 1172 0 
L 2766 4134 
L 525 4134 
L 525 4666 
z
" transform="scale(0.015625)"/>
       </defs>
       <use xlink:href="#DejaVuSans-30"/>
       <use xlink:href="#DejaVuSans-2e" x="63.623047"/>
       <use xlink:href="#DejaVuSans-37" x="95.410156"/>
      </g>
     </g>
    </g>
    <g id="ytick_10">
     <g id="line2d_26">
      <g>
       <use xlink:href="#mcecf6f680b" x="33.73" y="403.697351" style="stroke: #000000; stroke-width: 0.8"/>
      </g>
     </g>
     <g id="text_27">
      <!-- 0.8 -->
      <g transform="translate(10.826875 407.49657)scale(0.1 -0.1)">
       <use xlink:href="#DejaVuSans-30"/>
       <use xlink:href="#DejaVuSans-2e" x="63.623047"/>
       <use xlink:href="#DejaVuSans-38" x="95.410156"/>
      </g>
     </g>
    </g>
    <g id="ytick_11">
     <g id="line2d_27">
      <g>
       <use xlink:href="#mcecf6f680b" x="33.73" y="363.579752" style="stroke: #000000; stroke-width: 0.8"/>
      </g>
     </g>
     <g id="text_28">
      <!-- 0.9 -->
      <g transform="translate(10.826875 367.378971)scale(0.1 -0.1)">
       <defs>
        <path id="DejaVuSans-39" d="M 703 97 
L 703 672 
Q 941 559 1184 500 
Q 1428 441 1663 441 
Q 2288 441 2617 861 
Q 2947 1281 2994 2138 
Q 2813 1869 2534 1725 
Q 2256 1581 1919 1581 
Q 1219 1581 811 2004 
Q 403 2428 403 3163 
Q 403 3881 828 4315 
Q 1253 4750 1959 4750 
Q 2769 4750 3195 4129 
Q 3622 3509 3622 2328 
Q 3622 1225 3098 567 
Q 2575 -91 1691 -91 
Q 1453 -91 1209 -44 
Q 966 3 703 97 
z
M 1959 2075 
Q 2384 2075 2632 2365 
Q 2881 2656 2881 3163 
Q 2881 3666 2632 3958 
Q 2384 4250 1959 4250 
Q 1534 4250 1286 3958 
Q 1038 3666 1038 3163 
Q 1038 2656 1286 2365 
Q 1534 2075 1959 2075 
z
" transform="scale(0.015625)"/>
       </defs>
       <use xlink:href="#DejaVuSans-30"/>
       <use xlink:href="#DejaVuSans-2e" x="63.623047"/>
       <use xlink:href="#DejaVuSans-39" x="95.410156"/>
      </g>
     </g>
    </g>
    <g id="ytick_12">
     <g id="line2d_28">
      <g>
       <use xlink:href="#mcecf6f680b" x="33.73" y="323.462153" style="stroke: #000000; stroke-width: 0.8"/>
      </g>
     </g>
     <g id="text_29">
      <!-- 1.0 -->
      <g transform="translate(10.826875 327.261372)scale(0.1 -0.1)">
       <use xlink:href="#DejaVuSans-31"/>
       <use xlink:href="#DejaVuSans-2e" x="63.623047"/>
       <use xlink:href="#DejaVuSans-30" x="95.410156"/>
      </g>
     </g>
    </g>
   </g>
   <g id="line2d_29">
    <path d="M 44.531839 524.050148 
L 52.633218 524.003064 
L 53.533371 523.869187 
L 54.433524 523.311555 
L 56.233831 521.720917 
L 57.133984 520.607925 
L 58.034137 518.803428 
L 58.934291 516.296077 
L 59.834444 513.432477 
L 62.534904 498.350937 
L 65.235363 481.375837 
L 67.03567 473.27003 
L 68.835976 467.494553 
L 69.736129 464.539072 
L 70.636283 462.442429 
L 71.536436 461.286259 
L 73.336742 457.726066 
L 75.137049 452.425362 
L 76.937355 444.87796 
L 78.737662 434.414304 
L 81.438122 414.072256 
L 86.839041 386.309553 
L 88.639347 378.370897 
L 90.439654 371.311742 
L 93.140114 361.532525 
L 94.94042 356.751477 
L 95.840573 353.7399 
L 97.64088 349.973918 
L 98.541033 348.042983 
L 99.441186 346.592024 
L 100.34134 345.45242 
L 101.241493 343.888495 
L 103.941952 340.409616 
L 106.642412 337.452597 
L 109.342872 335.055461 
L 111.143178 333.435879 
L 116.544098 330.481615 
L 117.444251 330.231981 
L 118.344404 329.823641 
L 122.84517 328.376543 
L 124.645477 328.315926 
L 126.445783 327.852481 
L 127.345937 327.698182 
L 128.24609 327.42871 
L 129.146243 327.523494 
L 130.046396 327.138298 
L 131.846703 327.116808 
L 133.647009 326.71453 
L 136.347469 326.53819 
L 137.247622 326.364054 
L 139.047929 326.286905 
L 139.948082 326.130953 
L 141.748388 326.094584 
L 143.548695 325.976105 
L 160.651606 325.377649 
L 173.253752 325.165489 
L 174.153905 325.260824 
L 177.754518 325.125813 
L 198.458042 325.029927 
L 203.858962 324.971515 
L 204.759115 325.010089 
L 205.659268 324.933491 
L 207.459575 324.93294 
L 229.063252 324.796828 
L 235.364325 324.758253 
L 241.665398 324.776439 
L 247.066317 324.759355 
L 251.567083 324.757702 
L 260.568616 324.699841 
L 260.568616 324.699841 
" clip-path="url(#p3cf653805a)" style="fill: none; stroke: #000000; stroke-width: 1.5; stroke-linecap: square"/>
   </g>
   <g id="line2d_30">
    <g clip-path="url(#p3cf653805a)">
     <use xlink:href="#me95908b7b8" x="44.531839" y="524.050148" style="fill-opacity: 0; stroke: #ff0000"/>
     <use xlink:href="#me95908b7b8" x="62.534904" y="498.350937" style="fill-opacity: 0; stroke: #ff0000"/>
     <use xlink:href="#me95908b7b8" x="80.537968" y="419.962599" style="fill-opacity: 0; stroke: #ff0000"/>
     <use xlink:href="#me95908b7b8" x="134.547163" y="326.692488" style="fill-opacity: 0; stroke: #ff0000"/>
    </g>
   </g>
   <g id="patch_8">
    <path d="M 33.73 534.04 
L 33.73 314.304 
" style="fill: none; stroke: #000000; stroke-width: 0.8; stroke-linejoin: miter; stroke-linecap: square"/>
   </g>
   <g id="patch_9">
    <path d="M 271.370455 534.04 
L 271.370455 314.304 
" style="fill: none; stroke: #000000; stroke-width: 0.8; stroke-linejoin: miter; stroke-linecap: square"/>
   </g>
   <g id="patch_10">
    <path d="M 33.73 534.04 
L 271.370455 534.04 
" style="fill: none; stroke: #000000; stroke-width: 0.8; stroke-linejoin: miter; stroke-linecap: square"/>
   </g>
   <g id="patch_11">
    <path d="M 33.73 314.304 
L 271.370455 314.304 
" style="fill: none; stroke: #000000; stroke-width: 0.8; stroke-linejoin: miter; stroke-linecap: square"/>
   </g>
   <g id="text_30">
    <!-- Fraction of correctly classified outputs, -->
    <g transform="translate(36.300227 294.866625)scale(0.12 -0.12)">
     <defs>
      <path id="DejaVuSans-46" d="M 628 4666 
L 3309 4666 
L 3309 4134 
L 1259 4134 
L 1259 2759 
L 3109 2759 
L 3109 2228 
L 1259 2228 
L 1259 0 
L 628 0 
L 628 4666 
z
" transform="scale(0.015625)"/>
      <path id="DejaVuSans-72" d="M 2631 2963 
Q 2534 3019 2420 3045 
Q 2306 3072 2169 3072 
Q 1681 3072 1420 2755 
Q 1159 2438 1159 1844 
L 1159 0 
L 581 0 
L 581 3500 
L 1159 3500 
L 1159 2956 
Q 1341 3275 1631 3429 
Q 1922 3584 2338 3584 
Q 2397 3584 2469 3576 
Q 2541 3569 2628 3553 
L 2631 2963 
z
" transform="scale(0.015625)"/>
      <path id="DejaVuSans-61" d="M 2194 1759 
Q 1497 1759 1228 1600 
Q 959 1441 959 1056 
Q 959 750 1161 570 
Q 1363 391 1709 391 
Q 2188 391 2477 730 
Q 2766 1069 2766 1631 
L 2766 1759 
L 2194 1759 
z
M 3341 1997 
L 3341 0 
L 2766 0 
L 2766 531 
Q 2569 213 2275 61 
Q 1981 -91 1556 -91 
Q 1019 -91 701 211 
Q 384 513 384 1019 
Q 384 1609 779 1909 
Q 1175 2209 1959 2209 
L 2766 2209 
L 2766 2266 
Q 2766 2663 2505 2880 
Q 2244 3097 1772 3097 
Q 1472 3097 1187 3025 
Q 903 2953 641 2809 
L 641 3341 
Q 956 3463 1253 3523 
Q 1550 3584 1831 3584 
Q 2591 3584 2966 3190 
Q 3341 2797 3341 1997 
z
" transform="scale(0.015625)"/>
      <path id="DejaVuSans-74" d="M 1172 4494 
L 1172 3500 
L 2356 3500 
L 2356 3053 
L 1172 3053 
L 1172 1153 
Q 1172 725 1289 603 
Q 1406 481 1766 481 
L 2356 481 
L 2356 0 
L 1766 0 
Q 1100 0 847 248 
Q 594 497 594 1153 
L 594 3053 
L 172 3053 
L 172 3500 
L 594 3500 
L 594 4494 
L 1172 4494 
z
" transform="scale(0.015625)"/>
      <path id="DejaVuSans-69" d="M 603 3500 
L 1178 3500 
L 1178 0 
L 603 0 
L 603 3500 
z
M 603 4863 
L 1178 4863 
L 1178 4134 
L 603 4134 
L 603 4863 
z
" transform="scale(0.015625)"/>
      <path id="DejaVuSans-6e" d="M 3513 2113 
L 3513 0 
L 2938 0 
L 2938 2094 
Q 2938 2591 2744 2837 
Q 2550 3084 2163 3084 
Q 1697 3084 1428 2787 
Q 1159 2491 1159 1978 
L 1159 0 
L 581 0 
L 581 3500 
L 1159 3500 
L 1159 2956 
Q 1366 3272 1645 3428 
Q 1925 3584 2291 3584 
Q 2894 3584 3203 3211 
Q 3513 2838 3513 2113 
z
" transform="scale(0.015625)"/>
      <path id="DejaVuSans-20" transform="scale(0.015625)"/>
      <path id="DejaVuSans-66" d="M 2375 4863 
L 2375 4384 
L 1825 4384 
Q 1516 4384 1395 4259 
Q 1275 4134 1275 3809 
L 1275 3500 
L 2222 3500 
L 2222 3053 
L 1275 3053 
L 1275 0 
L 697 0 
L 697 3053 
L 147 3053 
L 147 3500 
L 697 3500 
L 697 3744 
Q 697 4328 969 4595 
Q 1241 4863 1831 4863 
L 2375 4863 
z
" transform="scale(0.015625)"/>
      <path id="DejaVuSans-65" d="M 3597 1894 
L 3597 1613 
L 953 1613 
Q 991 1019 1311 708 
Q 1631 397 2203 397 
Q 2534 397 2845 478 
Q 3156 559 3463 722 
L 3463 178 
Q 3153 47 2828 -22 
Q 2503 -91 2169 -91 
Q 1331 -91 842 396 
Q 353 884 353 1716 
Q 353 2575 817 3079 
Q 1281 3584 2069 3584 
Q 2775 3584 3186 3129 
Q 3597 2675 3597 1894 
z
M 3022 2063 
Q 3016 2534 2758 2815 
Q 2500 3097 2075 3097 
Q 1594 3097 1305 2825 
Q 1016 2553 972 2059 
L 3022 2063 
z
" transform="scale(0.015625)"/>
      <path id="DejaVuSans-6c" d="M 603 4863 
L 1178 4863 
L 1178 0 
L 603 0 
L 603 4863 
z
" transform="scale(0.015625)"/>
      <path id="DejaVuSans-79" d="M 2059 -325 
Q 1816 -950 1584 -1140 
Q 1353 -1331 966 -1331 
L 506 -1331 
L 506 -850 
L 844 -850 
Q 1081 -850 1212 -737 
Q 1344 -625 1503 -206 
L 1606 56 
L 191 3500 
L 800 3500 
L 1894 763 
L 2988 3500 
L 3597 3500 
L 2059 -325 
z
" transform="scale(0.015625)"/>
      <path id="DejaVuSans-64" d="M 2906 2969 
L 2906 4863 
L 3481 4863 
L 3481 0 
L 2906 0 
L 2906 525 
Q 2725 213 2448 61 
Q 2172 -91 1784 -91 
Q 1150 -91 751 415 
Q 353 922 353 1747 
Q 353 2572 751 3078 
Q 1150 3584 1784 3584 
Q 2172 3584 2448 3432 
Q 2725 3281 2906 2969 
z
M 947 1747 
Q 947 1113 1208 752 
Q 1469 391 1925 391 
Q 2381 391 2643 752 
Q 2906 1113 2906 1747 
Q 2906 2381 2643 2742 
Q 2381 3103 1925 3103 
Q 1469 3103 1208 2742 
Q 947 2381 947 1747 
z
" transform="scale(0.015625)"/>
      <path id="DejaVuSans-75" d="M 544 1381 
L 544 3500 
L 1119 3500 
L 1119 1403 
Q 1119 906 1312 657 
Q 1506 409 1894 409 
Q 2359 409 2629 706 
Q 2900 1003 2900 1516 
L 2900 3500 
L 3475 3500 
L 3475 0 
L 2900 0 
L 2900 538 
Q 2691 219 2414 64 
Q 2138 -91 1772 -91 
Q 1169 -91 856 284 
Q 544 659 544 1381 
z
M 1991 3584 
L 1991 3584 
z
" transform="scale(0.015625)"/>
      <path id="DejaVuSans-2c" d="M 750 794 
L 1409 794 
L 1409 256 
L 897 -744 
L 494 -744 
L 750 256 
L 750 794 
z
" transform="scale(0.015625)"/>
     </defs>
     <use xlink:href="#DejaVuSans-46"/>
     <use xlink:href="#DejaVuSans-72" x="50.269531"/>
     <use xlink:href="#DejaVuSans-61" x="91.382812"/>
     <use xlink:href="#DejaVuSans-63" x="152.662109"/>
     <use xlink:href="#DejaVuSans-74" x="207.642578"/>
     <use xlink:href="#DejaVuSans-69" x="246.851562"/>
     <use xlink:href="#DejaVuSans-6f" x="274.634766"/>
     <use xlink:href="#DejaVuSans-6e" x="335.816406"/>
     <use xlink:href="#DejaVuSans-20" x="399.195312"/>
     <use xlink:href="#DejaVuSans-6f" x="430.982422"/>
     <use xlink:href="#DejaVuSans-66" x="492.164062"/>
     <use xlink:href="#DejaVuSans-20" x="527.369141"/>
     <use xlink:href="#DejaVuSans-63" x="559.15625"/>
     <use xlink:href="#DejaVuSans-6f" x="614.136719"/>
     <use xlink:href="#DejaVuSans-72" x="675.318359"/>
     <use xlink:href="#DejaVuSans-72" x="714.681641"/>
     <use xlink:href="#DejaVuSans-65" x="753.544922"/>
     <use xlink:href="#DejaVuSans-63" x="815.068359"/>
     <use xlink:href="#DejaVuSans-74" x="870.048828"/>
     <use xlink:href="#DejaVuSans-6c" x="909.257812"/>
     <use xlink:href="#DejaVuSans-79" x="937.041016"/>
     <use xlink:href="#DejaVuSans-20" x="996.220703"/>
     <use xlink:href="#DejaVuSans-63" x="1028.007812"/>
     <use xlink:href="#DejaVuSans-6c" x="1082.988281"/>
     <use xlink:href="#DejaVuSans-61" x="1110.771484"/>
     <use xlink:href="#DejaVuSans-73" x="1172.050781"/>
     <use xlink:href="#DejaVuSans-73" x="1224.150391"/>
     <use xlink:href="#DejaVuSans-69" x="1276.25"/>
     <use xlink:href="#DejaVuSans-66" x="1304.033203"/>
     <use xlink:href="#DejaVuSans-69" x="1339.238281"/>
     <use xlink:href="#DejaVuSans-65" x="1367.021484"/>
     <use xlink:href="#DejaVuSans-64" x="1428.544922"/>
     <use xlink:href="#DejaVuSans-20" x="1492.021484"/>
     <use xlink:href="#DejaVuSans-6f" x="1523.808594"/>
     <use xlink:href="#DejaVuSans-75" x="1584.990234"/>
     <use xlink:href="#DejaVuSans-74" x="1648.369141"/>
     <use xlink:href="#DejaVuSans-70" x="1687.578125"/>
     <use xlink:href="#DejaVuSans-75" x="1751.054688"/>
     <use xlink:href="#DejaVuSans-74" x="1814.433594"/>
     <use xlink:href="#DejaVuSans-73" x="1853.642578"/>
     <use xlink:href="#DejaVuSans-2c" x="1905.742188"/>
    </g>
    <!-- inversely weighted by class frequency -->
    <g transform="translate(37.631477 308.304)scale(0.12 -0.12)">
     <defs>
      <path id="DejaVuSans-76" d="M 191 3500 
L 800 3500 
L 1894 563 
L 2988 3500 
L 3597 3500 
L 2284 0 
L 1503 0 
L 191 3500 
z
" transform="scale(0.015625)"/>
      <path id="DejaVuSans-77" d="M 269 3500 
L 844 3500 
L 1563 769 
L 2278 3500 
L 2956 3500 
L 3675 769 
L 4391 3500 
L 4966 3500 
L 4050 0 
L 3372 0 
L 2619 2869 
L 1863 0 
L 1184 0 
L 269 3500 
z
" transform="scale(0.015625)"/>
      <path id="DejaVuSans-67" d="M 2906 1791 
Q 2906 2416 2648 2759 
Q 2391 3103 1925 3103 
Q 1463 3103 1205 2759 
Q 947 2416 947 1791 
Q 947 1169 1205 825 
Q 1463 481 1925 481 
Q 2391 481 2648 825 
Q 2906 1169 2906 1791 
z
M 3481 434 
Q 3481 -459 3084 -895 
Q 2688 -1331 1869 -1331 
Q 1566 -1331 1297 -1286 
Q 1028 -1241 775 -1147 
L 775 -588 
Q 1028 -725 1275 -790 
Q 1522 -856 1778 -856 
Q 2344 -856 2625 -561 
Q 2906 -266 2906 331 
L 2906 616 
Q 2728 306 2450 153 
Q 2172 0 1784 0 
Q 1141 0 747 490 
Q 353 981 353 1791 
Q 353 2603 747 3093 
Q 1141 3584 1784 3584 
Q 2172 3584 2450 3431 
Q 2728 3278 2906 2969 
L 2906 3500 
L 3481 3500 
L 3481 434 
z
" transform="scale(0.015625)"/>
      <path id="DejaVuSans-62" d="M 3116 1747 
Q 3116 2381 2855 2742 
Q 2594 3103 2138 3103 
Q 1681 3103 1420 2742 
Q 1159 2381 1159 1747 
Q 1159 1113 1420 752 
Q 1681 391 2138 391 
Q 2594 391 2855 752 
Q 3116 1113 3116 1747 
z
M 1159 2969 
Q 1341 3281 1617 3432 
Q 1894 3584 2278 3584 
Q 2916 3584 3314 3078 
Q 3713 2572 3713 1747 
Q 3713 922 3314 415 
Q 2916 -91 2278 -91 
Q 1894 -91 1617 61 
Q 1341 213 1159 525 
L 1159 0 
L 581 0 
L 581 4863 
L 1159 4863 
L 1159 2969 
z
" transform="scale(0.015625)"/>
      <path id="DejaVuSans-71" d="M 947 1747 
Q 947 1113 1208 752 
Q 1469 391 1925 391 
Q 2381 391 2643 752 
Q 2906 1113 2906 1747 
Q 2906 2381 2643 2742 
Q 2381 3103 1925 3103 
Q 1469 3103 1208 2742 
Q 947 2381 947 1747 
z
M 2906 525 
Q 2725 213 2448 61 
Q 2172 -91 1784 -91 
Q 1150 -91 751 415 
Q 353 922 353 1747 
Q 353 2572 751 3078 
Q 1150 3584 1784 3584 
Q 2172 3584 2448 3432 
Q 2725 3281 2906 2969 
L 2906 3500 
L 3481 3500 
L 3481 -1331 
L 2906 -1331 
L 2906 525 
z
" transform="scale(0.015625)"/>
     </defs>
     <use xlink:href="#DejaVuSans-69"/>
     <use xlink:href="#DejaVuSans-6e" x="27.783203"/>
     <use xlink:href="#DejaVuSans-76" x="91.162109"/>
     <use xlink:href="#DejaVuSans-65" x="150.341797"/>
     <use xlink:href="#DejaVuSans-72" x="211.865234"/>
     <use xlink:href="#DejaVuSans-73" x="252.978516"/>
     <use xlink:href="#DejaVuSans-65" x="305.078125"/>
     <use xlink:href="#DejaVuSans-6c" x="366.601562"/>
     <use xlink:href="#DejaVuSans-79" x="394.384766"/>
     <use xlink:href="#DejaVuSans-20" x="453.564453"/>
     <use xlink:href="#DejaVuSans-77" x="485.351562"/>
     <use xlink:href="#DejaVuSans-65" x="567.138672"/>
     <use xlink:href="#DejaVuSans-69" x="628.662109"/>
     <use xlink:href="#DejaVuSans-67" x="656.445312"/>
     <use xlink:href="#DejaVuSans-68" x="719.921875"/>
     <use xlink:href="#DejaVuSans-74" x="783.300781"/>
     <use xlink:href="#DejaVuSans-65" x="822.509766"/>
     <use xlink:href="#DejaVuSans-64" x="884.033203"/>
     <use xlink:href="#DejaVuSans-20" x="947.509766"/>
     <use xlink:href="#DejaVuSans-62" x="979.296875"/>
     <use xlink:href="#DejaVuSans-79" x="1042.773438"/>
     <use xlink:href="#DejaVuSans-20" x="1101.953125"/>
     <use xlink:href="#DejaVuSans-63" x="1133.740234"/>
     <use xlink:href="#DejaVuSans-6c" x="1188.720703"/>
     <use xlink:href="#DejaVuSans-61" x="1216.503906"/>
     <use xlink:href="#DejaVuSans-73" x="1277.783203"/>
     <use xlink:href="#DejaVuSans-73" x="1329.882812"/>
     <use xlink:href="#DejaVuSans-20" x="1381.982422"/>
     <use xlink:href="#DejaVuSans-66" x="1413.769531"/>
     <use xlink:href="#DejaVuSans-72" x="1448.974609"/>
     <use xlink:href="#DejaVuSans-65" x="1487.837891"/>
     <use xlink:href="#DejaVuSans-71" x="1549.361328"/>
     <use xlink:href="#DejaVuSans-75" x="1612.837891"/>
     <use xlink:href="#DejaVuSans-65" x="1676.216797"/>
     <use xlink:href="#DejaVuSans-6e" x="1737.740234"/>
     <use xlink:href="#DejaVuSans-63" x="1801.119141"/>
     <use xlink:href="#DejaVuSans-79" x="1856.099609"/>
    </g>
   </g>
  </g>
 </g>
 <defs>
  <clipPath id="p5bf19fd4c2">
   <rect x="33.73" y="25.44" width="237.640455" height="219.736"/>
  </clipPath>
  <clipPath id="p3cf653805a">
   <rect x="33.73" y="314.304" width="237.640455" height="219.736"/>
  </clipPath>
 </defs>
</svg>
