<?xml version="1.0" encoding="utf-8" standalone="no"?>
<!DOCTYPE svg PUBLIC "-//W3C//DTD SVG 1.1//EN"
  "http://www.w3.org/Graphics/SVG/1.1/DTD/svg11.dtd">
<svg xmlns:xlink="http://www.w3.org/1999/xlink" width="504pt" height="432pt" viewBox="0 0 504 432" xmlns="http://www.w3.org/2000/svg" version="1.1">
 <metadata>
  <rdf:RDF xmlns:dc="http://purl.org/dc/elements/1.1/" xmlns:cc="http://creativecommons.org/ns#" xmlns:rdf="http://www.w3.org/1999/02/22-rdf-syntax-ns#">
   <cc:Work>
    <dc:type rdf:resource="http://purl.org/dc/dcmitype/StillImage"/>
    <dc:date>2022-05-16T11:46:12.908332</dc:date>
    <dc:format>image/svg+xml</dc:format>
    <dc:creator>
     <cc:Agent>
      <dc:title>Matplotlib v3.5.1, https://matplotlib.org/</dc:title>
     </cc:Agent>
    </dc:creator>
   </cc:Work>
  </rdf:RDF>
 </metadata>
 <defs>
  <style type="text/css">*{stroke-linejoin: round; stroke-linecap: butt}</style>
 </defs>
 <g id="figure_1">
  <g id="patch_1">
   <path d="M 0 432 
L 504 432 
L 504 0 
L 0 0 
z
" style="fill: #ffffff"/>
  </g>
  <g id="axes_1">
   <g id="patch_2">
    <path d="M 33.73 179.44 
L 493.2 179.44 
L 493.2 27.6 
L 33.73 27.6 
z
" style="fill: #ffffff"/>
   </g>
   <g id="PolyCollection_1">
    <defs>
     <path id="mf2511454c5" d="M 54.615 -259.479075 
L 54.615 -259.479075 
L 56.355417 -259.479075 
L 58.095833 -259.479075 
L 59.83625 -259.479075 
L 61.576667 -259.479075 
L 63.317083 -259.479075 
L 65.0575 -259.479075 
L 66.797917 -259.479075 
L 68.538333 -259.479075 
L 70.27875 -259.479075 
L 72.019167 -259.479075 
L 73.759583 -259.479075 
L 75.5 -259.479075 
L 77.240417 -259.479075 
L 78.980833 -259.479075 
L 80.72125 -259.461818 
L 82.461667 -259.544131 
L 84.202083 -259.73684 
L 85.9425 -260.103859 
L 87.682917 -260.399679 
L 89.423333 -260.74081 
L 91.16375 -260.968756 
L 92.904167 -261.27001 
L 94.644583 -261.488524 
L 96.385 -261.633741 
L 98.125417 -261.778826 
L 99.865833 -262.121572 
L 101.60625 -262.414589 
L 103.346667 -262.635245 
L 105.087083 -263.338762 
L 106.8275 -264.044511 
L 108.567917 -264.477705 
L 110.308333 -265.293849 
L 112.04875 -266.381503 
L 113.789167 -267.583122 
L 115.529583 -268.906415 
L 117.27 -270.888411 
L 119.010417 -272.666522 
L 120.750833 -274.373913 
L 122.49125 -276.116872 
L 124.231667 -277.836837 
L 125.972083 -279.92063 
L 127.7125 -282.077265 
L 129.452917 -284.288204 
L 131.193333 -286.535208 
L 132.93375 -288.472027 
L 134.674167 -290.336795 
L 136.414583 -292.191076 
L 138.155 -294.05779 
L 139.895417 -295.537481 
L 141.635833 -297.005081 
L 143.37625 -298.643501 
L 145.116667 -299.923267 
L 146.857083 -301.164402 
L 148.5975 -302.220508 
L 150.337917 -303.41165 
L 152.078333 -304.676526 
L 153.81875 -306.033348 
L 155.559167 -307.153393 
L 157.299583 -308.216604 
L 159.04 -309.142675 
L 160.780417 -310.315189 
L 162.520833 -311.444111 
L 164.26125 -312.596071 
L 166.001667 -313.734027 
L 167.742083 -315.203823 
L 169.4825 -316.946206 
L 171.222917 -318.48054 
L 172.963333 -320.040135 
L 174.70375 -321.824396 
L 176.444167 -323.575818 
L 178.184583 -325.401363 
L 179.925 -327.234948 
L 181.665417 -329.145438 
L 183.405833 -331.027965 
L 185.14625 -333.256805 
L 186.886667 -335.342248 
L 188.627083 -337.740814 
L 190.3675 -340.053019 
L 192.107917 -342.280295 
L 193.848333 -344.301867 
L 195.58875 -346.072272 
L 197.329167 -348.560119 
L 199.069583 -350.678016 
L 200.81 -352.796845 
L 202.550417 -354.835804 
L 204.290833 -356.680629 
L 206.03125 -358.460203 
L 207.771667 -360.340166 
L 209.512083 -362.396692 
L 211.2525 -364.142932 
L 212.992917 -366.052238 
L 214.733333 -367.560296 
L 216.47375 -369.077956 
L 218.214167 -370.474364 
L 219.954583 -372.1563 
L 221.695 -373.393365 
L 223.435417 -374.561013 
L 225.175833 -375.655938 
L 226.91625 -376.924964 
L 228.656667 -377.973018 
L 230.397083 -379.010417 
L 232.1375 -380.030035 
L 233.877917 -380.877322 
L 235.618333 -381.833511 
L 237.35875 -382.579909 
L 239.099167 -383.203484 
L 240.839583 -383.893117 
L 242.58 -384.691099 
L 244.320417 -385.323535 
L 246.060833 -386.062342 
L 247.80125 -386.663472 
L 249.541667 -387.305319 
L 251.282083 -387.738419 
L 253.0225 -388.361805 
L 254.762917 -388.862256 
L 256.503333 -389.275687 
L 258.24375 -389.734934 
L 259.984167 -390.102268 
L 261.724583 -390.529712 
L 263.465 -390.945443 
L 265.205417 -391.338057 
L 266.945833 -391.687361 
L 268.68625 -392.035301 
L 270.426667 -392.443886 
L 272.167083 -392.752427 
L 273.9075 -392.933342 
L 275.647917 -393.275103 
L 277.388333 -393.386604 
L 279.12875 -393.577134 
L 280.869167 -393.82307 
L 282.609583 -393.964962 
L 284.35 -394.196576 
L 286.090417 -394.319567 
L 287.830833 -394.431308 
L 289.57125 -394.563267 
L 291.311667 -394.677487 
L 293.052083 -394.789405 
L 294.7925 -394.889208 
L 296.532917 -395.030221 
L 298.273333 -395.043805 
L 300.01375 -395.173895 
L 301.754167 -395.241444 
L 303.494583 -395.325755 
L 305.235 -395.358079 
L 306.975417 -395.443221 
L 308.715833 -395.458399 
L 310.45625 -395.523967 
L 312.196667 -395.662286 
L 313.937083 -395.685903 
L 315.6775 -395.748538 
L 317.417917 -395.812415 
L 319.158333 -395.742559 
L 320.89875 -395.808393 
L 322.639167 -395.840595 
L 324.379583 -395.891528 
L 326.12 -395.910043 
L 327.860417 -395.986366 
L 329.600833 -395.98875 
L 331.34125 -396.021142 
L 333.081667 -396.092057 
L 334.822083 -396.108371 
L 336.5625 -396.174451 
L 338.302917 -396.203672 
L 340.043333 -396.206593 
L 341.78375 -396.275852 
L 343.524167 -396.297491 
L 345.264583 -396.300931 
L 347.005 -396.341564 
L 348.745417 -396.382063 
L 350.485833 -396.366236 
L 352.22625 -396.406895 
L 353.966667 -396.428931 
L 355.707083 -396.429426 
L 357.4475 -396.445137 
L 359.187917 -396.431915 
L 360.928333 -396.449076 
L 362.66875 -396.424073 
L 364.409167 -396.452231 
L 366.149583 -396.466167 
L 367.89 -396.49694 
L 369.630417 -396.482504 
L 371.370833 -396.526936 
L 373.11125 -396.542896 
L 374.851667 -396.570564 
L 376.592083 -396.619246 
L 378.3325 -396.626485 
L 380.072917 -396.656331 
L 381.813333 -396.646349 
L 383.55375 -396.637347 
L 385.294167 -396.675214 
L 387.034583 -396.669378 
L 388.775 -396.696048 
L 390.515417 -396.669971 
L 392.255833 -396.689612 
L 393.99625 -396.67081 
L 395.736667 -396.696471 
L 397.477083 -396.722557 
L 399.2175 -396.703112 
L 400.957917 -396.716312 
L 402.698333 -396.700519 
L 404.43875 -396.739636 
L 406.179167 -396.710299 
L 407.919583 -396.714566 
L 409.66 -396.697791 
L 411.400417 -396.739969 
L 413.140833 -396.741065 
L 414.88125 -396.753232 
L 416.621667 -396.745678 
L 418.362083 -396.758971 
L 420.1025 -396.779856 
L 421.842917 -396.772904 
L 423.583333 -396.753246 
L 425.32375 -396.795888 
L 427.064167 -396.770276 
L 428.804583 -396.813153 
L 430.545 -396.83707 
L 432.285417 -396.812817 
L 434.025833 -396.824168 
L 435.76625 -396.8566 
L 437.506667 -396.837608 
L 439.247083 -396.851087 
L 440.9875 -396.851084 
L 442.727917 -396.851087 
L 444.468333 -396.850446 
L 446.20875 -396.826587 
L 447.949167 -396.826587 
L 449.689583 -396.851426 
L 451.43 -396.827214 
L 453.170417 -396.850446 
L 454.910833 -396.851426 
L 456.65125 -396.848094 
L 458.391667 -396.827214 
L 460.132083 -396.871865 
L 461.8725 -396.827214 
L 463.612917 -396.871865 
L 465.353333 -396.872412 
L 467.09375 -396.871212 
L 468.834167 -396.872412 
L 470.574583 -396.872412 
L 472.315 -396.871865 
L 472.315 -397.247021 
L 472.315 -397.247021 
L 470.574583 -397.247233 
L 468.834167 -397.247233 
L 467.09375 -397.246915 
L 465.353333 -397.247233 
L 463.612917 -397.247021 
L 461.8725 -397.238537 
L 460.132083 -397.247021 
L 458.391667 -397.238537 
L 456.65125 -397.244984 
L 454.910833 -397.241652 
L 453.170417 -397.241114 
L 451.43 -397.238537 
L 449.689583 -397.241652 
L 447.949167 -397.238405 
L 446.20875 -397.238405 
L 444.468333 -397.241114 
L 442.727917 -397.241232 
L 440.9875 -397.241235 
L 439.247083 -397.241232 
L 437.506667 -397.228143 
L 435.76625 -397.233442 
L 434.025833 -397.215015 
L 432.285417 -397.224848 
L 430.545 -397.227922 
L 428.804583 -397.22527 
L 427.064167 -397.215012 
L 425.32375 -397.215209 
L 423.583333 -397.204715 
L 421.842917 -397.211624 
L 420.1025 -397.205432 
L 418.362083 -397.198231 
L 416.621667 -397.184957 
L 414.88125 -397.178921 
L 413.140833 -397.191846 
L 411.400417 -397.165616 
L 409.66 -397.154658 
L 407.919583 -397.165209 
L 406.179167 -397.14215 
L 404.43875 -397.16519 
L 402.698333 -397.151171 
L 400.957917 -397.161187 
L 399.2175 -397.147819 
L 397.477083 -397.154942 
L 395.736667 -397.127893 
L 393.99625 -397.126986 
L 392.255833 -397.133993 
L 390.515417 -397.126307 
L 388.775 -397.127557 
L 387.034583 -397.126142 
L 385.294167 -397.119547 
L 383.55375 -397.105037 
L 381.813333 -397.096035 
L 380.072917 -397.086813 
L 378.3325 -397.062764 
L 376.592083 -397.041918 
L 374.851667 -397.035946 
L 373.11125 -397.011996 
L 371.370833 -397.001388 
L 369.630417 -396.965358 
L 367.89 -396.975213 
L 366.149583 -396.953609 
L 364.409167 -396.967545 
L 362.66875 -396.942567 
L 360.928333 -396.941856 
L 359.187917 -396.933966 
L 357.4475 -396.943518 
L 355.707083 -396.932661 
L 353.966667 -396.931638 
L 352.22625 -396.902056 
L 350.485833 -396.886544 
L 348.745417 -396.897285 
L 347.005 -396.881613 
L 345.264583 -396.841784 
L 343.524167 -396.843683 
L 341.78375 -396.835718 
L 340.043333 -396.799465 
L 338.302917 -396.795554 
L 336.5625 -396.772399 
L 334.822083 -396.703364 
L 333.081667 -396.718159 
L 331.34125 -396.679766 
L 329.600833 -396.632455 
L 327.860417 -396.605995 
L 326.12 -396.576046 
L 324.379583 -396.561162 
L 322.639167 -396.531654 
L 320.89875 -396.535749 
L 319.158333 -396.491515 
L 317.417917 -396.498326 
L 315.6775 -396.477944 
L 313.937083 -396.425957 
L 312.196667 -396.393426 
L 310.45625 -396.34501 
L 308.715833 -396.299753 
L 306.975417 -396.279251 
L 305.235 -396.22622 
L 303.494583 -396.181897 
L 301.754167 -396.09767 
L 300.01375 -396.023291 
L 298.273333 -395.94008 
L 296.532917 -395.920264 
L 294.7925 -395.791042 
L 293.052083 -395.723848 
L 291.311667 -395.67408 
L 289.57125 -395.569684 
L 287.830833 -395.457979 
L 286.090417 -395.368184 
L 284.35 -395.282805 
L 282.609583 -395.09958 
L 280.869167 -394.979968 
L 279.12875 -394.768935 
L 277.388333 -394.590931 
L 275.647917 -394.458763 
L 273.9075 -394.248291 
L 272.167083 -394.08572 
L 270.426667 -393.833299 
L 268.68625 -393.476351 
L 266.945833 -393.176033 
L 265.205417 -392.878577 
L 263.465 -392.525012 
L 261.724583 -392.133839 
L 259.984167 -391.783983 
L 258.24375 -391.438915 
L 256.503333 -390.97322 
L 254.762917 -390.613143 
L 253.0225 -390.179922 
L 251.282083 -389.640016 
L 249.541667 -389.229393 
L 247.80125 -388.686694 
L 246.060833 -388.137055 
L 244.320417 -387.440434 
L 242.58 -386.84695 
L 240.839583 -386.137016 
L 239.099167 -385.437526 
L 237.35875 -384.925132 
L 235.618333 -384.278992 
L 233.877917 -383.381123 
L 232.1375 -382.701515 
L 230.397083 -381.75129 
L 228.656667 -380.836707 
L 226.91625 -379.87357 
L 225.175833 -378.828912 
L 223.435417 -377.892911 
L 221.695 -376.839863 
L 219.954583 -375.790568 
L 218.214167 -374.200856 
L 216.47375 -372.947685 
L 214.733333 -371.620301 
L 212.992917 -370.169857 
L 211.2525 -368.470863 
L 209.512083 -366.86006 
L 207.771667 -365.025906 
L 206.03125 -363.229251 
L 204.290833 -361.436179 
L 202.550417 -359.672324 
L 200.81 -357.66575 
L 199.069583 -355.552312 
L 197.329167 -353.463751 
L 195.58875 -351.088532 
L 193.848333 -349.306384 
L 192.107917 -347.222079 
L 190.3675 -344.864849 
L 188.627083 -342.506417 
L 186.886667 -339.980029 
L 185.14625 -337.71595 
L 183.405833 -335.455214 
L 181.665417 -333.476263 
L 179.925 -331.422422 
L 178.184583 -329.607741 
L 176.444167 -327.542943 
L 174.70375 -325.730475 
L 172.963333 -323.682415 
L 171.222917 -321.937701 
L 169.4825 -320.130173 
L 167.742083 -318.311299 
L 166.001667 -316.621281 
L 164.26125 -315.345587 
L 162.520833 -314.07873 
L 160.780417 -312.863154 
L 159.04 -311.532509 
L 157.299583 -310.54354 
L 155.559167 -309.435648 
L 153.81875 -308.30868 
L 152.078333 -306.999815 
L 150.337917 -305.844594 
L 148.5975 -304.884564 
L 146.857083 -303.870628 
L 145.116667 -302.569297 
L 143.37625 -301.338224 
L 141.635833 -299.887141 
L 139.895417 -298.468974 
L 138.155 -297.151455 
L 136.414583 -295.409409 
L 134.674167 -293.830772 
L 132.93375 -292.192668 
L 131.193333 -290.210939 
L 129.452917 -288.104494 
L 127.7125 -285.913142 
L 125.972083 -283.633867 
L 124.231667 -281.560609 
L 122.49125 -279.659978 
L 120.750833 -277.71171 
L 119.010417 -275.839288 
L 117.27 -273.705982 
L 115.529583 -271.32624 
L 113.789167 -269.710825 
L 112.04875 -268.323006 
L 110.308333 -267.138966 
L 108.567917 -266.152555 
L 106.8275 -265.604657 
L 105.087083 -264.765973 
L 103.346667 -263.872277 
L 101.60625 -263.45168 
L 99.865833 -262.950431 
L 98.125417 -262.285207 
L 96.385 -262.08491 
L 94.644583 -261.958008 
L 92.904167 -261.700716 
L 91.16375 -261.3265 
L 89.423333 -261.106009 
L 87.682917 -260.766036 
L 85.9425 -260.456425 
L 84.202083 -260.015132 
L 82.461667 -259.723979 
L 80.72125 -259.531755 
L 78.980833 -259.479075 
L 77.240417 -259.479075 
L 75.5 -259.479075 
L 73.759583 -259.479075 
L 72.019167 -259.479075 
L 70.27875 -259.479075 
L 68.538333 -259.479075 
L 66.797917 -259.479075 
L 65.0575 -259.479075 
L 63.317083 -259.479075 
L 61.576667 -259.479075 
L 59.83625 -259.479075 
L 58.095833 -259.479075 
L 56.355417 -259.479075 
L 54.615 -259.479075 
z
" style="stroke: #33ccff; stroke-opacity: 0.3"/>
    </defs>
    <g clip-path="url(#pdc5fad765e)">
     <use xlink:href="#mf2511454c5" x="0" y="432" style="fill: #33ccff; fill-opacity: 0.3; stroke: #33ccff; stroke-opacity: 0.3"/>
    </g>
   </g>
   <g id="PolyCollection_2">
    <defs>
     <path id="m849a36b0f2" d="M 54.615 -259.479075 
L 54.615 -259.479075 
L 56.355417 -259.479075 
L 58.095833 -259.479075 
L 59.83625 -259.479075 
L 61.576667 -259.479075 
L 63.317083 -259.479075 
L 65.0575 -259.479075 
L 66.797917 -259.479075 
L 68.538333 -259.479075 
L 70.27875 -259.479075 
L 72.019167 -259.479075 
L 73.759583 -259.479075 
L 75.5 -259.479075 
L 77.240417 -259.479075 
L 78.980833 -259.479075 
L 80.72125 -259.479075 
L 82.461667 -259.479075 
L 84.202083 -259.492026 
L 85.9425 -259.634684 
L 87.682917 -259.916035 
L 89.423333 -260.359987 
L 91.16375 -260.898983 
L 92.904167 -261.4043 
L 94.644583 -261.829617 
L 96.385 -262.303336 
L 98.125417 -262.640887 
L 99.865833 -262.898902 
L 101.60625 -263.225278 
L 103.346667 -263.488947 
L 105.087083 -263.780571 
L 106.8275 -264.173563 
L 108.567917 -264.582935 
L 110.308333 -265.080872 
L 112.04875 -265.65224 
L 113.789167 -266.033399 
L 115.529583 -266.485939 
L 117.27 -266.933781 
L 119.010417 -267.466248 
L 120.750833 -267.971254 
L 122.49125 -268.447536 
L 124.231667 -268.853222 
L 125.972083 -269.196018 
L 127.7125 -269.623833 
L 129.452917 -270.083123 
L 131.193333 -270.514796 
L 132.93375 -270.965381 
L 134.674167 -271.572414 
L 136.414583 -272.20526 
L 138.155 -272.846832 
L 139.895417 -273.669981 
L 141.635833 -274.78738 
L 143.37625 -275.932888 
L 145.116667 -277.182904 
L 146.857083 -278.626218 
L 148.5975 -280.361449 
L 150.337917 -282.197645 
L 152.078333 -284.7551 
L 153.81875 -287.809761 
L 155.559167 -291.054186 
L 157.299583 -294.411398 
L 159.04 -298.32236 
L 160.780417 -301.867588 
L 162.520833 -305.767173 
L 164.26125 -309.706894 
L 166.001667 -313.997016 
L 167.742083 -317.947035 
L 169.4825 -321.981319 
L 171.222917 -326.336909 
L 172.963333 -330.078196 
L 174.70375 -334.041537 
L 176.444167 -337.680027 
L 178.184583 -341.243122 
L 179.925 -344.483372 
L 181.665417 -347.941604 
L 183.405833 -351.205012 
L 185.14625 -354.320842 
L 186.886667 -357.348188 
L 188.627083 -359.54307 
L 190.3675 -361.652719 
L 192.107917 -364.065813 
L 193.848333 -366.013929 
L 195.58875 -367.920104 
L 197.329167 -369.367257 
L 199.069583 -371.014009 
L 200.81 -372.3979 
L 202.550417 -373.852506 
L 204.290833 -375.013124 
L 206.03125 -376.264366 
L 207.771667 -377.511871 
L 209.512083 -378.606085 
L 211.2525 -379.734429 
L 212.992917 -381.079104 
L 214.733333 -382.093353 
L 216.47375 -382.995022 
L 218.214167 -383.980319 
L 219.954583 -384.73464 
L 221.695 -385.459759 
L 223.435417 -386.083666 
L 225.175833 -386.731956 
L 226.91625 -387.142751 
L 228.656667 -387.544003 
L 230.397083 -388.071114 
L 232.1375 -388.44506 
L 233.877917 -388.839815 
L 235.618333 -389.200314 
L 237.35875 -389.494524 
L 239.099167 -389.833132 
L 240.839583 -390.188888 
L 242.58 -390.466519 
L 244.320417 -390.792359 
L 246.060833 -391.080395 
L 247.80125 -391.194239 
L 249.541667 -391.517343 
L 251.282083 -391.628227 
L 253.0225 -391.843791 
L 254.762917 -392.068468 
L 256.503333 -392.28281 
L 258.24375 -392.606371 
L 259.984167 -392.669082 
L 261.724583 -392.866984 
L 263.465 -393.07781 
L 265.205417 -393.200012 
L 266.945833 -393.438274 
L 268.68625 -393.627166 
L 270.426667 -393.68065 
L 272.167083 -393.780789 
L 273.9075 -393.893644 
L 275.647917 -394.075118 
L 277.388333 -394.32876 
L 279.12875 -394.510024 
L 280.869167 -394.607375 
L 282.609583 -394.637737 
L 284.35 -394.753429 
L 286.090417 -394.848227 
L 287.830833 -394.940737 
L 289.57125 -395.02972 
L 291.311667 -395.066698 
L 293.052083 -395.318281 
L 294.7925 -395.39267 
L 296.532917 -395.499993 
L 298.273333 -395.67671 
L 300.01375 -395.689348 
L 301.754167 -395.870038 
L 303.494583 -395.893548 
L 305.235 -395.986236 
L 306.975417 -396.016377 
L 308.715833 -396.066438 
L 310.45625 -396.165101 
L 312.196667 -396.158235 
L 313.937083 -396.277031 
L 315.6775 -396.276062 
L 317.417917 -396.277339 
L 319.158333 -396.388139 
L 320.89875 -396.472678 
L 322.639167 -396.470664 
L 324.379583 -396.556788 
L 326.12 -396.545095 
L 327.860417 -396.5957 
L 329.600833 -396.710621 
L 331.34125 -396.753568 
L 333.081667 -396.695359 
L 334.822083 -396.774982 
L 336.5625 -396.761775 
L 338.302917 -396.783049 
L 340.043333 -396.838962 
L 341.78375 -396.86519 
L 343.524167 -396.82316 
L 345.264583 -396.894508 
L 347.005 -396.895473 
L 348.745417 -396.882841 
L 350.485833 -396.924348 
L 352.22625 -396.868912 
L 353.966667 -396.91461 
L 355.707083 -396.969067 
L 357.4475 -396.956704 
L 359.187917 -397.004916 
L 360.928333 -397.006362 
L 362.66875 -397.020178 
L 364.409167 -396.992258 
L 366.149583 -396.974453 
L 367.89 -397.04076 
L 369.630417 -397.023298 
L 371.370833 -396.994388 
L 373.11125 -397.021017 
L 374.851667 -397.082937 
L 376.592083 -397.083157 
L 378.3325 -397.040935 
L 380.072917 -397.117542 
L 381.813333 -397.080871 
L 383.55375 -397.107069 
L 385.294167 -397.132557 
L 387.034583 -397.1316 
L 388.775 -397.133411 
L 390.515417 -397.096063 
L 392.255833 -397.113058 
L 393.99625 -397.164521 
L 395.736667 -397.165162 
L 397.477083 -397.165591 
L 399.2175 -397.166871 
L 400.957917 -397.150081 
L 402.698333 -397.166978 
L 404.43875 -397.11665 
L 406.179167 -397.1673 
L 407.919583 -397.1673 
L 409.66 -397.100747 
L 411.400417 -397.168581 
L 413.140833 -397.117293 
L 414.88125 -397.117618 
L 416.621667 -397.168581 
L 418.362083 -397.128007 
L 420.1025 -397.117522 
L 421.842917 -397.169968 
L 423.583333 -397.152956 
L 425.32375 -397.169968 
L 427.064167 -397.146329 
L 428.804583 -397.170608 
L 430.545 -397.119641 
L 432.285417 -397.170608 
L 434.025833 -397.171134 
L 435.76625 -397.120284 
L 437.506667 -397.12051 
L 439.247083 -397.120928 
L 440.9875 -397.171996 
L 442.727917 -397.171996 
L 444.468333 -397.121343 
L 446.20875 -397.185831 
L 447.949167 -397.18551 
L 449.689583 -397.186152 
L 451.43 -397.185717 
L 453.170417 -397.186259 
L 454.910833 -397.161854 
L 456.65125 -397.135464 
L 458.391667 -397.199935 
L 460.132083 -397.200372 
L 461.8725 -397.176152 
L 463.612917 -397.17583 
L 465.353333 -397.200257 
L 467.09375 -397.20069 
L 468.834167 -397.201127 
L 470.574583 -397.201449 
L 472.315 -397.20177 
L 472.315 -397.498182 
L 472.315 -397.498182 
L 470.574583 -397.497811 
L 468.834167 -397.497441 
L 467.09375 -397.497185 
L 465.353333 -397.496925 
L 463.612917 -397.497116 
L 461.8725 -397.497486 
L 460.132083 -397.496811 
L 458.391667 -397.496555 
L 456.65125 -397.488314 
L 454.910833 -397.485469 
L 453.170417 -397.485301 
L 451.43 -397.485151 
L 449.689583 -397.485409 
L 447.949167 -397.484666 
L 446.20875 -397.485037 
L 444.468333 -397.476121 
L 442.727917 -397.47325 
L 440.9875 -397.47325 
L 439.247083 -397.475843 
L 437.506667 -397.475568 
L 435.76625 -397.475102 
L 434.025833 -397.472727 
L 432.285417 -397.471869 
L 430.545 -397.474361 
L 428.804583 -397.471869 
L 427.064167 -397.47191 
L 425.32375 -397.471123 
L 423.583333 -397.463898 
L 421.842917 -397.471123 
L 420.1025 -397.472326 
L 418.362083 -397.462533 
L 416.621667 -397.469741 
L 414.88125 -397.47223 
L 413.140833 -397.471862 
L 411.400417 -397.469741 
L 409.66 -397.463478 
L 407.919583 -397.468252 
L 406.179167 -397.468252 
L 404.43875 -397.47112 
L 402.698333 -397.467882 
L 400.957917 -397.460542 
L 399.2175 -397.467989 
L 397.477083 -397.466499 
L 395.736667 -397.466236 
L 393.99625 -397.465492 
L 392.255833 -397.467788 
L 390.515417 -397.458468 
L 388.775 -397.446051 
L 387.034583 -397.443705 
L 385.294167 -397.444827 
L 383.55375 -397.442615 
L 381.813333 -397.444575 
L 380.072917 -397.431449 
L 378.3325 -397.408336 
L 376.592083 -397.414589 
L 374.851667 -397.414116 
L 373.11125 -397.401939 
L 371.370833 -397.377324 
L 369.630417 -397.373344 
L 367.89 -397.375272 
L 366.149583 -397.369559 
L 364.409167 -397.374607 
L 362.66875 -397.370231 
L 360.928333 -397.35704 
L 359.187917 -397.355716 
L 357.4475 -397.354067 
L 355.707083 -397.34032 
L 353.966667 -397.319987 
L 352.22625 -397.292281 
L 350.485833 -397.305401 
L 348.745417 -397.276967 
L 347.005 -397.283031 
L 345.264583 -397.28261 
L 343.524167 -397.278477 
L 341.78375 -397.259991 
L 340.043333 -397.234282 
L 338.302917 -397.214021 
L 336.5625 -397.18682 
L 334.822083 -397.194387 
L 333.081667 -397.176368 
L 331.34125 -397.162479 
L 329.600833 -397.125096 
L 327.860417 -397.069663 
L 326.12 -397.021934 
L 324.379583 -397.004008 
L 322.639167 -396.96756 
L 320.89875 -396.962775 
L 319.158333 -396.923358 
L 317.417917 -396.840951 
L 315.6775 -396.831147 
L 313.937083 -396.804555 
L 312.196667 -396.749534 
L 310.45625 -396.717737 
L 308.715833 -396.665396 
L 306.975417 -396.627855 
L 305.235 -396.589092 
L 303.494583 -396.545703 
L 301.754167 -396.517276 
L 300.01375 -396.356566 
L 298.273333 -396.353622 
L 296.532917 -396.207636 
L 294.7925 -396.142527 
L 293.052083 -396.044486 
L 291.311667 -395.854253 
L 289.57125 -395.813671 
L 287.830833 -395.728145 
L 286.090417 -395.635411 
L 284.35 -395.552237 
L 282.609583 -395.444945 
L 280.869167 -395.436181 
L 279.12875 -395.302586 
L 277.388333 -395.13483 
L 275.647917 -394.930039 
L 273.9075 -394.768037 
L 272.167083 -394.681451 
L 270.426667 -394.580073 
L 268.68625 -394.529683 
L 266.945833 -394.35155 
L 265.205417 -394.149384 
L 263.465 -394.020212 
L 261.724583 -393.837007 
L 259.984167 -393.626337 
L 258.24375 -393.583095 
L 256.503333 -393.342965 
L 254.762917 -393.143195 
L 253.0225 -392.923289 
L 251.282083 -392.755555 
L 249.541667 -392.644148 
L 247.80125 -392.353009 
L 246.060833 -392.246639 
L 244.320417 -391.995222 
L 242.58 -391.665957 
L 240.839583 -391.376434 
L 239.099167 -391.07432 
L 237.35875 -390.811494 
L 235.618333 -390.504269 
L 233.877917 -390.224556 
L 232.1375 -389.846831 
L 230.397083 -389.55875 
L 228.656667 -389.066853 
L 226.91625 -388.686967 
L 225.175833 -388.276094 
L 223.435417 -387.750235 
L 221.695 -387.240179 
L 219.954583 -386.629473 
L 218.214167 -386.071514 
L 216.47375 -385.177028 
L 214.733333 -384.392466 
L 212.992917 -383.54459 
L 211.2525 -382.455138 
L 209.512083 -381.492838 
L 207.771667 -380.528603 
L 206.03125 -379.478751 
L 204.290833 -378.456872 
L 202.550417 -377.444782 
L 200.81 -376.243683 
L 199.069583 -375.082608 
L 197.329167 -373.672658 
L 195.58875 -372.374386 
L 193.848333 -370.617253 
L 192.107917 -368.772584 
L 190.3675 -366.624874 
L 188.627083 -364.60932 
L 186.886667 -362.639856 
L 185.14625 -359.699245 
L 183.405833 -356.889031 
L 181.665417 -353.925773 
L 179.925 -350.626949 
L 178.184583 -347.483747 
L 176.444167 -343.950785 
L 174.70375 -340.229421 
L 172.963333 -336.336692 
L 171.222917 -332.422409 
L 169.4825 -328.133559 
L 167.742083 -324.003924 
L 166.001667 -319.893967 
L 164.26125 -315.680212 
L 162.520833 -311.661109 
L 160.780417 -307.567858 
L 159.04 -303.896864 
L 157.299583 -299.631761 
L 155.559167 -295.981724 
L 153.81875 -292.470355 
L 152.078333 -289.0873 
L 150.337917 -286.166988 
L 148.5975 -284.009087 
L 146.857083 -282.042721 
L 145.116667 -280.271851 
L 143.37625 -278.853048 
L 141.635833 -277.505342 
L 139.895417 -276.128796 
L 138.155 -274.951423 
L 136.414583 -274.037545 
L 134.674167 -273.113497 
L 132.93375 -272.363157 
L 131.193333 -271.598389 
L 129.452917 -271.099145 
L 127.7125 -270.404307 
L 125.972083 -269.961737 
L 124.231667 -269.643708 
L 122.49125 -269.278643 
L 120.750833 -268.829667 
L 119.010417 -268.356685 
L 117.27 -267.839653 
L 115.529583 -267.384783 
L 113.789167 -266.960438 
L 112.04875 -266.517303 
L 110.308333 -265.919372 
L 108.567917 -265.371312 
L 106.8275 -264.92305 
L 105.087083 -264.437041 
L 103.346667 -264.10772 
L 101.60625 -263.830325 
L 99.865833 -263.537222 
L 98.125417 -263.31334 
L 96.385 -263.003631 
L 94.644583 -262.555592 
L 92.904167 -262.124045 
L 91.16375 -261.558619 
L 89.423333 -260.958476 
L 87.682917 -260.434359 
L 85.9425 -259.975736 
L 84.202083 -259.671428 
L 82.461667 -259.479075 
L 80.72125 -259.479075 
L 78.980833 -259.479075 
L 77.240417 -259.479075 
L 75.5 -259.479075 
L 73.759583 -259.479075 
L 72.019167 -259.479075 
L 70.27875 -259.479075 
L 68.538333 -259.479075 
L 66.797917 -259.479075 
L 65.0575 -259.479075 
L 63.317083 -259.479075 
L 61.576667 -259.479075 
L 59.83625 -259.479075 
L 58.095833 -259.479075 
L 56.355417 -259.479075 
L 54.615 -259.479075 
z
" style="stroke: #f99a5a; stroke-opacity: 0.3"/>
    </defs>
    <g clip-path="url(#pdc5fad765e)">
     <use xlink:href="#m849a36b0f2" x="0" y="432" style="fill: #f99a5a; fill-opacity: 0.3; stroke: #f99a5a; stroke-opacity: 0.3"/>
    </g>
   </g>
   <g id="matplotlib.axis_1">
    <g id="xtick_1">
     <g id="line2d_1">
      <defs>
       <path id="m2d133a3e72" d="M 0 0 
L 0 3.5 
" style="stroke: #000000; stroke-width: 0.8"/>
      </defs>
      <g>
       <use xlink:href="#m2d133a3e72" x="54.615" y="179.44" style="stroke: #000000; stroke-width: 0.8"/>
      </g>
     </g>
     <g id="text_1">
      <text style="font: 10px 'sans-serif'; text-anchor: middle" x="54.615" y="194.038437" transform="rotate(-0, 54.615, 194.038437)">0</text>
     </g>
    </g>
    <g id="xtick_2">
     <g id="line2d_2">
      <g>
       <use xlink:href="#m2d133a3e72" x="124.231667" y="179.44" style="stroke: #000000; stroke-width: 0.8"/>
      </g>
     </g>
     <g id="text_2">
      <text style="font: 10px 'sans-serif'; text-anchor: middle" x="124.231667" y="194.038437" transform="rotate(-0, 124.231667, 194.038437)">2000</text>
     </g>
    </g>
    <g id="xtick_3">
     <g id="line2d_3">
      <g>
       <use xlink:href="#m2d133a3e72" x="193.848333" y="179.44" style="stroke: #000000; stroke-width: 0.8"/>
      </g>
     </g>
     <g id="text_3">
      <text style="font: 10px 'sans-serif'; text-anchor: middle" x="193.848333" y="194.038437" transform="rotate(-0, 193.848333, 194.038437)">4000</text>
     </g>
    </g>
    <g id="xtick_4">
     <g id="line2d_4">
      <g>
       <use xlink:href="#m2d133a3e72" x="263.465" y="179.44" style="stroke: #000000; stroke-width: 0.8"/>
      </g>
     </g>
     <g id="text_4">
      <text style="font: 10px 'sans-serif'; text-anchor: middle" x="263.465" y="194.038437" transform="rotate(-0, 263.465, 194.038437)">6000</text>
     </g>
    </g>
    <g id="xtick_5">
     <g id="line2d_5">
      <g>
       <use xlink:href="#m2d133a3e72" x="333.081667" y="179.44" style="stroke: #000000; stroke-width: 0.8"/>
      </g>
     </g>
     <g id="text_5">
      <text style="font: 10px 'sans-serif'; text-anchor: middle" x="333.081667" y="194.038437" transform="rotate(-0, 333.081667, 194.038437)">8000</text>
     </g>
    </g>
    <g id="xtick_6">
     <g id="line2d_6">
      <g>
       <use xlink:href="#m2d133a3e72" x="402.698333" y="179.44" style="stroke: #000000; stroke-width: 0.8"/>
      </g>
     </g>
     <g id="text_6">
      <text style="font: 10px 'sans-serif'; text-anchor: middle" x="402.698333" y="194.038437" transform="rotate(-0, 402.698333, 194.038437)">10000</text>
     </g>
    </g>
    <g id="xtick_7">
     <g id="line2d_7">
      <g>
       <use xlink:href="#m2d133a3e72" x="472.315" y="179.44" style="stroke: #000000; stroke-width: 0.8"/>
      </g>
     </g>
     <g id="text_7">
      <text style="font: 10px 'sans-serif'; text-anchor: middle" x="472.315" y="194.038437" transform="rotate(-0, 472.315, 194.038437)">12000</text>
     </g>
    </g>
    <g id="text_8">
     <text style="font: 10px 'sans-serif'; text-anchor: middle" x="263.465" y="207.716562" transform="rotate(-0, 263.465, 207.716562)">Epoch</text>
    </g>
   </g>
   <g id="matplotlib.axis_2">
    <g id="ytick_1">
     <g id="line2d_8">
      <defs>
       <path id="mdbcdbc9d12" d="M 0 0 
L -3.5 0 
" style="stroke: #000000; stroke-width: 0.8"/>
      </defs>
      <g>
       <use xlink:href="#mdbcdbc9d12" x="33.73" y="172.520925" style="stroke: #000000; stroke-width: 0.8"/>
      </g>
     </g>
     <g id="text_9">
      <text style="font: 10px 'sans-serif'; text-anchor: end" x="26.73" y="176.320144" transform="rotate(-0, 26.73, 176.320144)">0.5</text>
     </g>
    </g>
    <g id="ytick_2">
     <g id="line2d_9">
      <g>
       <use xlink:href="#mdbcdbc9d12" x="33.73" y="144.890307" style="stroke: #000000; stroke-width: 0.8"/>
      </g>
     </g>
     <g id="text_10">
      <text style="font: 10px 'sans-serif'; text-anchor: end" x="26.73" y="148.689526" transform="rotate(-0, 26.73, 148.689526)">0.6</text>
     </g>
    </g>
    <g id="ytick_3">
     <g id="line2d_10">
      <g>
       <use xlink:href="#mdbcdbc9d12" x="33.73" y="117.259688" style="stroke: #000000; stroke-width: 0.8"/>
      </g>
     </g>
     <g id="text_11">
      <text style="font: 10px 'sans-serif'; text-anchor: end" x="26.73" y="121.058907" transform="rotate(-0, 26.73, 121.058907)">0.7</text>
     </g>
    </g>
    <g id="ytick_4">
     <g id="line2d_11">
      <g>
       <use xlink:href="#mdbcdbc9d12" x="33.73" y="89.62907" style="stroke: #000000; stroke-width: 0.8"/>
      </g>
     </g>
     <g id="text_12">
      <text style="font: 10px 'sans-serif'; text-anchor: end" x="26.73" y="93.428289" transform="rotate(-0, 26.73, 93.428289)">0.8</text>
     </g>
    </g>
    <g id="ytick_5">
     <g id="line2d_12">
      <g>
       <use xlink:href="#mdbcdbc9d12" x="33.73" y="61.998451" style="stroke: #000000; stroke-width: 0.8"/>
      </g>
     </g>
     <g id="text_13">
      <text style="font: 10px 'sans-serif'; text-anchor: end" x="26.73" y="65.79767" transform="rotate(-0, 26.73, 65.79767)">0.9</text>
     </g>
    </g>
    <g id="ytick_6">
     <g id="line2d_13">
      <g>
       <use xlink:href="#mdbcdbc9d12" x="33.73" y="34.367833" style="stroke: #000000; stroke-width: 0.8"/>
      </g>
     </g>
     <g id="text_14">
      <text style="font: 10px 'sans-serif'; text-anchor: end" x="26.73" y="38.167051" transform="rotate(-0, 26.73, 38.167051)">1.0</text>
     </g>
    </g>
   </g>
   <g id="line2d_14">
    <path d="M 54.615 172.520925 
L 80.72125 172.503213 
L 84.202083 172.124014 
L 87.682917 171.417143 
L 89.423333 171.07659 
L 91.16375 170.852372 
L 94.644583 170.276734 
L 98.125417 169.967983 
L 101.60625 169.066866 
L 103.346667 168.746239 
L 106.8275 167.175416 
L 108.567917 166.68487 
L 110.308333 165.783592 
L 112.04875 164.647745 
L 113.789167 163.353026 
L 115.529583 161.883673 
L 117.27 159.702804 
L 120.750833 155.957189 
L 124.231667 152.301277 
L 127.7125 148.004797 
L 131.193333 143.626927 
L 132.93375 141.667653 
L 138.155 136.395377 
L 141.635833 133.553889 
L 143.37625 132.009137 
L 146.857083 129.482485 
L 150.337917 127.371878 
L 157.299583 122.619928 
L 159.04 121.662408 
L 164.26125 118.029171 
L 166.001667 116.822346 
L 167.742083 115.242439 
L 171.222917 111.79088 
L 172.963333 110.138725 
L 178.184583 104.495448 
L 181.665417 100.68915 
L 183.405833 98.758411 
L 188.627083 91.876385 
L 192.107917 87.248813 
L 193.848333 85.195874 
L 195.58875 83.419598 
L 197.329167 80.988065 
L 202.550417 74.745936 
L 212.992917 63.888952 
L 216.47375 60.98718 
L 218.214167 59.66239 
L 219.954583 58.026566 
L 223.435417 55.773038 
L 225.175833 54.757575 
L 226.91625 53.600733 
L 232.1375 50.634225 
L 233.877917 49.870778 
L 235.618333 48.943748 
L 237.35875 48.24748 
L 239.099167 47.679495 
L 247.80125 44.324917 
L 249.541667 43.732644 
L 251.282083 43.310783 
L 254.762917 42.2623 
L 270.426667 38.861407 
L 273.9075 38.409184 
L 275.647917 38.133067 
L 279.12875 37.826966 
L 282.609583 37.467729 
L 286.090417 37.156124 
L 303.494583 36.246174 
L 348.745417 35.360326 
L 355.707083 35.318956 
L 400.957917 35.061251 
L 411.400417 35.047208 
L 435.76625 34.954979 
L 451.43 34.967125 
L 468.834167 34.940177 
L 472.315 34.940557 
L 472.315 34.940557 
" clip-path="url(#pdc5fad765e)" style="fill: none; stroke: #33ccff; stroke-width: 1.5; stroke-linecap: square"/>
   </g>
   <g id="line2d_15">
    <path d="M 54.615 172.520925 
L 84.202083 172.418273 
L 85.9425 172.19479 
L 87.682917 171.824803 
L 91.16375 170.771199 
L 94.644583 169.807396 
L 96.385 169.346517 
L 101.60625 168.472198 
L 105.087083 167.891194 
L 110.308333 166.499878 
L 112.04875 165.915228 
L 117.27 164.613283 
L 122.49125 163.13691 
L 127.7125 161.98593 
L 134.674167 159.657045 
L 138.155 158.100872 
L 139.895417 157.100612 
L 145.116667 153.272622 
L 146.857083 151.665531 
L 150.337917 147.817684 
L 152.078333 145.0788 
L 155.559167 138.482045 
L 157.299583 134.97842 
L 159.04 130.890388 
L 160.780417 127.282277 
L 167.742083 111.02452 
L 174.70375 94.864521 
L 178.184583 87.636566 
L 185.14625 74.989956 
L 186.886667 72.005978 
L 190.3675 67.861203 
L 192.107917 65.580801 
L 195.58875 61.852755 
L 197.329167 60.480042 
L 199.069583 58.951692 
L 204.290833 55.265002 
L 209.512083 51.950539 
L 211.2525 50.905217 
L 212.992917 49.688153 
L 218.214167 46.974084 
L 223.435417 45.083049 
L 225.175833 44.495975 
L 233.877917 42.467814 
L 246.060833 40.336483 
L 247.80125 40.226376 
L 249.541667 39.919254 
L 253.0225 39.61646 
L 258.24375 38.905267 
L 259.984167 38.85229 
L 268.68625 37.921575 
L 273.9075 37.66916 
L 280.869167 36.978222 
L 284.35 36.847167 
L 296.532917 36.146186 
L 298.273333 35.984834 
L 300.01375 35.977043 
L 301.754167 35.806343 
L 308.715833 35.634083 
L 313.937083 35.459207 
L 319.158333 35.344252 
L 324.379583 35.219602 
L 327.860417 35.167318 
L 331.34125 35.041977 
L 336.5625 35.025703 
L 350.485833 34.885126 
L 353.966667 34.882701 
L 362.66875 34.804796 
L 373.11125 34.788522 
L 380.072917 34.725504 
L 392.255833 34.709577 
L 400.957917 34.694689 
L 416.621667 34.680839 
L 423.583333 34.691573 
L 437.506667 34.701961 
L 472.315 34.650024 
L 472.315 34.650024 
" clip-path="url(#pdc5fad765e)" style="fill: none; stroke: #f99a5a; stroke-width: 1.5; stroke-linecap: square"/>
   </g>
   <g id="line2d_16">
    <path d="M 89.423333 179.44 
L 89.423333 27.6 
" clip-path="url(#pdc5fad765e)" style="fill: none; stroke-dasharray: 1.85,0.8; stroke-dashoffset: 0; stroke: #000000; stroke-width: 0.5"/>
   </g>
   <g id="line2d_17">
    <path d="M 124.231667 179.44 
L 124.231667 27.6 
" clip-path="url(#pdc5fad765e)" style="fill: none; stroke-dasharray: 1.85,0.8; stroke-dashoffset: 0; stroke: #000000; stroke-width: 0.5"/>
   </g>
   <g id="line2d_18">
    <path d="M 263.465 179.44 
L 263.465 27.6 
" clip-path="url(#pdc5fad765e)" style="fill: none; stroke-dasharray: 1.85,0.8; stroke-dashoffset: 0; stroke: #000000; stroke-width: 0.5"/>
   </g>
   <g id="patch_3">
    <path d="M 33.73 179.44 
L 33.73 27.6 
" style="fill: none; stroke: #000000; stroke-width: 0.8; stroke-linejoin: miter; stroke-linecap: square"/>
   </g>
   <g id="patch_4">
    <path d="M 493.2 179.44 
L 493.2 27.6 
" style="fill: none; stroke: #000000; stroke-width: 0.8; stroke-linejoin: miter; stroke-linecap: square"/>
   </g>
   <g id="patch_5">
    <path d="M 33.73 179.44 
L 493.2 179.44 
" style="fill: none; stroke: #000000; stroke-width: 0.8; stroke-linejoin: miter; stroke-linecap: square"/>
   </g>
   <g id="patch_6">
    <path d="M 33.73 27.6 
L 493.2 27.6 
" style="fill: none; stroke: #000000; stroke-width: 0.8; stroke-linejoin: miter; stroke-linecap: square"/>
   </g>
   <g id="text_15">
    <text style="font: 14.4px 'sans-serif'; text-anchor: middle" x="263.465" y="21.6" transform="rotate(-0, 263.465, 21.6)">Accuracy</text>
   </g>
   <g id="legend_1">
    <g id="patch_7">
     <path d="M 418.092187 174.44 
L 486.2 174.44 
Q 488.2 174.44 488.2 172.44 
L 488.2 144.08375 
Q 488.2 142.08375 486.2 142.08375 
L 418.092187 142.08375 
Q 416.092187 142.08375 416.092187 144.08375 
L 416.092187 172.44 
Q 416.092187 174.44 418.092187 174.44 
z
" style="fill: #ffffff; opacity: 0.8; stroke: #cccccc; stroke-linejoin: miter"/>
    </g>
    <g id="line2d_19">
     <path d="M 420.092187 150.182187 
L 430.092187 150.182187 
L 440.092187 150.182187 
" style="fill: none; stroke: #33ccff; stroke-width: 1.5; stroke-linecap: square"/>
    </g>
    <g id="text_16">
     <text style="font: 10px 'sans-serif'; text-anchor: start" x="448.092187" y="153.682187" transform="rotate(-0, 448.092187, 153.682187)">English</text>
    </g>
    <g id="line2d_20">
     <path d="M 420.092187 164.860313 
L 430.092187 164.860313 
L 440.092187 164.860313 
" style="fill: none; stroke: #f99a5a; stroke-width: 1.5; stroke-linecap: square"/>
    </g>
    <g id="text_17">
     <text style="font: 10px 'sans-serif'; text-anchor: start" x="448.092187" y="168.360313" transform="rotate(-0, 448.092187, 168.360313)">French</text>
    </g>
   </g>
  </g>
  <g id="axes_2">
   <g id="patch_8">
    <path d="M 33.73 390.04 
L 493.2 390.04 
L 493.2 238.2 
L 33.73 238.2 
z
" style="fill: #ffffff"/>
   </g>
   <g id="PolyCollection_3">
    <defs>
     <path id="md2ac79e183" d="M 54.615 -48.879075 
L 54.615 -48.879075 
L 56.355417 -48.879075 
L 58.095833 -48.879075 
L 59.83625 -48.879075 
L 61.576667 -48.879075 
L 63.317083 -48.879075 
L 65.0575 -48.879075 
L 66.797917 -48.879075 
L 68.538333 -48.879075 
L 70.27875 -48.879075 
L 72.019167 -48.879075 
L 73.759583 -48.879075 
L 75.5 -48.879075 
L 77.240417 -48.879075 
L 78.980833 -48.879075 
L 80.72125 -48.861818 
L 82.461667 -48.944131 
L 84.202083 -49.13684 
L 85.9425 -49.503859 
L 87.682917 -49.799679 
L 89.423333 -50.14081 
L 91.16375 -50.368756 
L 92.904167 -50.670431 
L 94.644583 -50.888858 
L 96.385 -51.036681 
L 98.125417 -51.182829 
L 99.865833 -51.527036 
L 101.60625 -51.821009 
L 103.346667 -52.042256 
L 105.087083 -52.74511 
L 106.8275 -53.450396 
L 108.567917 -53.882869 
L 110.308333 -54.697613 
L 112.04875 -55.784924 
L 113.789167 -56.985275 
L 115.529583 -58.30811 
L 117.27 -60.290187 
L 119.010417 -62.067895 
L 120.750833 -63.773913 
L 122.49125 -65.517793 
L 124.231667 -67.237746 
L 125.972083 -69.321559 
L 127.7125 -71.478645 
L 129.452917 -73.68871 
L 131.193333 -75.935208 
L 132.93375 -77.872027 
L 134.674167 -79.736795 
L 136.414583 -81.591076 
L 138.155 -83.459056 
L 139.895417 -84.938611 
L 141.635833 -86.406073 
L 143.37625 -88.043501 
L 145.116667 -89.323267 
L 146.857083 -90.564402 
L 148.5975 -91.620508 
L 150.337917 -92.81165 
L 152.078333 -94.076526 
L 153.81875 -95.433348 
L 155.559167 -96.553393 
L 157.299583 -97.616604 
L 159.04 -98.542675 
L 160.780417 -99.715189 
L 162.520833 -100.844111 
L 164.26125 -101.996071 
L 166.001667 -103.134027 
L 167.742083 -104.603823 
L 169.4825 -106.346206 
L 171.222917 -107.88054 
L 172.963333 -109.440135 
L 174.70375 -111.224396 
L 176.444167 -112.975818 
L 178.184583 -114.801363 
L 179.925 -116.634948 
L 181.665417 -118.545438 
L 183.405833 -120.427965 
L 185.14625 -122.656805 
L 186.886667 -124.742248 
L 188.627083 -127.140814 
L 190.3675 -129.453019 
L 192.107917 -131.680295 
L 193.848333 -133.701867 
L 195.58875 -135.472272 
L 197.329167 -137.960119 
L 199.069583 -140.078016 
L 200.81 -142.196845 
L 202.550417 -144.235804 
L 204.290833 -146.080629 
L 206.03125 -147.860203 
L 207.771667 -149.740166 
L 209.512083 -151.796692 
L 211.2525 -153.542932 
L 212.992917 -155.452238 
L 214.733333 -156.960296 
L 216.47375 -158.477956 
L 218.214167 -159.874364 
L 219.954583 -161.5563 
L 221.695 -162.793365 
L 223.435417 -163.961013 
L 225.175833 -165.055938 
L 226.91625 -166.324964 
L 228.656667 -167.373018 
L 230.397083 -168.410417 
L 232.1375 -169.430035 
L 233.877917 -170.277322 
L 235.618333 -171.233511 
L 237.35875 -171.979909 
L 239.099167 -172.603484 
L 240.839583 -173.293117 
L 242.58 -174.091099 
L 244.320417 -174.723535 
L 246.060833 -175.462342 
L 247.80125 -176.063472 
L 249.541667 -176.705319 
L 251.282083 -177.138419 
L 253.0225 -177.761805 
L 254.762917 -178.262256 
L 256.503333 -178.675687 
L 258.24375 -179.134934 
L 259.984167 -179.502268 
L 261.724583 -179.929712 
L 263.465 -180.345443 
L 265.205417 -180.738057 
L 266.945833 -181.087361 
L 268.68625 -181.435301 
L 270.426667 -181.843886 
L 272.167083 -182.152427 
L 273.9075 -182.333342 
L 275.647917 -182.675103 
L 277.388333 -182.786604 
L 279.12875 -182.977134 
L 280.869167 -183.22307 
L 282.609583 -183.364962 
L 284.35 -183.596576 
L 286.090417 -183.719567 
L 287.830833 -183.831308 
L 289.57125 -183.963267 
L 291.311667 -184.077487 
L 293.052083 -184.189405 
L 294.7925 -184.289208 
L 296.532917 -184.430221 
L 298.273333 -184.443805 
L 300.01375 -184.573895 
L 301.754167 -184.641444 
L 303.494583 -184.725755 
L 305.235 -184.758079 
L 306.975417 -184.843221 
L 308.715833 -184.858399 
L 310.45625 -184.923967 
L 312.196667 -185.062286 
L 313.937083 -185.085903 
L 315.6775 -185.148538 
L 317.417917 -185.212415 
L 319.158333 -185.142559 
L 320.89875 -185.208393 
L 322.639167 -185.240595 
L 324.379583 -185.291528 
L 326.12 -185.310043 
L 327.860417 -185.386366 
L 329.600833 -185.38875 
L 331.34125 -185.421142 
L 333.081667 -185.492057 
L 334.822083 -185.508371 
L 336.5625 -185.574451 
L 338.302917 -185.603672 
L 340.043333 -185.606593 
L 341.78375 -185.675852 
L 343.524167 -185.697491 
L 345.264583 -185.700931 
L 347.005 -185.741564 
L 348.745417 -185.782063 
L 350.485833 -185.766236 
L 352.22625 -185.806895 
L 353.966667 -185.828931 
L 355.707083 -185.829426 
L 357.4475 -185.845137 
L 359.187917 -185.831915 
L 360.928333 -185.849076 
L 362.66875 -185.824073 
L 364.409167 -185.852231 
L 366.149583 -185.866167 
L 367.89 -185.89694 
L 369.630417 -185.882504 
L 371.370833 -185.926936 
L 373.11125 -185.942896 
L 374.851667 -185.970564 
L 376.592083 -186.019246 
L 378.3325 -186.026485 
L 380.072917 -186.056331 
L 381.813333 -186.046349 
L 383.55375 -186.037347 
L 385.294167 -186.075214 
L 387.034583 -186.069378 
L 388.775 -186.096048 
L 390.515417 -186.069971 
L 392.255833 -186.089612 
L 393.99625 -186.07081 
L 395.736667 -186.096471 
L 397.477083 -186.122557 
L 399.2175 -186.103112 
L 400.957917 -186.116312 
L 402.698333 -186.100519 
L 404.43875 -186.139636 
L 406.179167 -186.110299 
L 407.919583 -186.114566 
L 409.66 -186.097791 
L 411.400417 -186.139969 
L 413.140833 -186.141065 
L 414.88125 -186.153232 
L 416.621667 -186.145678 
L 418.362083 -186.158971 
L 420.1025 -186.179856 
L 421.842917 -186.172904 
L 423.583333 -186.153246 
L 425.32375 -186.195888 
L 427.064167 -186.170276 
L 428.804583 -186.213153 
L 430.545 -186.23707 
L 432.285417 -186.212817 
L 434.025833 -186.224168 
L 435.76625 -186.2566 
L 437.506667 -186.237608 
L 439.247083 -186.251087 
L 440.9875 -186.251084 
L 442.727917 -186.251087 
L 444.468333 -186.250446 
L 446.20875 -186.226587 
L 447.949167 -186.226587 
L 449.689583 -186.251426 
L 451.43 -186.227214 
L 453.170417 -186.250446 
L 454.910833 -186.251426 
L 456.65125 -186.248094 
L 458.391667 -186.227214 
L 460.132083 -186.271865 
L 461.8725 -186.227214 
L 463.612917 -186.271865 
L 465.353333 -186.272412 
L 467.09375 -186.271212 
L 468.834167 -186.272412 
L 470.574583 -186.272412 
L 472.315 -186.271865 
L 472.315 -186.647021 
L 472.315 -186.647021 
L 470.574583 -186.647233 
L 468.834167 -186.647233 
L 467.09375 -186.646915 
L 465.353333 -186.647233 
L 463.612917 -186.647021 
L 461.8725 -186.638537 
L 460.132083 -186.647021 
L 458.391667 -186.638537 
L 456.65125 -186.644984 
L 454.910833 -186.641652 
L 453.170417 -186.641114 
L 451.43 -186.638537 
L 449.689583 -186.641652 
L 447.949167 -186.638405 
L 446.20875 -186.638405 
L 444.468333 -186.641114 
L 442.727917 -186.641232 
L 440.9875 -186.641235 
L 439.247083 -186.641232 
L 437.506667 -186.628143 
L 435.76625 -186.633442 
L 434.025833 -186.615015 
L 432.285417 -186.624848 
L 430.545 -186.627922 
L 428.804583 -186.62527 
L 427.064167 -186.615012 
L 425.32375 -186.615209 
L 423.583333 -186.604715 
L 421.842917 -186.611624 
L 420.1025 -186.605432 
L 418.362083 -186.598231 
L 416.621667 -186.584957 
L 414.88125 -186.578921 
L 413.140833 -186.591846 
L 411.400417 -186.565616 
L 409.66 -186.554658 
L 407.919583 -186.565209 
L 406.179167 -186.54215 
L 404.43875 -186.56519 
L 402.698333 -186.551171 
L 400.957917 -186.561187 
L 399.2175 -186.547819 
L 397.477083 -186.554942 
L 395.736667 -186.527893 
L 393.99625 -186.526986 
L 392.255833 -186.533993 
L 390.515417 -186.526307 
L 388.775 -186.527557 
L 387.034583 -186.526142 
L 385.294167 -186.519547 
L 383.55375 -186.505037 
L 381.813333 -186.496035 
L 380.072917 -186.486813 
L 378.3325 -186.462764 
L 376.592083 -186.441918 
L 374.851667 -186.435946 
L 373.11125 -186.411996 
L 371.370833 -186.401388 
L 369.630417 -186.365358 
L 367.89 -186.375213 
L 366.149583 -186.353609 
L 364.409167 -186.367545 
L 362.66875 -186.342567 
L 360.928333 -186.341856 
L 359.187917 -186.333966 
L 357.4475 -186.343518 
L 355.707083 -186.332661 
L 353.966667 -186.331638 
L 352.22625 -186.302056 
L 350.485833 -186.286544 
L 348.745417 -186.297285 
L 347.005 -186.281613 
L 345.264583 -186.241784 
L 343.524167 -186.243683 
L 341.78375 -186.235718 
L 340.043333 -186.199465 
L 338.302917 -186.195554 
L 336.5625 -186.172399 
L 334.822083 -186.103364 
L 333.081667 -186.118159 
L 331.34125 -186.079766 
L 329.600833 -186.032455 
L 327.860417 -186.005995 
L 326.12 -185.976046 
L 324.379583 -185.961162 
L 322.639167 -185.931654 
L 320.89875 -185.935749 
L 319.158333 -185.891515 
L 317.417917 -185.898326 
L 315.6775 -185.877944 
L 313.937083 -185.825957 
L 312.196667 -185.793426 
L 310.45625 -185.74501 
L 308.715833 -185.699753 
L 306.975417 -185.679251 
L 305.235 -185.62622 
L 303.494583 -185.581897 
L 301.754167 -185.49767 
L 300.01375 -185.423291 
L 298.273333 -185.34008 
L 296.532917 -185.320264 
L 294.7925 -185.191042 
L 293.052083 -185.123848 
L 291.311667 -185.07408 
L 289.57125 -184.969684 
L 287.830833 -184.857979 
L 286.090417 -184.768184 
L 284.35 -184.682805 
L 282.609583 -184.49958 
L 280.869167 -184.379968 
L 279.12875 -184.168935 
L 277.388333 -183.990931 
L 275.647917 -183.858763 
L 273.9075 -183.648291 
L 272.167083 -183.48572 
L 270.426667 -183.233299 
L 268.68625 -182.876351 
L 266.945833 -182.576033 
L 265.205417 -182.278577 
L 263.465 -181.925012 
L 261.724583 -181.533839 
L 259.984167 -181.183983 
L 258.24375 -180.838915 
L 256.503333 -180.37322 
L 254.762917 -180.013143 
L 253.0225 -179.579922 
L 251.282083 -179.040016 
L 249.541667 -178.629393 
L 247.80125 -178.086694 
L 246.060833 -177.537055 
L 244.320417 -176.840434 
L 242.58 -176.24695 
L 240.839583 -175.537016 
L 239.099167 -174.837526 
L 237.35875 -174.325132 
L 235.618333 -173.678992 
L 233.877917 -172.781123 
L 232.1375 -172.101515 
L 230.397083 -171.15129 
L 228.656667 -170.236707 
L 226.91625 -169.27357 
L 225.175833 -168.228912 
L 223.435417 -167.292911 
L 221.695 -166.239863 
L 219.954583 -165.190568 
L 218.214167 -163.600856 
L 216.47375 -162.347685 
L 214.733333 -161.020301 
L 212.992917 -159.569857 
L 211.2525 -157.870863 
L 209.512083 -156.26006 
L 207.771667 -154.425906 
L 206.03125 -152.629251 
L 204.290833 -150.836179 
L 202.550417 -149.072324 
L 200.81 -147.06575 
L 199.069583 -144.952312 
L 197.329167 -142.863751 
L 195.58875 -140.488532 
L 193.848333 -138.706384 
L 192.107917 -136.622079 
L 190.3675 -134.264849 
L 188.627083 -131.906417 
L 186.886667 -129.380029 
L 185.14625 -127.11595 
L 183.405833 -124.855214 
L 181.665417 -122.876263 
L 179.925 -120.822422 
L 178.184583 -119.007741 
L 176.444167 -116.942943 
L 174.70375 -115.130475 
L 172.963333 -113.082415 
L 171.222917 -111.337701 
L 169.4825 -109.530173 
L 167.742083 -107.711299 
L 166.001667 -106.021281 
L 164.26125 -104.745587 
L 162.520833 -103.47873 
L 160.780417 -102.263154 
L 159.04 -100.932509 
L 157.299583 -99.94354 
L 155.559167 -98.835648 
L 153.81875 -97.70868 
L 152.078333 -96.399815 
L 150.337917 -95.244594 
L 148.5975 -94.284564 
L 146.857083 -93.270628 
L 145.116667 -91.969297 
L 143.37625 -90.738224 
L 141.635833 -89.287759 
L 139.895417 -87.869454 
L 138.155 -86.551799 
L 136.414583 -84.809409 
L 134.674167 -83.230772 
L 132.93375 -81.592668 
L 131.193333 -79.610939 
L 129.452917 -77.504748 
L 127.7125 -75.314131 
L 125.972083 -73.034548 
L 124.231667 -70.961311 
L 122.49125 -69.060667 
L 120.750833 -67.11171 
L 119.010417 -65.24033 
L 117.27 -63.107426 
L 115.529583 -60.727765 
L 113.789167 -59.112698 
L 112.04875 -57.726027 
L 110.308333 -56.542449 
L 108.567917 -55.557052 
L 106.8275 -55.01085 
L 105.087083 -54.171702 
L 103.346667 -53.278953 
L 101.60625 -52.858142 
L 99.865833 -52.357044 
L 98.125417 -51.690867 
L 96.385 -51.489217 
L 94.644583 -51.359284 
L 92.904167 -51.101099 
L 91.16375 -50.7265 
L 89.423333 -50.506009 
L 87.682917 -50.166036 
L 85.9425 -49.856425 
L 84.202083 -49.415132 
L 82.461667 -49.123979 
L 80.72125 -48.931755 
L 78.980833 -48.879075 
L 77.240417 -48.879075 
L 75.5 -48.879075 
L 73.759583 -48.879075 
L 72.019167 -48.879075 
L 70.27875 -48.879075 
L 68.538333 -48.879075 
L 66.797917 -48.879075 
L 65.0575 -48.879075 
L 63.317083 -48.879075 
L 61.576667 -48.879075 
L 59.83625 -48.879075 
L 58.095833 -48.879075 
L 56.355417 -48.879075 
L 54.615 -48.879075 
z
" style="stroke: #33ccff; stroke-opacity: 0.3"/>
    </defs>
    <g clip-path="url(#pbdcfd5c7e0)">
     <use xlink:href="#md2ac79e183" x="0" y="432" style="fill: #33ccff; fill-opacity: 0.3; stroke: #33ccff; stroke-opacity: 0.3"/>
    </g>
   </g>
   <g id="PolyCollection_4">
    <defs>
     <path id="m5d53355ae8" d="M 54.615 -48.879075 
L 54.615 -48.879075 
L 56.355417 -48.879075 
L 58.095833 -48.879075 
L 59.83625 -48.879075 
L 61.576667 -48.879075 
L 63.317083 -48.879075 
L 65.0575 -48.879075 
L 66.797917 -48.879075 
L 68.538333 -48.879075 
L 70.27875 -48.879075 
L 72.019167 -48.879075 
L 73.759583 -48.879075 
L 75.5 -48.879075 
L 77.240417 -48.879075 
L 78.980833 -48.879075 
L 80.72125 -48.879075 
L 82.461667 -48.879075 
L 84.202083 -48.892026 
L 85.9425 -49.034684 
L 87.682917 -49.316035 
L 89.423333 -49.759987 
L 91.16375 -50.298983 
L 92.904167 -50.8043 
L 94.644583 -51.229617 
L 96.385 -51.703336 
L 98.125417 -52.040887 
L 99.865833 -52.298902 
L 101.60625 -52.625278 
L 103.346667 -52.888947 
L 105.087083 -53.180571 
L 106.8275 -53.573563 
L 108.567917 -53.982935 
L 110.308333 -54.480872 
L 112.04875 -55.05224 
L 113.789167 -55.433399 
L 115.529583 -55.885939 
L 117.27 -56.333781 
L 119.010417 -56.866248 
L 120.750833 -57.371254 
L 122.49125 -57.847536 
L 124.231667 -58.253222 
L 125.972083 -58.596018 
L 127.7125 -59.023833 
L 129.452917 -59.483123 
L 131.193333 -59.914796 
L 132.93375 -60.365381 
L 134.674167 -60.972414 
L 136.414583 -61.60526 
L 138.155 -62.246832 
L 139.895417 -63.069981 
L 141.635833 -64.18738 
L 143.37625 -65.332888 
L 145.116667 -66.582904 
L 146.857083 -68.026218 
L 148.5975 -69.761449 
L 150.337917 -71.597645 
L 152.078333 -74.1551 
L 153.81875 -77.209761 
L 155.559167 -80.454186 
L 157.299583 -83.811398 
L 159.04 -87.72236 
L 160.780417 -91.267588 
L 162.520833 -95.167173 
L 164.26125 -99.106894 
L 166.001667 -103.397016 
L 167.742083 -107.347035 
L 169.4825 -111.381319 
L 171.222917 -115.736909 
L 172.963333 -119.478196 
L 174.70375 -123.441537 
L 176.444167 -127.080027 
L 178.184583 -130.643122 
L 179.925 -133.883372 
L 181.665417 -137.341604 
L 183.405833 -140.605012 
L 185.14625 -143.720842 
L 186.886667 -146.748188 
L 188.627083 -148.94307 
L 190.3675 -151.052719 
L 192.107917 -153.465813 
L 193.848333 -155.413929 
L 195.58875 -157.320104 
L 197.329167 -158.767257 
L 199.069583 -160.414009 
L 200.81 -161.7979 
L 202.550417 -163.252506 
L 204.290833 -164.413124 
L 206.03125 -165.664366 
L 207.771667 -166.911871 
L 209.512083 -168.006085 
L 211.2525 -169.134429 
L 212.992917 -170.479104 
L 214.733333 -171.493353 
L 216.47375 -172.395022 
L 218.214167 -173.380319 
L 219.954583 -174.13464 
L 221.695 -174.859759 
L 223.435417 -175.483666 
L 225.175833 -176.131956 
L 226.91625 -176.542751 
L 228.656667 -176.944003 
L 230.397083 -177.471114 
L 232.1375 -177.84506 
L 233.877917 -178.239815 
L 235.618333 -178.600314 
L 237.35875 -178.894524 
L 239.099167 -179.233132 
L 240.839583 -179.588888 
L 242.58 -179.866519 
L 244.320417 -180.192359 
L 246.060833 -180.480395 
L 247.80125 -180.594239 
L 249.541667 -180.917343 
L 251.282083 -181.028227 
L 253.0225 -181.243791 
L 254.762917 -181.468468 
L 256.503333 -181.68281 
L 258.24375 -182.006371 
L 259.984167 -182.069082 
L 261.724583 -182.266984 
L 263.465 -182.47781 
L 265.205417 -182.600012 
L 266.945833 -182.838274 
L 268.68625 -183.027166 
L 270.426667 -183.08065 
L 272.167083 -183.180789 
L 273.9075 -183.293644 
L 275.647917 -183.475118 
L 277.388333 -183.72876 
L 279.12875 -183.910024 
L 280.869167 -184.007375 
L 282.609583 -184.037737 
L 284.35 -184.153429 
L 286.090417 -184.248227 
L 287.830833 -184.340737 
L 289.57125 -184.42972 
L 291.311667 -184.466698 
L 293.052083 -184.718281 
L 294.7925 -184.79267 
L 296.532917 -184.899993 
L 298.273333 -185.07671 
L 300.01375 -185.089348 
L 301.754167 -185.270038 
L 303.494583 -185.293548 
L 305.235 -185.386236 
L 306.975417 -185.416377 
L 308.715833 -185.466438 
L 310.45625 -185.565101 
L 312.196667 -185.558235 
L 313.937083 -185.677031 
L 315.6775 -185.676062 
L 317.417917 -185.677339 
L 319.158333 -185.788139 
L 320.89875 -185.872678 
L 322.639167 -185.870664 
L 324.379583 -185.956788 
L 326.12 -185.945095 
L 327.860417 -185.9957 
L 329.600833 -186.110621 
L 331.34125 -186.153568 
L 333.081667 -186.095359 
L 334.822083 -186.174982 
L 336.5625 -186.161775 
L 338.302917 -186.183049 
L 340.043333 -186.238962 
L 341.78375 -186.26519 
L 343.524167 -186.22316 
L 345.264583 -186.294508 
L 347.005 -186.295473 
L 348.745417 -186.282841 
L 350.485833 -186.324348 
L 352.22625 -186.268912 
L 353.966667 -186.31461 
L 355.707083 -186.369067 
L 357.4475 -186.356704 
L 359.187917 -186.404916 
L 360.928333 -186.406362 
L 362.66875 -186.420178 
L 364.409167 -186.392258 
L 366.149583 -186.374453 
L 367.89 -186.44076 
L 369.630417 -186.423298 
L 371.370833 -186.394388 
L 373.11125 -186.421017 
L 374.851667 -186.482937 
L 376.592083 -186.483157 
L 378.3325 -186.440935 
L 380.072917 -186.517542 
L 381.813333 -186.480871 
L 383.55375 -186.507069 
L 385.294167 -186.532557 
L 387.034583 -186.5316 
L 388.775 -186.533411 
L 390.515417 -186.496063 
L 392.255833 -186.513058 
L 393.99625 -186.564521 
L 395.736667 -186.565162 
L 397.477083 -186.565591 
L 399.2175 -186.566871 
L 400.957917 -186.550081 
L 402.698333 -186.566978 
L 404.43875 -186.51665 
L 406.179167 -186.5673 
L 407.919583 -186.5673 
L 409.66 -186.500747 
L 411.400417 -186.568581 
L 413.140833 -186.517293 
L 414.88125 -186.517618 
L 416.621667 -186.568581 
L 418.362083 -186.528007 
L 420.1025 -186.517522 
L 421.842917 -186.569968 
L 423.583333 -186.552956 
L 425.32375 -186.569968 
L 427.064167 -186.546329 
L 428.804583 -186.570608 
L 430.545 -186.519641 
L 432.285417 -186.570608 
L 434.025833 -186.571134 
L 435.76625 -186.520284 
L 437.506667 -186.52051 
L 439.247083 -186.520928 
L 440.9875 -186.571996 
L 442.727917 -186.571996 
L 444.468333 -186.521343 
L 446.20875 -186.585831 
L 447.949167 -186.58551 
L 449.689583 -186.586152 
L 451.43 -186.585717 
L 453.170417 -186.586259 
L 454.910833 -186.561854 
L 456.65125 -186.535464 
L 458.391667 -186.599935 
L 460.132083 -186.600372 
L 461.8725 -186.576152 
L 463.612917 -186.57583 
L 465.353333 -186.600257 
L 467.09375 -186.60069 
L 468.834167 -186.601127 
L 470.574583 -186.601449 
L 472.315 -186.60177 
L 472.315 -186.898182 
L 472.315 -186.898182 
L 470.574583 -186.897811 
L 468.834167 -186.897441 
L 467.09375 -186.897185 
L 465.353333 -186.896925 
L 463.612917 -186.897116 
L 461.8725 -186.897486 
L 460.132083 -186.896811 
L 458.391667 -186.896555 
L 456.65125 -186.888314 
L 454.910833 -186.885469 
L 453.170417 -186.885301 
L 451.43 -186.885151 
L 449.689583 -186.885409 
L 447.949167 -186.884666 
L 446.20875 -186.885037 
L 444.468333 -186.876121 
L 442.727917 -186.87325 
L 440.9875 -186.87325 
L 439.247083 -186.875843 
L 437.506667 -186.875568 
L 435.76625 -186.875102 
L 434.025833 -186.872727 
L 432.285417 -186.871869 
L 430.545 -186.874361 
L 428.804583 -186.871869 
L 427.064167 -186.87191 
L 425.32375 -186.871123 
L 423.583333 -186.863898 
L 421.842917 -186.871123 
L 420.1025 -186.872326 
L 418.362083 -186.862533 
L 416.621667 -186.869741 
L 414.88125 -186.87223 
L 413.140833 -186.871862 
L 411.400417 -186.869741 
L 409.66 -186.863478 
L 407.919583 -186.868252 
L 406.179167 -186.868252 
L 404.43875 -186.87112 
L 402.698333 -186.867882 
L 400.957917 -186.860542 
L 399.2175 -186.867989 
L 397.477083 -186.866499 
L 395.736667 -186.866236 
L 393.99625 -186.865492 
L 392.255833 -186.867788 
L 390.515417 -186.858468 
L 388.775 -186.846051 
L 387.034583 -186.843705 
L 385.294167 -186.844827 
L 383.55375 -186.842615 
L 381.813333 -186.844575 
L 380.072917 -186.831449 
L 378.3325 -186.808336 
L 376.592083 -186.814589 
L 374.851667 -186.814116 
L 373.11125 -186.801939 
L 371.370833 -186.777324 
L 369.630417 -186.773344 
L 367.89 -186.775272 
L 366.149583 -186.769559 
L 364.409167 -186.774607 
L 362.66875 -186.770231 
L 360.928333 -186.75704 
L 359.187917 -186.755716 
L 357.4475 -186.754067 
L 355.707083 -186.74032 
L 353.966667 -186.719987 
L 352.22625 -186.692281 
L 350.485833 -186.705401 
L 348.745417 -186.676967 
L 347.005 -186.683031 
L 345.264583 -186.68261 
L 343.524167 -186.678477 
L 341.78375 -186.659991 
L 340.043333 -186.634282 
L 338.302917 -186.614021 
L 336.5625 -186.58682 
L 334.822083 -186.594387 
L 333.081667 -186.576368 
L 331.34125 -186.562479 
L 329.600833 -186.525096 
L 327.860417 -186.469663 
L 326.12 -186.421934 
L 324.379583 -186.404008 
L 322.639167 -186.36756 
L 320.89875 -186.362775 
L 319.158333 -186.323358 
L 317.417917 -186.240951 
L 315.6775 -186.231147 
L 313.937083 -186.204555 
L 312.196667 -186.149534 
L 310.45625 -186.117737 
L 308.715833 -186.065396 
L 306.975417 -186.027855 
L 305.235 -185.989092 
L 303.494583 -185.945703 
L 301.754167 -185.917276 
L 300.01375 -185.756566 
L 298.273333 -185.753622 
L 296.532917 -185.607636 
L 294.7925 -185.542527 
L 293.052083 -185.444486 
L 291.311667 -185.254253 
L 289.57125 -185.213671 
L 287.830833 -185.128145 
L 286.090417 -185.035411 
L 284.35 -184.952237 
L 282.609583 -184.844945 
L 280.869167 -184.836181 
L 279.12875 -184.702586 
L 277.388333 -184.53483 
L 275.647917 -184.330039 
L 273.9075 -184.168037 
L 272.167083 -184.081451 
L 270.426667 -183.980073 
L 268.68625 -183.929683 
L 266.945833 -183.75155 
L 265.205417 -183.549384 
L 263.465 -183.420212 
L 261.724583 -183.237007 
L 259.984167 -183.026337 
L 258.24375 -182.983095 
L 256.503333 -182.742965 
L 254.762917 -182.543195 
L 253.0225 -182.323289 
L 251.282083 -182.155555 
L 249.541667 -182.044148 
L 247.80125 -181.753009 
L 246.060833 -181.646639 
L 244.320417 -181.395222 
L 242.58 -181.065957 
L 240.839583 -180.776434 
L 239.099167 -180.47432 
L 237.35875 -180.211494 
L 235.618333 -179.904269 
L 233.877917 -179.624556 
L 232.1375 -179.246831 
L 230.397083 -178.95875 
L 228.656667 -178.466853 
L 226.91625 -178.086967 
L 225.175833 -177.676094 
L 223.435417 -177.150235 
L 221.695 -176.640179 
L 219.954583 -176.029473 
L 218.214167 -175.471514 
L 216.47375 -174.577028 
L 214.733333 -173.792466 
L 212.992917 -172.94459 
L 211.2525 -171.855138 
L 209.512083 -170.892838 
L 207.771667 -169.928603 
L 206.03125 -168.878751 
L 204.290833 -167.856872 
L 202.550417 -166.844782 
L 200.81 -165.643683 
L 199.069583 -164.482608 
L 197.329167 -163.072658 
L 195.58875 -161.774386 
L 193.848333 -160.017253 
L 192.107917 -158.172584 
L 190.3675 -156.024874 
L 188.627083 -154.00932 
L 186.886667 -152.039856 
L 185.14625 -149.099245 
L 183.405833 -146.289031 
L 181.665417 -143.325773 
L 179.925 -140.026949 
L 178.184583 -136.883747 
L 176.444167 -133.350785 
L 174.70375 -129.629421 
L 172.963333 -125.736692 
L 171.222917 -121.822409 
L 169.4825 -117.533559 
L 167.742083 -113.403924 
L 166.001667 -109.293967 
L 164.26125 -105.080212 
L 162.520833 -101.061109 
L 160.780417 -96.967858 
L 159.04 -93.296864 
L 157.299583 -89.031761 
L 155.559167 -85.381724 
L 153.81875 -81.870355 
L 152.078333 -78.4873 
L 150.337917 -75.566988 
L 148.5975 -73.409087 
L 146.857083 -71.442721 
L 145.116667 -69.671851 
L 143.37625 -68.253048 
L 141.635833 -66.905342 
L 139.895417 -65.528796 
L 138.155 -64.351423 
L 136.414583 -63.437545 
L 134.674167 -62.513497 
L 132.93375 -61.763157 
L 131.193333 -60.998389 
L 129.452917 -60.499145 
L 127.7125 -59.804307 
L 125.972083 -59.361737 
L 124.231667 -59.043708 
L 122.49125 -58.678643 
L 120.750833 -58.229667 
L 119.010417 -57.756685 
L 117.27 -57.239653 
L 115.529583 -56.784783 
L 113.789167 -56.360438 
L 112.04875 -55.917303 
L 110.308333 -55.319372 
L 108.567917 -54.771312 
L 106.8275 -54.32305 
L 105.087083 -53.837041 
L 103.346667 -53.50772 
L 101.60625 -53.230325 
L 99.865833 -52.937222 
L 98.125417 -52.71334 
L 96.385 -52.403631 
L 94.644583 -51.955592 
L 92.904167 -51.524045 
L 91.16375 -50.958619 
L 89.423333 -50.358476 
L 87.682917 -49.834359 
L 85.9425 -49.375736 
L 84.202083 -49.071428 
L 82.461667 -48.879075 
L 80.72125 -48.879075 
L 78.980833 -48.879075 
L 77.240417 -48.879075 
L 75.5 -48.879075 
L 73.759583 -48.879075 
L 72.019167 -48.879075 
L 70.27875 -48.879075 
L 68.538333 -48.879075 
L 66.797917 -48.879075 
L 65.0575 -48.879075 
L 63.317083 -48.879075 
L 61.576667 -48.879075 
L 59.83625 -48.879075 
L 58.095833 -48.879075 
L 56.355417 -48.879075 
L 54.615 -48.879075 
z
" style="stroke: #f99a5a; stroke-opacity: 0.3"/>
    </defs>
    <g clip-path="url(#pbdcfd5c7e0)">
     <use xlink:href="#m5d53355ae8" x="0" y="432" style="fill: #f99a5a; fill-opacity: 0.3; stroke: #f99a5a; stroke-opacity: 0.3"/>
    </g>
   </g>
   <g id="matplotlib.axis_3">
    <g id="xtick_8">
     <g id="line2d_21">
      <g>
       <use xlink:href="#m2d133a3e72" x="54.615" y="390.04" style="stroke: #000000; stroke-width: 0.8"/>
      </g>
     </g>
     <g id="text_18">
      <text style="font: 10px 'sans-serif'; text-anchor: middle" x="54.615" y="404.638438" transform="rotate(-0, 54.615, 404.638438)">0</text>
     </g>
    </g>
    <g id="xtick_9">
     <g id="line2d_22">
      <g>
       <use xlink:href="#m2d133a3e72" x="124.231667" y="390.04" style="stroke: #000000; stroke-width: 0.8"/>
      </g>
     </g>
     <g id="text_19">
      <text style="font: 10px 'sans-serif'; text-anchor: middle" x="124.231667" y="404.638438" transform="rotate(-0, 124.231667, 404.638438)">2000</text>
     </g>
    </g>
    <g id="xtick_10">
     <g id="line2d_23">
      <g>
       <use xlink:href="#m2d133a3e72" x="193.848333" y="390.04" style="stroke: #000000; stroke-width: 0.8"/>
      </g>
     </g>
     <g id="text_20">
      <text style="font: 10px 'sans-serif'; text-anchor: middle" x="193.848333" y="404.638438" transform="rotate(-0, 193.848333, 404.638438)">4000</text>
     </g>
    </g>
    <g id="xtick_11">
     <g id="line2d_24">
      <g>
       <use xlink:href="#m2d133a3e72" x="263.465" y="390.04" style="stroke: #000000; stroke-width: 0.8"/>
      </g>
     </g>
     <g id="text_21">
      <text style="font: 10px 'sans-serif'; text-anchor: middle" x="263.465" y="404.638438" transform="rotate(-0, 263.465, 404.638438)">6000</text>
     </g>
    </g>
    <g id="xtick_12">
     <g id="line2d_25">
      <g>
       <use xlink:href="#m2d133a3e72" x="333.081667" y="390.04" style="stroke: #000000; stroke-width: 0.8"/>
      </g>
     </g>
     <g id="text_22">
      <text style="font: 10px 'sans-serif'; text-anchor: middle" x="333.081667" y="404.638438" transform="rotate(-0, 333.081667, 404.638438)">8000</text>
     </g>
    </g>
    <g id="xtick_13">
     <g id="line2d_26">
      <g>
       <use xlink:href="#m2d133a3e72" x="402.698333" y="390.04" style="stroke: #000000; stroke-width: 0.8"/>
      </g>
     </g>
     <g id="text_23">
      <text style="font: 10px 'sans-serif'; text-anchor: middle" x="402.698333" y="404.638438" transform="rotate(-0, 402.698333, 404.638438)">10000</text>
     </g>
    </g>
    <g id="xtick_14">
     <g id="line2d_27">
      <g>
       <use xlink:href="#m2d133a3e72" x="472.315" y="390.04" style="stroke: #000000; stroke-width: 0.8"/>
      </g>
     </g>
     <g id="text_24">
      <text style="font: 10px 'sans-serif'; text-anchor: middle" x="472.315" y="404.638438" transform="rotate(-0, 472.315, 404.638438)">12000</text>
     </g>
    </g>
    <g id="text_25">
     <text style="font: 10px 'sans-serif'; text-anchor: middle" x="263.465" y="418.316562" transform="rotate(-0, 263.465, 418.316562)">Epoch</text>
    </g>
   </g>
   <g id="matplotlib.axis_4">
    <g id="ytick_7">
     <g id="line2d_28">
      <g>
       <use xlink:href="#mdbcdbc9d12" x="33.73" y="383.120925" style="stroke: #000000; stroke-width: 0.8"/>
      </g>
     </g>
     <g id="text_26">
      <text style="font: 10px 'sans-serif'; text-anchor: end" x="26.73" y="386.920144" transform="rotate(-0, 26.73, 386.920144)">0.5</text>
     </g>
    </g>
    <g id="ytick_8">
     <g id="line2d_29">
      <g>
       <use xlink:href="#mdbcdbc9d12" x="33.73" y="355.490307" style="stroke: #000000; stroke-width: 0.8"/>
      </g>
     </g>
     <g id="text_27">
      <text style="font: 10px 'sans-serif'; text-anchor: end" x="26.73" y="359.289526" transform="rotate(-0, 26.73, 359.289526)">0.6</text>
     </g>
    </g>
    <g id="ytick_9">
     <g id="line2d_30">
      <g>
       <use xlink:href="#mdbcdbc9d12" x="33.73" y="327.859688" style="stroke: #000000; stroke-width: 0.8"/>
      </g>
     </g>
     <g id="text_28">
      <text style="font: 10px 'sans-serif'; text-anchor: end" x="26.73" y="331.658907" transform="rotate(-0, 26.73, 331.658907)">0.7</text>
     </g>
    </g>
    <g id="ytick_10">
     <g id="line2d_31">
      <g>
       <use xlink:href="#mdbcdbc9d12" x="33.73" y="300.22907" style="stroke: #000000; stroke-width: 0.8"/>
      </g>
     </g>
     <g id="text_29">
      <text style="font: 10px 'sans-serif'; text-anchor: end" x="26.73" y="304.028289" transform="rotate(-0, 26.73, 304.028289)">0.8</text>
     </g>
    </g>
    <g id="ytick_11">
     <g id="line2d_32">
      <g>
       <use xlink:href="#mdbcdbc9d12" x="33.73" y="272.598451" style="stroke: #000000; stroke-width: 0.8"/>
      </g>
     </g>
     <g id="text_30">
      <text style="font: 10px 'sans-serif'; text-anchor: end" x="26.73" y="276.39767" transform="rotate(-0, 26.73, 276.39767)">0.9</text>
     </g>
    </g>
    <g id="ytick_12">
     <g id="line2d_33">
      <g>
       <use xlink:href="#mdbcdbc9d12" x="33.73" y="244.967833" style="stroke: #000000; stroke-width: 0.8"/>
      </g>
     </g>
     <g id="text_31">
      <text style="font: 10px 'sans-serif'; text-anchor: end" x="26.73" y="248.767051" transform="rotate(-0, 26.73, 248.767051)">1.0</text>
     </g>
    </g>
   </g>
   <g id="line2d_34">
    <path d="M 54.615 383.120925 
L 80.72125 383.103213 
L 84.202083 382.724014 
L 87.682917 382.017143 
L 89.423333 381.67659 
L 91.16375 381.452372 
L 94.644583 380.875929 
L 98.125417 380.563152 
L 101.60625 379.660424 
L 103.346667 379.339395 
L 106.8275 377.769377 
L 108.567917 377.280039 
L 110.308333 376.379969 
L 112.04875 375.244525 
L 113.789167 373.951014 
L 115.529583 372.482062 
L 117.27 370.301193 
L 120.750833 366.557189 
L 124.231667 362.900472 
L 127.7125 358.603612 
L 131.193333 354.226927 
L 132.93375 352.267653 
L 138.155 346.994572 
L 141.635833 344.153084 
L 143.37625 342.609137 
L 146.857083 340.082485 
L 150.337917 337.971878 
L 157.299583 333.219928 
L 159.04 332.262408 
L 164.26125 328.629171 
L 166.001667 327.422346 
L 167.742083 325.842439 
L 171.222917 322.39088 
L 172.963333 320.738725 
L 178.184583 315.095448 
L 181.665417 311.28915 
L 183.405833 309.358411 
L 188.627083 302.476385 
L 192.107917 297.848813 
L 193.848333 295.795874 
L 195.58875 294.019598 
L 197.329167 291.588065 
L 202.550417 285.345936 
L 212.992917 274.488952 
L 216.47375 271.58718 
L 218.214167 270.26239 
L 219.954583 268.626566 
L 223.435417 266.373038 
L 225.175833 265.357575 
L 226.91625 264.200733 
L 232.1375 261.234225 
L 233.877917 260.470778 
L 235.618333 259.543748 
L 237.35875 258.84748 
L 239.099167 258.279495 
L 247.80125 254.924917 
L 249.541667 254.332644 
L 251.282083 253.910783 
L 254.762917 252.8623 
L 270.426667 249.461407 
L 273.9075 249.009184 
L 275.647917 248.733067 
L 279.12875 248.426966 
L 282.609583 248.067729 
L 286.090417 247.756124 
L 303.494583 246.846174 
L 348.745417 245.960326 
L 355.707083 245.918956 
L 400.957917 245.661251 
L 411.400417 245.647208 
L 435.76625 245.554979 
L 451.43 245.567125 
L 468.834167 245.540177 
L 472.315 245.540557 
L 472.315 245.540557 
" clip-path="url(#pbdcfd5c7e0)" style="fill: none; stroke: #33ccff; stroke-width: 1.5; stroke-linecap: square"/>
   </g>
   <g id="line2d_35">
    <path d="M 54.615 383.120925 
L 84.202083 383.018273 
L 85.9425 382.79479 
L 87.682917 382.424803 
L 91.16375 381.371199 
L 94.644583 380.407396 
L 96.385 379.946517 
L 101.60625 379.072198 
L 105.087083 378.491194 
L 110.308333 377.099878 
L 112.04875 376.515228 
L 117.27 375.213283 
L 122.49125 373.73691 
L 127.7125 372.58593 
L 134.674167 370.257045 
L 138.155 368.700872 
L 139.895417 367.700612 
L 145.116667 363.872622 
L 146.857083 362.265531 
L 150.337917 358.417684 
L 152.078333 355.6788 
L 155.559167 349.082045 
L 157.299583 345.57842 
L 159.04 341.490388 
L 160.780417 337.882277 
L 167.742083 321.62452 
L 174.70375 305.464521 
L 178.184583 298.236566 
L 185.14625 285.589956 
L 186.886667 282.605978 
L 190.3675 278.461203 
L 192.107917 276.180801 
L 195.58875 272.452755 
L 197.329167 271.080042 
L 199.069583 269.551692 
L 204.290833 265.865002 
L 209.512083 262.550539 
L 211.2525 261.505217 
L 212.992917 260.288153 
L 218.214167 257.574084 
L 223.435417 255.683049 
L 225.175833 255.095975 
L 233.877917 253.067814 
L 246.060833 250.936483 
L 247.80125 250.826376 
L 249.541667 250.519254 
L 253.0225 250.21646 
L 258.24375 249.505267 
L 259.984167 249.45229 
L 268.68625 248.521575 
L 273.9075 248.26916 
L 280.869167 247.578222 
L 284.35 247.447167 
L 296.532917 246.746186 
L 298.273333 246.584834 
L 300.01375 246.577043 
L 301.754167 246.406343 
L 308.715833 246.234083 
L 313.937083 246.059207 
L 319.158333 245.944252 
L 324.379583 245.819602 
L 327.860417 245.767318 
L 331.34125 245.641977 
L 336.5625 245.625703 
L 350.485833 245.485126 
L 353.966667 245.482701 
L 362.66875 245.404796 
L 373.11125 245.388522 
L 380.072917 245.325504 
L 392.255833 245.309577 
L 400.957917 245.294689 
L 416.621667 245.280839 
L 423.583333 245.291573 
L 437.506667 245.301961 
L 472.315 245.250024 
L 472.315 245.250024 
" clip-path="url(#pbdcfd5c7e0)" style="fill: none; stroke: #f99a5a; stroke-width: 1.5; stroke-linecap: square"/>
   </g>
   <g id="line2d_36">
    <path d="M 89.423333 390.04 
L 89.423333 238.2 
" clip-path="url(#pbdcfd5c7e0)" style="fill: none; stroke-dasharray: 1.85,0.8; stroke-dashoffset: 0; stroke: #000000; stroke-width: 0.5"/>
   </g>
   <g id="line2d_37">
    <path d="M 124.231667 390.04 
L 124.231667 238.2 
" clip-path="url(#pbdcfd5c7e0)" style="fill: none; stroke-dasharray: 1.85,0.8; stroke-dashoffset: 0; stroke: #000000; stroke-width: 0.5"/>
   </g>
   <g id="line2d_38">
    <path d="M 263.465 390.04 
L 263.465 238.2 
" clip-path="url(#pbdcfd5c7e0)" style="fill: none; stroke-dasharray: 1.85,0.8; stroke-dashoffset: 0; stroke: #000000; stroke-width: 0.5"/>
   </g>
   <g id="patch_9">
    <path d="M 33.73 390.04 
L 33.73 238.2 
" style="fill: none; stroke: #000000; stroke-width: 0.8; stroke-linejoin: miter; stroke-linecap: square"/>
   </g>
   <g id="patch_10">
    <path d="M 493.2 390.04 
L 493.2 238.2 
" style="fill: none; stroke: #000000; stroke-width: 0.8; stroke-linejoin: miter; stroke-linecap: square"/>
   </g>
   <g id="patch_11">
    <path d="M 33.73 390.04 
L 493.2 390.04 
" style="fill: none; stroke: #000000; stroke-width: 0.8; stroke-linejoin: miter; stroke-linecap: square"/>
   </g>
   <g id="patch_12">
    <path d="M 33.73 238.2 
L 493.2 238.2 
" style="fill: none; stroke: #000000; stroke-width: 0.8; stroke-linejoin: miter; stroke-linecap: square"/>
   </g>
   <g id="text_32">
    <text style="font: 14.4px 'sans-serif'; text-anchor: middle" x="263.465" y="232.2" transform="rotate(-0, 263.465, 232.2)">Training sign accuracy on same tree</text>
   </g>
   <g id="legend_2">
    <g id="patch_13">
     <path d="M 418.092187 385.04 
L 486.2 385.04 
Q 488.2 385.04 488.2 383.04 
L 488.2 354.68375 
Q 488.2 352.68375 486.2 352.68375 
L 418.092187 352.68375 
Q 416.092187 352.68375 416.092187 354.68375 
L 416.092187 383.04 
Q 416.092187 385.04 418.092187 385.04 
z
" style="fill: #ffffff; opacity: 0.8; stroke: #cccccc; stroke-linejoin: miter"/>
    </g>
    <g id="line2d_39">
     <path d="M 420.092187 360.782187 
L 430.092187 360.782187 
L 440.092187 360.782187 
" style="fill: none; stroke: #33ccff; stroke-width: 1.5; stroke-linecap: square"/>
    </g>
    <g id="text_33">
     <text style="font: 10px 'sans-serif'; text-anchor: start" x="448.092187" y="364.282187" transform="rotate(-0, 448.092187, 364.282187)">English</text>
    </g>
    <g id="line2d_40">
     <path d="M 420.092187 375.460312 
L 430.092187 375.460312 
L 440.092187 375.460312 
" style="fill: none; stroke: #f99a5a; stroke-width: 1.5; stroke-linecap: square"/>
    </g>
    <g id="text_34">
     <text style="font: 10px 'sans-serif'; text-anchor: start" x="448.092187" y="378.960312" transform="rotate(-0, 448.092187, 378.960312)">French</text>
    </g>
   </g>
  </g>
 </g>
 <defs>
  <clipPath id="pdc5fad765e">
   <rect x="33.73" y="27.6" width="459.47" height="151.84"/>
  </clipPath>
  <clipPath id="pbdcfd5c7e0">
   <rect x="33.73" y="238.2" width="459.47" height="151.84"/>
  </clipPath>
 </defs>
</svg>
