<?xml version="1.0" encoding="utf-8" standalone="no"?>
<!DOCTYPE svg PUBLIC "-//W3C//DTD SVG 1.1//EN"
  "http://www.w3.org/Graphics/SVG/1.1/DTD/svg11.dtd">
<svg xmlns:xlink="http://www.w3.org/1999/xlink" width="504pt" height="432pt" viewBox="0 0 504 432" xmlns="http://www.w3.org/2000/svg" version="1.1">
 <metadata>
  <rdf:RDF xmlns:dc="http://purl.org/dc/elements/1.1/" xmlns:cc="http://creativecommons.org/ns#" xmlns:rdf="http://www.w3.org/1999/02/22-rdf-syntax-ns#">
   <cc:Work>
    <dc:type rdf:resource="http://purl.org/dc/dcmitype/StillImage"/>
    <dc:date>2022-04-01T13:08:23.485506</dc:date>
    <dc:format>image/svg+xml</dc:format>
    <dc:creator>
     <cc:Agent>
      <dc:title>Matplotlib v3.5.1, https://matplotlib.org/</dc:title>
     </cc:Agent>
    </dc:creator>
   </cc:Work>
  </rdf:RDF>
 </metadata>
 <defs>
  <style type="text/css">*{stroke-linejoin: round; stroke-linecap: butt}</style>
 </defs>
 <g id="figure_1">
  <g id="patch_1">
   <path d="M 0 432 
L 504 432 
L 504 0 
L 0 0 
z
" style="fill: #ffffff"/>
  </g>
  <g id="axes_1">
   <g id="patch_2">
    <path d="M 41.699096 179.44 
L 493.2 179.44 
L 493.2 27.6 
L 41.699096 27.6 
z
" style="fill: #ffffff"/>
   </g>
   <g id="PolyCollection_1">
    <defs>
     <path id="m0797204a21" d="M 62.221864 -397.376123 
L 62.221864 -397.360744 
L 63.932095 -396.070152 
L 65.642326 -396.057325 
L 67.352557 -396.04376 
L 69.062787 -396.028205 
L 70.773018 -396.009185 
L 72.483249 -395.984695 
L 74.193479 -395.951765 
L 75.90371 -395.905844 
L 77.613941 -395.839841 
L 79.324171 -395.7432 
L 81.034402 -395.602217 
L 82.744633 -395.404411 
L 84.454864 -395.1471 
L 86.165094 -394.842094 
L 87.875325 -394.512242 
L 89.585556 -394.179358 
L 91.295786 -393.85861 
L 93.006017 -393.556553 
L 94.716248 -393.275404 
L 96.426478 -393.015 
L 98.136709 -392.773148 
L 99.84694 -392.545808 
L 101.557171 -392.326173 
L 103.267401 -392.10441 
L 104.977632 -391.869056 
L 106.687863 -391.611327 
L 108.398093 -391.323774 
L 110.108324 -390.999633 
L 111.818555 -390.631522 
L 113.528785 -390.211525 
L 115.239016 -389.736902 
L 116.949247 -389.210954 
L 118.659477 -388.643309 
L 120.369708 -388.045164 
L 122.079939 -387.421242 
L 123.79017 -386.77562 
L 125.5004 -386.111476 
L 127.210631 -385.43228 
L 128.920862 -384.740617 
L 130.631092 -384.040409 
L 132.341323 -383.332368 
L 134.051554 -382.616424 
L 135.761784 -381.891498 
L 137.472015 -381.158277 
L 139.182246 -380.42193 
L 140.892477 -379.686847 
L 142.602707 -378.954164 
L 144.312938 -378.219152 
L 146.023169 -377.476497 
L 147.733399 -376.727384 
L 149.44363 -375.978236 
L 151.153861 -375.230413 
L 152.864091 -374.485997 
L 154.574322 -373.745031 
L 156.284553 -373.007392 
L 157.994783 -372.273019 
L 159.705014 -371.540376 
L 161.415245 -370.807487 
L 163.125476 -370.073387 
L 164.835706 -369.331219 
L 166.545937 -368.581146 
L 168.256168 -367.822268 
L 169.966398 -367.056298 
L 171.676629 -366.283709 
L 173.38686 -365.507119 
L 175.09709 -364.726577 
L 176.807321 -363.938685 
L 178.517552 -363.14442 
L 180.227783 -362.344174 
L 181.938013 -361.534403 
L 183.648244 -360.716964 
L 185.358475 -359.885376 
L 187.068705 -359.042627 
L 188.778936 -358.188945 
L 190.489167 -357.325222 
L 192.199397 -356.448581 
L 193.909628 -355.557159 
L 195.619859 -354.652878 
L 197.33009 -353.733978 
L 199.04032 -352.802575 
L 200.750551 -351.857368 
L 202.460782 -350.895867 
L 204.171012 -349.91971 
L 205.881243 -348.93029 
L 207.591474 -347.927865 
L 209.301704 -346.913689 
L 211.011935 -345.884163 
L 212.722166 -344.843556 
L 214.432396 -343.794254 
L 216.142627 -342.738747 
L 217.852858 -341.67487 
L 219.563089 -340.601142 
L 221.273319 -339.524213 
L 222.98355 -338.436629 
L 224.693781 -337.354753 
L 226.404011 -336.270018 
L 228.114242 -335.180688 
L 229.824473 -334.091054 
L 231.534703 -333.001932 
L 233.244934 -331.914995 
L 234.955165 -330.835687 
L 236.665396 -329.764089 
L 238.375626 -328.692078 
L 240.085857 -327.627695 
L 241.796088 -326.567707 
L 243.506318 -325.519787 
L 245.216549 -324.479238 
L 246.92678 -323.438913 
L 248.63701 -322.388991 
L 250.347241 -321.36409 
L 252.057472 -320.361857 
L 253.767702 -319.368191 
L 255.477933 -318.378852 
L 257.188164 -317.405374 
L 258.898395 -316.433109 
L 260.608625 -315.487006 
L 262.318856 -314.547115 
L 264.029087 -313.622447 
L 265.739317 -312.717442 
L 267.449548 -311.81875 
L 269.159779 -310.933196 
L 270.870009 -310.04179 
L 272.58024 -309.170201 
L 274.290471 -308.333887 
L 276.000702 -307.471832 
L 277.710932 -306.627781 
L 279.421163 -305.821505 
L 281.131394 -305.013067 
L 282.841624 -304.22822 
L 284.551855 -303.456279 
L 286.262086 -302.687095 
L 287.972316 -301.938869 
L 289.682547 -301.188138 
L 291.392778 -300.471399 
L 293.103009 -299.734666 
L 294.813239 -299.041209 
L 296.52347 -298.351271 
L 298.233701 -297.683756 
L 299.943931 -296.980583 
L 301.654162 -296.298261 
L 303.364393 -295.638365 
L 305.074623 -294.999653 
L 306.784854 -294.344014 
L 308.495085 -293.703916 
L 310.205315 -293.061183 
L 311.915546 -292.428143 
L 313.625777 -291.841964 
L 315.336008 -291.199939 
L 317.046238 -290.640611 
L 318.756469 -290.006833 
L 320.4667 -289.417361 
L 322.17693 -288.824027 
L 323.887161 -288.258094 
L 325.597392 -287.689001 
L 327.307622 -287.139818 
L 329.017853 -286.566454 
L 330.728084 -286.007202 
L 332.438315 -285.468158 
L 334.148545 -284.90865 
L 335.858776 -284.431828 
L 337.569007 -283.919684 
L 339.279237 -283.406012 
L 340.989468 -282.906958 
L 342.699699 -282.381138 
L 344.409929 -281.923123 
L 346.12016 -281.426819 
L 347.830391 -280.960426 
L 349.540621 -280.521297 
L 351.250852 -280.104329 
L 352.961083 -279.656769 
L 354.671314 -279.21536 
L 356.381544 -278.801791 
L 358.091775 -278.387667 
L 359.802006 -278.00064 
L 361.512236 -277.556587 
L 363.222467 -277.188022 
L 364.932698 -276.82391 
L 366.642928 -276.436975 
L 368.353159 -276.05701 
L 370.06339 -275.693953 
L 371.773621 -275.355634 
L 373.483851 -274.990917 
L 375.194082 -274.633838 
L 376.904313 -274.260181 
L 378.614543 -273.946345 
L 380.324774 -273.590243 
L 382.035005 -273.288663 
L 383.745235 -272.950424 
L 385.455466 -272.639726 
L 387.165697 -272.357654 
L 388.875928 -272.01684 
L 390.586158 -271.751125 
L 392.296389 -271.479571 
L 394.00662 -271.174366 
L 395.71685 -270.902119 
L 397.427081 -270.676689 
L 399.137312 -270.359269 
L 400.847542 -270.148243 
L 402.557773 -269.90391 
L 404.268004 -269.642763 
L 405.978234 -269.400599 
L 407.688465 -269.199078 
L 409.398696 -268.942312 
L 411.108927 -268.720697 
L 412.819157 -268.532415 
L 414.529388 -268.284106 
L 416.239619 -268.07169 
L 417.949849 -267.874327 
L 419.66008 -267.681532 
L 421.370311 -267.45965 
L 423.080541 -267.26132 
L 424.790772 -267.06411 
L 426.501003 -266.867109 
L 428.211234 -266.690995 
L 429.921464 -266.516145 
L 431.631695 -266.324693 
L 433.341926 -266.132829 
L 435.052156 -265.919936 
L 436.762387 -265.784268 
L 438.472618 -265.594217 
L 440.182848 -265.437411 
L 441.893079 -265.259391 
L 443.60331 -265.096224 
L 445.31354 -264.983933 
L 447.023771 -264.799977 
L 448.734002 -264.649751 
L 450.444233 -264.504305 
L 452.154463 -264.363379 
L 453.864694 -264.204393 
L 455.574925 -264.120089 
L 457.285155 -263.925128 
L 458.995386 -263.81719 
L 460.705617 -263.630858 
L 462.415847 -263.491316 
L 464.126078 -263.369972 
L 465.836309 -263.253045 
L 467.54654 -263.111029 
L 469.25677 -263.032403 
L 470.967001 -262.92461 
L 472.677232 -262.750222 
L 472.677232 -266.756926 
L 472.677232 -266.756926 
L 470.967001 -266.90636 
L 469.25677 -267.010942 
L 467.54654 -267.102925 
L 465.836309 -267.223617 
L 464.126078 -267.329813 
L 462.415847 -267.48457 
L 460.705617 -267.609591 
L 458.995386 -267.776098 
L 457.285155 -267.886256 
L 455.574925 -268.051101 
L 453.864694 -268.156069 
L 452.154463 -268.31123 
L 450.444233 -268.430085 
L 448.734002 -268.579321 
L 447.023771 -268.735153 
L 445.31354 -268.907385 
L 443.60331 -269.017979 
L 441.893079 -269.164685 
L 440.182848 -269.34773 
L 438.472618 -269.497497 
L 436.762387 -269.676225 
L 435.052156 -269.809426 
L 433.341926 -270.031722 
L 431.631695 -270.192994 
L 429.921464 -270.375108 
L 428.211234 -270.552257 
L 426.501003 -270.724827 
L 424.790772 -270.924916 
L 423.080541 -271.111749 
L 421.370311 -271.30127 
L 419.66008 -271.515656 
L 417.949849 -271.701246 
L 416.239619 -271.909063 
L 414.529388 -272.106421 
L 412.819157 -272.352029 
L 411.108927 -272.534382 
L 409.398696 -272.731895 
L 407.688465 -273.006236 
L 405.978234 -273.177557 
L 404.268004 -273.40459 
L 402.557773 -273.643063 
L 400.847542 -273.898733 
L 399.137312 -274.082654 
L 397.427081 -274.387143 
L 395.71685 -274.6061 
L 394.00662 -274.871621 
L 392.296389 -275.156935 
L 390.586158 -275.417466 
L 388.875928 -275.672119 
L 387.165697 -275.967327 
L 385.455466 -276.263015 
L 383.745235 -276.575979 
L 382.035005 -276.885166 
L 380.324774 -277.213548 
L 378.614543 -277.538483 
L 376.904313 -277.832991 
L 375.194082 -278.214393 
L 373.483851 -278.587455 
L 371.773621 -278.945115 
L 370.06339 -279.282998 
L 368.353159 -279.649161 
L 366.642928 -280.022929 
L 364.932698 -280.390852 
L 363.222467 -280.742745 
L 361.512236 -281.111224 
L 359.802006 -281.541015 
L 358.091775 -281.932339 
L 356.381544 -282.346458 
L 354.671314 -282.740426 
L 352.961083 -283.179241 
L 351.250852 -283.629975 
L 349.540621 -284.058621 
L 347.830391 -284.490105 
L 346.12016 -284.948513 
L 344.409929 -285.439376 
L 342.699699 -285.900712 
L 340.989468 -286.428189 
L 339.279237 -286.918054 
L 337.569007 -287.428053 
L 335.858776 -287.938152 
L 334.148545 -288.420854 
L 332.438315 -288.977284 
L 330.728084 -289.519953 
L 329.017853 -290.080252 
L 327.307622 -290.652693 
L 325.597392 -291.223546 
L 323.887161 -291.785461 
L 322.17693 -292.34942 
L 320.4667 -292.943474 
L 318.756469 -293.532286 
L 317.046238 -294.177412 
L 315.336008 -294.72786 
L 313.625777 -295.374568 
L 311.915546 -295.969536 
L 310.205315 -296.603184 
L 308.495085 -297.246942 
L 306.784854 -297.885212 
L 305.074623 -298.543808 
L 303.364393 -299.175966 
L 301.654162 -299.837886 
L 299.943931 -300.520888 
L 298.233701 -301.210916 
L 296.52347 -301.872232 
L 294.813239 -302.543622 
L 293.103009 -303.22751 
L 291.392778 -303.9442 
L 289.682547 -304.651841 
L 287.972316 -305.394299 
L 286.262086 -306.121062 
L 284.551855 -306.885891 
L 282.841624 -307.642448 
L 281.131394 -308.412115 
L 279.421163 -309.205797 
L 277.710932 -310.00682 
L 276.000702 -310.839522 
L 274.290471 -311.682418 
L 272.58024 -312.508201 
L 270.870009 -313.367081 
L 269.159779 -314.240713 
L 267.449548 -315.11323 
L 265.739317 -316.002805 
L 264.029087 -316.893675 
L 262.318856 -317.807736 
L 260.608625 -318.730592 
L 258.898395 -319.663104 
L 257.188164 -320.61918 
L 255.477933 -321.58201 
L 253.767702 -322.55093 
L 252.057472 -323.527769 
L 250.347241 -324.5106 
L 248.63701 -325.515117 
L 246.92678 -326.538519 
L 245.216549 -327.559375 
L 243.506318 -328.572014 
L 241.796088 -329.591682 
L 240.085857 -330.622208 
L 238.375626 -331.651072 
L 236.665396 -332.688199 
L 234.955165 -333.724418 
L 233.244934 -334.768153 
L 231.534703 -335.818016 
L 229.824473 -336.866004 
L 228.114242 -337.916182 
L 226.404011 -338.960936 
L 224.693781 -340.003861 
L 222.98355 -341.041586 
L 221.273319 -342.082111 
L 219.563089 -343.113506 
L 217.852858 -344.140287 
L 216.142627 -345.15403 
L 214.432396 -346.160449 
L 212.722166 -347.159932 
L 211.011935 -348.149383 
L 209.301704 -349.126457 
L 207.591474 -350.089246 
L 205.881243 -351.041919 
L 204.171012 -351.981339 
L 202.460782 -352.90944 
L 200.750551 -353.823119 
L 199.04032 -354.723693 
L 197.33009 -355.612438 
L 195.619859 -356.488785 
L 193.909628 -357.35116 
L 192.199397 -358.200872 
L 190.489167 -359.036383 
L 188.778936 -359.860547 
L 187.068705 -360.675312 
L 185.358475 -361.481018 
L 183.648244 -362.27648 
L 181.938013 -363.059877 
L 180.227783 -363.836127 
L 178.517552 -364.603407 
L 176.807321 -365.365472 
L 175.09709 -366.123044 
L 173.38686 -366.875529 
L 171.676629 -367.626282 
L 169.966398 -368.375114 
L 168.256168 -369.119413 
L 166.545937 -369.857997 
L 164.835706 -370.585973 
L 163.125476 -371.305649 
L 161.415245 -372.019045 
L 159.705014 -372.733844 
L 157.994783 -373.451903 
L 156.284553 -374.174627 
L 154.574322 -374.901713 
L 152.864091 -375.633212 
L 151.153861 -376.36808 
L 149.44363 -377.106148 
L 147.733399 -377.846359 
L 146.023169 -378.588818 
L 144.312938 -379.326133 
L 142.602707 -380.054089 
L 140.892477 -380.77701 
L 139.182246 -381.501859 
L 137.472015 -382.22882 
L 135.761784 -382.952172 
L 134.051554 -383.66349 
L 132.341323 -384.359659 
L 130.631092 -385.040577 
L 128.920862 -385.707401 
L 127.210631 -386.361155 
L 125.5004 -387.000137 
L 123.79017 -387.621964 
L 122.079939 -388.222542 
L 120.369708 -388.794634 
L 118.659477 -389.33105 
L 116.949247 -389.827991 
L 115.239016 -390.280596 
L 113.528785 -390.685213 
L 111.818555 -391.041352 
L 110.108324 -391.351528 
L 108.398093 -391.62429 
L 106.687863 -391.86911 
L 104.977632 -392.094981 
L 103.267401 -392.310167 
L 101.557171 -392.521702 
L 99.84694 -392.737602 
L 98.136709 -392.964845 
L 96.426478 -393.208674 
L 94.716248 -393.472094 
L 93.006017 -393.756221 
L 91.295786 -394.060151 
L 89.585556 -394.379149 
L 87.875325 -394.702599 
L 86.165094 -395.012519 
L 84.454864 -395.288102 
L 82.744633 -395.511454 
L 81.034402 -395.677498 
L 79.324171 -395.793817 
L 77.613941 -395.873509 
L 75.90371 -395.928486 
L 74.193479 -395.967304 
L 72.483249 -395.995607 
L 70.773018 -396.017027 
L 69.062787 -396.033983 
L 67.352557 -396.04815 
L 65.642326 -396.060825 
L 63.932095 -396.073198 
L 62.221864 -397.376123 
z
" style="stroke: #33ccff; stroke-opacity: 0.3"/>
    </defs>
    <g clip-path="url(#p312651cd0c)">
     <use xlink:href="#m0797204a21" x="0" y="432" style="fill: #33ccff; fill-opacity: 0.3; stroke: #33ccff; stroke-opacity: 0.3"/>
    </g>
   </g>
   <g id="PolyCollection_2">
    <defs>
     <path id="ma1ff51480a" d="M 62.221864 -397.498182 
L 62.221864 -397.48456 
L 63.932095 -396.160371 
L 65.642326 -396.153446 
L 67.352557 -396.146308 
L 69.062787 -396.138272 
L 70.773018 -396.12853 
L 72.483249 -396.115938 
L 74.193479 -396.098719 
L 75.90371 -396.073875 
L 77.613941 -396.036172 
L 79.324171 -395.976368 
L 81.034402 -395.879038 
L 82.744633 -395.723573 
L 84.454864 -395.491988 
L 86.165094 -395.1794 
L 87.875325 -394.803437 
L 89.585556 -394.395255 
L 91.295786 -393.988059 
L 93.006017 -393.603419 
L 94.716248 -393.246851 
L 96.426478 -392.916564 
L 98.136709 -392.603803 
L 99.84694 -392.293384 
L 101.557171 -391.969402 
L 103.267401 -391.622132 
L 104.977632 -391.23724 
L 106.687863 -390.808699 
L 108.398093 -390.345074 
L 110.108324 -389.867832 
L 111.818555 -389.394172 
L 113.528785 -388.932967 
L 115.239016 -388.493645 
L 116.949247 -388.090033 
L 118.659477 -387.721493 
L 120.369708 -387.382599 
L 122.079939 -387.065039 
L 123.79017 -386.759708 
L 125.5004 -386.45691 
L 127.210631 -386.152511 
L 128.920862 -385.842244 
L 130.631092 -385.514273 
L 132.341323 -385.157673 
L 134.051554 -384.770476 
L 135.761784 -384.35368 
L 137.472015 -383.906947 
L 139.182246 -383.427465 
L 140.892477 -382.914041 
L 142.602707 -382.36943 
L 144.312938 -381.795315 
L 146.023169 -381.187149 
L 147.733399 -380.53992 
L 149.44363 -379.851673 
L 151.153861 -379.11855 
L 152.864091 -378.339803 
L 154.574322 -377.509167 
L 156.284553 -376.629709 
L 157.994783 -375.696232 
L 159.705014 -374.709998 
L 161.415245 -373.670312 
L 163.125476 -372.578957 
L 164.835706 -371.436984 
L 166.545937 -370.242242 
L 168.256168 -368.997393 
L 169.966398 -367.70134 
L 171.676629 -366.351007 
L 173.38686 -364.96251 
L 175.09709 -363.532415 
L 176.807321 -362.068791 
L 178.517552 -360.581535 
L 180.227783 -359.076521 
L 181.938013 -357.556254 
L 183.648244 -356.027794 
L 185.358475 -354.495152 
L 187.068705 -352.966963 
L 188.778936 -351.460243 
L 190.489167 -349.955328 
L 192.199397 -348.488408 
L 193.909628 -347.008088 
L 195.619859 -345.558132 
L 197.33009 -344.135137 
L 199.04032 -342.73112 
L 200.750551 -341.342696 
L 202.460782 -339.979047 
L 204.171012 -338.632208 
L 205.881243 -337.312009 
L 207.591474 -336.01528 
L 209.301704 -334.742264 
L 211.011935 -333.506876 
L 212.722166 -332.287205 
L 214.432396 -331.106059 
L 216.142627 -329.9313 
L 217.852858 -328.78934 
L 219.563089 -327.679759 
L 221.273319 -326.591158 
L 222.98355 -325.505235 
L 224.693781 -324.447316 
L 226.404011 -323.413659 
L 228.114242 -322.393983 
L 229.824473 -321.398455 
L 231.534703 -320.431322 
L 233.244934 -319.478343 
L 234.955165 -318.558456 
L 236.665396 -317.647998 
L 238.375626 -316.764914 
L 240.085857 -315.881032 
L 241.796088 -315.025832 
L 243.506318 -314.198463 
L 245.216549 -313.402437 
L 246.92678 -312.612363 
L 248.63701 -311.848312 
L 250.347241 -311.088358 
L 252.057472 -310.358367 
L 253.767702 -309.630865 
L 255.477933 -308.915787 
L 257.188164 -308.206515 
L 258.898395 -307.50332 
L 260.608625 -306.793612 
L 262.318856 -306.107852 
L 264.029087 -305.436166 
L 265.739317 -304.756334 
L 267.449548 -304.087826 
L 269.159779 -303.421908 
L 270.870009 -302.785913 
L 272.58024 -302.121154 
L 274.290471 -301.480884 
L 276.000702 -300.849898 
L 277.710932 -300.21507 
L 279.421163 -299.573059 
L 281.131394 -298.981301 
L 282.841624 -298.357756 
L 284.551855 -297.759521 
L 286.262086 -297.138925 
L 287.972316 -296.538279 
L 289.682547 -295.945474 
L 291.392778 -295.350225 
L 293.103009 -294.740955 
L 294.813239 -294.166925 
L 296.52347 -293.561985 
L 298.233701 -292.991945 
L 299.943931 -292.411562 
L 301.654162 -291.831229 
L 303.364393 -291.263179 
L 305.074623 -290.73226 
L 306.784854 -290.183759 
L 308.495085 -289.641965 
L 310.205315 -289.094184 
L 311.915546 -288.544583 
L 313.625777 -288.016456 
L 315.336008 -287.509129 
L 317.046238 -287.012799 
L 318.756469 -286.494619 
L 320.4667 -285.99323 
L 322.17693 -285.511547 
L 323.887161 -285.035951 
L 325.597392 -284.530627 
L 327.307622 -284.065941 
L 329.017853 -283.642553 
L 330.728084 -283.133757 
L 332.438315 -282.690515 
L 334.148545 -282.22835 
L 335.858776 -281.796102 
L 337.569007 -281.341873 
L 339.279237 -280.934118 
L 340.989468 -280.484485 
L 342.699699 -280.057757 
L 344.409929 -279.656275 
L 346.12016 -279.23558 
L 347.830391 -278.835707 
L 349.540621 -278.456592 
L 351.250852 -278.049248 
L 352.961083 -277.645724 
L 354.671314 -277.289083 
L 356.381544 -276.910436 
L 358.091775 -276.521743 
L 359.802006 -276.149412 
L 361.512236 -275.796635 
L 363.222467 -275.439179 
L 364.932698 -275.059786 
L 366.642928 -274.731348 
L 368.353159 -274.380383 
L 370.06339 -274.047604 
L 371.773621 -273.715856 
L 373.483851 -273.36526 
L 375.194082 -273.019986 
L 376.904313 -272.698717 
L 378.614543 -272.39289 
L 380.324774 -272.076634 
L 382.035005 -271.745148 
L 383.745235 -271.461866 
L 385.455466 -271.12652 
L 387.165697 -270.868317 
L 388.875928 -270.530656 
L 390.586158 -270.240522 
L 392.296389 -269.930849 
L 394.00662 -269.651993 
L 395.71685 -269.342105 
L 397.427081 -269.071916 
L 399.137312 -268.787305 
L 400.847542 -268.514524 
L 402.557773 -268.240249 
L 404.268004 -267.964698 
L 405.978234 -267.682242 
L 407.688465 -267.419242 
L 409.398696 -267.144469 
L 411.108927 -266.883331 
L 412.819157 -266.634683 
L 414.529388 -266.35632 
L 416.239619 -266.117887 
L 417.949849 -265.853782 
L 419.66008 -265.61945 
L 421.370311 -265.363193 
L 423.080541 -265.128833 
L 424.790772 -264.8786 
L 426.501003 -264.657163 
L 428.211234 -264.433342 
L 429.921464 -264.206683 
L 431.631695 -263.972681 
L 433.341926 -263.758784 
L 435.052156 -263.558056 
L 436.762387 -263.325789 
L 438.472618 -263.097104 
L 440.182848 -262.929783 
L 441.893079 -262.687021 
L 443.60331 -262.477821 
L 445.31354 -262.30246 
L 447.023771 -262.118226 
L 448.734002 -261.891933 
L 450.444233 -261.720823 
L 452.154463 -261.531048 
L 453.864694 -261.336073 
L 455.574925 -261.176582 
L 457.285155 -260.984819 
L 458.995386 -260.822091 
L 460.705617 -260.614786 
L 462.415847 -260.419488 
L 464.126078 -260.271403 
L 465.836309 -260.077161 
L 467.54654 -259.916851 
L 469.25677 -259.780824 
L 470.967001 -259.627648 
L 472.677232 -259.461818 
L 472.677232 -263.479627 
L 472.677232 -263.479627 
L 470.967001 -263.660416 
L 469.25677 -263.797601 
L 467.54654 -263.937364 
L 465.836309 -264.087969 
L 464.126078 -264.283658 
L 462.415847 -264.43599 
L 460.705617 -264.624998 
L 458.995386 -264.835095 
L 457.285155 -265.006677 
L 455.574925 -265.195932 
L 453.864694 -265.344749 
L 452.154463 -265.538321 
L 450.444233 -265.717231 
L 448.734002 -265.889108 
L 447.023771 -266.100281 
L 445.31354 -266.277607 
L 443.60331 -266.445051 
L 441.893079 -266.643885 
L 440.182848 -266.872344 
L 438.472618 -267.034919 
L 436.762387 -267.254941 
L 435.052156 -267.470208 
L 433.341926 -267.663877 
L 431.631695 -267.872363 
L 429.921464 -268.086217 
L 428.211234 -268.303235 
L 426.501003 -268.513233 
L 424.790772 -268.746963 
L 423.080541 -268.97456 
L 421.370311 -269.206414 
L 419.66008 -269.448707 
L 417.949849 -269.675432 
L 416.239619 -269.943596 
L 414.529388 -270.159623 
L 412.819157 -270.42303 
L 411.108927 -270.665038 
L 409.398696 -270.909247 
L 407.688465 -271.166865 
L 405.978234 -271.431476 
L 404.268004 -271.688044 
L 402.557773 -271.957579 
L 400.847542 -272.220768 
L 399.137312 -272.489092 
L 397.427081 -272.75176 
L 395.71685 -273.00347 
L 394.00662 -273.304334 
L 392.296389 -273.575539 
L 390.586158 -273.859315 
L 388.875928 -274.138028 
L 387.165697 -274.448703 
L 385.455466 -274.702705 
L 383.745235 -275.022182 
L 382.035005 -275.293036 
L 380.324774 -275.602086 
L 378.614543 -275.907782 
L 376.904313 -276.197691 
L 375.194082 -276.499679 
L 373.483851 -276.838938 
L 371.773621 -277.166427 
L 370.06339 -277.471675 
L 368.353159 -277.79334 
L 366.642928 -278.124231 
L 364.932698 -278.438391 
L 363.222467 -278.794885 
L 361.512236 -279.133801 
L 359.802006 -279.473066 
L 358.091775 -279.831773 
L 356.381544 -280.185886 
L 354.671314 -280.551128 
L 352.961083 -280.888425 
L 351.250852 -281.267676 
L 349.540621 -281.661525 
L 347.830391 -282.01827 
L 346.12016 -282.413176 
L 344.409929 -282.805999 
L 342.699699 -283.196155 
L 340.989468 -283.600117 
L 339.279237 -284.031845 
L 337.569007 -284.428449 
L 335.858776 -284.867098 
L 334.148545 -285.282672 
L 332.438315 -285.729714 
L 330.728084 -286.159182 
L 329.017853 -286.656871 
L 327.307622 -287.073823 
L 325.597392 -287.520408 
L 323.887161 -288.011019 
L 322.17693 -288.483995 
L 320.4667 -288.953402 
L 318.756469 -289.441633 
L 317.046238 -289.94397 
L 315.336008 -290.439448 
L 313.625777 -290.941751 
L 311.915546 -291.458615 
L 310.205315 -292.011504 
L 308.495085 -292.537767 
L 306.784854 -293.074682 
L 305.074623 -293.617022 
L 303.364393 -294.137321 
L 301.654162 -294.702622 
L 299.943931 -295.268914 
L 298.233701 -295.845202 
L 296.52347 -296.419919 
L 294.813239 -297.022612 
L 293.103009 -297.576174 
L 291.392778 -298.187181 
L 289.682547 -298.777438 
L 287.972316 -299.357984 
L 286.262086 -299.947693 
L 284.551855 -300.553422 
L 282.841624 -301.138522 
L 281.131394 -301.755253 
L 279.421163 -302.328726 
L 277.710932 -302.954524 
L 276.000702 -303.57633 
L 274.290471 -304.198017 
L 272.58024 -304.832059 
L 270.870009 -305.476708 
L 269.159779 -306.105209 
L 267.449548 -306.756435 
L 265.739317 -307.423336 
L 264.029087 -308.086967 
L 262.318856 -308.750669 
L 260.608625 -309.432702 
L 258.898395 -310.134548 
L 257.188164 -310.834093 
L 255.477933 -311.541352 
L 253.767702 -312.250098 
L 252.057472 -312.968341 
L 250.347241 -313.690568 
L 248.63701 -314.436004 
L 246.92678 -315.186062 
L 245.216549 -315.966816 
L 243.506318 -316.756104 
L 241.796088 -317.570027 
L 240.085857 -318.422912 
L 238.375626 -319.305002 
L 236.665396 -320.187054 
L 234.955165 -321.103629 
L 233.244934 -322.033442 
L 231.534703 -322.99588 
L 229.824473 -323.985338 
L 228.114242 -324.995438 
L 226.404011 -326.035527 
L 224.693781 -327.103436 
L 222.98355 -328.18978 
L 221.273319 -329.294461 
L 219.563089 -330.413525 
L 217.852858 -331.55148 
L 216.142627 -332.716221 
L 214.432396 -333.911458 
L 212.722166 -335.116548 
L 211.011935 -336.35858 
L 209.301704 -337.607684 
L 207.591474 -338.887443 
L 205.881243 -340.186016 
L 204.171012 -341.504274 
L 202.460782 -342.849076 
L 200.750551 -344.20611 
L 199.04032 -345.58222 
L 197.33009 -346.966636 
L 195.619859 -348.36475 
L 193.909628 -349.781421 
L 192.199397 -351.223161 
L 190.489167 -352.646257 
L 188.778936 -354.100517 
L 187.068705 -355.555176 
L 185.358475 -357.024349 
L 183.648244 -358.495176 
L 181.938013 -359.961245 
L 180.227783 -361.412674 
L 178.517552 -362.842975 
L 176.807321 -364.249453 
L 175.09709 -365.627617 
L 173.38686 -366.971342 
L 171.676629 -368.26935 
L 169.966398 -369.52548 
L 168.256168 -370.727739 
L 166.545937 -371.878623 
L 164.835706 -372.979429 
L 163.125476 -374.02787 
L 161.415245 -375.027992 
L 159.705014 -375.979378 
L 157.994783 -376.881769 
L 156.284553 -377.738345 
L 154.574322 -378.544797 
L 152.864091 -379.306795 
L 151.153861 -380.022085 
L 149.44363 -380.695281 
L 147.733399 -381.329158 
L 146.023169 -381.926645 
L 144.312938 -382.490877 
L 142.602707 -383.025987 
L 140.892477 -383.534792 
L 139.182246 -384.014703 
L 137.472015 -384.460749 
L 135.761784 -384.874536 
L 134.051554 -385.262648 
L 132.341323 -385.628582 
L 130.631092 -385.971915 
L 128.920862 -386.293895 
L 127.210631 -386.605772 
L 125.5004 -386.92255 
L 123.79017 -387.248719 
L 122.079939 -387.58233 
L 120.369708 -387.927488 
L 118.659477 -388.291299 
L 116.949247 -388.682678 
L 115.239016 -389.103869 
L 113.528785 -389.548358 
L 111.818555 -389.995193 
L 110.108324 -390.435141 
L 108.398093 -390.863434 
L 106.687863 -391.270301 
L 104.977632 -391.643356 
L 103.267401 -391.980686 
L 101.557171 -392.290482 
L 99.84694 -392.589835 
L 98.136709 -392.892267 
L 96.426478 -393.210127 
L 94.716248 -393.551937 
L 93.006017 -393.917585 
L 91.295786 -394.302091 
L 89.585556 -394.694999 
L 87.875325 -395.072329 
L 86.165094 -395.401354 
L 84.454864 -395.657337 
L 82.744633 -395.834663 
L 81.034402 -395.947483 
L 79.324171 -396.017007 
L 77.613941 -396.06053 
L 75.90371 -396.088916 
L 74.193479 -396.108336 
L 72.483249 -396.122306 
L 70.773018 -396.132893 
L 69.062787 -396.141381 
L 67.352557 -396.14865 
L 65.642326 -396.155371 
L 63.932095 -396.162188 
L 62.221864 -397.498182 
z
" style="stroke: #f99a5a; stroke-opacity: 0.3"/>
    </defs>
    <g clip-path="url(#p312651cd0c)">
     <use xlink:href="#ma1ff51480a" x="0" y="432" style="fill: #f99a5a; fill-opacity: 0.3; stroke: #f99a5a; stroke-opacity: 0.3"/>
    </g>
   </g>
   <g id="matplotlib.axis_1">
    <g id="xtick_1">
     <g id="line2d_1">
      <defs>
       <path id="m1ad57151f4" d="M 0 0 
L 0 3.5 
" style="stroke: #000000; stroke-width: 0.8"/>
      </defs>
      <g>
       <use xlink:href="#m1ad57151f4" x="62.221864" y="179.44" style="stroke: #000000; stroke-width: 0.8"/>
      </g>
     </g>
     <g id="text_1">
      <text style="font: 10px 'sans-serif'; text-anchor: middle" x="62.221864" y="194.038437" transform="rotate(-0, 62.221864, 194.038437)">0</text>
     </g>
    </g>
    <g id="xtick_2">
     <g id="line2d_2">
      <g>
       <use xlink:href="#m1ad57151f4" x="130.631092" y="179.44" style="stroke: #000000; stroke-width: 0.8"/>
      </g>
     </g>
     <g id="text_2">
      <text style="font: 10px 'sans-serif'; text-anchor: middle" x="130.631092" y="194.038437" transform="rotate(-0, 130.631092, 194.038437)">2000</text>
     </g>
    </g>
    <g id="xtick_3">
     <g id="line2d_3">
      <g>
       <use xlink:href="#m1ad57151f4" x="199.04032" y="179.44" style="stroke: #000000; stroke-width: 0.8"/>
      </g>
     </g>
     <g id="text_3">
      <text style="font: 10px 'sans-serif'; text-anchor: middle" x="199.04032" y="194.038437" transform="rotate(-0, 199.04032, 194.038437)">4000</text>
     </g>
    </g>
    <g id="xtick_4">
     <g id="line2d_4">
      <g>
       <use xlink:href="#m1ad57151f4" x="267.449548" y="179.44" style="stroke: #000000; stroke-width: 0.8"/>
      </g>
     </g>
     <g id="text_4">
      <text style="font: 10px 'sans-serif'; text-anchor: middle" x="267.449548" y="194.038437" transform="rotate(-0, 267.449548, 194.038437)">6000</text>
     </g>
    </g>
    <g id="xtick_5">
     <g id="line2d_5">
      <g>
       <use xlink:href="#m1ad57151f4" x="335.858776" y="179.44" style="stroke: #000000; stroke-width: 0.8"/>
      </g>
     </g>
     <g id="text_5">
      <text style="font: 10px 'sans-serif'; text-anchor: middle" x="335.858776" y="194.038437" transform="rotate(-0, 335.858776, 194.038437)">8000</text>
     </g>
    </g>
    <g id="xtick_6">
     <g id="line2d_6">
      <g>
       <use xlink:href="#m1ad57151f4" x="404.268004" y="179.44" style="stroke: #000000; stroke-width: 0.8"/>
      </g>
     </g>
     <g id="text_6">
      <text style="font: 10px 'sans-serif'; text-anchor: middle" x="404.268004" y="194.038437" transform="rotate(-0, 404.268004, 194.038437)">10000</text>
     </g>
    </g>
    <g id="xtick_7">
     <g id="line2d_7">
      <g>
       <use xlink:href="#m1ad57151f4" x="472.677232" y="179.44" style="stroke: #000000; stroke-width: 0.8"/>
      </g>
     </g>
     <g id="text_7">
      <text style="font: 10px 'sans-serif'; text-anchor: middle" x="472.677232" y="194.038437" transform="rotate(-0, 472.677232, 194.038437)">12000</text>
     </g>
    </g>
    <g id="text_8">
     <text style="font: 10px 'sans-serif'; text-anchor: middle" x="267.449548" y="207.716562" transform="rotate(-0, 267.449548, 207.716562)">Epoch</text>
    </g>
   </g>
   <g id="matplotlib.axis_2">
    <g id="ytick_1">
     <g id="line2d_8">
      <defs>
       <path id="maab53b760f" d="M 0 0 
L -3.5 0 
" style="stroke: #000000; stroke-width: 0.8"/>
      </defs>
      <g>
       <use xlink:href="#maab53b760f" x="41.699096" y="117.288399" style="stroke: #000000; stroke-width: 0.8"/>
      </g>
     </g>
     <g id="text_9">
      <!-- $\mathdefault{10^{-1}}$ -->
      <g transform="translate(11.199096 121.087617)">
       <text>
        <tspan style="font: 10px 'DejaVu Sans'" x="0 6.362305" y="-0.06406250000000036">10</tspan>
        <tspan style="font: 7px 'DejaVu Sans'" x="12.820312 18.685547" y="-3.8921875000000004">−1</tspan>
       </text>
      </g>
     </g>
    </g>
    <g id="ytick_2">
     <g id="line2d_9">
      <g>
       <use xlink:href="#maab53b760f" x="41.699096" y="38.870886" style="stroke: #000000; stroke-width: 0.8"/>
      </g>
     </g>
     <g id="text_10">
      <!-- $\mathdefault{10^{0}}$ -->
      <g transform="translate(17.099096 42.670104)">
       <text>
        <tspan style="font: 10px 'DejaVu Sans'" x="0 6.362305" y="-0.9765625">10</tspan>
        <tspan style="font: 7px 'DejaVu Sans'" x="12.820312" y="-4.8046875">0</tspan>
       </text>
      </g>
     </g>
    </g>
    <g id="ytick_3">
     <g id="line2d_10">
      <defs>
       <path id="mb0c000762d" d="M 0 0 
L -2 0 
" style="stroke: #000000; stroke-width: 0.6"/>
      </defs>
      <g>
       <use xlink:href="#mb0c000762d" x="41.699096" y="172.099888" style="stroke: #000000; stroke-width: 0.6"/>
      </g>
     </g>
    </g>
    <g id="ytick_4">
     <g id="line2d_11">
      <g>
       <use xlink:href="#mb0c000762d" x="41.699096" y="158.291249" style="stroke: #000000; stroke-width: 0.6"/>
      </g>
     </g>
    </g>
    <g id="ytick_5">
     <g id="line2d_12">
      <g>
       <use xlink:href="#mb0c000762d" x="41.699096" y="148.493864" style="stroke: #000000; stroke-width: 0.6"/>
      </g>
     </g>
    </g>
    <g id="ytick_6">
     <g id="line2d_13">
      <g>
       <use xlink:href="#mb0c000762d" x="41.699096" y="140.894422" style="stroke: #000000; stroke-width: 0.6"/>
      </g>
     </g>
    </g>
    <g id="ytick_7">
     <g id="line2d_14">
      <g>
       <use xlink:href="#mb0c000762d" x="41.699096" y="134.685226" style="stroke: #000000; stroke-width: 0.6"/>
      </g>
     </g>
    </g>
    <g id="ytick_8">
     <g id="line2d_15">
      <g>
       <use xlink:href="#mb0c000762d" x="41.699096" y="129.435425" style="stroke: #000000; stroke-width: 0.6"/>
      </g>
     </g>
    </g>
    <g id="ytick_9">
     <g id="line2d_16">
      <g>
       <use xlink:href="#mb0c000762d" x="41.699096" y="124.887841" style="stroke: #000000; stroke-width: 0.6"/>
      </g>
     </g>
    </g>
    <g id="ytick_10">
     <g id="line2d_17">
      <g>
       <use xlink:href="#mb0c000762d" x="41.699096" y="120.876587" style="stroke: #000000; stroke-width: 0.6"/>
      </g>
     </g>
    </g>
    <g id="ytick_11">
     <g id="line2d_18">
      <g>
       <use xlink:href="#mb0c000762d" x="41.699096" y="93.682375" style="stroke: #000000; stroke-width: 0.6"/>
      </g>
     </g>
    </g>
    <g id="ytick_12">
     <g id="line2d_19">
      <g>
       <use xlink:href="#mb0c000762d" x="41.699096" y="79.873736" style="stroke: #000000; stroke-width: 0.6"/>
      </g>
     </g>
    </g>
    <g id="ytick_13">
     <g id="line2d_20">
      <g>
       <use xlink:href="#mb0c000762d" x="41.699096" y="70.076351" style="stroke: #000000; stroke-width: 0.6"/>
      </g>
     </g>
    </g>
    <g id="ytick_14">
     <g id="line2d_21">
      <g>
       <use xlink:href="#mb0c000762d" x="41.699096" y="62.476909" style="stroke: #000000; stroke-width: 0.6"/>
      </g>
     </g>
    </g>
    <g id="ytick_15">
     <g id="line2d_22">
      <g>
       <use xlink:href="#mb0c000762d" x="41.699096" y="56.267713" style="stroke: #000000; stroke-width: 0.6"/>
      </g>
     </g>
    </g>
    <g id="ytick_16">
     <g id="line2d_23">
      <g>
       <use xlink:href="#mb0c000762d" x="41.699096" y="51.017912" style="stroke: #000000; stroke-width: 0.6"/>
      </g>
     </g>
    </g>
    <g id="ytick_17">
     <g id="line2d_24">
      <g>
       <use xlink:href="#mb0c000762d" x="41.699096" y="46.470328" style="stroke: #000000; stroke-width: 0.6"/>
      </g>
     </g>
    </g>
    <g id="ytick_18">
     <g id="line2d_25">
      <g>
       <use xlink:href="#mb0c000762d" x="41.699096" y="42.459074" style="stroke: #000000; stroke-width: 0.6"/>
      </g>
     </g>
    </g>
   </g>
   <g id="line2d_26">
    <path d="M 62.221864 34.631566 
L 63.932095 35.928325 
L 75.90371 36.082833 
L 81.034402 36.360122 
L 84.454864 36.782326 
L 101.557171 39.575922 
L 108.398093 40.525637 
L 111.818555 41.162946 
L 115.239016 41.990166 
L 118.659477 43.011085 
L 123.79017 44.798579 
L 130.631092 47.455835 
L 139.182246 51.033825 
L 169.966398 64.27791 
L 181.938013 69.694319 
L 190.489167 73.808451 
L 197.33009 77.313842 
L 204.171012 81.033878 
L 212.722166 85.978566 
L 222.98355 92.235992 
L 248.63701 108.012089 
L 255.477933 111.981924 
L 264.029087 116.702677 
L 272.58024 121.119919 
L 282.841624 126.021899 
L 291.392778 129.747953 
L 296.52347 131.842766 
L 311.915546 137.755149 
L 332.438315 144.732102 
L 335.858776 145.769905 
L 346.12016 148.766833 
L 354.671314 150.976519 
L 368.353159 154.099575 
L 380.324774 156.549941 
L 390.586158 158.366391 
L 405.978234 160.658589 
L 412.819157 161.504257 
L 417.949849 162.158488 
L 443.60331 164.886479 
L 448.734002 165.328819 
L 465.836309 166.703836 
L 472.677232 167.187537 
L 472.677232 167.187537 
" clip-path="url(#p312651cd0c)" style="fill: none; stroke: #33ccff; stroke-width: 1.5; stroke-linecap: square"/>
   </g>
   <g id="line2d_27">
    <path d="M 62.221864 34.508628 
L 63.932095 35.838721 
L 79.324171 36.003307 
L 82.744633 36.220837 
L 86.165094 36.709442 
L 91.295786 37.854563 
L 96.426478 38.936338 
L 104.977632 40.559097 
L 110.108324 41.847333 
L 116.949247 43.612356 
L 122.079939 44.675334 
L 134.051554 46.982549 
L 139.182246 48.27765 
L 144.312938 49.855128 
L 149.44363 51.723911 
L 152.864091 53.173269 
L 156.284553 54.811462 
L 159.705014 56.649398 
L 163.125476 58.688882 
L 166.545937 60.92974 
L 169.966398 63.374378 
L 175.09709 67.403874 
L 181.938013 73.220026 
L 193.909628 83.577023 
L 200.750551 89.195512 
L 207.591474 94.518369 
L 212.722166 98.26875 
L 219.563089 102.925934 
L 226.404011 107.250182 
L 231.534703 110.262265 
L 236.665396 113.058817 
L 243.506318 116.498712 
L 250.347241 119.585689 
L 260.608625 123.861286 
L 269.159779 127.210021 
L 286.262086 133.427743 
L 303.364393 139.269439 
L 322.17693 144.96981 
L 334.148545 148.21026 
L 347.830391 151.535849 
L 368.353159 155.870402 
L 385.455466 159.038468 
L 390.586158 159.902038 
L 400.847542 161.581962 
L 417.949849 164.181815 
L 438.472618 166.877106 
L 443.60331 167.480829 
L 458.995386 169.112332 
L 465.836309 169.858425 
L 472.677232 170.470061 
L 472.677232 170.470061 
" clip-path="url(#p312651cd0c)" style="fill: none; stroke: #f99a5a; stroke-width: 1.5; stroke-linecap: square"/>
   </g>
   <g id="line2d_28">
    <path d="M 69.062787 179.44 
L 69.062787 27.6 
" clip-path="url(#p312651cd0c)" style="fill: none; stroke-dasharray: 1.85,0.8; stroke-dashoffset: 0; stroke: #1a1a1a; stroke-width: 0.5"/>
   </g>
   <g id="line2d_29">
    <path d="M 116.949247 179.44 
L 116.949247 27.6 
" clip-path="url(#p312651cd0c)" style="fill: none; stroke-dasharray: 1.85,0.8; stroke-dashoffset: 0; stroke: #1a1a1a; stroke-width: 0.5"/>
   </g>
   <g id="line2d_30">
    <path d="M 281.131394 179.44 
L 281.131394 27.6 
" clip-path="url(#p312651cd0c)" style="fill: none; stroke-dasharray: 1.85,0.8; stroke-dashoffset: 0; stroke: #1a1a1a; stroke-width: 0.5"/>
   </g>
   <g id="patch_3">
    <path d="M 41.699096 179.44 
L 41.699096 27.6 
" style="fill: none; stroke: #000000; stroke-width: 0.8; stroke-linejoin: miter; stroke-linecap: square"/>
   </g>
   <g id="patch_4">
    <path d="M 493.2 179.44 
L 493.2 27.6 
" style="fill: none; stroke: #000000; stroke-width: 0.8; stroke-linejoin: miter; stroke-linecap: square"/>
   </g>
   <g id="patch_5">
    <path d="M 41.699096 179.44 
L 493.2 179.44 
" style="fill: none; stroke: #000000; stroke-width: 0.8; stroke-linejoin: miter; stroke-linecap: square"/>
   </g>
   <g id="patch_6">
    <path d="M 41.699096 27.6 
L 493.2 27.6 
" style="fill: none; stroke: #000000; stroke-width: 0.8; stroke-linejoin: miter; stroke-linecap: square"/>
   </g>
   <g id="text_11">
    <text style="font: 14.4px 'sans-serif'; text-anchor: middle" x="267.449548" y="21.6" transform="rotate(-0, 267.449548, 21.6)">Loss</text>
   </g>
   <g id="legend_1">
    <g id="patch_7">
     <path d="M 418.092188 64.95625 
L 486.2 64.95625 
Q 488.2 64.95625 488.2 62.95625 
L 488.2 34.6 
Q 488.2 32.6 486.2 32.6 
L 418.092188 32.6 
Q 416.092188 32.6 416.092188 34.6 
L 416.092188 62.95625 
Q 416.092188 64.95625 418.092188 64.95625 
z
" style="fill: #ffffff; opacity: 0.8; stroke: #cccccc; stroke-linejoin: miter"/>
    </g>
    <g id="line2d_31">
     <path d="M 420.092188 40.698438 
L 430.092188 40.698438 
L 440.092188 40.698438 
" style="fill: none; stroke: #33ccff; stroke-width: 1.5; stroke-linecap: square"/>
    </g>
    <g id="text_12">
     <text style="font: 10px 'sans-serif'; text-anchor: start" x="448.092188" y="44.198438" transform="rotate(-0, 448.092188, 44.198438)">English</text>
    </g>
    <g id="line2d_32">
     <path d="M 420.092188 55.376563 
L 430.092188 55.376563 
L 440.092188 55.376563 
" style="fill: none; stroke: #f99a5a; stroke-width: 1.5; stroke-linecap: square"/>
    </g>
    <g id="text_13">
     <text style="font: 10px 'sans-serif'; text-anchor: start" x="448.092188" y="58.876563" transform="rotate(-0, 448.092188, 58.876563)">French</text>
    </g>
   </g>
  </g>
  <g id="axes_2">
   <g id="patch_8">
    <path d="M 41.699096 390.04 
L 493.2 390.04 
L 493.2 238.2 
L 41.699096 238.2 
z
" style="fill: #ffffff"/>
   </g>
   <g id="PolyCollection_3">
    <defs>
     <path id="m41fedb6ccc" d="M 62.221864 -48.879075 
L 62.221864 -48.879075 
L 63.932095 -48.879075 
L 65.642326 -48.879075 
L 67.352557 -48.879075 
L 69.062787 -48.879075 
L 70.773018 -48.879075 
L 72.483249 -48.879075 
L 74.193479 -48.879075 
L 75.90371 -48.879075 
L 77.613941 -48.879075 
L 79.324171 -48.879075 
L 81.034402 -48.879075 
L 82.744633 -48.879075 
L 84.454864 -48.879075 
L 86.165094 -48.879075 
L 87.875325 -48.861818 
L 89.585556 -48.944131 
L 91.295786 -49.13684 
L 93.006017 -49.503859 
L 94.716248 -49.799679 
L 96.426478 -50.14081 
L 98.136709 -50.368756 
L 99.84694 -50.67001 
L 101.557171 -50.888524 
L 103.267401 -51.033741 
L 104.977632 -51.178826 
L 106.687863 -51.521572 
L 108.398093 -51.814589 
L 110.108324 -52.035245 
L 111.818555 -52.738762 
L 113.528785 -53.444511 
L 115.239016 -53.877705 
L 116.949247 -54.693849 
L 118.659477 -55.781503 
L 120.369708 -56.983122 
L 122.079939 -58.306415 
L 123.79017 -60.288411 
L 125.5004 -62.066522 
L 127.210631 -63.773913 
L 128.920862 -65.516872 
L 130.631092 -67.236837 
L 132.341323 -69.32063 
L 134.051554 -71.477265 
L 135.761784 -73.688204 
L 137.472015 -75.935208 
L 139.182246 -77.872027 
L 140.892477 -79.736795 
L 142.602707 -81.591076 
L 144.312938 -83.45779 
L 146.023169 -84.937481 
L 147.733399 -86.405081 
L 149.44363 -88.043501 
L 151.153861 -89.323267 
L 152.864091 -90.564402 
L 154.574322 -91.620508 
L 156.284553 -92.81165 
L 157.994783 -94.076526 
L 159.705014 -95.433348 
L 161.415245 -96.553393 
L 163.125476 -97.616604 
L 164.835706 -98.542675 
L 166.545937 -99.715189 
L 168.256168 -100.844111 
L 169.966398 -101.996071 
L 171.676629 -103.134027 
L 173.38686 -104.603823 
L 175.09709 -106.346206 
L 176.807321 -107.88054 
L 178.517552 -109.440135 
L 180.227783 -111.224396 
L 181.938013 -112.975818 
L 183.648244 -114.801363 
L 185.358475 -116.634948 
L 187.068705 -118.545438 
L 188.778936 -120.427965 
L 190.489167 -122.656805 
L 192.199397 -124.742248 
L 193.909628 -127.140814 
L 195.619859 -129.453019 
L 197.33009 -131.680295 
L 199.04032 -133.701867 
L 200.750551 -135.472272 
L 202.460782 -137.960119 
L 204.171012 -140.078016 
L 205.881243 -142.196845 
L 207.591474 -144.235804 
L 209.301704 -146.080629 
L 211.011935 -147.860203 
L 212.722166 -149.740166 
L 214.432396 -151.796692 
L 216.142627 -153.542932 
L 217.852858 -155.452238 
L 219.563089 -156.960296 
L 221.273319 -158.477956 
L 222.98355 -159.874364 
L 224.693781 -161.5563 
L 226.404011 -162.793365 
L 228.114242 -163.961013 
L 229.824473 -165.055938 
L 231.534703 -166.324964 
L 233.244934 -167.373018 
L 234.955165 -168.410417 
L 236.665396 -169.430035 
L 238.375626 -170.277322 
L 240.085857 -171.233511 
L 241.796088 -171.979909 
L 243.506318 -172.603484 
L 245.216549 -173.293117 
L 246.92678 -174.091099 
L 248.63701 -174.723535 
L 250.347241 -175.462342 
L 252.057472 -176.063472 
L 253.767702 -176.705319 
L 255.477933 -177.138419 
L 257.188164 -177.761805 
L 258.898395 -178.262256 
L 260.608625 -178.675687 
L 262.318856 -179.134934 
L 264.029087 -179.502268 
L 265.739317 -179.929712 
L 267.449548 -180.345443 
L 269.159779 -180.738057 
L 270.870009 -181.087361 
L 272.58024 -181.435301 
L 274.290471 -181.843886 
L 276.000702 -182.152427 
L 277.710932 -182.333342 
L 279.421163 -182.675103 
L 281.131394 -182.786604 
L 282.841624 -182.977134 
L 284.551855 -183.22307 
L 286.262086 -183.364962 
L 287.972316 -183.596576 
L 289.682547 -183.719567 
L 291.392778 -183.831308 
L 293.103009 -183.963267 
L 294.813239 -184.077487 
L 296.52347 -184.189405 
L 298.233701 -184.289208 
L 299.943931 -184.430221 
L 301.654162 -184.443805 
L 303.364393 -184.573895 
L 305.074623 -184.641444 
L 306.784854 -184.725755 
L 308.495085 -184.758079 
L 310.205315 -184.843221 
L 311.915546 -184.858399 
L 313.625777 -184.923967 
L 315.336008 -185.062286 
L 317.046238 -185.085903 
L 318.756469 -185.148538 
L 320.4667 -185.212415 
L 322.17693 -185.142559 
L 323.887161 -185.208393 
L 325.597392 -185.240595 
L 327.307622 -185.291528 
L 329.017853 -185.310043 
L 330.728084 -185.386366 
L 332.438315 -185.38875 
L 334.148545 -185.421142 
L 335.858776 -185.492057 
L 337.569007 -185.508371 
L 339.279237 -185.574451 
L 340.989468 -185.603672 
L 342.699699 -185.606593 
L 344.409929 -185.675852 
L 346.12016 -185.697491 
L 347.830391 -185.700931 
L 349.540621 -185.741564 
L 351.250852 -185.782063 
L 352.961083 -185.766236 
L 354.671314 -185.806895 
L 356.381544 -185.828931 
L 358.091775 -185.829426 
L 359.802006 -185.845137 
L 361.512236 -185.831915 
L 363.222467 -185.849076 
L 364.932698 -185.824073 
L 366.642928 -185.852231 
L 368.353159 -185.866167 
L 370.06339 -185.89694 
L 371.773621 -185.882504 
L 373.483851 -185.926936 
L 375.194082 -185.942896 
L 376.904313 -185.970564 
L 378.614543 -186.019246 
L 380.324774 -186.026485 
L 382.035005 -186.056331 
L 383.745235 -186.046349 
L 385.455466 -186.037347 
L 387.165697 -186.075214 
L 388.875928 -186.069378 
L 390.586158 -186.096048 
L 392.296389 -186.069971 
L 394.00662 -186.089612 
L 395.71685 -186.07081 
L 397.427081 -186.096471 
L 399.137312 -186.122557 
L 400.847542 -186.103112 
L 402.557773 -186.116312 
L 404.268004 -186.100519 
L 405.978234 -186.139636 
L 407.688465 -186.110299 
L 409.398696 -186.114566 
L 411.108927 -186.097791 
L 412.819157 -186.139969 
L 414.529388 -186.141065 
L 416.239619 -186.153232 
L 417.949849 -186.145678 
L 419.66008 -186.158971 
L 421.370311 -186.179856 
L 423.080541 -186.172904 
L 424.790772 -186.153246 
L 426.501003 -186.195888 
L 428.211234 -186.170276 
L 429.921464 -186.213153 
L 431.631695 -186.23707 
L 433.341926 -186.212817 
L 435.052156 -186.224168 
L 436.762387 -186.2566 
L 438.472618 -186.237608 
L 440.182848 -186.251087 
L 441.893079 -186.251084 
L 443.60331 -186.251087 
L 445.31354 -186.250446 
L 447.023771 -186.226587 
L 448.734002 -186.226587 
L 450.444233 -186.251426 
L 452.154463 -186.227214 
L 453.864694 -186.250446 
L 455.574925 -186.251426 
L 457.285155 -186.248094 
L 458.995386 -186.227214 
L 460.705617 -186.271865 
L 462.415847 -186.227214 
L 464.126078 -186.271865 
L 465.836309 -186.272412 
L 467.54654 -186.271212 
L 469.25677 -186.272412 
L 470.967001 -186.272412 
L 472.677232 -186.271865 
L 472.677232 -186.647021 
L 472.677232 -186.647021 
L 470.967001 -186.647233 
L 469.25677 -186.647233 
L 467.54654 -186.646915 
L 465.836309 -186.647233 
L 464.126078 -186.647021 
L 462.415847 -186.638537 
L 460.705617 -186.647021 
L 458.995386 -186.638537 
L 457.285155 -186.644984 
L 455.574925 -186.641652 
L 453.864694 -186.641114 
L 452.154463 -186.638537 
L 450.444233 -186.641652 
L 448.734002 -186.638405 
L 447.023771 -186.638405 
L 445.31354 -186.641114 
L 443.60331 -186.641232 
L 441.893079 -186.641235 
L 440.182848 -186.641232 
L 438.472618 -186.628143 
L 436.762387 -186.633442 
L 435.052156 -186.615015 
L 433.341926 -186.624848 
L 431.631695 -186.627922 
L 429.921464 -186.62527 
L 428.211234 -186.615012 
L 426.501003 -186.615209 
L 424.790772 -186.604715 
L 423.080541 -186.611624 
L 421.370311 -186.605432 
L 419.66008 -186.598231 
L 417.949849 -186.584957 
L 416.239619 -186.578921 
L 414.529388 -186.591846 
L 412.819157 -186.565616 
L 411.108927 -186.554658 
L 409.398696 -186.565209 
L 407.688465 -186.54215 
L 405.978234 -186.56519 
L 404.268004 -186.551171 
L 402.557773 -186.561187 
L 400.847542 -186.547819 
L 399.137312 -186.554942 
L 397.427081 -186.527893 
L 395.71685 -186.526986 
L 394.00662 -186.533993 
L 392.296389 -186.526307 
L 390.586158 -186.527557 
L 388.875928 -186.526142 
L 387.165697 -186.519547 
L 385.455466 -186.505037 
L 383.745235 -186.496035 
L 382.035005 -186.486813 
L 380.324774 -186.462764 
L 378.614543 -186.441918 
L 376.904313 -186.435946 
L 375.194082 -186.411996 
L 373.483851 -186.401388 
L 371.773621 -186.365358 
L 370.06339 -186.375213 
L 368.353159 -186.353609 
L 366.642928 -186.367545 
L 364.932698 -186.342567 
L 363.222467 -186.341856 
L 361.512236 -186.333966 
L 359.802006 -186.343518 
L 358.091775 -186.332661 
L 356.381544 -186.331638 
L 354.671314 -186.302056 
L 352.961083 -186.286544 
L 351.250852 -186.297285 
L 349.540621 -186.281613 
L 347.830391 -186.241784 
L 346.12016 -186.243683 
L 344.409929 -186.235718 
L 342.699699 -186.199465 
L 340.989468 -186.195554 
L 339.279237 -186.172399 
L 337.569007 -186.103364 
L 335.858776 -186.118159 
L 334.148545 -186.079766 
L 332.438315 -186.032455 
L 330.728084 -186.005995 
L 329.017853 -185.976046 
L 327.307622 -185.961162 
L 325.597392 -185.931654 
L 323.887161 -185.935749 
L 322.17693 -185.891515 
L 320.4667 -185.898326 
L 318.756469 -185.877944 
L 317.046238 -185.825957 
L 315.336008 -185.793426 
L 313.625777 -185.74501 
L 311.915546 -185.699753 
L 310.205315 -185.679251 
L 308.495085 -185.62622 
L 306.784854 -185.581897 
L 305.074623 -185.49767 
L 303.364393 -185.423291 
L 301.654162 -185.34008 
L 299.943931 -185.320264 
L 298.233701 -185.191042 
L 296.52347 -185.123848 
L 294.813239 -185.07408 
L 293.103009 -184.969684 
L 291.392778 -184.857979 
L 289.682547 -184.768184 
L 287.972316 -184.682805 
L 286.262086 -184.49958 
L 284.551855 -184.379968 
L 282.841624 -184.168935 
L 281.131394 -183.990931 
L 279.421163 -183.858763 
L 277.710932 -183.648291 
L 276.000702 -183.48572 
L 274.290471 -183.233299 
L 272.58024 -182.876351 
L 270.870009 -182.576033 
L 269.159779 -182.278577 
L 267.449548 -181.925012 
L 265.739317 -181.533839 
L 264.029087 -181.183983 
L 262.318856 -180.838915 
L 260.608625 -180.37322 
L 258.898395 -180.013143 
L 257.188164 -179.579922 
L 255.477933 -179.040016 
L 253.767702 -178.629393 
L 252.057472 -178.086694 
L 250.347241 -177.537055 
L 248.63701 -176.840434 
L 246.92678 -176.24695 
L 245.216549 -175.537016 
L 243.506318 -174.837526 
L 241.796088 -174.325132 
L 240.085857 -173.678992 
L 238.375626 -172.781123 
L 236.665396 -172.101515 
L 234.955165 -171.15129 
L 233.244934 -170.236707 
L 231.534703 -169.27357 
L 229.824473 -168.228912 
L 228.114242 -167.292911 
L 226.404011 -166.239863 
L 224.693781 -165.190568 
L 222.98355 -163.600856 
L 221.273319 -162.347685 
L 219.563089 -161.020301 
L 217.852858 -159.569857 
L 216.142627 -157.870863 
L 214.432396 -156.26006 
L 212.722166 -154.425906 
L 211.011935 -152.629251 
L 209.301704 -150.836179 
L 207.591474 -149.072324 
L 205.881243 -147.06575 
L 204.171012 -144.952312 
L 202.460782 -142.863751 
L 200.750551 -140.488532 
L 199.04032 -138.706384 
L 197.33009 -136.622079 
L 195.619859 -134.264849 
L 193.909628 -131.906417 
L 192.199397 -129.380029 
L 190.489167 -127.11595 
L 188.778936 -124.855214 
L 187.068705 -122.876263 
L 185.358475 -120.822422 
L 183.648244 -119.007741 
L 181.938013 -116.942943 
L 180.227783 -115.130475 
L 178.517552 -113.082415 
L 176.807321 -111.337701 
L 175.09709 -109.530173 
L 173.38686 -107.711299 
L 171.676629 -106.021281 
L 169.966398 -104.745587 
L 168.256168 -103.47873 
L 166.545937 -102.263154 
L 164.835706 -100.932509 
L 163.125476 -99.94354 
L 161.415245 -98.835648 
L 159.705014 -97.70868 
L 157.994783 -96.399815 
L 156.284553 -95.244594 
L 154.574322 -94.284564 
L 152.864091 -93.270628 
L 151.153861 -91.969297 
L 149.44363 -90.738224 
L 147.733399 -89.287141 
L 146.023169 -87.868974 
L 144.312938 -86.551455 
L 142.602707 -84.809409 
L 140.892477 -83.230772 
L 139.182246 -81.592668 
L 137.472015 -79.610939 
L 135.761784 -77.504494 
L 134.051554 -75.313142 
L 132.341323 -73.033867 
L 130.631092 -70.960609 
L 128.920862 -69.059978 
L 127.210631 -67.11171 
L 125.5004 -65.239288 
L 123.79017 -63.105982 
L 122.079939 -60.72624 
L 120.369708 -59.110825 
L 118.659477 -57.723006 
L 116.949247 -56.538966 
L 115.239016 -55.552555 
L 113.528785 -55.004657 
L 111.818555 -54.165973 
L 110.108324 -53.272277 
L 108.398093 -52.85168 
L 106.687863 -52.350431 
L 104.977632 -51.685207 
L 103.267401 -51.48491 
L 101.557171 -51.358008 
L 99.84694 -51.100716 
L 98.136709 -50.7265 
L 96.426478 -50.506009 
L 94.716248 -50.166036 
L 93.006017 -49.856425 
L 91.295786 -49.415132 
L 89.585556 -49.123979 
L 87.875325 -48.931755 
L 86.165094 -48.879075 
L 84.454864 -48.879075 
L 82.744633 -48.879075 
L 81.034402 -48.879075 
L 79.324171 -48.879075 
L 77.613941 -48.879075 
L 75.90371 -48.879075 
L 74.193479 -48.879075 
L 72.483249 -48.879075 
L 70.773018 -48.879075 
L 69.062787 -48.879075 
L 67.352557 -48.879075 
L 65.642326 -48.879075 
L 63.932095 -48.879075 
L 62.221864 -48.879075 
z
" style="stroke: #33ccff; stroke-opacity: 0.3"/>
    </defs>
    <g clip-path="url(#p066cd16798)">
     <use xlink:href="#m41fedb6ccc" x="0" y="432" style="fill: #33ccff; fill-opacity: 0.3; stroke: #33ccff; stroke-opacity: 0.3"/>
    </g>
   </g>
   <g id="PolyCollection_4">
    <defs>
     <path id="m00e4b38580" d="M 62.221864 -48.879075 
L 62.221864 -48.879075 
L 63.932095 -48.879075 
L 65.642326 -48.879075 
L 67.352557 -48.879075 
L 69.062787 -48.879075 
L 70.773018 -48.879075 
L 72.483249 -48.879075 
L 74.193479 -48.879075 
L 75.90371 -48.879075 
L 77.613941 -48.879075 
L 79.324171 -48.879075 
L 81.034402 -48.879075 
L 82.744633 -48.879075 
L 84.454864 -48.879075 
L 86.165094 -48.879075 
L 87.875325 -48.879075 
L 89.585556 -48.879075 
L 91.295786 -48.892026 
L 93.006017 -49.034684 
L 94.716248 -49.316035 
L 96.426478 -49.759987 
L 98.136709 -50.298983 
L 99.84694 -50.8043 
L 101.557171 -51.229617 
L 103.267401 -51.703336 
L 104.977632 -52.040887 
L 106.687863 -52.298902 
L 108.398093 -52.625278 
L 110.108324 -52.888947 
L 111.818555 -53.180571 
L 113.528785 -53.573563 
L 115.239016 -53.982935 
L 116.949247 -54.480872 
L 118.659477 -55.05224 
L 120.369708 -55.433399 
L 122.079939 -55.885939 
L 123.79017 -56.333781 
L 125.5004 -56.866248 
L 127.210631 -57.371254 
L 128.920862 -57.847536 
L 130.631092 -58.253222 
L 132.341323 -58.596018 
L 134.051554 -59.023833 
L 135.761784 -59.483123 
L 137.472015 -59.914796 
L 139.182246 -60.365381 
L 140.892477 -60.972414 
L 142.602707 -61.60526 
L 144.312938 -62.246832 
L 146.023169 -63.069981 
L 147.733399 -64.18738 
L 149.44363 -65.332888 
L 151.153861 -66.582904 
L 152.864091 -68.026218 
L 154.574322 -69.761449 
L 156.284553 -71.597645 
L 157.994783 -74.1551 
L 159.705014 -77.209761 
L 161.415245 -80.454186 
L 163.125476 -83.811398 
L 164.835706 -87.72236 
L 166.545937 -91.267588 
L 168.256168 -95.167173 
L 169.966398 -99.106894 
L 171.676629 -103.397016 
L 173.38686 -107.347035 
L 175.09709 -111.381319 
L 176.807321 -115.736909 
L 178.517552 -119.478196 
L 180.227783 -123.441537 
L 181.938013 -127.080027 
L 183.648244 -130.643122 
L 185.358475 -133.883372 
L 187.068705 -137.341604 
L 188.778936 -140.605012 
L 190.489167 -143.720842 
L 192.199397 -146.748188 
L 193.909628 -148.94307 
L 195.619859 -151.052719 
L 197.33009 -153.465813 
L 199.04032 -155.413929 
L 200.750551 -157.320104 
L 202.460782 -158.767257 
L 204.171012 -160.414009 
L 205.881243 -161.7979 
L 207.591474 -163.252506 
L 209.301704 -164.413124 
L 211.011935 -165.664366 
L 212.722166 -166.911871 
L 214.432396 -168.006085 
L 216.142627 -169.134429 
L 217.852858 -170.479104 
L 219.563089 -171.493353 
L 221.273319 -172.395022 
L 222.98355 -173.380319 
L 224.693781 -174.13464 
L 226.404011 -174.859759 
L 228.114242 -175.483666 
L 229.824473 -176.131956 
L 231.534703 -176.542751 
L 233.244934 -176.944003 
L 234.955165 -177.471114 
L 236.665396 -177.84506 
L 238.375626 -178.239815 
L 240.085857 -178.600314 
L 241.796088 -178.894524 
L 243.506318 -179.233132 
L 245.216549 -179.588888 
L 246.92678 -179.866519 
L 248.63701 -180.192359 
L 250.347241 -180.480395 
L 252.057472 -180.594239 
L 253.767702 -180.917343 
L 255.477933 -181.028227 
L 257.188164 -181.243791 
L 258.898395 -181.468468 
L 260.608625 -181.68281 
L 262.318856 -182.006371 
L 264.029087 -182.069082 
L 265.739317 -182.266984 
L 267.449548 -182.47781 
L 269.159779 -182.600012 
L 270.870009 -182.838274 
L 272.58024 -183.027166 
L 274.290471 -183.08065 
L 276.000702 -183.180789 
L 277.710932 -183.293644 
L 279.421163 -183.475118 
L 281.131394 -183.72876 
L 282.841624 -183.910024 
L 284.551855 -184.007375 
L 286.262086 -184.037737 
L 287.972316 -184.153429 
L 289.682547 -184.248227 
L 291.392778 -184.340737 
L 293.103009 -184.42972 
L 294.813239 -184.466698 
L 296.52347 -184.718281 
L 298.233701 -184.79267 
L 299.943931 -184.899993 
L 301.654162 -185.07671 
L 303.364393 -185.089348 
L 305.074623 -185.270038 
L 306.784854 -185.293548 
L 308.495085 -185.386236 
L 310.205315 -185.416377 
L 311.915546 -185.466438 
L 313.625777 -185.565101 
L 315.336008 -185.558235 
L 317.046238 -185.677031 
L 318.756469 -185.676062 
L 320.4667 -185.677339 
L 322.17693 -185.788139 
L 323.887161 -185.872678 
L 325.597392 -185.870664 
L 327.307622 -185.956788 
L 329.017853 -185.945095 
L 330.728084 -185.9957 
L 332.438315 -186.110621 
L 334.148545 -186.153568 
L 335.858776 -186.095359 
L 337.569007 -186.174982 
L 339.279237 -186.161775 
L 340.989468 -186.183049 
L 342.699699 -186.238962 
L 344.409929 -186.26519 
L 346.12016 -186.22316 
L 347.830391 -186.294508 
L 349.540621 -186.295473 
L 351.250852 -186.282841 
L 352.961083 -186.324348 
L 354.671314 -186.268912 
L 356.381544 -186.31461 
L 358.091775 -186.369067 
L 359.802006 -186.356704 
L 361.512236 -186.404916 
L 363.222467 -186.406362 
L 364.932698 -186.420178 
L 366.642928 -186.392258 
L 368.353159 -186.374453 
L 370.06339 -186.44076 
L 371.773621 -186.423298 
L 373.483851 -186.394388 
L 375.194082 -186.421017 
L 376.904313 -186.482937 
L 378.614543 -186.483157 
L 380.324774 -186.440935 
L 382.035005 -186.517542 
L 383.745235 -186.480871 
L 385.455466 -186.507069 
L 387.165697 -186.532557 
L 388.875928 -186.5316 
L 390.586158 -186.533411 
L 392.296389 -186.496063 
L 394.00662 -186.513058 
L 395.71685 -186.564521 
L 397.427081 -186.565162 
L 399.137312 -186.565591 
L 400.847542 -186.566871 
L 402.557773 -186.550081 
L 404.268004 -186.566978 
L 405.978234 -186.51665 
L 407.688465 -186.5673 
L 409.398696 -186.5673 
L 411.108927 -186.500747 
L 412.819157 -186.568581 
L 414.529388 -186.517293 
L 416.239619 -186.517618 
L 417.949849 -186.568581 
L 419.66008 -186.528007 
L 421.370311 -186.517522 
L 423.080541 -186.569968 
L 424.790772 -186.552956 
L 426.501003 -186.569968 
L 428.211234 -186.546329 
L 429.921464 -186.570608 
L 431.631695 -186.519641 
L 433.341926 -186.570608 
L 435.052156 -186.571134 
L 436.762387 -186.520284 
L 438.472618 -186.52051 
L 440.182848 -186.520928 
L 441.893079 -186.571996 
L 443.60331 -186.571996 
L 445.31354 -186.521343 
L 447.023771 -186.585831 
L 448.734002 -186.58551 
L 450.444233 -186.586152 
L 452.154463 -186.585717 
L 453.864694 -186.586259 
L 455.574925 -186.561854 
L 457.285155 -186.535464 
L 458.995386 -186.599935 
L 460.705617 -186.600372 
L 462.415847 -186.576152 
L 464.126078 -186.57583 
L 465.836309 -186.600257 
L 467.54654 -186.60069 
L 469.25677 -186.601127 
L 470.967001 -186.601449 
L 472.677232 -186.60177 
L 472.677232 -186.898182 
L 472.677232 -186.898182 
L 470.967001 -186.897811 
L 469.25677 -186.897441 
L 467.54654 -186.897185 
L 465.836309 -186.896925 
L 464.126078 -186.897116 
L 462.415847 -186.897486 
L 460.705617 -186.896811 
L 458.995386 -186.896555 
L 457.285155 -186.888314 
L 455.574925 -186.885469 
L 453.864694 -186.885301 
L 452.154463 -186.885151 
L 450.444233 -186.885409 
L 448.734002 -186.884666 
L 447.023771 -186.885037 
L 445.31354 -186.876121 
L 443.60331 -186.87325 
L 441.893079 -186.87325 
L 440.182848 -186.875843 
L 438.472618 -186.875568 
L 436.762387 -186.875102 
L 435.052156 -186.872727 
L 433.341926 -186.871869 
L 431.631695 -186.874361 
L 429.921464 -186.871869 
L 428.211234 -186.87191 
L 426.501003 -186.871123 
L 424.790772 -186.863898 
L 423.080541 -186.871123 
L 421.370311 -186.872326 
L 419.66008 -186.862533 
L 417.949849 -186.869741 
L 416.239619 -186.87223 
L 414.529388 -186.871862 
L 412.819157 -186.869741 
L 411.108927 -186.863478 
L 409.398696 -186.868252 
L 407.688465 -186.868252 
L 405.978234 -186.87112 
L 404.268004 -186.867882 
L 402.557773 -186.860542 
L 400.847542 -186.867989 
L 399.137312 -186.866499 
L 397.427081 -186.866236 
L 395.71685 -186.865492 
L 394.00662 -186.867788 
L 392.296389 -186.858468 
L 390.586158 -186.846051 
L 388.875928 -186.843705 
L 387.165697 -186.844827 
L 385.455466 -186.842615 
L 383.745235 -186.844575 
L 382.035005 -186.831449 
L 380.324774 -186.808336 
L 378.614543 -186.814589 
L 376.904313 -186.814116 
L 375.194082 -186.801939 
L 373.483851 -186.777324 
L 371.773621 -186.773344 
L 370.06339 -186.775272 
L 368.353159 -186.769559 
L 366.642928 -186.774607 
L 364.932698 -186.770231 
L 363.222467 -186.75704 
L 361.512236 -186.755716 
L 359.802006 -186.754067 
L 358.091775 -186.74032 
L 356.381544 -186.719987 
L 354.671314 -186.692281 
L 352.961083 -186.705401 
L 351.250852 -186.676967 
L 349.540621 -186.683031 
L 347.830391 -186.68261 
L 346.12016 -186.678477 
L 344.409929 -186.659991 
L 342.699699 -186.634282 
L 340.989468 -186.614021 
L 339.279237 -186.58682 
L 337.569007 -186.594387 
L 335.858776 -186.576368 
L 334.148545 -186.562479 
L 332.438315 -186.525096 
L 330.728084 -186.469663 
L 329.017853 -186.421934 
L 327.307622 -186.404008 
L 325.597392 -186.36756 
L 323.887161 -186.362775 
L 322.17693 -186.323358 
L 320.4667 -186.240951 
L 318.756469 -186.231147 
L 317.046238 -186.204555 
L 315.336008 -186.149534 
L 313.625777 -186.117737 
L 311.915546 -186.065396 
L 310.205315 -186.027855 
L 308.495085 -185.989092 
L 306.784854 -185.945703 
L 305.074623 -185.917276 
L 303.364393 -185.756566 
L 301.654162 -185.753622 
L 299.943931 -185.607636 
L 298.233701 -185.542527 
L 296.52347 -185.444486 
L 294.813239 -185.254253 
L 293.103009 -185.213671 
L 291.392778 -185.128145 
L 289.682547 -185.035411 
L 287.972316 -184.952237 
L 286.262086 -184.844945 
L 284.551855 -184.836181 
L 282.841624 -184.702586 
L 281.131394 -184.53483 
L 279.421163 -184.330039 
L 277.710932 -184.168037 
L 276.000702 -184.081451 
L 274.290471 -183.980073 
L 272.58024 -183.929683 
L 270.870009 -183.75155 
L 269.159779 -183.549384 
L 267.449548 -183.420212 
L 265.739317 -183.237007 
L 264.029087 -183.026337 
L 262.318856 -182.983095 
L 260.608625 -182.742965 
L 258.898395 -182.543195 
L 257.188164 -182.323289 
L 255.477933 -182.155555 
L 253.767702 -182.044148 
L 252.057472 -181.753009 
L 250.347241 -181.646639 
L 248.63701 -181.395222 
L 246.92678 -181.065957 
L 245.216549 -180.776434 
L 243.506318 -180.47432 
L 241.796088 -180.211494 
L 240.085857 -179.904269 
L 238.375626 -179.624556 
L 236.665396 -179.246831 
L 234.955165 -178.95875 
L 233.244934 -178.466853 
L 231.534703 -178.086967 
L 229.824473 -177.676094 
L 228.114242 -177.150235 
L 226.404011 -176.640179 
L 224.693781 -176.029473 
L 222.98355 -175.471514 
L 221.273319 -174.577028 
L 219.563089 -173.792466 
L 217.852858 -172.94459 
L 216.142627 -171.855138 
L 214.432396 -170.892838 
L 212.722166 -169.928603 
L 211.011935 -168.878751 
L 209.301704 -167.856872 
L 207.591474 -166.844782 
L 205.881243 -165.643683 
L 204.171012 -164.482608 
L 202.460782 -163.072658 
L 200.750551 -161.774386 
L 199.04032 -160.017253 
L 197.33009 -158.172584 
L 195.619859 -156.024874 
L 193.909628 -154.00932 
L 192.199397 -152.039856 
L 190.489167 -149.099245 
L 188.778936 -146.289031 
L 187.068705 -143.325773 
L 185.358475 -140.026949 
L 183.648244 -136.883747 
L 181.938013 -133.350785 
L 180.227783 -129.629421 
L 178.517552 -125.736692 
L 176.807321 -121.822409 
L 175.09709 -117.533559 
L 173.38686 -113.403924 
L 171.676629 -109.293967 
L 169.966398 -105.080212 
L 168.256168 -101.061109 
L 166.545937 -96.967858 
L 164.835706 -93.296864 
L 163.125476 -89.031761 
L 161.415245 -85.381724 
L 159.705014 -81.870355 
L 157.994783 -78.4873 
L 156.284553 -75.566988 
L 154.574322 -73.409087 
L 152.864091 -71.442721 
L 151.153861 -69.671851 
L 149.44363 -68.253048 
L 147.733399 -66.905342 
L 146.023169 -65.528796 
L 144.312938 -64.351423 
L 142.602707 -63.437545 
L 140.892477 -62.513497 
L 139.182246 -61.763157 
L 137.472015 -60.998389 
L 135.761784 -60.499145 
L 134.051554 -59.804307 
L 132.341323 -59.361737 
L 130.631092 -59.043708 
L 128.920862 -58.678643 
L 127.210631 -58.229667 
L 125.5004 -57.756685 
L 123.79017 -57.239653 
L 122.079939 -56.784783 
L 120.369708 -56.360438 
L 118.659477 -55.917303 
L 116.949247 -55.319372 
L 115.239016 -54.771312 
L 113.528785 -54.32305 
L 111.818555 -53.837041 
L 110.108324 -53.50772 
L 108.398093 -53.230325 
L 106.687863 -52.937222 
L 104.977632 -52.71334 
L 103.267401 -52.403631 
L 101.557171 -51.955592 
L 99.84694 -51.524045 
L 98.136709 -50.958619 
L 96.426478 -50.358476 
L 94.716248 -49.834359 
L 93.006017 -49.375736 
L 91.295786 -49.071428 
L 89.585556 -48.879075 
L 87.875325 -48.879075 
L 86.165094 -48.879075 
L 84.454864 -48.879075 
L 82.744633 -48.879075 
L 81.034402 -48.879075 
L 79.324171 -48.879075 
L 77.613941 -48.879075 
L 75.90371 -48.879075 
L 74.193479 -48.879075 
L 72.483249 -48.879075 
L 70.773018 -48.879075 
L 69.062787 -48.879075 
L 67.352557 -48.879075 
L 65.642326 -48.879075 
L 63.932095 -48.879075 
L 62.221864 -48.879075 
z
" style="stroke: #f99a5a; stroke-opacity: 0.3"/>
    </defs>
    <g clip-path="url(#p066cd16798)">
     <use xlink:href="#m00e4b38580" x="0" y="432" style="fill: #f99a5a; fill-opacity: 0.3; stroke: #f99a5a; stroke-opacity: 0.3"/>
    </g>
   </g>
   <g id="matplotlib.axis_3">
    <g id="xtick_8">
     <g id="line2d_33">
      <g>
       <use xlink:href="#m1ad57151f4" x="62.221864" y="390.04" style="stroke: #000000; stroke-width: 0.8"/>
      </g>
     </g>
     <g id="text_14">
      <text style="font: 10px 'sans-serif'; text-anchor: middle" x="62.221864" y="404.638438" transform="rotate(-0, 62.221864, 404.638438)">0</text>
     </g>
    </g>
    <g id="xtick_9">
     <g id="line2d_34">
      <g>
       <use xlink:href="#m1ad57151f4" x="130.631092" y="390.04" style="stroke: #000000; stroke-width: 0.8"/>
      </g>
     </g>
     <g id="text_15">
      <text style="font: 10px 'sans-serif'; text-anchor: middle" x="130.631092" y="404.638438" transform="rotate(-0, 130.631092, 404.638438)">2000</text>
     </g>
    </g>
    <g id="xtick_10">
     <g id="line2d_35">
      <g>
       <use xlink:href="#m1ad57151f4" x="199.04032" y="390.04" style="stroke: #000000; stroke-width: 0.8"/>
      </g>
     </g>
     <g id="text_16">
      <text style="font: 10px 'sans-serif'; text-anchor: middle" x="199.04032" y="404.638438" transform="rotate(-0, 199.04032, 404.638438)">4000</text>
     </g>
    </g>
    <g id="xtick_11">
     <g id="line2d_36">
      <g>
       <use xlink:href="#m1ad57151f4" x="267.449548" y="390.04" style="stroke: #000000; stroke-width: 0.8"/>
      </g>
     </g>
     <g id="text_17">
      <text style="font: 10px 'sans-serif'; text-anchor: middle" x="267.449548" y="404.638438" transform="rotate(-0, 267.449548, 404.638438)">6000</text>
     </g>
    </g>
    <g id="xtick_12">
     <g id="line2d_37">
      <g>
       <use xlink:href="#m1ad57151f4" x="335.858776" y="390.04" style="stroke: #000000; stroke-width: 0.8"/>
      </g>
     </g>
     <g id="text_18">
      <text style="font: 10px 'sans-serif'; text-anchor: middle" x="335.858776" y="404.638438" transform="rotate(-0, 335.858776, 404.638438)">8000</text>
     </g>
    </g>
    <g id="xtick_13">
     <g id="line2d_38">
      <g>
       <use xlink:href="#m1ad57151f4" x="404.268004" y="390.04" style="stroke: #000000; stroke-width: 0.8"/>
      </g>
     </g>
     <g id="text_19">
      <text style="font: 10px 'sans-serif'; text-anchor: middle" x="404.268004" y="404.638438" transform="rotate(-0, 404.268004, 404.638438)">10000</text>
     </g>
    </g>
    <g id="xtick_14">
     <g id="line2d_39">
      <g>
       <use xlink:href="#m1ad57151f4" x="472.677232" y="390.04" style="stroke: #000000; stroke-width: 0.8"/>
      </g>
     </g>
     <g id="text_20">
      <text style="font: 10px 'sans-serif'; text-anchor: middle" x="472.677232" y="404.638438" transform="rotate(-0, 472.677232, 404.638438)">12000</text>
     </g>
    </g>
    <g id="text_21">
     <text style="font: 10px 'sans-serif'; text-anchor: middle" x="267.449548" y="418.316562" transform="rotate(-0, 267.449548, 418.316562)">Epoch</text>
    </g>
   </g>
   <g id="matplotlib.axis_4">
    <g id="ytick_19">
     <g id="line2d_40">
      <g>
       <use xlink:href="#maab53b760f" x="41.699096" y="383.120925" style="stroke: #000000; stroke-width: 0.8"/>
      </g>
     </g>
     <g id="text_22">
      <text style="font: 10px 'sans-serif'; text-anchor: end" x="34.699096" y="386.920144" transform="rotate(-0, 34.699096, 386.920144)">0.5</text>
     </g>
    </g>
    <g id="ytick_20">
     <g id="line2d_41">
      <g>
       <use xlink:href="#maab53b760f" x="41.699096" y="355.490307" style="stroke: #000000; stroke-width: 0.8"/>
      </g>
     </g>
     <g id="text_23">
      <text style="font: 10px 'sans-serif'; text-anchor: end" x="34.699096" y="359.289526" transform="rotate(-0, 34.699096, 359.289526)">0.6</text>
     </g>
    </g>
    <g id="ytick_21">
     <g id="line2d_42">
      <g>
       <use xlink:href="#maab53b760f" x="41.699096" y="327.859688" style="stroke: #000000; stroke-width: 0.8"/>
      </g>
     </g>
     <g id="text_24">
      <text style="font: 10px 'sans-serif'; text-anchor: end" x="34.699096" y="331.658907" transform="rotate(-0, 34.699096, 331.658907)">0.7</text>
     </g>
    </g>
    <g id="ytick_22">
     <g id="line2d_43">
      <g>
       <use xlink:href="#maab53b760f" x="41.699096" y="300.22907" style="stroke: #000000; stroke-width: 0.8"/>
      </g>
     </g>
     <g id="text_25">
      <text style="font: 10px 'sans-serif'; text-anchor: end" x="34.699096" y="304.028289" transform="rotate(-0, 34.699096, 304.028289)">0.8</text>
     </g>
    </g>
    <g id="ytick_23">
     <g id="line2d_44">
      <g>
       <use xlink:href="#maab53b760f" x="41.699096" y="272.598451" style="stroke: #000000; stroke-width: 0.8"/>
      </g>
     </g>
     <g id="text_26">
      <text style="font: 10px 'sans-serif'; text-anchor: end" x="34.699096" y="276.39767" transform="rotate(-0, 34.699096, 276.39767)">0.9</text>
     </g>
    </g>
    <g id="ytick_24">
     <g id="line2d_45">
      <g>
       <use xlink:href="#maab53b760f" x="41.699096" y="244.967833" style="stroke: #000000; stroke-width: 0.8"/>
      </g>
     </g>
     <g id="text_27">
      <text style="font: 10px 'sans-serif'; text-anchor: end" x="34.699096" y="248.767051" transform="rotate(-0, 34.699096, 248.767051)">1.0</text>
     </g>
    </g>
   </g>
   <g id="line2d_46">
    <path d="M 62.221864 383.120925 
L 87.875325 383.103213 
L 91.295786 382.724014 
L 94.716248 382.017143 
L 96.426478 381.67659 
L 98.136709 381.452372 
L 101.557171 380.876734 
L 104.977632 380.567983 
L 108.398093 379.666866 
L 110.108324 379.346239 
L 113.528785 377.775416 
L 115.239016 377.28487 
L 116.949247 376.383592 
L 118.659477 375.247745 
L 120.369708 373.953026 
L 122.079939 372.483673 
L 123.79017 370.302804 
L 127.210631 366.557189 
L 130.631092 362.901277 
L 134.051554 358.604797 
L 137.472015 354.226927 
L 139.182246 352.267653 
L 144.312938 346.995377 
L 147.733399 344.153889 
L 149.44363 342.609137 
L 152.864091 340.082485 
L 156.284553 337.971878 
L 163.125476 333.219928 
L 164.835706 332.262408 
L 169.966398 328.629171 
L 171.676629 327.422346 
L 173.38686 325.842439 
L 176.807321 322.39088 
L 178.517552 320.738725 
L 183.648244 315.095448 
L 187.068705 311.28915 
L 188.778936 309.358411 
L 193.909628 302.476385 
L 197.33009 297.848813 
L 199.04032 295.795874 
L 200.750551 294.019598 
L 202.460782 291.588065 
L 207.591474 285.345936 
L 217.852858 274.488952 
L 221.273319 271.58718 
L 222.98355 270.26239 
L 224.693781 268.626566 
L 228.114242 266.373038 
L 229.824473 265.357575 
L 231.534703 264.200733 
L 236.665396 261.234225 
L 238.375626 260.470778 
L 240.085857 259.543748 
L 241.796088 258.84748 
L 243.506318 258.279495 
L 252.057472 254.924917 
L 253.767702 254.332644 
L 255.477933 253.910783 
L 258.898395 252.8623 
L 274.290471 249.461407 
L 277.710932 249.009184 
L 279.421163 248.733067 
L 282.841624 248.426966 
L 286.262086 248.067729 
L 289.682547 247.756124 
L 306.784854 246.846174 
L 351.250852 245.960326 
L 358.091775 245.918956 
L 402.557773 245.661251 
L 412.819157 245.647208 
L 436.762387 245.554979 
L 452.154463 245.567125 
L 469.25677 245.540177 
L 472.677232 245.540557 
L 472.677232 245.540557 
" clip-path="url(#p066cd16798)" style="fill: none; stroke: #33ccff; stroke-width: 1.5; stroke-linecap: square"/>
   </g>
   <g id="line2d_47">
    <path d="M 62.221864 383.120925 
L 91.295786 383.018273 
L 93.006017 382.79479 
L 94.716248 382.424803 
L 98.136709 381.371199 
L 101.557171 380.407396 
L 103.267401 379.946517 
L 108.398093 379.072198 
L 111.818555 378.491194 
L 116.949247 377.099878 
L 118.659477 376.515228 
L 123.79017 375.213283 
L 128.920862 373.73691 
L 134.051554 372.58593 
L 140.892477 370.257045 
L 144.312938 368.700872 
L 146.023169 367.700612 
L 151.153861 363.872622 
L 152.864091 362.265531 
L 156.284553 358.417684 
L 157.994783 355.6788 
L 161.415245 349.082045 
L 163.125476 345.57842 
L 164.835706 341.490388 
L 166.545937 337.882277 
L 173.38686 321.62452 
L 180.227783 305.464521 
L 183.648244 298.236566 
L 190.489167 285.589956 
L 192.199397 282.605978 
L 195.619859 278.461203 
L 197.33009 276.180801 
L 200.750551 272.452755 
L 202.460782 271.080042 
L 204.171012 269.551692 
L 209.301704 265.865002 
L 214.432396 262.550539 
L 216.142627 261.505217 
L 217.852858 260.288153 
L 222.98355 257.574084 
L 228.114242 255.683049 
L 229.824473 255.095975 
L 238.375626 253.067814 
L 250.347241 250.936483 
L 252.057472 250.826376 
L 253.767702 250.519254 
L 257.188164 250.21646 
L 262.318856 249.505267 
L 264.029087 249.45229 
L 272.58024 248.521575 
L 277.710932 248.26916 
L 284.551855 247.578222 
L 287.972316 247.447167 
L 299.943931 246.746186 
L 301.654162 246.584834 
L 303.364393 246.577043 
L 305.074623 246.406343 
L 311.915546 246.234083 
L 317.046238 246.059207 
L 322.17693 245.944252 
L 327.307622 245.819602 
L 330.728084 245.767318 
L 334.148545 245.641977 
L 339.279237 245.625703 
L 352.961083 245.485126 
L 356.381544 245.482701 
L 364.932698 245.404796 
L 375.194082 245.388522 
L 382.035005 245.325504 
L 394.00662 245.309577 
L 402.557773 245.294689 
L 417.949849 245.280839 
L 424.790772 245.291573 
L 438.472618 245.301961 
L 472.677232 245.250024 
L 472.677232 245.250024 
" clip-path="url(#p066cd16798)" style="fill: none; stroke: #f99a5a; stroke-width: 1.5; stroke-linecap: square"/>
   </g>
   <g id="line2d_48">
    <path d="M 69.062787 390.04 
L 69.062787 238.2 
" clip-path="url(#p066cd16798)" style="fill: none; stroke-dasharray: 1.85,0.8; stroke-dashoffset: 0; stroke: #1a1a1a; stroke-width: 0.5"/>
   </g>
   <g id="line2d_49">
    <path d="M 116.949247 390.04 
L 116.949247 238.2 
" clip-path="url(#p066cd16798)" style="fill: none; stroke-dasharray: 1.85,0.8; stroke-dashoffset: 0; stroke: #1a1a1a; stroke-width: 0.5"/>
   </g>
   <g id="line2d_50">
    <path d="M 281.131394 390.04 
L 281.131394 238.2 
" clip-path="url(#p066cd16798)" style="fill: none; stroke-dasharray: 1.85,0.8; stroke-dashoffset: 0; stroke: #1a1a1a; stroke-width: 0.5"/>
   </g>
   <g id="patch_9">
    <path d="M 41.699096 390.04 
L 41.699096 238.2 
" style="fill: none; stroke: #000000; stroke-width: 0.8; stroke-linejoin: miter; stroke-linecap: square"/>
   </g>
   <g id="patch_10">
    <path d="M 493.2 390.04 
L 493.2 238.2 
" style="fill: none; stroke: #000000; stroke-width: 0.8; stroke-linejoin: miter; stroke-linecap: square"/>
   </g>
   <g id="patch_11">
    <path d="M 41.699096 390.04 
L 493.2 390.04 
" style="fill: none; stroke: #000000; stroke-width: 0.8; stroke-linejoin: miter; stroke-linecap: square"/>
   </g>
   <g id="patch_12">
    <path d="M 41.699096 238.2 
L 493.2 238.2 
" style="fill: none; stroke: #000000; stroke-width: 0.8; stroke-linejoin: miter; stroke-linecap: square"/>
   </g>
   <g id="text_28">
    <text style="font: 14.4px 'sans-serif'; text-anchor: middle" x="267.449548" y="232.2" transform="rotate(-0, 267.449548, 232.2)">Fraction of correct output units, class-rebalanced</text>
   </g>
   <g id="legend_2">
    <g id="patch_13">
     <path d="M 418.092188 385.04 
L 486.2 385.04 
Q 488.2 385.04 488.2 383.04 
L 488.2 354.68375 
Q 488.2 352.68375 486.2 352.68375 
L 418.092188 352.68375 
Q 416.092188 352.68375 416.092188 354.68375 
L 416.092188 383.04 
Q 416.092188 385.04 418.092188 385.04 
z
" style="fill: #ffffff; opacity: 0.8; stroke: #cccccc; stroke-linejoin: miter"/>
    </g>
    <g id="line2d_51">
     <path d="M 420.092188 360.782187 
L 430.092188 360.782187 
L 440.092188 360.782187 
" style="fill: none; stroke: #33ccff; stroke-width: 1.5; stroke-linecap: square"/>
    </g>
    <g id="text_29">
     <text style="font: 10px 'sans-serif'; text-anchor: start" x="448.092188" y="364.282187" transform="rotate(-0, 448.092188, 364.282187)">English</text>
    </g>
    <g id="line2d_52">
     <path d="M 420.092188 375.460312 
L 430.092188 375.460312 
L 440.092188 375.460312 
" style="fill: none; stroke: #f99a5a; stroke-width: 1.5; stroke-linecap: square"/>
    </g>
    <g id="text_30">
     <text style="font: 10px 'sans-serif'; text-anchor: start" x="448.092188" y="378.960312" transform="rotate(-0, 448.092188, 378.960312)">French</text>
    </g>
   </g>
  </g>
 </g>
 <defs>
  <clipPath id="p312651cd0c">
   <rect x="41.699096" y="27.6" width="451.500904" height="151.84"/>
  </clipPath>
  <clipPath id="p066cd16798">
   <rect x="41.699096" y="238.2" width="451.500904" height="151.84"/>
  </clipPath>
 </defs>
</svg>
