<?xml version="1.0" encoding="utf-8" standalone="no"?>
<!DOCTYPE svg PUBLIC "-//W3C//DTD SVG 1.1//EN"
  "http://www.w3.org/Graphics/SVG/1.1/DTD/svg11.dtd">
<svg xmlns:xlink="http://www.w3.org/1999/xlink" width="504pt" height="432pt" viewBox="0 0 504 432" xmlns="http://www.w3.org/2000/svg" version="1.1">
 <metadata>
  <rdf:RDF xmlns:dc="http://purl.org/dc/elements/1.1/" xmlns:cc="http://creativecommons.org/ns#" xmlns:rdf="http://www.w3.org/1999/02/22-rdf-syntax-ns#">
   <cc:Work>
    <dc:type rdf:resource="http://purl.org/dc/dcmitype/StillImage"/>
    <dc:date>2022-04-02T21:25:15.742426</dc:date>
    <dc:format>image/svg+xml</dc:format>
    <dc:creator>
     <cc:Agent>
      <dc:title>Matplotlib v3.5.1, https://matplotlib.org/</dc:title>
     </cc:Agent>
    </dc:creator>
   </cc:Work>
  </rdf:RDF>
 </metadata>
 <defs>
  <style type="text/css">*{stroke-linejoin: round; stroke-linecap: butt}</style>
 </defs>
 <g id="figure_1">
  <g id="patch_1">
   <path d="M 0 432 
L 504 432 
L 504 0 
L 0 0 
z
" style="fill: #ffffff"/>
  </g>
  <g id="axes_1">
   <g id="patch_2">
    <path d="M 41.699096 179.44 
L 493.2 179.44 
L 493.2 27.6 
L 41.699096 27.6 
z
" style="fill: #ffffff"/>
   </g>
   <g id="PolyCollection_1">
    <defs>
     <path id="ma3114d1016" d="M 62.221864 -397.375226 
L 62.221864 -397.360009 
L 63.932095 -396.092713 
L 65.642326 -396.074487 
L 67.352557 -396.053442 
L 69.062787 -396.026309 
L 70.773018 -395.9883 
L 72.483249 -395.931664 
L 74.193479 -395.843394 
L 75.90371 -395.703703 
L 77.613941 -395.491644 
L 79.324171 -395.202376 
L 81.034402 -394.86022 
L 82.744633 -394.506801 
L 84.454864 -394.176048 
L 86.165094 -393.881306 
L 87.875325 -393.622996 
L 89.585556 -393.399573 
L 91.295786 -393.206139 
L 93.006017 -393.034838 
L 94.716248 -392.87719 
L 96.426478 -392.725746 
L 98.136709 -392.575603 
L 99.84694 -392.423938 
L 101.557171 -392.266213 
L 103.267401 -392.096461 
L 104.977632 -391.910157 
L 106.687863 -391.699677 
L 108.398093 -391.454879 
L 110.108324 -391.172932 
L 111.818555 -390.86288 
L 113.528785 -390.531139 
L 115.239016 -390.176018 
L 116.949247 -389.788744 
L 118.659477 -389.360591 
L 120.369708 -388.889409 
L 122.079939 -388.375391 
L 123.79017 -387.817881 
L 125.5004 -387.218637 
L 127.210631 -386.580259 
L 128.920862 -385.915601 
L 130.631092 -385.23393 
L 132.341323 -384.538188 
L 134.051554 -383.826079 
L 135.761784 -383.094258 
L 137.472015 -382.33105 
L 139.182246 -381.539068 
L 140.892477 -380.72131 
L 142.602707 -379.885504 
L 144.312938 -379.042506 
L 146.023169 -378.191997 
L 147.733399 -377.324317 
L 149.44363 -376.426716 
L 151.153861 -375.505196 
L 152.864091 -374.584365 
L 154.574322 -373.671044 
L 156.284553 -372.764652 
L 157.994783 -371.861114 
L 159.705014 -370.957042 
L 161.415245 -370.054095 
L 163.125476 -369.154995 
L 164.835706 -368.261674 
L 166.545937 -367.368308 
L 168.256168 -366.4648 
L 169.966398 -365.546185 
L 171.676629 -364.615554 
L 173.38686 -363.702252 
L 175.09709 -362.795334 
L 176.807321 -361.883523 
L 178.517552 -360.974424 
L 180.227783 -360.062226 
L 181.938013 -359.141917 
L 183.648244 -358.208531 
L 185.358475 -357.248092 
L 187.068705 -356.27708 
L 188.778936 -355.284725 
L 190.489167 -354.275491 
L 192.199397 -353.247582 
L 193.909628 -352.208545 
L 195.619859 -351.162917 
L 197.33009 -350.115085 
L 199.04032 -349.061785 
L 200.750551 -347.999831 
L 202.460782 -346.932124 
L 204.171012 -345.852355 
L 205.881243 -344.763329 
L 207.591474 -343.645707 
L 209.301704 -342.529899 
L 211.011935 -341.399615 
L 212.722166 -340.254239 
L 214.432396 -339.103673 
L 216.142627 -337.937583 
L 217.852858 -336.756685 
L 219.563089 -335.569849 
L 221.273319 -334.375915 
L 222.98355 -333.172524 
L 224.693781 -331.976019 
L 226.404011 -330.761345 
L 228.114242 -329.545687 
L 229.824473 -328.339398 
L 231.534703 -327.134145 
L 233.244934 -325.942021 
L 234.955165 -324.756111 
L 236.665396 -323.575688 
L 238.375626 -322.401855 
L 240.085857 -321.242585 
L 241.796088 -320.114465 
L 243.506318 -318.984159 
L 245.216549 -317.893548 
L 246.92678 -316.814285 
L 248.63701 -315.752655 
L 250.347241 -314.724135 
L 252.057472 -313.728513 
L 253.767702 -312.747907 
L 255.477933 -311.788684 
L 257.188164 -310.856742 
L 258.898395 -309.939427 
L 260.608625 -309.044322 
L 262.318856 -308.18673 
L 264.029087 -307.342865 
L 265.739317 -306.525274 
L 267.449548 -305.725201 
L 269.159779 -304.948405 
L 270.870009 -304.184762 
L 272.58024 -303.448028 
L 274.290471 -302.732201 
L 276.000702 -302.029804 
L 277.710932 -301.348739 
L 279.421163 -300.657836 
L 281.131394 -300.015482 
L 282.841624 -299.353362 
L 284.551855 -298.721985 
L 286.262086 -298.09245 
L 287.972316 -297.475721 
L 289.682547 -296.887762 
L 291.392778 -296.286911 
L 293.103009 -295.701575 
L 294.813239 -295.123602 
L 296.52347 -294.554598 
L 298.233701 -293.991492 
L 299.943931 -293.457927 
L 301.654162 -292.913585 
L 303.364393 -292.381311 
L 305.074623 -291.815456 
L 306.784854 -291.300997 
L 308.495085 -290.786228 
L 310.205315 -290.260934 
L 311.915546 -289.758906 
L 313.625777 -289.266658 
L 315.336008 -288.750858 
L 317.046238 -288.274316 
L 318.756469 -287.779404 
L 320.4667 -287.293122 
L 322.17693 -286.804053 
L 323.887161 -286.348382 
L 325.597392 -285.872722 
L 327.307622 -285.406425 
L 329.017853 -284.915588 
L 330.728084 -284.449545 
L 332.438315 -284.027672 
L 334.148545 -283.548588 
L 335.858776 -283.121537 
L 337.569007 -282.706934 
L 339.279237 -282.209445 
L 340.989468 -281.751958 
L 342.699699 -281.333785 
L 344.409929 -280.871561 
L 346.12016 -280.467904 
L 347.830391 -280.020418 
L 349.540621 -279.644144 
L 351.250852 -279.21584 
L 352.961083 -278.810826 
L 354.671314 -278.415672 
L 356.381544 -278.002636 
L 358.091775 -277.626014 
L 359.802006 -277.227325 
L 361.512236 -276.886277 
L 363.222467 -276.489967 
L 364.932698 -276.158706 
L 366.642928 -275.751236 
L 368.353159 -275.473018 
L 370.06339 -275.101352 
L 371.773621 -274.746818 
L 373.483851 -274.426316 
L 375.194082 -274.114395 
L 376.904313 -273.792075 
L 378.614543 -273.44454 
L 380.324774 -273.171097 
L 382.035005 -272.894915 
L 383.745235 -272.591803 
L 385.455466 -272.324903 
L 387.165697 -272.068538 
L 388.875928 -271.780694 
L 390.586158 -271.531379 
L 392.296389 -271.258776 
L 394.00662 -271.057701 
L 395.71685 -270.811957 
L 397.427081 -270.564589 
L 399.137312 -270.332502 
L 400.847542 -270.099086 
L 402.557773 -269.928195 
L 404.268004 -269.675117 
L 405.978234 -269.438313 
L 407.688465 -269.234097 
L 409.398696 -269.01549 
L 411.108927 -268.836828 
L 412.819157 -268.640145 
L 414.529388 -268.418506 
L 416.239619 -268.173934 
L 417.949849 -267.997835 
L 419.66008 -267.858271 
L 421.370311 -267.618849 
L 423.080541 -267.430125 
L 424.790772 -267.295824 
L 426.501003 -267.069654 
L 428.211234 -266.913363 
L 429.921464 -266.738762 
L 431.631695 -266.568048 
L 433.341926 -266.371543 
L 435.052156 -266.208524 
L 436.762387 -266.103998 
L 438.472618 -265.895678 
L 440.182848 -265.738009 
L 441.893079 -265.573068 
L 443.60331 -265.410701 
L 445.31354 -265.335384 
L 447.023771 -265.122446 
L 448.734002 -264.997108 
L 450.444233 -264.847315 
L 452.154463 -264.682608 
L 453.864694 -264.609546 
L 455.574925 -264.458114 
L 457.285155 -264.257153 
L 458.995386 -264.161674 
L 460.705617 -264.075443 
L 462.415847 -263.864338 
L 464.126078 -263.781862 
L 465.836309 -263.609527 
L 467.54654 -263.502253 
L 469.25677 -263.339901 
L 470.967001 -263.212489 
L 472.677232 -263.09438 
L 472.677232 -268.092383 
L 472.677232 -268.092383 
L 470.967001 -268.186798 
L 469.25677 -268.300508 
L 467.54654 -268.445645 
L 465.836309 -268.560815 
L 464.126078 -268.716556 
L 462.415847 -268.765387 
L 460.705617 -268.978871 
L 458.995386 -269.016947 
L 457.285155 -269.113098 
L 455.574925 -269.29243 
L 453.864694 -269.453814 
L 452.154463 -269.499235 
L 450.444233 -269.657945 
L 448.734002 -269.781922 
L 447.023771 -269.892693 
L 445.31354 -270.103735 
L 443.60331 -270.161117 
L 441.893079 -270.317478 
L 440.182848 -270.459875 
L 438.472618 -270.624404 
L 436.762387 -270.802018 
L 435.052156 -270.905475 
L 433.341926 -271.057953 
L 431.631695 -271.254909 
L 429.921464 -271.429461 
L 428.211234 -271.620109 
L 426.501003 -271.761228 
L 424.790772 -271.953785 
L 423.080541 -272.081323 
L 421.370311 -272.26278 
L 419.66008 -272.498934 
L 417.949849 -272.600858 
L 416.239619 -272.775581 
L 414.529388 -272.986174 
L 412.819157 -273.19648 
L 411.108927 -273.38422 
L 409.398696 -273.540084 
L 407.688465 -273.740681 
L 405.978234 -273.940556 
L 404.268004 -274.156595 
L 402.557773 -274.398541 
L 400.847542 -274.555377 
L 399.137312 -274.780361 
L 397.427081 -274.983164 
L 395.71685 -275.219138 
L 394.00662 -275.453666 
L 392.296389 -275.635584 
L 390.586158 -275.886553 
L 388.875928 -276.129518 
L 387.165697 -276.39365 
L 385.455466 -276.627116 
L 383.745235 -276.877376 
L 382.035005 -277.174099 
L 380.324774 -277.414959 
L 378.614543 -277.683923 
L 376.904313 -277.995937 
L 375.194082 -278.298466 
L 373.483851 -278.609329 
L 371.773621 -278.907679 
L 370.06339 -279.259386 
L 368.353159 -279.599031 
L 366.642928 -279.868476 
L 364.932698 -280.263275 
L 363.222467 -280.562434 
L 361.512236 -280.951762 
L 359.802006 -281.26266 
L 358.091775 -281.63758 
L 356.381544 -281.997831 
L 354.671314 -282.4208 
L 352.961083 -282.787739 
L 351.250852 -283.178466 
L 349.540621 -283.599022 
L 347.830391 -283.961566 
L 346.12016 -284.394878 
L 344.409929 -284.798572 
L 342.699699 -285.280012 
L 340.989468 -285.669225 
L 339.279237 -286.125733 
L 337.569007 -286.603435 
L 335.858776 -287.017163 
L 334.148545 -287.440008 
L 332.438315 -287.902802 
L 330.728084 -288.330754 
L 329.017853 -288.788733 
L 327.307622 -289.268719 
L 325.597392 -289.727405 
L 323.887161 -290.207081 
L 322.17693 -290.654345 
L 320.4667 -291.143312 
L 318.756469 -291.624988 
L 317.046238 -292.10957 
L 315.336008 -292.593563 
L 313.625777 -293.109981 
L 311.915546 -293.606405 
L 310.205315 -294.11294 
L 308.495085 -294.641084 
L 306.784854 -295.156315 
L 305.074623 -295.682075 
L 303.364393 -296.255262 
L 301.654162 -296.786997 
L 299.943931 -297.335255 
L 298.233701 -297.876076 
L 296.52347 -298.43699 
L 294.813239 -299.014955 
L 293.103009 -299.602906 
L 291.392778 -300.181149 
L 289.682547 -300.775466 
L 287.972316 -301.366655 
L 286.262086 -301.978867 
L 284.551855 -302.600943 
L 282.841624 -303.229396 
L 281.131394 -303.885515 
L 279.421163 -304.517956 
L 277.710932 -305.202017 
L 276.000702 -305.871107 
L 274.290471 -306.572734 
L 272.58024 -307.269497 
L 270.870009 -308.008264 
L 269.159779 -308.752927 
L 267.449548 -309.522525 
L 265.739317 -310.319817 
L 264.029087 -311.121766 
L 262.318856 -311.962377 
L 260.608625 -312.816982 
L 258.898395 -313.709154 
L 257.188164 -314.63477 
L 255.477933 -315.559205 
L 253.767702 -316.512419 
L 252.057472 -317.487828 
L 250.347241 -318.474942 
L 248.63701 -319.500488 
L 246.92678 -320.544136 
L 245.216549 -321.612741 
L 243.506318 -322.694764 
L 241.796088 -323.808843 
L 240.085857 -324.925463 
L 238.375626 -326.064401 
L 236.665396 -327.215568 
L 234.955165 -328.374437 
L 233.244934 -329.532631 
L 231.534703 -330.69735 
L 229.824473 -331.871692 
L 228.114242 -333.037614 
L 226.404011 -334.21603 
L 224.693781 -335.384022 
L 222.98355 -336.524078 
L 221.273319 -337.669472 
L 219.563089 -338.805041 
L 217.852858 -339.930443 
L 216.142627 -341.050493 
L 214.432396 -342.15473 
L 212.722166 -343.245226 
L 211.011935 -344.331617 
L 209.301704 -345.406703 
L 207.591474 -346.472929 
L 205.881243 -347.550067 
L 204.171012 -348.604527 
L 202.460782 -349.662125 
L 200.750551 -350.728318 
L 199.04032 -351.814624 
L 197.33009 -352.903604 
L 195.619859 -354.024622 
L 193.909628 -355.180346 
L 192.199397 -356.365591 
L 190.489167 -357.544367 
L 188.778936 -358.682373 
L 187.068705 -359.762694 
L 185.358475 -360.778733 
L 183.648244 -361.751413 
L 181.938013 -362.672423 
L 180.227783 -363.555825 
L 178.517552 -364.412996 
L 176.807321 -365.25672 
L 175.09709 -366.100086 
L 173.38686 -366.941052 
L 171.676629 -367.795436 
L 169.966398 -368.675463 
L 168.256168 -369.559036 
L 166.545937 -370.427824 
L 164.835706 -371.276777 
L 163.125476 -372.121408 
L 161.415245 -372.97743 
L 159.705014 -373.844875 
L 157.994783 -374.7153 
L 156.284553 -375.582778 
L 154.574322 -376.44924 
L 152.864091 -377.318535 
L 151.153861 -378.193274 
L 149.44363 -379.070213 
L 147.733399 -379.917689 
L 146.023169 -380.719748 
L 144.312938 -381.492186 
L 142.602707 -382.249243 
L 140.892477 -382.992815 
L 139.182246 -383.714424 
L 137.472015 -384.405455 
L 135.761784 -385.06403 
L 134.051554 -385.688268 
L 132.341323 -386.287605 
L 130.631092 -386.865003 
L 128.920862 -387.423755 
L 127.210631 -387.964475 
L 125.5004 -388.480416 
L 123.79017 -388.9614 
L 122.079939 -389.405478 
L 120.369708 -389.812717 
L 118.659477 -390.184252 
L 116.949247 -390.517698 
L 115.239016 -390.814923 
L 113.528785 -391.081633 
L 111.818555 -391.327536 
L 110.108324 -391.559335 
L 108.398093 -391.775289 
L 106.687863 -391.970056 
L 104.977632 -392.143958 
L 103.267401 -392.302727 
L 101.557171 -392.454496 
L 99.84694 -392.604342 
L 98.136709 -392.75426 
L 96.426478 -392.905947 
L 94.716248 -393.060471 
L 93.006017 -393.222295 
L 91.295786 -393.397913 
L 89.585556 -393.594566 
L 87.875325 -393.820039 
L 86.165094 -394.079817 
L 84.454864 -394.374717 
L 82.744633 -394.699662 
L 81.034402 -395.035398 
L 79.324171 -395.346226 
L 77.613941 -395.595913 
L 75.90371 -395.770934 
L 74.193479 -395.884179 
L 72.483249 -395.956396 
L 70.773018 -396.00373 
L 69.062787 -396.036265 
L 67.352557 -396.06009 
L 65.642326 -396.079113 
L 63.932095 -396.096194 
L 62.221864 -397.375226 
z
" style="stroke: #33ccff; stroke-opacity: 0.3"/>
    </defs>
    <g clip-path="url(#p4e0ceb8202)">
     <use xlink:href="#ma3114d1016" x="0" y="432" style="fill: #33ccff; fill-opacity: 0.3; stroke: #33ccff; stroke-opacity: 0.3"/>
    </g>
   </g>
   <g id="PolyCollection_2">
    <defs>
     <path id="mcf710216c2" d="M 62.221864 -397.498182 
L 62.221864 -397.483278 
L 63.932095 -396.184849 
L 65.642326 -396.176008 
L 67.352557 -396.166196 
L 69.062787 -396.153851 
L 70.773018 -396.136603 
L 72.483249 -396.110088 
L 74.193479 -396.065722 
L 75.90371 -395.987869 
L 77.613941 -395.855517 
L 79.324171 -395.641832 
L 81.034402 -395.335857 
L 82.744633 -394.980568 
L 84.454864 -394.621685 
L 86.165094 -394.293931 
L 87.875325 -394.022247 
L 89.585556 -393.804934 
L 91.295786 -393.616121 
L 93.006017 -393.433956 
L 94.716248 -393.239435 
L 96.426478 -393.019699 
L 98.136709 -392.78148 
L 99.84694 -392.523965 
L 101.557171 -392.238409 
L 103.267401 -391.921349 
L 104.977632 -391.5812 
L 106.687863 -391.226683 
L 108.398093 -390.869007 
L 110.108324 -390.516633 
L 111.818555 -390.164354 
L 113.528785 -389.798167 
L 115.239016 -389.407983 
L 116.949247 -388.987886 
L 118.659477 -388.540254 
L 120.369708 -388.064824 
L 122.079939 -387.559022 
L 123.79017 -387.026344 
L 125.5004 -386.46727 
L 127.210631 -385.882575 
L 128.920862 -385.276942 
L 130.631092 -384.649536 
L 132.341323 -383.99779 
L 134.051554 -383.318661 
L 135.761784 -382.603421 
L 137.472015 -381.840128 
L 139.182246 -381.026459 
L 140.892477 -380.157774 
L 142.602707 -379.235285 
L 144.312938 -378.262767 
L 146.023169 -377.233377 
L 147.733399 -376.140945 
L 149.44363 -374.981817 
L 151.153861 -373.763489 
L 152.864091 -372.483786 
L 154.574322 -371.137076 
L 156.284553 -369.720311 
L 157.994783 -368.229259 
L 159.705014 -366.700385 
L 161.415245 -365.155911 
L 163.125476 -363.599126 
L 164.835706 -362.034834 
L 166.545937 -360.465245 
L 168.256168 -358.905029 
L 169.966398 -357.339288 
L 171.676629 -355.781917 
L 173.38686 -354.217052 
L 175.09709 -352.631829 
L 176.807321 -351.025897 
L 178.517552 -349.414633 
L 180.227783 -347.823473 
L 181.938013 -346.241916 
L 183.648244 -344.667641 
L 185.358475 -343.106069 
L 187.068705 -341.558626 
L 188.778936 -340.033029 
L 190.489167 -338.534104 
L 192.199397 -337.044429 
L 193.909628 -335.58005 
L 195.619859 -334.135429 
L 197.33009 -332.743016 
L 199.04032 -331.397822 
L 200.750551 -330.072869 
L 202.460782 -328.791014 
L 204.171012 -327.572619 
L 205.881243 -326.393178 
L 207.591474 -325.28333 
L 209.301704 -324.210038 
L 211.011935 -323.189281 
L 212.722166 -322.202888 
L 214.432396 -321.264755 
L 216.142627 -320.340986 
L 217.852858 -319.47295 
L 219.563089 -318.616158 
L 221.273319 -317.787553 
L 222.98355 -316.999287 
L 224.693781 -316.222212 
L 226.404011 -315.473189 
L 228.114242 -314.72663 
L 229.824473 -314.00548 
L 231.534703 -313.29116 
L 233.244934 -312.599268 
L 234.955165 -311.919132 
L 236.665396 -311.243332 
L 238.375626 -310.589616 
L 240.085857 -309.931018 
L 241.796088 -309.291134 
L 243.506318 -308.649514 
L 245.216549 -308.029524 
L 246.92678 -307.39463 
L 248.63701 -306.771163 
L 250.347241 -306.156964 
L 252.057472 -305.550658 
L 253.767702 -304.928926 
L 255.477933 -304.312389 
L 257.188164 -303.701854 
L 258.898395 -303.107011 
L 260.608625 -302.497379 
L 262.318856 -301.896345 
L 264.029087 -301.317396 
L 265.739317 -300.710088 
L 267.449548 -300.117228 
L 269.159779 -299.525331 
L 270.870009 -298.933605 
L 272.58024 -298.359243 
L 274.290471 -297.79409 
L 276.000702 -297.207737 
L 277.710932 -296.618137 
L 279.421163 -296.042351 
L 281.131394 -295.474922 
L 282.841624 -294.916164 
L 284.551855 -294.355619 
L 286.262086 -293.804756 
L 287.972316 -293.239194 
L 289.682547 -292.688993 
L 291.392778 -292.143121 
L 293.103009 -291.60254 
L 294.813239 -291.044987 
L 296.52347 -290.524889 
L 298.233701 -289.987931 
L 299.943931 -289.485501 
L 301.654162 -288.960982 
L 303.364393 -288.439878 
L 305.074623 -287.936967 
L 306.784854 -287.421067 
L 308.495085 -286.913507 
L 310.205315 -286.381053 
L 311.915546 -285.881041 
L 313.625777 -285.380762 
L 315.336008 -284.89542 
L 317.046238 -284.437744 
L 318.756469 -283.957754 
L 320.4667 -283.496197 
L 322.17693 -283.041654 
L 323.887161 -282.592765 
L 325.597392 -282.134367 
L 327.307622 -281.702832 
L 329.017853 -281.264174 
L 330.728084 -280.85121 
L 332.438315 -280.420905 
L 334.148545 -279.991529 
L 335.858776 -279.585128 
L 337.569007 -279.179032 
L 339.279237 -278.768851 
L 340.989468 -278.361186 
L 342.699699 -277.962567 
L 344.409929 -277.570823 
L 346.12016 -277.171129 
L 347.830391 -276.814851 
L 349.540621 -276.427782 
L 351.250852 -276.064119 
L 352.961083 -275.685042 
L 354.671314 -275.340448 
L 356.381544 -274.954749 
L 358.091775 -274.617284 
L 359.802006 -274.262862 
L 361.512236 -273.930095 
L 363.222467 -273.599678 
L 364.932698 -273.275939 
L 366.642928 -272.937117 
L 368.353159 -272.599518 
L 370.06339 -272.283769 
L 371.773621 -271.96425 
L 373.483851 -271.668304 
L 375.194082 -271.345803 
L 376.904313 -271.079291 
L 378.614543 -270.660051 
L 380.324774 -270.361689 
L 382.035005 -270.042667 
L 383.745235 -269.735786 
L 385.455466 -269.418978 
L 387.165697 -269.105799 
L 388.875928 -268.836627 
L 390.586158 -268.549425 
L 392.296389 -268.28193 
L 394.00662 -267.994294 
L 395.71685 -267.741894 
L 397.427081 -267.488215 
L 399.137312 -267.229186 
L 400.847542 -267.003331 
L 402.557773 -266.735318 
L 404.268004 -266.504842 
L 405.978234 -266.271627 
L 407.688465 -266.025785 
L 409.398696 -265.833523 
L 411.108927 -265.604704 
L 412.819157 -265.383297 
L 414.529388 -265.182109 
L 416.239619 -264.962086 
L 417.949849 -264.74004 
L 419.66008 -264.54627 
L 421.370311 -264.340137 
L 423.080541 -264.165645 
L 424.790772 -263.963915 
L 426.501003 -263.725357 
L 428.211234 -263.518702 
L 429.921464 -263.326157 
L 431.631695 -263.137488 
L 433.341926 -262.947506 
L 435.052156 -262.768956 
L 436.762387 -262.603499 
L 438.472618 -262.417325 
L 440.182848 -262.260193 
L 441.893079 -262.081547 
L 443.60331 -261.920306 
L 445.31354 -261.763843 
L 447.023771 -261.597202 
L 448.734002 -261.474394 
L 450.444233 -261.286935 
L 452.154463 -261.154004 
L 453.864694 -260.971311 
L 455.574925 -260.783631 
L 457.285155 -260.635403 
L 458.995386 -260.503547 
L 460.705617 -260.351307 
L 462.415847 -260.229873 
L 464.126078 -260.083651 
L 465.836309 -259.940849 
L 467.54654 -259.833628 
L 469.25677 -259.704844 
L 470.967001 -259.569461 
L 472.677232 -259.461818 
L 472.677232 -264.999043 
L 472.677232 -264.999043 
L 470.967001 -265.149181 
L 469.25677 -265.273406 
L 467.54654 -265.353818 
L 465.836309 -265.503874 
L 464.126078 -265.608739 
L 462.415847 -265.775068 
L 460.705617 -265.917988 
L 458.995386 -266.029679 
L 457.285155 -266.16662 
L 455.574925 -266.316301 
L 453.864694 -266.494959 
L 452.154463 -266.679628 
L 450.444233 -266.842778 
L 448.734002 -267.017511 
L 447.023771 -267.133704 
L 445.31354 -267.324124 
L 443.60331 -267.470765 
L 441.893079 -267.636236 
L 440.182848 -267.783333 
L 438.472618 -267.934857 
L 436.762387 -268.131465 
L 435.052156 -268.279217 
L 433.341926 -268.455138 
L 431.631695 -268.638946 
L 429.921464 -268.830182 
L 428.211234 -269.003022 
L 426.501003 -269.209406 
L 424.790772 -269.446464 
L 423.080541 -269.647716 
L 421.370311 -269.792126 
L 419.66008 -269.976569 
L 417.949849 -270.166491 
L 416.239619 -270.374953 
L 414.529388 -270.5848 
L 412.819157 -270.7686 
L 411.108927 -270.991043 
L 409.398696 -271.191194 
L 407.688465 -271.364441 
L 405.978234 -271.58357 
L 404.268004 -271.813627 
L 402.557773 -272.016126 
L 400.847542 -272.254373 
L 399.137312 -272.467241 
L 397.427081 -272.706604 
L 395.71685 -272.964964 
L 394.00662 -273.161174 
L 392.296389 -273.433453 
L 390.586158 -273.677429 
L 388.875928 -273.940303 
L 387.165697 -274.163668 
L 385.455466 -274.44698 
L 383.745235 -274.72666 
L 382.035005 -275.02731 
L 380.324774 -275.30036 
L 378.614543 -275.570828 
L 376.904313 -275.969163 
L 375.194082 -276.216276 
L 373.483851 -276.505971 
L 371.773621 -276.785967 
L 370.06339 -277.053778 
L 368.353159 -277.336661 
L 366.642928 -277.631078 
L 364.932698 -277.930826 
L 363.222467 -278.223673 
L 361.512236 -278.513717 
L 359.802006 -278.808917 
L 358.091775 -279.127009 
L 356.381544 -279.418449 
L 354.671314 -279.765632 
L 352.961083 -280.063368 
L 351.250852 -280.393272 
L 349.540621 -280.725374 
L 347.830391 -281.062278 
L 346.12016 -281.373138 
L 344.409929 -281.739749 
L 342.699699 -282.103948 
L 340.989468 -282.436522 
L 339.279237 -282.797426 
L 337.569007 -283.164891 
L 335.858776 -283.527387 
L 334.148545 -283.891431 
L 332.438315 -284.302882 
L 330.728084 -284.662389 
L 329.017853 -285.032331 
L 327.307622 -285.428205 
L 325.597392 -285.835035 
L 323.887161 -286.223951 
L 322.17693 -286.627915 
L 320.4667 -287.034431 
L 318.756469 -287.464966 
L 317.046238 -287.891971 
L 315.336008 -288.303806 
L 313.625777 -288.748159 
L 311.915546 -289.197124 
L 310.205315 -289.65456 
L 308.495085 -290.142892 
L 306.784854 -290.61203 
L 305.074623 -291.080891 
L 303.364393 -291.549217 
L 301.654162 -292.022755 
L 299.943931 -292.508821 
L 298.233701 -292.969842 
L 296.52347 -293.468123 
L 294.813239 -293.949014 
L 293.103009 -294.467271 
L 291.392778 -294.967186 
L 289.682547 -295.479004 
L 287.972316 -295.999293 
L 286.262086 -296.52186 
L 284.551855 -297.02814 
L 282.841624 -297.569331 
L 281.131394 -298.075379 
L 279.421163 -298.609407 
L 277.710932 -299.146431 
L 276.000702 -299.699535 
L 274.290471 -300.259566 
L 272.58024 -300.793064 
L 270.870009 -301.328409 
L 269.159779 -301.881969 
L 267.449548 -302.447684 
L 265.739317 -303.00915 
L 264.029087 -303.600172 
L 262.318856 -304.140113 
L 260.608625 -304.721872 
L 258.898395 -305.304033 
L 257.188164 -305.873068 
L 255.477933 -306.463592 
L 253.767702 -307.070545 
L 252.057472 -307.67096 
L 250.347241 -308.271995 
L 248.63701 -308.87268 
L 246.92678 -309.487206 
L 245.216549 -310.128175 
L 243.506318 -310.758983 
L 241.796088 -311.411651 
L 240.085857 -312.067172 
L 238.375626 -312.746417 
L 236.665396 -313.429736 
L 234.955165 -314.141898 
L 233.244934 -314.875475 
L 231.534703 -315.622859 
L 229.824473 -316.391218 
L 228.114242 -317.179964 
L 226.404011 -317.992586 
L 224.693781 -318.813738 
L 222.98355 -319.67094 
L 221.273319 -320.542962 
L 219.563089 -321.462016 
L 217.852858 -322.414545 
L 216.142627 -323.378665 
L 214.432396 -324.397185 
L 212.722166 -325.435403 
L 211.011935 -326.505104 
L 209.301704 -327.594955 
L 207.591474 -328.736658 
L 205.881243 -329.913451 
L 204.171012 -331.15061 
L 202.460782 -332.42472 
L 200.750551 -333.753711 
L 199.04032 -335.127255 
L 197.33009 -336.517989 
L 195.619859 -337.954554 
L 193.909628 -339.434673 
L 192.199397 -340.937339 
L 190.489167 -342.456312 
L 188.778936 -343.977654 
L 187.068705 -345.522214 
L 185.358475 -347.074735 
L 183.648244 -348.641051 
L 181.938013 -350.210254 
L 180.227783 -351.785935 
L 178.517552 -353.37162 
L 176.807321 -354.985343 
L 175.09709 -356.608753 
L 173.38686 -358.169693 
L 171.676629 -359.667337 
L 169.966398 -361.137663 
L 168.256168 -362.601512 
L 166.545937 -364.052558 
L 164.835706 -365.503366 
L 163.125476 -366.942055 
L 161.415245 -368.364761 
L 159.705014 -369.76994 
L 157.994783 -371.158324 
L 156.284553 -372.510608 
L 154.574322 -373.78172 
L 152.864091 -374.974639 
L 151.153861 -376.100582 
L 149.44363 -377.171982 
L 147.733399 -378.197269 
L 146.023169 -379.166329 
L 144.312938 -380.071019 
L 142.602707 -380.922965 
L 140.892477 -381.737828 
L 139.182246 -382.516732 
L 137.472015 -383.255801 
L 135.761784 -383.956388 
L 134.051554 -384.613028 
L 132.341323 -385.235561 
L 130.631092 -385.837108 
L 128.920862 -386.423823 
L 127.210631 -386.995084 
L 125.5004 -387.548813 
L 123.79017 -388.07868 
L 122.079939 -388.584068 
L 120.369708 -389.067306 
L 118.659477 -389.525602 
L 116.949247 -389.957081 
L 115.239016 -390.358449 
L 113.528785 -390.725159 
L 111.818555 -391.059596 
L 110.108324 -391.367813 
L 108.398093 -391.660175 
L 106.687863 -391.943358 
L 104.977632 -392.214798 
L 103.267401 -392.467989 
L 101.557171 -392.698275 
L 99.84694 -392.902651 
L 98.136709 -393.085843 
L 96.426478 -393.258743 
L 94.716248 -393.441426 
L 93.006017 -393.641284 
L 91.295786 -393.852746 
L 89.585556 -394.075773 
L 87.875325 -394.322261 
L 86.165094 -394.612219 
L 84.454864 -394.941778 
L 82.744633 -395.276427 
L 81.034402 -395.577274 
L 79.324171 -395.811382 
L 77.613941 -395.963606 
L 75.90371 -396.050005 
L 74.193479 -396.098275 
L 72.483249 -396.127334 
L 70.773018 -396.146312 
L 69.062787 -396.15968 
L 67.352557 -396.169915 
L 65.642326 -396.178568 
L 63.932095 -396.186863 
L 62.221864 -397.498182 
z
" style="stroke: #f99a5a; stroke-opacity: 0.3"/>
    </defs>
    <g clip-path="url(#p4e0ceb8202)">
     <use xlink:href="#mcf710216c2" x="0" y="432" style="fill: #f99a5a; fill-opacity: 0.3; stroke: #f99a5a; stroke-opacity: 0.3"/>
    </g>
   </g>
   <g id="matplotlib.axis_1">
    <g id="xtick_1">
     <g id="line2d_1">
      <defs>
       <path id="m9a3532dff0" d="M 0 0 
L 0 3.5 
" style="stroke: #000000; stroke-width: 0.8"/>
      </defs>
      <g>
       <use xlink:href="#m9a3532dff0" x="62.221864" y="179.44" style="stroke: #000000; stroke-width: 0.8"/>
      </g>
     </g>
     <g id="text_1">
      <text style="font: 10px 'sans-serif'; text-anchor: middle" x="62.221864" y="194.038437" transform="rotate(-0, 62.221864, 194.038437)">0</text>
     </g>
    </g>
    <g id="xtick_2">
     <g id="line2d_2">
      <g>
       <use xlink:href="#m9a3532dff0" x="130.631092" y="179.44" style="stroke: #000000; stroke-width: 0.8"/>
      </g>
     </g>
     <g id="text_2">
      <text style="font: 10px 'sans-serif'; text-anchor: middle" x="130.631092" y="194.038437" transform="rotate(-0, 130.631092, 194.038437)">2000</text>
     </g>
    </g>
    <g id="xtick_3">
     <g id="line2d_3">
      <g>
       <use xlink:href="#m9a3532dff0" x="199.04032" y="179.44" style="stroke: #000000; stroke-width: 0.8"/>
      </g>
     </g>
     <g id="text_3">
      <text style="font: 10px 'sans-serif'; text-anchor: middle" x="199.04032" y="194.038437" transform="rotate(-0, 199.04032, 194.038437)">4000</text>
     </g>
    </g>
    <g id="xtick_4">
     <g id="line2d_4">
      <g>
       <use xlink:href="#m9a3532dff0" x="267.449548" y="179.44" style="stroke: #000000; stroke-width: 0.8"/>
      </g>
     </g>
     <g id="text_4">
      <text style="font: 10px 'sans-serif'; text-anchor: middle" x="267.449548" y="194.038437" transform="rotate(-0, 267.449548, 194.038437)">6000</text>
     </g>
    </g>
    <g id="xtick_5">
     <g id="line2d_5">
      <g>
       <use xlink:href="#m9a3532dff0" x="335.858776" y="179.44" style="stroke: #000000; stroke-width: 0.8"/>
      </g>
     </g>
     <g id="text_5">
      <text style="font: 10px 'sans-serif'; text-anchor: middle" x="335.858776" y="194.038437" transform="rotate(-0, 335.858776, 194.038437)">8000</text>
     </g>
    </g>
    <g id="xtick_6">
     <g id="line2d_6">
      <g>
       <use xlink:href="#m9a3532dff0" x="404.268004" y="179.44" style="stroke: #000000; stroke-width: 0.8"/>
      </g>
     </g>
     <g id="text_6">
      <text style="font: 10px 'sans-serif'; text-anchor: middle" x="404.268004" y="194.038437" transform="rotate(-0, 404.268004, 194.038437)">10000</text>
     </g>
    </g>
    <g id="xtick_7">
     <g id="line2d_7">
      <g>
       <use xlink:href="#m9a3532dff0" x="472.677232" y="179.44" style="stroke: #000000; stroke-width: 0.8"/>
      </g>
     </g>
     <g id="text_7">
      <text style="font: 10px 'sans-serif'; text-anchor: middle" x="472.677232" y="194.038437" transform="rotate(-0, 472.677232, 194.038437)">12000</text>
     </g>
    </g>
    <g id="text_8">
     <text style="font: 10px 'sans-serif'; text-anchor: middle" x="267.449548" y="207.716562" transform="rotate(-0, 267.449548, 207.716562)">Epoch</text>
    </g>
   </g>
   <g id="matplotlib.axis_2">
    <g id="ytick_1">
     <g id="line2d_8">
      <defs>
       <path id="m9079de5074" d="M 0 0 
L -3.5 0 
" style="stroke: #000000; stroke-width: 0.8"/>
      </defs>
      <g>
       <use xlink:href="#m9079de5074" x="41.699096" y="115.390321" style="stroke: #000000; stroke-width: 0.8"/>
      </g>
     </g>
     <g id="text_9">
      <!-- $\mathdefault{10^{-1}}$ -->
      <g transform="translate(11.199096 119.18954)">
       <text>
        <tspan style="font: 10px 'DejaVu Sans'" x="0 6.362305" y="-0.06406250000000036">10</tspan>
        <tspan style="font: 7px 'DejaVu Sans'" x="12.820312 18.685547" y="-3.8921875000000004">−1</tspan>
       </text>
      </g>
     </g>
    </g>
    <g id="ytick_2">
     <g id="line2d_9">
      <g>
       <use xlink:href="#m9079de5074" x="41.699096" y="38.775392" style="stroke: #000000; stroke-width: 0.8"/>
      </g>
     </g>
     <g id="text_10">
      <!-- $\mathdefault{10^{0}}$ -->
      <g transform="translate(17.099096 42.574611)">
       <text>
        <tspan style="font: 10px 'DejaVu Sans'" x="0 6.362305" y="-0.9765625">10</tspan>
        <tspan style="font: 7px 'DejaVu Sans'" x="12.820312" y="-4.8046875">0</tspan>
       </text>
      </g>
     </g>
    </g>
    <g id="ytick_3">
     <g id="line2d_10">
      <defs>
       <path id="m2c555fd2a6" d="M 0 0 
L -2 0 
" style="stroke: #000000; stroke-width: 0.6"/>
      </defs>
      <g>
       <use xlink:href="#m2c555fd2a6" x="41.699096" y="168.941859" style="stroke: #000000; stroke-width: 0.6"/>
      </g>
     </g>
    </g>
    <g id="ytick_4">
     <g id="line2d_11">
      <g>
       <use xlink:href="#m2c555fd2a6" x="41.699096" y="155.450639" style="stroke: #000000; stroke-width: 0.6"/>
      </g>
     </g>
    </g>
    <g id="ytick_5">
     <g id="line2d_12">
      <g>
       <use xlink:href="#m2c555fd2a6" x="41.699096" y="145.878467" style="stroke: #000000; stroke-width: 0.6"/>
      </g>
     </g>
    </g>
    <g id="ytick_6">
     <g id="line2d_13">
      <g>
       <use xlink:href="#m2c555fd2a6" x="41.699096" y="138.453713" style="stroke: #000000; stroke-width: 0.6"/>
      </g>
     </g>
    </g>
    <g id="ytick_7">
     <g id="line2d_14">
      <g>
       <use xlink:href="#m2c555fd2a6" x="41.699096" y="132.387248" style="stroke: #000000; stroke-width: 0.6"/>
      </g>
     </g>
    </g>
    <g id="ytick_8">
     <g id="line2d_15">
      <g>
       <use xlink:href="#m2c555fd2a6" x="41.699096" y="127.258124" style="stroke: #000000; stroke-width: 0.6"/>
      </g>
     </g>
    </g>
    <g id="ytick_9">
     <g id="line2d_16">
      <g>
       <use xlink:href="#m2c555fd2a6" x="41.699096" y="122.815075" style="stroke: #000000; stroke-width: 0.6"/>
      </g>
     </g>
    </g>
    <g id="ytick_10">
     <g id="line2d_17">
      <g>
       <use xlink:href="#m2c555fd2a6" x="41.699096" y="118.896028" style="stroke: #000000; stroke-width: 0.6"/>
      </g>
     </g>
    </g>
    <g id="ytick_11">
     <g id="line2d_18">
      <g>
       <use xlink:href="#m2c555fd2a6" x="41.699096" y="92.326929" style="stroke: #000000; stroke-width: 0.6"/>
      </g>
     </g>
    </g>
    <g id="ytick_12">
     <g id="line2d_19">
      <g>
       <use xlink:href="#m2c555fd2a6" x="41.699096" y="78.83571" style="stroke: #000000; stroke-width: 0.6"/>
      </g>
     </g>
    </g>
    <g id="ytick_13">
     <g id="line2d_20">
      <g>
       <use xlink:href="#m2c555fd2a6" x="41.699096" y="69.263538" style="stroke: #000000; stroke-width: 0.6"/>
      </g>
     </g>
    </g>
    <g id="ytick_14">
     <g id="line2d_21">
      <g>
       <use xlink:href="#m2c555fd2a6" x="41.699096" y="61.838784" style="stroke: #000000; stroke-width: 0.6"/>
      </g>
     </g>
    </g>
    <g id="ytick_15">
     <g id="line2d_22">
      <g>
       <use xlink:href="#m2c555fd2a6" x="41.699096" y="55.772318" style="stroke: #000000; stroke-width: 0.6"/>
      </g>
     </g>
    </g>
    <g id="ytick_16">
     <g id="line2d_23">
      <g>
       <use xlink:href="#m2c555fd2a6" x="41.699096" y="50.643195" style="stroke: #000000; stroke-width: 0.6"/>
      </g>
     </g>
    </g>
    <g id="ytick_17">
     <g id="line2d_24">
      <g>
       <use xlink:href="#m2c555fd2a6" x="41.699096" y="46.200146" style="stroke: #000000; stroke-width: 0.6"/>
      </g>
     </g>
    </g>
    <g id="ytick_18">
     <g id="line2d_25">
      <g>
       <use xlink:href="#m2c555fd2a6" x="41.699096" y="42.281099" style="stroke: #000000; stroke-width: 0.6"/>
      </g>
     </g>
    </g>
   </g>
   <g id="line2d_26">
    <path d="M 62.221864 34.632381 
L 63.932095 35.905546 
L 72.483249 36.055968 
L 75.90371 36.262665 
L 79.324171 36.725621 
L 87.875325 38.278336 
L 93.006017 38.871301 
L 108.398093 40.384531 
L 113.528785 41.192475 
L 118.659477 42.22503 
L 122.079939 43.105579 
L 127.210631 44.720436 
L 134.051554 47.229801 
L 139.182246 49.35548 
L 146.023169 52.52013 
L 151.153861 55.123627 
L 164.835706 62.196634 
L 180.227783 70.145144 
L 185.358475 72.93978 
L 190.489167 76.049944 
L 202.460782 83.674884 
L 211.011935 89.102099 
L 219.563089 94.773251 
L 231.534703 103.036578 
L 241.796088 109.987098 
L 246.92678 113.268554 
L 252.057472 116.338766 
L 258.898395 120.122352 
L 264.029087 122.714066 
L 270.870009 125.848597 
L 276.000702 127.994142 
L 284.551855 131.282043 
L 291.392778 133.709031 
L 301.654162 137.093377 
L 315.336008 141.272347 
L 334.148545 146.448845 
L 358.091775 152.307784 
L 363.222467 153.411533 
L 370.06339 154.754722 
L 375.194082 155.727845 
L 383.745235 157.196461 
L 397.427081 159.152831 
L 416.239619 161.445756 
L 441.893079 163.970236 
L 452.154463 164.821999 
L 455.574925 165.037007 
L 458.995386 165.322208 
L 460.705617 165.382599 
L 462.415847 165.594981 
L 465.836309 165.822816 
L 472.677232 166.312863 
L 472.677232 166.312863 
" clip-path="url(#p4e0ceb8202)" style="fill: none; stroke: #33ccff; stroke-width: 1.5; stroke-linecap: square"/>
   </g>
   <g id="line2d_27">
    <path d="M 62.221864 34.509269 
L 63.932095 35.814144 
L 75.90371 35.981049 
L 79.324171 36.273285 
L 82.744633 36.871174 
L 87.875325 37.827408 
L 94.716248 38.659416 
L 101.557171 39.530863 
L 108.398093 40.733057 
L 115.239016 42.11339 
L 120.369708 43.43016 
L 125.5004 44.987564 
L 132.341323 47.377569 
L 137.472015 49.444507 
L 140.892477 51.042821 
L 144.312938 52.820825 
L 147.733399 54.81501 
L 151.153861 57.047449 
L 154.574322 59.514334 
L 157.994783 62.273988 
L 166.545937 69.692777 
L 175.09709 77.320328 
L 183.648244 85.286378 
L 190.489167 91.447033 
L 195.619859 95.900244 
L 200.750551 100.035837 
L 204.171012 102.590315 
L 207.591474 104.945225 
L 212.722166 108.141615 
L 217.852858 111.023756 
L 222.98355 113.638079 
L 228.114242 116.024097 
L 234.955165 118.950927 
L 241.796088 121.631718 
L 250.347241 124.768718 
L 267.449548 130.697145 
L 279.421163 134.649371 
L 293.103009 138.934274 
L 299.943931 140.968512 
L 313.625777 144.892958 
L 322.17693 147.116922 
L 334.148545 150.001415 
L 349.540621 153.354086 
L 361.512236 155.699228 
L 387.165697 160.269254 
L 411.108927 163.593252 
L 421.370311 164.822327 
L 424.790772 165.182016 
L 429.921464 165.808152 
L 440.182848 166.863768 
L 464.126078 169.039255 
L 472.677232 169.654517 
L 472.677232 169.654517 
" clip-path="url(#p4e0ceb8202)" style="fill: none; stroke: #f99a5a; stroke-width: 1.5; stroke-linecap: square"/>
   </g>
   <g id="line2d_28">
    <path d="M 69.062787 179.44 
L 69.062787 27.6 
" clip-path="url(#p4e0ceb8202)" style="fill: none; stroke-dasharray: 1.85,0.8; stroke-dashoffset: 0; stroke: #1a1a1a; stroke-width: 0.5"/>
   </g>
   <g id="line2d_29">
    <path d="M 116.949247 179.44 
L 116.949247 27.6 
" clip-path="url(#p4e0ceb8202)" style="fill: none; stroke-dasharray: 1.85,0.8; stroke-dashoffset: 0; stroke: #1a1a1a; stroke-width: 0.5"/>
   </g>
   <g id="line2d_30">
    <path d="M 281.131394 179.44 
L 281.131394 27.6 
" clip-path="url(#p4e0ceb8202)" style="fill: none; stroke-dasharray: 1.85,0.8; stroke-dashoffset: 0; stroke: #1a1a1a; stroke-width: 0.5"/>
   </g>
   <g id="patch_3">
    <path d="M 41.699096 179.44 
L 41.699096 27.6 
" style="fill: none; stroke: #000000; stroke-width: 0.8; stroke-linejoin: miter; stroke-linecap: square"/>
   </g>
   <g id="patch_4">
    <path d="M 493.2 179.44 
L 493.2 27.6 
" style="fill: none; stroke: #000000; stroke-width: 0.8; stroke-linejoin: miter; stroke-linecap: square"/>
   </g>
   <g id="patch_5">
    <path d="M 41.699096 179.44 
L 493.2 179.44 
" style="fill: none; stroke: #000000; stroke-width: 0.8; stroke-linejoin: miter; stroke-linecap: square"/>
   </g>
   <g id="patch_6">
    <path d="M 41.699096 27.6 
L 493.2 27.6 
" style="fill: none; stroke: #000000; stroke-width: 0.8; stroke-linejoin: miter; stroke-linecap: square"/>
   </g>
   <g id="text_11">
    <text style="font: 14.4px 'sans-serif'; text-anchor: middle" x="267.449548" y="21.6" transform="rotate(-0, 267.449548, 21.6)">Loss</text>
   </g>
   <g id="legend_1">
    <g id="patch_7">
     <path d="M 418.092188 64.95625 
L 486.2 64.95625 
Q 488.2 64.95625 488.2 62.95625 
L 488.2 34.6 
Q 488.2 32.6 486.2 32.6 
L 418.092188 32.6 
Q 416.092188 32.6 416.092188 34.6 
L 416.092188 62.95625 
Q 416.092188 64.95625 418.092188 64.95625 
z
" style="fill: #ffffff; opacity: 0.8; stroke: #cccccc; stroke-linejoin: miter"/>
    </g>
    <g id="line2d_31">
     <path d="M 420.092188 40.698438 
L 430.092188 40.698438 
L 440.092188 40.698438 
" style="fill: none; stroke: #33ccff; stroke-width: 1.5; stroke-linecap: square"/>
    </g>
    <g id="text_12">
     <text style="font: 10px 'sans-serif'; text-anchor: start" x="448.092188" y="44.198438" transform="rotate(-0, 448.092188, 44.198438)">English</text>
    </g>
    <g id="line2d_32">
     <path d="M 420.092188 55.376563 
L 430.092188 55.376563 
L 440.092188 55.376563 
" style="fill: none; stroke: #f99a5a; stroke-width: 1.5; stroke-linecap: square"/>
    </g>
    <g id="text_13">
     <text style="font: 10px 'sans-serif'; text-anchor: start" x="448.092188" y="58.876563" transform="rotate(-0, 448.092188, 58.876563)">French</text>
    </g>
   </g>
  </g>
  <g id="axes_2">
   <g id="patch_8">
    <path d="M 41.699096 390.04 
L 493.2 390.04 
L 493.2 238.2 
L 41.699096 238.2 
z
" style="fill: #ffffff"/>
   </g>
   <g id="PolyCollection_3">
    <defs>
     <path id="m11663ce53e" d="M 62.221864 -48.874462 
L 62.221864 -48.874462 
L 63.932095 -48.874462 
L 65.642326 -48.874462 
L 67.352557 -48.874462 
L 69.062787 -48.874462 
L 70.773018 -48.874462 
L 72.483249 -48.874462 
L 74.193479 -48.874462 
L 75.90371 -48.874462 
L 77.613941 -48.874462 
L 79.324171 -48.874462 
L 81.034402 -48.874462 
L 82.744633 -48.874462 
L 84.454864 -48.865827 
L 86.165094 -48.880313 
L 87.875325 -48.940586 
L 89.585556 -49.127328 
L 91.295786 -49.384366 
L 93.006017 -49.588283 
L 94.716248 -49.870785 
L 96.426478 -49.992536 
L 98.136709 -50.060117 
L 99.84694 -50.116587 
L 101.557171 -50.180069 
L 103.267401 -50.222412 
L 104.977632 -50.279317 
L 106.687863 -50.378431 
L 108.398093 -50.433561 
L 110.108324 -50.506205 
L 111.818555 -50.537492 
L 113.528785 -50.69458 
L 115.239016 -50.97996 
L 116.949247 -51.311417 
L 118.659477 -51.915784 
L 120.369708 -52.74143 
L 122.079939 -53.557431 
L 123.79017 -54.658164 
L 125.5004 -56.133621 
L 127.210631 -57.781691 
L 128.920862 -59.170442 
L 130.631092 -60.938397 
L 132.341323 -62.356155 
L 134.051554 -64.201311 
L 135.761784 -66.428864 
L 137.472015 -68.205732 
L 139.182246 -70.207587 
L 140.892477 -72.303618 
L 142.602707 -74.234098 
L 144.312938 -76.236419 
L 146.023169 -78.401719 
L 147.733399 -80.418912 
L 149.44363 -82.688011 
L 151.153861 -84.879362 
L 152.864091 -86.616161 
L 154.574322 -88.426601 
L 156.284553 -90.22562 
L 157.994783 -91.962506 
L 159.705014 -93.823185 
L 161.415245 -95.586111 
L 163.125476 -97.201264 
L 164.835706 -98.748338 
L 166.545937 -100.416385 
L 168.256168 -102.083813 
L 169.966398 -104.221209 
L 171.676629 -106.340324 
L 173.38686 -108.318084 
L 175.09709 -110.218082 
L 176.807321 -112.432935 
L 178.517552 -114.561454 
L 180.227783 -116.562451 
L 181.938013 -118.74339 
L 183.648244 -121.140735 
L 185.358475 -123.798268 
L 187.068705 -126.653499 
L 188.778936 -129.25925 
L 190.489167 -131.843712 
L 192.199397 -134.274297 
L 193.909628 -136.860792 
L 195.619859 -139.8123 
L 197.33009 -142.123288 
L 199.04032 -144.053061 
L 200.750551 -146.185805 
L 202.460782 -148.129097 
L 204.171012 -150.125179 
L 205.881243 -152.029015 
L 207.591474 -153.543192 
L 209.301704 -155.317438 
L 211.011935 -157.112169 
L 212.722166 -158.648094 
L 214.432396 -160.336039 
L 216.142627 -161.79165 
L 217.852858 -162.959954 
L 219.563089 -164.273496 
L 221.273319 -165.752293 
L 222.98355 -167.147179 
L 224.693781 -168.380825 
L 226.404011 -169.427042 
L 228.114242 -170.881891 
L 229.824473 -171.990721 
L 231.534703 -172.9444 
L 233.244934 -173.715103 
L 234.955165 -174.547154 
L 236.665396 -175.242793 
L 238.375626 -176.136268 
L 240.085857 -176.819425 
L 241.796088 -177.538617 
L 243.506318 -178.161482 
L 245.216549 -178.584841 
L 246.92678 -179.150435 
L 248.63701 -179.640636 
L 250.347241 -180.203023 
L 252.057472 -180.811816 
L 253.767702 -181.23603 
L 255.477933 -181.724821 
L 257.188164 -181.99645 
L 258.898395 -182.294571 
L 260.608625 -182.602087 
L 262.318856 -182.790077 
L 264.029087 -182.983199 
L 265.739317 -183.250377 
L 267.449548 -183.435962 
L 269.159779 -183.569268 
L 270.870009 -183.833255 
L 272.58024 -183.985679 
L 274.290471 -184.141102 
L 276.000702 -184.163459 
L 277.710932 -184.369906 
L 279.421163 -184.520762 
L 281.131394 -184.496075 
L 282.841624 -184.65159 
L 284.551855 -184.780002 
L 286.262086 -184.824835 
L 287.972316 -184.933263 
L 289.682547 -185.083646 
L 291.392778 -185.131775 
L 293.103009 -185.137607 
L 294.813239 -185.153816 
L 296.52347 -185.191331 
L 298.233701 -185.233437 
L 299.943931 -185.204891 
L 301.654162 -185.304013 
L 303.364393 -185.361794 
L 305.074623 -185.358858 
L 306.784854 -185.432408 
L 308.495085 -185.458737 
L 310.205315 -185.471714 
L 311.915546 -185.471531 
L 313.625777 -185.530698 
L 315.336008 -185.551135 
L 317.046238 -185.580724 
L 318.756469 -185.633455 
L 320.4667 -185.666833 
L 322.17693 -185.673548 
L 323.887161 -185.760793 
L 325.597392 -185.740816 
L 327.307622 -185.809935 
L 329.017853 -185.78994 
L 330.728084 -185.78183 
L 332.438315 -185.854691 
L 334.148545 -185.856023 
L 335.858776 -185.829073 
L 337.569007 -185.899464 
L 339.279237 -185.863332 
L 340.989468 -185.914583 
L 342.699699 -185.966351 
L 344.409929 -185.946618 
L 346.12016 -185.996643 
L 347.830391 -185.960468 
L 349.540621 -185.995037 
L 351.250852 -186.008849 
L 352.961083 -186.037264 
L 354.671314 -186.022881 
L 356.381544 -186.059651 
L 358.091775 -186.024372 
L 359.802006 -186.040659 
L 361.512236 -186.041667 
L 363.222467 -186.075852 
L 364.932698 -186.054266 
L 366.642928 -186.125607 
L 368.353159 -186.104636 
L 370.06339 -186.113081 
L 371.773621 -186.106145 
L 373.483851 -186.114669 
L 375.194082 -186.157425 
L 376.904313 -186.173316 
L 378.614543 -186.189682 
L 380.324774 -186.171208 
L 382.035005 -186.186274 
L 383.745235 -186.204367 
L 385.455466 -186.185526 
L 387.165697 -186.201134 
L 388.875928 -186.21764 
L 390.586158 -186.204448 
L 392.296389 -186.204448 
L 394.00662 -186.220567 
L 395.71685 -186.205129 
L 397.427081 -186.220483 
L 399.137312 -186.218403 
L 400.847542 -186.218481 
L 402.557773 -186.218824 
L 404.268004 -186.219246 
L 405.978234 -186.235053 
L 407.688465 -186.235397 
L 409.398696 -186.235397 
L 411.108927 -186.235397 
L 412.819157 -186.25076 
L 414.529388 -186.234974 
L 416.239619 -186.251187 
L 417.949849 -186.251101 
L 419.66008 -186.265231 
L 421.370311 -186.265314 
L 423.080541 -186.268914 
L 424.790772 -186.265998 
L 426.501003 -186.249753 
L 428.211234 -186.265146 
L 429.921464 -186.307784 
L 431.631695 -186.306923 
L 433.341926 -186.324365 
L 435.052156 -186.307784 
L 436.762387 -186.307784 
L 438.472618 -186.307784 
L 440.182848 -186.306923 
L 441.893079 -186.307355 
L 443.60331 -186.306923 
L 445.31354 -186.307355 
L 447.023771 -186.307784 
L 448.734002 -186.306923 
L 450.444233 -186.306809 
L 452.154463 -186.307251 
L 453.864694 -186.307166 
L 455.574925 -186.306733 
L 457.285155 -186.324606 
L 458.995386 -186.307936 
L 460.705617 -186.30847 
L 462.415847 -186.307608 
L 464.126078 -186.307608 
L 465.836309 -186.30847 
L 467.54654 -186.307608 
L 469.25677 -186.307608 
L 470.967001 -186.30847 
L 472.677232 -186.307608 
L 472.677232 -186.757788 
L 472.677232 -186.757788 
L 470.967001 -186.758445 
L 469.25677 -186.757788 
L 467.54654 -186.757788 
L 465.836309 -186.758445 
L 464.126078 -186.757788 
L 462.415847 -186.757788 
L 460.705617 -186.758445 
L 458.995386 -186.758196 
L 457.285155 -186.768114 
L 455.574925 -186.757121 
L 453.864694 -186.757448 
L 452.154463 -186.757362 
L 450.444233 -186.757022 
L 448.734002 -186.756953 
L 447.023771 -186.757611 
L 445.31354 -186.757281 
L 443.60331 -186.756953 
L 441.893079 -186.757281 
L 440.182848 -186.756953 
L 438.472618 -186.757611 
L 436.762387 -186.757611 
L 435.052156 -186.757611 
L 433.341926 -186.767619 
L 431.631695 -186.756953 
L 429.921464 -186.757611 
L 428.211234 -186.745554 
L 426.501003 -186.735878 
L 424.790772 -186.746222 
L 423.080541 -186.743306 
L 421.370311 -186.745387 
L 419.66008 -186.74547 
L 417.949849 -186.731493 
L 416.239619 -186.731408 
L 414.529388 -186.721033 
L 412.819157 -186.731075 
L 411.108927 -186.72137 
L 409.398696 -186.72137 
L 407.688465 -186.72137 
L 405.978234 -186.720953 
L 404.268004 -186.710933 
L 402.557773 -186.710595 
L 400.847542 -186.710177 
L 399.137312 -186.710256 
L 397.427081 -186.706657 
L 395.71685 -186.696943 
L 394.00662 -186.706574 
L 392.296389 -186.696105 
L 390.586158 -186.696105 
L 388.875928 -186.709501 
L 387.165697 -186.69866 
L 385.455466 -186.688439 
L 383.745235 -186.696186 
L 382.035005 -186.68387 
L 380.324774 -186.673889 
L 378.614543 -186.681243 
L 376.904313 -186.670263 
L 375.194082 -186.659567 
L 373.483851 -186.648388 
L 371.773621 -186.628804 
L 370.06339 -186.646936 
L 368.353159 -186.627276 
L 366.642928 -186.65948 
L 364.932698 -186.596363 
L 363.222467 -186.602883 
L 361.512236 -186.583133 
L 359.802006 -186.581864 
L 358.091775 -186.570043 
L 356.381544 -186.585661 
L 354.671314 -186.568495 
L 352.961083 -186.578421 
L 351.250852 -186.55366 
L 349.540621 -186.539365 
L 347.830391 -186.518479 
L 346.12016 -186.531682 
L 344.409929 -186.503464 
L 342.699699 -186.505002 
L 340.989468 -186.475488 
L 339.279237 -186.445456 
L 337.569007 -186.459461 
L 335.858776 -186.4235 
L 334.148545 -186.44213 
L 332.438315 -186.440423 
L 330.728084 -186.375787 
L 329.017853 -186.390467 
L 327.307622 -186.393262 
L 325.597392 -186.351472 
L 323.887161 -186.353525 
L 322.17693 -186.280483 
L 320.4667 -186.2796 
L 318.756469 -186.256764 
L 317.046238 -186.228971 
L 315.336008 -186.200067 
L 313.625777 -186.187078 
L 311.915546 -186.134576 
L 310.205315 -186.130595 
L 308.495085 -186.115465 
L 306.784854 -186.112928 
L 305.074623 -186.075567 
L 303.364393 -186.070352 
L 301.654162 -186.016462 
L 299.943931 -185.924912 
L 298.233701 -185.944224 
L 296.52347 -185.90125 
L 294.813239 -185.88255 
L 293.103009 -185.867613 
L 291.392778 -185.862049 
L 289.682547 -185.825097 
L 287.972316 -185.757461 
L 286.262086 -185.699521 
L 284.551855 -185.684342 
L 282.841624 -185.625119 
L 281.131394 -185.505637 
L 279.421163 -185.554636 
L 277.710932 -185.465443 
L 276.000702 -185.289023 
L 274.290471 -185.275676 
L 272.58024 -185.155343 
L 270.870009 -185.058599 
L 269.159779 -184.894901 
L 267.449548 -184.783598 
L 265.739317 -184.642533 
L 264.029087 -184.428091 
L 262.318856 -184.268731 
L 260.608625 -184.102722 
L 258.898395 -183.823786 
L 257.188164 -183.560522 
L 255.477933 -183.323182 
L 253.767702 -182.901147 
L 252.057472 -182.552793 
L 250.347241 -182.09351 
L 248.63701 -181.589342 
L 246.92678 -181.089713 
L 245.216549 -180.641168 
L 243.506318 -180.236503 
L 241.796088 -179.736598 
L 240.085857 -179.142347 
L 238.375626 -178.572834 
L 236.665396 -177.760124 
L 234.955165 -177.178022 
L 233.244934 -176.572047 
L 231.534703 -175.902445 
L 229.824473 -175.016999 
L 228.114242 -174.05577 
L 226.404011 -172.876136 
L 224.693781 -171.875081 
L 222.98355 -170.701002 
L 221.273319 -169.487231 
L 219.563089 -168.189108 
L 217.852858 -166.95173 
L 216.142627 -165.815619 
L 214.432396 -164.466964 
L 212.722166 -162.994745 
L 211.011935 -161.608274 
L 209.301704 -160.057484 
L 207.591474 -158.458859 
L 205.881243 -157.038868 
L 204.171012 -155.304717 
L 202.460782 -153.518095 
L 200.750551 -151.62855 
L 199.04032 -149.672069 
L 197.33009 -147.860542 
L 195.619859 -145.753688 
L 193.909628 -143.280121 
L 192.199397 -140.710698 
L 190.489167 -138.508988 
L 188.778936 -136.267535 
L 187.068705 -133.845382 
L 185.358475 -131.149226 
L 183.648244 -128.642876 
L 181.938013 -126.155409 
L 180.227783 -123.919427 
L 178.517552 -121.751597 
L 176.807321 -119.518605 
L 175.09709 -117.188819 
L 173.38686 -115.065557 
L 171.676629 -112.959838 
L 169.966398 -110.736997 
L 168.256168 -108.474491 
L 166.545937 -106.861155 
L 164.835706 -105.072497 
L 163.125476 -103.400406 
L 161.415245 -101.714353 
L 159.705014 -99.983305 
L 157.994783 -98.259541 
L 156.284553 -96.572419 
L 154.574322 -94.861405 
L 152.864091 -93.176224 
L 151.153861 -91.637265 
L 149.44363 -89.692499 
L 147.733399 -87.611083 
L 146.023169 -85.65221 
L 144.312938 -83.652814 
L 142.602707 -81.599324 
L 140.892477 -79.49575 
L 139.182246 -77.378364 
L 137.472015 -75.373512 
L 135.761784 -73.407511 
L 134.051554 -70.948167 
L 132.341323 -68.848273 
L 130.631092 -67.069953 
L 128.920862 -64.832858 
L 127.210631 -62.895046 
L 125.5004 -60.710575 
L 123.79017 -58.722707 
L 122.079939 -57.198818 
L 120.369708 -55.84056 
L 118.659477 -54.40531 
L 116.949247 -53.054117 
L 115.239016 -52.026725 
L 113.528785 -51.410395 
L 111.818555 -50.989753 
L 110.108324 -50.720113 
L 108.398093 -50.646926 
L 106.687863 -50.561058 
L 104.977632 -50.46036 
L 103.267401 -50.429445 
L 101.557171 -50.408138 
L 99.84694 -50.361238 
L 98.136709 -50.30894 
L 96.426478 -50.254055 
L 94.716248 -50.147795 
L 93.006017 -49.884837 
L 91.295786 -49.663346 
L 89.585556 -49.346726 
L 87.875325 -49.080665 
L 86.165094 -48.955627 
L 84.454864 -48.900822 
L 82.744633 -48.874462 
L 81.034402 -48.874462 
L 79.324171 -48.874462 
L 77.613941 -48.874462 
L 75.90371 -48.874462 
L 74.193479 -48.874462 
L 72.483249 -48.874462 
L 70.773018 -48.874462 
L 69.062787 -48.874462 
L 67.352557 -48.874462 
L 65.642326 -48.874462 
L 63.932095 -48.874462 
L 62.221864 -48.874462 
z
" style="stroke: #33ccff; stroke-opacity: 0.3"/>
    </defs>
    <g clip-path="url(#p7a3dcd72ec)">
     <use xlink:href="#m11663ce53e" x="0" y="432" style="fill: #33ccff; fill-opacity: 0.3; stroke: #33ccff; stroke-opacity: 0.3"/>
    </g>
   </g>
   <g id="PolyCollection_4">
    <defs>
     <path id="mc404be0f86" d="M 62.221864 -48.874462 
L 62.221864 -48.874462 
L 63.932095 -48.874462 
L 65.642326 -48.874462 
L 67.352557 -48.874462 
L 69.062787 -48.874462 
L 70.773018 -48.874462 
L 72.483249 -48.874462 
L 74.193479 -48.874462 
L 75.90371 -48.874462 
L 77.613941 -48.874462 
L 79.324171 -48.874462 
L 81.034402 -48.874462 
L 82.744633 -48.874462 
L 84.454864 -48.874462 
L 86.165094 -48.874462 
L 87.875325 -48.874462 
L 89.585556 -48.874462 
L 91.295786 -48.874462 
L 93.006017 -48.874462 
L 94.716248 -48.862646 
L 96.426478 -48.861818 
L 98.136709 -48.895402 
L 99.84694 -48.943808 
L 101.557171 -49.04889 
L 103.267401 -49.213387 
L 104.977632 -49.339801 
L 106.687863 -49.5626 
L 108.398093 -49.805569 
L 110.108324 -50.14262 
L 111.818555 -50.454647 
L 113.528785 -50.836534 
L 115.239016 -51.336501 
L 116.949247 -51.877739 
L 118.659477 -52.389469 
L 120.369708 -53.007861 
L 122.079939 -53.612428 
L 123.79017 -54.290488 
L 125.5004 -55.050984 
L 127.210631 -55.851505 
L 128.920862 -56.5348 
L 130.631092 -57.201404 
L 132.341323 -57.849592 
L 134.051554 -58.756734 
L 135.761784 -59.588326 
L 137.472015 -60.689376 
L 139.182246 -62.288042 
L 140.892477 -64.234066 
L 142.602707 -67.056638 
L 144.312938 -69.67832 
L 146.023169 -72.311118 
L 147.733399 -75.537733 
L 149.44363 -78.891378 
L 151.153861 -82.183087 
L 152.864091 -85.816834 
L 154.574322 -89.765386 
L 156.284553 -94.085665 
L 157.994783 -98.764362 
L 159.705014 -103.490005 
L 161.415245 -107.951468 
L 163.125476 -112.071125 
L 164.835706 -116.351449 
L 166.545937 -120.84752 
L 168.256168 -125.118592 
L 169.966398 -128.879761 
L 171.676629 -132.379254 
L 173.38686 -135.618901 
L 175.09709 -138.555786 
L 176.807321 -141.492945 
L 178.517552 -144.807619 
L 180.227783 -147.813493 
L 181.938013 -150.750813 
L 183.648244 -153.479681 
L 185.358475 -156.157551 
L 187.068705 -158.379661 
L 188.778936 -160.284479 
L 190.489167 -162.348401 
L 192.199397 -164.246089 
L 193.909628 -165.699693 
L 195.619859 -167.144223 
L 197.33009 -168.676166 
L 199.04032 -169.766732 
L 200.750551 -170.905451 
L 202.460782 -172.002125 
L 204.171012 -172.857594 
L 205.881243 -173.696909 
L 207.591474 -174.419789 
L 209.301704 -175.030854 
L 211.011935 -175.702645 
L 212.722166 -176.097973 
L 214.432396 -176.805018 
L 216.142627 -177.25249 
L 217.852858 -177.978581 
L 219.563089 -178.502212 
L 221.273319 -178.741268 
L 222.98355 -179.1236 
L 224.693781 -179.410731 
L 226.404011 -179.745907 
L 228.114242 -179.919639 
L 229.824473 -180.110982 
L 231.534703 -180.428384 
L 233.244934 -180.554542 
L 234.955165 -180.815529 
L 236.665396 -180.97504 
L 238.375626 -181.251254 
L 240.085857 -181.392234 
L 241.796088 -181.499213 
L 243.506318 -181.76854 
L 245.216549 -181.853722 
L 246.92678 -182.121261 
L 248.63701 -182.283427 
L 250.347241 -182.430842 
L 252.057472 -182.571739 
L 253.767702 -182.659401 
L 255.477933 -182.826455 
L 257.188164 -183.021652 
L 258.898395 -183.150112 
L 260.608625 -183.364537 
L 262.318856 -183.436761 
L 264.029087 -183.54795 
L 265.739317 -183.666038 
L 267.449548 -183.817041 
L 269.159779 -183.995205 
L 270.870009 -184.186438 
L 272.58024 -184.38641 
L 274.290471 -184.397593 
L 276.000702 -184.471808 
L 277.710932 -184.547091 
L 279.421163 -184.69518 
L 281.131394 -184.805015 
L 282.841624 -184.858308 
L 284.551855 -184.956116 
L 286.262086 -185.040096 
L 287.972316 -185.106168 
L 289.682547 -185.132364 
L 291.392778 -185.208431 
L 293.103009 -185.28726 
L 294.813239 -185.324972 
L 296.52347 -185.389871 
L 298.233701 -185.39762 
L 299.943931 -185.55749 
L 301.654162 -185.639779 
L 303.364393 -185.672836 
L 305.074623 -185.72327 
L 306.784854 -185.817126 
L 308.495085 -185.852336 
L 310.205315 -185.863719 
L 311.915546 -185.938999 
L 313.625777 -185.911208 
L 315.336008 -185.955513 
L 317.046238 -186.038082 
L 318.756469 -186.013277 
L 320.4667 -186.032051 
L 322.17693 -186.024349 
L 323.887161 -186.088219 
L 325.597392 -186.123889 
L 327.307622 -186.096113 
L 329.017853 -186.096596 
L 330.728084 -186.132187 
L 332.438315 -186.135871 
L 334.148545 -186.113985 
L 335.858776 -186.225829 
L 337.569007 -186.180036 
L 339.279237 -186.196233 
L 340.989468 -186.162161 
L 342.699699 -186.239074 
L 344.409929 -186.25459 
L 346.12016 -186.263634 
L 347.830391 -186.259348 
L 349.540621 -186.291953 
L 351.250852 -186.284278 
L 352.961083 -186.262386 
L 354.671314 -186.267248 
L 356.381544 -186.295165 
L 358.091775 -186.276333 
L 359.802006 -186.278627 
L 361.512236 -186.296514 
L 363.222467 -186.319054 
L 364.932698 -186.318788 
L 366.642928 -186.354254 
L 368.353159 -186.326874 
L 370.06339 -186.334977 
L 371.773621 -186.332469 
L 373.483851 -186.348613 
L 375.194082 -186.347312 
L 376.904313 -186.366573 
L 378.614543 -186.375992 
L 380.324774 -186.361767 
L 382.035005 -186.350709 
L 383.745235 -186.393767 
L 385.455466 -186.374173 
L 387.165697 -186.397979 
L 388.875928 -186.423731 
L 390.586158 -186.423731 
L 392.296389 -186.397395 
L 394.00662 -186.433039 
L 395.71685 -186.462516 
L 397.427081 -186.443023 
L 399.137312 -186.434546 
L 400.847542 -186.439619 
L 402.557773 -186.439222 
L 404.268004 -186.414501 
L 405.978234 -186.436014 
L 407.688465 -186.463787 
L 409.398696 -186.486076 
L 411.108927 -186.392824 
L 412.819157 -186.414924 
L 414.529388 -186.441354 
L 416.239619 -186.394397 
L 417.949849 -186.39408 
L 419.66008 -186.434125 
L 421.370311 -186.394397 
L 423.080541 -186.480948 
L 424.790772 -186.371959 
L 426.501003 -186.442943 
L 428.211234 -186.443423 
L 429.921464 -186.410316 
L 431.631695 -186.394309 
L 433.341926 -186.458622 
L 435.052156 -186.433047 
L 436.762387 -186.386448 
L 438.472618 -186.433364 
L 440.182848 -186.409715 
L 441.893079 -186.503738 
L 443.60331 -186.458856 
L 445.31354 -186.520562 
L 447.023771 -186.45602 
L 448.734002 -186.496666 
L 450.444233 -186.410825 
L 452.154463 -186.459894 
L 453.864694 -186.456977 
L 455.574925 -186.476696 
L 457.285155 -186.476169 
L 458.995386 -186.452202 
L 460.705617 -186.427819 
L 462.415847 -186.435082 
L 464.126078 -186.497507 
L 465.836309 -186.42445 
L 467.54654 -186.497824 
L 469.25677 -186.462878 
L 470.967001 -186.487376 
L 472.677232 -186.440683 
L 472.677232 -186.886765 
L 472.677232 -186.886765 
L 470.967001 -186.88789 
L 469.25677 -186.898182 
L 467.54654 -186.888183 
L 465.836309 -186.878742 
L 464.126078 -186.887807 
L 462.415847 -186.878159 
L 460.705617 -186.873988 
L 458.995386 -186.872474 
L 457.285155 -186.872763 
L 455.574925 -186.872929 
L 453.864694 -186.868392 
L 452.154463 -186.875524 
L 450.444233 -186.866033 
L 448.734002 -186.875136 
L 447.023771 -186.867963 
L 445.31354 -186.885544 
L 443.60331 -186.875176 
L 441.893079 -186.877419 
L 440.182848 -186.865757 
L 438.472618 -186.865671 
L 436.762387 -186.863383 
L 435.052156 -186.865295 
L 433.341926 -186.874717 
L 431.631695 -186.856215 
L 429.921464 -186.86377 
L 428.211234 -186.86566 
L 426.501003 -186.865447 
L 424.790772 -186.853616 
L 423.080541 -186.873182 
L 421.370311 -186.854047 
L 419.66008 -186.861445 
L 417.949849 -186.853672 
L 416.239619 -186.854047 
L 414.529388 -186.864265 
L 412.819157 -186.85639 
L 411.108927 -186.854234 
L 409.398696 -186.866668 
L 407.688465 -186.863315 
L 405.978234 -186.855398 
L 404.268004 -186.853348 
L 402.557773 -186.862239 
L 400.847542 -186.862535 
L 399.137312 -186.854786 
L 397.427081 -186.855665 
L 395.71685 -186.858348 
L 394.00662 -186.853521 
L 392.296389 -186.840654 
L 390.586158 -186.848623 
L 388.875928 -186.848623 
L 387.165697 -186.839377 
L 385.455466 -186.836848 
L 383.745235 -186.838738 
L 382.035005 -186.83675 
L 380.324774 -186.823614 
L 378.614543 -186.818744 
L 376.904313 -186.816728 
L 375.194082 -186.81104 
L 373.483851 -186.793454 
L 371.773621 -186.800243 
L 370.06339 -186.795656 
L 368.353159 -186.787473 
L 366.642928 -186.79509 
L 364.932698 -186.781352 
L 363.222467 -186.780393 
L 361.512236 -186.773827 
L 359.802006 -186.76607 
L 358.091775 -186.769058 
L 356.381544 -186.773788 
L 354.671314 -186.76463 
L 352.961083 -186.755977 
L 351.250852 -186.764231 
L 349.540621 -186.770763 
L 347.830391 -186.751392 
L 346.12016 -186.74572 
L 344.409929 -186.739171 
L 342.699699 -186.728352 
L 340.989468 -186.696808 
L 339.279237 -186.708475 
L 337.569007 -186.699723 
L 335.858776 -186.710412 
L 334.148545 -186.660435 
L 332.438315 -186.664191 
L 330.728084 -186.665796 
L 329.017853 -186.646639 
L 327.307622 -186.645735 
L 325.597392 -186.64464 
L 323.887161 -186.620365 
L 322.17693 -186.58444 
L 320.4667 -186.574659 
L 318.756469 -186.564324 
L 317.046238 -186.568972 
L 315.336008 -186.520215 
L 313.625777 -186.486901 
L 311.915546 -186.491335 
L 310.205315 -186.45192 
L 308.495085 -186.422761 
L 306.784854 -186.380352 
L 305.074623 -186.32313 
L 303.364393 -186.273769 
L 301.654162 -186.256928 
L 299.943931 -186.190911 
L 298.233701 -186.074959 
L 296.52347 -186.052216 
L 294.813239 -186.004497 
L 293.103009 -185.977412 
L 291.392778 -185.905856 
L 289.682547 -185.830151 
L 287.972316 -185.841447 
L 286.262086 -185.742234 
L 284.551855 -185.678601 
L 282.841624 -185.628102 
L 281.131394 -185.532396 
L 279.421163 -185.417 
L 277.710932 -185.293425 
L 276.000702 -185.241191 
L 274.290471 -185.167101 
L 272.58024 -185.095813 
L 270.870009 -184.952049 
L 269.159779 -184.77321 
L 267.449548 -184.628427 
L 265.739317 -184.490443 
L 264.029087 -184.379141 
L 262.318856 -184.243616 
L 260.608625 -184.159219 
L 258.898395 -183.933577 
L 257.188164 -183.79176 
L 255.477933 -183.620351 
L 253.767702 -183.493563 
L 252.057472 -183.390995 
L 250.347241 -183.233201 
L 248.63701 -183.04173 
L 246.92678 -182.833823 
L 245.216549 -182.585064 
L 243.506318 -182.482092 
L 241.796088 -182.215022 
L 240.085857 -182.117562 
L 238.375626 -181.924852 
L 236.665396 -181.75892 
L 234.955165 -181.650926 
L 233.244934 -181.510655 
L 231.534703 -181.379356 
L 229.824473 -181.090695 
L 228.114242 -180.977802 
L 226.404011 -180.830667 
L 224.693781 -180.580934 
L 222.98355 -180.30187 
L 221.273319 -180.046624 
L 219.563089 -179.823783 
L 217.852858 -179.443024 
L 216.142627 -179.060631 
L 214.432396 -178.699352 
L 212.722166 -178.24455 
L 211.011935 -177.919485 
L 209.301704 -177.372257 
L 207.591474 -176.956961 
L 205.881243 -176.452503 
L 204.171012 -175.852415 
L 202.460782 -175.248387 
L 200.750551 -174.406341 
L 199.04032 -173.510703 
L 197.33009 -172.664279 
L 195.619859 -171.545773 
L 193.909628 -170.434798 
L 192.199397 -169.203996 
L 190.489167 -167.551348 
L 188.778936 -165.907276 
L 187.068705 -164.306456 
L 185.358475 -162.413055 
L 183.648244 -160.211341 
L 181.938013 -157.626814 
L 180.227783 -155.100314 
L 178.517552 -152.415097 
L 176.807321 -149.562557 
L 175.09709 -146.951022 
L 173.38686 -144.36622 
L 171.676629 -141.353127 
L 169.966398 -138.178136 
L 168.256168 -134.631385 
L 166.545937 -130.59657 
L 164.835706 -126.307586 
L 163.125476 -122.101083 
L 161.415245 -117.931444 
L 159.705014 -113.412385 
L 157.994783 -108.487704 
L 156.284553 -103.718518 
L 154.574322 -99.141703 
L 152.864091 -94.720565 
L 151.153861 -90.658444 
L 149.44363 -86.973454 
L 147.733399 -82.953237 
L 146.023169 -79.029263 
L 144.312938 -75.63488 
L 142.602707 -72.184844 
L 140.892477 -68.442592 
L 139.182246 -65.715141 
L 137.472015 -63.497579 
L 135.761784 -62.045181 
L 134.051554 -60.825358 
L 132.341323 -59.739032 
L 130.631092 -58.983652 
L 128.920862 -58.227551 
L 127.210631 -57.510906 
L 125.5004 -56.653442 
L 123.79017 -55.808744 
L 122.079939 -55.045609 
L 120.369708 -54.39088 
L 118.659477 -53.694412 
L 116.949247 -53.135244 
L 115.239016 -52.511415 
L 113.528785 -51.928317 
L 111.818555 -51.471956 
L 110.108324 -51.074149 
L 108.398093 -50.616473 
L 106.687863 -50.256615 
L 104.977632 -49.923675 
L 103.267401 -49.698382 
L 101.557171 -49.415576 
L 99.84694 -49.205335 
L 98.136709 -49.08395 
L 96.426478 -48.947744 
L 94.716248 -48.910533 
L 93.006017 -48.874462 
L 91.295786 -48.874462 
L 89.585556 -48.874462 
L 87.875325 -48.874462 
L 86.165094 -48.874462 
L 84.454864 -48.874462 
L 82.744633 -48.874462 
L 81.034402 -48.874462 
L 79.324171 -48.874462 
L 77.613941 -48.874462 
L 75.90371 -48.874462 
L 74.193479 -48.874462 
L 72.483249 -48.874462 
L 70.773018 -48.874462 
L 69.062787 -48.874462 
L 67.352557 -48.874462 
L 65.642326 -48.874462 
L 63.932095 -48.874462 
L 62.221864 -48.874462 
z
" style="stroke: #f99a5a; stroke-opacity: 0.3"/>
    </defs>
    <g clip-path="url(#p7a3dcd72ec)">
     <use xlink:href="#mc404be0f86" x="0" y="432" style="fill: #f99a5a; fill-opacity: 0.3; stroke: #f99a5a; stroke-opacity: 0.3"/>
    </g>
   </g>
   <g id="matplotlib.axis_3">
    <g id="xtick_8">
     <g id="line2d_33">
      <g>
       <use xlink:href="#m9a3532dff0" x="62.221864" y="390.04" style="stroke: #000000; stroke-width: 0.8"/>
      </g>
     </g>
     <g id="text_14">
      <text style="font: 10px 'sans-serif'; text-anchor: middle" x="62.221864" y="404.638438" transform="rotate(-0, 62.221864, 404.638438)">0</text>
     </g>
    </g>
    <g id="xtick_9">
     <g id="line2d_34">
      <g>
       <use xlink:href="#m9a3532dff0" x="130.631092" y="390.04" style="stroke: #000000; stroke-width: 0.8"/>
      </g>
     </g>
     <g id="text_15">
      <text style="font: 10px 'sans-serif'; text-anchor: middle" x="130.631092" y="404.638438" transform="rotate(-0, 130.631092, 404.638438)">2000</text>
     </g>
    </g>
    <g id="xtick_10">
     <g id="line2d_35">
      <g>
       <use xlink:href="#m9a3532dff0" x="199.04032" y="390.04" style="stroke: #000000; stroke-width: 0.8"/>
      </g>
     </g>
     <g id="text_16">
      <text style="font: 10px 'sans-serif'; text-anchor: middle" x="199.04032" y="404.638438" transform="rotate(-0, 199.04032, 404.638438)">4000</text>
     </g>
    </g>
    <g id="xtick_11">
     <g id="line2d_36">
      <g>
       <use xlink:href="#m9a3532dff0" x="267.449548" y="390.04" style="stroke: #000000; stroke-width: 0.8"/>
      </g>
     </g>
     <g id="text_17">
      <text style="font: 10px 'sans-serif'; text-anchor: middle" x="267.449548" y="404.638438" transform="rotate(-0, 267.449548, 404.638438)">6000</text>
     </g>
    </g>
    <g id="xtick_12">
     <g id="line2d_37">
      <g>
       <use xlink:href="#m9a3532dff0" x="335.858776" y="390.04" style="stroke: #000000; stroke-width: 0.8"/>
      </g>
     </g>
     <g id="text_18">
      <text style="font: 10px 'sans-serif'; text-anchor: middle" x="335.858776" y="404.638438" transform="rotate(-0, 335.858776, 404.638438)">8000</text>
     </g>
    </g>
    <g id="xtick_13">
     <g id="line2d_38">
      <g>
       <use xlink:href="#m9a3532dff0" x="404.268004" y="390.04" style="stroke: #000000; stroke-width: 0.8"/>
      </g>
     </g>
     <g id="text_19">
      <text style="font: 10px 'sans-serif'; text-anchor: middle" x="404.268004" y="404.638438" transform="rotate(-0, 404.268004, 404.638438)">10000</text>
     </g>
    </g>
    <g id="xtick_14">
     <g id="line2d_39">
      <g>
       <use xlink:href="#m9a3532dff0" x="472.677232" y="390.04" style="stroke: #000000; stroke-width: 0.8"/>
      </g>
     </g>
     <g id="text_20">
      <text style="font: 10px 'sans-serif'; text-anchor: middle" x="472.677232" y="404.638438" transform="rotate(-0, 472.677232, 404.638438)">12000</text>
     </g>
    </g>
    <g id="text_21">
     <text style="font: 10px 'sans-serif'; text-anchor: middle" x="267.449548" y="418.316562" transform="rotate(-0, 267.449548, 418.316562)">Epoch</text>
    </g>
   </g>
   <g id="matplotlib.axis_4">
    <g id="ytick_19">
     <g id="line2d_40">
      <g>
       <use xlink:href="#m9079de5074" x="41.699096" y="383.125538" style="stroke: #000000; stroke-width: 0.8"/>
      </g>
     </g>
     <g id="text_22">
      <text style="font: 10px 'sans-serif'; text-anchor: end" x="34.699096" y="386.924757" transform="rotate(-0, 34.699096, 386.924757)">0.5</text>
     </g>
    </g>
    <g id="ytick_20">
     <g id="line2d_41">
      <g>
       <use xlink:href="#m9079de5074" x="41.699096" y="355.474094" style="stroke: #000000; stroke-width: 0.8"/>
      </g>
     </g>
     <g id="text_23">
      <text style="font: 10px 'sans-serif'; text-anchor: end" x="34.699096" y="359.273313" transform="rotate(-0, 34.699096, 359.273313)">0.6</text>
     </g>
    </g>
    <g id="ytick_21">
     <g id="line2d_42">
      <g>
       <use xlink:href="#m9079de5074" x="41.699096" y="327.822649" style="stroke: #000000; stroke-width: 0.8"/>
      </g>
     </g>
     <g id="text_24">
      <text style="font: 10px 'sans-serif'; text-anchor: end" x="34.699096" y="331.621868" transform="rotate(-0, 34.699096, 331.621868)">0.7</text>
     </g>
    </g>
    <g id="ytick_22">
     <g id="line2d_43">
      <g>
       <use xlink:href="#m9079de5074" x="41.699096" y="300.171205" style="stroke: #000000; stroke-width: 0.8"/>
      </g>
     </g>
     <g id="text_25">
      <text style="font: 10px 'sans-serif'; text-anchor: end" x="34.699096" y="303.970424" transform="rotate(-0, 34.699096, 303.970424)">0.8</text>
     </g>
    </g>
    <g id="ytick_23">
     <g id="line2d_44">
      <g>
       <use xlink:href="#m9079de5074" x="41.699096" y="272.519761" style="stroke: #000000; stroke-width: 0.8"/>
      </g>
     </g>
     <g id="text_26">
      <text style="font: 10px 'sans-serif'; text-anchor: end" x="34.699096" y="276.31898" transform="rotate(-0, 34.699096, 276.31898)">0.9</text>
     </g>
    </g>
    <g id="ytick_24">
     <g id="line2d_45">
      <g>
       <use xlink:href="#m9079de5074" x="41.699096" y="244.868316" style="stroke: #000000; stroke-width: 0.8"/>
      </g>
     </g>
     <g id="text_27">
      <text style="font: 10px 'sans-serif'; text-anchor: end" x="34.699096" y="248.667535" transform="rotate(-0, 34.699096, 248.667535)">1.0</text>
     </g>
    </g>
   </g>
   <g id="line2d_46">
    <path d="M 62.221864 383.125538 
L 86.165094 383.08203 
L 87.875325 382.989374 
L 96.426478 381.876704 
L 111.818555 381.236378 
L 113.528785 380.947513 
L 115.239016 380.496658 
L 116.949247 379.817233 
L 118.659477 378.839453 
L 122.079939 376.621876 
L 123.79017 375.309565 
L 125.5004 373.577902 
L 127.210631 371.661631 
L 128.920862 369.99835 
L 130.631092 367.995825 
L 132.341323 366.397786 
L 134.051554 364.425261 
L 135.761784 362.081812 
L 139.182246 358.207025 
L 144.312938 352.055383 
L 151.153861 343.741687 
L 154.574322 340.355997 
L 163.125476 331.699165 
L 168.256168 326.720848 
L 171.676629 322.349919 
L 175.09709 318.296549 
L 178.517552 313.843474 
L 181.938013 309.5506 
L 185.358475 304.526253 
L 187.068705 301.750559 
L 190.489167 296.82365 
L 192.199397 294.507502 
L 195.619859 289.217006 
L 197.33009 287.008085 
L 199.04032 285.137435 
L 202.460782 281.176404 
L 205.881243 277.466059 
L 207.591474 275.998974 
L 211.011935 272.639779 
L 216.142627 268.196366 
L 219.563089 265.768698 
L 222.98355 263.07591 
L 224.693781 261.872047 
L 226.404011 260.848411 
L 228.114242 259.531169 
L 231.534703 257.576577 
L 241.796088 253.362392 
L 243.506318 252.801007 
L 246.92678 251.879926 
L 255.477933 249.475998 
L 265.739317 248.053545 
L 274.290471 247.291611 
L 276.000702 247.273759 
L 279.421163 246.962301 
L 281.131394 246.999144 
L 284.551855 246.767828 
L 287.972316 246.654638 
L 291.392778 246.503088 
L 299.943931 246.435098 
L 303.364393 246.283927 
L 311.915546 246.196946 
L 320.4667 246.026783 
L 325.597392 245.953856 
L 329.017853 245.909797 
L 335.858776 245.873714 
L 342.699699 245.764324 
L 351.250852 245.718745 
L 359.802006 245.688739 
L 376.904313 245.57821 
L 394.00662 245.53643 
L 405.978234 245.521997 
L 472.677232 245.467302 
L 472.677232 245.467302 
" clip-path="url(#p7a3dcd72ec)" style="fill: none; stroke: #33ccff; stroke-width: 1.5; stroke-linecap: square"/>
   </g>
   <g id="line2d_47">
    <path d="M 62.221864 383.125538 
L 96.426478 383.095219 
L 101.557171 382.767767 
L 108.398093 381.788979 
L 113.528785 380.617574 
L 118.659477 378.95806 
L 123.79017 376.950384 
L 128.920862 374.618825 
L 132.341323 373.205688 
L 135.761784 371.183247 
L 137.472015 369.906523 
L 139.182246 367.998408 
L 140.892477 365.661671 
L 142.602707 362.379259 
L 146.023169 356.32981 
L 151.153861 345.579235 
L 152.864091 341.731301 
L 156.284553 333.097909 
L 161.415245 319.058544 
L 164.835706 310.670482 
L 168.256168 302.125011 
L 169.966398 298.471051 
L 173.38686 292.007439 
L 176.807321 286.472249 
L 178.517552 283.388642 
L 181.938013 277.811186 
L 183.648244 275.154489 
L 185.358475 272.714697 
L 187.068705 270.656941 
L 192.199397 265.274957 
L 197.33009 261.329778 
L 202.460782 258.374744 
L 205.881243 256.925294 
L 211.011935 255.188935 
L 212.722166 254.828739 
L 214.432396 254.247815 
L 216.142627 253.843439 
L 219.563089 252.837003 
L 222.98355 252.287265 
L 226.404011 251.711713 
L 229.824473 251.399162 
L 231.534703 251.09613 
L 236.665396 250.63302 
L 240.085857 250.245102 
L 241.796088 250.142883 
L 243.506318 249.874684 
L 245.216549 249.780607 
L 248.63701 249.337422 
L 253.767702 248.923518 
L 274.290471 247.217653 
L 306.784854 245.901261 
L 320.4667 245.696645 
L 334.148545 245.61279 
L 337.569007 245.56012 
L 368.353159 245.442827 
L 409.398696 245.323628 
L 412.819157 245.364343 
L 423.080541 245.322935 
L 426.501003 245.345805 
L 472.677232 245.336276 
L 472.677232 245.336276 
" clip-path="url(#p7a3dcd72ec)" style="fill: none; stroke: #f99a5a; stroke-width: 1.5; stroke-linecap: square"/>
   </g>
   <g id="line2d_48">
    <path d="M 69.062787 390.04 
L 69.062787 238.2 
" clip-path="url(#p7a3dcd72ec)" style="fill: none; stroke-dasharray: 1.85,0.8; stroke-dashoffset: 0; stroke: #1a1a1a; stroke-width: 0.5"/>
   </g>
   <g id="line2d_49">
    <path d="M 116.949247 390.04 
L 116.949247 238.2 
" clip-path="url(#p7a3dcd72ec)" style="fill: none; stroke-dasharray: 1.85,0.8; stroke-dashoffset: 0; stroke: #1a1a1a; stroke-width: 0.5"/>
   </g>
   <g id="line2d_50">
    <path d="M 281.131394 390.04 
L 281.131394 238.2 
" clip-path="url(#p7a3dcd72ec)" style="fill: none; stroke-dasharray: 1.85,0.8; stroke-dashoffset: 0; stroke: #1a1a1a; stroke-width: 0.5"/>
   </g>
   <g id="patch_9">
    <path d="M 41.699096 390.04 
L 41.699096 238.2 
" style="fill: none; stroke: #000000; stroke-width: 0.8; stroke-linejoin: miter; stroke-linecap: square"/>
   </g>
   <g id="patch_10">
    <path d="M 493.2 390.04 
L 493.2 238.2 
" style="fill: none; stroke: #000000; stroke-width: 0.8; stroke-linejoin: miter; stroke-linecap: square"/>
   </g>
   <g id="patch_11">
    <path d="M 41.699096 390.04 
L 493.2 390.04 
" style="fill: none; stroke: #000000; stroke-width: 0.8; stroke-linejoin: miter; stroke-linecap: square"/>
   </g>
   <g id="patch_12">
    <path d="M 41.699096 238.2 
L 493.2 238.2 
" style="fill: none; stroke: #000000; stroke-width: 0.8; stroke-linejoin: miter; stroke-linecap: square"/>
   </g>
   <g id="text_28">
    <text style="font: 14.4px 'sans-serif'; text-anchor: middle" x="267.449548" y="232.2" transform="rotate(-0, 267.449548, 232.2)">Fraction of correct output units, class-rebalanced</text>
   </g>
   <g id="legend_2">
    <g id="patch_13">
     <path d="M 418.092188 385.04 
L 486.2 385.04 
Q 488.2 385.04 488.2 383.04 
L 488.2 354.68375 
Q 488.2 352.68375 486.2 352.68375 
L 418.092188 352.68375 
Q 416.092188 352.68375 416.092188 354.68375 
L 416.092188 383.04 
Q 416.092188 385.04 418.092188 385.04 
z
" style="fill: #ffffff; opacity: 0.8; stroke: #cccccc; stroke-linejoin: miter"/>
    </g>
    <g id="line2d_51">
     <path d="M 420.092188 360.782187 
L 430.092188 360.782187 
L 440.092188 360.782187 
" style="fill: none; stroke: #33ccff; stroke-width: 1.5; stroke-linecap: square"/>
    </g>
    <g id="text_29">
     <text style="font: 10px 'sans-serif'; text-anchor: start" x="448.092188" y="364.282187" transform="rotate(-0, 448.092188, 364.282187)">English</text>
    </g>
    <g id="line2d_52">
     <path d="M 420.092188 375.460312 
L 430.092188 375.460312 
L 440.092188 375.460312 
" style="fill: none; stroke: #f99a5a; stroke-width: 1.5; stroke-linecap: square"/>
    </g>
    <g id="text_30">
     <text style="font: 10px 'sans-serif'; text-anchor: start" x="448.092188" y="378.960312" transform="rotate(-0, 448.092188, 378.960312)">French</text>
    </g>
   </g>
  </g>
 </g>
 <defs>
  <clipPath id="p4e0ceb8202">
   <rect x="41.699096" y="27.6" width="451.500904" height="151.84"/>
  </clipPath>
  <clipPath id="p7a3dcd72ec">
   <rect x="41.699096" y="238.2" width="451.500904" height="151.84"/>
  </clipPath>
 </defs>
</svg>
