<?xml version="1.0" encoding="utf-8" standalone="no"?>
<!DOCTYPE svg PUBLIC "-//W3C//DTD SVG 1.1//EN"
  "http://www.w3.org/Graphics/SVG/1.1/DTD/svg11.dtd">
<svg xmlns:xlink="http://www.w3.org/1999/xlink" width="504pt" height="216pt" viewBox="0 0 504 216" xmlns="http://www.w3.org/2000/svg" version="1.1">
 <metadata>
  <rdf:RDF xmlns:dc="http://purl.org/dc/elements/1.1/" xmlns:cc="http://creativecommons.org/ns#" xmlns:rdf="http://www.w3.org/1999/02/22-rdf-syntax-ns#">
   <cc:Work>
    <dc:type rdf:resource="http://purl.org/dc/dcmitype/StillImage"/>
    <dc:date>2022-04-21T00:40:46.502820</dc:date>
    <dc:format>image/svg+xml</dc:format>
    <dc:creator>
     <cc:Agent>
      <dc:title>Matplotlib v3.5.1, https://matplotlib.org/</dc:title>
     </cc:Agent>
    </dc:creator>
   </cc:Work>
  </rdf:RDF>
 </metadata>
 <defs>
  <style type="text/css">*{stroke-linejoin: round; stroke-linecap: butt}</style>
 </defs>
 <g id="figure_1">
  <g id="patch_1">
   <path d="M 0 216 
L 504 216 
L 504 0 
L 0 0 
z
" style="fill: #ffffff"/>
  </g>
  <g id="axes_1">
   <g id="patch_2">
    <path d="M 33.73 174.04 
L 493.2 174.04 
L 493.2 27.6 
L 33.73 27.6 
z
" style="fill: #ffffff"/>
   </g>
   <g id="PolyCollection_1">
    <defs>
     <path id="mbeaf002a0f" d="M 54.615 -48.628558 
L 54.615 -48.628558 
L 56.355417 -48.628558 
L 58.095833 -48.628558 
L 59.83625 -48.628558 
L 61.576667 -48.628558 
L 63.317083 -48.628558 
L 65.0575 -48.628558 
L 66.797917 -48.628558 
L 68.538333 -48.628558 
L 70.27875 -48.628558 
L 72.019167 -48.628558 
L 73.759583 -48.628558 
L 75.5 -48.628558 
L 77.240417 -48.62023 
L 78.980833 -48.6342 
L 80.72125 -48.69233 
L 82.461667 -48.872431 
L 84.202083 -49.120327 
L 85.9425 -49.316993 
L 87.682917 -49.589448 
L 89.423333 -49.706869 
L 91.16375 -49.772046 
L 92.904167 -49.826508 
L 94.644583 -49.887732 
L 96.385 -49.92857 
L 98.125417 -49.983451 
L 99.865833 -50.07904 
L 101.60625 -50.132209 
L 103.346667 -50.20227 
L 105.087083 -50.232444 
L 106.8275 -50.383945 
L 108.567917 -50.659176 
L 110.308333 -50.978846 
L 112.04875 -51.561719 
L 113.789167 -52.358002 
L 115.529583 -53.144983 
L 117.27 -54.206569 
L 119.010417 -55.629554 
L 120.750833 -57.219012 
L 122.49125 -58.558374 
L 124.231667 -60.263454 
L 125.972083 -61.630791 
L 127.7125 -63.410326 
L 129.452917 -65.558659 
L 131.193333 -67.272335 
L 132.93375 -69.202997 
L 134.674167 -71.224485 
L 136.414583 -73.08631 
L 138.155 -75.017421 
L 139.895417 -77.105714 
L 141.635833 -79.051169 
L 143.37625 -81.23957 
L 145.116667 -83.352988 
L 146.857083 -85.02802 
L 148.5975 -86.774074 
L 150.337917 -88.509114 
L 152.078333 -90.184229 
L 153.81875 -91.978735 
L 155.559167 -93.678966 
L 157.299583 -95.236678 
L 159.04 -96.728732 
L 160.780417 -98.337457 
L 162.520833 -99.945585 
L 164.26125 -102.006967 
L 166.001667 -104.050718 
L 167.742083 -105.958141 
L 169.4825 -107.790569 
L 171.222917 -109.926653 
L 172.963333 -111.979474 
L 174.70375 -113.909308 
L 176.444167 -116.012685 
L 178.184583 -118.324771 
L 179.925 -120.887792 
L 181.665417 -123.64148 
L 183.405833 -126.154561 
L 185.14625 -128.64711 
L 186.886667 -130.991255 
L 188.627083 -133.485764 
L 190.3675 -136.332305 
L 192.107917 -138.561106 
L 193.848333 -140.422249 
L 195.58875 -142.479145 
L 197.329167 -144.353326 
L 199.069583 -146.278419 
L 200.81 -148.114548 
L 202.550417 -149.574875 
L 204.290833 -151.286022 
L 206.03125 -153.016926 
L 207.771667 -154.498227 
L 209.512083 -156.126143 
L 211.2525 -157.529987 
L 212.992917 -158.656742 
L 214.733333 -159.923569 
L 216.47375 -161.349775 
L 218.214167 -162.695053 
L 219.954583 -163.884826 
L 221.695 -164.893836 
L 223.435417 -166.296945 
L 225.175833 -167.36634 
L 226.91625 -168.286103 
L 228.656667 -169.029398 
L 230.397083 -169.831857 
L 232.1375 -170.502757 
L 233.877917 -171.364457 
L 235.618333 -172.023318 
L 237.35875 -172.716933 
L 239.099167 -173.317646 
L 240.839583 -173.725949 
L 242.58 -174.271429 
L 244.320417 -174.744196 
L 246.060833 -175.286583 
L 247.80125 -175.873725 
L 249.541667 -176.282852 
L 251.282083 -176.75426 
L 253.0225 -177.016229 
L 254.762917 -177.303747 
L 256.503333 -177.600327 
L 258.24375 -177.781631 
L 259.984167 -177.967885 
L 261.724583 -178.225562 
L 263.465 -178.404546 
L 265.205417 -178.533111 
L 266.945833 -178.78771 
L 268.68625 -178.934713 
L 270.426667 -179.084608 
L 272.167083 -179.106171 
L 273.9075 -179.305275 
L 275.647917 -179.450767 
L 277.388333 -179.426957 
L 279.12875 -179.576942 
L 280.869167 -179.700787 
L 282.609583 -179.744026 
L 284.35 -179.848597 
L 286.090417 -179.993633 
L 287.830833 -180.04005 
L 289.57125 -180.045674 
L 291.311667 -180.061307 
L 293.052083 -180.097487 
L 294.7925 -180.138096 
L 296.532917 -180.110566 
L 298.273333 -180.206162 
L 300.01375 -180.261888 
L 301.754167 -180.259057 
L 303.494583 -180.329991 
L 305.235 -180.355384 
L 306.975417 -180.367899 
L 308.715833 -180.367723 
L 310.45625 -180.424786 
L 312.196667 -180.444495 
L 313.937083 -180.473032 
L 315.6775 -180.523888 
L 317.417917 -180.556079 
L 319.158333 -180.562555 
L 320.89875 -180.646697 
L 322.639167 -180.627431 
L 324.379583 -180.694092 
L 326.12 -180.674808 
L 327.860417 -180.666987 
L 329.600833 -180.737256 
L 331.34125 -180.738541 
L 333.081667 -180.712549 
L 334.822083 -180.780436 
L 336.5625 -180.74559 
L 338.302917 -180.795018 
L 340.043333 -180.844945 
L 341.78375 -180.825914 
L 343.524167 -180.87416 
L 345.264583 -180.839272 
L 347.005 -180.872611 
L 348.745417 -180.885932 
L 350.485833 -180.913336 
L 352.22625 -180.899465 
L 353.966667 -180.934926 
L 355.707083 -180.900902 
L 357.4475 -180.91661 
L 359.187917 -180.917583 
L 360.928333 -180.950552 
L 362.66875 -180.929733 
L 364.409167 -180.998537 
L 366.149583 -180.978312 
L 367.89 -180.986457 
L 369.630417 -180.979767 
L 371.370833 -180.987988 
L 373.11125 -181.029224 
L 374.851667 -181.04455 
L 376.592083 -181.060334 
L 378.3325 -181.042517 
L 380.072917 -181.057047 
L 381.813333 -181.074496 
L 383.55375 -181.056326 
L 385.294167 -181.071378 
L 387.034583 -181.087297 
L 388.775 -181.074574 
L 390.515417 -181.074574 
L 392.255833 -181.09012 
L 393.99625 -181.075231 
L 395.736667 -181.090039 
L 397.477083 -181.088033 
L 399.2175 -181.088109 
L 400.957917 -181.088439 
L 402.698333 -181.088846 
L 404.43875 -181.104091 
L 406.179167 -181.104422 
L 407.919583 -181.104422 
L 409.66 -181.104422 
L 411.400417 -181.11924 
L 413.140833 -181.104015 
L 414.88125 -181.119651 
L 416.621667 -181.119568 
L 418.362083 -181.133196 
L 420.1025 -181.133276 
L 421.842917 -181.136747 
L 423.583333 -181.133935 
L 425.32375 -181.118269 
L 427.064167 -181.133114 
L 428.804583 -181.174236 
L 430.545 -181.173405 
L 432.285417 -181.190226 
L 434.025833 -181.174236 
L 435.76625 -181.174236 
L 437.506667 -181.174236 
L 439.247083 -181.173405 
L 440.9875 -181.173822 
L 442.727917 -181.173405 
L 444.468333 -181.173822 
L 446.20875 -181.174236 
L 447.949167 -181.173405 
L 449.689583 -181.173295 
L 451.43 -181.173721 
L 453.170417 -181.173639 
L 454.910833 -181.173222 
L 456.65125 -181.190459 
L 458.391667 -181.174382 
L 460.132083 -181.174897 
L 461.8725 -181.174065 
L 463.612917 -181.174065 
L 465.353333 -181.174897 
L 467.09375 -181.174065 
L 468.834167 -181.174065 
L 470.574583 -181.174897 
L 472.315 -181.174065 
L 472.315 -181.608235 
L 472.315 -181.608235 
L 470.574583 -181.608869 
L 468.834167 -181.608235 
L 467.09375 -181.608235 
L 465.353333 -181.608869 
L 463.612917 -181.608235 
L 461.8725 -181.608235 
L 460.132083 -181.608869 
L 458.391667 -181.608629 
L 456.65125 -181.618195 
L 454.910833 -181.607592 
L 453.170417 -181.607908 
L 451.43 -181.607825 
L 449.689583 -181.607497 
L 447.949167 -181.607431 
L 446.20875 -181.608065 
L 444.468333 -181.607746 
L 442.727917 -181.607431 
L 440.9875 -181.607746 
L 439.247083 -181.607431 
L 437.506667 -181.608065 
L 435.76625 -181.608065 
L 434.025833 -181.608065 
L 432.285417 -181.617717 
L 430.545 -181.607431 
L 428.804583 -181.608065 
L 427.064167 -181.596437 
L 425.32375 -181.587105 
L 423.583333 -181.59708 
L 421.842917 -181.594269 
L 420.1025 -181.596275 
L 418.362083 -181.596355 
L 416.621667 -181.582876 
L 414.88125 -181.582794 
L 413.140833 -181.572788 
L 411.400417 -181.582472 
L 409.66 -181.573113 
L 407.919583 -181.573113 
L 406.179167 -181.573113 
L 404.43875 -181.572711 
L 402.698333 -181.563047 
L 400.957917 -181.562721 
L 399.2175 -181.562318 
L 397.477083 -181.562394 
L 395.736667 -181.558923 
L 393.99625 -181.549554 
L 392.255833 -181.558842 
L 390.515417 -181.548746 
L 388.775 -181.548746 
L 387.034583 -181.561666 
L 385.294167 -181.55121 
L 383.55375 -181.541352 
L 381.813333 -181.548824 
L 380.072917 -181.536946 
L 378.3325 -181.52732 
L 376.592083 -181.534413 
L 374.851667 -181.523823 
L 373.11125 -181.513507 
L 371.370833 -181.502726 
L 369.630417 -181.483839 
L 367.89 -181.501326 
L 366.149583 -181.482365 
L 364.409167 -181.513424 
L 362.66875 -181.452552 
L 360.928333 -181.45884 
L 359.187917 -181.439792 
L 357.4475 -181.438568 
L 355.707083 -181.427168 
L 353.966667 -181.44223 
L 352.22625 -181.425674 
L 350.485833 -181.435248 
L 348.745417 -181.411367 
L 347.005 -181.39758 
L 345.264583 -181.377437 
L 343.524167 -181.390171 
L 341.78375 -181.362956 
L 340.043333 -181.364439 
L 338.302917 -181.335975 
L 336.5625 -181.307011 
L 334.822083 -181.320518 
L 333.081667 -181.285836 
L 331.34125 -181.303803 
L 329.600833 -181.302158 
L 327.860417 -181.239819 
L 326.12 -181.253977 
L 324.379583 -181.256673 
L 322.639167 -181.21637 
L 320.89875 -181.218349 
L 319.158333 -181.147905 
L 317.417917 -181.147054 
L 315.6775 -181.12503 
L 313.937083 -181.098225 
L 312.196667 -181.070349 
L 310.45625 -181.057822 
L 308.715833 -181.007188 
L 306.975417 -181.003348 
L 305.235 -180.988756 
L 303.494583 -180.986309 
L 301.754167 -180.950277 
L 300.01375 -180.945247 
L 298.273333 -180.893274 
L 296.532917 -180.80498 
L 294.7925 -180.823604 
L 293.052083 -180.782159 
L 291.311667 -180.764125 
L 289.57125 -180.749719 
L 287.830833 -180.744353 
L 286.090417 -180.708714 
L 284.35 -180.643484 
L 282.609583 -180.587605 
L 280.869167 -180.572966 
L 279.12875 -180.515848 
L 277.388333 -180.400615 
L 275.647917 -180.447872 
L 273.9075 -180.361851 
L 272.167083 -180.191705 
L 270.426667 -180.178833 
L 268.68625 -180.062779 
L 266.945833 -179.969476 
L 265.205417 -179.8116 
L 263.465 -179.704255 
L 261.724583 -179.568207 
L 259.984167 -179.361391 
L 258.24375 -179.207698 
L 256.503333 -179.047594 
L 254.762917 -178.778577 
L 253.0225 -178.524676 
L 251.282083 -178.295777 
L 249.541667 -177.888751 
L 247.80125 -177.552786 
L 246.060833 -177.109837 
L 244.320417 -176.623599 
L 242.58 -176.141738 
L 240.839583 -175.709146 
L 239.099167 -175.318872 
L 237.35875 -174.836745 
L 235.618333 -174.263628 
L 233.877917 -173.714369 
L 232.1375 -172.930562 
L 230.397083 -172.369162 
L 228.656667 -171.784738 
L 226.91625 -171.13895 
L 225.175833 -170.284993 
L 223.435417 -169.357949 
L 221.695 -168.220267 
L 219.954583 -167.254813 
L 218.214167 -166.122489 
L 216.47375 -164.951884 
L 214.733333 -163.699927 
L 212.992917 -162.506555 
L 211.2525 -161.410848 
L 209.512083 -160.110157 
L 207.771667 -158.690295 
L 206.03125 -157.353132 
L 204.290833 -155.857494 
L 202.550417 -154.315723 
L 200.81 -152.946232 
L 199.069583 -151.273753 
L 197.329167 -149.55067 
L 195.58875 -147.728325 
L 193.848333 -145.841423 
L 192.107917 -144.094321 
L 190.3675 -142.062395 
L 188.627083 -139.676798 
L 186.886667 -137.198753 
L 185.14625 -135.075343 
L 183.405833 -132.913605 
L 181.665417 -130.577594 
L 179.925 -127.977323 
L 178.184583 -125.560108 
L 176.444167 -123.161105 
L 174.70375 -121.004642 
L 172.963333 -118.913909 
L 171.222917 -116.76033 
L 169.4825 -114.5134 
L 167.742083 -112.465649 
L 166.001667 -110.434818 
L 164.26125 -108.291029 
L 162.520833 -106.108986 
L 160.780417 -104.553027 
L 159.04 -102.82798 
L 157.299583 -101.215355 
L 155.559167 -99.589264 
L 153.81875 -97.919779 
L 152.078333 -96.257319 
L 150.337917 -94.630197 
L 148.5975 -92.980033 
L 146.857083 -91.354783 
L 145.116667 -89.870555 
L 143.37625 -87.994953 
L 141.635833 -85.987559 
L 139.895417 -84.098352 
L 138.155 -82.170061 
L 136.414583 -80.189601 
L 134.674167 -78.160838 
L 132.93375 -76.118754 
L 131.193333 -74.185202 
L 129.452917 -72.28912 
L 127.7125 -69.917239 
L 125.972083 -67.892025 
L 124.231667 -66.176949 
L 122.49125 -64.019413 
L 120.750833 -62.150517 
L 119.010417 -60.043734 
L 117.27 -58.126563 
L 115.529583 -56.656868 
L 113.789167 -55.346916 
L 112.04875 -53.962708 
L 110.308333 -52.659569 
L 108.567917 -51.668714 
L 106.8275 -51.074303 
L 105.087083 -50.668621 
L 103.346667 -50.40857 
L 101.60625 -50.337987 
L 99.865833 -50.255172 
L 98.125417 -50.158055 
L 96.385 -50.128239 
L 94.644583 -50.10769 
L 92.904167 -50.062458 
L 91.16375 -50.012021 
L 89.423333 -49.959087 
L 87.682917 -49.856607 
L 85.9425 -49.603 
L 84.202083 -49.389386 
L 82.461667 -49.084027 
L 80.72125 -48.827428 
L 78.980833 -48.706837 
L 77.240417 -48.65398 
L 75.5 -48.628558 
L 73.759583 -48.628558 
L 72.019167 -48.628558 
L 70.27875 -48.628558 
L 68.538333 -48.628558 
L 66.797917 -48.628558 
L 65.0575 -48.628558 
L 63.317083 -48.628558 
L 61.576667 -48.628558 
L 59.83625 -48.628558 
L 58.095833 -48.628558 
L 56.355417 -48.628558 
L 54.615 -48.628558 
z
" style="stroke: #33ccff; stroke-opacity: 0.3"/>
    </defs>
    <g clip-path="url(#pf326e73abe)">
     <use xlink:href="#mbeaf002a0f" x="0" y="216" style="fill: #33ccff; fill-opacity: 0.3; stroke: #33ccff; stroke-opacity: 0.3"/>
    </g>
   </g>
   <g id="PolyCollection_2">
    <defs>
     <path id="m6530058a70" d="M 54.615 -48.628558 
L 54.615 -48.628558 
L 56.355417 -48.628558 
L 58.095833 -48.628558 
L 59.83625 -48.628558 
L 61.576667 -48.628558 
L 63.317083 -48.628558 
L 65.0575 -48.628558 
L 66.797917 -48.628558 
L 68.538333 -48.628558 
L 70.27875 -48.628558 
L 72.019167 -48.628558 
L 73.759583 -48.628558 
L 75.5 -48.628558 
L 77.240417 -48.628558 
L 78.980833 -48.628558 
L 80.72125 -48.628558 
L 82.461667 -48.628558 
L 84.202083 -48.628558 
L 85.9425 -48.628558 
L 87.682917 -48.617162 
L 89.423333 -48.616364 
L 91.16375 -48.648753 
L 92.904167 -48.695437 
L 94.644583 -48.796782 
L 96.385 -48.95543 
L 98.125417 -49.077348 
L 99.865833 -49.292223 
L 101.60625 -49.526551 
L 103.346667 -49.851615 
L 105.087083 -50.152546 
L 106.8275 -50.520851 
L 108.567917 -51.003037 
L 110.308333 -51.525027 
L 112.04875 -52.018558 
L 113.789167 -52.614958 
L 115.529583 -53.198024 
L 117.27 -53.851969 
L 119.010417 -54.585419 
L 120.750833 -55.357471 
L 122.49125 -56.016465 
L 124.231667 -56.659362 
L 125.972083 -57.284498 
L 127.7125 -58.159379 
L 129.452917 -58.961397 
L 131.193333 -60.023289 
L 132.93375 -61.565101 
L 134.674167 -63.441916 
L 136.414583 -66.164107 
L 138.155 -68.692552 
L 139.895417 -71.231718 
L 141.635833 -74.343583 
L 143.37625 -77.57796 
L 145.116667 -80.752603 
L 146.857083 -84.25712 
L 148.5975 -88.065247 
L 150.337917 -92.231881 
L 152.078333 -96.744186 
L 153.81875 -101.301767 
L 155.559167 -105.604564 
L 157.299583 -109.57771 
L 159.04 -113.70581 
L 160.780417 -118.041984 
L 162.520833 -122.161161 
L 164.26125 -125.788568 
L 166.001667 -129.163606 
L 167.742083 -132.28804 
L 169.4825 -135.120477 
L 171.222917 -137.953181 
L 172.963333 -141.149972 
L 174.70375 -144.048946 
L 176.444167 -146.881804 
L 178.184583 -149.513623 
L 179.925 -152.096257 
L 181.665417 -154.239341 
L 183.405833 -156.076417 
L 185.14625 -158.066938 
L 186.886667 -159.897137 
L 188.627083 -161.299045 
L 190.3675 -162.692203 
L 192.107917 -164.169664 
L 193.848333 -165.221445 
L 195.58875 -166.319667 
L 197.329167 -167.377339 
L 199.069583 -168.202384 
L 200.81 -169.01185 
L 202.550417 -169.709022 
L 204.290833 -170.298355 
L 206.03125 -170.946255 
L 207.771667 -171.327523 
L 209.512083 -172.009423 
L 211.2525 -172.440982 
L 212.992917 -173.14125 
L 214.733333 -173.646258 
L 216.47375 -173.876813 
L 218.214167 -174.245548 
L 219.954583 -174.522468 
L 221.695 -174.845723 
L 223.435417 -175.013277 
L 225.175833 -175.197815 
L 226.91625 -175.503929 
L 228.656667 -175.625601 
L 230.397083 -175.877305 
L 232.1375 -176.031144 
L 233.877917 -176.297534 
L 235.618333 -176.4335 
L 237.35875 -176.536675 
L 239.099167 -176.796424 
L 240.839583 -176.878577 
L 242.58 -177.136601 
L 244.320417 -177.292999 
L 246.060833 -177.435172 
L 247.80125 -177.571058 
L 249.541667 -177.655603 
L 251.282083 -177.816715 
L 253.0225 -178.004971 
L 254.762917 -178.128862 
L 256.503333 -178.335661 
L 258.24375 -178.405317 
L 259.984167 -178.512552 
L 261.724583 -178.62644 
L 263.465 -178.772073 
L 265.205417 -178.9439 
L 266.945833 -179.128332 
L 268.68625 -179.321192 
L 270.426667 -179.331978 
L 272.167083 -179.403554 
L 273.9075 -179.476159 
L 275.647917 -179.618981 
L 277.388333 -179.724911 
L 279.12875 -179.776308 
L 280.869167 -179.870638 
L 282.609583 -179.951631 
L 284.35 -180.015353 
L 286.090417 -180.040618 
L 287.830833 -180.113979 
L 289.57125 -180.190005 
L 291.311667 -180.226376 
L 293.052083 -180.288966 
L 294.7925 -180.29644 
L 296.532917 -180.450624 
L 298.273333 -180.529987 
L 300.01375 -180.561868 
L 301.754167 -180.610509 
L 303.494583 -180.701027 
L 305.235 -180.734985 
L 306.975417 -180.745963 
L 308.715833 -180.818566 
L 310.45625 -180.791763 
L 312.196667 -180.834492 
L 313.937083 -180.914125 
L 315.6775 -180.890202 
L 317.417917 -180.908308 
L 319.158333 -180.900881 
L 320.89875 -180.962479 
L 322.639167 -180.99688 
L 324.379583 -180.970092 
L 326.12 -180.970558 
L 327.860417 -181.004883 
L 329.600833 -181.008436 
L 331.34125 -180.987328 
L 333.081667 -181.095195 
L 334.822083 -181.05103 
L 336.5625 -181.066652 
L 338.302917 -181.033792 
L 340.043333 -181.107969 
L 341.78375 -181.122934 
L 343.524167 -181.131656 
L 345.264583 -181.127521 
L 347.005 -181.158967 
L 348.745417 -181.151566 
L 350.485833 -181.130451 
L 352.22625 -181.13514 
L 353.966667 -181.162065 
L 355.707083 -181.143903 
L 357.4475 -181.146116 
L 359.187917 -181.163366 
L 360.928333 -181.185105 
L 362.66875 -181.184848 
L 364.409167 -181.219053 
L 366.149583 -181.192646 
L 367.89 -181.200461 
L 369.630417 -181.198042 
L 371.370833 -181.213612 
L 373.11125 -181.212358 
L 374.851667 -181.230934 
L 376.592083 -181.240018 
L 378.3325 -181.226298 
L 380.072917 -181.215633 
L 381.813333 -181.257161 
L 383.55375 -181.238264 
L 385.294167 -181.261222 
L 387.034583 -181.286059 
L 388.775 -181.286059 
L 390.515417 -181.260659 
L 392.255833 -181.295036 
L 393.99625 -181.323465 
L 395.736667 -181.304665 
L 397.477083 -181.296489 
L 399.2175 -181.301382 
L 400.957917 -181.300999 
L 402.698333 -181.277157 
L 404.43875 -181.297904 
L 406.179167 -181.32469 
L 407.919583 -181.346187 
L 409.66 -181.256251 
L 411.400417 -181.277565 
L 413.140833 -181.303055 
L 414.88125 -181.257768 
L 416.621667 -181.257462 
L 418.362083 -181.296084 
L 420.1025 -181.257768 
L 421.842917 -181.341241 
L 423.583333 -181.236128 
L 425.32375 -181.304588 
L 427.064167 -181.305051 
L 428.804583 -181.273121 
L 430.545 -181.257683 
L 432.285417 -181.319709 
L 434.025833 -181.295043 
L 435.76625 -181.250102 
L 437.506667 -181.295349 
L 439.247083 -181.272541 
L 440.9875 -181.36322 
L 442.727917 -181.319934 
L 444.468333 -181.379446 
L 446.20875 -181.317199 
L 447.949167 -181.356399 
L 449.689583 -181.273612 
L 451.43 -181.320936 
L 453.170417 -181.318122 
L 454.910833 -181.33714 
L 456.65125 -181.336632 
L 458.391667 -181.313517 
L 460.132083 -181.290001 
L 461.8725 -181.297006 
L 463.612917 -181.357211 
L 465.353333 -181.286752 
L 467.09375 -181.357517 
L 468.834167 -181.323813 
L 470.574583 -181.34744 
L 472.315 -181.302408 
L 472.315 -181.732626 
L 472.315 -181.732626 
L 470.574583 -181.733711 
L 468.834167 -181.743636 
L 467.09375 -181.733993 
L 465.353333 -181.724888 
L 463.612917 -181.733631 
L 461.8725 -181.724326 
L 460.132083 -181.720303 
L 458.391667 -181.718843 
L 456.65125 -181.719122 
L 454.910833 -181.719281 
L 453.170417 -181.714906 
L 451.43 -181.721784 
L 449.689583 -181.712631 
L 447.949167 -181.72141 
L 446.20875 -181.714492 
L 444.468333 -181.731448 
L 442.727917 -181.721449 
L 440.9875 -181.723612 
L 439.247083 -181.712365 
L 437.506667 -181.712281 
L 435.76625 -181.710075 
L 434.025833 -181.711919 
L 432.285417 -181.721006 
L 430.545 -181.703162 
L 428.804583 -181.710448 
L 427.064167 -181.712271 
L 425.32375 -181.712066 
L 423.583333 -181.700656 
L 421.842917 -181.719526 
L 420.1025 -181.701071 
L 418.362083 -181.708206 
L 416.621667 -181.700709 
L 414.88125 -181.701071 
L 413.140833 -181.710925 
L 411.400417 -181.703331 
L 409.66 -181.701252 
L 407.919583 -181.713243 
L 406.179167 -181.71001 
L 404.43875 -181.702374 
L 402.698333 -181.700397 
L 400.957917 -181.708972 
L 399.2175 -181.709257 
L 397.477083 -181.701784 
L 395.736667 -181.702632 
L 393.99625 -181.70522 
L 392.255833 -181.700564 
L 390.515417 -181.688155 
L 388.775 -181.69584 
L 387.034583 -181.69584 
L 385.294167 -181.686923 
L 383.55375 -181.684484 
L 381.813333 -181.686306 
L 380.072917 -181.68439 
L 378.3325 -181.67172 
L 376.592083 -181.667024 
L 374.851667 -181.66508 
L 373.11125 -181.659594 
L 371.370833 -181.642633 
L 369.630417 -181.649181 
L 367.89 -181.644756 
L 366.149583 -181.636865 
L 364.409167 -181.644211 
L 362.66875 -181.630961 
L 360.928333 -181.630036 
L 359.187917 -181.623704 
L 357.4475 -181.616223 
L 355.707083 -181.619105 
L 353.966667 -181.623667 
L 352.22625 -181.614834 
L 350.485833 -181.606489 
L 348.745417 -181.614449 
L 347.005 -181.620749 
L 345.264583 -181.602067 
L 343.524167 -181.596597 
L 341.78375 -181.590281 
L 340.043333 -181.579847 
L 338.302917 -181.549424 
L 336.5625 -181.560676 
L 334.822083 -181.552236 
L 333.081667 -181.562544 
L 331.34125 -181.514345 
L 329.600833 -181.517967 
L 327.860417 -181.519515 
L 326.12 -181.501039 
L 324.379583 -181.500167 
L 322.639167 -181.499112 
L 320.89875 -181.4757 
L 319.158333 -181.441052 
L 317.417917 -181.431619 
L 315.6775 -181.421652 
L 313.937083 -181.426134 
L 312.196667 -181.379111 
L 310.45625 -181.346982 
L 308.715833 -181.351259 
L 306.975417 -181.313245 
L 305.235 -181.285123 
L 303.494583 -181.244223 
L 301.754167 -181.189036 
L 300.01375 -181.14143 
L 298.273333 -181.125188 
L 296.532917 -181.061519 
L 294.7925 -180.949691 
L 293.052083 -180.927756 
L 291.311667 -180.881734 
L 289.57125 -180.855612 
L 287.830833 -180.786601 
L 286.090417 -180.713588 
L 284.35 -180.724483 
L 282.609583 -180.628798 
L 280.869167 -180.567428 
L 279.12875 -180.518726 
L 277.388333 -180.426423 
L 275.647917 -180.315131 
L 273.9075 -180.19595 
L 272.167083 -180.145574 
L 270.426667 -180.074119 
L 268.68625 -180.005367 
L 266.945833 -179.866715 
L 265.205417 -179.694237 
L 263.465 -179.554603 
L 261.724583 -179.421525 
L 259.984167 -179.314182 
L 258.24375 -179.183477 
L 256.503333 -179.102081 
L 254.762917 -178.884464 
L 253.0225 -178.747691 
L 251.282083 -178.582377 
L 249.541667 -178.460099 
L 247.80125 -178.361179 
L 246.060833 -178.208996 
L 244.320417 -178.024334 
L 242.58 -177.823821 
L 240.839583 -177.583909 
L 239.099167 -177.484599 
L 237.35875 -177.227027 
L 235.618333 -177.133034 
L 233.877917 -176.947177 
L 232.1375 -176.787146 
L 230.397083 -176.682993 
L 228.656667 -176.547711 
L 226.91625 -176.421081 
L 225.175833 -176.142685 
L 223.435417 -176.033807 
L 221.695 -175.891905 
L 219.954583 -175.651054 
L 218.214167 -175.381914 
L 216.47375 -175.135746 
L 214.733333 -174.92083 
L 212.992917 -174.553612 
L 211.2525 -174.184818 
L 209.512083 -173.836388 
L 207.771667 -173.39776 
L 206.03125 -173.084256 
L 204.290833 -172.556489 
L 202.550417 -172.155962 
L 200.81 -171.669445 
L 199.069583 -171.090698 
L 197.329167 -170.508152 
L 195.58875 -169.696052 
L 193.848333 -168.832266 
L 192.107917 -168.015944 
L 190.3675 -166.937217 
L 188.627083 -165.865753 
L 186.886667 -164.678722 
L 185.14625 -163.084849 
L 183.405833 -161.499246 
L 181.665417 -159.955357 
L 179.925 -158.129292 
L 178.184583 -156.00588 
L 176.444167 -153.513268 
L 174.70375 -151.07662 
L 172.963333 -148.4869 
L 171.222917 -145.735806 
L 169.4825 -143.217147 
L 167.742083 -140.724271 
L 166.001667 -137.818334 
L 164.26125 -134.756259 
L 162.520833 -131.335643 
L 160.780417 -127.444322 
L 159.04 -123.30787 
L 157.299583 -119.250966 
L 155.559167 -115.229615 
L 153.81875 -110.87127 
L 152.078333 -106.121729 
L 150.337917 -101.522154 
L 148.5975 -97.108107 
L 146.857083 -92.844201 
L 145.116667 -88.926544 
L 143.37625 -85.372607 
L 141.635833 -81.495364 
L 139.895417 -77.710941 
L 138.155 -74.437275 
L 136.414583 -71.109935 
L 134.674167 -67.500772 
L 132.93375 -64.870319 
L 131.193333 -62.731622 
L 129.452917 -61.330876 
L 127.7125 -60.154435 
L 125.972083 -59.106743 
L 124.231667 -58.378227 
L 122.49125 -57.649016 
L 120.750833 -56.957858 
L 119.010417 -56.130888 
L 117.27 -55.31623 
L 115.529583 -54.580236 
L 113.789167 -53.948791 
L 112.04875 -53.277092 
L 110.308333 -52.73781 
L 108.567917 -52.136167 
L 106.8275 -51.573806 
L 105.087083 -51.133675 
L 103.346667 -50.750015 
L 101.60625 -50.308616 
L 99.865833 -49.961556 
L 98.125417 -49.640457 
L 96.385 -49.423176 
L 94.644583 -49.150428 
L 92.904167 -48.947663 
L 91.16375 -48.830596 
L 89.423333 -48.699234 
L 87.682917 -48.663346 
L 85.9425 -48.628558 
L 84.202083 -48.628558 
L 82.461667 -48.628558 
L 80.72125 -48.628558 
L 78.980833 -48.628558 
L 77.240417 -48.628558 
L 75.5 -48.628558 
L 73.759583 -48.628558 
L 72.019167 -48.628558 
L 70.27875 -48.628558 
L 68.538333 -48.628558 
L 66.797917 -48.628558 
L 65.0575 -48.628558 
L 63.317083 -48.628558 
L 61.576667 -48.628558 
L 59.83625 -48.628558 
L 58.095833 -48.628558 
L 56.355417 -48.628558 
L 54.615 -48.628558 
z
" style="stroke: #f99a5a; stroke-opacity: 0.3"/>
    </defs>
    <g clip-path="url(#pf326e73abe)">
     <use xlink:href="#m6530058a70" x="0" y="216" style="fill: #f99a5a; fill-opacity: 0.3; stroke: #f99a5a; stroke-opacity: 0.3"/>
    </g>
   </g>
   <g id="matplotlib.axis_1">
    <g id="xtick_1">
     <g id="line2d_1">
      <defs>
       <path id="mb0d11d85e7" d="M 0 0 
L 0 3.5 
" style="stroke: #000000; stroke-width: 0.8"/>
      </defs>
      <g>
       <use xlink:href="#mb0d11d85e7" x="54.615" y="174.04" style="stroke: #000000; stroke-width: 0.8"/>
      </g>
     </g>
     <g id="text_1">
      <text style="font: 10px 'sans-serif'; text-anchor: middle" x="54.615" y="188.638438" transform="rotate(-0, 54.615, 188.638438)">0</text>
     </g>
    </g>
    <g id="xtick_2">
     <g id="line2d_2">
      <g>
       <use xlink:href="#mb0d11d85e7" x="124.231667" y="174.04" style="stroke: #000000; stroke-width: 0.8"/>
      </g>
     </g>
     <g id="text_2">
      <text style="font: 10px 'sans-serif'; text-anchor: middle" x="124.231667" y="188.638438" transform="rotate(-0, 124.231667, 188.638438)">2000</text>
     </g>
    </g>
    <g id="xtick_3">
     <g id="line2d_3">
      <g>
       <use xlink:href="#mb0d11d85e7" x="193.848333" y="174.04" style="stroke: #000000; stroke-width: 0.8"/>
      </g>
     </g>
     <g id="text_3">
      <text style="font: 10px 'sans-serif'; text-anchor: middle" x="193.848333" y="188.638438" transform="rotate(-0, 193.848333, 188.638438)">4000</text>
     </g>
    </g>
    <g id="xtick_4">
     <g id="line2d_4">
      <g>
       <use xlink:href="#mb0d11d85e7" x="263.465" y="174.04" style="stroke: #000000; stroke-width: 0.8"/>
      </g>
     </g>
     <g id="text_4">
      <text style="font: 10px 'sans-serif'; text-anchor: middle" x="263.465" y="188.638438" transform="rotate(-0, 263.465, 188.638438)">6000</text>
     </g>
    </g>
    <g id="xtick_5">
     <g id="line2d_5">
      <g>
       <use xlink:href="#mb0d11d85e7" x="333.081667" y="174.04" style="stroke: #000000; stroke-width: 0.8"/>
      </g>
     </g>
     <g id="text_5">
      <text style="font: 10px 'sans-serif'; text-anchor: middle" x="333.081667" y="188.638438" transform="rotate(-0, 333.081667, 188.638438)">8000</text>
     </g>
    </g>
    <g id="xtick_6">
     <g id="line2d_6">
      <g>
       <use xlink:href="#mb0d11d85e7" x="402.698333" y="174.04" style="stroke: #000000; stroke-width: 0.8"/>
      </g>
     </g>
     <g id="text_6">
      <text style="font: 10px 'sans-serif'; text-anchor: middle" x="402.698333" y="188.638438" transform="rotate(-0, 402.698333, 188.638438)">10000</text>
     </g>
    </g>
    <g id="xtick_7">
     <g id="line2d_7">
      <g>
       <use xlink:href="#mb0d11d85e7" x="472.315" y="174.04" style="stroke: #000000; stroke-width: 0.8"/>
      </g>
     </g>
     <g id="text_7">
      <text style="font: 10px 'sans-serif'; text-anchor: middle" x="472.315" y="188.638438" transform="rotate(-0, 472.315, 188.638438)">12000</text>
     </g>
    </g>
    <g id="text_8">
     <text style="font: 10px 'sans-serif'; text-anchor: middle" x="263.465" y="202.316563" transform="rotate(-0, 263.465, 202.316563)">Epoch</text>
    </g>
   </g>
   <g id="matplotlib.axis_2">
    <g id="ytick_1">
     <g id="line2d_8">
      <defs>
       <path id="m8f5669f5ab" d="M 0 0 
L -3.5 0 
" style="stroke: #000000; stroke-width: 0.8"/>
      </defs>
      <g>
       <use xlink:href="#m8f5669f5ab" x="33.73" y="167.371442" style="stroke: #000000; stroke-width: 0.8"/>
      </g>
     </g>
     <g id="text_9">
      <text style="font: 10px 'sans-serif'; text-anchor: end" x="26.73" y="171.170661" transform="rotate(-0, 26.73, 171.170661)">0.5</text>
     </g>
    </g>
    <g id="ytick_2">
     <g id="line2d_9">
      <g>
       <use xlink:href="#m8f5669f5ab" x="33.73" y="140.703387" style="stroke: #000000; stroke-width: 0.8"/>
      </g>
     </g>
     <g id="text_10">
      <text style="font: 10px 'sans-serif'; text-anchor: end" x="26.73" y="144.502606" transform="rotate(-0, 26.73, 144.502606)">0.6</text>
     </g>
    </g>
    <g id="ytick_3">
     <g id="line2d_10">
      <g>
       <use xlink:href="#m8f5669f5ab" x="33.73" y="114.035332" style="stroke: #000000; stroke-width: 0.8"/>
      </g>
     </g>
     <g id="text_11">
      <text style="font: 10px 'sans-serif'; text-anchor: end" x="26.73" y="117.834551" transform="rotate(-0, 26.73, 117.834551)">0.7</text>
     </g>
    </g>
    <g id="ytick_4">
     <g id="line2d_11">
      <g>
       <use xlink:href="#m8f5669f5ab" x="33.73" y="87.367277" style="stroke: #000000; stroke-width: 0.8"/>
      </g>
     </g>
     <g id="text_12">
      <text style="font: 10px 'sans-serif'; text-anchor: end" x="26.73" y="91.166495" transform="rotate(-0, 26.73, 91.166495)">0.8</text>
     </g>
    </g>
    <g id="ytick_5">
     <g id="line2d_12">
      <g>
       <use xlink:href="#m8f5669f5ab" x="33.73" y="60.699221" style="stroke: #000000; stroke-width: 0.8"/>
      </g>
     </g>
     <g id="text_13">
      <text style="font: 10px 'sans-serif'; text-anchor: end" x="26.73" y="64.49844" transform="rotate(-0, 26.73, 64.49844)">0.9</text>
     </g>
    </g>
    <g id="ytick_6">
     <g id="line2d_13">
      <g>
       <use xlink:href="#m8f5669f5ab" x="33.73" y="34.031166" style="stroke: #000000; stroke-width: 0.8"/>
      </g>
     </g>
     <g id="text_14">
      <text style="font: 10px 'sans-serif'; text-anchor: end" x="26.73" y="37.830385" transform="rotate(-0, 26.73, 37.830385)">1.0</text>
     </g>
    </g>
   </g>
   <g id="line2d_14">
    <path d="M 54.615 167.371442 
L 78.980833 167.329482 
L 80.72125 167.240121 
L 89.423333 166.167022 
L 105.087083 165.549468 
L 106.8275 165.270876 
L 108.567917 164.836055 
L 110.308333 164.180793 
L 112.04875 163.237786 
L 115.529583 161.099074 
L 117.27 159.833434 
L 119.010417 158.163356 
L 120.750833 156.315235 
L 122.49125 154.711106 
L 124.231667 152.779799 
L 125.972083 151.238592 
L 127.7125 149.336218 
L 129.452917 147.07611 
L 132.93375 143.339125 
L 138.155 137.406259 
L 145.116667 129.388228 
L 148.5975 126.122947 
L 157.299583 117.773984 
L 162.520833 112.972714 
L 166.001667 108.757232 
L 169.4825 104.848016 
L 172.963333 100.553309 
L 176.444167 96.413105 
L 179.925 91.567443 
L 181.665417 88.890463 
L 185.14625 84.138773 
L 186.886667 81.904996 
L 190.3675 76.80265 
L 192.107917 74.672286 
L 193.848333 72.868164 
L 197.329167 69.048002 
L 200.81 65.46961 
L 202.550417 64.054701 
L 206.03125 60.814971 
L 211.2525 56.529582 
L 214.733333 54.188252 
L 218.214167 51.591229 
L 219.954583 50.43018 
L 221.695 49.442949 
L 223.435417 48.172553 
L 226.91625 46.287474 
L 237.35875 42.223161 
L 239.099167 41.681741 
L 242.58 40.793416 
L 251.282083 38.474982 
L 261.724583 37.103116 
L 270.426667 36.368279 
L 272.167083 36.351062 
L 275.647917 36.050681 
L 277.388333 36.086214 
L 280.869167 35.863124 
L 284.35 35.75396 
L 287.830833 35.607799 
L 296.532917 35.542227 
L 300.01375 35.396432 
L 308.715833 35.312545 
L 317.417917 35.148433 
L 327.860417 35.046597 
L 331.34125 34.978828 
L 336.5625 34.973699 
L 343.524167 34.867834 
L 348.745417 34.851351 
L 357.4475 34.822411 
L 380.072917 34.703003 
L 395.736667 34.675519 
L 472.315 34.60885 
L 472.315 34.60885 
" clip-path="url(#pf326e73abe)" style="fill: none; stroke: #33ccff; stroke-width: 1.5; stroke-linecap: square"/>
   </g>
   <g id="line2d_15">
    <path d="M 54.615 167.371442 
L 89.423333 167.342201 
L 94.644583 167.026395 
L 101.60625 166.082417 
L 106.8275 164.952671 
L 112.04875 163.352175 
L 117.27 161.4159 
L 122.49125 159.167259 
L 125.972083 157.80438 
L 129.452917 155.853864 
L 131.193333 154.622545 
L 132.93375 152.78229 
L 134.674167 150.528656 
L 136.414583 147.362979 
L 139.895417 141.528671 
L 145.116667 131.160426 
L 146.857083 127.449339 
L 150.337917 119.122983 
L 155.559167 105.582911 
L 159.04 97.49316 
L 162.520833 89.251598 
L 164.26125 85.727587 
L 167.742083 79.493845 
L 171.222917 74.155507 
L 172.963333 71.181564 
L 176.444167 65.802464 
L 178.184583 63.240249 
L 179.925 60.887225 
L 181.665417 58.902651 
L 186.886667 53.71207 
L 192.107917 49.907196 
L 197.329167 47.057254 
L 200.81 45.659353 
L 206.03125 43.984744 
L 207.771667 43.637358 
L 209.512083 43.077095 
L 211.2525 42.6871 
L 214.733333 41.716456 
L 218.214167 41.186269 
L 223.435417 40.476458 
L 225.175833 40.32975 
L 226.91625 40.037495 
L 232.1375 39.590855 
L 235.618333 39.216733 
L 237.35875 39.118149 
L 239.099167 38.859488 
L 240.839583 38.768757 
L 244.320417 38.341333 
L 249.541667 37.942149 
L 270.426667 36.296951 
L 303.494583 35.027375 
L 317.417917 34.830036 
L 331.34125 34.749163 
L 334.822083 34.698367 
L 367.89 34.577391 
L 472.315 34.482483 
L 472.315 34.482483 
" clip-path="url(#pf326e73abe)" style="fill: none; stroke: #f99a5a; stroke-width: 1.5; stroke-linecap: square"/>
   </g>
   <g id="line2d_16">
    <path d="M 61.576667 174.04 
L 61.576667 27.6 
" clip-path="url(#pf326e73abe)" style="fill: none; stroke-dasharray: 1.85,0.8; stroke-dashoffset: 0; stroke: #000000; stroke-width: 0.5"/>
   </g>
   <g id="line2d_17">
    <path d="M 110.308333 174.04 
L 110.308333 27.6 
" clip-path="url(#pf326e73abe)" style="fill: none; stroke-dasharray: 1.85,0.8; stroke-dashoffset: 0; stroke: #000000; stroke-width: 0.5"/>
   </g>
   <g id="line2d_18">
    <path d="M 277.388333 174.04 
L 277.388333 27.6 
" clip-path="url(#pf326e73abe)" style="fill: none; stroke-dasharray: 1.85,0.8; stroke-dashoffset: 0; stroke: #000000; stroke-width: 0.5"/>
   </g>
   <g id="patch_3">
    <path d="M 33.73 174.04 
L 33.73 27.6 
" style="fill: none; stroke: #000000; stroke-width: 0.8; stroke-linejoin: miter; stroke-linecap: square"/>
   </g>
   <g id="patch_4">
    <path d="M 493.2 174.04 
L 493.2 27.6 
" style="fill: none; stroke: #000000; stroke-width: 0.8; stroke-linejoin: miter; stroke-linecap: square"/>
   </g>
   <g id="patch_5">
    <path d="M 33.73 174.04 
L 493.2 174.04 
" style="fill: none; stroke: #000000; stroke-width: 0.8; stroke-linejoin: miter; stroke-linecap: square"/>
   </g>
   <g id="patch_6">
    <path d="M 33.73 27.6 
L 493.2 27.6 
" style="fill: none; stroke: #000000; stroke-width: 0.8; stroke-linejoin: miter; stroke-linecap: square"/>
   </g>
   <g id="text_15">
    <text style="font: 14.4px 'sans-serif'; text-anchor: middle" x="263.465" y="21.6" transform="rotate(-0, 263.465, 21.6)">Accuracy</text>
   </g>
   <g id="legend_1">
    <g id="patch_7">
     <path d="M 418.092187 169.04 
L 486.2 169.04 
Q 488.2 169.04 488.2 167.04 
L 488.2 138.68375 
Q 488.2 136.68375 486.2 136.68375 
L 418.092187 136.68375 
Q 416.092187 136.68375 416.092187 138.68375 
L 416.092187 167.04 
Q 416.092187 169.04 418.092187 169.04 
z
" style="fill: #ffffff; opacity: 0.8; stroke: #cccccc; stroke-linejoin: miter"/>
    </g>
    <g id="line2d_19">
     <path d="M 420.092187 144.782188 
L 430.092187 144.782188 
L 440.092187 144.782188 
" style="fill: none; stroke: #33ccff; stroke-width: 1.5; stroke-linecap: square"/>
    </g>
    <g id="text_16">
     <text style="font: 10px 'sans-serif'; text-anchor: start" x="448.092187" y="148.282188" transform="rotate(-0, 448.092187, 148.282188)">English</text>
    </g>
    <g id="line2d_20">
     <path d="M 420.092187 159.460313 
L 430.092187 159.460313 
L 440.092187 159.460313 
" style="fill: none; stroke: #f99a5a; stroke-width: 1.5; stroke-linecap: square"/>
    </g>
    <g id="text_17">
     <text style="font: 10px 'sans-serif'; text-anchor: start" x="448.092187" y="162.960313" transform="rotate(-0, 448.092187, 162.960313)">French</text>
    </g>
   </g>
  </g>
 </g>
 <defs>
  <clipPath id="pf326e73abe">
   <rect x="33.73" y="27.6" width="459.47" height="146.44"/>
  </clipPath>
 </defs>
</svg>
